<?xml version="1.0" encoding="UTF-8" standalone="no"?>
<svg version="1.1" x="0px" y="0px" width="320px" height="595px" viewBox="0 0 280 460" xml:space="preserve" id="svg5746" sodipodi:docname="edit.svg" inkscape:version="1.1 (ce6663b3b7, 2021-05-25)" xmlns:inkscape="http://www.inkscape.org/namespaces/inkscape" xmlns:sodipodi="http://sodipodi.sourceforge.net/DTD/sodipodi-0.dtd" xmlns="http://www.w3.org/2000/svg" xmlns:svg="http://www.w3.org/2000/svg">
    <defs id="defs5750" />
    <sodipodi:namedview id="namedview5748" pagecolor="#ffffff" bordercolor="#666666" borderopacity="1.0" inkscape:pageshadow="2" inkscape:pageopacity="0.0" inkscape:pagecheckerboard="0" showgrid="false" inkscape:zoom="1.3966387" inkscape:cx="126.01685" inkscape:cy="285.32792" inkscape:window-width="1920" inkscape:window-height="1000" inkscape:window-x="0" inkscape:window-y="0" inkscape:window-maximized="1" inkscape:current-layer="svg5746" />
    <style type="text/css" id="style4898">
        .st0 {
            display: none;
        }

        .st1 {
            display: inline;
            fill: #004B8C;
        }

        .st2 {
            fill: #FFFFFF;
        }

        .st3 {
            fill: none;
            stroke: #004B8C;
            stroke-linecap: round;
            stroke-linejoin: round;
            stroke-miterlimit: 10;
        }

        .st4 {
            fill: #D0E2F3;
        }

        .st5 {
            fill: none;
            stroke: #004B8C;
            stroke-miterlimit: 10;
        }

        .st6 {
            fill: #004B8C;
        }

        .st7 {
            fill: #E6411A;
        }

        .st8 {
            fill: #003554;
        }

        .st9 {
            fill: none;
            stroke: #FFFFFF;
            stroke-linecap: round;
            stroke-linejoin: round;
            stroke-miterlimit: 10;
        }

        .st10 {
            fill: #FFFFFF;
            stroke: #004B8C;
            stroke-linecap: round;
            stroke-linejoin: round;
            stroke-miterlimit: 10;
        }

        .st11 {
            fill: none;
            stroke: #3A8DFF;
            stroke-linecap: round;
            stroke-linejoin: round;
            stroke-miterlimit: 10;
        }

        .st12 {
            fill: #3A8DFF;
            stroke: #004B8C;
            stroke-linecap: round;
            stroke-linejoin: round;
            stroke-miterlimit: 10;
        }

        .st13 {
            opacity: 0.2;
            fill: #156CC4;
        }

        .st14 {
            fill: #D0E2F3;
            stroke: #004B8C;
            stroke-linecap: round;
            stroke-linejoin: round;
            stroke-miterlimit: 10;
        }

        .st15 {
            fill: none;
            stroke: #FFFFFF;
            stroke-linecap: round;
            stroke-miterlimit: 10;
        }

        .st16 {
            fill: #004B8C;
            stroke: #004B8C;
            stroke-linecap: round;
            stroke-linejoin: round;
            stroke-miterlimit: 10;
        }

        .st17 {
            fill: none;
            stroke: #FFFFFF;
            stroke-width: 0.5;
            stroke-linecap: round;
            stroke-linejoin: round;
            stroke-miterlimit: 10;
        }

        .st18 {
            fill: none;
            stroke: #FFFFFF;
            stroke-width: 1.75;
            stroke-linecap: round;
            stroke-linejoin: round;
            stroke-miterlimit: 10;
        }

        .st19 {
            fill: #FFFFFF;
            stroke: #004B8C;
            stroke-miterlimit: 10;
        }

        .st20 {
            fill: none;
            stroke: #004B8C;
            stroke-linecap: round;
            stroke-miterlimit: 10;
        }

        .st21 {
            fill: #E8F0F9;
            stroke: #004B8C;
            stroke-linecap: round;
            stroke-linejoin: round;
            stroke-miterlimit: 10;
        }

        .st22 {
            fill: none;
            stroke: #D0E2F3;
            stroke-linecap: round;
            stroke-miterlimit: 10;
        }

        .st23 {
            fill: #FCFCFC;
        }
    </style>
    <g id="Layer_2" class="st0">
        <rect x="-0.0104575" y="-0.0093137" class="st1" width="320.0300598" height="595.0274658" id="rect4900" />
    </g>

    <g id="Grafik" transform="translate(-24.438203,-12.437097)">
        <line class="st9" x1="172.5715" y1="92.10173" x2="172.5715" y2="131.71672" id="line5141" />
        <path class="st9" d="M 128.28587,33.753619 H 161.042 c 6.36757,0 11.5295,5.161926 11.5295,11.529495 v 16.103302" id="path5143" />
        <g id="g5219" transform="translate(-0.88399325,-108.77072)">
            <path class="st2" d="m 283.38406,329.63544 v -79.469 c 0,-1.38379 -1.1217,-2.50561 -2.50543,-2.50561 H 160.98262 c -1.38373,0 -2.50549,1.12182 -2.50549,2.50561 v 79.469 h -12.9029 c 0,1.31738 0.42975,2.53149 1.14978,3.52099 l 0.0103,0.0315 h 0.0132 c 1.0921,1.48047 2.84333,2.44482 4.82422,2.44482 h 138.71779 c 3.31232,0 5.9975,-2.68506 5.9975,-5.99731 z" id="path5145" />
            <circle class="st3" cx="170.41869" cy="260.43491" r="1.3175046" id="circle5147" />
            <circle class="st3" cx="176.89511" cy="260.43491" r="1.3175046" id="circle5149" />
            <circle class="st3" cx="183.37154" cy="260.43491" r="1.3175046" id="circle5151" />
            <g id="g5167">
                <path class="st4" d="m 279.40704,288.86096 -96.99571,35.37543 97.26528,-0.0453 c 0,0 0.0166,1.73346 0.0166,0.0882 z" id="path5153" />
                <polyline class="st4" points="145.574234,329.635376 296.2869873,329.635376 294.8248291,333.1878357 146.7342834,333.1878357      145.574234,329.635376    " id="polyline5155" />
                <g id="g5165">
                    <path class="st5" d="M 280.8786,247.66084 H 160.98264 c -1.38375,0 -2.50548,1.12175 -2.50548,2.50548 v 79.46906 h 124.9069 v -79.46906 c 0,-1.38373 -1.12173,-2.50548 -2.50546,-2.50548 z" id="path5157" />
                    <path class="st5" d="M 279.14493,253.11229 H 162.71629 c -0.30244,0 -0.54762,0.24518 -0.54762,0.54762 v 69.97641 c 0,0.30243 0.24518,0.54761 0.54762,0.54761 h 116.42864 c 0.30246,0 0.54764,-0.24518 0.54764,-0.54761 v -69.97641 c 0,-0.30244 -0.24518,-0.54762 -0.54764,-0.54762 z" id="path5159" />
                    <circle class="st6" cx="220.93062" cy="250.37823" r="1.2708955" id="circle5161" />
                    <path class="st5" d="m 290.28952,335.63284 h -138.7178 c -3.31232,0 -5.99749,-2.68515 -5.99749,-5.99746 v 0 h 150.71276 v 0 c 0,3.31231 -2.68515,5.99746 -5.99747,5.99746 z" id="path5163" />
                </g>
            </g>
            <line class="st3" x1="162.16867" y1="265.93948" x2="279.69257" y2="265.93948" id="line5217" />
        </g>
        <path class="st4" d="m 282.08579,226.35974 v -39.79086 h -17.91467 c -1.52154,0 -2.755,1.2334 -2.755,2.75513 v 37.03573 z" id="path5221" />
        <polyline class="st9" points="74.0413589,314.9072571 67.774704,308.5366516 61.4876518,314.8871155  " id="polyline5223" transform="translate(-0.88399325,-108.77072)" />
        <polyline class="st9" points="167.1274261,234.2007294 173.4042969,240.5612793 179.6811523,234.2007294  " id="polyline5225" transform="translate(-0.88399325,-108.77072)" />
        <polyline class="st9" points="257.0177002,434.9453125 250.7510529,441.315918 244.4640045,434.9654236  " id="polyline5231" transform="translate(-0.88399325,-108.77072)" />
        <g id="g5237" transform="translate(-0.88399325,-108.77072)">
            <g id="g5235">
                <path class="st2" d="m 124.5823,194.3123 c -0.19293,-3.19311 -1.09174,-12.75659 -2.13873,-17.71216 -1.31794,-6.23803 -1.84748,-7.90405 -3.42926,-9.95532 -1.60254,-2.49512 -3.84369,-4.24536 -7.13349,-4.90698 0,0 -0.0393,-0.009 -0.0664,-0.0151 -3.31421,-1.05762 -6.96973,-1.46142 -10.64045,-3.16235 -0.28595,-0.27661 -0.37433,-0.29981 -0.39862,-0.18091 -0.0167,-0.008 -0.0333,-0.0142 -0.05,-0.0225 l 0.0435,0.0659 c -0.0247,0.30566 -0.0435,-0.0659 -0.0435,-0.0659 -0.0306,-1.32666 -0.0546,-1.98218 -0.0773,-2.52319 0.003,-0.002 0.006,-0.003 0.009,-0.005 l -0.11462,-3.18677 -0.0911,0.0112 c 1.07684,-0.70923 2.01318,-1.62891 2.68744,-2.72925 0.68811,-1.12304 1.11853,-2.38403 1.47028,-3.65332 0.52124,-1.88086 0.87085,-3.80737 1.06512,-5.74951 0.0315,0.34717 0.0805,0.67139 0.17902,0.92822 0.10675,0.28125 1.64996,-1.35888 2.32934,-9.55029 0.15528,-1.87354 -1.06763,-3.60107 -2.32934,-5.01807 -0.9997,-1.12573 -1.30658,-1.66504 -2.66535,-2.56469 -1.58941,-1.05249 -3.09015,-1.64746 -4.934202,-2.14258 -1.844116,-0.49487 -3.814392,-0.65991 -5.658447,-0.1648 -1.630555,0.42701 -3.076661,1.34888 -4.445252,2.36817 -0.0097,0 -0.0097,0.01 -0.01941,0.01 -1.368469,0.64062 -2.892273,2.61084 -3.891907,3.72705 -1.252075,1.41699 -1.873291,3.34839 -1.950867,5.23144 -0.330017,8.33716 3.552247,10.79273 3.658997,10.51124 0.06543,-0.17066 0.109131,-0.38135 0.137573,-0.61988 0.07489,0.66382 0.169495,1.3252 0.284912,1.98291 0.260437,1.48462 0.630616,2.96973 1.348755,4.29492 1.031677,1.90357 2.807007,3.35791 4.835816,4.10352 l -0.447693,0.0547 v 2.15625 c 0,0.7102 0,1.13281 0,2.88354 0,0 0.01483,0.10962 0.08179,0.27515 -0.09235,0.0476 -0.185852,0.0911 -0.281494,0.12768 l 0.199707,-0.40283 c -3.412903,1.25684 -6.229004,1.79395 -12.939087,5.09278 -4.157959,2.04419 -10.554627,18.31005 -12.203736,22.48706 -2.617553,6.62988 -0.513061,10.17334 3.668946,15.0791 5.530456,6.4873 4.690613,5.32471 9.210876,9.6958 l 0.448059,-0.44434 c 0.158936,0.0955 0.902222,0.5315 1.793213,0.87427 -0.07477,0.075 -0.118591,0.18726 -0.128906,0.30054 -0.05292,0.5791 -0.04236,1.1626 0.0188,1.74096 0.02692,0.004 0.05396,0.008 0.08087,0.012 -0.115905,3.92236 -0.287414,7.41308 -0.514587,10.03393 0.701904,0.0542 2.327698,0.1604 1.805481,0.22119 l -0.546326,0.0166 c 0.009,0.22314 0.02325,0.45678 0.03449,0.68432 -0.16101,1.05884 -0.09241,2.14746 0.211121,3.17456 0.0015,0.0188 0.0031,0.0376 0.0046,0.0564 -0.03198,-10e-4 -0.0639,-0.003 -0.09589,-0.004 l 0.104859,0.11352 c 0.615539,7.45948 1.97351,16.54126 2.266357,24.55616 0.09125,2.49853 -0.437744,28.16795 -0.437744,28.16795 0.384399,0.043 0.781494,0.0791 1.182983,0.11157 -0.192199,0.37012 -0.267578,0.92798 -0.236389,1.30249 -0.03168,0.72974 0.238526,1.4917 0.685974,2.08545 0.657227,0.87232 1.617127,1.45679 2.557801,2.01148 3.586548,2.11523 7.280639,4.12207 11.271367,5.30981 1.00098,0.2981 2.05817,0.54492 3.0824,0.34058 1.02417,-0.20435 2.00323,-0.97534 2.13391,-2.01148 0.19244,-1.52588 -1.36621,-2.63232 -2.71893,-3.3645 -0.5517,-0.29858 -1.11567,-0.61206 -1.67725,-0.92261 -0.30872,-0.26367 -0.63123,-0.51172 -0.97955,-0.71972 -0.525033,-0.31397 -1.087045,-0.56006 -1.636178,-0.82935 -1.556946,-0.76392 -3.018494,-1.72192 -4.340088,-2.84473 -0.08429,-0.0718 -0.170166,-0.14282 -0.26001,-0.20727 0.76886,-0.0815 1.537659,-0.16284 2.306519,-0.24439 0.0037,-0.0701 0.0059,-0.13989 0.0095,-0.20971 0.02075,-0.005 0.04675,-0.0103 0.06665,-0.0159 0.01569,-0.96753 0.03986,-1.96753 0.06964,-2.99439 0.170105,-3.66797 0.309387,-7.3374 0.403808,-11.0083 0.156433,-4.24121 0.292359,-8.71875 0.299378,-13.33446 0.01501,-9.87402 -0.584595,-20.32739 -0.674073,-29.59985 2.184754,-0.073 4.056704,-0.0479 2.883423,0.0982 -0.329834,1.31982 0.321839,4.0896 0.328675,4.11865 0.810116,14.47607 -0.382874,42.30076 -0.230286,52.42015 0.475586,0.13086 1.285952,0.23291 2.277582,0.30664 -4.8e-4,2.4e-4 -0.001,2.4e-4 -0.002,4.9e-4 -0.0182,0.0112 -0.0319,0.0342 -0.0491,0.0481 l -0.47412,-0.003 c -0.51861,0.96094 -0.22693,2.19824 0.43024,3.07031 0.65723,0.87207 1.61713,1.45679 2.5578,2.01148 3.58661,2.11499 7.28064,4.12182 11.27142,5.30981 1.00098,0.29785 2.05817,0.54468 3.08234,0.34058 1.02423,-0.20435 2.00323,-0.97534 2.13391,-2.01148 0.19251,-1.52588 -1.36621,-2.63232 -2.71887,-3.3645 -2.98767,-1.61743 -5.53198,-3.19531 -8.4328,-4.80493 -0.12866,-0.10767 -0.2605,-0.21216 -0.41449,-0.27686 -0.0414,-0.0176 -0.0853,-0.0208 -0.12781,-0.0325 0.80426,-0.12451 1.61816,-0.30102 2.4148,-0.38549 0,0 0.40924,-14.97803 0.70245,-30.19091 0,-2.4e-4 6e-5,-4.9e-4 6e-5,-9.7e-4 0.20898,-3.78858 0.41321,-7.54004 0.29108,-11.33228 -0.15607,-4.84595 0.2182,-10.96191 -0.0189,-15.85425 0.0793,-0.0239 0.16284,-0.0371 0.23339,-0.0825 0.14228,-0.0915 0.23127,-0.22363 0.29926,-0.37011 0.0666,-0.032 0.14014,-0.0525 0.19409,-0.10523 0.2312,-0.22583 0.24219,-0.58838 0.23444,-0.91162 -0.15955,-6.68042 -0.043,-21.37598 0.11816,-31.07007 0.0404,-0.87329 0.0739,-1.74682 0.12506,-2.61963 0.10254,-1.74707 0.21466,-3.55517 0.0858,-5.30566 1.28784,6.04175 2.93384,13.63818 3.03863,14.29394 0,0 -0.16217,18.50733 -0.47717,20.71021 0,0 0.3244,0.0706 0.83887,0.15698 h -9.2e-4 c -0.0773,2.24414 0.0966,5.35498 1.61286,5.69116 1.52398,0.33789 2.73156,-2.86157 3.40985,-5.24121 l -0.55127,-0.0493 c 0.4898,-0.0798 0.97961,-0.15943 1.46942,-0.23902 0.0188,-0.0745 0.0297,-0.15039 0.048,-0.22461 0.0769,-0.031 0.15839,-0.0583 0.2295,-0.094 0,0 0.0497,-0.59595 0.12915,-1.58569 0.6311,-3.15357 0.91626,-6.37427 1.05737,-9.59107 0.11572,-2.63696 0.14813,-5.2771 0.10333,-7.91626 0.07,-1.75561 0.0945,-3.19311 0.0441,-4.0271 z M 85.964195,137.16997 c -0.04016,0.54736 -0.05701,1.09594 -0.06952,1.64453 -0.04993,-0.78418 -0.06152,-1.47681 0.04205,-1.92651 0.02313,-0.0999 0.05261,-0.20484 0.08612,-0.31275 -0.0368,0.36328 -0.05866,0.59473 -0.05866,0.59473 z m -4.585449,66.74804 c -2.042053,-2.52148 -4.095276,-5.05981 -5.666687,-7.89892 -0.98114,-1.77246 -1.784851,-3.81641 -1.319153,-5.78809 0.03882,-0.1643 0.08942,-0.32495 0.14325,-0.48437 0.955749,-2.10498 2.885193,-6.02393 5.569214,-9.88404 0.431274,-0.57959 0.877014,-1.14819 1.356994,-1.69116 0.02338,-0.0264 0.04669,-0.0552 0.07025,-0.0828 l 0.02997,0.7019 0.662476,26.17285 c -0.282105,-0.34863 -0.564148,-0.69677 -0.846314,-1.04541 z m 0.850281,1.0503 c -5.5e-4,-7.3e-4 -0.001,-0.001 -0.0016,-0.002 0.0076,-1.52246 0.0081,-1.00463 0.0016,0.002 z m 38.645993,12.96557 -0.29443,-0.0264 c 0.0991,-7.4e-4 0.19653,-0.005 0.29486,-0.008 0,0.0115 -4.3e-4,0.0227 -4.3e-4,0.0342 z" id="path5233" />
            </g>
        </g>
        <g id="g5397" transform="translate(-0.88399325,-108.77072)">
            <g id="g5395">
                <path class="st4" d="m 92.105759,155.82927 c 0,0 2.771011,3.34209 8.550861,0 l -0.11457,-3.1868 c 0,0 -2.829053,1.43771 -5.232342,1.53064 -2.40329,0.0929 -3.203949,-0.50006 -3.203949,-0.50006 z" id="path5239" />
                <path class="st4" d="m 99.794701,160.19955 c 4.069609,1.81458 14.382449,4.7354 16.829739,8.459 0.64962,0.98842 2.05064,2.65104 2.36643,3.79088 0.35143,1.26851 1.4238,4.05107 1.51469,5.58853 0.19279,3.26101 0.56393,5.75126 1.14678,8.96555 0.48446,2.67165 0.46803,5.12035 0.82534,7.81195 0.57542,4.33449 -0.37569,8.70345 -0.94965,13.03812 -0.44925,3.39285 -0.66829,6.81617 -0.65511,10.23863 0.69932,-0.11377 1.39865,-0.22754 2.09798,-0.34131 0.94938,-3.75124 1.2944,-7.62935 1.46401,-11.49513 0.45068,-10.2719 -0.31886,-20.59679 -2.28727,-30.68837 -0.29079,-1.49088 -0.60852,-2.97998 -1.07828,-4.42449 -1.58275,-4.86691 -4.17124,-8.39578 -9.18853,-9.40506 0,0 -9.67324,-2.16954 -10.68965,-3.16157 -1.0164,-0.99202 0.35747,1.04289 -1.396479,1.62327" id="path5241" />
                <path class="st4" d="m 107.84548,222.74069 c 1.24417,-2.73141 1.56835,-5.778 1.87646,-8.76358 0.34224,-3.31622 0.68481,-6.63795 0.72481,-9.97156 0.057,-4.75109 -0.50096,-9.49816 -0.33955,-14.24687 0.1427,-4.19807 0.85074,-8.37655 2.09901,-12.38727 1.79952,3.0467 1.54592,6.83031 1.33864,10.36269 -0.18739,3.19322 -0.29122,6.3907 -0.39503,9.58774 -0.0721,2.22018 -0.14418,4.44037 -0.21628,6.66054 -0.18736,5.77011 -0.37445,11.55397 0.068,17.31013 0.0425,0.55214 0.0379,1.21838 -0.42767,1.5182 -0.23975,0.15438 -0.54188,0.16294 -0.827,0.16663 -1.33027,0.0172 -2.66054,0.0344 -3.9908,0.0517" id="path5243" />
                <path class="st10" d="m 117.03007,217.58936 c -0.0774,2.24432 0.0965,5.35511 1.61282,5.69128 1.52403,0.33788 2.73161,-2.86177 3.40985,-5.24129" id="path5245" />
                <path class="st4" d="m 82.00444,207.73784 c -1.083404,-0.90242 -2.134414,-1.84372 -3.150322,-2.82149 -0.585258,-0.56329 -1.16217,-1.14256 -1.627479,-1.80838 -0.468918,-0.67099 -0.816147,-1.41782 -1.160897,-2.16028 -1.067764,-2.29959 -2.135528,-4.59918 -3.2033,-6.89875 -0.353226,-0.76073 -0.712959,-1.54767 -0.740349,-2.38595 -0.01898,-0.58082 0.124085,-1.15577 0.316269,-1.7042 0.574364,-1.63898 1.580994,-3.08649 2.598854,-4.49364 1.340065,-1.85259 2.720589,-3.67549 4.10099,-5.49822 0.939904,-1.24108 1.893967,-2.49678 3.11731,-3.45965 0.101997,0.62843 -0.371491,1.18722 -0.793182,1.6642 -2.582627,2.92128 -4.390892,6.43008 -6.172059,9.8987 -0.357193,0.69558 -0.717605,1.39976 -0.897354,2.16076 -0.465721,1.9717 0.337975,4.01573 1.319115,5.78827 1.571449,2.83897 3.62468,5.37718 5.666733,7.89894 0.442398,0.54633 0.884796,1.09265 1.327194,1.63899 0.15316,0.18914 0.314743,0.40282 0.301468,0.64583 -0.01088,0.1991 -0.137848,0.37036 -0.259628,0.52826 -0.241059,0.31255 -0.482117,0.62509 -0.723175,0.93764" id="path5247" />
                <path class="st4" d="m 81.905998,213.52876 c 0.472649,0.0787 0.949333,0.15772 1.428093,0.13819 0.47876,-0.0195 0.965935,-0.14508 1.345017,-0.43814 0.176094,-0.13613 0.324424,-0.30451 0.465568,-0.47661 0.223099,-0.27204 0.433739,-0.56066 0.561173,-0.88858 0.127426,-0.32793 0.165436,-0.70188 0.04173,-1.03122 -0.214509,0.26565 -0.431565,0.53386 -0.700966,0.74363 -0.26941,0.2098 -0.599976,0.35895 -0.941292,0.34934 -0.199532,-0.006 -0.393257,-0.0645 -0.584129,-0.12294 -0.386384,-0.11824 -0.772767,-0.23648 -1.15915,-0.35472 -0.0648,-0.0198 -0.133484,-0.0398 -0.199279,-0.0236 -0.148201,0.0365 -0.193787,0.22175 -0.207673,0.37375 -0.05726,0.6266 -0.04765,1.25929 0.02859,1.88386" id="path5249" />
                <path class="st4" d="m 101.69247,280.37021 c 0.30453,-0.18616 0.69179,-0.13834 1.04369,-0.0787 1.68273,0.28531 3.39303,0.70096 5.07584,0.41617 0.42266,-0.0715 0.87153,-0.18432 1.26675,-0.0183 0.1898,0.0797 0.34823,0.21756 0.50512,0.35086 1.32159,1.1229 2.78315,2.08087 4.34006,2.84476 0.54912,0.26941 1.11116,0.51541 1.63617,0.82922 0.39441,0.23575 0.76637,0.50907 1.1092,0.81504 -0.42721,0.24456 -0.97751,0.13086 -1.40743,-0.10892 -0.42991,-0.23981 -0.78731,-0.5911 -1.20399,-0.85321 -0.69398,-0.43655 -1.51872,-0.6069 -2.26979,-0.93564 -0.43995,-0.19257 -0.85404,-0.43936 -1.28834,-0.64429 -1.27535,-0.6018 -2.70057,-0.82983 -4.11046,-0.85931 -1.40989,-0.0295 -2.8158,0.13232 -4.21864,0.27612 -0.27919,0.0286 -0.57006,0.0552 -0.83295,-0.0431 -0.26289,-0.0982 -0.17578,-1.6665 0.35477,-1.99078 z" id="path5251" />
                <path class="st4" d="m 86.321831,280.37021 c 0.304542,-0.18616 0.691803,-0.13834 1.043701,-0.0787 1.682732,0.28531 3.393021,0.70096 5.075836,0.41617 0.422669,-0.0715 0.871536,-0.18432 1.266747,-0.0183 0.189804,0.0797 0.348228,0.21756 0.505127,0.35086 1.321594,1.1229 2.783142,2.08087 4.340049,2.84476 0.549126,0.26941 1.111161,0.51541 1.636189,0.82922 0.39441,0.23575 0.76635,0.50907 1.10918,0.81504 -0.42721,0.24456 -0.97751,0.13086 -1.407417,-0.10892 -0.429909,-0.23981 -0.787315,-0.5911 -1.203995,-0.85321 -0.693977,-0.43655 -1.518722,-0.6069 -2.269798,-0.93564 -0.439934,-0.19257 -0.854027,-0.43936 -1.288338,-0.64429 -1.275345,-0.6018 -2.700561,-0.82983 -4.110458,-0.85931 -1.409889,-0.0295 -2.815789,0.13232 -4.218643,0.27612 -0.279175,0.0286 -0.570046,0.0552 -0.83294,-0.0431 -0.262893,-0.0982 -0.175781,-1.6665 0.35476,-1.99078 z" id="path5253" />
                <path class="st4" d="m 82.953674,227.73375 c 2.203118,0.0911 4.406235,0.18213 6.609352,0.27319 0.51017,0.0211 1.04139,0.0478 1.48835,0.29468 0.58004,0.32037 0.910843,0.94966 1.174363,1.55765 2.037635,4.70112 1.953338,10.0108 1.834449,15.13313 -0.277885,11.9726 -0.555771,23.94519 -0.833656,35.91779 1.01107,-0.10718 2.022141,-0.21436 3.033211,-0.32154 0.531326,-10.1362 0.773567,-20.28753 0.726326,-30.43754 -0.01766,-3.79418 -0.07576,-7.5883 -0.197868,-11.38054 -0.159218,-4.94447 -0.427208,-9.88474 -0.695176,-14.82451 -4.350982,-0.61114 -8.782524,-0.64624 -13.142639,-0.10408 -0.33152,1.32693 -0.28006,2.74724 0.146614,4.04671" id="path5255" />
                <path class="st4" d="m 99.647392,227.64566 c 2.203118,0.091 3.688038,0.27022 5.891148,0.36128 0.51017,0.0211 1.04139,0.0478 1.48835,0.29468 0.58004,0.32037 0.91084,0.94966 1.17437,1.55765 2.03763,4.70112 1.95333,10.0108 1.83445,15.13313 -0.27789,11.9726 -1.45395,23.78049 -1.73183,35.75308 1.01107,-0.10717 2.0508,-0.36691 3.06186,-0.47409 0.0976,-10.88742 0.15116,-20.19583 0.70253,-30.19182 0.20897,-3.78845 0.41318,-7.53991 0.29107,-11.33215 -0.15921,-4.94449 0.23758,-11.21944 -0.0304,-16.15921 -4.02613,0.30795 -8.65078,0.39377 -13.010898,0.93593 -0.33152,1.32693 0.32933,4.12152 0.32933,4.12152 z" id="path5257" />
                <path class="st3" d="m 82.109726,211.50919 c -0.113205,4.75187 -0.303551,9.00726 -0.569542,12.07556 4.236054,0.32741 25.656536,-0.43285 30.788776,-0.99654 0.26369,-0.029 0.54848,-0.0675 0.73819,-0.25291 0.23123,-0.22599 0.2422,-0.58841 0.23448,-0.91164 -0.21856,-9.14973 0.0807,-33.34653 0.30345,-39.11526" id="path5259" />
                <path class="st3" d="m 81.540184,177.90616 c 0.510254,5.75686 0.735947,17.58554 0.687012,27.14049" id="path5261" />
                <path class="st3" d="m 92.105759,158.71263 c -3.412903,1.25694 -6.229035,1.79396 -12.939125,5.09277 -4.157952,2.04412 -10.554612,18.31022 -12.203713,22.48713 -2.617569,6.62991 -0.513084,10.17337 3.668953,15.07907 5.530426,6.48741 4.690597,5.3247 9.210876,9.69598 l 3.394867,-4.95302 c 0,0 -8.360603,-8.38832 -9.382927,-14.79663 0,0 3.894333,-9.75844 10.179093,-16.32092" id="path5263" />
                <path class="st3" d="m 100.72536,158.35692 c -0.0742,-3.21269 -0.10913,-2.50176 -0.18331,-5.71445 l -8.436291,1.03058 c 0,2.87605 0,2.16353 0,5.03958 0,0 0.234337,2.14856 4.683715,2.14856 4.449376,0 3.935886,-2.50427 3.935886,-2.50427 z" id="path5265" />
                <path class="st3" d="m 92.741882,280.74548 c 3.297585,1.78504 6.806816,3.82627 10.104398,5.6113 1.35269,0.73224 2.9114,1.8385 2.71891,3.36459 -0.13069,1.03617 -1.10971,1.8071 -2.13392,2.01133 -1.0242,0.20425 -2.08138,-0.0426 -3.08235,-0.34049 -3.990758,-1.18786 -7.68482,-3.1947 -11.27139,-5.30978 -0.940682,-0.55475 -1.900582,-1.13935 -2.557801,-2.01151 -0.657218,-0.87216 -0.948883,-2.10922 -0.430274,-3.07031" id="path5267" />
                <path class="st3" d="m 108.59652,280.46616 c 3.29758,1.78503 6.03193,3.52005 9.32951,5.30511 1.35269,0.73224 2.91139,1.8385 2.71891,3.36459 -0.13069,1.03614 -1.10972,1.80707 -2.13392,2.01133 -1.0242,0.20425 -2.08138,-0.0426 -3.08235,-0.34049 -3.99076,-1.18786 -7.68483,-3.1947 -11.2714,-5.30981 -0.94067,-0.55475 -1.90058,-1.13932 -2.5578,-2.01148 -0.65722,-0.87216 -0.94887,-2.10925 -0.43027,-3.07031" id="path5269" />
                <g id="g5287">
                    <g id="g5277">
                        <path class="st11" d="m 110.70197,281.89175 c -0.96187,0.22321 -1.83373,0.81357 -2.39809,1.62384" id="path5271" />
                        <path class="st11" d="m 112.56323,282.84839 c -0.37727,-0.008 -0.7247,0.19671 -1.02879,0.42013 -0.43332,0.31839 -0.82754,0.68992 -1.171,1.10361" id="path5273" />
                        <path class="st11" d="m 114.20428,283.8143 c -0.70535,0.36954 -1.32428,0.90277 -1.79406,1.54569" id="path5275" />
                    </g>
                    <g id="g5285">
                        <path class="st3" d="m 110.70197,281.89175 c -0.96187,0.22321 -1.83373,0.81357 -2.39809,1.62384" id="path5279" />
                        <path class="st3" d="m 112.56323,282.84839 c -0.37727,-0.008 -0.7247,0.19671 -1.02879,0.42013 -0.43332,0.31839 -0.82754,0.68992 -1.171,1.10361" id="path5281" />
                        <path class="st3" d="m 114.20428,283.8143 c -0.70535,0.36954 -1.32428,0.90277 -1.79406,1.54569" id="path5283" />
                    </g>
                </g>
                <g id="g5305">
                    <g id="g5295">
                        <path class="st11" d="m 96.28122,282.85303 c -0.961861,0.2232 -1.833733,0.8136 -2.398095,1.62384" id="path5289" />
                        <path class="st11" d="m 98.142487,283.80969 c -0.377274,-0.008 -0.724701,0.19669 -1.028801,0.42014 -0.433312,0.31836 -0.82753,0.68988 -1.170998,1.10361" id="path5291" />
                        <path class="st11" d="m 99.783531,284.7756 c -0.705345,0.36951 -1.32428,0.90274 -1.79406,1.54569" id="path5293" />
                    </g>
                    <g id="g5303">
                        <path class="st3" d="m 96.28122,282.85303 c -0.961861,0.2232 -1.833733,0.8136 -2.398095,1.62384" id="path5297" />
                        <path class="st3" d="m 98.142487,283.80969 c -0.377274,-0.008 -0.724701,0.19669 -1.028801,0.42014 -0.433312,0.31836 -0.82753,0.68988 -1.170998,1.10361" id="path5299" />
                        <path class="st3" d="m 99.783531,284.7756 c -0.705345,0.36951 -1.32428,0.90274 -1.79406,1.54569" id="path5301" />
                    </g>
                </g>
                <path class="st3" d="m 96.434326,223.40837 c 0.08894,9.27681 0.689392,19.73741 0.674401,29.61765 -0.01542,10.1587 -0.649239,19.71199 -0.772812,27.33705 -1.862229,0.51211 -7.270638,0.67584 -11.448761,0.20837 0,0 0.529014,-25.66968 0.437744,-28.16804 -0.347885,-9.52225 -2.203614,-20.56 -2.525528,-28.58077" id="path5307" />
                <path class="st3" d="m 99.318062,223.52414 c 1.407298,12.49429 -0.07038,45.34701 0.09842,56.53891 1.862228,0.51211 8.820118,0.58993 11.949258,0.20834 0,0 1.19749,-43.82051 0.96322,-57.68318" id="path5309" />
                <path class="st10" d="m 104.40525,128.70195 c -0.5855,-1.0467 -1.85134,-1.51499 -3.00387,-1.84673 -1.484663,-0.42733 -3.029569,-0.60514 -4.5706,-0.71506 -1.690552,-0.12058 -3.411987,-0.15891 -5.056633,0.25053 -1.644653,0.40943 -3.222824,1.31505 -4.136971,2.74223 -0.651794,1.01758 -0.928581,2.22708 -1.121681,3.41998 -0.2779,1.71678 -0.551307,4.61695 -0.551307,4.61695 -0.197022,2.68634 -0.06076,5.39695 0.40467,8.05 0.260437,1.48454 0.630608,2.96965 1.348755,4.29477 1.481529,2.73373 4.483818,4.57593 7.592095,4.65849 3.108276,0.0826 6.204122,-1.59764 7.828702,-4.24885 0.6881,-1.12294 1.11851,-2.38393 1.47024,-3.6531 1.16129,-4.19029 1.51668,-8.60237 1.04104,-12.92451 0,0 -0.11404,-2.6239 -1.24444,-4.6447 z" id="path5311" />
                <circle class="st12" cx="91.562523" cy="138.05031" r="0.57097918" id="circle5313" />
                <circle class="st12" cx="100.44442" cy="138.05031" r="0.57097918" id="circle5315" />
                <path class="st3" d="m 97.794395,142.5152 c 0.345932,0.89074 0.694512,1.87951 0.366242,2.77691 -0.07755,0.21199 -0.196182,0.41591 -0.376961,0.55108 -0.233108,0.17428 -0.537842,0.21388 -0.828079,0.23582 -0.696999,0.0527 -1.399155,0.0369 -2.093086,-0.047" id="path5317" />
                <path class="st3" d="m 112.26209,175.88638 c 0.80564,4.07914 4.25391,19.87711 4.40721,20.83597 0,0 -0.16219,18.50722 -0.4772,20.7101 0,0 4.91419,1.07324 7.05628,0 0,0 1.58482,-18.96819 1.33393,-23.12007 -0.19295,-3.19307 -1.09178,-12.75652 -2.13873,-17.71211 -1.45541,-6.88894 -1.94472,-8.20015 -3.95709,-10.61417 -4.67172,-5.60416 -11.21832,-4.40074 -17.76113,-7.62918" id="path5319" />
                <path class="st3" d="m 91.136749,148.26877 c 0.305565,0.51979 0.733399,0.96716 1.239022,1.29564 0.44622,0.28988 1.058899,0.47734 1.490356,0.16589" id="path5321" />
                <path class="st12" d="m 94.572685,138.70161 c 1.136749,0.59012 2.408554,0.43587 3.37497,0.002" id="path5323" />
                <path class="st12" d="m 88.389038,138.44991 c -0.04548,-0.02 -0.667679,-2.04387 -1.912086,-2.58745" id="path5325" />
                <path class="st12" d="m 102.28819,138.44991 c 0,0 1.3372,-2.9161 3.56626,-3.13102" id="path5327" />
                <path class="st10" d="m 108.18217,131.89934 c -0.6794,8.1916 -2.22264,9.83182 -2.32939,9.55037 -0.54351,-1.41706 0.1359,-4.50347 -0.20378,-5.98841 -0.33973,-1.45585 -2.07591,-3.47572 -3.58028,-3.62127 0.0873,-0.0194 -0.31579,0.0102 -0.29636,0.02 -1.74702,0.43676 -3.519102,0.34022 -5.06233,-0.60126 -0.582322,0.43677 -1.116181,0.96084 -1.737305,1.35881 -1.543228,0.98994 -5.272858,0.62114 -5.253487,0.62114 l -0.06528,-2e-5 c -1.89962,-0.24554 -3.377563,2.18379 -3.717239,3.64936 -0.339737,1.47528 0.553169,5.55169 0.0097,6.96868 -0.106743,0.28151 -3.989029,-2.17407 -3.659004,-10.51123 0.0776,-1.8829 0.698776,-3.81433 1.950851,-5.23138 0.999657,-1.11619 2.523461,-3.08641 3.891937,-3.72702 0.0097,0 0.0097,-0.01 0.01943,-0.01 1.368538,-1.01915 2.814674,-1.94114 4.445228,-2.36819 1.844048,-0.49501 3.814339,-0.33002 5.65844,0.16497 1.844049,0.49501 3.344789,1.0901 4.934199,2.14248 1.35877,0.89965 1.66567,1.43894 2.66532,2.56477 1.26174,1.41705 2.48466,3.14464 2.32939,5.0179 z" id="path5329" />
                <path class="st10" d="m 80.256744,210.60231 c 0,0 3.904724,2.43031 5.134095,0.70563 1.22937,-1.7247 -2.390122,-4.85127 -2.390122,-4.85127 z" id="path5331" />
                <g id="g5389">
                    <circle class="st13" cx="87.754341" cy="144.31232" r="0.5" id="circle5333" />
                    <circle class="st13" cx="88.673653" cy="145.92557" r="0.5" id="circle5335" />
                    <circle class="st13" cx="91.474739" cy="146.76967" r="0.5" id="circle5337" />
                    <circle class="st13" cx="93.581749" cy="147.53882" r="0.5" id="circle5339" />
                    <circle class="st13" cx="88.389038" cy="148.02487" r="0.5" id="circle5341" />
                    <circle class="st13" cx="90.454887" cy="145.20067" r="0.5" id="circle5343" />
                    <circle class="st13" cx="89.592972" cy="147.53882" r="0.5" id="circle5345" />
                    <circle class="st13" cx="90.263123" cy="149.31493" r="0.5" id="circle5347" />
                    <circle class="st13" cx="90.852943" cy="151.3524" r="0.5" id="circle5349" />
                    <circle class="st13" cx="93.064819" cy="151.71812" r="0.5" id="circle5351" />
                    <circle class="st13" cx="95.521072" cy="147.67604" r="0.5" id="circle5353" />
                    <circle class="st13" cx="95.200005" cy="149.25311" r="0.5" id="circle5355" />
                    <circle class="st13" cx="98.001091" cy="150.09721" r="0.5" id="circle5357" />
                    <circle class="st13" cx="94.91539" cy="151.3524" r="0.5" id="circle5359" />
                    <circle class="st13" cx="96.981239" cy="148.52821" r="0.5" id="circle5361" />
                    <circle class="st13" cx="101.27934" cy="147.13786" r="0.5" id="circle5363" />
                    <circle class="st13" cx="96.119316" cy="150.86636" r="0.5" id="circle5365" />
                    <circle class="st13" cx="98.875389" cy="149.40091" r="0.5" id="circle5367" />
                    <circle class="st13" cx="98.670761" cy="147.95755" r="0.5" id="circle5369" />
                    <circle class="st13" cx="101.19118" cy="149.96959" r="0.5" id="circle5371" />
                    <circle class="st13" cx="94.622681" cy="152.64247" r="0.5" id="circle5373" />
                    <circle class="st13" cx="102.79594" cy="147.13786" r="0.5" id="circle5375" />
                    <circle class="st13" cx="103.45088" cy="144.8701" r="0.5" id="circle5377" />
                    <circle class="st13" cx="100.65662" cy="148.67601" r="0.5" id="circle5379" />
                    <circle class="st13" cx="102.10892" cy="148.52821" r="0.5" id="circle5381" />
                    <circle class="st13" cx="99.794701" cy="151.01416" r="0.5" id="circle5383" />
                    <circle class="st13" cx="96.789474" cy="152.64247" r="0.5" id="circle5385" />
                    <circle class="st13" cx="98.292114" cy="152.14977" r="0.5" id="circle5387" />
                </g>
                <path class="st14" d="m 92.141579,136.48837 c -0.768387,-0.023 -1.558472,0.0569 -2.248848,0.39505 -0.690377,0.33814 -1.268906,0.96846 -1.395569,1.72669 -0.08065,0.48283 0.02482,0.98481 0.236854,1.42604 0.452073,0.94069 1.408738,1.61967 2.445916,1.73598 1.037185,0.1163 2.120468,-0.33394 2.769661,-1.15116 0.623695,-0.78511 0.837028,-1.93576 0.371749,-2.82396 -0.665939,-1.27125 -2.179763,-1.30864 -2.179763,-1.30864 z" id="path5391" />
                <path class="st14" d="m 100.60838,136.43446 c -1.449101,0.0868 -2.575062,0.96382 -2.660725,2.26921 -0.08566,1.30539 0.917709,2.55648 2.183255,2.88781 0.92439,0.24202 1.97069,0.025 2.68314,-0.61174 0.71245,-0.63677 1.018,-1.68137 0.7702,-2.60424 -0.64306,-2.39497 -2.97587,-1.94104 -2.97587,-1.94104 z" id="path5393" />
            </g>
        </g>
        <line class="st22" x1="25.821419" y1="176.12338" x2="45.246281" y2="176.12338" id="line5399" />
        <line class="st22" x1="57.719028" y1="176.12338" x2="69.643898" y2="176.12338" id="line5401" />
        <line class="st22" x1="120.73212" y1="176.12338" x2="139.657" y2="176.12338" id="line5403" />
        <g id="g5407" transform="translate(-0.88399325,-108.77072)">
            <path class="st2" d="m 90.873306,293.60751 c -1.1651,-0.44043 -2.217956,-0.89087 -3.237243,-1.3667 0.855468,-0.20434 2.646667,-0.78295 1.932251,-1.94067 -0.778504,-1.26147 -1.914246,1.03101 -2.255921,1.79175 -0.03509,-0.0168 -0.06952,-0.0347 -0.104553,-0.0515 -0.01398,-0.86425 -0.156616,-3.34887 -1.357727,-2.51074 -0.836121,0.58325 -0.249512,1.42774 0.393127,2.03711 -1.483703,-0.74927 -2.959289,-1.57837 -4.66101,-2.55176 -0.618897,-0.41015 -1.190369,-0.78881 -1.648377,-1.09155 -0.08771,-0.10425 -0.174377,-0.20947 -0.248535,-0.32471 -0.37085,-0.57666 -0.521362,-1.2561 -0.625244,-1.93969 -0.17572,-2.72583 -0.545899,-8.39478 -1.028687,-15.39771 -9.76e-4,-0.0276 -0.0013,-0.0554 -0.0023,-0.083 -0.07629,-2.05493 -0.218811,-4.10644 -0.361328,-6.15771 -0.161438,-2.32349 -0.322876,-4.64697 -0.484314,-6.97046 -0.230774,-3.32104 -0.46814,-6.64429 -0.838684,-9.95166 -0.139649,-1.7998 -0.280823,-3.58813 -0.422791,-5.34473 0,0 -0.03723,-0.0554 0.431214,-0.0742 l 3.848999,0.0637 c 0.0082,-0.10254 0.0092,-0.21094 0.0166,-0.31446 0.04193,-0.0203 0.09088,-0.0264 0.127625,-0.0569 0.252319,-0.20874 0.262817,-0.58496 0.251282,-0.91236 -0.08453,-2.39087 -0.240906,-4.7788 -0.458069,-7.16137 -0.17981,-2.35108 -0.474488,-4.75074 -0.856873,-7.15259 -0.605225,-4.10108 -1.398498,-8.17456 -2.394714,-12.19849 -1.947022,-7.8645 -4.649353,-15.65771 -5.113831,-23.71997 -0.02509,-0.72632 -0.02399,-1.4143 0.01379,-2.0376 0,0 0.840698,-0.16137 1.40332,-1.06347 1.322632,8.13135 7.590454,22.12988 9.748352,25.12939 1.062439,2.3667 2.69458,5.74243 4.547242,5.40674 1.889221,-0.34228 -0.375183,-5.85425 -0.573975,-7.03979 0,0 -0.0065,-0.023 -0.01685,-0.0588 0.02112,-0.53809 -0.185425,-1.07007 -0.379699,-1.58081 -0.179383,-0.47168 -0.329529,-0.9524 -0.476258,-1.43457 -0.131958,-0.46753 -0.275329,-0.97754 -0.426574,-1.51685 -0.358765,-1.3811 -0.676026,-2.77588 -1.088685,-4.1416 -0.114807,-0.38013 -0.245605,-0.75513 -0.37323,-1.1311 -1.059875,-3.87452 -2.121826,-7.89185 -2.565918,-9.9939 -1.422607,-6.73389 -2.199707,-18.48462 -4.788452,-22.59229 -0.443412,-0.70359 -0.387725,-0.74586 0.1307,-0.15336 1.220962,1.39538 1.003303,-6.11881 -0.755829,-6.97693 -0.135193,-0.18628 -0.830635,-4.42116 -0.813973,-4.41872 -0.780823,-0.95532 -0.930481,-1.14093 -0.697693,-2.50006 0.226624,-1.323 -0.930412,-0.34527 -0.872116,-1.68608 0.11628,-2.6745 -0.52327,-1.27911 -0.870727,-3.1999 0,0 0.233459,-0.36206 0.289001,-2.15284 0.09369,-0.76074 0.182068,-1.52221 0.266663,-2.2832 0.06171,-0.55517 0.05347,-1.11475 -0.0088,-1.66943 0.0647,-1.27149 0.05621,-2.60498 -0.196839,-4.09986 -0.297607,-1.75781 -0.914673,-3.19067 -1.601318,-4.32837 -0.593201,-1.34594 -1.411926,-2.49487 -2.652954,-3.82666 0.291565,-0.4812 0.437622,-0.95361 0.385986,-1.40625 -0.450195,-3.94799 -8.654907,-7.22265 -16.293396,-3.11035 -11.115234,5.98389 -6.402588,14.5271 -7.382446,19.8252 -0.730286,3.94848 -5.671875,4.41479 -6.843567,8.46484 -0.987366,3.41284 0.405639,4.55054 0.808288,9.12207 0.437317,4.96533 -7.621032,3.57959 -6.109863,13.65723 0.178162,1.18848 0.31604,2.49438 0.31604,2.49438 -0.413757,0.70874 -0.793762,1.38697 -1.136963,2.02417 -0.632568,0.88233 -1.130617,1.86084 -1.420168,2.90723 l -0.166504,0.37402 c 0.01086,-0.005 0.02234,-0.006 0.03327,-0.0102 -1.271241,3.45898 -0.144287,6.29297 1.709169,8.98706 1.925232,2.79858 9.192505,8.97876 14.5578,13.09937 0.715454,0.51953 1.52826,0.76049 2.09076,0.87304 -0.206177,0.76563 -0.408142,1.56177 -0.605347,2.38648 -0.04907,0.17236 -0.09815,0.34472 -0.147217,0.51709 l 0.01117,0.0583 c -2.880921,12.34814 -4.750611,30.00317 -4.750611,30.00317 0,0 5.257996,0.1936 3.890076,0.31128 l 0.165466,0.24683 c -0.0057,0.26367 -0.01056,0.52319 -0.01581,0.78442 -0.211731,0.82593 -0.319824,1.71484 -0.04114,2.427 -0.01508,1.16944 -0.02289,2.30713 -0.02039,3.39868 0.0056,2.44385 1.595459,40.33423 1.595459,40.33423 l -1.097779,3.3147 c 0,0 0.05139,0.13281 0.153992,0.33301 l -0.316467,-0.01 c 0,0 -2.662415,4.77979 -0.713379,6.02808 0.03607,0.0232 0.07886,0.0452 0.119324,0.0676 0.103393,0.10083 0.214355,0.19385 0.340454,0.26636 0.204773,0.11792 0.427063,0.19531 0.656738,0.25147 1.089905,0.26635 2.211182,0.37036 3.330383,0.44897 0.872193,0.0615 1.835999,0.15186 2.661377,-0.21142 0.487122,-0.21436 0.888794,-0.57081 1.26062,-0.95728 0.739685,-0.51587 1.095398,-1.2666 0.746582,-2.31714 -0.598449,-1.80273 -1.062256,-3.35351 -1.062256,-3.35351 l -0.123657,-0.004 c 0.0473,-0.0698 0.07635,-0.11646 0.07635,-0.11646 -0.03626,-0.16333 -0.07281,-0.34008 -0.109131,-0.52026 -0.03992,-0.44189 -0.116882,-0.88892 -0.180847,-1.31543 -0.331787,-2.2124 -0.143738,-4.46558 0.03699,-6.69556 1.066407,-13.16088 1.840455,-26.34521 2.344788,-39.53979 0.05133,-0.92236 0.102783,-1.84766 0.153687,-2.76221 h -0.04059 c 1.22e-4,-0.004 3.66e-4,-0.008 4.88e-4,-0.012 -1.084899,-0.11255 7.315308,0.012 7.315308,0.012 0.0073,0.0457 0.01495,0.0886 0.02222,0.13428 l -0.116394,0.064 c 0.119812,0.1875 0.186279,0.39722 0.229065,0.61622 0.006,0.0374 0.01233,0.0737 0.01837,0.11084 0.08752,0.55664 0.04614,1.16455 0.273621,1.65209 0.208862,1.22925 0.420837,2.43555 0.638428,3.58521 2.879638,15.21729 7.879455,35.24243 8.239318,39.15381 0,0 -0.09229,0.62549 -0.08356,1.39062 l -0.07092,-0.008 -0.407714,2.36718 c -0.231385,1.11963 0.06891,2.15894 0.820068,2.91724 0.75116,0.75854 1.75769,1.19873 2.74176,1.61255 0.858826,0.36108 2.096314,0.76489 3.502686,1.14306 0.0387,0.0596 0.08447,0.11524 0.138061,0.15479 0.35199,0.2605 0.797608,0.35156 1.22815,0.4314 2.640808,0.49072 5.312256,0.8164 7.99353,0.97485 0.556885,0.033 1.121887,0.0579 1.666931,-0.0608 0.410156,-0.0894 0.798096,-0.25781 1.182984,-0.42529 0.31903,-0.13892 0.677734,-0.32398 0.751587,-0.66382 0.01593,-0.0732 0.0088,-0.14771 -0.0012,-0.22144 0.822205,-1.21094 -1.693847,-2.34765 -3.090088,-2.87549 z M 45.061539,189.44687 c 0.181213,0.0627 0.362976,0.10693 0.544616,0.15234 0.0091,0.0227 0.0221,0.0693 0.0221,0.0693 l 1.344631,0.0579 c 0,0 0.832249,0.3884 1.300999,0.2673 0.418518,1.53711 0.782776,4.70655 0.782776,4.70655 l 0.02948,-0.33106 c 0.05322,0.0132 1.19104,6.75 1.286255,9.76953 -0.04694,-0.0117 -0.08844,-0.0215 -0.126038,-0.03 -0.67157,-0.65087 -1.321838,-1.32299 -1.97168,-1.9956 -1.252685,-1.38599 -3.005981,-3.344 -4.770324,-5.37427 -1.561951,-1.91455 -3.061035,-3.88061 -4.451538,-5.92309 -0.312073,-0.45826 -0.625794,-0.9336 -0.747254,-1.47486 -0.115905,-0.51587 -0.04248,-1.04101 0.143494,-1.53735 0.235413,-0.32056 0.49646,-0.67334 0.805786,-1.08325 l -0.100281,-0.1272 c 0.01868,-0.0234 0.03583,-0.0483 0.05481,-0.0713 -0.103272,-0.0774 3.756164,2.19897 5.852173,2.92505 z" id="path5405" />
        </g>
        <g id="g5469" transform="translate(204.32266,-104.19706)">
            <path class="st2" d="m 18.304687,533.47333 h -5.968749 v -10.70801 h 5.968749 v 1.10547 h -4.724609 v 3.45019 h 4.439453 v 1.09864 h -4.439453 v 3.94043 h 4.724609 z" id="path5409" />
            <path class="st2" d="m 21.636719,525.44598 v 5.20704 c 0,0.65429 0.148437,1.14257 0.447265,1.46484 0.296875,0.32226 0.763672,0.4834 1.398438,0.4834 0.839844,0 1.454102,-0.22949 1.841797,-0.68848 0.388672,-0.45898 0.582031,-1.20801 0.582031,-2.24805 v -4.21875 h 1.216797 v 8.02735 h -1.003906 l -0.175782,-1.07715 h -0.06641 c -0.248047,0.39551 -0.59375,0.69824 -1.036133,0.9082 -0.441406,0.20996 -0.946289,0.31543 -1.512695,0.31543 -0.976562,0 -1.707031,-0.23242 -2.193359,-0.69629 -0.485352,-0.46386 -0.728516,-1.20605 -0.728516,-2.22656 v -5.25098 h 1.230469 z" id="path5411" />
            <path class="st2" d="m 33.363281,525.2995 c 0.356445,0 0.675781,0.0293 0.958985,0.0879 l -0.167969,1.12793 c -0.332031,-0.0732 -0.625,-0.11035 -0.878906,-0.11035 -0.649415,0 -1.205079,0.26367 -1.666016,0.79101 -0.461914,0.52735 -0.692383,1.18457 -0.692383,1.97071 v 4.30664 h -1.21582 v -8.02735 h 1.003906 l 0.138672,1.48633 h 0.05859 c 0.297851,-0.52246 0.65625,-0.9248 1.076172,-1.20801 0.419922,-0.2832 0.881836,-0.4248 1.384765,-0.4248 z" id="path5413" />
            <path class="st2" d="m 42.75293,529.45184 c 0,1.3086 -0.329102,2.33106 -0.989258,3.06543 -0.658203,0.73535 -1.569336,1.10254 -2.731445,1.10254 -0.717774,0 -1.354493,-0.16894 -1.911133,-0.50586 -0.556641,-0.33691 -0.987305,-0.82031 -1.289063,-1.45019 -0.303711,-0.62989 -0.455078,-1.36719 -0.455078,-2.21192 0,-1.30859 0.327149,-2.32715 0.982422,-3.05761 0.65332,-0.7295 1.561524,-1.09473 2.72461,-1.09473 1.12207,0 2.014648,0.37305 2.676757,1.12012 0.661133,0.74707 0.992188,1.75781 0.992188,3.03222 z m -6.116211,0 c 0,1.02539 0.205078,1.80664 0.615234,2.34375 0.410156,0.53711 1.013672,0.80567 1.80957,0.80567 0.795899,0 1.400391,-0.2666 1.8125,-0.80176 0.413086,-0.53418 0.619141,-1.31738 0.619141,-2.34766 0,-1.0205 -0.206055,-1.79492 -0.619141,-2.32519 -0.412109,-0.5293 -1.021484,-0.79492 -1.827148,-0.79492 -0.795898,0 -1.396484,0.26171 -1.801758,0.78418 -0.405273,0.52246 -0.608398,1.30078 -0.608398,2.33593 z" id="path5415" />
            <path class="st2" d="m 48.620117,533.61981 c -0.522461,0 -1,-0.0967 -1.43164,-0.28906 -0.432618,-0.19336 -0.794922,-0.49023 -1.087891,-0.89063 h -0.08789 c 0.05859,0.46875 0.08789,0.91309 0.08789,1.33301 v 3.30371 h -1.21582 v -11.63086 h 0.988281 l 0.168945,1.09864 h 0.05859 c 0.3125,-0.43946 0.675781,-0.75684 1.09082,-0.95215 0.415039,-0.19531 0.891602,-0.29297 1.428711,-0.29297 1.064453,0 1.885742,0.36328 2.464844,1.09082 0.578125,0.72754 0.868164,1.74805 0.868164,3.06152 0,1.31836 -0.294922,2.34278 -0.882812,3.07325 -0.588868,0.72949 -1.405274,1.09472 -2.450196,1.09472 z m -0.175781,-7.28808 c -0.820313,0 -1.413086,0.22754 -1.780274,0.68164 -0.365234,0.4541 -0.55371,1.17675 -0.563476,2.16797 v 0.2705 c 0,1.12793 0.1875,1.93555 0.563476,2.4209 0.375977,0.48633 0.979493,0.72852 1.809571,0.72852 0.693359,0 1.236328,-0.28028 1.629883,-0.8418 0.392578,-0.56152 0.589843,-1.33594 0.589843,-2.32227 0,-1.00097 -0.197265,-1.76855 -0.589843,-2.30273 -0.393555,-0.53516 -0.946289,-0.80273 -1.65918,-0.80273 z" id="path5417" />
            <path class="st2" d="m 59.012695,533.47333 -0.241211,-1.14258 h -0.05859 c -0.401368,0.50293 -0.799805,0.84375 -1.198243,1.02148 -0.397461,0.17774 -0.894531,0.26758 -1.490234,0.26758 -0.795898,0 -1.419922,-0.20508 -1.871094,-0.61523 -0.452148,-0.41016 -0.677734,-0.99414 -0.677734,-1.75098 0,-1.62109 1.295898,-2.4707 3.889648,-2.54883 l 1.361328,-0.0439 v -0.49805 c 0,-0.62988 -0.134765,-1.09473 -0.40625,-1.39453 -0.270507,-0.30078 -0.704101,-0.45117 -1.299804,-0.45117 -0.668946,0 -1.425782,0.20508 -2.270508,0.61523 l -0.373047,-0.92969 c 0.394531,-0.21484 0.828125,-0.38378 1.299805,-0.50585 0.470703,-0.12208 0.943359,-0.18262 1.416992,-0.18262 0.957031,0 1.666015,0.21191 2.12793,0.63672 0.460937,0.4248 0.692382,1.10644 0.692382,2.04394 v 5.47852 h -0.901367 z m -2.74707,-0.85742 c 0.756836,0 1.351562,-0.20704 1.78418,-0.62207 0.43164,-0.41504 0.647461,-0.9961 0.647461,-1.74317 v -0.72558 l -1.214844,0.0517 c -0.966797,0.0342 -1.664063,0.18457 -2.091797,0.4502 -0.426758,0.2666 -0.640625,0.67969 -0.640625,1.24121 0,0.43945 0.132812,0.77441 0.399414,1.00391 0.265625,0.22949 0.637695,0.34375 1.116211,0.34375 z" id="path5419" />
            <path class="st2" d="m 68.972656,533.47333 -1.471679,-4.70996 c -0.09277,-0.28809 -0.266602,-0.94239 -0.520508,-1.96289 h -0.05859 c -0.195313,0.85449 -0.365234,1.51367 -0.511719,1.97754 l -1.516601,4.69531 h -1.40625 l -2.19043,-8.02735 h 1.27539 c 0.516602,2.01661 0.911133,3.55176 1.182618,4.60645 0.270507,1.05469 0.425781,1.76562 0.464844,2.13184 h 0.05859 c 0.05371,-0.27833 0.140625,-0.63868 0.259766,-1.08008 0.120117,-0.44239 0.223633,-0.79297 0.311523,-1.05176 l 1.472656,-4.60645 h 1.31836 l 1.435547,4.60645 c 0.272461,0.83984 0.458008,1.5459 0.55664,2.11719 h 0.05859 c 0.01856,-0.17578 0.07129,-0.44727 0.157227,-0.81348 0.08496,-0.36621 0.59375,-2.33594 1.526367,-5.91016 h 1.259766 l -2.21875,8.02735 h -1.44336 z" id="path5421" />
            <path class="st2" d="m 77.476562,533.61981 c -1.185546,0 -2.12207,-0.36133 -2.808593,-1.08398 -0.685547,-0.72266 -1.029297,-1.72656 -1.029297,-3.01074 0,-1.29395 0.319336,-2.32129 0.956054,-3.08301 0.637696,-0.76172 1.493165,-1.14258 2.567383,-1.14258 1.00586,0 1.801758,0.33105 2.387696,0.99219 0.585937,0.66211 0.878906,1.53418 0.878906,2.61816 v 0.76953 h -5.530274 c 0.02442,0.94239 0.262696,1.65723 0.714844,2.14551 0.451172,0.48828 1.087891,0.73242 1.908203,0.73242 0.863281,0 1.717774,-0.18066 2.5625,-0.54199 v 1.08398 c -0.429687,0.18555 -0.835937,0.31934 -1.21875,0.39942 -0.383789,0.0811 -0.845703,0.12109 -1.388672,0.12109 z m -0.329101,-7.30273 c -0.644531,0 -1.158203,0.20996 -1.541992,0.62988 -0.382813,0.41992 -0.609375,1.00098 -0.677735,1.74316 H 79.125 c 0,-0.7666 -0.170898,-1.35351 -0.512695,-1.76074 -0.341797,-0.4082 -0.830078,-0.6123 -1.464844,-0.6123 z" id="path5423" />
            <path class="st2" d="m 82.399414,523.2702 c 0,-0.27832 0.06836,-0.48144 0.205078,-0.61133 0.136719,-0.1289 0.307617,-0.19433 0.512695,-0.19433 0.195313,0 0.363282,0.0664 0.50586,0.19824 0.140625,0.13184 0.211914,0.33399 0.211914,0.60742 0,0.27344 -0.07129,0.47754 -0.211914,0.61231 -0.142578,0.13379 -0.310547,0.20117 -0.50586,0.20117 -0.205078,0 -0.375976,-0.0674 -0.512695,-0.20117 -0.136719,-0.13477 -0.205078,-0.33887 -0.205078,-0.61231 z m 1.318359,10.20313 h -1.21582 v -8.02735 h 1.21582 z" id="path5425" />
            <path class="st2" d="m 88.888672,532.61591 c 0.214844,0 0.421875,-0.0156 0.62207,-0.0469 0.200196,-0.0322 0.359375,-0.0654 0.476563,-0.0996 v 0.93067 c -0.131836,0.0635 -0.326172,0.11523 -0.582031,0.15722 -0.256836,0.041 -0.487305,0.0625 -0.692383,0.0625 -1.552735,0 -2.329102,-0.81836 -2.329102,-2.4541 v -4.77539 h -1.15039 v -0.58594 l 1.15039,-0.50488 0.512695,-1.71387 h 0.703125 v 1.86035 h 2.329102 v 0.94434 h -2.329102 v 4.72461 c 0,0.4834 0.114258,0.85449 0.344727,1.11328 0.228516,0.25879 0.543945,0.3877 0.944336,0.3877 z" id="path5427" />
            <path class="st2" d="m 94.982422,533.61981 c -1.185547,0 -2.12207,-0.36133 -2.808594,-1.08398 -0.685547,-0.72266 -1.029297,-1.72656 -1.029297,-3.01074 0,-1.29395 0.319336,-2.32129 0.956055,-3.08301 0.637695,-0.76172 1.493164,-1.14258 2.567383,-1.14258 1.005859,0 1.801758,0.33105 2.387695,0.99219 0.585938,0.66211 0.878906,1.53418 0.878906,2.61816 v 0.76953 h -5.530273 c 0.02441,0.94239 0.262695,1.65723 0.714844,2.14551 0.451172,0.48828 1.08789,0.73242 1.908203,0.73242 0.863281,0 1.717773,-0.18066 2.5625,-0.54199 v 1.08398 c -0.429688,0.18555 -0.835938,0.31934 -1.21875,0.39942 -0.383789,0.0811 -0.845703,0.12109 -1.388672,0.12109 z m -0.329102,-7.30273 c -0.644531,0 -1.158203,0.20996 -1.541992,0.62988 -0.382812,0.41992 -0.609375,1.00098 -0.677734,1.74316 h 4.197265 c 0,-0.7666 -0.170898,-1.35351 -0.512695,-1.76074 -0.341797,-0.4082 -0.830078,-0.6123 -1.464844,-0.6123 z" id="path5429" />
            <path class="st2" d="m 13.580078,551.47333 h -1.24414 v -10.70801 h 5.968749 v 1.10547 h -4.724609 v 3.91894 h 4.439453 v 1.10547 h -4.439453 z" id="path5431" />
            <path class="st2" d="m 23.285156,551.61981 c -1.185547,0 -2.12207,-0.36133 -2.808594,-1.08398 -0.685547,-0.72266 -1.029297,-1.72656 -1.029297,-3.01074 0,-1.29395 0.319336,-2.32129 0.956055,-3.08301 0.637695,-0.76172 1.493164,-1.14258 2.567383,-1.14258 1.005859,0 1.801758,0.33105 2.387695,0.99219 0.585938,0.66211 0.878906,1.53418 0.878906,2.61816 v 0.76953 h -5.530273 c 0.02441,0.94239 0.262695,1.65723 0.714844,2.14551 0.451172,0.48828 1.087891,0.73242 1.908203,0.73242 0.863281,0 1.717773,-0.18066 2.5625,-0.54199 v 1.08398 c -0.429687,0.18555 -0.835937,0.31934 -1.21875,0.39942 -0.383789,0.0811 -0.845703,0.12109 -1.388672,0.12109 z m -0.329101,-7.30273 c -0.644532,0 -1.158203,0.20996 -1.541993,0.62988 -0.382812,0.41992 -0.609375,1.00098 -0.677734,1.74316 h 4.197266 c 0,-0.7666 -0.170899,-1.35351 -0.512696,-1.76074 -0.341796,-0.4082 -0.830078,-0.6123 -1.464843,-0.6123 z" id="path5433" />
            <path class="st2" d="m 33.488281,549.2829 c 0,0.74707 -0.277344,1.32324 -0.833984,1.72851 -0.556641,0.40528 -1.338867,0.6084 -2.34375,0.6084 -1.06543,0 -1.895508,-0.16894 -2.490235,-0.50586 v -1.12793 c 0.384766,0.19532 0.798829,0.34961 1.241211,0.46192 0.441407,0.1123 0.868164,0.16797 1.278321,0.16797 0.633789,0 1.12207,-0.10059 1.464843,-0.30372 0.340821,-0.20214 0.511719,-0.51171 0.511719,-0.92675 0,-0.3125 -0.134765,-0.5791 -0.40625,-0.80176 -0.270508,-0.22168 -0.799804,-0.48438 -1.585937,-0.78711 -0.746094,-0.27832 -1.277344,-0.52148 -1.592774,-0.72852 -0.314453,-0.208 -0.548828,-0.44336 -0.703125,-0.70703 -0.15332,-0.26367 -0.230468,-0.5791 -0.230468,-0.94531 0,-0.6543 0.265625,-1.16992 0.797851,-1.54883 0.532227,-0.37793 1.262695,-0.56738 2.19043,-0.56738 0.864258,0 1.708984,0.17578 2.53418,0.52734 l -0.431641,0.98828 c -0.806641,-0.33203 -1.536133,-0.49804 -2.19043,-0.49804 -0.576172,0 -1.010742,0.0908 -1.303711,0.27148 -0.292968,0.18067 -0.439453,0.42969 -0.439453,0.74707 0,0.21485 0.05469,0.39746 0.165039,0.54883 0.109375,0.15137 0.286133,0.2959 0.530274,0.43262 0.24414,0.13672 0.71289,0.33398 1.40625,0.59277 0.953125,0.34668 1.595703,0.69629 1.930664,1.04785 0.333984,0.35157 0.500976,0.79297 0.500976,1.3252 z" id="path5435" />
            <path class="st2" d="m 38.05957,550.61591 c 0.214844,0 0.421875,-0.0156 0.622071,-0.0469 0.200195,-0.0322 0.359375,-0.0654 0.476562,-0.0996 v 0.93067 c -0.131836,0.0635 -0.326172,0.11523 -0.582031,0.15722 -0.256836,0.041 -0.487305,0.0625 -0.692383,0.0625 -1.552734,0 -2.329102,-0.81836 -2.329102,-2.4541 v -4.77539 h -1.15039 v -0.58594 l 1.15039,-0.50488 0.512696,-1.71387 h 0.703125 v 1.86035 h 2.329101 v 0.94434 h -2.329101 v 4.72461 c 0,0.4834 0.114258,0.85449 0.344726,1.11328 0.228516,0.25879 0.543946,0.3877 0.944336,0.3877 z" id="path5437" />
            <path class="st2" d="m 40.087891,548.00848 v -1.11328 h 3.595703 v 1.11328 z" id="path5439" />
            <path class="st2" d="m 50.626953,543.44598 v 5.20704 c 0,0.65429 0.148438,1.14257 0.447266,1.46484 0.296875,0.32226 0.763672,0.4834 1.398437,0.4834 0.839844,0 1.454102,-0.22949 1.841797,-0.68848 0.388672,-0.45898 0.582031,-1.20801 0.582031,-2.24805 v -4.21875 h 1.216797 v 8.02735 h -1.003906 l -0.175781,-1.07715 h -0.06641 c -0.248047,0.39551 -0.59375,0.69824 -1.036133,0.9082 -0.441406,0.20996 -0.946289,0.31543 -1.512696,0.31543 -0.976562,0 -1.707031,-0.23242 -2.193359,-0.69629 -0.485352,-0.46386 -0.728516,-1.20605 -0.728516,-2.22656 v -5.25098 h 1.230469 z" id="path5441" />
            <path class="st2" d="m 64.18457,551.47333 v -5.19336 c 0,-0.6543 -0.149414,-1.14258 -0.446289,-1.46485 -0.298828,-0.32226 -0.764648,-0.48339 -1.399414,-0.48339 -0.839844,0 -1.455078,0.22754 -1.845703,0.68164 -0.390625,0.4541 -0.585938,1.20312 -0.585938,2.24804 v 4.21192 h -1.21582 v -8.02735 h 0.988281 l 0.198243,1.09864 h 0.05859 c 0.249024,-0.39551 0.597657,-0.70215 1.047852,-0.91895 0.448242,-0.21777 0.949219,-0.32617 1.500977,-0.32617 0.966797,0 1.694336,0.2334 2.182617,0.69922 0.488281,0.4668 0.732422,1.21191 0.732422,2.2373 v 5.23731 z" id="path5443" />
            <path class="st2" d="m 73.362305,550.39618 h -0.06543 c -0.5625,0.81543 -1.402344,1.22363 -2.519531,1.22363 -1.050781,0 -1.867188,-0.35937 -2.450196,-1.07715 -0.583984,-0.71777 -0.875976,-1.73828 -0.875976,-3.06152 0,-1.32324 0.292969,-2.35059 0.878906,-3.08301 0.585937,-0.73242 1.401367,-1.09863 2.447266,-1.09863 1.08789,0 1.922851,0.39551 2.503906,1.18652 h 0.0957 l -0.05078,-0.5791 -0.0293,-0.56348 v -3.2666 h 1.214844 v 11.39649 h -0.988282 z m -2.431641,0.20508 c 0.830078,0 1.431641,-0.22559 1.805664,-0.67676 0.373047,-0.45215 0.560547,-1.18066 0.560547,-2.18652 v -0.25684 c 0,-1.1377 -0.189453,-1.94922 -0.568359,-2.43457 -0.37793,-0.48633 -0.982422,-0.72949 -1.8125,-0.72949 -0.712891,0 -1.258789,0.27734 -1.636719,0.83203 -0.378906,0.55371 -0.56836,1.33594 -0.56836,2.34668 0,1.02539 0.188477,1.7998 0.564454,2.32226 0.375976,0.52247 0.927734,0.78321 1.655273,0.78321 z" id="path5445" />
            <path class="st2" d="m 15.630859,569.47333 h -1.24414 v -9.60254 h -3.391602 v -1.10547 h 8.027344 v 1.10547 h -3.391602 z" id="path5447" />
            <path class="st2" d="m 25.387695,569.47333 -0.241211,-1.14258 h -0.05859 c -0.401368,0.50293 -0.799805,0.84375 -1.198243,1.02148 -0.39746,0.17774 -0.894531,0.26758 -1.490234,0.26758 -0.795898,0 -1.419922,-0.20508 -1.871094,-0.61523 -0.452148,-0.41016 -0.677734,-0.99414 -0.677734,-1.75098 0,-1.62109 1.295898,-2.4707 3.889648,-2.54883 l 1.361328,-0.0439 v -0.49805 c 0,-0.62988 -0.134765,-1.09473 -0.40625,-1.39453 -0.270507,-0.30078 -0.704101,-0.45117 -1.299804,-0.45117 -0.668946,0 -1.425782,0.20508 -2.270508,0.61523 l -0.373047,-0.92969 c 0.394531,-0.21484 0.828125,-0.38378 1.299805,-0.50585 0.470703,-0.12208 0.943359,-0.18262 1.416992,-0.18262 0.957031,0 1.666015,0.21191 2.12793,0.63672 0.460937,0.4248 0.692382,1.10644 0.692382,2.04394 v 5.47852 h -0.901367 z m -2.74707,-0.85742 c 0.756836,0 1.351562,-0.20704 1.78418,-0.62207 0.43164,-0.41504 0.647461,-0.9961 0.647461,-1.74317 v -0.72558 l -1.214844,0.0517 c -0.966797,0.0342 -1.664063,0.18457 -2.091797,0.4502 -0.426758,0.2666 -0.640625,0.67969 -0.640625,1.24121 0,0.43945 0.132812,0.77441 0.399414,1.00391 0.265625,0.22949 0.637695,0.34375 1.116211,0.34375 z" id="path5449" />
            <path class="st2" d="m 35.363281,561.44598 v 0.76856 l -1.487305,0.17578 c 0.136719,0.1709 0.25879,0.39453 0.366211,0.6709 0.107422,0.27539 0.161133,0.58691 0.161133,0.93359 0,0.78613 -0.268555,1.41309 -0.805664,1.88184 -0.537109,0.46875 -1.274414,0.70312 -2.211914,0.70312 -0.239258,0 -0.463867,-0.0195 -0.673828,-0.0586 -0.517578,0.27344 -0.776367,0.61816 -0.776367,1.0332 0,0.21973 0.08984,0.38184 0.271484,0.48731 0.179688,0.10449 0.490234,0.15722 0.929688,0.15722 h 1.420898 c 0.869141,0 1.537109,0.18262 2.00293,0.54883 0.466797,0.36621 0.699218,0.89844 0.699218,1.59668 0,0.88867 -0.356445,1.56641 -1.068359,2.0332 -0.713867,0.46582 -1.753906,0.69922 -3.121094,0.69922 -1.049804,0 -1.858398,-0.19531 -2.427734,-0.58593 -0.56836,-0.39063 -0.853516,-0.94239 -0.853516,-1.65528 0,-0.48828 0.15625,-0.91113 0.46875,-1.26758 0.3125,-0.35644 0.751953,-0.59765 1.31836,-0.72461 -0.205078,-0.0928 -0.376953,-0.2373 -0.515625,-0.43261 -0.139649,-0.19531 -0.208985,-0.42188 -0.208985,-0.68067 0,-0.29297 0.07813,-0.5498 0.234375,-0.76953 0.15625,-0.21972 0.402344,-0.43164 0.740235,-0.63672 -0.416016,-0.17089 -0.753907,-0.46191 -1.014649,-0.87207 -0.261719,-0.41015 -0.391601,-0.8789 -0.391601,-1.40625 0,-0.8789 0.263672,-1.55566 0.791015,-2.03222 0.527344,-0.47559 1.273438,-0.71387 2.240235,-0.71387 0.419922,0 0.798828,0.0488 1.135742,0.14648 h 2.776367 z m -6.402344,9.375 c 0,0.43457 0.183594,0.76368 0.549805,0.98829 0.366211,0.2246 0.890625,0.33691 1.575195,0.33691 1.019532,0 1.775391,-0.15234 2.266602,-0.45703 0.490234,-0.30567 0.735352,-0.71973 0.735352,-1.24219 0,-0.43457 -0.133789,-0.73535 -0.402344,-0.9043 -0.268555,-0.16797 -0.774414,-0.25293 -1.515625,-0.25293 h -1.458008 c -0.551758,0 -0.981445,0.13184 -1.289062,0.39551 -0.307618,0.26367 -0.461915,0.64258 -0.461915,1.13574 z m 0.660157,-6.80468 c 0,0.56152 0.158203,0.98632 0.475586,1.27441 0.317382,0.28809 0.758789,0.43262 1.325195,0.43262 1.1875,0 1.780273,-0.57617 1.780273,-1.72852 0,-1.20605 -0.600586,-1.80957 -1.801757,-1.80957 -0.57129,0 -1.010743,0.1543 -1.31836,0.46192 -0.307617,0.30761 -0.460937,0.76367 -0.460937,1.36914 z" id="path5451" />
            <path class="st2" d="m 40.401367,569.61981 c -1.185547,0 -2.12207,-0.36133 -2.808594,-1.08398 -0.685546,-0.72266 -1.029296,-1.72656 -1.029296,-3.01074 0,-1.29395 0.319335,-2.32129 0.956054,-3.08301 0.637696,-0.76172 1.493164,-1.14258 2.567383,-1.14258 1.005859,0 1.801758,0.33105 2.387695,0.99219 0.585938,0.66211 0.878907,1.53418 0.878907,2.61816 v 0.76953 h -5.530274 c 0.02441,0.94239 0.262695,1.65723 0.714844,2.14551 0.451172,0.48828 1.087891,0.73242 1.908203,0.73242 0.863281,0 1.717773,-0.18066 2.5625,-0.54199 v 1.08398 c -0.429687,0.18555 -0.835937,0.31934 -1.21875,0.39942 -0.383789,0.0811 -0.845703,0.12109 -1.388672,0.12109 z m -0.329101,-7.30273 c -0.644532,0 -1.158204,0.20996 -1.541993,0.62988 -0.382812,0.41992 -0.609375,1.00098 -0.677734,1.74316 h 4.197266 c 0,-0.7666 -0.170899,-1.35351 -0.512696,-1.76074 -0.341797,-0.4082 -0.830078,-0.6123 -1.464843,-0.6123 z" id="path5453" />
            <path class="st2" d="m 50.603516,567.2829 c 0,0.74707 -0.277344,1.32324 -0.833985,1.72851 -0.55664,0.40528 -1.338867,0.6084 -2.34375,0.6084 -1.06543,0 -1.895508,-0.16894 -2.490234,-0.50586 v -1.12793 c 0.384765,0.19532 0.798828,0.34961 1.241211,0.46192 0.441406,0.1123 0.868164,0.16797 1.27832,0.16797 0.633789,0 1.12207,-0.10059 1.464844,-0.30372 0.34082,-0.20214 0.511719,-0.51171 0.511719,-0.92675 0,-0.3125 -0.134766,-0.5791 -0.40625,-0.80176 -0.270508,-0.22168 -0.799805,-0.48438 -1.585938,-0.78711 -0.746094,-0.27832 -1.277344,-0.52148 -1.592773,-0.72852 -0.314453,-0.208 -0.548828,-0.44336 -0.703125,-0.70703 -0.153321,-0.26367 -0.230469,-0.5791 -0.230469,-0.94531 0,-0.6543 0.265625,-1.16992 0.797851,-1.54883 0.532227,-0.37793 1.262696,-0.56738 2.19043,-0.56738 0.864258,0 1.708985,0.17578 2.53418,0.52734 l -0.431641,0.98828 c -0.80664,-0.33203 -1.536132,-0.49804 -2.190429,-0.49804 -0.576172,0 -1.010743,0.0908 -1.303711,0.27148 -0.292969,0.18067 -0.439453,0.42969 -0.439453,0.74707 0,0.21485 0.05469,0.39746 0.165039,0.54883 0.109375,0.15137 0.286132,0.2959 0.530273,0.43262 0.244141,0.13672 0.712891,0.33398 1.40625,0.59277 0.953125,0.34668 1.595703,0.69629 1.930664,1.04785 0.333984,0.35157 0.500977,0.79297 0.500977,1.3252 z" id="path5455" />
            <path class="st2" d="m 59.152344,561.44598 v 0.76856 l -1.487305,0.17578 c 0.136719,0.1709 0.258789,0.39453 0.366211,0.6709 0.107422,0.27539 0.161133,0.58691 0.161133,0.93359 0,0.78613 -0.268555,1.41309 -0.805664,1.88184 -0.53711,0.46875 -1.274414,0.70312 -2.211914,0.70312 -0.239258,0 -0.463868,-0.0195 -0.673829,-0.0586 -0.517578,0.27344 -0.776367,0.61816 -0.776367,1.0332 0,0.21973 0.08984,0.38184 0.271485,0.48731 0.179687,0.10449 0.490234,0.15722 0.929687,0.15722 h 1.420899 c 0.86914,0 1.537109,0.18262 2.002929,0.54883 0.466797,0.36621 0.699219,0.89844 0.699219,1.59668 0,0.88867 -0.356445,1.56641 -1.068359,2.0332 -0.713868,0.46582 -1.753907,0.69922 -3.121094,0.69922 -1.049805,0 -1.858399,-0.19531 -2.427735,-0.58593 -0.568359,-0.39063 -0.853515,-0.94239 -0.853515,-1.65528 0,-0.48828 0.15625,-0.91113 0.46875,-1.26758 0.3125,-0.35644 0.751953,-0.59765 1.318359,-0.72461 -0.205078,-0.0928 -0.376953,-0.2373 -0.515625,-0.43261 -0.139648,-0.19531 -0.208984,-0.42188 -0.208984,-0.68067 0,-0.29297 0.07813,-0.5498 0.234375,-0.76953 0.15625,-0.21972 0.402344,-0.43164 0.740234,-0.63672 -0.416015,-0.17089 -0.753906,-0.46191 -1.014648,-0.87207 -0.261719,-0.41015 -0.391602,-0.8789 -0.391602,-1.40625 0,-0.8789 0.263672,-1.55566 0.791016,-2.03222 0.527344,-0.47559 1.273437,-0.71387 2.240234,-0.71387 0.419922,0 0.798828,0.0488 1.135742,0.14648 h 2.776368 z m -6.402344,9.375 c 0,0.43457 0.183594,0.76368 0.549805,0.98829 0.366211,0.2246 0.890625,0.33691 1.575195,0.33691 1.019531,0 1.775391,-0.15234 2.266602,-0.45703 0.490234,-0.30567 0.735351,-0.71973 0.735351,-1.24219 0,-0.43457 -0.133789,-0.73535 -0.402344,-0.9043 -0.268554,-0.16797 -0.774414,-0.25293 -1.515625,-0.25293 h -1.458007 c -0.551758,0 -0.981446,0.13184 -1.289063,0.39551 -0.307617,0.26367 -0.461914,0.64258 -0.461914,1.13574 z m 0.660156,-6.80468 c 0,0.56152 0.158203,0.98632 0.475586,1.27441 0.317383,0.28809 0.758789,0.43262 1.325195,0.43262 1.1875,0 1.780274,-0.57617 1.780274,-1.72852 0,-1.20605 -0.600586,-1.80957 -1.801758,-1.80957 -0.571289,0 -1.010742,0.1543 -1.318359,0.46192 -0.307618,0.30761 -0.460938,0.76367 -0.460938,1.36914 z" id="path5457" />
            <path class="st2" d="m 64.19043,569.61981 c -1.185547,0 -2.122071,-0.36133 -2.808594,-1.08398 -0.685547,-0.72266 -1.029297,-1.72656 -1.029297,-3.01074 0,-1.29395 0.319336,-2.32129 0.956055,-3.08301 0.637695,-0.76172 1.493164,-1.14258 2.567382,-1.14258 1.00586,0 1.801758,0.33105 2.387696,0.99219 0.585937,0.66211 0.878906,1.53418 0.878906,2.61816 v 0.76953 h -5.530273 c 0.02441,0.94239 0.262695,1.65723 0.714843,2.14551 0.451172,0.48828 1.087891,0.73242 1.908203,0.73242 0.863282,0 1.717774,-0.18066 2.5625,-0.54199 v 1.08398 c -0.429687,0.18555 -0.835937,0.31934 -1.21875,0.39942 -0.383789,0.0811 -0.845703,0.12109 -1.388671,0.12109 z m -0.329102,-7.30273 c -0.644531,0 -1.158203,0.20996 -1.541992,0.62988 -0.382813,0.41992 -0.609375,1.00098 -0.677735,1.74316 h 4.197266 c 0,-0.7666 -0.170898,-1.35351 -0.512695,-1.76074 -0.341797,-0.4082 -0.830078,-0.6123 -1.464844,-0.6123 z" id="path5459" />
            <path class="st2" d="m 70.430664,569.47333 h -1.21582 v -11.39649 h 1.21582 z" id="path5461" />
            <path class="st2" d="m 78.472656,568.39618 h -0.06543 c -0.5625,0.81543 -1.402344,1.22363 -2.519532,1.22363 -1.050781,0 -1.867187,-0.35937 -2.450195,-1.07715 -0.583984,-0.71777 -0.875977,-1.73828 -0.875977,-3.06152 0,-1.32324 0.292969,-2.35059 0.878907,-3.08301 0.585937,-0.73242 1.401367,-1.09863 2.447265,-1.09863 1.087891,0 1.922852,0.39551 2.503906,1.18652 h 0.0957 l -0.05078,-0.5791 -0.0293,-0.56348 v -3.2666 h 1.214844 v 11.39649 h -0.988281 z m -2.43164,0.20508 c 0.830078,0 1.43164,-0.22559 1.805664,-0.67676 0.373047,-0.45215 0.560547,-1.18066 0.560547,-2.18652 v -0.25684 c 0,-1.1377 -0.189453,-1.94922 -0.56836,-2.43457 -0.37793,-0.48633 -0.982422,-0.72949 -1.8125,-0.72949 -0.71289,0 -1.258789,0.27734 -1.636719,0.83203 -0.378906,0.55371 -0.568359,1.33594 -0.568359,2.34668 0,1.02539 0.188477,1.7998 0.564453,2.32226 0.375977,0.52247 0.927735,0.78321 1.655274,0.78321 z" id="path5463" />
            <path class="st2" d="m 85.591797,569.61981 c -1.185547,0 -2.12207,-0.36133 -2.808594,-1.08398 -0.685547,-0.72266 -1.029297,-1.72656 -1.029297,-3.01074 0,-1.29395 0.319336,-2.32129 0.956055,-3.08301 0.637695,-0.76172 1.493164,-1.14258 2.567383,-1.14258 1.005859,0 1.801758,0.33105 2.387695,0.99219 0.585938,0.66211 0.878906,1.53418 0.878906,2.61816 v 0.76953 h -5.530273 c 0.02441,0.94239 0.262695,1.65723 0.714844,2.14551 0.451172,0.48828 1.08789,0.73242 1.908203,0.73242 0.863281,0 1.717773,-0.18066 2.5625,-0.54199 v 1.08398 c -0.429688,0.18555 -0.835938,0.31934 -1.21875,0.39942 -0.383789,0.0811 -0.845703,0.12109 -1.388672,0.12109 z m -0.329102,-7.30273 c -0.644531,0 -1.158203,0.20996 -1.541992,0.62988 -0.382812,0.41992 -0.609375,1.00098 -0.677734,1.74316 h 4.197265 c 0,-0.7666 -0.170898,-1.35351 -0.512695,-1.76074 -0.341797,-0.4082 -0.830078,-0.6123 -1.464844,-0.6123 z" id="path5465" />
            <path class="st2" d="m 94.279297,561.2995 c 0.356445,0 0.675781,0.0293 0.958984,0.0879 l -0.167968,1.12793 c -0.332032,-0.0732 -0.625,-0.11035 -0.878907,-0.11035 -0.649414,0 -1.205078,0.26367 -1.666015,0.79101 -0.461914,0.52735 -0.692383,1.18457 -0.692383,1.97071 v 4.30664 h -1.21582 v -8.02735 h 1.003906 l 0.138672,1.48633 h 0.05859 c 0.297851,-0.52246 0.65625,-0.9248 1.076171,-1.20801 0.419922,-0.2832 0.881836,-0.4248 1.384766,-0.4248 z" id="path5467" />
        </g>
        <g id="g5551" transform="translate(-0.88399325,-108.77072)">
            <path class="st4" d="m 71.499123,163.53358 c 3.33155,2.0568 4.767662,6.12162 5.650352,9.93612 0.509628,2.20234 0.9151,4.43039 1.159767,6.67764 0.440125,4.04249 0.358925,8.13367 0.920205,12.16112 0.943046,6.76687 3.663673,13.13897 6.35762,19.41771 0.576195,0.2196 1.203514,-0.34652 1.302475,-0.95514 0.09896,-0.60865 -0.153946,-1.21192 -0.373154,-1.78827 -0.873474,-2.29651 -1.280998,-4.74103 -1.991577,-7.09307 -0.684166,-2.2646 -1.648308,-4.44 -2.267967,-6.72311 -0.637497,-2.34885 -0.901993,-4.7796 -1.229393,-7.1913 -0.526139,-3.87553 -1.219521,-7.72616 -1.912682,-11.57535 -0.379845,-2.10933 -0.766907,-4.24258 -1.640327,-6.1998 -1.03788,-2.32579 -2.759278,-4.34158 -4.89386,-5.73085" id="path5471" />
            <path class="st4" d="m 50.636654,203.30865 c 3.001278,1.23563 6.220486,1.93979 9.463554,2.07003 1.474308,0.0592 2.954636,0.001 4.422741,0.14862 1.366989,0.13737 2.709206,0.45163 4.064476,0.67697 0.832726,0.13844 1.68895,0.24896 2.44072,0.63293 1.277138,0.65233 2.045006,1.97525 2.742477,3.22831 -0.371078,-1.79561 -0.598472,-3.62091 -0.679298,-5.45269 -0.02862,-0.6486 -0.08202,-1.38809 -0.594292,-1.78694 -0.415909,-0.3238 -1.008377,-0.30453 -1.513496,-0.15391 -0.50512,0.1506 -0.972939,0.41426 -1.484635,0.54075 -1.009658,0.24961 -2.077362,-0.0571 -3.109535,0.0706 -0.64212,0.0794 -1.252739,0.32501 -1.890625,0.43333 -0.721508,0.12255 -1.462292,0.0671 -2.188412,0.1585 -0.503768,0.0634 -0.996765,0.19694 -1.50069,0.25908 -1.929169,0.23787 -3.808769,-0.57526 -5.65556,-1.18158 -1.514721,-0.49732 -3.068889,-0.86309 -4.620777,-1.22823 -0.207103,0.51381 -0.13525,1.13065 0.184407,1.5831" id="path5473" />
            <path class="st4" d="m 48.84293,211.25931 c 1.314827,0.27723 2.711792,0.15159 3.956039,-0.35584 0.539566,-0.22003 1.071499,-0.5294 1.38345,-1.02157 0.240406,-0.37931 0.329647,-0.83802 0.335178,-1.28705 0.0083,-0.6759 -0.165703,-1.3532 -0.498821,-1.94136 -0.327023,0.80125 -0.784962,1.6635 -1.60944,1.92654 -0.481686,0.15367 -1.00301,0.0698 -1.501377,-0.0155 -0.326584,-0.0558 -0.653168,-0.11171 -0.979752,-0.16756 -0.103058,-0.0176 -0.218826,-0.0326 -0.303596,0.0286 -0.07128,0.0515 -0.0997,0.14244 -0.123772,0.22699 -0.230564,0.8099 -0.461128,1.61981 -0.691692,2.4297" id="path5475" />
            <path class="st4" d="m 56.499298,170.88477 c 0.494041,0.62484 1.117668,1.14674 1.819786,1.52296 0.306809,0.16438 0.665169,0.30374 0.995934,0.19534 0.207012,-0.0678 0.371547,-0.22371 0.525303,-0.37803 0.59325,-0.59545 1.13916,-1.23804 1.630882,-1.91973 0.108295,-0.15013 0.242962,-0.31808 0.42807,-0.31851 0.114754,-2.6e-4 0.21767,0.0665 0.311733,0.13219 0.625816,0.43731 1.20377,0.9431 1.720226,1.50538 0.291607,0.31749 0.640637,0.68493 1.068394,0.63146 0.210373,-0.0263 0.392586,-0.15411 0.560776,-0.28319 1.231178,-0.94473 2.239006,-2.17862 2.918915,-3.57364 0.382118,-0.78399 0.672813,-1.61207 1.160316,-2.34118 0.456192,-0.6823 0.685295,-1.17765 0.09409,-1.88746 -0.206322,-0.24771 -0.445496,-0.46991 -0.619873,-0.74105 -0.277008,-0.43073 -0.385048,-0.97547 -0.757507,-1.32695 -0.27359,-0.25818 -0.649315,-0.37165 -1.010453,-0.47698 -0.313102,-0.0913 -0.626213,-0.18263 -0.939315,-0.27395 -0.160943,0.49893 0.234405,0.98571 0.562652,1.39448 0.423729,0.52766 0.777832,1.10698 1.130654,1.68446 0.323898,0.53014 0.346069,0.85888 0.0575,1.37923 -0.299003,0.53919 -0.568001,1.08795 -0.898437,1.61041 -0.644707,1.01938 -1.399323,1.96938 -2.248429,2.8261 -0.698997,-0.84372 -1.488685,-1.61226 -2.35107,-2.28809 -0.19067,-0.14943 -0.39587,-0.2991 -0.635494,-0.33467 -0.503712,-0.0747 -0.935948,0.37805 -1.141956,0.84375 -0.206009,0.4657 -0.293801,0.9935 -0.607239,1.39484 -0.637013,0.81564 -1.865647,0.75928 -2.891907,0.62576 -0.249889,-0.0325 -0.5177,-0.0732 -0.700733,-0.24643" id="path5477" />
            <path class="st4" d="m 49.086105,194.36923 c 0.873455,0.215 1.809872,-0.11392 2.522969,-0.66223 0.713096,-0.54831 1.242492,-1.29573 1.754692,-2.03519 1.34758,-1.94551 2.671112,-3.95295 3.385456,-6.20921 0.933944,-2.94984 0.772747,-6.15524 1.04747,-9.17506 0.178551,-1.9627 0.131523,-3.92952 -0.05611,-5.89138 -0.01844,-0.19273 -0.01,-0.40605 -0.09629,-0.58656 -0.08929,-0.18677 -0.266487,-0.31259 -0.429634,-0.44003 -1.116639,-0.87219 -1.83825,-2.14202 -2.531258,-3.37787 0.0063,3.17813 -0.586449,6.32344 -0.880623,9.48793 -0.239891,2.58052 -0.281174,5.17647 -0.221744,7.76744 0.02224,0.96977 0.05152,1.97766 -0.340889,2.86478 -0.431214,0.97484 -1.316674,1.67158 -2.233609,2.21518 -0.916938,0.54359 -1.904491,0.9803 -2.73817,1.64456 0.42197,1.54413 0.686531,3.13122 0.788246,4.72874" id="path5479" />
            <path class="st4" d="m 31.170711,185.22955 c 1.030308,-0.4694 2.268643,0.25536 2.84113,1.23217 0.572483,0.9768 0.689552,2.14317 0.967861,3.24063 0.789593,3.11364 2.892258,5.00142 4.937328,7.4785 2.34961,2.84594 4.831482,5.82278 7.803799,8.01034 0.192844,0.14192 0.308933,0.88722 0.547962,0.87316 0.225037,-0.0132 0.414726,-0.16478 0.587662,-0.30939 0.550594,-0.4604 1.101192,-0.92079 1.65179,-1.3812 -4.273994,-4.10658 -8.119937,-8.6584 -11.45544,-13.55793 -0.31208,-0.45842 -0.625782,-0.93367 -0.747288,-1.47477 -0.224045,-0.99769 0.250961,-2.03221 0.90382,-2.81921 -2.14846,-1.61023 -3.871063,-3.78349 -4.94828,-6.24283 -1.400906,1.189 -2.433773,2.80571 -2.923845,4.5766" id="path5481" />
            <path class="st4" d="m 84.177383,293.16159 c 0.680191,-0.0272 1.367638,0.19318 1.905167,0.61087 0.283508,0.22031 0.540176,0.5289 0.540733,0.88794 5.88e-4,0.37949 -0.29496,0.70877 -0.640716,0.86514 -0.345765,0.15638 -0.735695,0.17484 -1.11483,0.19086 -1.211251,0.0512 -2.422501,0.1023 -3.633751,0.15344 -0.08319,0.004 -0.172867,0.009 -0.237122,0.0623 -0.1595,0.13147 -0.02169,0.39297 0.14447,0.5159 0.352036,0.26041 0.797654,0.35153 1.22818,0.43152 2.640816,0.49051 5.312233,0.81625 7.993538,0.97473 0.55687,0.0329 1.121872,0.058 1.666931,-0.0607 0.410141,-0.0893 0.798081,-0.25784 1.182953,-0.42535 0.319031,-0.13886 0.677758,-0.32392 0.751618,-0.66391 0.03869,-0.1781 -0.01297,-0.36408 -0.08856,-0.52991 -0.344826,-0.75653 -1.134117,-1.19074 -1.872414,-1.57303 -1.066071,-0.552 -2.132141,-1.104 -3.198212,-1.65601 -0.366798,-0.18994 -0.757927,-0.38519 -1.169876,-0.35495 -0.874817,0.0643 -1.67971,1.11048 -2.440658,0.67411" id="path5483" />
            <path class="st4" d="m 47.398502,296.08292 c 0.32367,0.4534 0.903065,0.67215 1.460102,0.67892 0.557038,0.007 1.099308,-0.17114 1.616707,-0.37762 1.672566,-0.66748 3.232536,-1.67432 4.390087,-3.05384 0.101609,-0.12109 0.211464,-0.25232 0.365345,-0.28848 0.317597,-0.0747 0.55645,0.28006 0.679936,0.58203 0.400406,0.97919 0.69146,2.00305 0.866024,3.04645 0.02882,0.17227 0.05431,0.35028 0.01362,0.52014 -0.05325,0.22229 -0.212063,0.40177 -0.365452,0.5712 -0.48349,0.53415 -1.040458,0.71921 -1.699886,1.00943 -0.825413,0.36325 -1.720421,0.40817 -2.592632,0.34686 -1.119206,-0.0787 -2.256184,0.0461 -3.346077,-0.22024 -0.229672,-0.0561 -0.451989,-0.13346 -0.65675,-0.25138 -0.760559,-0.43802 -1.131447,-1.45157 -0.833252,-2.27704" id="path5485" />
            <path class="st4" d="m 48.269627,241.91739 c -0.390213,1.2558 -0.699593,2.8358 0.284027,3.7086 0.463417,0.41121 1.104728,0.54097 1.71363,0.65537 1.134335,0.21312 2.26867,0.42622 3.403,0.63934 1.825318,3.75578 1.25314,8.16583 1.001107,12.33406 -0.616013,10.18793 0.935375,20.49509 -1.795468,30.51639 -0.444534,1.63132 -0.04143,3.49582 1.279022,4.55182 0.0069,0.005 0.01392,0.0108 0.02115,0.0159 0.29784,0.211 0.717201,-0.017 0.940945,-0.30536 0.735721,-0.94821 0.446605,-2.2952 0.268612,-3.48209 -0.331784,-2.2124 -0.143696,-4.46573 0.03699,-6.69555 1.141208,-14.08356 1.960964,-28.19315 2.458416,-42.31411 -3.294518,-0.34137 -6.621323,-0.37042 -9.921296,-0.0866" id="path5487" />
            <path class="st4" d="m 65.102173,241.75217 c 0.499389,0.78137 0.104492,1.93512 0.690216,2.65405 0.224106,0.27507 0.560486,0.43634 0.901634,0.53387 1.050812,0.30045 2.168121,0.0672 3.256867,-0.0282 1.088737,-0.0955 2.307152,-0.002 3.07344,0.77776 0.653404,0.66449 0.811585,1.65655 0.937371,2.57994 0.900344,6.60945 1.802024,13.23503 1.970321,19.90339 0.139267,5.51807 -8.39e-4,11.03864 1.293045,16.40467 0.269371,1.11715 0.477105,2.7185 1.069901,3.703 0.822182,1.36542 1.994408,2.00339 3.221016,3.02115 0.710067,0.58914 1.438514,1.18908 2.304519,1.50738 0.866005,0.31833 1.911209,0.30625 2.635064,-0.26587 -1.80214,-1.10461 -3.560234,-2.28106 -5.268692,-3.52566 -0.559975,-0.40793 -1.126931,-0.83612 -1.501595,-1.41889 -0.461403,-0.71768 -0.584671,-1.59436 -0.696968,-2.44012 -0.244102,-1.83848 -0.488312,-3.67796 -0.633812,-5.5268 -0.247398,-3.14377 -0.208511,-6.30234 -0.325478,-9.45365 -0.07626,-2.05472 -0.218795,-4.10632 -0.361313,-6.1575 -0.16143,-2.32352 -0.32286,-4.647 -0.484291,-6.97049 -0.324935,-4.67683 -0.650589,-9.36017 -1.365333,-13.99347 -0.04494,-0.29127 -0.10363,-0.60589 -0.321579,-0.80429 -0.191239,-0.17407 -0.464165,-0.21959 -0.721466,-0.24557 -3.152619,-0.31838 -6.596237,1.10986 -9.370178,-0.42168" id="path5489" />
            <path class="st4" d="m 73.221771,241.94878 c 0.162277,-0.8821 0.206101,-1.78115 0.246941,-2.6771 0.51606,-11.32184 1.522873,-21.20451 -1.155884,-32.21699 -0.5494,-2.25864 -1.251999,-18.87331 -0.602386,-18.48853 0.15348,8.65579 3.097122,16.97753 5.177566,25.38098 2.148323,8.67763 3.393738,17.57851 3.709633,26.51252 0.01157,0.32725 0.0011,0.70362 -0.251244,0.91236 -0.180336,0.1492 -0.432655,0.16527 -0.666519,0.17463 -2.252373,0.09 -4.504745,0.17996 -6.757118,0.26994" id="path5491" />
            <path class="st4" d="m 56.846077,159.93607 c 0.997543,0.48021 2.076733,0.79026 3.177048,0.91278 0.595451,0.0663 1.196708,0.078 1.794693,0.041 1.051376,-0.0652 2.086971,-0.28028 3.118294,-0.49479 0.104728,-0.0218 0.218727,-0.0492 0.283386,-0.13441 0.0759,-0.10002 0.05553,-0.2406 0.02884,-0.3633 -0.09636,-0.44304 -0.228134,-0.87837 -0.393662,-1.30046 -2.197395,0.88617 -4.743366,0.8702 -6.92947,-0.0435 -0.392479,-0.16404 -0.931614,-0.31814 -1.171459,0.0332" id="path5493" />
            <path class="st4" d="m 62.415035,167.9008 c 1.109699,-0.47444 1.829914,-1.6398 2.97031,-2.03483 0.07404,-0.0257 0.151833,-0.048 0.229714,-0.0394 0.09686,0.0107 0.181534,0.0678 0.261368,0.12366 0.472206,0.33056 0.930137,0.68154 1.372085,1.0516 0.209137,-0.28291 0.406342,-0.57466 0.590897,-0.87419 0.06595,-0.10704 0.13163,-0.21872 0.150009,-0.34309 0.02336,-0.1581 -0.0323,-0.31621 -0.09048,-0.46506 -0.475853,-1.2177 -1.183388,-2.34438 -2.073517,-3.30193 -0.04816,-0.0518 -0.100868,-0.10553 -0.169632,-0.12211 -0.170555,-0.0411 -0.294838,0.15466 -0.36129,0.31704 -0.40728,0.99523 -0.882423,2.00635 -1.701237,2.7034 -0.323646,0.27552 -0.699096,0.50023 -0.954093,0.84029 -0.231598,0.30885 -0.366173,0.71307 -0.698567,0.90939 -0.07415,0.0438 -0.162441,0.0823 -0.193786,0.16254 -0.02658,0.068 -0.0026,0.14456 0.0254,0.21201 0.09039,0.21763 0.223614,0.41738 0.389805,0.58447" id="path5495" />
            <path class="st4" d="m 54.208218,164.89703 c 0.59177,-0.30713 1.311588,-0.28881 1.946548,-0.0855 0.634964,0.20332 1.200848,0.57565 1.744511,0.96159 0.668758,0.47475 1.317661,0.97673 1.966343,1.47855 0.316974,0.24522 0.633949,0.49043 0.950924,0.73564 0.21405,-0.34923 0.428096,-0.69846 0.642147,-1.04768 -0.391117,-0.37896 -0.849991,-0.6796 -1.272656,-1.02301 -1.426292,-1.15882 -2.401546,-2.76764 -3.348091,-4.34284 -0.923519,0.69945 -2.069664,1.07883 -2.936016,1.84795 -0.05116,0.0454 -0.103375,0.0955 -0.122334,0.16122 -0.01906,0.0661 -0.0013,0.13651 0.01649,0.20294 0.131478,0.49149 0.262959,0.98296 0.394436,1.47445" id="path5497" />
            <path class="st4" d="m 70.454262,162.92369 c -1.079445,-1.22038 -0.555443,-1.1123 -0.303383,-2.58392 0.226593,-1.32294 0.560188,-2.62136 1.024956,-3.88051 1.380119,-3.739 1.85852,-7.7096 2.297416,-11.65788 0.0679,-0.61084 0.06135,-1.2275 -0.02097,-1.83657 -0.922074,-6.82267 -1.419213,-8.90713 -4.597992,-12.26068 -0.319466,0.62375 -0.765022,1.18257 -1.301941,1.63295 1.450142,1.50145 2.954819,3.09731 3.481903,5.11708 0.219788,0.84221 0.257004,1.71973 0.293083,2.5894 0.117401,2.82961 0.233864,5.67896 -0.176544,8.4811 -0.291733,1.99187 -0.849609,3.94459 -1.654144,5.78995 -0.513588,1.17804 -1.200661,2.38552 -2.358322,2.94351 -0.35447,0.17085 -0.751358,0.28004 -1.037262,0.55041 -0.289978,0.27422 -0.422852,0.67862 -0.468865,1.07506 -0.202148,1.74165 -0.502014,1.83864 0.779488,3.03529 0.307228,0.2869 2.175064,0.3971 2.562218,0.56083 0.722984,0.30577 1.768905,-0.0517 1.991775,0.70103" id="path5499" />
            <path class="st4" d="m 46.970821,190.34348 c -0.513225,0.20707 -1.113182,-0.17128 -1.342586,-0.67492 -0.229405,-0.50364 -0.184975,-1.08447 -0.124287,-1.63456 0.375347,-3.40223 3.484142,-5.67411 4.177738,-9.02597 1.555214,-7.51567 0.191616,-16.20775 1.162793,-23.82094 0.278846,-2.18592 0.879257,-4.29047 1.204662,-6.44765 0.23835,-1.58008 0.583305,-3.14572 1.14801,-4.64056 0.865364,-2.29073 2.024983,-4.58412 3.746906,-6.37976 2.021733,-2.10827 4.707077,-3.42923 7.333333,-4.7079 0.98336,-0.4788 1.966728,-0.95757 2.950096,-1.43636 0.357124,-0.17387 0.773872,-0.34993 1.136215,-0.18721 -0.0305,0.76599 -0.560829,1.4371 -1.198654,1.86238 -0.637825,0.42528 -1.382248,0.65392 -2.099266,0.92514 -4.276864,1.6178 -7.860699,4.98808 -9.73729,9.15796 -0.285839,0.63516 -0.393829,1.33514 -0.380901,2.03154 0.246055,13.25565 -0.356388,26.52696 -1.801911,39.70586 -0.105201,0.9591 -0.228958,1.95796 -0.761028,2.76286 -0.830353,1.25613 -2.420029,1.72353 -3.877907,2.1003 -0.715927,0.18502 -1.431854,0.37005 -2.147781,0.55508" id="path5501" />
            <path class="st3" d="m 48.461735,189.74599 c 0.856476,5.06282 1.961792,10.91243 1.937874,15.58233 -3.759182,11.52408 -6.329934,35.81551 -6.329934,35.81551 l 36.132466,0.59956 c 0.959671,-11.99029 -3.223198,-27.96199 -6.339737,-37.67662 0,0 -2.407936,-10.37481 -2.074463,-15.87713 0,0 3.645821,-0.66353 0.833687,-7.33643 -2.559555,-6.07356 -1.75074,-8.67033 -1.75074,-8.67033" id="path5503" />
            <path class="st3" d="m 65.438995,161.1656 c -0.07251,-3.14035 -0.106666,-0.0326 -0.179176,-3.17299" id="path5505" />
            <path class="st3" d="m 57.013485,157.68838 c 0,2.8113 0,0 0,3.47722" id="path5507" />
            <path class="st3" d="m 81.582115,289.01498 c 3.376976,1.93155 5.862618,3.2966 9.291184,4.59253 1.406425,0.53159 3.953262,1.68113 3.075523,2.90186 -1.893097,2.63284 -12.696403,0.2185 -16.448242,-1.35913 -0.984016,-0.41376 -1.990585,-0.85391 -2.741738,-1.6124 -0.751152,-0.75848 -1.05146,-1.79776 -0.820053,-2.91745 l 0.407685,-2.36703" id="path5509" />
            <path class="st3" d="m 57.921162,241.55383 c -0.327599,5.88642 -0.670563,11.99373 -0.943386,17.55738 -0.486359,9.91806 -1.274933,21.29992 -1.98143,29.45178 0,0 0.351352,2.34833 0.679283,3.82403 0,0 -1.260983,2.14588 -3.627415,2.16651 -2.523201,0.022 -3.502613,-2.59253 -3.502613,-2.59253 l 1.097782,-3.31467 c 0,0 -1.589905,-37.89044 -1.595497,-40.33417 -0.0048,-2.11239 0.02773,-4.39173 0.08031,-6.75654" id="path5511" />
            <path class="st3" d="m 55.220535,156.31763 c 1.567437,1.54724 3.718788,2.51255 5.924755,2.57115 3.038288,0.0807 6.064434,-1.56166 7.652432,-4.15318 0.672607,-1.09766 1.09333,-2.33027 1.437141,-3.57084 1.13514,-4.09594 1.482521,-8.40869 1.017594,-12.63351 0,0 -0.250458,-3.30881 -3.561486,-6.16869" id="path5513" />
            <circle class="st16" cx="59.482475" cy="143.129" r="0.55812317" id="circle5515" />
            <circle class="st16" cx="67.60627" cy="143.129" r="0.55812317" id="circle5517" />
            <path class="st3" d="m 64.227249,146.52119 c 0.338135,0.87069 0.678871,1.83721 0.357987,2.71439 -0.0758,0.20721 -0.191765,0.40654 -0.36847,0.53867 -0.227859,0.17036 -0.52573,0.20907 -0.809433,0.23051" id="path5519" />
            <path class="st3" d="m 58.400249,153.11739 c 0.298691,0.50807 0.716889,0.94538 1.211125,1.26646 0.43618,0.28336 1.035061,0.46658 1.456802,0.16216" id="path5521" />
            <path class="st3" d="m 48.383087,292.28439 c 0,0 -2.662388,4.77967 -0.71336,6.02802 1.949028,1.24838 10.418209,1.47186 9.115506,-2.4516 -0.598496,-1.80252 -1.062264,-3.35336 -1.062264,-3.35336" id="path5523" />
            <path class="st3" d="m 54.700092,162.64006 c 0.650517,-0.56464 1.600411,-1.29954 2.313393,-1.47446 0,0 1.048706,3.17669 4.860733,5.37593 l -2.639095,3.95865 c -2.690819,-1.21795 -4.035546,-3.43387 -4.690644,-5.08188" id="path5525" />
            <path class="st3" d="m 61.874218,166.54153 c 0,0 2.633327,-1.41728 3.564777,-5.37593 0,0 2.373078,2.29604 2.837471,4.00753 0,0 -1.759399,3.81201 -3.201126,4.83833 0,0 -2.91864,-2.35466 -3.201122,-3.46993 z" id="path5527" />
            <path class="st3" d="m 53.52013,183.70569 c -0.237244,4.23465 -4.450989,7.12948 -8.458622,5.74115 -4.915161,-1.70275 -10.451168,-5.13434 -11.4832,-12.01691 -1.51115,-10.07774 6.547203,-8.69211 6.109867,-13.65732 -0.402656,-4.57153 -1.795685,-5.70922 -0.808288,-9.12213 1.171711,-4.04997 6.113277,-4.51642 6.843555,-8.46493 0.979862,-5.29798 -3.732784,-13.84122 7.382469,-19.82521 7.638466,-4.11225 15.843209,-0.83754 16.293396,3.11039 0.22757,1.99562 -3.227333,4.36693 -7.30701,6.26108 0,0 -6.81567,3.56116 -6.931137,10.83577 v 7.8465 z" id="path5529" />
            <path class="st3" d="m 68.666763,131.3743 c 0,0 3.713486,2.41629 4.600838,7.65777 0.88736,5.24149 -1.19883,8.5289 0.895935,13.93117 3.054688,7.87787 3.980164,18.23506 3.980164,18.23506" id="path5531" />
            <path class="st3" d="m 65.19632,241.55389 c 0.341537,2.14348 0.697677,4.21956 1.065368,6.16263 2.879601,15.21717 7.879425,35.24231 8.239281,39.15357 0,0 -0.500389,3.36837 0.931488,4.03915 1.431877,0.67075 9.163269,2.82498 11.941582,1.99225 0,0 -6.662812,-4.46884 -8.201134,-5.48013 0,0 -1.577202,-24.95761 -3.250954,-45.66753" id="path5533" />
            <path class="st10" d="m 82.939629,212.25548 c 1.062462,2.36677 2.694603,5.74246 4.547248,5.40677 1.889237,-0.34233 -0.375206,-5.85427 -0.573997,-7.03983" id="path5535" />
            <path class="st3" d="m 65.523567,160.90283 c 5.242813,1.77324 8.700005,3.18566 11.27369,7.26953 2.588737,4.10776 3.365806,15.85863 4.788444,22.59247 1.023384,4.84401 5.327179,19.85759 5.327179,19.85759 -2.010239,2.4787 -3.973251,1.63306 -3.973251,1.63306 -2.159241,-3.00153 -8.433815,-17.01584 -9.751091,-25.14487" id="path5537" />
            <path class="st10" d="m 50.051807,204.06677 c 0,0 3.762112,0.698 3.563801,2.75881 -0.14727,1.53039 -1.663769,1.5507 -2.763096,1.53236 -0.421993,-0.007 -0.838913,-0.0897 -1.2532,-0.17027 -0.563229,-0.10958 -1.398293,-0.35182 -2.128353,-0.88201 z" id="path5539" />
            <path class="st3" d="m 33.894352,179.92424 c -1.203934,2.06174 -2.146481,3.89465 -2.610712,5.07048 -1.406361,3.56209 -0.264179,6.45902 1.629484,9.21173 1.925236,2.79862 9.192536,8.97876 14.557835,13.09921 l 2.580848,-3.23889 c 0,0 -8.595138,-9.34811 -11.833912,-13.74617 -0.481761,-0.6542 -0.480041,-1.54324 -0.0018,-2.20003 0.278934,-0.38307 0.62738,-0.85519 1.038738,-1.40037" id="path5541" />
            <path class="st3" d="m 50.2188,201.26448 c 0,0 8.764911,5.17265 22.97446,0.61218" id="path5543" />
            <g id="g5549">
                <path class="st3" d="m 51.9268,294.06598 c 0,0 3.460006,-0.55899 2.485481,-2.13828 -0.974525,-1.57928 -2.485481,2.13828 -2.485481,2.13828 z" id="path5545" />
                <path class="st3" d="m 51.9268,294.06598 c 0,0 -2.952843,-1.88806 -1.430928,-2.94995 1.521916,-1.06189 1.430928,2.94995 1.430928,2.94995 z" id="path5547" />
            </g>
        </g>
        <g id="g5591" transform="translate(212.02741,-102.30046)">
            <g id="g5571">
                <g id="g5561">
                    <g id="g5559">
                        <ellipse class="st2" cx="41.803284" cy="479.78821" rx="24.277195" ry="24.153055" id="ellipse5553" />
                        <path class="st4" d="m 54.451737,467.18814 c 8.594863,8.68048 8.594863,20.98862 2.024917,31.00787 4.752438,-3.18609 7.930512,-8.48538 8.841705,-14.11428 0.911202,-5.62888 0.06911,-11.56528 -2.792659,-16.50492 -3.300614,-5.69711 -9.256729,-10.17334 -15.678982,-11.72754 -6.422253,-1.55416 -15.575077,0.97412 -20.480229,5.12 7.770108,-2.85028 18.870095,-3.08807 28.085248,6.21887 z" id="path5555" />
                        <ellipse class="st5" cx="41.803284" cy="479.78821" rx="24.277195" ry="24.153055" id="ellipse5557" />
                    </g>
                </g>
                <g id="g5569">
                    <line class="st3" x1="34.461548" y1="492.19397" x2="49.29285" y2="467.13416" id="line5563" />
                    <ellipse class="st3" cx="33.287369" cy="474.03839" rx="4.7541475" ry="6.9042268" id="ellipse5565" />
                    <ellipse class="st3" cx="50.319195" cy="485.04102" rx="4.7541475" ry="6.9042268" id="ellipse5567" />
                </g>
            </g>
            <g id="g5577">
                <path class="st17" d="m 20.592218,460.49216 c -4.303066,4.74298 -7.039766,10.91208 -7.411548,17.72979" id="path5573" />
                <path class="st17" d="m 40.361587,451.11572 c -6.808231,0.35669 -12.978344,3.0575 -17.726562,7.34052" id="path5575" />
            </g>
            <path class="st18" d="m 61.04958,458.37833 c -4.76175,-4.30869 -10.962601,-7.02167 -17.804471,-7.36274" id="path5579" />
            <path class="st18" d="m 70.463966,478.17657 c -0.350433,-6.82644 -3.079231,-13.00555 -7.376274,-17.75762" id="path5581" />
            <path class="st18" d="m 63.088867,498.91034 c 4.309639,-4.7627 7.034287,-10.96277 7.376816,-17.80487" id="path5583" />
            <path class="st18" d="m 43.24511,508.31085 c 6.842651,-0.34009 13.040527,-3.05685 17.80228,-7.36304" id="path5585" />
            <path class="st18" d="m 22.559151,500.94781 c 4.761907,4.30652 10.959785,7.02295 17.802436,7.36304" id="path5587" />
            <path class="st18" d="m 13.140778,481.10547 c 0.342527,6.8421 3.06726,13.04248 7.376895,17.80517" id="path5589" />
        </g>
        <g id="g5607" transform="translate(-0.88399325,-108.77072)">
            <path class="st19" d="m 269.70648,297.10114 h 26.41361 c 1.52154,0 2.755,1.23345 2.755,2.755 v 50.82581 c 0,1.52154 -1.23346,2.755 -2.755,2.755 h -26.41361 c -1.52154,0 -2.755,-1.23346 -2.755,-2.755 v -50.82581 c 0,-1.52155 1.23346,-2.755 2.755,-2.755 z" id="path5593" />
            <polygon class="st4" points="298.62134,344.26218 298.88229,332.69806 268.62115,344.3714 " id="polygon5595" />
            <path class="st5" d="m 269.70648,297.10114 h 26.41361 c 1.52154,0 2.755,1.23345 2.755,2.755 v 50.82581 c 0,1.52154 -1.23346,2.755 -2.755,2.755 h -26.41361 c -1.52154,0 -2.755,-1.23346 -2.755,-2.755 v -50.82581 c 0,-1.52155 1.23346,-2.755 2.755,-2.755 z" id="path5597" />
            <circle class="st5" cx="282.91327" cy="348.7532" r="1.9672719" id="circle5599" />
            <circle class="st6" cx="275.55399" cy="300.49884" r="1.2440029" id="circle5601" />
            <line class="st3" x1="286.15765" y1="300.49884" x2="279.66888" y2="300.49884" id="line5603" />
            <line class="st5" x1="298.87509" y1="344.54648" x2="266.95148" y2="344.54648" id="line5605" />
        </g>
        <g id="g5703" transform="translate(-0.88399325,-108.77072)">
            <g id="g5691">
                <rect x="150.50739" y="174.45917" transform="rotate(-11.983946,173.00057,185.28668)" class="st10" width="44.986359" height="21.654961" id="rect5687" />
                <path class="st21" d="m 163.82104,176.16641 0.77022,3.62859 c -2.78068,1.57437 -4.36834,4.81592 -3.66293,8.13923 0.70543,3.32332 3.47299,5.64051 6.65347,5.94954 l 0.73563,3.46566 26.194,-5.56003 -4.49638,-21.18302 z" id="path5689" />
            </g>
            <g id="g5701">
                <g id="g5699">
                    <path class="st3" d="m 181.97279,178.83162 c -0.66632,-2.9978 -10.35536,-2.87979 -8.68956,4.61468 l 0.64569,2.90497 c 1.66581,7.49448 10.49254,3.49698 9.82622,0.49919" id="path5693" />
                    <line class="st3" x1="178.41667" y1="181.56508" x2="170.08458" y2="183.41707" id="line5695" />
                    <line class="st3" x1="179.41615" y1="186.06177" x2="171.08406" y2="187.91374" id="line5697" />
                </g>
            </g>
        </g>
        <path class="st9" d="m 76.499834,255.42365 c -5.545456,-1.56461 -9.609665,-6.66144 -9.609665,-12.70749 v -42.94452" id="path5705" />
        <path class="st9" d="m 172.5715,234.26239 v 8.45377 c 0,7.29135 -5.9108,13.20215 -13.20214,13.20215 h -20.52505" id="path5707" />
        <path class="st9" d="m 223.79621,234.26239 v 57.19052 c 0,8.46524 3.40975,15.32767 7.61589,15.32767 h 11.19016 c 4.01166,0 7.26375,6.54514 7.26375,14.61896 v 11.14566" id="path5713" />
        <g id="g5743" transform="translate(-0.88399325,-108.77072)">
            <g id="g5719">
                <rect x="81.686577" y="357.85419" transform="rotate(-11.983946,104.17973,368.6817)" class="st10" width="44.986359" height="21.654961" id="rect5715" />
                <path class="st21" d="m 95.000229,359.56143 0.770218,3.62857 c -2.780693,1.57437 -4.36834,4.81592 -3.662926,8.13925 0.705422,3.32331 3.472992,5.64051 6.653465,5.94953 l 0.735627,3.46567 26.193997,-5.56006 -4.49638,-21.18299 z" id="path5717" />
            </g>
            <g id="g5725">
                <rect x="86.081436" y="353.45932" transform="rotate(-11.983946,108.5746,364.28683)" class="st10" width="44.986359" height="21.654961" id="rect5721" />
                <path class="st21" d="m 99.395088,355.16656 0.770222,3.62858 c -2.780697,1.5744 -4.368343,4.81594 -3.66293,8.13925 0.705422,3.3233 3.472992,5.6405 6.65347,5.94952 l 0.73562,3.46567 26.19401,-5.56003 -4.49639,-21.18301 z" id="path5723" />
            </g>
            <g id="g5731">
                <rect x="90.476295" y="349.06445" transform="rotate(-11.983946,112.96945,359.89199)" class="st10" width="44.986359" height="21.654961" id="rect5727" />
                <path class="st21" d="m 103.78995,350.7717 0.77022,3.6286 c -2.7807,1.57437 -4.36834,4.81592 -3.66293,8.13922 0.70542,3.3233 3.47299,5.6405 6.65346,5.94955 l 0.73563,3.46564 26.194,-5.56003 -4.49638,-21.18301 z" id="path5729" />
            </g>
            <g id="g5741">
                <g id="g5739">
                    <path class="st3" d="m 121.9417,353.43689 c -0.66632,-2.99777 -10.35536,-2.87976 -8.68956,4.61472 l 0.64569,2.90496 c 1.66581,7.49448 10.49254,3.49698 9.82621,0.49918" id="path5733" />
                    <line class="st3" x1="118.38558" y1="356.17038" x2="110.05349" y2="358.02234" id="line5735" />
                    <line class="st3" x1="119.38506" y1="360.66705" x2="111.05297" y2="362.51904" id="line5737" />
                </g>
            </g>
        </g>
    </g>
</svg>