<svg width="63" height="63" viewBox="0 0 63 63" fill="none" xmlns="http://www.w3.org/2000/svg">
<path d="M21.6562 27.5625C14.0571 27.5625 7.875 33.7446 7.875 41.3438C7.875 48.9429 14.0571 55.125 21.6562 55.125C29.2554 55.125 35.4375 48.9429 35.4375 41.3438C35.4375 33.7446 29.2554 27.5625 21.6562 27.5625ZM21.6562 51.1875C16.2288 51.1875 11.8125 46.7712 11.8125 41.3438C11.8125 35.9163 16.2288 31.5 21.6562 31.5C27.0837 31.5 31.5 35.9163 31.5 41.3438C31.5 46.7712 27.0837 51.1875 21.6562 51.1875Z" fill="#ECB179"/>
<path d="M23.625 43.3125V37.4062C23.625 36.319 22.7435 35.4375 21.6562 35.4375H19.6875C18.6003 35.4375 17.7188 36.319 17.7188 37.4062C17.7188 38.4935 18.6003 39.375 19.6875 39.375V43.3125C18.6003 43.3125 17.7188 44.194 17.7188 45.2812C17.7188 46.3685 18.6003 47.25 19.6875 47.25H23.625C24.7122 47.25 25.5938 46.3685 25.5938 45.2812C25.5938 44.194 24.7122 43.3125 23.625 43.3125Z" fill="#ECB179"/>
<path d="M39.3586 0C27.6269 0 15.75 3.38096 15.75 9.84375V20.527C6.67382 23.1067 0 31.4519 0 41.3438C0 53.2851 9.71492 63 21.6562 63C26.4147 63 30.805 61.4392 34.3825 58.8277C36.0301 58.9673 37.6965 59.0625 39.375 59.0625C51.1154 59.0625 63 55.6815 63 49.2188V9.84375C63 3.38096 51.1068 0 39.3586 0ZM3.9375 41.3438C3.9375 31.5741 11.8866 23.625 21.6562 23.625C31.4259 23.625 39.375 31.5741 39.375 41.3438C39.375 51.1134 31.4259 59.0625 21.6562 59.0625C11.8866 59.0625 3.9375 51.1134 3.9375 41.3438ZM59.0625 49.2188C59.0625 51.5701 51.2105 55.125 39.375 55.125C39.0283 55.125 38.7141 55.0985 38.3757 55.0917C39.8304 53.3257 40.992 51.3172 41.8336 49.1498C48.5843 48.8753 55.0899 47.4924 59.0626 45.037V49.2188H59.0625ZM59.0625 39.375C59.0625 41.4785 52.7571 44.5387 42.9549 45.1608C43.1769 43.9194 43.3125 42.648 43.3125 41.3438C43.3125 40.6296 43.2731 39.9245 43.2053 39.228C49.4555 38.8311 55.3605 37.4817 59.0625 35.1934V39.375ZM59.0625 29.5312C59.0625 31.6705 52.5382 34.7963 42.4487 35.3435C41.8455 33.2565 40.9414 31.2991 39.7777 29.5214C47.2418 29.47 54.6873 28.0538 59.0625 25.3496V29.5312ZM59.0625 19.6875C59.0625 22.0388 51.1943 25.5938 39.3586 25.5938C38.3291 25.5938 37.3428 25.5573 36.3776 25.506C32.5094 21.9081 27.3434 19.6875 21.6562 19.6875C20.9987 19.6875 20.3511 19.7285 19.7082 19.7862C19.7053 19.7538 19.6875 19.7195 19.6875 19.6875V15.5178C24.1444 18.265 31.7716 19.6875 39.3586 19.6875C46.9595 19.6875 54.6003 18.2638 59.0625 15.5145V19.6875ZM39.3586 15.75C27.5327 15.75 19.6875 12.1951 19.6875 9.84375C19.6875 7.49245 27.5327 3.9375 39.3586 3.9375C51.2039 3.9375 59.0625 7.49245 59.0625 9.84375C59.0625 12.1951 51.2039 15.75 39.3586 15.75Z" fill="#ECB179"/>
</svg>
