<svg width="63" height="63" viewBox="0 0 63 63" fill="none" xmlns="http://www.w3.org/2000/svg">
<path d="M58.7415 28.334H62.9999C61.5098 13.399 49.6019 1.48915 34.666 0V4.25857C47.2664 5.71472 57.2841 15.7325 58.7415 28.334Z" fill="#ECB179"/>
<path d="M4.25857 34.666H0C1.49021 49.6008 13.398 61.5108 28.334 62.9999V58.7415C15.7336 57.2851 5.71578 47.2674 4.25857 34.666Z" fill="#ECB179"/>
<path d="M34.666 58.7415V62.9999C49.6019 61.5107 61.5098 49.6008 62.9999 34.666H58.7415C57.2841 47.2674 47.2664 57.2851 34.666 58.7415Z" fill="#ECB179"/>
<path d="M28.334 4.25857V0C13.398 1.48915 1.49021 13.399 0 28.334H4.25857C5.71578 15.7325 15.7336 5.71472 28.334 4.25857Z" fill="#ECB179"/>
<path d="M46.5204 28.334H50.7932C49.4411 20.0788 42.9213 13.5578 34.666 12.2068V16.4798C40.5942 17.7277 45.2712 22.4058 46.5204 28.334Z" fill="#ECB179"/>
<path d="M16.4794 34.666H12.2065C13.5587 42.9213 20.0785 49.4422 28.3338 50.7932V46.5202C22.4055 45.2723 17.7286 40.5942 16.4794 34.666Z" fill="#ECB179"/>
<path d="M34.666 46.5205V50.7935C42.9213 49.4424 49.4411 42.9215 50.7932 34.6663H46.5204C45.2712 40.5944 40.5942 45.2724 34.666 46.5205Z" fill="#ECB179"/>
<path d="M16.4796 28.334C17.7287 22.4058 22.4057 17.7279 28.3338 16.4798V12.2068C20.0785 13.5578 13.5588 20.0788 12.2065 28.334H16.4796Z" fill="#ECB179"/>
<path d="M38.504 34.666C38.943 33.6983 39.2006 32.6315 39.2006 31.4999C39.2006 30.3684 38.943 29.3016 38.504 28.3338C37.7329 26.6321 36.3665 25.2667 34.6658 24.4957C33.697 24.0576 32.6313 23.7991 31.4997 23.7991C30.3681 23.7991 29.3024 24.0576 28.3336 24.4957C26.6329 25.2667 25.2665 26.6321 24.4954 28.3338C24.0563 29.3016 23.7988 30.3684 23.7988 31.4999C23.7988 32.6315 24.0563 33.6983 24.4954 34.666C25.2665 36.3678 26.6329 37.7331 28.3336 38.5042C29.3024 38.9422 30.3681 39.2008 31.4997 39.2008C32.6313 39.2008 33.697 38.9422 34.6658 38.5042C36.3665 37.7331 37.7329 36.3678 38.504 34.666Z" fill="#ECB179"/>
</svg>
