<svg width="63" height="63" viewBox="0 0 63 63" fill="none" xmlns="http://www.w3.org/2000/svg">
<g clip-path="url(#clip0_2_2506)">
<path d="M56.9981 24.8344C54.5956 15.6501 47.3499 8.40457 38.1656 6.00193C37.8143 2.63435 34.9593 0 31.5001 0C28.0409 0 25.1857 2.63435 24.8346 6.00193C15.6503 8.40457 8.40473 15.6503 6.00209 24.8344C2.63435 25.1857 0 28.0407 0 31.5001C0 34.9594 2.63435 37.8144 6.00209 38.1656C8.40457 47.3499 15.6503 54.5954 24.8346 56.9981C25.1859 60.3658 28.0409 63.0002 31.5001 63.0002C34.9593 63.0002 37.8144 60.366 38.1656 56.9981C47.3499 54.5956 54.5954 47.3499 56.9981 38.1656C60.3658 37.8143 63.0002 34.9593 63.0002 31.5001C63.0002 28.0409 60.3658 25.1857 56.9981 24.8344ZM53.8875 37.7522C51.7068 45.5511 45.5511 51.7067 37.7522 53.8875C36.7822 51.3796 34.3462 49.5955 31.5001 49.5955C28.6539 49.5955 26.218 51.3796 25.2479 53.8875C17.4492 51.7068 11.2935 45.5512 9.11261 37.7522C11.6205 36.7822 13.4047 34.3462 13.4047 31.5001C13.4047 28.6539 11.6205 26.218 9.11261 25.2479C11.2933 17.4491 17.4489 11.2935 25.2479 9.11261C26.218 11.6205 28.6538 13.4047 31.5001 13.4047C34.3464 13.4047 36.7822 11.6205 37.7522 9.11261C45.5511 11.2933 51.7067 17.4489 53.8875 25.2479C51.3796 26.218 49.5955 28.6539 49.5955 31.5001C49.5955 34.3461 51.3796 36.782 53.8875 37.7522Z" fill="#ECB179"/>
<path d="M23.7246 42.2822C23.7246 42.8441 24.181 43.2997 24.7429 43.2997H38.2574C38.8191 43.2997 39.2757 42.8441 39.2757 42.2822V40.2642H23.7246V42.2822Z" fill="#ECB179"/>
<path d="M38.2572 29.5739H37.8911V26.0911C37.8911 22.5671 35.0241 19.7 31.4998 19.7C27.9755 19.7 25.1085 22.5671 25.1085 26.0911V29.5739H24.7424C24.1805 29.5739 23.7241 30.0299 23.7241 30.5918V38.3979H39.2752V30.5918C39.2755 30.0299 38.8189 29.5739 38.2572 29.5739ZM35.403 29.5739H27.5968V26.0911C27.5968 23.939 29.3477 22.1881 31.5 22.1881C33.6522 22.1881 35.4031 23.939 35.4031 26.0911V29.5739H35.403Z" fill="#ECB179"/>
</g>
<defs>
<clipPath id="clip0_2_2506">
<rect width="63" height="63" fill="white"/>
</clipPath>
</defs>
</svg>
