<svg width="63" height="59" viewBox="0 0 63 59" fill="none" xmlns="http://www.w3.org/2000/svg">
<g clip-path="url(#clip0_2_2498)">
<path fill-rule="evenodd" clip-rule="evenodd" d="M52.1073 35.421C54.2621 35.421 56.3684 36.074 58.1601 37.2975C59.9517 38.521 61.3481 40.2599 62.1727 42.2945C62.9973 44.3291 63.2131 46.5679 62.7927 48.7278C62.3723 50.8877 61.3347 52.8716 59.811 54.4288C58.2874 55.986 56.3461 57.0465 54.2327 57.4761C52.1194 57.9058 49.9288 57.6853 47.938 56.8425C45.9473 55.9998 44.2457 54.5726 43.0486 52.7415C41.8515 50.9105 41.2125 48.7577 41.2125 46.5555C41.2139 43.6029 42.3621 40.7716 44.405 38.6837C46.4479 36.5959 49.2182 35.4224 52.1073 35.421ZM15.9469 25.8846H20.6534C20.9122 25.8846 21.1605 25.9893 21.344 26.1758C21.5275 26.3624 21.6313 26.6156 21.6327 26.8801V40.0634C21.6313 40.3284 21.5277 40.5822 21.3444 40.7696C21.161 40.957 20.9127 41.0629 20.6534 41.0642H15.9469C15.6876 41.0629 15.4393 40.957 15.2559 40.7696C15.0726 40.5822 14.969 40.3284 14.9676 40.0634V26.8749C14.969 26.6104 15.0727 26.3571 15.2562 26.1706C15.4397 25.984 15.688 25.8793 15.9469 25.8793V25.8846ZM28.3028 15.9918C28.8155 13.3719 33.0401 15.7823 33.3375 20.0527C33.4029 21.5711 33.2824 23.092 32.9786 24.5799H39.0438C41.5611 24.6794 43.7657 26.5291 42.2123 29.5734C42.566 30.8938 42.6173 32.4395 41.6534 33.0683C41.7765 35.1642 41.2125 36.4375 40.1563 37.4592C40.1388 38.401 39.8731 39.3206 39.3873 40.1211C38.5619 41.3105 37.9261 41.0118 36.6187 41.0118H26.3648C24.7396 41.0118 23.8526 40.556 22.776 39.1936V27.5403C25.8521 26.6967 27.4569 22.4263 28.2721 19.623V15.9918H28.3028ZM28.8617 1.14393e-05C36.5162 -0.00137857 43.8578 3.1046 49.2718 8.6348C54.6858 14.165 57.7288 21.6666 57.7315 29.4895C57.7315 30.5165 57.682 31.5278 57.5829 32.5234C56.1103 31.9216 54.552 31.5677 52.9686 31.4754C53.0199 30.8152 53.0506 30.1497 53.0506 29.4843C53.0475 24.1666 51.3669 18.9916 48.2584 14.7272C45.1499 10.4628 40.779 7.33616 35.7944 5.81127C30.8097 4.28638 25.4768 4.44446 20.587 6.26207C15.6971 8.07967 11.5109 11.4599 8.64951 15.9013C5.78807 20.3427 4.40387 25.6085 4.70228 30.9175C5.00069 36.2265 6.96581 41.2956 10.3061 45.3729C13.6463 49.4502 18.1837 52.3183 23.2451 53.5517C28.3064 54.7851 33.6219 54.318 38.4029 52.2197C38.9973 53.7202 39.8248 55.1127 40.8536 56.3434C34.7013 59.1993 27.7637 59.7591 21.249 57.9254C14.7344 56.0917 9.05554 51.9806 5.20145 46.3082C1.34736 40.6357 -0.437751 33.7614 0.157017 26.8823C0.751785 20.0031 3.68874 13.5552 8.45639 8.66138C11.1304 5.91331 14.31 3.7332 17.8121 2.24667C21.3142 0.760143 25.0695 -0.00340875 28.8617 1.14393e-05ZM50.7589 40.1839H53.4403C53.617 40.1839 53.7866 40.2557 53.9116 40.3835C54.0366 40.5112 54.1068 40.6845 54.1068 40.8651V44.533H57.67C57.8468 44.533 58.0163 44.6047 58.1413 44.7325C58.2663 44.8602 58.3365 45.0335 58.3365 45.2141V47.9545C58.3365 48.1352 58.2663 48.3085 58.1413 48.4362C58.0163 48.564 57.8468 48.6357 57.67 48.6357H54.1068V52.2721C54.1068 52.4533 54.0367 52.6271 53.9119 52.7557C53.787 52.8842 53.6175 52.9572 53.4403 52.9585H50.7589C50.5816 52.9572 50.4121 52.8842 50.2873 52.7557C50.1624 52.6271 50.0924 52.4533 50.0924 52.2721V48.6095H46.5394C46.3626 48.6095 46.1931 48.5378 46.0681 48.41C45.9431 48.2823 45.8729 48.109 45.8729 47.9283V45.1879C45.8729 45.0073 45.9431 44.834 46.0681 44.7063C46.1931 44.5785 46.3626 44.5068 46.5394 44.5068H50.0975V40.8704C50.1001 40.6905 50.1712 40.5188 50.2956 40.3917C50.4201 40.2645 50.5881 40.1919 50.764 40.1892L50.7589 40.1839Z" fill="#ECB179"/>
</g>
<defs>
<clipPath id="clip0_2_2498">
<rect width="63" height="59" fill="white"/>
</clipPath>
</defs>
</svg>
