<svg width="63" height="63" viewBox="0 0 63 63" fill="none" xmlns="http://www.w3.org/2000/svg">
<path d="M41.3437 31.5C41.3437 29.5531 40.7664 27.6499 39.6848 26.0311C38.6031 24.4123 37.0657 23.1506 35.267 22.4056C33.4683 21.6605 31.4891 21.4656 29.5796 21.8454C27.6701 22.2252 25.9161 23.1627 24.5394 24.5394C23.1627 25.9161 22.2252 27.6701 21.8454 29.5796C21.4656 31.4891 21.6605 33.4683 22.4056 35.267C23.1506 37.0657 24.4123 38.6031 26.0311 39.6848C27.6499 40.7664 29.5531 41.3437 31.5 41.3437C34.1098 41.3408 36.6119 40.3027 38.4573 38.4573C40.3027 36.6119 41.3408 34.1098 41.3437 31.5ZM25.5938 31.5C25.5938 30.3319 25.9401 29.1899 26.5891 28.2187C27.2381 27.2474 28.1606 26.4904 29.2398 26.0433C30.319 25.5963 31.5066 25.4793 32.6523 25.7072C33.798 25.9351 34.8503 26.4976 35.6763 27.3237C36.5023 28.1497 37.0649 29.202 37.2928 30.3477C37.5207 31.4934 37.4037 32.681 36.9567 33.7602C36.5096 34.8394 35.7526 35.7619 34.7813 36.4109C33.8101 37.0599 32.6681 37.4062 31.5 37.4062C29.9341 37.4045 28.4329 36.7816 27.3256 35.6744C26.2184 34.5671 25.5955 33.0659 25.5938 31.5Z" fill="#ECB179"/>
<path d="M19.6875 48.2227C19.6875 48.7053 19.862 49.1717 20.1789 49.5358L29.5864 60.3443C29.9662 60.7807 30.5164 61.0312 31.095 61.0312H31.905C32.4836 61.0312 33.0338 60.7807 33.4136 60.3443L42.8211 49.5358C43.138 49.1717 43.3125 48.7053 43.3125 48.2227V47.2812C43.3125 46.1767 42.4171 45.2812 41.3125 45.2812H21.6875C20.5829 45.2812 19.6875 46.1767 19.6875 47.2813V48.2227ZM33.4847 49.2188C35.2006 49.2188 36.1198 51.2375 34.9933 52.5318L33.0086 54.8121C32.2114 55.7281 30.7886 55.7281 29.9914 54.8121L28.0067 52.5318C26.8802 51.2375 27.7994 49.2188 29.5153 49.2188H33.4847Z" fill="#ECB179"/>
<path d="M31.095 1.96875C30.5164 1.96875 29.9662 2.21929 29.5864 2.6557L20.1789 13.4642C19.862 13.8283 19.6875 14.2947 19.6875 14.7773V15.7187C19.6875 16.8233 20.5829 17.7188 21.6875 17.7188H41.3125C42.4171 17.7188 43.3125 16.8233 43.3125 15.7188V14.7773C43.3125 14.2947 43.138 13.8283 42.8211 13.4642L33.4136 2.6557C33.0338 2.21929 32.4836 1.96875 31.905 1.96875H31.095ZM29.5153 13.7812C27.7994 13.7812 26.8802 11.7625 28.0067 10.4682L29.9914 8.18786C30.7886 7.27192 32.2114 7.27192 33.0086 8.18786L34.9933 10.4682C36.1198 11.7625 35.2006 13.7812 33.4847 13.7812H29.5153Z" fill="#ECB179"/>
<path d="M2.65571 29.5864C2.21929 29.9662 1.96875 30.5164 1.96875 31.095V31.905C1.96875 32.4836 2.21929 33.0338 2.65571 33.4136L13.4644 42.8211C13.8284 43.138 14.2948 43.3125 14.7774 43.3125H15.7187C16.8233 43.3125 17.7188 42.4171 17.7188 41.3125V21.6875C17.7188 20.5829 16.8233 19.6875 15.7188 19.6875H14.7774C14.2948 19.6875 13.8284 19.862 13.4644 20.1789L2.65571 29.5864ZM13.7812 33.4848C13.7812 35.2007 11.7625 36.1199 10.4682 34.9935L8.18773 33.0086C7.27179 32.2114 7.27179 30.7886 8.18773 29.9914L10.4682 28.0065C11.7625 26.8801 13.7812 27.7993 13.7812 29.5152V33.4848Z" fill="#ECB179"/>
<path d="M49.5356 20.1789C49.1716 19.862 48.7052 19.6875 48.2226 19.6875H47.2813C46.1767 19.6875 45.2812 20.5829 45.2812 21.6875V41.3125C45.2812 42.4171 46.1767 43.3125 47.2812 43.3125H48.2226C48.7052 43.3125 49.1716 43.138 49.5356 42.8211L60.3443 33.4136C60.7807 33.0338 61.0312 32.4836 61.0312 31.905V31.095C61.0312 30.5164 60.7807 29.9662 60.3443 29.5864L49.5356 20.1789ZM52.5318 34.9935C51.2375 36.1199 49.2188 35.2007 49.2188 33.4848V29.5151C49.2188 27.7993 51.2375 26.8801 52.5318 28.0065L54.8123 29.9914C55.7282 30.7886 55.7282 32.2114 54.8123 33.0086L52.5318 34.9935Z" fill="#ECB179"/>
</svg>
