<?xml version="1.0" encoding="utf-8"?>
<!-- Generator: Adobe Illustrator 25.2.0, SVG Export Plug-In . SVG Version: 6.00 Build 0)  -->
<svg version="1.1" baseProfile="basic" id="Grafik" xmlns="http://www.w3.org/2000/svg"
	xmlns:xlink="http://www.w3.org/1999/xlink" x="0px" y="0px" width="750px" height="104.056px"
	viewBox="0 0 750 104.056" xml:space="preserve">
	<style type="text/css">
		.st0 {
			fill: #FFFFFF;
		}

		.st1 {
			fill: #D0E2F3;
		}

		.st2 {
			fill: none;
			stroke: #004B8C;
			stroke-miterlimit: 10;
		}

		.st3 {
			fill: none;
			stroke: #004B8C;
			stroke-linecap: round;
			stroke-linejoin: round;
			stroke-miterlimit: 10;
		}

		.st4 {
			fill: #404040;
		}

		.st5 {
			fill: #E8F0F9;
		}

		.st6 {
			fill-rule: evenodd;
			clip-rule: evenodd;
			fill: #FFFFFF;
		}

		.st7 {
			fill: #004B8C;
		}

		.st8 {
			fill: #E6411A;
		}

		.st9 {
			fill: #003554;
		}

		.st10 {
			clip-path: url(#SVGID_2_);
			fill: #D0E2F3;
		}

		.st11 {
			fill: none;
			stroke: #3A8DFF;
			stroke-linecap: round;
			stroke-linejoin: round;
			stroke-miterlimit: 10;
		}

		.st12 {
			fill: #3A8DFF;
		}

		.st13 {
			opacity: 0.2;
		}

		.st14 {
			clip-path: url(#SVGID_4_);
			fill: #156CC4;
		}

		.st15 {
			clip-path: url(#SVGID_6_);
			fill: #156CC4;
		}

		.st16 {
			clip-path: url(#SVGID_8_);
			fill: #156CC4;
		}

		.st17 {
			clip-path: url(#SVGID_10_);
			fill: #156CC4;
		}

		.st18 {
			clip-path: url(#SVGID_12_);
			fill: #156CC4;
		}

		.st19 {
			clip-path: url(#SVGID_14_);
			fill: #156CC4;
		}

		.st20 {
			clip-path: url(#SVGID_16_);
			fill: #156CC4;
		}

		.st21 {
			clip-path: url(#SVGID_18_);
			fill: #156CC4;
		}

		.st22 {
			clip-path: url(#SVGID_20_);
			fill: #156CC4;
		}

		.st23 {
			clip-path: url(#SVGID_22_);
			fill: #156CC4;
		}

		.st24 {
			clip-path: url(#SVGID_24_);
			fill: #156CC4;
		}

		.st25 {
			clip-path: url(#SVGID_26_);
			fill: #156CC4;
		}

		.st26 {
			clip-path: url(#SVGID_28_);
			fill: #156CC4;
		}

		.st27 {
			clip-path: url(#SVGID_30_);
			fill: #156CC4;
		}

		.st28 {
			clip-path: url(#SVGID_32_);
			fill: #156CC4;
		}

		.st29 {
			clip-path: url(#SVGID_34_);
			fill: #156CC4;
		}

		.st30 {
			clip-path: url(#SVGID_36_);
			fill: #156CC4;
		}

		.st31 {
			clip-path: url(#SVGID_38_);
			fill: #156CC4;
		}

		.st32 {
			clip-path: url(#SVGID_40_);
			fill: #156CC4;
		}

		.st33 {
			clip-path: url(#SVGID_42_);
			fill: #156CC4;
		}

		.st34 {
			clip-path: url(#SVGID_44_);
			fill: #156CC4;
		}

		.st35 {
			clip-path: url(#SVGID_46_);
			fill: #156CC4;
		}

		.st36 {
			clip-path: url(#SVGID_48_);
			fill: #156CC4;
		}

		.st37 {
			clip-path: url(#SVGID_50_);
			fill: #156CC4;
		}

		.st38 {
			clip-path: url(#SVGID_52_);
			fill: #156CC4;
		}

		.st39 {
			clip-path: url(#SVGID_54_);
			fill: #156CC4;
		}

		.st40 {
			clip-path: url(#SVGID_56_);
			fill: #156CC4;
		}

		.st41 {
			clip-path: url(#SVGID_58_);
			fill: #156CC4;
		}

		.st42 {
			fill: none;
			stroke: #D7D7D7;
			stroke-linecap: round;
			stroke-miterlimit: 10;
		}

		.st43 {
			fill: none;
			stroke: #004B8C;
			stroke-width: 0.5;
			stroke-linecap: round;
			stroke-linejoin: round;
			stroke-miterlimit: 10;
		}

		.st44 {
			fill: none;
			stroke: #004B8C;
			stroke-width: 1.75;
			stroke-linecap: round;
			stroke-linejoin: round;
			stroke-miterlimit: 10;
		}

		.st45 {
			fill: none;
			stroke: #004B8C;
			stroke-linecap: round;
			stroke-miterlimit: 10;
		}

		.st46 {
			fill: none;
			stroke: #BFCCD4;
			stroke-linecap: round;
			stroke-miterlimit: 10;
		}

		.st47 {
			fill: #FFFFFF;
			stroke: #004B8C;
			stroke-linecap: round;
			stroke-linejoin: round;
			stroke-miterlimit: 10;
		}

		.st48 {
			fill: #004B8C;
			stroke: #004B8C;
			stroke-linecap: round;
			stroke-linejoin: round;
			stroke-miterlimit: 10;
		}

		.st49 {
			clip-path: url(#SVGID_60_);
			fill: #D0E2F3;
		}

		.st50 {
			fill: none;
		}

		.st51 {
			fill: #929292;
		}

		.st52 {
			fill: #922C1C;
		}

		.st53 {
			fill: #F3F7FC;
		}

		.st54 {
			fill: #A1C4E7;
		}

		.st55 {
			fill: none;
			stroke: #F3F7FC;
			stroke-width: 0;
			stroke-linecap: round;
			stroke-linejoin: round;
		}
	</style>
	<path class="st0" d="M505.202,76.341h-60.87c-2.638,0-4.776-2.138-4.776-4.773V40.126c0-2.637,2.138-4.773,4.276-4.773h60.87
	c3.137,0,5.274,2.137,5.274,4.773v31.442C509.976,74.204,507.839,76.341,505.202,76.341z" />
	<path class="st0" d="M265.631,51.835c0-5.822,4.745-10.544,10.598-10.544s10.598,4.722,10.598,10.544s-4.745,10.544-10.598,10.544
	S265.631,57.657,265.631,51.835" />
	<path class="st0" d="M374.09,52.332L374.09,52.332v-0.364h-5.978v0.104c-2.013,0.039-5.856,0.027-8.148-0.543
	c-3.211-0.797-11.949-0.252-16.629,6.95c0,0-5.28,5.326-6.545,6.753c-0.302,0.34-0.509,0.766-0.638,1.221h-0.008l-8.024,1.104
	c0,0-5.521,0.423-7.467,1.455c0,0-2.443,1.074-2.443,2.757c0,1.975,0.524,3.976,3.104,4.167c2.538,0.187,17.822,1.286,21.017,1.373
	c3.476,0.093,6.536,1.033,10.655-3.618c0,0,7.248-6.766,15.125-9.002h0.001v2.018l5.978-0.011V52.335V52.332z" />
	<path class="st0" d="M240.936,52.332L240.936,52.332v-0.364h5.978v0.104c2.013,0.039,5.856,0.027,8.147-0.543
	c3.212-0.797,11.95-0.252,16.629,6.95c0,0,5.28,5.326,6.546,6.753c0.302,0.34,0.509,0.766,0.638,1.221h0.008l8.024,1.104
	c0,0,5.521,0.423,7.467,1.455c0,0,2.443,1.074,2.443,2.757c0,1.975-0.524,3.976-3.105,4.167c-2.537,0.187-17.821,1.286-21.016,1.373
	c-3.476,0.093-6.536,1.033-10.656-3.618c0,0-7.247-6.766-15.124-9.002h-0.001v2.018l-5.978-0.011V52.335V52.332z" />
	<path class="st1" d="M348.526,53.972c5.017-1.746,8.131-0.978,12.414-0.188c0.631,0.116,1.296,0.111,1.874,0.391
	c0.988,0.48,2.561,0.819,2.772,1.898c0.211,1.078,0.086,2.188-0.04,3.281c-0.243,2.101-0.486,4.204-0.729,6.307
	c0.873-0.193,1.733-0.44,2.575-0.741c0.185-0.064,0.379-0.14,0.5-0.295c0.148-0.188,0.154-0.448,0.154-0.687
	c-0.009-3.978-0.017-7.953-0.025-11.93c-1.839,0.544-3.827,0.575-5.682,0.089c-0.819-0.216-1.615-0.528-2.451-0.671
	c-1.324-0.224-2.679-0.003-4.004,0.219c-1.766,0.294-3.556,0.596-5.181,1.347" />
	<path class="st1" d="M281.75,46.334c3.752,3.789,3.752,9.162,0.884,13.536c2.074-1.39,3.462-3.704,3.86-6.161
	c0.398-2.456,0.03-5.049-1.219-7.204c-1.441-2.487-4.041-4.441-6.845-5.119c-2.803-0.68-6.799,0.425-8.94,2.233
	C272.882,42.375,277.728,42.272,281.75,46.334" />
	<ellipse class="st2" cx="276.229" cy="51.835" rx="10.598" ry="10.544" />
	<line class="st3" x1="272.826" y1="57.588" x2="279.701" y2="45.973" />
	<path class="st3" d="M274.485,49.173c0,1.769-0.987,3.2-2.204,3.2c-1.217,0-2.203-1.432-2.203-3.2c0-1.768,0.986-3.199,2.203-3.199
	C273.498,45.973,274.485,47.405,274.485,49.173z" />
	<path class="st3" d="M282.379,54.272c0,1.769-0.986,3.2-2.204,3.2c-1.216,0-2.203-1.432-2.203-3.2c0-1.768,0.987-3.199,2.203-3.199
	C281.393,51.073,282.379,52.505,282.379,54.272z" />
	<path class="st0" d="M319.248,61.578c0-1.159,6.396-2.1,14.287-2.1c7.89,0,14.286,0.94,14.286,2.1s-6.396,2.101-14.286,2.101
	C325.644,63.678,319.248,62.737,319.248,61.578" />
	<path class="st3" d="M319.248,61.578c0-1.159,6.396-2.1,14.287-2.1c7.89,0,14.286,0.94,14.286,2.1s-6.396,2.101-14.286,2.101
	C325.644,63.678,319.248,62.737,319.248,61.578z" />
	<path class="st0" d="M347.821,61.578c0,1.159-6.396,2.101-14.286,2.101c-7.89,0-14.287-0.941-14.287-2.101h0.001v2.643
	c0,1.152,6.398,2.1,14.286,2.1s14.286-0.947,14.286-2.1V61.578z" />
	<path class="st3" d="M347.821,61.578c0,1.159-6.396,2.101-14.286,2.101c-7.89,0-14.287-0.941-14.287-2.101h0.001v2.643
	c0,1.152,6.398,2.1,14.286,2.1s14.286-0.947,14.286-2.1V61.578z" />
	<path class="st1" d="M333.809,63.532c0.455,0.816,0.355,1.907-0.239,2.63c3.941,0.722,7.991,0.038,11.922-0.735
	c0.816-0.161,1.648-0.331,2.368-0.747c0.072-0.042,0.145-0.088,0.185-0.161c0.045-0.082,0.039-0.181,0.031-0.274
	c-0.059-0.741-0.12-1.482-0.179-2.225c-0.007-0.084-0.02-0.18-0.09-0.228c-0.052-0.036-0.123-0.033-0.185-0.021
	c-0.371,0.083-0.581,0.469-0.885,0.698c-0.32,0.239-0.738,0.296-1.135,0.344c-3.864,0.462-7.749,0.754-11.639,0.873" />
	<path class="st1" d="M329.743,59.593c1.99,0.069,3.981,0.14,5.964,0.32c1.679,0.155,3.478,0.451,4.674,1.638
	c0.126,0.125,0.249,0.272,0.258,0.449c0.016,0.316-0.32,0.521-0.612,0.64c-0.956,0.389-1.96,0.658-2.981,0.802
	c2.489-0.233,4.979-0.465,7.468-0.698c0.588-0.054,1.188-0.113,1.73-0.348c0.541-0.237,1.025-0.686,1.146-1.265
	c-3.063-0.91-6.251-1.401-9.446-1.453" />
	<path class="st3" d="M319.248,61.578c0-1.159,6.396-2.1,14.287-2.1c7.89,0,14.286,0.94,14.286,2.1s-6.396,2.101-14.286,2.101
	C325.644,63.678,319.248,62.737,319.248,61.578z" />
	<path class="st3" d="M347.821,61.578c0,1.159-6.396,2.101-14.286,2.101c-7.89,0-14.287-0.941-14.287-2.101h0.001v2.643
	c0,1.152,6.398,2.1,14.286,2.1s14.286-0.947,14.286-2.1V61.578z" />
	<path class="st0" d="M317.748,56.838c0-1.158,6.396-2.1,14.286-2.1c7.89,0,14.287,0.941,14.287,2.1c0,1.16-6.397,2.101-14.287,2.101
	C324.144,58.938,317.748,57.998,317.748,56.838" />
	<path class="st3" d="M317.748,56.838c0-1.158,6.396-2.1,14.286-2.1c7.89,0,14.287,0.941,14.287,2.1c0,1.16-6.397,2.101-14.287,2.101
	C324.144,58.938,317.748,57.998,317.748,56.838z" />
	<path class="st0" d="M346.321,56.838c0,1.16-6.396,2.101-14.287,2.101c-7.89,0-14.286-0.94-14.286-2.101h0.001v2.644
	c0,1.151,6.398,2.099,14.285,2.099c7.889,0,14.286-0.947,14.286-2.099v-2.644H346.321z" />
	<path class="st3" d="M346.321,56.838c0,1.16-6.396,2.101-14.287,2.101c-7.89,0-14.286-0.94-14.286-2.101h0.001v2.644
	c0,1.151,6.398,2.099,14.285,2.099c7.889,0,14.286-0.947,14.286-2.099v-2.644H346.321z" />
	<path class="st1" d="M332.309,58.792c0.454,0.817,0.355,1.907-0.24,2.63c3.941,0.723,7.992,0.038,11.923-0.734
	c0.816-0.162,1.648-0.332,2.368-0.748c0.072-0.041,0.145-0.087,0.185-0.16c0.045-0.083,0.039-0.182,0.031-0.275
	c-0.059-0.741-0.12-1.482-0.18-2.225c-0.006-0.084-0.019-0.179-0.089-0.227c-0.053-0.036-0.123-0.034-0.185-0.021
	c-0.371,0.082-0.581,0.468-0.885,0.697c-0.321,0.24-0.738,0.296-1.136,0.344c-3.863,0.463-7.748,0.754-11.638,0.874" />
	<path class="st1" d="M328.243,54.853c1.99,0.069,3.982,0.14,5.965,0.321c1.679,0.155,3.478,0.45,4.674,1.639
	c0.125,0.123,0.248,0.271,0.257,0.447c0.017,0.316-0.32,0.521-0.612,0.64c-0.955,0.39-1.959,0.658-2.981,0.802
	c2.489-0.233,4.979-0.465,7.468-0.698c0.589-0.054,1.188-0.112,1.73-0.348c0.542-0.237,1.025-0.686,1.146-1.264
	c-3.063-0.911-6.251-1.402-9.446-1.454" />
	<path class="st3" d="M317.748,56.838c0-1.158,6.396-2.1,14.286-2.1c7.89,0,14.287,0.941,14.287,2.1c0,1.16-6.397,2.101-14.287,2.101
	C324.144,58.938,317.748,57.998,317.748,56.838z" />
	<path class="st3" d="M346.321,56.838c0,1.16-6.396,2.101-14.287,2.101c-7.89,0-14.286-0.94-14.286-2.101h0.001v2.644
	c0,1.151,6.398,2.099,14.285,2.099c7.889,0,14.286-0.947,14.286-2.099v-2.644H346.321z" />
	<path class="st0" d="M319.326,52.638c0-1.159,6.396-2.1,14.286-2.1c7.89,0,14.287,0.94,14.287,2.1s-6.397,2.101-14.287,2.101
	C325.722,54.739,319.326,53.798,319.326,52.638" />
	<path class="st3" d="M319.326,52.638c0-1.159,6.396-2.1,14.286-2.1c7.89,0,14.287,0.94,14.287,2.1s-6.397,2.101-14.287,2.101
	C325.722,54.739,319.326,53.798,319.326,52.638z" />
	<path class="st0" d="M347.898,52.638c0,1.159-6.396,2.101-14.287,2.101c-7.89,0-14.286-0.941-14.286-2.101h0.001v2.643
	c0,1.152,6.397,2.1,14.285,2.1c7.889,0,14.286-0.947,14.286-2.1v-2.643H347.898z" />
	<path class="st3" d="M347.898,52.638c0,1.159-6.396,2.101-14.287,2.101c-7.89,0-14.286-0.941-14.286-2.101h0.001v2.643
	c0,1.152,6.397,2.1,14.285,2.1c7.889,0,14.286-0.947,14.286-2.1v-2.643H347.898z" />
	<path class="st1" d="M333.887,54.592c0.454,0.816,0.354,1.907-0.24,2.63c3.941,0.722,7.992,0.038,11.923-0.735
	c0.816-0.161,1.648-0.331,2.368-0.747c0.072-0.042,0.145-0.088,0.185-0.161c0.045-0.082,0.038-0.181,0.031-0.274
	c-0.06-0.741-0.12-1.482-0.18-2.225c-0.006-0.084-0.02-0.18-0.089-0.228c-0.053-0.036-0.123-0.033-0.185-0.021
	c-0.372,0.083-0.581,0.469-0.885,0.698c-0.321,0.239-0.738,0.296-1.136,0.344c-3.863,0.462-7.748,0.754-11.638,0.873" />
	<path class="st1" d="M329.821,50.654c1.99,0.069,3.981,0.14,5.965,0.32c1.678,0.155,3.477,0.451,4.673,1.638
	c0.126,0.125,0.249,0.272,0.258,0.449c0.016,0.316-0.32,0.521-0.612,0.64c-0.955,0.389-1.959,0.658-2.981,0.802
	c2.489-0.233,4.979-0.465,7.468-0.698c0.588-0.054,2.566-0.736,3.108-0.972c0.541-0.236,0.199-0.194-0.232-0.641
	c-3.063-0.91-6.251-1.401-9.446-1.453" />
	<path class="st3" d="M319.326,52.638c0-1.159,6.396-2.1,14.286-2.1c7.89,0,14.287,0.94,14.287,2.1s-6.397,2.101-14.287,2.101
	C325.722,54.739,319.326,53.798,319.326,52.638z" />
	<path class="st3" d="M347.898,52.638c0,1.159-6.396,2.101-14.287,2.101c-7.89,0-14.286-0.941-14.286-2.101h0.001v2.643
	c0,1.152,6.397,2.1,14.285,2.1c7.889,0,14.286-0.947,14.286-2.1v-2.643H347.898z" />
	<path class="st0" d="M268.87,55.449c2.758,2.841,5.462,5.188,8.11,8.132c0.244,0.271,0.506,0.609,0.412,0.963
	c-0.153,0.583-0.999,0.523-1.565,0.315c-3.062-1.119-5.958-2.692-8.562-4.653c-0.587-0.443-1.173-0.92-1.541-1.557
	c-0.705-1.218-2.626-4.105-1.878-5.301C264.681,52.013,267.943,54.496,268.87,55.449" />
	<path class="st1" d="M263.278,61.468c0.707,1.398,1.83,2.539,2.985,3.598c1.199,1.098,2.453,2.136,3.757,3.107
	c1.377,1.027,2.839,1.996,4.491,2.466c0.57,0.161,1.19,0.261,1.746,0.057c-0.04-0.359-0.441-0.539-0.779-0.664
	c-2.156-0.795-4.105-2.081-5.852-3.574c-1.746-1.492-3.302-3.192-4.824-4.915c-0.332-0.375-0.87-1.185-1.363-1.346
	C262.715,59.96,263.104,61.123,263.278,61.468" />
	<path class="st1" d="M291.987,69.459c0.835,0.646,1.521,1.552,1.685,2.596c0.045,0.294,0.047,0.602-0.064,0.878
	c-0.213,0.529-0.782,0.812-1.317,1.01c-1.659,0.613-3.431,0.839-5.188,1.038c-7.236,0.813-14.519,1.204-21.801,1.166
	c1.284,1.131,3.157,1.212,4.869,1.213c7.505,0.003,15.011-0.416,22.469-1.254c0.948-0.108,1.912-0.225,2.785-0.61
	c0.873-0.385,1.657-1.082,1.916-2c0.137-0.486,0.102-1.058-0.236-1.435c-0.167-0.187-0.391-0.309-0.6-0.447
	c-0.663-0.436-1.202-1.057-1.541-1.774c-0.172-0.363-0.307-0.77-0.622-1.019c-0.248-0.195-0.569-0.263-0.879-0.325
	c-0.56-0.108-1.12-0.219-1.681-0.322c-0.35-0.066-1.379-0.445-1.694-0.278c-0.559,0.297,0.213,0.562,0.461,0.686
	C291.052,68.831,291.541,69.113,291.987,69.459" />
	<path class="st3" d="M278.882,66.452l8.024,1.104c0,0,6.079,0.293,7.467,1.455c0,0,0.945,0.406,2.443,2.756
	c1.063,1.666-0.524,3.977-3.104,4.167c-2.538,0.188-17.822,1.287-21.017,1.373c-3.476,0.094-6.536,1.034-10.656-3.617
	c0,0-8.077-7.541-16.446-9.332V52.031c0,0,6.258,0.294,9.469-0.503c3.211-0.797,11.949-0.252,16.629,6.951
	c0,0,5.279,5.325,6.545,6.752c1.813,2.045,0.505,7.036-4.002,4.445c-5.415-3.114-10.856-9.619-10.856-9.619" />
	<line class="st3" x1="293.319" y1="70.865" x2="279.866" y2="70.865" />
	<polygon class="st1" points="244.159,52.332 244.522,66.521 246.846,66.478 246.818,51.968 " />
	<polygon class="st3" points="240.936,51.967 246.914,51.967 246.914,66.705 240.936,66.695 " />
	<path class="st0" d="M346.156,54.985c-2.758,2.841-5.038,6.113-8.11,8.675c-0.28,0.233-1.865,2.885-1.772,3.236
	c0.154,0.584,3.75,2.619,4.317,2.411c3.062-1.119,4.85-3.444,7.454-5.406c0.587-0.441,2.4-2.254,2.768-2.89
	c0.705-1.217-1.258-5.08-2.005-6.272C347.972,53.403,347.083,54.031,346.156,54.985" />
	<path class="st1" d="M351.747,61.468c-0.707,1.398-1.829,2.539-2.985,3.598c-1.199,1.098-2.453,2.136-3.757,3.107
	c-1.376,1.027-2.839,1.996-4.491,2.466c-0.57,0.161-1.19,0.261-1.746,0.057c0.04-0.359,0.441-0.539,0.78-0.664
	c2.155-0.795,4.105-2.081,5.851-3.574c1.746-1.492,3.302-3.192,4.824-4.915c0.332-0.375,0.87-1.185,1.363-1.346
	C352.311,59.96,351.922,61.123,351.747,61.468" />
	<path class="st3" d="M368.114,52.071c-2.012,0.039-5.857,0.026-8.15-0.543c-3.211-0.797-11.949-0.252-16.629,6.951
	c0,0-5.28,5.324-6.545,6.752c-1.813,2.045-0.505,7.036,4.003,4.444c5.414-3.113,10.855-9.618,10.855-9.618" />
	<path class="st3" d="M336.143,66.452l-8.023,1.104c0,0-5.521,0.422-7.468,1.455c0,0-2.443,1.074-2.443,2.756
	c0,1.977,0.524,3.977,3.104,4.167c2.538,0.188,17.822,1.287,21.017,1.373c3.476,0.094,6.536,1.034,10.656-3.617
	c0,0,7.247-6.765,15.124-9.002" />
	<line class="st3" x1="322.367" y1="70.865" x2="335.159" y2="70.865" />
	<polygon class="st1" points="374.09,52.332 373.727,66.521 371.403,66.478 371.431,51.968 " />
	<polygon class="st3" points="374.09,51.967 368.112,51.967 368.112,66.705 374.09,66.695 " />
	<path class="st3" d="M292.59,46.506c7.706-7.407,19.958-7.167,27.367,0.538" />
	<polyline class="st3" points="320.18,43.36 320.135,47.333 316.163,47.233 " />
	<polyline class="st3" points="284.851,33.625 284.896,37.598 288.868,37.499 " />
	<path class="st3" d="M328.452,36.488c-12.162-11.692-31.501-11.312-43.194,0.851" />
	<path class="st0" d="M86.616,79.728c0-1.933,10.662-3.5,23.814-3.5c13.153,0,23.815,1.567,23.815,3.5c0,1.935-10.662,3.5-23.815,3.5
	C97.278,83.228,86.616,81.663,86.616,79.728" />
	<path class="st3" d="M86.616,79.728c0-1.933,10.662-3.5,23.814-3.5c13.153,0,23.815,1.567,23.815,3.5c0,1.935-10.662,3.5-23.815,3.5
	C97.278,83.228,86.616,81.663,86.616,79.728z" />
	<path class="st0" d="M134.245,79.728c0,1.935-10.662,3.5-23.814,3.5c-13.153,0-23.815-1.565-23.815-3.5h0.002v4.404
	c0,1.92,10.664,3.501,23.813,3.501c13.148,0,23.813-1.581,23.813-3.501v-4.404H134.245z" />
	<path class="st3" d="M134.245,79.728c0,1.935-10.662,3.5-23.814,3.5c-13.153,0-23.815-1.565-23.815-3.5h0.002v4.404
	c0,1.92,10.664,3.501,23.813,3.501c13.148,0,23.813-1.581,23.813-3.501v-4.404H134.245z" />
	<path class="st1" d="M110.888,82.986c0.757,1.361,0.591,3.181-0.399,4.383c6.568,1.204,13.321,0.062,19.874-1.227
	c1.36-0.266,2.746-0.551,3.947-1.244c0.12-0.067,0.242-0.146,0.308-0.267c0.075-0.138,0.065-0.304,0.052-0.46
	c-0.099-1.236-0.199-2.471-0.299-3.706c-0.011-0.141-0.033-0.301-0.15-0.381c-0.087-0.062-0.204-0.056-0.308-0.033
	c-0.619,0.138-0.967,0.782-1.475,1.162c-0.534,0.4-1.23,0.495-1.892,0.574c-6.442,0.771-12.917,1.258-19.401,1.457" />
	<path class="st1" d="M104.11,76.421c3.318,0.115,6.638,0.231,9.943,0.535c2.798,0.258,5.797,0.749,7.791,2.73
	c0.208,0.207,0.414,0.454,0.429,0.748c0.027,0.524-0.533,0.865-1.02,1.063c-1.593,0.649-3.266,1.1-4.969,1.336
	c4.149-0.387,8.299-0.773,12.449-1.16c0.981-0.093,1.981-0.189,2.883-0.582c0.903-0.395,1.709-1.143,1.911-2.106
	c-5.105-1.519-10.42-2.337-15.746-2.424" />
	<path class="st3" d="M86.616,79.728c0-1.933,10.662-3.5,23.814-3.5c13.153,0,23.815,1.567,23.815,3.5c0,1.935-10.662,3.5-23.815,3.5
	C97.278,83.228,86.616,81.663,86.616,79.728z" />
	<path class="st3" d="M134.245,79.728c0,1.935-10.662,3.5-23.814,3.5c-13.153,0-23.815-1.565-23.815-3.5h0.002v4.404
	c0,1.92,10.664,3.501,23.813,3.501c13.148,0,23.813-1.581,23.813-3.501v-4.404H134.245z" />
	<path class="st0" d="M84.115,71.827c0-1.933,10.662-3.5,23.814-3.5c13.152,0,23.814,1.567,23.814,3.5
	c0,1.935-10.662,3.502-23.814,3.502C94.777,75.329,84.115,73.761,84.115,71.827" />
	<path class="st3" d="M84.115,71.827c0-1.933,10.662-3.5,23.814-3.5c13.152,0,23.814,1.567,23.814,3.5
	c0,1.935-10.662,3.502-23.814,3.502C94.777,75.329,84.115,73.761,84.115,71.827z" />
	<path class="st0" d="M131.744,71.827c0,1.935-10.662,3.502-23.814,3.502c-13.152,0-23.814-1.567-23.814-3.502h0.001v4.404
	c0,1.92,10.664,3.501,23.813,3.501c13.148,0,23.813-1.581,23.813-3.501v-4.404H131.744z" />
	<path class="st3" d="M131.744,71.827c0,1.935-10.662,3.502-23.814,3.502c-13.152,0-23.814-1.567-23.814-3.502h0.001v4.404
	c0,1.92,10.664,3.501,23.813,3.501c13.148,0,23.813-1.581,23.813-3.501v-4.404H131.744z" />
	<path class="st1" d="M108.387,75.085c0.757,1.362,0.592,3.181-0.399,4.383c6.569,1.204,13.321,0.062,19.874-1.226
	c1.36-0.267,2.747-0.552,3.947-1.245c0.12-0.067,0.242-0.146,0.308-0.267c0.076-0.137,0.065-0.304,0.052-0.46l-0.299-3.706
	c-0.011-0.141-0.033-0.3-0.149-0.38c-0.088-0.062-0.205-0.057-0.309-0.034c-0.618,0.138-0.967,0.782-1.475,1.162
	c-0.534,0.4-1.23,0.495-1.892,0.575c-6.441,0.771-12.917,1.257-19.401,1.456" />
	<path class="st1" d="M101.61,68.519c3.317,0.116,6.637,0.231,9.943,0.535c2.798,0.258,5.797,0.749,7.79,2.73
	c0.209,0.208,0.415,0.454,0.43,0.748c0.027,0.524-0.534,0.866-1.02,1.063c-1.593,0.65-3.267,1.101-4.97,1.337
	c4.15-0.388,8.3-0.774,12.45-1.161c0.981-0.093,1.98-0.189,2.883-0.581c0.903-0.395,1.709-1.143,1.911-2.106
	c-5.106-1.52-10.42-2.338-15.747-2.425" />
	<path class="st3" d="M84.115,71.827c0-1.933,10.662-3.5,23.814-3.5c13.152,0,23.814,1.567,23.814,3.5
	c0,1.935-10.662,3.502-23.814,3.502C94.777,75.329,84.115,73.761,84.115,71.827z" />
	<path class="st3" d="M131.744,71.827c0,1.935-10.662,3.502-23.814,3.502c-13.152,0-23.814-1.567-23.814-3.502h0.001v4.404
	c0,1.92,10.664,3.501,23.813,3.501c13.148,0,23.813-1.581,23.813-3.501v-4.404H131.744z" />
	<path class="st0" d="M86.745,64.827c0-1.934,10.662-3.5,23.814-3.5c13.153,0,23.815,1.566,23.815,3.5c0,1.934-10.662,3.5-23.815,3.5
	C97.407,68.327,86.745,66.76,86.745,64.827" />
	<path class="st3" d="M86.745,64.827c0-1.934,10.662-3.5,23.814-3.5c13.153,0,23.815,1.566,23.815,3.5c0,1.934-10.662,3.5-23.815,3.5
	C97.407,68.327,86.745,66.76,86.745,64.827z" />
	<path class="st0" d="M134.373,64.827c0,1.934-10.662,3.5-23.814,3.5c-13.153,0-23.815-1.566-23.815-3.5h0.002v4.404
	c0,1.92,10.664,3.501,23.813,3.501c13.148,0,23.813-1.581,23.813-3.501v-4.404H134.373z" />
	<path class="st3" d="M134.373,64.827c0,1.934-10.662,3.5-23.814,3.5c-13.153,0-23.815-1.566-23.815-3.5h0.002v4.404
	c0,1.92,10.664,3.501,23.813,3.501c13.148,0,23.813-1.581,23.813-3.501v-4.404H134.373z" />
	<path class="st1" d="M111.017,68.085c0.757,1.361,0.591,3.181-0.399,4.383c6.568,1.204,13.321,0.062,19.874-1.227
	c1.36-0.266,2.746-0.551,3.947-1.244c0.119-0.068,0.242-0.146,0.308-0.267c0.075-0.138,0.065-0.304,0.052-0.46
	c-0.099-1.236-0.199-2.471-0.299-3.706c-0.011-0.141-0.033-0.301-0.15-0.381c-0.087-0.062-0.204-0.056-0.308-0.033
	c-0.619,0.138-0.967,0.782-1.475,1.162c-0.534,0.399-1.23,0.495-1.893,0.574c-6.441,0.771-12.916,1.258-19.4,1.457" />
	<path class="st1" d="M104.239,61.519c3.318,0.115,6.638,0.231,9.943,0.535c2.798,0.258,5.797,0.749,7.79,2.73
	c0.209,0.207,0.415,0.454,0.43,0.748c0.027,0.524-0.533,0.865-1.02,1.063c-1.593,0.649-3.266,1.1-4.969,1.336
	c4.149-0.387,8.299-0.773,12.449-1.161c0.981-0.092,1.981-0.188,2.883-0.581c0.903-0.395,1.709-1.143,1.911-2.106
	c-5.105-1.519-10.42-2.338-15.746-2.424" />
	<path class="st3" d="M86.745,64.827c0-1.934,10.662-3.5,23.814-3.5c13.153,0,23.815,1.566,23.815,3.5c0,1.934-10.662,3.5-23.815,3.5
	C97.407,68.327,86.745,66.76,86.745,64.827z" />
	<path class="st3" d="M134.373,64.827c0,1.934-10.662,3.5-23.814,3.5c-13.153,0-23.815-1.566-23.815-3.5h0.002v4.404
	c0,1.92,10.664,3.501,23.813,3.501c13.148,0,23.813-1.581,23.813-3.501v-4.404H134.373z" />
	<path class="st0" d="M82.399,58.22c0-1.933,10.662-3.5,23.814-3.5s23.814,1.567,23.814,3.5c0,1.935-10.662,3.502-23.814,3.502
	S82.399,60.155,82.399,58.22" />
	<path class="st3" d="M82.399,58.22c0-1.933,10.662-3.5,23.814-3.5s23.814,1.567,23.814,3.5c0,1.935-10.662,3.502-23.814,3.502
	S82.399,60.155,82.399,58.22z" />
	<path class="st0" d="M130.028,58.22c0,1.935-10.662,3.502-23.814,3.502c-13.152,0-23.814-1.567-23.814-3.502h0.001v4.404
	c0,1.92,10.664,3.501,23.813,3.501c13.148,0,23.813-1.581,23.813-3.501V58.22H130.028z" />
	<path class="st3" d="M130.028,58.22c0,1.935-10.662,3.502-23.814,3.502c-13.152,0-23.814-1.567-23.814-3.502h0.001v4.404
	c0,1.92,10.664,3.501,23.813,3.501c13.148,0,23.813-1.581,23.813-3.501V58.22H130.028z" />
	<path class="st1" d="M106.671,61.478c0.757,1.362,0.592,3.181-0.399,4.383c6.569,1.204,13.321,0.062,19.874-1.226
	c1.36-0.267,2.747-0.552,3.947-1.245c0.12-0.067,0.242-0.146,0.308-0.267c0.076-0.137,0.065-0.304,0.053-0.46
	c-0.1-1.236-0.2-2.471-0.3-3.706c-0.011-0.141-0.033-0.3-0.149-0.38c-0.088-0.062-0.205-0.057-0.309-0.034
	c-0.618,0.138-0.967,0.782-1.475,1.162c-0.534,0.4-1.23,0.495-1.892,0.575c-6.441,0.771-12.916,1.257-19.401,1.456" />
	<path class="st1" d="M99.894,54.913c3.317,0.116,6.637,0.231,9.943,0.535c2.798,0.258,5.797,0.749,7.79,2.73
	c0.209,0.208,0.415,0.454,0.43,0.748c0.027,0.524-0.534,0.866-1.02,1.063c-1.593,0.65-3.267,1.101-4.97,1.337
	c4.15-0.388,8.3-0.774,12.45-1.161c0.981-0.093,1.981-0.189,2.883-0.581c0.903-0.395,1.709-1.143,1.911-2.106
	c-5.106-1.52-10.42-2.338-15.747-2.425" />
	<path class="st3" d="M82.399,58.22c0-1.933,10.662-3.5,23.814-3.5s23.814,1.567,23.814,3.5c0,1.935-10.662,3.502-23.814,3.502
	S82.399,60.155,82.399,58.22z" />
	<path class="st3" d="M130.028,58.22c0,1.935-10.662,3.502-23.814,3.502c-13.152,0-23.814-1.567-23.814-3.502h0.001v4.404
	c0,1.92,10.664,3.501,23.813,3.501c13.148,0,23.813-1.581,23.813-3.501V58.22H130.028z" />
	<path class="st0" d="M88.032,52.396c0-1.934,10.662-3.5,23.814-3.5c13.152,0,23.814,1.566,23.814,3.5s-10.662,3.5-23.814,3.5
	C98.694,55.896,88.032,54.33,88.032,52.396" />
	<ellipse class="st3" cx="111.846" cy="52.396" rx="23.814" ry="3.5" />
	<path class="st0" d="M135.661,52.396c0,1.934-10.662,3.5-23.814,3.5c-13.152,0-23.814-1.566-23.814-3.5h0.001V56.8
	c0,1.92,10.664,3.501,23.813,3.501c13.148,0,23.813-1.581,23.813-3.501v-4.404H135.661z" />
	<path class="st3" d="M135.661,52.396c0,1.934-10.662,3.5-23.814,3.5c-13.152,0-23.814-1.566-23.814-3.5h0.001V56.8
	c0,1.92,10.664,3.501,23.813,3.501c13.148,0,23.813-1.581,23.813-3.501v-4.404H135.661z" />
	<path class="st1" d="M112.304,55.654c0.757,1.361,0.592,3.18-0.399,4.382c6.569,1.204,13.321,0.062,19.874-1.226
	c1.36-0.267,2.747-0.551,3.947-1.244c0.12-0.068,0.242-0.146,0.308-0.267c0.076-0.138,0.065-0.304,0.052-0.46
	c-0.099-1.236-0.199-2.471-0.299-3.707c-0.011-0.14-0.033-0.3-0.149-0.38c-0.088-0.062-0.205-0.056-0.309-0.033
	c-0.618,0.138-0.967,0.782-1.475,1.162c-0.534,0.399-1.23,0.495-1.892,0.574c-6.441,0.771-12.917,1.258-19.401,1.457" />
	<path class="st1" d="M105.527,49.089c3.317,0.115,6.637,0.23,9.943,0.534c2.798,0.259,5.797,0.75,7.79,2.731
	c0.209,0.207,0.415,0.454,0.43,0.748c0.027,0.524-0.534,0.865-1.02,1.062c-1.593,0.65-3.267,1.101-4.97,1.337
	c4.15-0.387,8.3-0.773,12.45-1.161c0.981-0.092,1.98-0.188,2.883-0.581c0.903-0.395,1.709-1.143,1.911-2.106
	c-5.106-1.52-10.42-2.338-15.747-2.424" />
	<ellipse class="st3" cx="111.846" cy="52.396" rx="23.814" ry="3.5" />
	<path class="st3" d="M135.661,52.396c0,1.934-10.662,3.5-23.814,3.5c-13.152,0-23.814-1.566-23.814-3.5h0.001V56.8
	c0,1.92,10.664,3.501,23.813,3.501c13.148,0,23.813-1.581,23.813-3.501v-4.404H135.661z" />
	<path class="st0" d="M89.924,45.631c0-1.934,10.662-3.501,23.814-3.501c13.153,0,23.815,1.567,23.815,3.501s-10.662,3.5-23.815,3.5
	C100.586,49.131,89.924,47.564,89.924,45.631" />
	<path class="st3" d="M89.924,45.631c0-1.934,10.662-3.501,23.814-3.501c13.153,0,23.815,1.567,23.815,3.501s-10.662,3.5-23.815,3.5
	C100.586,49.131,89.924,47.564,89.924,45.631z" />
	<path class="st0" d="M137.553,45.631c0,1.934-10.662,3.5-23.814,3.5c-13.153,0-23.815-1.566-23.815-3.5h0.002v4.404
	c0,1.92,10.664,3.501,23.813,3.501c13.148,0,23.813-1.581,23.813-3.501v-4.404H137.553z" />
	<path class="st3" d="M137.553,45.631c0,1.934-10.662,3.5-23.814,3.5c-13.153,0-23.815-1.566-23.815-3.5h0.002v4.404
	c0,1.92,10.664,3.501,23.813,3.501c13.148,0,23.813-1.581,23.813-3.501v-4.404H137.553z" />
	<path class="st1" d="M114.197,48.888c0.757,1.361,0.591,3.18-0.399,4.382c6.568,1.204,13.321,0.062,19.874-1.226
	c1.36-0.267,2.747-0.551,3.947-1.244c0.12-0.068,0.242-0.146,0.308-0.268c0.076-0.137,0.065-0.304,0.052-0.46
	c-0.099-1.236-0.199-2.471-0.299-3.706c-0.011-0.141-0.033-0.3-0.15-0.38c-0.087-0.062-0.204-0.056-0.308-0.034
	c-0.619,0.139-0.967,0.782-1.475,1.162c-0.534,0.4-1.23,0.496-1.892,0.575c-6.442,0.771-12.917,1.258-19.401,1.456" />
	<path class="st1" d="M107.419,42.323c3.317,0.115,6.637,0.23,9.943,0.534c2.798,0.257,5.797,0.75,7.79,2.73
	c0.209,0.208,0.415,0.454,0.43,0.748c0.027,0.524-0.534,0.866-1.021,1.063c-1.592,0.65-3.266,1.101-4.969,1.337
	c4.15-0.388,8.3-0.773,12.45-1.161c0.98-0.093,1.98-0.188,2.883-0.581c0.903-0.395,2.975-0.97,1.911-2.106
	c-5.106-1.52-10.42-2.338-15.747-2.424" />
	<path class="st3" d="M89.924,45.631c0-1.934,10.662-3.501,23.814-3.501c13.153,0,23.815,1.567,23.815,3.501s-10.662,3.5-23.815,3.5
	C100.586,49.131,89.924,47.564,89.924,45.631z" />
	<path class="st3" d="M137.553,45.631c0,1.934-10.662,3.5-23.814,3.5c-13.153,0-23.815-1.566-23.815-3.5h0.002v4.404
	c0,1.92,10.664,3.501,23.813,3.501c13.148,0,23.813-1.581,23.813-3.501v-4.404H137.553z" />
	<path class="st0" d="M87.424,37.729c0-1.934,10.662-3.5,23.814-3.5c13.153,0,23.814,1.566,23.814,3.5c0,1.935-10.661,3.5-23.814,3.5
	C98.086,41.229,87.424,39.664,87.424,37.729" />
	<ellipse class="st3" cx="111.238" cy="37.729" rx="23.814" ry="3.5" />
	<path class="st0" d="M135.052,37.729c0,1.935-10.662,3.5-23.814,3.5c-13.152,0-23.814-1.565-23.814-3.5h0.001v4.404
	c0,1.92,10.664,3.501,23.813,3.501c13.148,0,23.813-1.581,23.813-3.501v-4.404H135.052z" />
	<path class="st3" d="M135.052,37.729c0,1.935-10.662,3.5-23.814,3.5c-13.152,0-23.814-1.565-23.814-3.5h0.001v4.404
	c0,1.92,10.664,3.501,23.813,3.501c13.148,0,23.813-1.581,23.813-3.501v-4.404H135.052z" />
	<path class="st1" d="M111.696,40.987c0.757,1.361,0.591,3.181-0.399,4.383c6.568,1.204,13.32,0.062,19.874-1.227
	c1.36-0.266,2.746-0.551,3.947-1.244c0.119-0.067,0.242-0.146,0.308-0.267c0.075-0.138,0.064-0.304,0.052-0.46
	c-0.1-1.236-0.199-2.471-0.299-3.706c-0.012-0.141-0.033-0.301-0.15-0.381c-0.087-0.062-0.204-0.056-0.308-0.033
	c-0.619,0.138-0.968,0.782-1.475,1.162c-0.534,0.399-1.23,0.495-1.893,0.574c-6.441,0.771-12.916,1.258-19.4,1.457" />
	<path class="st1" d="M104.918,34.422c3.317,0.115,6.637,0.231,9.943,0.535c2.798,0.258,5.797,0.749,7.79,2.73
	c0.209,0.207,0.415,0.454,0.43,0.748c0.027,0.524-0.533,0.865-1.02,1.063c-1.593,0.649-3.267,1.1-4.97,1.336
	c4.15-0.387,8.3-0.773,12.45-1.16c0.981-0.093,1.981-0.189,2.883-0.582c0.903-0.395,2.876-0.941,1.911-2.106
	c-5.105-1.519-10.42-2.338-15.747-2.424" />
	<ellipse class="st3" cx="111.238" cy="37.729" rx="23.814" ry="3.5" />
	<path class="st3" d="M135.052,37.729c0,1.935-10.662,3.5-23.814,3.5c-13.152,0-23.814-1.565-23.814-3.5h0.001v4.404
	c0,1.92,10.664,3.501,23.813,3.501c13.148,0,23.813-1.581,23.813-3.501v-4.404H135.052z" />
	<path class="st0" d="M90.053,30.729c0-1.934,10.662-3.501,23.814-3.501c13.153,0,23.815,1.567,23.815,3.501s-10.662,3.5-23.815,3.5
	C100.715,34.229,90.053,32.663,90.053,30.729" />
	<path class="st3" d="M90.053,30.729c0-1.934,10.662-3.501,23.814-3.501c13.153,0,23.815,1.567,23.815,3.501s-10.662,3.5-23.815,3.5
	C100.715,34.229,90.053,32.663,90.053,30.729z" />
	<path class="st0" d="M137.682,30.729c0,1.934-10.662,3.5-23.814,3.5c-13.153,0-23.815-1.566-23.815-3.5h0.002v4.404
	c0,1.92,10.664,3.501,23.813,3.501c13.148,0,23.813-1.581,23.813-3.501v-4.404H137.682z" />
	<path class="st3" d="M137.682,30.729c0,1.934-10.662,3.5-23.814,3.5c-13.153,0-23.815-1.566-23.815-3.5h0.002v4.404
	c0,1.92,10.664,3.501,23.813,3.501c13.148,0,23.813-1.581,23.813-3.501v-4.404H137.682z" />
	<path class="st1" d="M114.326,33.987c0.757,1.361,0.591,3.18-0.399,4.382c6.568,1.204,13.321,0.062,19.874-1.226
	c1.36-0.267,2.747-0.552,3.947-1.244c0.12-0.068,0.242-0.146,0.308-0.268c0.076-0.137,0.065-0.304,0.052-0.46
	c-0.099-1.236-0.199-2.471-0.299-3.706c-0.011-0.141-0.033-0.3-0.15-0.38c-0.087-0.062-0.204-0.056-0.308-0.034
	c-0.619,0.139-0.967,0.782-1.475,1.162c-0.534,0.4-1.23,0.496-1.892,0.575c-6.442,0.771-12.917,1.258-19.401,1.456" />
	<path class="st1" d="M107.548,27.422c3.317,0.115,6.637,0.23,9.943,0.534c2.798,0.257,5.797,0.749,7.79,2.73
	c0.209,0.208,0.415,0.454,0.43,0.748c0.027,0.524-0.534,0.866-1.021,1.063c-1.592,0.65-3.266,1.101-4.969,1.337
	c4.15-0.388,8.3-0.773,12.45-1.161c0.98-0.093,1.98-0.188,2.883-0.581c0.903-0.395,2.969-1.08,1.911-2.106
	c-5.106-1.52-10.42-2.338-15.747-2.425" />
	<path class="st3" d="M90.053,30.729c0-1.934,10.662-3.501,23.814-3.501c13.153,0,23.815,1.567,23.815,3.501s-10.662,3.5-23.815,3.5
	C100.715,34.229,90.053,32.663,90.053,30.729z" />
	<path class="st3" d="M137.682,30.729c0,1.934-10.662,3.5-23.814,3.5c-13.153,0-23.815-1.566-23.815-3.5h0.002v4.404
	c0,1.92,10.664,3.501,23.813,3.501c13.148,0,23.813-1.581,23.813-3.501v-4.404H137.682z" />
	<path class="st0" d="M85.708,24.123c0-1.934,10.662-3.5,23.814-3.5c13.153,0,23.815,1.566,23.815,3.5s-10.662,3.5-23.815,3.5
	C96.37,27.623,85.708,26.056,85.708,24.123" />
	<path class="st3" d="M85.708,24.123c0-1.934,10.662-3.5,23.814-3.5c13.153,0,23.815,1.566,23.815,3.5s-10.662,3.5-23.815,3.5
	C96.37,27.623,85.708,26.056,85.708,24.123z" />
	<path class="st0" d="M133.337,24.123c0,1.934-10.662,3.5-23.814,3.5c-13.153,0-23.815-1.566-23.815-3.5h0.002v4.404
	c0,1.92,10.664,3.501,23.813,3.501c13.148,0,23.813-1.581,23.813-3.501v-4.404H133.337z" />
	<path class="st3" d="M133.337,24.123c0,1.934-10.662,3.5-23.814,3.5c-13.153,0-23.815-1.566-23.815-3.5h0.002v4.404
	c0,1.92,10.664,3.501,23.813,3.501c13.148,0,23.813-1.581,23.813-3.501v-4.404H133.337z" />
	<path class="st1" d="M109.98,27.381c0.757,1.361,0.591,3.181-0.399,4.383c6.568,1.204,13.32,0.062,19.874-1.227
	c1.36-0.266,2.746-0.551,3.947-1.244c0.119-0.067,0.242-0.146,0.308-0.267c0.075-0.138,0.065-0.304,0.052-0.46
	c-0.1-1.236-0.199-2.471-0.299-3.706c-0.012-0.141-0.033-0.301-0.15-0.381c-0.087-0.062-0.204-0.056-0.308-0.033
	c-0.619,0.138-0.968,0.782-1.475,1.162c-0.534,0.399-1.23,0.495-1.893,0.574c-6.441,0.771-12.916,1.258-19.4,1.457" />
	<path class="st1" d="M103.203,20.815c3.318,0.115,6.637,0.231,9.943,0.535c2.798,0.258,5.797,0.749,7.79,2.73
	c0.209,0.207,0.415,0.454,0.43,0.748c0.027,0.524-0.533,0.865-1.02,1.063c-1.593,0.649-3.267,1.1-4.97,1.336
	c4.15-0.387,8.3-0.773,12.45-1.16c0.981-0.093,1.981-0.189,2.883-0.582c0.903-0.395,1.709-1.143,1.911-2.106
	c-5.105-1.519-10.42-2.338-15.747-2.424" />
	<path class="st3" d="M85.708,24.123c0-1.934,10.662-3.5,23.814-3.5c13.153,0,23.815,1.566,23.815,3.5s-10.662,3.5-23.815,3.5
	C96.37,27.623,85.708,26.056,85.708,24.123z" />
	<path class="st3" d="M133.337,24.123c0,1.934-10.662,3.5-23.814,3.5c-13.153,0-23.815-1.566-23.815-3.5h0.002v4.404
	c0,1.92,10.664,3.501,23.813,3.501c13.148,0,23.813-1.581,23.813-3.501v-4.404H133.337z" />
	<path class="st0" d="M91.341,18.298c0-1.933,10.662-3.5,23.814-3.5c13.153,0,23.814,1.567,23.814,3.5
	c0,1.935-10.661,3.502-23.814,3.502C102.003,21.8,91.341,20.232,91.341,18.298" />
	<path class="st3" d="M91.341,18.298c0-1.933,10.662-3.5,23.814-3.5c13.153,0,23.814,1.567,23.814,3.5
	c0,1.935-10.661,3.502-23.814,3.502C102.003,21.8,91.341,20.232,91.341,18.298z" />
	<path class="st0" d="M138.969,18.298c0,1.935-10.662,3.502-23.814,3.502c-13.152,0-23.814-1.567-23.814-3.502h0.001v4.405
	c0,1.919,10.664,3.5,23.813,3.5c13.148,0,23.813-1.581,23.813-3.5v-4.405H138.969z" />
	<path class="st3" d="M138.969,18.298c0,1.935-10.662,3.502-23.814,3.502c-13.152,0-23.814-1.567-23.814-3.502h0.001v4.405
	c0,1.919,10.664,3.5,23.813,3.5c13.148,0,23.813-1.581,23.813-3.5v-4.405H138.969z" />
	<path class="st1" d="M115.613,21.556c0.757,1.361,0.591,3.18-0.399,4.382c6.568,1.204,13.32,0.062,19.874-1.226
	c1.36-0.267,2.746-0.552,3.947-1.244c0.119-0.068,0.242-0.146,0.308-0.268c0.075-0.137,0.064-0.304,0.052-0.46
	c-0.1-1.236-0.199-2.471-0.299-3.706c-0.012-0.141-0.033-0.3-0.15-0.38c-0.087-0.062-0.204-0.056-0.308-0.034
	c-0.619,0.139-0.968,0.782-1.475,1.162c-0.534,0.4-1.23,0.496-1.893,0.575c-6.441,0.771-12.916,1.258-19.4,1.456" />
	<path class="st1" d="M108.835,14.991c3.317,0.115,6.637,0.23,9.943,0.534c2.798,0.257,5.797,0.749,7.79,2.73
	c0.209,0.208,0.415,0.454,0.43,0.748c0.027,0.524-0.533,0.866-1.02,1.063c-1.593,0.65-3.267,1.101-4.97,1.337
	c4.15-0.388,8.3-0.773,12.45-1.161c0.981-0.093,1.981-0.188,2.883-0.581c0.903-0.395,3.35-1.038,1.911-2.106
	c-5.105-1.52-10.42-2.338-15.747-2.425" />
	<path class="st3" d="M91.341,18.298c0-1.933,10.662-3.5,23.814-3.5c13.153,0,23.814,1.567,23.814,3.5
	c0,1.935-10.661,3.502-23.814,3.502C102.003,21.8,91.341,20.232,91.341,18.298z" />
	<path class="st3" d="M138.969,18.298c0,1.935-10.662,3.502-23.814,3.502c-13.152,0-23.814-1.567-23.814-3.502h0.001v4.405
	c0,1.919,10.664,3.5,23.813,3.5c13.148,0,23.813-1.581,23.813-3.5v-4.405H138.969z" />
	<rect x="120.377" y="53.818" class="st0" width="27.85" height="10.112" />
	<rect x="120.377" y="53.818" class="st3" width="27.85" height="10.112" />
	<path class="st0" d="M148.191,83.246V63.931h-27.778v17.446c0,2.092-0.413,4.179-1.334,6.056c-0.678,1.384-1.668,2.751-3.084,3.465
	h27.333C143.328,90.898,148.191,90.325,148.191,83.246" />
	<path class="st3" d="M148.191,83.246V63.931h-27.778v17.446c0,2.092-0.413,4.179-1.334,6.056c-0.678,1.384-1.668,2.751-3.084,3.465
	h27.333C143.328,90.898,148.191,90.325,148.191,83.246z" />
	<polyline class="st0" points="152.802,50.636 152.684,61.16 148.192,63.931 148.228,53.819 152.802,50.636 123.578,50.636 
	120.378,53.819 148.237,53.819 " />
	<polyline class="st3" points="152.802,50.636 152.684,61.16 148.192,63.931 148.228,53.819 152.802,50.636 123.578,50.636 
	120.378,53.819 148.237,53.819 " />
	<polyline class="st0" points="148.191,63.93 152.683,61.16 152.683,87.588 148.191,90.224 145.434,89.981 " />
	<polyline class="st3" points="148.191,63.93 152.683,61.16 152.683,87.588 148.191,90.224 145.434,89.981 " />
	<rect x="129.009" y="74.032" class="st0" width="10.587" height="9.53" />
	<rect x="129.009" y="74.032" class="st3" width="10.587" height="9.53" />
	<path class="st0" d="M134.303,67.821L134.303,67.821c-2.158,0-3.906,1.748-3.906,3.906v2.306h7.812v-2.306
	C138.209,69.569,136.46,67.821,134.303,67.821" />
	<path class="st3" d="M134.303,67.821L134.303,67.821c-2.158,0-3.906,1.748-3.906,3.906v2.306h7.812v-2.306
	C138.209,69.569,136.46,67.821,134.303,67.821z" />
	<rect x="145.284" y="54.098" class="st1" width="2.617" height="9.753" />
	<path class="st1" d="M145.284,89.902L145.284,89.902c1.445,0,2.617-3.075,2.617-4.521V64.963h-2.617V89.902z" />
	<polygon class="st1" points="152.659,50.967 152.684,87.588 150.677,88.869 150.677,52.236 " />
	<rect x="137.116" y="74.121" class="st1" width="1.982" height="9.356" />
	<rect x="120.623" y="64.209" class="st1" width="27.119" height="1.269" />
	<path class="st1" d="M145.284,82.684c-0.093,2.313-0.412,4.141-1.421,5.905c-0.657,1.151-1.662,2.242-2.975,2.412
	c0.775-0.159,1.582-0.059,2.363-0.178c0.7-0.107,1.372-0.393,1.935-0.822c0.306-0.232,0.587-0.518,0.735-0.874
	c0.124-0.299,0.147-0.63,0.168-0.953c0.118-1.868,0.209-3.737,0.272-5.608" />
	<rect x="120.377" y="53.818" class="st3" width="27.85" height="10.112" />
	<path class="st3" d="M148.191,83.246V63.931h-27.778v17.446c0,2.092-0.413,4.179-1.334,6.056c-0.678,1.384-1.668,2.751-3.084,3.465
	h27.333C143.328,90.898,148.191,90.325,148.191,83.246z" />
	<polyline class="st3" points="152.802,50.636 152.684,61.16 148.192,63.931 148.228,53.819 152.802,50.636 123.578,50.636 
	120.378,53.819 148.237,53.819 " />
	<polyline class="st3" points="148.191,63.93 152.683,61.16 152.683,87.588 148.191,90.224 145.434,89.981 " />
	<rect x="129.009" y="74.032" class="st3" width="10.587" height="9.53" />
	<path class="st3" d="M134.303,67.821L134.303,67.821c-2.158,0-3.906,1.748-3.906,3.906v2.306h7.812v-2.306
	C138.209,69.569,136.46,67.821,134.303,67.821z" />
	<line class="st0" x1="398.062" y1="87.021" x2="422.556" y2="25.585" />
	<line class="st3" x1="398.062" y1="87.021" x2="422.556" y2="25.585" />
	<line class="st0" x1="536.974" y1="87.021" x2="561.468" y2="25.585" />
	<line class="st3" x1="536.974" y1="87.021" x2="561.468" y2="25.585" />
	<line class="st0" x1="187.215" y1="87.021" x2="211.709" y2="25.585" />
	<line class="st3" x1="187.215" y1="87.021" x2="211.709" y2="25.585" />
	<path class="st0" d="M640.379,30.782l-39.873,0.012l26.021,11.51c1.657,0.732,2.725,2.374,2.725,4.185v40.124l11.121,0.025
	c1.682,0.004,3.047-1.358,3.047-3.04V33.822C643.42,32.142,642.058,30.781,640.379,30.782" />
	<path class="st3" d="M640.379,30.782l-39.873,0.012l26.021,11.51c1.657,0.732,2.725,2.374,2.725,4.185v40.124l11.121,0.025
	c1.682,0.004,3.047-1.358,3.047-3.04V33.822C643.42,32.142,642.058,30.781,640.379,30.782z" />
	<path class="st0" d="M600.506,30.794v55.754l21.99,11.912c3.049,1.652,6.756-0.556,6.756-4.023V46.488
	c0-1.811-1.068-3.452-2.725-4.185L600.506,30.794z" />
	<path class="st3" d="M600.506,30.794v55.754l21.99,11.912c3.049,1.652,6.756-0.556,6.756-4.023V46.488
	c0-1.811-1.068-3.452-2.725-4.185L600.506,30.794z" />
	<polygon class="st1" points="612.076,36.054 609.327,35.05 609.222,46.997 611.971,52.284 " />
	<path class="st1" d="M600.506,30.794l26.021,11.51l2.202,1.84l0.523,2.345v40.124h2.172V46.84c0-2.636-1.562-5.441-4.018-6.397
	l-22.149-9.621L600.506,30.794z" />
	<path class="st1"
		d="M640.743,86.644h-1.37c2.442,0,4.421-1.979,4.421-4.421V34.925c0-2.44-1.979-4.421-4.421-4.421h1.37V86.644z" />
	<path class="st3" d="M640.379,30.782l-39.873,0.012l26.021,11.51c1.657,0.732,2.725,2.374,2.725,4.185v40.124l11.121,0.025
	c1.682,0.004,3.047-1.358,3.047-3.04V33.822C643.42,32.142,642.058,30.781,640.379,30.782z" />
	<path class="st3" d="M600.506,30.794v55.754l21.99,11.912c3.049,1.652,6.756-0.556,6.756-4.023V46.488
	c0-1.811-1.068-3.452-2.725-4.185L600.506,30.794z" />
	<polygon class="st3" points="607.001,33.834 607.001,50.645 609.222,46.997 612.076,52.73 612.076,36.055 " />
	<path class="st3" d="M639.036,35.279c0-2.592-6.243-4.27-6.243,2.212v2.512c0,6.479,6.243,4.802,6.243,2.211" />
	<line class="st3" x1="636.36" y1="36.88" x2="630.741" y2="36.88" />
	<line class="st3" x1="636.36" y1="40.768" x2="630.741" y2="40.768" />
	<line class="st3" x1="607.19" y1="55.927" x2="622.409" y2="64.273" />
	<line class="st3" x1="607.19" y1="61.531" x2="622.409" y2="69.877" />
	<path class="st1" d="M505.804,35.866h-61.427c-2.569,0-4.652,2.083-4.652,4.651h70.731
	C510.456,37.949,508.373,35.866,505.804,35.866" />
	<path class="st1" d="M505.986,76.624L505.986,76.624V35.231c2.271,0,4.112,1.842,4.112,4.113v33.168
	C510.098,74.782,508.257,76.624,505.986,76.624" />
	<path class="st2" d="M505.202,76.341h-60.87c-2.638,0-4.776-2.138-4.776-4.773V40.126c0-2.637,2.138-4.773,4.276-4.773h60.87
	c3.137,0,5.274,2.137,5.274,4.773v31.442C509.976,74.204,507.839,76.341,505.202,76.341z" />
	<path class="st2" d="M459.663,51.294c0,3.466-2.809,6.274-6.274,6.274c-3.465,0-6.274-2.809-6.274-6.274
	c0-3.465,2.809-6.273,6.274-6.273C456.854,45.02,459.663,47.829,459.663,51.294z" />
	<line class="st3" x1="477.945" y1="70.952" x2="466.473" y2="70.952" />
	<line class="st3" x1="485.918" y1="70.952" x2="480.017" y2="70.952" />
	<line class="st3" x1="493.794" y1="70.952" x2="487.894" y2="70.952" />
	<line class="st3" x1="505.993" y1="70.952" x2="496.057" y2="70.952" />
	<rect x="466.473" y="52.265" class="st3" width="39.172" height="3.013" />
	<rect x="466.474" y="45.626" class="st3" width="17.813" height="3.014" />
	<rect x="487.831" y="45.626" class="st3" width="17.814" height="3.014" />
	<path class="st3"
		d="M444.904,71.327h16.97c0,0-0.588-10.149-8.486-10.149C445.492,61.177,444.904,71.327,444.904,71.327z" />
</svg>