<svg xmlns="http://www.w3.org/2000/svg" xmlns:xlink="http://www.w3.org/1999/xlink" version="1.1" baseProfile="basic"
    x="0px" y="0px" width="320px" height="218.792px" viewBox="0 0 320 218.792" xml:space="preserve">
    <style type="text/css">
        .st0 {
            fill: none;
        }

        .st1 {
            fill: #F3F7FC;
        }

        .st2 {
            fill: #A1C4E7;
        }

        .st3 {
            fill: none;
            stroke: #F3F7FC;
            stroke-width: 0;
            stroke-linecap: round;
            stroke-linejoin: round;
        }

        .st4 {
            fill: #FFFFFF;
        }

        .st5 {
            fill: #D0E2F3;
        }

        .st6 {
            fill: none;
            stroke: #004B8C;
            stroke-miterlimit: 10;
        }

        .st7 {
            fill: none;
            stroke: #004B8C;
            stroke-linecap: round;
            stroke-linejoin: round;
            stroke-miterlimit: 10;
        }

        .st8 {
            fill: #404040;
        }

        .st9 {
            fill: #E8F0F9;
        }

        .st10 {
            fill-rule: evenodd;
            clip-rule: evenodd;
            fill: #FFFFFF;
        }

        .st11 {
            fill: none;
            stroke: #BFCCD4;
            stroke-linecap: round;
            stroke-miterlimit: 10;
        }

        .st12 {
            fill: none;
            stroke: #D7D7D7;
            stroke-linecap: round;
            stroke-miterlimit: 10;
        }

        .st13 {
            fill: #FFFFFF;
            stroke: #004B8C;
            stroke-linecap: round;
            stroke-linejoin: round;
            stroke-miterlimit: 10;
        }

        .st14 {
            fill: #004B8C;
            stroke: #004B8C;
            stroke-linecap: round;
            stroke-linejoin: round;
            stroke-miterlimit: 10;
        }

        .st15 {
            fill: #004B8C;
        }

        .st16 {
            clip-path: url(#SVGID_2_);
            fill: #D0E2F3;
        }

        .st17 {
            fill: #929292;
        }

        .st18 {
            fill: #922C1C;
        }

        .st19 {
            fill: #E6411A;
        }

        .st20 {
            fill: #003554;
        }

        .st21 {
            fill: none;
            stroke: #FFFFFF;
            stroke-linecap: round;
            stroke-linejoin: round;
            stroke-miterlimit: 10;
        }

        .st22 {
            fill: none;
            stroke: #3A8DFF;
            stroke-linecap: round;
            stroke-linejoin: round;
            stroke-miterlimit: 10;
        }

        .st23 {
            fill: #3A8DFF;
            stroke: #004B8C;
            stroke-linecap: round;
            stroke-linejoin: round;
            stroke-miterlimit: 10;
        }

        .st24 {
            opacity: 0.2;
            fill: #156CC4;
        }

        .st25 {
            fill: #D0E2F3;
            stroke: #004B8C;
            stroke-linecap: round;
            stroke-linejoin: round;
            stroke-miterlimit: 10;
        }

        .st26 {
            fill: none;
            stroke: #D0E2F3;
            stroke-linecap: round;
            stroke-miterlimit: 10;
        }

        .st27 {
            fill: none;
            stroke: #004B8C;
            stroke-width: 0.5;
            stroke-linecap: round;
            stroke-linejoin: round;
            stroke-miterlimit: 10;
        }

        .st28 {
            fill: none;
            stroke: #004B8C;
            stroke-width: 1.75;
            stroke-linecap: round;
            stroke-linejoin: round;
            stroke-miterlimit: 10;
        }

        .st29 {
            fill: #FFFFFF;
            stroke: #004B8C;
            stroke-miterlimit: 10;
        }

        .st30 {
            fill: none;
            stroke: #004B8C;
            stroke-linecap: round;
            stroke-miterlimit: 10;
        }

        .st31 {
            fill: #E8F0F9;
            stroke: #004B8C;
            stroke-linecap: round;
            stroke-linejoin: round;
            stroke-miterlimit: 10;
        }
    </style>
    <g id="Karte">
    </g>
    <g id="Grafik">
        <g>
            <rect x="38.562" y="44.835" class="st4" width="271.499" height="163.663" />
            <path class="st5"
                d="M58.067,45.139l251.994-0.304v163.663l-7.384,0c-0.141-12,5.974-140.523-2.259-153.822    c-1.835-2.965-8.755-2.278-12.712-2.51c-39.532-2.315-236.482-0.545-236.482-0.545" />
            <rect x="38.562" y="44.835" class="st6" width="271.499" height="163.663" />
            <polygon class="st4"
                points="242.292,129.149 244.692,136.532 238.414,131.969 232.132,136.532 234.532,129.149 228.25,124.588     236.01,124.588 238.41,117.205 240.811,124.588 248.574,124.588   " />
            <polygon class="st5"
                points="238.412,117.746 238.942,125.17 242.933,126.137 240.585,128.638 240.66,131.11 238.414,131.969     244.692,136.532 242.292,129.15 248.574,124.588 240.81,124.588   " />
            <polygon class="st7"
                points="242.292,129.149 244.692,136.532 238.414,131.969 232.132,136.532 234.532,129.149 228.25,124.588     236.01,124.588 238.41,117.205 240.811,124.588 248.574,124.588   " />
            <polygon class="st4"
                points="233.656,96.959 236.055,104.341 229.777,99.78 223.495,104.341 225.895,96.959 219.614,92.397     227.374,92.397 229.773,85.015 232.174,92.397 239.937,92.397   " />
            <polygon class="st5"
                points="229.776,85.556 230.306,92.979 234.297,93.948 231.949,96.449 232.025,98.92 229.778,99.78     236.056,104.342 233.656,96.959 239.938,92.398 232.174,92.398   " />
            <polygon class="st7"
                points="233.656,96.959 236.055,104.341 229.777,99.78 223.495,104.341 225.895,96.959 219.614,92.397     227.374,92.397 229.773,85.015 232.174,92.397 239.937,92.397   " />
            <polygon class="st4"
                points="210.233,73.667 212.633,81.049 206.355,76.488 200.073,81.049 202.473,73.667 196.192,69.105     203.952,69.105 206.351,61.723 208.752,69.105 216.515,69.105   " />
            <polygon class="st5"
                points="206.353,62.264 206.883,69.687 210.874,70.656 208.526,73.157 208.602,75.628 206.355,76.488     212.633,81.05 210.233,73.667 216.515,69.106 208.751,69.106   " />
            <polygon class="st7"
                points="210.233,73.667 212.633,81.049 206.355,76.488 200.073,81.049 202.473,73.667 196.192,69.105     203.952,69.105 206.351,61.723 208.752,69.105 216.515,69.105   " />
            <polygon class="st4"
                points="178.043,64.9 180.442,72.282 174.164,67.72 167.882,72.282 170.283,64.9 164.001,60.338     171.761,60.338 174.161,52.956 176.562,60.338 184.324,60.338   " />
            <polygon class="st5"
                points="174.162,53.497 174.692,60.92 178.683,61.888 176.335,64.389 176.411,66.86 174.164,67.72     180.442,72.282 178.043,64.9 184.324,60.338 176.561,60.338   " />
            <polygon class="st7"
                points="178.043,64.9 180.442,72.282 174.164,67.72 167.882,72.282 170.283,64.9 164.001,60.338     171.761,60.338 174.161,52.956 176.562,60.338 184.324,60.338   " />
            <polygon class="st4"
                points="146.245,73.667 148.645,81.049 142.367,76.488 136.085,81.049 138.485,73.667 132.203,69.105     139.963,69.105 142.363,61.723 144.764,69.105 152.527,69.105   " />
            <polygon class="st5"
                points="142.365,62.264 142.895,69.687 146.886,70.656 144.537,73.157 144.613,75.628 142.366,76.488     148.645,81.05 146.245,73.667 152.527,69.106 144.763,69.106   " />
            <polygon class="st7"
                points="146.245,73.667 148.645,81.049 142.367,76.488 136.085,81.049 138.485,73.667 132.203,69.105     139.963,69.105 142.363,61.723 144.764,69.105 152.527,69.105   " />
            <polygon class="st4"
                points="122.692,97.09 125.092,104.472 118.814,99.911 112.532,104.472 114.932,97.09 108.65,92.528     116.41,92.528 118.81,85.146 121.211,92.528 128.974,92.528   " />
            <polygon class="st5"
                points="118.811,85.687 119.341,93.11 123.332,94.078 120.984,96.579 121.06,99.051 118.813,99.91     125.091,104.472 122.691,97.09 128.973,92.529 121.21,92.529   " />
            <polygon class="st7"
                points="122.692,97.09 125.092,104.472 118.814,99.911 112.532,104.472 114.932,97.09 108.65,92.528     116.41,92.528 118.81,85.146 121.211,92.528 128.974,92.528   " />
            <polygon class="st4"
                points="114.055,129.018 116.455,136.401 110.177,131.839 103.895,136.401 106.295,129.018 100.013,124.457     107.773,124.457 110.173,117.074 112.574,124.457 120.337,124.457   " />
            <polygon class="st5"
                points="110.175,117.615 110.705,125.039 114.696,126.007 112.348,128.508 112.424,130.979 110.177,131.839     116.455,136.401 114.055,129.019 120.337,124.457 112.573,124.457   " />
            <polygon class="st7"
                points="114.055,129.018 116.455,136.401 110.177,131.839 103.895,136.401 106.295,129.018 100.013,124.457     107.773,124.457 110.173,117.074 112.574,124.457 120.337,124.457   " />
            <polygon class="st4"
                points="122.698,161.394 125.098,168.776 118.82,164.214 112.538,168.776 114.938,161.394 108.656,156.832     116.416,156.832 118.816,149.45 121.217,156.832 128.98,156.832   " />
            <polygon class="st5"
                points="118.818,149.991 119.348,157.414 123.339,158.382 120.991,160.883 121.067,163.354 118.82,164.214     125.098,168.776 122.698,161.394 128.98,156.832 121.216,156.832   " />
            <polygon class="st7"
                points="122.698,161.394 125.098,168.776 118.82,164.214 112.538,168.776 114.938,161.394 108.656,156.832     116.416,156.832 118.816,149.45 121.217,156.832 128.98,156.832   " />
            <polygon class="st4"
                points="146.121,183.246 148.521,190.629 142.243,186.067 135.961,190.629 138.361,183.246 132.079,178.685     139.839,178.685 142.239,171.303 144.64,178.685 152.403,178.685   " />
            <polygon class="st5"
                points="142.241,171.844 142.771,179.267 146.762,180.235 144.414,182.736 144.49,185.207 142.243,186.067     148.521,190.629 146.121,183.247 152.403,178.685 144.639,178.685   " />
            <polygon class="st7"
                points="146.121,183.246 148.521,190.629 142.243,186.067 135.961,190.629 138.361,183.246 132.079,178.685     139.839,178.685 142.239,171.303 144.64,178.685 152.403,178.685   " />
            <polygon class="st4"
                points="178.18,192.799 180.58,200.181 174.302,195.619 168.02,200.181 170.42,192.799 164.138,188.237     171.899,188.237 174.298,180.855 176.699,188.237 184.462,188.237   " />
            <polygon class="st5"
                points="174.3,181.396 174.83,188.819 178.821,189.787 176.473,192.288 176.549,194.759 174.302,195.619     180.58,200.181 178.18,192.799 184.462,188.237 176.698,188.237   " />
            <polygon class="st7"
                points="178.18,192.799 180.58,200.181 174.302,195.619 168.02,200.181 170.42,192.799 164.138,188.237     171.899,188.237 174.298,180.855 176.699,188.237 184.462,188.237   " />
            <polygon class="st4"
                points="210.37,183.115 212.77,190.498 206.492,185.936 200.21,190.498 202.61,183.115 196.328,178.554     204.088,178.554 206.488,171.172 208.889,178.554 216.652,178.554   " />
            <polygon class="st5"
                points="206.49,171.713 207.02,179.136 211.011,180.104 208.663,182.605 208.738,185.076 206.492,185.936     212.77,190.498 210.37,183.116 216.652,178.554 208.888,178.554   " />
            <polygon class="st7"
                points="210.37,183.115 212.77,190.498 206.492,185.936 200.21,190.498 202.61,183.115 196.328,178.554     204.088,178.554 206.488,171.172 208.889,178.554 216.652,178.554   " />
            <polygon class="st4"
                points="233.662,161.263 236.062,168.645 229.784,164.083 223.502,168.645 225.902,161.263 219.62,156.701     227.38,156.701 229.78,149.319 232.181,156.701 239.944,156.701   " />
            <polygon class="st5"
                points="229.782,149.86 230.312,157.283 234.303,158.251 231.955,160.752 232.03,163.223 229.784,164.083     236.062,168.645 233.662,161.263 239.944,156.701 232.18,156.701   " />
            <polygon class="st7"
                points="233.662,161.263 236.062,168.645 229.784,164.083 223.502,168.645 225.902,161.263 219.62,156.701     227.38,156.701 229.78,149.319 232.181,156.701 239.944,156.701   " />
            <path class="st4"
                d="M212.107,138.826c-0.209-1.762-0.639-3.523-1.244-5.206c-0.297-0.863-0.604-1.613-0.885-2.162    c-0.004-0.006-0.007-0.011-0.01-0.017c-0.818-1.741-1.814-3.337-2.925-4.672c-1.564-1.883-3.466-3.708-5.313-5.2    c-0.187-0.172-0.365-0.338-0.557-0.515c-0.544-0.502-1.245-0.92-1.953-1.318c-0.528-0.341-1.027-0.629-1.497-0.869    c-0.045-0.028-0.097-0.055-0.141-0.085c-0.071-0.045-0.177-0.105-0.289-0.146c0.1-0.161,0.19-0.31,0.286-0.464    c0.144-0.186,0.28-0.379,0.408-0.571c0.539-0.81,1.042-1.645,1.507-2.5c0.404-0.744,0.992-1.621,0.896-2.462    c-0.001-0.003,0-0.007,0-0.01c0.007-0.045,0.009-0.085,0.013-0.127c0.041-0.229,0.142-0.592-0.2-0.701l-0.006-0.002    c-0.283-0.25-0.836-0.269-1.592-0.196c-1.115,0.019-2.329,0.28-3.631,0.42c-0.656,0.045-1.348,0.065-2.071,0.03    c-0.619-0.029-1.133-0.007-1.572,0.05c-0.017,0.001-0.031,0-0.048,0.001l-0.097,0.017c-0.077,0.013-0.151,0.026-0.223,0.041    l-0.128,0.023c0,0-0.439,0.01-0.789,0.166c-0.233-1.143-0.559-2.271-0.954-3.368c-0.297-0.865-0.603-1.615-0.885-2.164    c-0.003-0.006-0.007-0.012-0.01-0.018c-0.819-1.74-1.815-3.336-2.924-4.671c-1.565-1.883-3.468-3.709-5.314-5.201    c-0.187-0.171-0.366-0.337-0.556-0.514c-0.545-0.503-1.246-0.92-1.954-1.319c-0.529-0.34-1.027-0.628-1.496-0.867    c-0.045-0.029-0.098-0.056-0.142-0.085c-0.07-0.047-0.177-0.106-0.289-0.147c0.1-0.161,0.19-0.309,0.285-0.464    c0.145-0.186,0.28-0.379,0.408-0.571c0.54-0.81,1.043-1.645,1.508-2.5c0.404-0.744,0.992-1.62,0.896-2.462    c0-0.003,0.001-0.008,0.001-0.011c0.006-0.045,0.008-0.084,0.012-0.125c0.04-0.229,0.143-0.593-0.2-0.703    c-0.003,0-0.005-0.001-0.007-0.001c-0.283-0.251-0.835-0.27-1.59-0.196c-1.116,0.019-2.33,0.28-3.632,0.42    c-0.656,0.045-1.348,0.065-2.071,0.03c-0.619-0.029-1.133-0.007-1.572,0.05c-0.017,0.001-0.031,0.001-0.049,0.001l-0.096,0.018    c-0.078,0.011-0.151,0.026-0.223,0.04l-0.128,0.023c0,0-0.932,0.012-1.158,0.482c-0.048,0.1-0.086,0.189-0.12,0.276    c-0.18,0.273-0.237,0.594-0.209,0.942c0,0.002,0,0.003,0,0.004c-0.001,0.004,0.002,0.013,0.002,0.017    c0.182,2.027,3.297,4.976,3.297,4.976c-0.17,0.078-0.33,0.16-0.497,0.239c-0.006,0-0.013,0.002-0.02,0.002    c-0.127,0-0.254,0.089-0.378,0.189c-1.428,0.699-2.735,1.458-3.917,2.269l-0.002,0.001v0.001    c-6.023,4.136-8.947,9.569-9.869,14.705c-0.888,0.088-1.833,0.267-2.828,0.374c-0.656,0.045-1.348,0.065-2.071,0.03    c-0.619-0.029-1.133-0.007-1.572,0.05c-0.017,0.001-0.031,0-0.049,0.001l-0.096,0.017c-0.077,0.013-0.151,0.026-0.223,0.041    l-0.127,0.023c0,0-0.933,0.012-1.159,0.482c-0.048,0.1-0.086,0.189-0.121,0.276c-0.179,0.273-0.236,0.594-0.208,0.943    c0,0.001,0,0.002,0,0.003c-0.001,0.004,0.002,0.013,0.002,0.017c0.182,2.026,3.297,4.977,3.297,4.977    c-0.17,0.077-0.33,0.159-0.497,0.238c-0.007,0-0.013,0.002-0.02,0.002c-0.127,0-0.254,0.089-0.378,0.189    c-1.428,0.699-2.736,1.458-3.917,2.269l-0.003,0.001c0.001,0,0.001,0,0.001,0.001c-9.93,6.82-11.435,17.16-9.436,23.889    c3.826,12.879,25.336,16.041,32.403,2.286c0.629-1.225,1.035-2.561,1.256-3.957c0.337-1.427,0.297-3.195,0.051-4.976    c-0.209-1.761-0.639-3.521-1.244-5.203c-0.296-0.864-0.603-1.615-0.885-2.164c-0.003-0.007-0.007-0.011-0.01-0.018    c-0.015-0.031-0.029-0.062-0.044-0.094c3.66,0.993,7.655,0.973,11.276-0.217c-2.327,5.058-2.383,10.34-1.194,14.343    c3.826,12.879,25.336,16.041,32.403,2.286c0.629-1.225,1.035-2.561,1.256-3.957C212.393,142.375,212.353,140.607,212.107,138.826     M192.13,119.123c-0.127,0-0.254,0.089-0.378,0.189c-0.577,0.283-1.14,0.573-1.676,0.875c0.079-0.339,0.155-0.678,0.21-1.025    c0.192-0.814,0.262-1.738,0.241-2.714c0.949,1.325,2.12,2.435,2.12,2.435c-0.17,0.077-0.33,0.159-0.497,0.238    C192.143,119.121,192.137,119.123,192.13,119.123 M156.043,118.073c0.038,0.279,0.081,0.554,0.129,0.825    c-0.019-0.01-0.038-0.02-0.057-0.03c-0.046-0.029-0.098-0.056-0.142-0.086c-0.071-0.045-0.177-0.105-0.289-0.146    c0.1-0.161,0.19-0.309,0.285-0.464C155.995,118.139,156.018,118.106,156.043,118.073" />
            <path class="st4"
                d="M169.191,147.58c3.268-6.359,0.636-15.704-3.756-20.989c-2.93-3.523-7.049-6.89-9.755-8.127    c6.348-10.201,2.083-6.279-4.385-6.588c-7.874-0.376-0.257,6.829-0.257,6.829c-14.24,6.475-16.536,18.895-14.25,26.59    C140.614,158.174,162.124,161.336,169.191,147.58" />
            <path class="st5"
                d="M149.226,112.008c0,0-0.933,0.012-1.158,0.482c-0.217,0.451-0.281,0.725-0.33,1.222    c-0.013,0.138,0.158,0.554,0.216,0.68c0.083,0.183,0.289,0.274,0.482,0.327c1.528,0.428,3.084-0.455,4.653-0.69    c0.366-0.054,0.768-0.065,1.075,0.141c0.426,0.286,0.51,0.87,0.531,1.382c0.048,1.206-0.038,2.418-0.258,3.605    c0.858-0.227,1.448-0.995,1.94-1.733c0.539-0.811,1.042-1.645,1.507-2.5c0.405-0.745,0.992-1.621,0.896-2.462    c-0.02-0.178,0.236-0.704-0.187-0.839c-1.523-0.486-3.292,0.018-5.257,0.226c-1.59,0.167-2.065,0.024-3.663,0.078" />
            <path class="st5"
                d="M146.223,121.405c2.142,0.924,4.334,1.552,6.666,1.465c0.751-0.028,1.499-0.163,2.251-0.135    c2.868,0.104,7.747,7.302,8.692,13.678c0.814,5.486-1.505,15.305-14.069,19.618c3.664,0.876,6.818,0.126,8.597-0.307    c9.001-2.191,10.916-8.61,11.908-11.465c1.275-3.667-0.587-10.424-1.899-12.979c-2.305-4.483-5.102-6.981-8.805-10.403    c-0.981-0.907-2.473-1.539-3.591-2.271c-0.159-0.104-0.491-0.288-0.692-0.135c-1.11,0.851-2.691,1.038-3.969,0.47    c-0.243-0.108-0.525,0.004-0.791,0.005c-0.237,0-0.476,0.309-0.685,0.42c-1.095,0.585-2.058,0.87-2.959,1.724L146.223,121.405z" />
            <path class="st7" d="M151.038,118.705c0,0,1.154,1.773,4.642-0.241" />
            <path class="st7" d="M153.359,119.426c0,0,3.105,1.497,5.001,4.781" />
            <path class="st7" d="M152.183,119.366c0,0-0.619,1.379-0.785,4.077" />
            <path class="st7"
                d="M158.406,134.078c-0.058-2.561-8.003-4.041-7.859,2.362l0.055,2.481c0.144,6.403,8.015,4.568,7.958,2.007" />
            <line class="st7" x1="155.051" y1="135.736" x2="147.933" y2="135.896" />
            <line class="st7" x1="155.138" y1="139.577" x2="148.02" y2="139.738" />
            <path class="st7"
                d="M169.191,147.58c3.268-6.359,0.636-15.704-3.756-20.989c-2.93-3.523-7.049-6.89-9.755-8.127    c6.348-10.201,2.083-6.279-4.385-6.588c-7.874-0.376-0.257,6.829-0.257,6.829c-14.24,6.475-16.536,18.895-14.25,26.59    C140.614,158.174,162.124,161.336,169.191,147.58z" />
            <path class="st4"
                d="M210.8,147.58c3.267-6.359,0.636-15.704-3.757-20.989c-2.93-3.523-7.048-6.89-9.754-8.127    c6.348-10.201,2.082-6.279-4.386-6.588c-7.874-0.376-0.256,6.829-0.256,6.829c-14.241,6.475-16.536,18.895-14.25,26.59    C182.223,158.174,203.733,161.336,210.8,147.58" />
            <path class="st5"
                d="M190.835,112.008c0,0-0.933,0.012-1.158,0.482c-0.217,0.451-0.281,0.725-0.33,1.222    c-0.013,0.138,0.159,0.554,0.216,0.68c0.084,0.183,0.289,0.274,0.482,0.327c1.528,0.428,3.084-0.455,4.652-0.69    c0.367-0.054,0.769-0.065,1.076,0.141c0.426,0.286,0.51,0.87,0.531,1.382c0.049,1.206-0.038,2.418-0.257,3.605    c0.857-0.227,1.447-0.995,1.939-1.733c0.539-0.811,1.042-1.645,1.507-2.5c0.405-0.745,0.992-1.621,0.897-2.462    c-0.021-0.178,0.235-0.704-0.188-0.839c-1.523-0.486-3.292,0.018-5.257,0.226c-1.589,0.167-2.065,0.024-3.663,0.078" />
            <path class="st5"
                d="M187.832,121.405c2.142,0.924,4.334,1.552,6.665,1.465c0.752-0.028,1.499-0.163,2.251-0.135    c2.868,0.104,7.747,7.302,8.693,13.678c0.814,5.486-1.505,15.305-14.07,19.618c3.665,0.876,6.819,0.126,8.598-0.307    c9.001-2.191,10.916-8.61,11.908-11.465c1.275-3.667-0.587-10.424-1.899-12.979c-2.305-4.483-5.102-6.981-8.805-10.403    c-0.981-0.907-2.474-1.539-3.592-2.271c-0.158-0.104-0.49-0.288-0.691-0.135c-1.111,0.851-2.692,1.038-3.969,0.47    c-0.243-0.108-0.526,0.004-0.791,0.005c-0.237,0-0.476,0.309-0.686,0.42c-1.094,0.585-2.057,0.87-2.958,1.724L187.832,121.405z" />
            <path class="st7" d="M192.647,118.705c0,0,1.154,1.773,4.643-0.241" />
            <path class="st7" d="M194.968,119.426c0,0,3.105,1.497,5.001,4.781" />
            <path class="st7" d="M193.792,119.366c0,0-0.618,1.379-0.785,4.077" />
            <path class="st7"
                d="M200.015,134.078c-0.058-2.561-8.004-4.041-7.86,2.362l0.056,2.481c0.144,6.403,8.015,4.568,7.957,2.007" />
            <line class="st7" x1="196.66" y1="135.736" x2="189.543" y2="135.896" />
            <line class="st7" x1="196.747" y1="139.577" x2="189.629" y2="139.738" />
            <path class="st7"
                d="M210.8,147.58c3.267-6.359,0.636-15.704-3.757-20.989c-2.93-3.523-7.048-6.89-9.754-8.127    c6.348-10.201,2.082-6.279-4.386-6.588c-7.874-0.376-0.256,6.829-0.256,6.829c-14.241,6.475-16.536,18.895-14.25,26.59    C182.223,158.174,203.733,161.336,210.8,147.58z" />
            <path class="st4"
                d="M189.029,122.941c3.268-6.359,0.637-15.704-3.756-20.988c-2.93-3.524-7.049-6.89-9.755-8.128    c6.349-10.201,2.083-6.279-4.385-6.588c-7.874-0.376-0.256,6.829-0.256,6.829c-14.241,6.475-16.537,18.895-14.251,26.59    C160.452,133.535,181.963,136.697,189.029,122.941" />
            <path class="st5"
                d="M169.064,87.368c0,0-0.932,0.012-1.158,0.482c-0.217,0.451-0.281,0.725-0.33,1.223    c-0.013,0.137,0.158,0.553,0.216,0.679c0.084,0.183,0.289,0.274,0.482,0.328c1.528,0.427,3.084-0.455,4.653-0.69    c0.366-0.055,0.768-0.066,1.075,0.14c0.427,0.286,0.511,0.87,0.531,1.382c0.048,1.207-0.038,2.418-0.258,3.606    c0.858-0.228,1.449-0.995,1.94-1.734c0.54-0.811,1.043-1.645,1.508-2.5c0.404-0.745,0.992-1.621,0.895-2.462    c-0.019-0.178,0.237-0.704-0.186-0.839c-1.524-0.485-3.292,0.019-5.257,0.226c-1.591,0.167-2.066,0.024-3.664,0.078" />
            <path class="st5"
                d="M166.061,96.765c2.142,0.924,4.334,1.552,6.666,1.465c0.751-0.028,1.499-0.163,2.251-0.135    c2.868,0.104,7.747,7.302,8.692,13.678c0.814,5.486-1.505,15.305-14.069,19.618c3.664,0.876,6.818,0.127,8.597-0.306    c9.001-2.192,10.915-8.611,11.908-11.466c1.275-3.667-0.587-10.424-1.9-12.979c-2.304-4.483-5.102-6.981-8.804-10.402    c-0.981-0.908-2.473-1.54-3.591-2.272c-0.16-0.104-0.492-0.288-0.692-0.134c-1.11,0.85-2.691,1.037-3.97,0.469    c-0.243-0.108-0.524,0.005-0.79,0.005c-0.237,0-0.476,0.309-0.685,0.421c-1.096,0.584-2.058,0.869-2.959,1.724L166.061,96.765z" />
            <path class="st7" d="M170.876,94.066c0,0,1.153,1.773,4.642-0.241" />
            <path class="st7" d="M173.197,94.787c0,0,3.105,1.497,5.002,4.781" />
            <path class="st7" d="M172.022,94.727c0,0-0.619,1.378-0.785,4.077" />
            <path class="st7"
                d="M178.243,109.439c-0.058-2.561-8.003-4.041-7.859,2.362l0.055,2.482c0.144,6.402,8.016,4.567,7.958,2.006" />
            <line class="st7" x1="174.89" y1="111.097" x2="167.772" y2="111.257" />
            <line class="st7" x1="174.976" y1="114.938" x2="167.858" y2="115.098" />
            <path class="st7"
                d="M189.029,122.941c3.268-6.359,0.637-15.704-3.756-20.988c-2.93-3.524-7.049-6.89-9.755-8.128    c6.349-10.201,2.083-6.279-4.385-6.588c-7.874-0.376-0.256,6.829-0.256,6.829c-14.241,6.475-16.537,18.895-14.251,26.59    C160.452,133.535,181.963,136.697,189.029,122.941z" />
            <path class="st5"
                d="M54.292,32.074c0,7.697-2.818,13.453-5.193,16.931c-2.602,3.814-6.061,6.869-8.821,7.786    c-0.079,0.03-0.157,0.039-0.236,0.039c3.399-22.046,0-30.009,0-30.009c0.138,0,0.285,0.04,0.414,0.128    c2.227,1.479,8.869,4.376,13.087,4.376C53.957,31.325,54.292,31.66,54.292,32.074" />
            <path class="st9"
                d="M9.939,40.853c0-17.055,13.826-30.881,30.881-30.881s30.881,13.826,30.881,30.881    c0,17.055-13.826,30.881-30.881,30.881S9.939,57.908,9.939,40.853" />
            <path class="st5"
                d="M53.544,31.325c-4.218,0-10.861-2.897-13.088-4.375c-0.128-0.089-0.276-0.129-0.414-0.129    c0,0,3.4,7.963,0,30.009c0.079,0,0.158-0.009,0.236-0.039c2.76-0.917,6.219-3.972,8.821-7.786    c2.375-3.478,5.194-9.234,5.194-16.931C54.293,31.66,53.958,31.325,53.544,31.325" />
            <polyline class="st7" points="35.173,41.56 38.562,44.836 46.505,36.871   " />
            <path class="st6"
                d="M40.037,56.834c-0.08,0-0.161-0.014-0.237-0.039c-2.76-0.92-6.223-3.979-8.824-7.793    c-2.37-3.476-5.196-9.235-5.196-16.931c0-0.414,0.337-0.751,0.751-0.751c4.223,0,10.862-2.89,13.09-4.376    c0.252-0.168,0.581-0.168,0.833,0c2.229,1.486,8.868,4.376,13.091,4.376c0.414,0,0.75,0.337,0.75,0.751    c0,7.696-2.825,13.453-5.195,16.931c-2.601,3.813-6.064,6.873-8.824,7.793C40.199,56.821,40.118,56.834,40.037,56.834    L40.037,56.834z" />
        </g>
    </g>
    <g id="Text">
    </g>
</svg>