<?xml version="1.0" encoding="utf-8"?>
<!-- Generator: Adobe Illustrator 25.2.0, SVG Export Plug-In . SVG Version: 6.00 Build 0)  -->
<svg version="1.1" baseProfile="basic" id="Grafik" xmlns="http://www.w3.org/2000/svg" xmlns:xlink="http://www.w3.org/1999/xlink" x="0px" y="0px" width="750px" height="194.004px" viewBox="0 0 750 194.004" xml:space="preserve">
	<style type="text/css">
	.st0{fill:#FFFFFF;}
	.st1{fill:#D0E2F3;}
	.st2{fill:none;stroke:#004B8C;stroke-miterlimit:10;}
	.st3{fill:none;stroke:#004B8C;stroke-linecap:round;stroke-linejoin:round;stroke-miterlimit:10;}
	.st4{fill:#404040;}
	.st5{fill:#E8F0F9;}
	.st6{fill-rule:evenodd;clip-rule:evenodd;fill:#FFFFFF;}
	.st7{fill:#004B8C;}
	.st8{fill:#E6411A;}
	.st9{fill:#003554;}
	.st10{clip-path:url(#SVGID_2_);fill:#D0E2F3;}
	.st11{fill:none;stroke:#3A8DFF;stroke-linecap:round;stroke-linejoin:round;stroke-miterlimit:10;}
	.st12{fill:#3A8DFF;}
	.st13{opacity:0.2;}
	.st14{clip-path:url(#SVGID_4_);fill:#156CC4;}
	.st15{clip-path:url(#SVGID_6_);fill:#156CC4;}
	.st16{clip-path:url(#SVGID_8_);fill:#156CC4;}
	.st17{clip-path:url(#SVGID_10_);fill:#156CC4;}
	.st18{clip-path:url(#SVGID_12_);fill:#156CC4;}
	.st19{clip-path:url(#SVGID_14_);fill:#156CC4;}
	.st20{clip-path:url(#SVGID_16_);fill:#156CC4;}
	.st21{clip-path:url(#SVGID_18_);fill:#156CC4;}
	.st22{clip-path:url(#SVGID_20_);fill:#156CC4;}
	.st23{clip-path:url(#SVGID_22_);fill:#156CC4;}
	.st24{clip-path:url(#SVGID_24_);fill:#156CC4;}
	.st25{clip-path:url(#SVGID_26_);fill:#156CC4;}
	.st26{clip-path:url(#SVGID_28_);fill:#156CC4;}
	.st27{clip-path:url(#SVGID_30_);fill:#156CC4;}
	.st28{clip-path:url(#SVGID_32_);fill:#156CC4;}
	.st29{clip-path:url(#SVGID_34_);fill:#156CC4;}
	.st30{clip-path:url(#SVGID_36_);fill:#156CC4;}
	.st31{clip-path:url(#SVGID_38_);fill:#156CC4;}
	.st32{clip-path:url(#SVGID_40_);fill:#156CC4;}
	.st33{clip-path:url(#SVGID_42_);fill:#156CC4;}
	.st34{clip-path:url(#SVGID_44_);fill:#156CC4;}
	.st35{clip-path:url(#SVGID_46_);fill:#156CC4;}
	.st36{clip-path:url(#SVGID_48_);fill:#156CC4;}
	.st37{clip-path:url(#SVGID_50_);fill:#156CC4;}
	.st38{clip-path:url(#SVGID_52_);fill:#156CC4;}
	.st39{clip-path:url(#SVGID_54_);fill:#156CC4;}
	.st40{clip-path:url(#SVGID_56_);fill:#156CC4;}
	.st41{clip-path:url(#SVGID_58_);fill:#156CC4;}
	.st42{fill:none;stroke:#D7D7D7;stroke-linecap:round;stroke-miterlimit:10;}
	.st43{fill:none;stroke:#004B8C;stroke-width:0.5;stroke-linecap:round;stroke-linejoin:round;stroke-miterlimit:10;}
	.st44{fill:none;stroke:#004B8C;stroke-width:1.75;stroke-linecap:round;stroke-linejoin:round;stroke-miterlimit:10;}
	.st45{fill:none;stroke:#004B8C;stroke-linecap:round;stroke-miterlimit:10;}
	.st46{fill:none;stroke:#BFCCD4;stroke-linecap:round;stroke-miterlimit:10;}
	.st47{fill:#FFFFFF;stroke:#004B8C;stroke-linecap:round;stroke-linejoin:round;stroke-miterlimit:10;}
	.st48{fill:#004B8C;stroke:#004B8C;stroke-linecap:round;stroke-linejoin:round;stroke-miterlimit:10;}
	.st49{clip-path:url(#SVGID_60_);fill:#D0E2F3;}
	.st50{fill:none;}
	.st51{fill:#929292;}
	.st52{fill:#922C1C;}
	.st53{fill:#F3F7FC;}
	.st54{fill:#A1C4E7;}
	.st55{fill:none;stroke:#F3F7FC;stroke-width:0;stroke-linecap:round;stroke-linejoin:round;}
</style>
	<path class="st0" d="M180.059,67.866c2.509-4.52,3.697-9.868,2.861-14.97c-0.705,1.532-1.598,2.977-2.652,4.293
	c-1.533-1.427-3.247-2.66-5.089-3.658c1.705-0.999,2.928-2.655,3.873-4.391c1.239-2.277,2.084-5.004,1.221-7.45
	c-4.646-0.233-8.914-2.968-11.833-6.589c-0.761-0.943-1.448-1.956-1.931-3.067c-1.639-3.773-0.54-8.555,2.582-11.233l4.489-0.253
	c-5.984,7.764,2.988,11.013,5.522,11.03c0.609-2.226,4.338-5.739,4.338-5.739c-1.402-0.788-2.706-1.752-3.869-2.864
	c0.874,0.104,1.747,0.208,2.62,0.311c0.339,0.04,0.706,0.075,0.999-0.1c0.303-0.179,0.452-0.555,0.435-0.908
	c-0.018-0.352-0.178-0.683-0.374-0.976c-0.379-0.564-0.919-1.033-1.561-1.256c-0.641-0.225-1.631-0.311-2.21,0.044
	c-0.148-0.229-0.295-0.456-0.442-0.684c-0.275-0.427-0.563-0.907-0.479-1.408c0.094-0.569,0.638-0.953,1.178-1.155
	c1.082-0.405,2.334-0.328,3.358,0.205c0.158-0.417,0.604-0.67,1.046-0.728c0.443-0.057,0.889,0.045,1.323,0.147
	c0.521,0.122,1.043,0.243,1.564,0.365c0.618,0.144,1.256,0.29,1.882,0.182c0.444-0.078,0.855-0.278,1.259-0.476l-1.186,1.539
	c0.26,0.534,0.48,1.088,0.656,1.656c0.137,0.442,0.248,0.901,0.23,1.365c-0.016,0.42-0.138,0.828-0.259,1.232
	c-0.271,0.904-0.542,1.808-0.814,2.713c-0.274,0.914-0.551,1.852-0.481,2.803c0.101,1.383,0.862,2.568,1.649,3.708
	c2.533-0.016,11.505-3.264,5.521-11.03l4.489,0.253c3.122,2.679,4.221,7.46,2.582,11.233c-0.483,1.112-1.17,2.124-1.931,3.069
	c-2.919,3.621-7.188,6.354-11.833,6.589c-0.863,2.445-0.018,5.171,1.221,7.449c0.945,1.736,2.168,3.391,3.873,4.39
	c-1.842,0.999-3.557,2.231-5.09,3.659c-1.053-1.316-1.946-2.761-2.652-4.293c-0.835,5.102,0.352,10.45,2.862,14.97l-2.754,0.72
	l-1.001-2.602h-1.247l-1.001,2.602L180.059,67.866z" />
	<polyline class="st0" points="591.842,133.359 529.558,133.359 529.558,30.741 610.646,30.741 610.646,133.359 602.835,133.359 " />
	<g>
		<path class="st4" d="M158.118,160.251c0,0.943-0.342,1.678-1.025,2.205s-1.611,0.791-2.783,0.791c-1.27,0-2.246-0.163-2.93-0.49
		v-1.201c0.439,0.186,0.918,0.332,1.436,0.439s1.03,0.16,1.538,0.16c0.83,0,1.455-0.157,1.875-0.472
		c0.42-0.315,0.63-0.753,0.63-1.315c0-0.37-0.075-0.675-0.224-0.911c-0.149-0.237-0.398-0.455-0.747-0.655s-0.88-0.428-1.593-0.682
		c-0.996-0.356-1.708-0.778-2.135-1.268c-0.428-0.487-0.641-1.125-0.641-1.911c0-0.825,0.31-1.481,0.93-1.97s1.44-0.732,2.461-0.732
		c1.064,0,2.043,0.195,2.937,0.586l-0.388,1.084c-0.884-0.371-1.743-0.557-2.578-0.557c-0.659,0-1.174,0.142-1.545,0.424
		c-0.371,0.284-0.557,0.677-0.557,1.18c0,0.371,0.068,0.675,0.205,0.912c0.137,0.236,0.367,0.454,0.692,0.651
		c0.325,0.198,0.822,0.417,1.491,0.655c1.123,0.401,1.896,0.831,2.318,1.289C157.906,158.924,158.118,159.519,158.118,160.251z" />
		<path class="st4" d="M162.717,162.244c0.215,0,0.422-0.016,0.623-0.047c0.2-0.032,0.359-0.064,0.476-0.1v0.931
		c-0.132,0.063-0.326,0.116-0.582,0.157c-0.257,0.042-0.487,0.062-0.692,0.062c-1.553,0-2.329-0.817-2.329-2.453v-4.775h-1.15
		v-0.586l1.15-0.506l0.513-1.714h0.703v1.86h2.329v0.945h-2.329v4.724c0,0.483,0.115,0.854,0.344,1.113
		S162.317,162.244,162.717,162.244z" />
		<path class="st4" d="M170.356,163.101l-0.242-1.143h-0.059c-0.4,0.503-0.8,0.844-1.198,1.021c-0.398,0.179-0.895,0.268-1.49,0.268
		c-0.796,0-1.42-0.205-1.871-0.615c-0.452-0.41-0.678-0.993-0.678-1.75c0-1.621,1.296-2.471,3.889-2.549l1.362-0.045v-0.498
		c0-0.629-0.135-1.095-0.407-1.395c-0.271-0.301-0.704-0.451-1.3-0.451c-0.669,0-1.426,0.205-2.271,0.615l-0.374-0.93
		c0.396-0.215,0.829-0.383,1.3-0.506c0.471-0.121,0.943-0.183,1.417-0.183c0.957,0,1.666,0.212,2.128,0.638
		c0.461,0.424,0.692,1.105,0.692,2.043v5.479H170.356z M167.61,162.244c0.757,0,1.351-0.207,1.784-0.622
		c0.432-0.415,0.648-0.996,0.648-1.743v-0.725l-1.216,0.051c-0.967,0.034-1.664,0.185-2.091,0.45
		c-0.427,0.267-0.641,0.681-0.641,1.241c0,0.439,0.133,0.774,0.399,1.004C166.759,162.129,167.131,162.244,167.61,162.244z" />
		<path class="st4" d="M178.699,163.101l-0.242-1.143h-0.059c-0.4,0.503-0.8,0.844-1.198,1.021c-0.398,0.179-0.895,0.268-1.49,0.268
		c-0.796,0-1.42-0.205-1.871-0.615c-0.452-0.41-0.678-0.993-0.678-1.75c0-1.621,1.296-2.471,3.889-2.549l1.362-0.045v-0.498
		c0-0.629-0.135-1.095-0.407-1.395c-0.271-0.301-0.704-0.451-1.3-0.451c-0.669,0-1.426,0.205-2.271,0.615l-0.374-0.93
		c0.396-0.215,0.829-0.383,1.3-0.506c0.471-0.121,0.943-0.183,1.417-0.183c0.957,0,1.666,0.212,2.128,0.638
		c0.461,0.424,0.692,1.105,0.692,2.043v5.479H178.699z M175.952,162.244c0.757,0,1.351-0.207,1.784-0.622
		c0.432-0.415,0.648-0.996,0.648-1.743v-0.725l-1.216,0.051c-0.967,0.034-1.664,0.185-2.091,0.45
		c-0.427,0.267-0.641,0.681-0.641,1.241c0,0.439,0.133,0.774,0.399,1.004C175.101,162.129,175.474,162.244,175.952,162.244z" />
		<path class="st4" d="M184.697,162.244c0.215,0,0.422-0.016,0.623-0.047c0.2-0.032,0.359-0.064,0.476-0.1v0.931
		c-0.132,0.063-0.326,0.116-0.582,0.157c-0.257,0.042-0.487,0.062-0.692,0.062c-1.553,0-2.329-0.817-2.329-2.453v-4.775h-1.15
		v-0.586l1.15-0.506l0.513-1.714h0.703v1.86h2.329v0.945h-2.329v4.724c0,0.483,0.115,0.854,0.344,1.113
		S184.297,162.244,184.697,162.244z" />
		<path class="st4" d="M188.616,163.101H187.4v-11.396h1.216V163.101z" />
		<path class="st4" d="M191.091,152.898c0-0.277,0.068-0.481,0.205-0.611c0.137-0.129,0.308-0.193,0.513-0.193
		c0.195,0,0.364,0.065,0.505,0.197s0.212,0.335,0.212,0.607c0,0.274-0.071,0.478-0.212,0.612c-0.142,0.134-0.31,0.201-0.505,0.201
		c-0.205,0-0.376-0.067-0.513-0.201C191.16,153.375,191.091,153.172,191.091,152.898z M192.41,163.101h-1.216v-8.027h1.216V163.101z
		" />
		<path class="st4" d="M198.196,163.247c-1.162,0-2.062-0.357-2.699-1.073c-0.637-0.715-0.956-1.727-0.956-3.036
		c0-1.342,0.323-2.38,0.97-3.112s1.569-1.099,2.765-1.099c0.386,0,0.771,0.042,1.157,0.125s0.688,0.181,0.908,0.293l-0.374,1.032
		c-0.269-0.107-0.562-0.196-0.879-0.268c-0.317-0.07-0.598-0.106-0.842-0.106c-1.631,0-2.446,1.041-2.446,3.121
		c0,0.986,0.199,1.742,0.597,2.27c0.397,0.527,0.987,0.791,1.769,0.791c0.669,0,1.355-0.144,2.058-0.432v1.076
		C199.688,163.109,199.011,163.247,198.196,163.247z" />
		<path class="st4" d="M207.622,163.101v-5.193c0-0.653-0.149-1.143-0.447-1.465s-0.764-0.482-1.399-0.482
		c-0.845,0-1.461,0.229-1.85,0.688c-0.388,0.46-0.582,1.212-0.582,2.256v4.197h-1.216v-11.396h1.216v3.449
		c0,0.416-0.02,0.76-0.059,1.033h0.073c0.239-0.386,0.58-0.689,1.021-0.912c0.442-0.222,0.946-0.333,1.513-0.333
		c0.981,0,1.718,0.233,2.208,0.699c0.491,0.467,0.736,1.208,0.736,2.224v5.236H207.622z" />
		<path class="st4" d="M214.727,163.247c-1.187,0-2.123-0.361-2.809-1.084s-1.029-1.726-1.029-3.01c0-1.294,0.319-2.322,0.956-3.084
		c0.638-0.762,1.493-1.143,2.567-1.143c1.006,0,1.802,0.331,2.388,0.992c0.586,0.662,0.879,1.535,0.879,2.619v0.769h-5.53
		c0.024,0.942,0.262,1.658,0.714,2.146c0.451,0.489,1.087,0.732,1.908,0.732c0.864,0,1.719-0.18,2.563-0.541v1.084
		c-0.43,0.186-0.836,0.318-1.219,0.398C215.731,163.207,215.269,163.247,214.727,163.247z M214.397,155.945
		c-0.645,0-1.159,0.211-1.542,0.631s-0.609,1.001-0.677,1.742h4.197c0-0.766-0.171-1.354-0.513-1.761
		C215.52,156.149,215.032,155.945,214.397,155.945z" />
	</g>
	<g>
		<path class="st4" d="M132.005,170.393h3.025c1.421,0,2.449,0.212,3.083,0.638c0.635,0.424,0.952,1.096,0.952,2.014
		c0,0.635-0.177,1.158-0.531,1.571c-0.354,0.412-0.871,0.68-1.549,0.802v0.073c1.626,0.278,2.439,1.133,2.439,2.563
		c0,0.957-0.324,1.704-0.971,2.241s-1.551,0.806-2.713,0.806h-3.735V170.393z M133.25,174.978h2.051
		c0.879,0,1.511-0.138,1.897-0.414c0.386-0.275,0.579-0.74,0.579-1.395c0-0.602-0.215-1.034-0.645-1.301
		c-0.43-0.266-1.113-0.398-2.051-0.398h-1.831V174.978z M133.25,176.033v4.006h2.234c0.864,0,1.515-0.167,1.952-0.501
		c0.437-0.335,0.655-0.858,0.655-1.571c0-0.664-0.224-1.152-0.67-1.465c-0.447-0.312-1.127-0.469-2.04-0.469H133.25z" />
		<path class="st4" d="M146.478,181.101l-0.242-1.143h-0.059c-0.4,0.503-0.8,0.844-1.198,1.021c-0.398,0.179-0.895,0.268-1.49,0.268
		c-0.796,0-1.42-0.205-1.871-0.615c-0.452-0.41-0.678-0.993-0.678-1.75c0-1.621,1.296-2.471,3.889-2.549l1.362-0.045v-0.498
		c0-0.629-0.135-1.095-0.407-1.395c-0.271-0.301-0.704-0.451-1.3-0.451c-0.669,0-1.426,0.205-2.271,0.615l-0.374-0.93
		c0.396-0.215,0.829-0.383,1.3-0.506c0.471-0.121,0.943-0.183,1.417-0.183c0.957,0,1.666,0.212,2.128,0.638
		c0.461,0.424,0.692,1.105,0.692,2.043v5.479H146.478z M143.731,180.244c0.757,0,1.351-0.207,1.784-0.622
		c0.432-0.415,0.648-0.996,0.648-1.743v-0.725l-1.216,0.051c-0.967,0.034-1.664,0.185-2.091,0.45
		c-0.427,0.267-0.641,0.681-0.641,1.241c0,0.439,0.133,0.774,0.399,1.004C142.88,180.129,143.253,180.244,143.731,180.244z" />
		<path class="st4" d="M155.377,181.101v-5.193c0-0.653-0.149-1.143-0.447-1.465s-0.764-0.482-1.399-0.482
		c-0.84,0-1.455,0.227-1.846,0.681s-0.586,1.204-0.586,2.249v4.211h-1.216v-8.027h0.989l0.198,1.099h0.059
		c0.249-0.396,0.598-0.702,1.047-0.919c0.449-0.218,0.95-0.326,1.501-0.326c0.967,0,1.694,0.233,2.183,0.699
		c0.488,0.467,0.732,1.213,0.732,2.238v5.236H155.377z" />
		<path class="st4" d="M160.292,176.992c0.21-0.297,0.53-0.688,0.959-1.172l2.593-2.746h1.443l-3.252,3.42l3.479,4.607h-1.472
		l-2.834-3.794l-0.916,0.791v3.003h-1.201v-11.396h1.201v6.043c0,0.269-0.02,0.684-0.059,1.244H160.292z" />
		<path class="st4" d="M170.355,181.247c-1.187,0-2.123-0.361-2.809-1.084s-1.029-1.726-1.029-3.01c0-1.294,0.319-2.322,0.956-3.084
		c0.638-0.762,1.493-1.143,2.567-1.143c1.006,0,1.802,0.331,2.388,0.992c0.586,0.662,0.879,1.535,0.879,2.619v0.769h-5.53
		c0.024,0.942,0.262,1.658,0.714,2.146c0.451,0.489,1.087,0.732,1.908,0.732c0.864,0,1.719-0.18,2.563-0.541v1.084
		c-0.43,0.186-0.836,0.318-1.219,0.398C171.359,181.207,170.897,181.247,170.355,181.247z M170.025,173.945
		c-0.645,0-1.159,0.211-1.542,0.631s-0.609,1.001-0.677,1.742h4.197c0-0.766-0.171-1.354-0.513-1.761
		C171.148,174.149,170.66,173.945,170.025,173.945z" />
		<path class="st4" d="M180.873,181.101v-5.193c0-0.653-0.149-1.143-0.447-1.465s-0.764-0.482-1.399-0.482
		c-0.84,0-1.455,0.227-1.846,0.681s-0.586,1.204-0.586,2.249v4.211h-1.216v-8.027h0.989l0.198,1.099h0.059
		c0.249-0.396,0.598-0.702,1.047-0.919c0.449-0.218,0.95-0.326,1.501-0.326c0.967,0,1.694,0.233,2.183,0.699
		c0.488,0.467,0.732,1.213,0.732,2.238v5.236H180.873z" />
		<path class="st4" d="M189.522,181.101l-0.242-1.143h-0.059c-0.4,0.503-0.8,0.844-1.198,1.021c-0.398,0.179-0.895,0.268-1.49,0.268
		c-0.796,0-1.42-0.205-1.871-0.615c-0.452-0.41-0.678-0.993-0.678-1.75c0-1.621,1.296-2.471,3.889-2.549l1.362-0.045v-0.498
		c0-0.629-0.135-1.095-0.407-1.395c-0.271-0.301-0.704-0.451-1.3-0.451c-0.669,0-1.426,0.205-2.271,0.615l-0.374-0.93
		c0.396-0.215,0.829-0.383,1.3-0.506c0.471-0.121,0.943-0.183,1.417-0.183c0.957,0,1.666,0.212,2.128,0.638
		c0.461,0.424,0.692,1.105,0.692,2.043v5.479H189.522z M186.776,180.244c0.757,0,1.351-0.207,1.784-0.622
		c0.432-0.415,0.648-0.996,0.648-1.743v-0.725l-1.216,0.051c-0.967,0.034-1.664,0.185-2.091,0.45
		c-0.427,0.267-0.641,0.681-0.641,1.241c0,0.439,0.133,0.774,0.399,1.004C185.925,180.129,186.297,180.244,186.776,180.244z" />
		<path class="st4" d="M194.071,173.074v5.207c0,0.655,0.149,1.143,0.447,1.465s0.764,0.484,1.399,0.484
		c0.84,0,1.454-0.229,1.842-0.689c0.389-0.458,0.583-1.208,0.583-2.248v-4.219h1.216v8.027h-1.003l-0.176-1.076h-0.066
		c-0.249,0.395-0.595,0.698-1.037,0.908c-0.442,0.209-0.946,0.314-1.512,0.314c-0.977,0-1.708-0.231-2.194-0.695
		s-0.729-1.206-0.729-2.227v-5.252H194.071z" />
		<path class="st4" d="M205.753,174.019h-2.043v7.082h-1.216v-7.082h-1.436v-0.55l1.436-0.439v-0.446
		c0-1.973,0.862-2.959,2.585-2.959c0.425,0,0.923,0.085,1.494,0.256l-0.315,0.975c-0.469-0.151-0.869-0.228-1.201-0.228
		c-0.459,0-0.798,0.152-1.018,0.458c-0.22,0.305-0.33,0.795-0.33,1.469v0.52h2.043V174.019z" />
		<path class="st4" d="M212.396,178.911c0,0.746-0.278,1.323-0.835,1.729s-1.338,0.607-2.344,0.607c-1.064,0-1.895-0.168-2.49-0.506
		v-1.127c0.386,0.195,0.799,0.349,1.242,0.461c0.441,0.112,0.868,0.168,1.278,0.168c0.635,0,1.123-0.101,1.465-0.304
		c0.342-0.202,0.513-0.511,0.513-0.927c0-0.312-0.135-0.579-0.407-0.802c-0.271-0.222-0.799-0.484-1.585-0.787
		c-0.747-0.278-1.278-0.521-1.593-0.729c-0.314-0.208-0.549-0.443-0.703-0.707c-0.153-0.264-0.23-0.579-0.23-0.944
		c0-0.654,0.266-1.171,0.798-1.55c0.532-0.378,1.262-0.567,2.19-0.567c0.864,0,1.709,0.176,2.534,0.527l-0.432,0.988
		c-0.806-0.331-1.536-0.498-2.19-0.498c-0.576,0-1.011,0.091-1.304,0.271s-0.439,0.43-0.439,0.747c0,0.215,0.055,0.398,0.165,0.55
		c0.109,0.151,0.287,0.295,0.531,0.432s0.713,0.335,1.406,0.594c0.952,0.347,1.595,0.695,1.93,1.047
		C212.229,177.937,212.396,178.379,212.396,178.911z" />
		<path class="st4" d="M214.271,170.898c0-0.277,0.068-0.481,0.205-0.611c0.137-0.129,0.308-0.193,0.513-0.193
		c0.195,0,0.364,0.065,0.505,0.197s0.212,0.335,0.212,0.607c0,0.274-0.071,0.478-0.212,0.612c-0.142,0.134-0.31,0.201-0.505,0.201
		c-0.205,0-0.376-0.067-0.513-0.201C214.339,171.375,214.271,171.172,214.271,170.898z M215.589,181.101h-1.216v-8.027h1.216
		V181.101z" />
		<path class="st4" d="M221.375,181.247c-1.162,0-2.062-0.357-2.699-1.073c-0.637-0.715-0.956-1.727-0.956-3.036
		c0-1.342,0.323-2.38,0.97-3.112s1.569-1.099,2.765-1.099c0.386,0,0.771,0.042,1.157,0.125s0.688,0.181,0.908,0.293l-0.374,1.032
		c-0.269-0.107-0.562-0.196-0.879-0.268c-0.317-0.07-0.598-0.106-0.842-0.106c-1.631,0-2.446,1.041-2.446,3.121
		c0,0.986,0.199,1.742,0.597,2.27c0.397,0.527,0.987,0.791,1.769,0.791c0.669,0,1.355-0.144,2.058-0.432v1.076
		C222.867,181.109,222.191,181.247,221.375,181.247z" />
		<path class="st4" d="M230.802,181.101v-5.193c0-0.653-0.149-1.143-0.447-1.465s-0.764-0.482-1.399-0.482
		c-0.845,0-1.461,0.229-1.85,0.688c-0.388,0.46-0.582,1.212-0.582,2.256v4.197h-1.216v-11.396h1.216v3.449
		c0,0.416-0.02,0.76-0.059,1.033h0.073c0.239-0.386,0.58-0.689,1.021-0.912c0.442-0.222,0.946-0.333,1.513-0.333
		c0.981,0,1.718,0.233,2.208,0.699c0.491,0.467,0.736,1.208,0.736,2.224v5.236H230.802z" />
		<path class="st4" d="M237.108,180.244c0.215,0,0.422-0.016,0.623-0.047c0.2-0.032,0.359-0.064,0.476-0.1v0.931
		c-0.132,0.063-0.326,0.116-0.582,0.157c-0.257,0.042-0.487,0.062-0.692,0.062c-1.553,0-2.329-0.817-2.329-2.453v-4.775h-1.15
		v-0.586l1.15-0.506l0.513-1.714h0.703v1.86h2.329v0.945h-2.329v4.724c0,0.483,0.115,0.854,0.344,1.113
		S236.708,180.244,237.108,180.244z" />
	</g>
	<g>
		<path class="st4" d="M351.109,163.101h-5.969v-10.708h5.969v1.106h-4.724v3.449h4.438v1.099h-4.438v3.94h4.724V163.101z" />
		<path class="st4" d="M354.442,155.074v5.207c0,0.655,0.149,1.143,0.447,1.465s0.764,0.484,1.399,0.484
		c0.84,0,1.454-0.229,1.842-0.689c0.389-0.458,0.583-1.208,0.583-2.248v-4.219h1.216v8.027h-1.003l-0.176-1.076h-0.066
		c-0.249,0.395-0.595,0.698-1.037,0.908c-0.442,0.209-0.946,0.314-1.512,0.314c-0.977,0-1.708-0.231-2.194-0.695
		s-0.729-1.206-0.729-2.227v-5.252H354.442z" />
		<path class="st4" d="M366.168,154.927c0.356,0,0.676,0.029,0.959,0.088l-0.168,1.128c-0.332-0.073-0.625-0.11-0.879-0.11
		c-0.649,0-1.205,0.264-1.666,0.791c-0.462,0.527-0.692,1.185-0.692,1.971v4.307h-1.216v-8.027h1.003l0.139,1.486h0.059
		c0.298-0.521,0.657-0.925,1.077-1.208S365.665,154.927,366.168,154.927z" />
		<path class="st4" d="M375.558,159.079c0,1.31-0.33,2.331-0.989,3.065c-0.659,0.735-1.57,1.103-2.732,1.103
		c-0.718,0-1.355-0.168-1.912-0.506c-0.557-0.336-0.986-0.82-1.289-1.449c-0.303-0.631-0.454-1.367-0.454-2.213
		c0-1.308,0.327-2.327,0.981-3.058c0.654-0.729,1.562-1.095,2.725-1.095c1.123,0,2.015,0.373,2.677,1.121
		C375.227,156.794,375.558,157.806,375.558,159.079z M369.442,159.079c0,1.025,0.205,1.808,0.615,2.344
		c0.41,0.538,1.013,0.807,1.809,0.807s1.4-0.268,1.812-0.803c0.413-0.534,0.619-1.316,0.619-2.348c0-1.02-0.207-1.795-0.619-2.325
		c-0.413-0.529-1.021-0.794-1.827-0.794c-0.796,0-1.396,0.261-1.802,0.783S369.442,158.045,369.442,159.079z" />
		<path class="st4" d="M381.424,163.247c-0.521,0-1-0.097-1.432-0.289c-0.432-0.193-0.795-0.489-1.088-0.891h-0.088
		c0.059,0.469,0.088,0.914,0.088,1.334v3.303h-1.215v-11.631h0.988l0.168,1.099h0.059c0.312-0.439,0.676-0.757,1.092-0.952
		c0.414-0.195,0.891-0.293,1.428-0.293c1.064,0,1.887,0.364,2.465,1.092s0.869,1.748,0.869,3.061c0,1.318-0.295,2.343-0.883,3.073
		C383.285,162.882,382.469,163.247,381.424,163.247z M381.248,155.96c-0.82,0-1.412,0.227-1.779,0.681
		c-0.365,0.454-0.555,1.177-0.564,2.168v0.271c0,1.129,0.188,1.936,0.564,2.421c0.375,0.486,0.979,0.729,1.809,0.729
		c0.693,0,1.236-0.281,1.631-0.843c0.393-0.562,0.59-1.335,0.59-2.321c0-1.001-0.197-1.77-0.59-2.304
		C382.514,156.227,381.961,155.96,381.248,155.96z" />
		<path class="st4" d="M391.817,163.101l-0.241-1.143h-0.059c-0.401,0.503-0.8,0.844-1.198,1.021
		c-0.397,0.179-0.895,0.268-1.49,0.268c-0.796,0-1.42-0.205-1.871-0.615c-0.452-0.41-0.678-0.993-0.678-1.75
		c0-1.621,1.296-2.471,3.89-2.549l1.361-0.045v-0.498c0-0.629-0.135-1.095-0.406-1.395c-0.271-0.301-0.704-0.451-1.3-0.451
		c-0.669,0-1.426,0.205-2.271,0.615l-0.373-0.93c0.395-0.215,0.828-0.383,1.3-0.506c0.471-0.121,0.943-0.183,1.417-0.183
		c0.957,0,1.666,0.212,2.128,0.638c0.461,0.424,0.692,1.105,0.692,2.043v5.479H391.817z M389.07,162.244
		c0.757,0,1.352-0.207,1.784-0.622c0.432-0.415,0.647-0.996,0.647-1.743v-0.725l-1.215,0.051c-0.967,0.034-1.664,0.185-2.092,0.45
		c-0.427,0.267-0.641,0.681-0.641,1.241c0,0.439,0.133,0.774,0.399,1.004C388.22,162.129,388.592,162.244,389.07,162.244z
		 M387.635,152.898c0-0.253,0.065-0.437,0.194-0.549c0.13-0.112,0.284-0.168,0.466-0.168c0.185,0,0.345,0.056,0.479,0.168
		c0.134,0.112,0.201,0.296,0.201,0.549c0,0.245-0.067,0.427-0.201,0.546c-0.135,0.12-0.295,0.18-0.479,0.18
		c-0.182,0-0.336-0.06-0.466-0.18C387.7,153.325,387.635,153.143,387.635,152.898z M390.426,152.898
		c0-0.253,0.064-0.437,0.194-0.549c0.129-0.112,0.284-0.168,0.465-0.168s0.338,0.056,0.473,0.168
		c0.134,0.112,0.201,0.296,0.201,0.549c0,0.245-0.067,0.427-0.201,0.546c-0.135,0.12-0.292,0.18-0.473,0.18s-0.336-0.06-0.465-0.18
		C390.49,153.325,390.426,153.143,390.426,152.898z" />
		<path class="st4" d="M395.12,152.898c0-0.277,0.068-0.481,0.205-0.611c0.137-0.129,0.308-0.193,0.513-0.193
		c0.195,0,0.363,0.065,0.506,0.197c0.141,0.132,0.212,0.335,0.212,0.607c0,0.274-0.071,0.478-0.212,0.612
		c-0.143,0.134-0.311,0.201-0.506,0.201c-0.205,0-0.376-0.067-0.513-0.201C395.188,153.375,395.12,153.172,395.12,152.898z
		 M396.438,163.101h-1.216v-8.027h1.216V163.101z" />
		<path class="st4" d="M404.194,160.911c0,0.746-0.277,1.323-0.834,1.729s-1.339,0.607-2.344,0.607c-1.065,0-1.896-0.168-2.49-0.506
		v-1.127c0.385,0.195,0.799,0.349,1.241,0.461c0.441,0.112,0.868,0.168,1.278,0.168c0.634,0,1.122-0.101,1.465-0.304
		c0.341-0.202,0.512-0.511,0.512-0.927c0-0.312-0.135-0.579-0.406-0.802c-0.271-0.222-0.8-0.484-1.586-0.787
		c-0.746-0.278-1.277-0.521-1.593-0.729c-0.314-0.208-0.549-0.443-0.703-0.707c-0.153-0.264-0.23-0.579-0.23-0.944
		c0-0.654,0.266-1.171,0.798-1.55c0.532-0.378,1.263-0.567,2.19-0.567c0.864,0,1.709,0.176,2.534,0.527l-0.432,0.988
		c-0.807-0.331-1.536-0.498-2.19-0.498c-0.576,0-1.011,0.091-1.304,0.271s-0.439,0.43-0.439,0.747c0,0.215,0.055,0.398,0.165,0.55
		c0.109,0.151,0.286,0.295,0.53,0.432s0.713,0.335,1.406,0.594c0.953,0.347,1.596,0.695,1.931,1.047
		C404.027,159.937,404.194,160.379,404.194,160.911z" />
		<path class="st4" d="M409.38,163.247c-1.162,0-2.062-0.357-2.699-1.073c-0.637-0.715-0.956-1.727-0.956-3.036
		c0-1.342,0.324-2.38,0.971-3.112c0.647-0.732,1.568-1.099,2.766-1.099c0.385,0,0.771,0.042,1.156,0.125s0.689,0.181,0.908,0.293
		l-0.373,1.032c-0.269-0.107-0.562-0.196-0.879-0.268c-0.317-0.07-0.599-0.106-0.842-0.106c-1.632,0-2.447,1.041-2.447,3.121
		c0,0.986,0.199,1.742,0.598,2.27c0.397,0.527,0.987,0.791,1.769,0.791c0.669,0,1.354-0.144,2.058-0.432v1.076
		C410.871,163.109,410.195,163.247,409.38,163.247z" />
		<path class="st4" d="M418.806,163.101v-5.193c0-0.653-0.149-1.143-0.446-1.465c-0.299-0.322-0.765-0.482-1.399-0.482
		c-0.845,0-1.461,0.229-1.85,0.688c-0.388,0.46-0.582,1.212-0.582,2.256v4.197h-1.216v-11.396h1.216v3.449
		c0,0.416-0.02,0.76-0.059,1.033h0.073c0.239-0.386,0.58-0.689,1.021-0.912c0.442-0.222,0.946-0.333,1.513-0.333
		c0.981,0,1.718,0.233,2.208,0.699c0.491,0.467,0.736,1.208,0.736,2.224v5.236H418.806z" />
		<path class="st4" d="M425.91,163.247c-1.186,0-2.122-0.361-2.809-1.084c-0.686-0.723-1.029-1.726-1.029-3.01
		c0-1.294,0.319-2.322,0.956-3.084c0.638-0.762,1.493-1.143,2.567-1.143c1.006,0,1.802,0.331,2.388,0.992
		c0.586,0.662,0.879,1.535,0.879,2.619v0.769h-5.53c0.024,0.942,0.263,1.658,0.715,2.146c0.451,0.489,1.088,0.732,1.908,0.732
		c0.863,0,1.718-0.18,2.562-0.541v1.084c-0.43,0.186-0.836,0.318-1.219,0.398C426.915,163.207,426.453,163.247,425.91,163.247z
		 M425.581,155.945c-0.645,0-1.158,0.211-1.542,0.631c-0.383,0.42-0.609,1.001-0.678,1.742h4.197c0-0.766-0.171-1.354-0.513-1.761
		C426.704,156.149,426.216,155.945,425.581,155.945z" />
	</g>
	<g>
		<path class="st4" d="M334.13,170.393h3.025c1.421,0,2.449,0.212,3.083,0.638c0.635,0.424,0.952,1.096,0.952,2.014
		c0,0.635-0.177,1.158-0.531,1.571c-0.354,0.412-0.871,0.68-1.549,0.802v0.073c1.626,0.278,2.439,1.133,2.439,2.563
		c0,0.957-0.324,1.704-0.971,2.241s-1.551,0.806-2.713,0.806h-3.735V170.393z M335.375,174.978h2.051
		c0.879,0,1.511-0.138,1.897-0.414c0.386-0.275,0.579-0.74,0.579-1.395c0-0.602-0.215-1.034-0.645-1.301
		c-0.43-0.266-1.113-0.398-2.051-0.398h-1.831V174.978z M335.375,176.033v4.006h2.234c0.864,0,1.515-0.167,1.952-0.501
		c0.437-0.335,0.655-0.858,0.655-1.571c0-0.664-0.224-1.152-0.67-1.465c-0.447-0.312-1.127-0.469-2.04-0.469H335.375z" />
		<path class="st4" d="M348.603,181.101l-0.242-1.143h-0.059c-0.4,0.503-0.8,0.844-1.198,1.021c-0.398,0.179-0.895,0.268-1.49,0.268
		c-0.796,0-1.42-0.205-1.871-0.615c-0.452-0.41-0.678-0.993-0.678-1.75c0-1.621,1.296-2.471,3.889-2.549l1.362-0.045v-0.498
		c0-0.629-0.135-1.095-0.407-1.395c-0.271-0.301-0.704-0.451-1.3-0.451c-0.669,0-1.426,0.205-2.271,0.615l-0.374-0.93
		c0.396-0.215,0.829-0.383,1.3-0.506c0.471-0.121,0.943-0.183,1.417-0.183c0.957,0,1.666,0.212,2.128,0.638
		c0.461,0.424,0.692,1.105,0.692,2.043v5.479H348.603z M345.856,180.244c0.757,0,1.351-0.207,1.784-0.622
		c0.432-0.415,0.648-0.996,0.648-1.743v-0.725l-1.216,0.051c-0.967,0.034-1.664,0.185-2.091,0.45
		c-0.427,0.267-0.641,0.681-0.641,1.241c0,0.439,0.133,0.774,0.399,1.004C345.005,180.129,345.378,180.244,345.856,180.244z" />
		<path class="st4" d="M357.502,181.101v-5.193c0-0.653-0.149-1.143-0.447-1.465s-0.764-0.482-1.399-0.482
		c-0.84,0-1.455,0.227-1.846,0.681s-0.586,1.204-0.586,2.249v4.211h-1.216v-8.027h0.989l0.198,1.099h0.059
		c0.249-0.396,0.598-0.702,1.047-0.919c0.449-0.218,0.95-0.326,1.501-0.326c0.967,0,1.694,0.233,2.183,0.699
		c0.488,0.467,0.732,1.213,0.732,2.238v5.236H357.502z" />
		<path class="st4" d="M362.417,176.992c0.21-0.297,0.53-0.688,0.959-1.172l2.593-2.746h1.443l-3.252,3.42l3.479,4.607h-1.472
		l-2.834-3.794l-0.916,0.791v3.003h-1.201v-11.396h1.201v6.043c0,0.269-0.02,0.684-0.059,1.244H362.417z" />
		<path class="st4" d="M372.48,181.247c-1.187,0-2.123-0.361-2.809-1.084s-1.029-1.726-1.029-3.01c0-1.294,0.319-2.322,0.956-3.084
		c0.638-0.762,1.493-1.143,2.567-1.143c1.006,0,1.802,0.331,2.388,0.992c0.586,0.662,0.879,1.535,0.879,2.619v0.769h-5.53
		c0.024,0.942,0.262,1.658,0.714,2.146c0.451,0.489,1.087,0.732,1.908,0.732c0.864,0,1.719-0.18,2.563-0.541v1.084
		c-0.43,0.186-0.836,0.318-1.219,0.398C373.484,181.207,373.022,181.247,372.48,181.247z M372.15,173.945
		c-0.645,0-1.159,0.211-1.542,0.631s-0.609,1.001-0.677,1.742h4.197c0-0.766-0.171-1.354-0.513-1.761
		C373.273,174.149,372.785,173.945,372.15,173.945z" />
		<path class="st4" d="M382.998,181.101v-5.193c0-0.653-0.15-1.143-0.447-1.465c-0.299-0.322-0.764-0.482-1.398-0.482
		c-0.84,0-1.455,0.227-1.846,0.681s-0.586,1.204-0.586,2.249v4.211h-1.217v-8.027h0.988l0.199,1.099h0.059
		c0.248-0.396,0.598-0.702,1.047-0.919c0.449-0.218,0.949-0.326,1.502-0.326c0.967,0,1.693,0.233,2.182,0.699
		c0.488,0.467,0.732,1.213,0.732,2.238v5.236H382.998z" />
		<path class="st4" d="M391.647,181.101l-0.241-1.143h-0.059c-0.401,0.503-0.8,0.844-1.198,1.021
		c-0.397,0.179-0.895,0.268-1.49,0.268c-0.796,0-1.42-0.205-1.871-0.615c-0.452-0.41-0.678-0.993-0.678-1.75
		c0-1.621,1.296-2.471,3.89-2.549l1.361-0.045v-0.498c0-0.629-0.135-1.095-0.406-1.395c-0.271-0.301-0.704-0.451-1.3-0.451
		c-0.669,0-1.426,0.205-2.271,0.615l-0.373-0.93c0.395-0.215,0.828-0.383,1.3-0.506c0.471-0.121,0.943-0.183,1.417-0.183
		c0.957,0,1.666,0.212,2.128,0.638c0.461,0.424,0.692,1.105,0.692,2.043v5.479H391.647z M388.9,180.244
		c0.757,0,1.352-0.207,1.784-0.622c0.432-0.415,0.647-0.996,0.647-1.743v-0.725l-1.215,0.051c-0.967,0.034-1.664,0.185-2.092,0.45
		c-0.427,0.267-0.641,0.681-0.641,1.241c0,0.439,0.133,0.774,0.399,1.004C388.05,180.129,388.422,180.244,388.9,180.244z" />
		<path class="st4" d="M396.195,173.074v5.207c0,0.655,0.148,1.143,0.447,1.465c0.297,0.322,0.764,0.484,1.398,0.484
		c0.84,0,1.454-0.229,1.842-0.689c0.389-0.458,0.582-1.208,0.582-2.248v-4.219h1.217v8.027h-1.004l-0.176-1.076h-0.066
		c-0.248,0.395-0.594,0.698-1.036,0.908c-0.441,0.209-0.946,0.314-1.513,0.314c-0.977,0-1.707-0.231-2.193-0.695
		c-0.485-0.464-0.729-1.206-0.729-2.227v-5.252H396.195z" />
		<path class="st4" d="M407.878,174.019h-2.044v7.082h-1.215v-7.082h-1.436v-0.55l1.436-0.439v-0.446
		c0-1.973,0.861-2.959,2.585-2.959c0.425,0,0.923,0.085,1.494,0.256l-0.315,0.975c-0.469-0.151-0.869-0.228-1.201-0.228
		c-0.459,0-0.798,0.152-1.018,0.458c-0.22,0.305-0.33,0.795-0.33,1.469v0.52h2.044V174.019z" />
		<path class="st4" d="M414.521,178.911c0,0.746-0.277,1.323-0.834,1.729s-1.339,0.607-2.344,0.607c-1.065,0-1.896-0.168-2.49-0.506
		v-1.127c0.385,0.195,0.799,0.349,1.241,0.461c0.441,0.112,0.868,0.168,1.278,0.168c0.634,0,1.122-0.101,1.465-0.304
		c0.341-0.202,0.512-0.511,0.512-0.927c0-0.312-0.135-0.579-0.406-0.802c-0.271-0.222-0.8-0.484-1.586-0.787
		c-0.746-0.278-1.277-0.521-1.593-0.729c-0.314-0.208-0.549-0.443-0.703-0.707c-0.153-0.264-0.23-0.579-0.23-0.944
		c0-0.654,0.266-1.171,0.798-1.55c0.532-0.378,1.263-0.567,2.19-0.567c0.864,0,1.709,0.176,2.534,0.527l-0.432,0.988
		c-0.807-0.331-1.536-0.498-2.19-0.498c-0.576,0-1.011,0.091-1.304,0.271s-0.439,0.43-0.439,0.747c0,0.215,0.055,0.398,0.165,0.55
		c0.109,0.151,0.286,0.295,0.53,0.432s0.713,0.335,1.406,0.594c0.953,0.347,1.596,0.695,1.931,1.047
		C414.354,177.937,414.521,178.379,414.521,178.911z" />
		<path class="st4" d="M416.396,170.898c0-0.277,0.068-0.481,0.205-0.611c0.137-0.129,0.308-0.193,0.513-0.193
		c0.195,0,0.363,0.065,0.506,0.197c0.141,0.132,0.212,0.335,0.212,0.607c0,0.274-0.071,0.478-0.212,0.612
		c-0.143,0.134-0.311,0.201-0.506,0.201c-0.205,0-0.376-0.067-0.513-0.201C416.464,171.375,416.396,171.172,416.396,170.898z
		 M417.714,181.101h-1.216v-8.027h1.216V181.101z" />
		<path class="st4" d="M423.5,181.247c-1.162,0-2.062-0.357-2.699-1.073c-0.637-0.715-0.956-1.727-0.956-3.036
		c0-1.342,0.324-2.38,0.971-3.112c0.647-0.732,1.568-1.099,2.766-1.099c0.385,0,0.771,0.042,1.156,0.125s0.689,0.181,0.908,0.293
		l-0.373,1.032c-0.269-0.107-0.562-0.196-0.879-0.268c-0.317-0.07-0.599-0.106-0.842-0.106c-1.632,0-2.447,1.041-2.447,3.121
		c0,0.986,0.199,1.742,0.598,2.27c0.397,0.527,0.987,0.791,1.769,0.791c0.669,0,1.354-0.144,2.058-0.432v1.076
		C424.991,181.109,424.315,181.247,423.5,181.247z" />
		<path class="st4" d="M432.927,181.101v-5.193c0-0.653-0.149-1.143-0.446-1.465c-0.299-0.322-0.765-0.482-1.399-0.482
		c-0.845,0-1.461,0.229-1.85,0.688c-0.388,0.46-0.582,1.212-0.582,2.256v4.197h-1.216v-11.396h1.216v3.449
		c0,0.416-0.02,0.76-0.059,1.033h0.073c0.239-0.386,0.58-0.689,1.021-0.912c0.442-0.222,0.946-0.333,1.513-0.333
		c0.981,0,1.718,0.233,2.208,0.699c0.491,0.467,0.736,1.208,0.736,2.224v5.236H432.927z" />
		<path class="st4" d="M439.233,180.244c0.215,0,0.422-0.016,0.622-0.047c0.2-0.032,0.359-0.064,0.477-0.1v0.931
		c-0.132,0.063-0.326,0.116-0.582,0.157c-0.257,0.042-0.487,0.062-0.692,0.062c-1.553,0-2.329-0.817-2.329-2.453v-4.775h-1.15
		v-0.586l1.15-0.506l0.513-1.714h0.703v1.86h2.329v0.945h-2.329v4.724c0,0.483,0.114,0.854,0.345,1.113
		C438.518,180.115,438.833,180.244,439.233,180.244z" />
	</g>
	<g>
		<path class="st4" d="M537.154,157.491h3.641v5.208c-0.567,0.181-1.143,0.317-1.729,0.41c-0.586,0.092-1.266,0.139-2.037,0.139
		c-1.621,0-2.883-0.482-3.786-1.446c-0.903-0.965-1.354-2.315-1.354-4.054c0-1.113,0.223-2.089,0.67-2.927
		c0.446-0.837,1.09-1.477,1.93-1.919c0.84-0.441,1.824-0.662,2.951-0.662c1.143,0,2.207,0.21,3.193,0.629l-0.482,1.1
		c-0.967-0.41-1.897-0.615-2.791-0.615c-1.304,0-2.322,0.388-3.055,1.164s-1.098,1.854-1.098,3.23c0,1.445,0.353,2.541,1.058,3.288
		c0.706,0.747,1.742,1.12,3.109,1.12c0.742,0,1.467-0.085,2.175-0.256v-3.296h-2.395V157.491z" />
		<path class="st4" d="M546.572,163.247c-1.186,0-2.122-0.361-2.809-1.084c-0.686-0.723-1.029-1.726-1.029-3.01
		c0-1.294,0.319-2.322,0.956-3.084c0.638-0.762,1.493-1.143,2.567-1.143c1.006,0,1.802,0.331,2.388,0.992
		c0.586,0.662,0.879,1.535,0.879,2.619v0.769h-5.53c0.024,0.942,0.263,1.658,0.715,2.146c0.451,0.489,1.088,0.732,1.908,0.732
		c0.863,0,1.718-0.18,2.562-0.541v1.084c-0.43,0.186-0.836,0.318-1.219,0.398C547.577,163.207,547.115,163.247,546.572,163.247z
		 M546.243,155.945c-0.645,0-1.158,0.211-1.542,0.631c-0.383,0.42-0.609,1.001-0.678,1.742h4.197c0-0.766-0.171-1.354-0.513-1.761
		C547.366,156.149,546.878,155.945,546.243,155.945z" />
		<path class="st4" d="M556.775,160.911c0,0.746-0.277,1.323-0.834,1.729s-1.339,0.607-2.344,0.607c-1.065,0-1.896-0.168-2.49-0.506
		v-1.127c0.385,0.195,0.799,0.349,1.241,0.461c0.441,0.112,0.868,0.168,1.278,0.168c0.634,0,1.122-0.101,1.465-0.304
		c0.341-0.202,0.512-0.511,0.512-0.927c0-0.312-0.135-0.579-0.406-0.802c-0.271-0.222-0.8-0.484-1.586-0.787
		c-0.746-0.278-1.277-0.521-1.593-0.729c-0.314-0.208-0.549-0.443-0.703-0.707c-0.153-0.264-0.23-0.579-0.23-0.944
		c0-0.654,0.266-1.171,0.798-1.55c0.532-0.378,1.263-0.567,2.19-0.567c0.864,0,1.709,0.176,2.534,0.527l-0.432,0.988
		c-0.807-0.331-1.536-0.498-2.19-0.498c-0.576,0-1.011,0.091-1.304,0.271s-0.439,0.43-0.439,0.747c0,0.215,0.055,0.398,0.165,0.55
		c0.109,0.151,0.286,0.295,0.53,0.432s0.713,0.335,1.406,0.594c0.953,0.347,1.596,0.695,1.931,1.047
		C556.608,159.937,556.775,160.379,556.775,160.911z" />
		<path class="st4" d="M562.145,163.247c-1.186,0-2.122-0.361-2.809-1.084c-0.686-0.723-1.029-1.726-1.029-3.01
		c0-1.294,0.319-2.322,0.956-3.084c0.638-0.762,1.493-1.143,2.567-1.143c1.006,0,1.802,0.331,2.388,0.992
		c0.586,0.662,0.879,1.535,0.879,2.619v0.769h-5.53c0.024,0.942,0.263,1.658,0.715,2.146c0.451,0.489,1.088,0.732,1.908,0.732
		c0.863,0,1.718-0.18,2.562-0.541v1.084c-0.43,0.186-0.836,0.318-1.219,0.398C563.149,163.207,562.688,163.247,562.145,163.247z
		 M561.815,155.945c-0.645,0-1.158,0.211-1.542,0.631c-0.383,0.42-0.609,1.001-0.678,1.742h4.197c0-0.766-0.171-1.354-0.513-1.761
		C562.938,156.149,562.45,155.945,561.815,155.945z" />
		<path class="st4" d="M569.763,162.244c0.215,0,0.422-0.016,0.622-0.047c0.2-0.032,0.359-0.064,0.477-0.1v0.931
		c-0.132,0.063-0.326,0.116-0.582,0.157c-0.257,0.042-0.487,0.062-0.692,0.062c-1.553,0-2.329-0.817-2.329-2.453v-4.775h-1.15
		v-0.586l1.15-0.506l0.513-1.714h0.703v1.86h2.329v0.945h-2.329v4.724c0,0.483,0.114,0.854,0.345,1.113
		C569.047,162.115,569.362,162.244,569.763,162.244z" />
		<path class="st4" d="M577.6,163.101h-5.823v-0.828l4.38-6.254h-4.109v-0.945h5.442v0.945l-4.321,6.137h4.432V163.101z" />
		<path class="st4" d="M580.697,163.101h-1.216v-11.396h1.216V163.101z" />
		<path class="st4" d="M583.173,152.898c0-0.277,0.068-0.481,0.205-0.611c0.137-0.129,0.308-0.193,0.513-0.193
		c0.195,0,0.363,0.065,0.506,0.197c0.141,0.132,0.212,0.335,0.212,0.607c0,0.274-0.071,0.478-0.212,0.612
		c-0.143,0.134-0.311,0.201-0.506,0.201c-0.205,0-0.376-0.067-0.513-0.201C583.241,153.375,583.173,153.172,583.173,152.898z
		 M584.491,163.101h-1.216v-8.027h1.216V163.101z" />
		<path class="st4" d="M590.277,163.247c-1.162,0-2.062-0.357-2.699-1.073c-0.637-0.715-0.956-1.727-0.956-3.036
		c0-1.342,0.324-2.38,0.971-3.112c0.647-0.732,1.568-1.099,2.766-1.099c0.385,0,0.771,0.042,1.156,0.125s0.689,0.181,0.908,0.293
		l-0.373,1.032c-0.269-0.107-0.562-0.196-0.879-0.268c-0.317-0.07-0.599-0.106-0.842-0.106c-1.632,0-2.447,1.041-2.447,3.121
		c0,0.986,0.199,1.742,0.598,2.27c0.397,0.527,0.987,0.791,1.769,0.791c0.669,0,1.354-0.144,2.058-0.432v1.076
		C591.769,163.109,591.093,163.247,590.277,163.247z" />
		<path class="st4" d="M599.704,163.101v-5.193c0-0.653-0.149-1.143-0.446-1.465c-0.299-0.322-0.765-0.482-1.399-0.482
		c-0.845,0-1.461,0.229-1.85,0.688c-0.388,0.46-0.582,1.212-0.582,2.256v4.197h-1.216v-11.396h1.216v3.449
		c0,0.416-0.02,0.76-0.059,1.033h0.073c0.239-0.386,0.58-0.689,1.021-0.912c0.442-0.222,0.946-0.333,1.513-0.333
		c0.981,0,1.718,0.233,2.208,0.699c0.491,0.467,0.736,1.208,0.736,2.224v5.236H599.704z" />
		<path class="st4" d="M606.809,163.247c-1.186,0-2.122-0.361-2.809-1.084c-0.686-0.723-1.029-1.726-1.029-3.01
		c0-1.294,0.319-2.322,0.956-3.084c0.638-0.762,1.493-1.143,2.567-1.143c1.006,0,1.802,0.331,2.388,0.992
		c0.586,0.662,0.879,1.535,0.879,2.619v0.769h-5.53c0.024,0.942,0.263,1.658,0.715,2.146c0.451,0.489,1.088,0.732,1.908,0.732
		c0.863,0,1.718-0.18,2.562-0.541v1.084c-0.43,0.186-0.836,0.318-1.219,0.398C607.813,163.207,607.352,163.247,606.809,163.247z
		 M606.479,155.945c-0.645,0-1.158,0.211-1.542,0.631c-0.383,0.42-0.609,1.001-0.678,1.742h4.197c0-0.766-0.171-1.354-0.513-1.761
		C607.603,156.149,607.114,155.945,606.479,155.945z" />
	</g>
	<g>
		<path class="st4" d="M514.31,181.101h-5.969v-10.708h5.969v1.106h-4.725v3.449h4.439v1.099h-4.439v3.94h4.725V181.101z" />
		<path class="st4" d="M516.397,170.898c0-0.277,0.068-0.481,0.205-0.611c0.137-0.129,0.308-0.193,0.513-0.193
		c0.195,0,0.363,0.065,0.506,0.197c0.141,0.132,0.212,0.335,0.212,0.607c0,0.274-0.071,0.478-0.212,0.612
		c-0.143,0.134-0.311,0.201-0.506,0.201c-0.205,0-0.376-0.067-0.513-0.201C516.466,171.375,516.397,171.172,516.397,170.898z
		 M517.716,181.101H516.5v-8.027h1.216V181.101z" />
		<path class="st4" d="M525.787,181.101v-5.193c0-0.653-0.149-1.143-0.446-1.465c-0.299-0.322-0.765-0.482-1.399-0.482
		c-0.84,0-1.455,0.227-1.846,0.681s-0.586,1.204-0.586,2.249v4.211h-1.216v-8.027h0.988l0.198,1.099h0.059
		c0.249-0.396,0.598-0.702,1.048-0.919c0.448-0.218,0.949-0.326,1.501-0.326c0.967,0,1.694,0.233,2.183,0.699
		c0.488,0.467,0.732,1.213,0.732,2.238v5.236H525.787z" />
		<path class="st4" d="M530.716,181.101H529.5v-11.396h1.216V181.101z" />
		<path class="st4" d="M538.23,181.101l-0.241-1.143h-0.059c-0.401,0.503-0.8,0.844-1.198,1.021c-0.397,0.179-0.895,0.268-1.49,0.268
		c-0.796,0-1.42-0.205-1.871-0.615c-0.452-0.41-0.678-0.993-0.678-1.75c0-1.621,1.296-2.471,3.89-2.549l1.361-0.045v-0.498
		c0-0.629-0.135-1.095-0.406-1.395c-0.271-0.301-0.704-0.451-1.3-0.451c-0.669,0-1.426,0.205-2.271,0.615l-0.373-0.93
		c0.395-0.215,0.828-0.383,1.3-0.506c0.471-0.121,0.943-0.183,1.417-0.183c0.957,0,1.666,0.212,2.128,0.638
		c0.461,0.424,0.692,1.105,0.692,2.043v5.479H538.23z M535.483,180.244c0.757,0,1.352-0.207,1.784-0.622
		c0.432-0.415,0.647-0.996,0.647-1.743v-0.725l-1.215,0.051c-0.967,0.034-1.664,0.185-2.092,0.45
		c-0.427,0.267-0.641,0.681-0.641,1.241c0,0.439,0.133,0.774,0.399,1.004C534.633,180.129,535.005,180.244,535.483,180.244z" />
		<path class="st4" d="M548.207,173.074v0.77l-1.487,0.176c0.137,0.171,0.259,0.394,0.366,0.67c0.107,0.275,0.161,0.587,0.161,0.934
		c0,0.786-0.269,1.414-0.806,1.883s-1.274,0.703-2.212,0.703c-0.239,0-0.464-0.02-0.674-0.059c-0.518,0.273-0.776,0.617-0.776,1.032
		c0,0.22,0.09,0.382,0.271,0.487c0.18,0.104,0.49,0.157,0.93,0.157h1.421c0.869,0,1.537,0.183,2.003,0.55
		c0.467,0.365,0.699,0.897,0.699,1.596c0,0.889-0.356,1.566-1.068,2.033c-0.714,0.466-1.754,0.699-3.121,0.699
		c-1.05,0-1.858-0.195-2.428-0.586c-0.568-0.391-0.854-0.942-0.854-1.655c0-0.488,0.156-0.911,0.469-1.267
		c0.312-0.356,0.752-0.599,1.318-0.726c-0.205-0.093-0.377-0.236-0.516-0.433c-0.14-0.194-0.209-0.422-0.209-0.681
		c0-0.293,0.078-0.55,0.234-0.769c0.156-0.221,0.402-0.433,0.74-0.638c-0.416-0.171-0.754-0.462-1.015-0.872
		c-0.262-0.41-0.392-0.879-0.392-1.406c0-0.879,0.264-1.556,0.791-2.032c0.527-0.476,1.273-0.714,2.24-0.714
		c0.42,0,0.799,0.049,1.136,0.146H548.207z M541.805,182.449c0,0.435,0.184,0.764,0.55,0.988s0.891,0.338,1.575,0.338
		c1.02,0,1.775-0.153,2.267-0.458c0.49-0.306,0.735-0.72,0.735-1.241c0-0.436-0.134-0.736-0.402-0.905
		c-0.269-0.168-0.774-0.253-1.516-0.253h-1.458c-0.552,0-0.981,0.133-1.289,0.396S541.805,181.955,541.805,182.449z
		 M542.465,175.644c0,0.562,0.158,0.987,0.476,1.275s0.759,0.432,1.325,0.432c1.188,0,1.78-0.576,1.78-1.729
		c0-1.206-0.601-1.809-1.802-1.809c-0.571,0-1.011,0.153-1.318,0.461S542.465,175.039,542.465,175.644z" />
		<path class="st4" d="M553.245,181.247c-1.186,0-2.122-0.361-2.809-1.084c-0.686-0.723-1.029-1.726-1.029-3.01
		c0-1.294,0.319-2.322,0.956-3.084c0.638-0.762,1.493-1.143,2.567-1.143c1.006,0,1.802,0.331,2.388,0.992
		c0.586,0.662,0.879,1.535,0.879,2.619v0.769h-5.53c0.024,0.942,0.263,1.658,0.715,2.146c0.451,0.489,1.088,0.732,1.908,0.732
		c0.863,0,1.718-0.18,2.562-0.541v1.084c-0.43,0.186-0.836,0.318-1.219,0.398C554.25,181.207,553.788,181.247,553.245,181.247z
		 M552.916,173.945c-0.645,0-1.158,0.211-1.542,0.631c-0.383,0.42-0.609,1.001-0.678,1.742h4.197c0-0.766-0.171-1.354-0.513-1.761
		C554.039,174.149,553.551,173.945,552.916,173.945z" />
		<path class="st4" d="M563.763,181.101v-5.193c0-0.653-0.149-1.143-0.446-1.465c-0.299-0.322-0.765-0.482-1.399-0.482
		c-0.84,0-1.455,0.227-1.846,0.681s-0.586,1.204-0.586,2.249v4.211h-1.216v-8.027h0.988l0.198,1.099h0.059
		c0.249-0.396,0.598-0.702,1.048-0.919c0.448-0.218,0.949-0.326,1.501-0.326c0.967,0,1.694,0.233,2.183,0.699
		c0.488,0.467,0.732,1.213,0.732,2.238v5.236H563.763z" />
		<path class="st4" d="M572.654,178.911c0,0.746-0.277,1.323-0.834,1.729s-1.339,0.607-2.344,0.607c-1.065,0-1.896-0.168-2.49-0.506
		v-1.127c0.385,0.195,0.799,0.349,1.241,0.461c0.441,0.112,0.868,0.168,1.278,0.168c0.634,0,1.122-0.101,1.465-0.304
		c0.341-0.202,0.512-0.511,0.512-0.927c0-0.312-0.135-0.579-0.406-0.802c-0.271-0.222-0.8-0.484-1.586-0.787
		c-0.746-0.278-1.277-0.521-1.593-0.729c-0.314-0.208-0.549-0.443-0.703-0.707c-0.153-0.264-0.23-0.579-0.23-0.944
		c0-0.654,0.266-1.171,0.798-1.55c0.532-0.378,1.263-0.567,2.19-0.567c0.864,0,1.709,0.176,2.534,0.527l-0.432,0.988
		c-0.807-0.331-1.536-0.498-2.19-0.498c-0.576,0-1.011,0.091-1.304,0.271s-0.439,0.43-0.439,0.747c0,0.215,0.055,0.398,0.165,0.55
		c0.109,0.151,0.286,0.295,0.53,0.432s0.713,0.335,1.406,0.594c0.953,0.347,1.596,0.695,1.931,1.047
		C572.487,177.937,572.654,178.379,572.654,178.911z" />
		<path class="st4" d="M574.53,170.898c0-0.277,0.068-0.481,0.205-0.611c0.137-0.129,0.308-0.193,0.513-0.193
		c0.195,0,0.363,0.065,0.506,0.197c0.141,0.132,0.212,0.335,0.212,0.607c0,0.274-0.071,0.478-0.212,0.612
		c-0.143,0.134-0.311,0.201-0.506,0.201c-0.205,0-0.376-0.067-0.513-0.201C574.599,171.375,574.53,171.172,574.53,170.898z
		 M575.849,181.101h-1.216v-8.027h1.216V181.101z" />
		<path class="st4" d="M581.635,181.247c-1.162,0-2.062-0.357-2.699-1.073c-0.637-0.715-0.956-1.727-0.956-3.036
		c0-1.342,0.324-2.38,0.971-3.112c0.647-0.732,1.568-1.099,2.766-1.099c0.385,0,0.771,0.042,1.156,0.125s0.689,0.181,0.908,0.293
		l-0.373,1.032c-0.269-0.107-0.562-0.196-0.879-0.268c-0.317-0.07-0.599-0.106-0.842-0.106c-1.632,0-2.447,1.041-2.447,3.121
		c0,0.986,0.199,1.742,0.598,2.27c0.397,0.527,0.987,0.791,1.769,0.791c0.669,0,1.354-0.144,2.058-0.432v1.076
		C583.126,181.109,582.45,181.247,581.635,181.247z" />
		<path class="st4" d="M591.062,181.101v-5.193c0-0.653-0.149-1.143-0.446-1.465c-0.299-0.322-0.765-0.482-1.399-0.482
		c-0.845,0-1.461,0.229-1.85,0.688c-0.388,0.46-0.582,1.212-0.582,2.256v4.197h-1.216v-11.396h1.216v3.449
		c0,0.416-0.02,0.76-0.059,1.033h0.073c0.239-0.386,0.58-0.689,1.021-0.912c0.442-0.222,0.946-0.333,1.513-0.333
		c0.981,0,1.718,0.233,2.208,0.699c0.491,0.467,0.736,1.208,0.736,2.224v5.236H591.062z" />
		<path class="st4" d="M598.166,181.247c-1.186,0-2.122-0.361-2.809-1.084c-0.686-0.723-1.029-1.726-1.029-3.01
		c0-1.294,0.319-2.322,0.956-3.084c0.638-0.762,1.493-1.143,2.567-1.143c1.006,0,1.802,0.331,2.388,0.992
		c0.586,0.662,0.879,1.535,0.879,2.619v0.769h-5.53c0.024,0.942,0.263,1.658,0.715,2.146c0.451,0.489,1.088,0.732,1.908,0.732
		c0.863,0,1.718-0.18,2.562-0.541v1.084c-0.43,0.186-0.836,0.318-1.219,0.398C599.171,181.207,598.709,181.247,598.166,181.247z
		 M597.837,173.945c-0.645,0-1.158,0.211-1.542,0.631c-0.383,0.42-0.609,1.001-0.678,1.742h4.197c0-0.766-0.171-1.354-0.513-1.761
		C598.96,174.149,598.472,173.945,597.837,173.945z" />
		<path class="st4" d="M606.854,172.927c0.356,0,0.676,0.029,0.959,0.088l-0.168,1.128c-0.332-0.073-0.625-0.11-0.879-0.11
		c-0.649,0-1.205,0.264-1.666,0.791c-0.462,0.527-0.692,1.185-0.692,1.971v4.307h-1.216v-8.027h1.004l0.139,1.486h0.059
		c0.298-0.521,0.656-0.925,1.076-1.208S606.351,172.927,606.854,172.927z" />
		<path class="st4" d="M610.457,173.074v5.207c0,0.655,0.148,1.143,0.447,1.465c0.297,0.322,0.764,0.484,1.398,0.484
		c0.84,0,1.454-0.229,1.842-0.689c0.389-0.458,0.582-1.208,0.582-2.248v-4.219h1.217v8.027h-1.004l-0.176-1.076h-0.066
		c-0.248,0.395-0.594,0.698-1.036,0.908c-0.441,0.209-0.946,0.314-1.513,0.314c-0.977,0-1.707-0.231-2.193-0.695
		c-0.485-0.464-0.729-1.206-0.729-2.227v-5.252H610.457z" />
		<path class="st4" d="M624.015,181.101v-5.193c0-0.653-0.149-1.143-0.446-1.465c-0.299-0.322-0.765-0.482-1.399-0.482
		c-0.84,0-1.455,0.227-1.846,0.681s-0.586,1.204-0.586,2.249v4.211h-1.216v-8.027h0.988l0.198,1.099h0.059
		c0.249-0.396,0.598-0.702,1.048-0.919c0.448-0.218,0.949-0.326,1.501-0.326c0.967,0,1.694,0.233,2.183,0.699
		c0.488,0.467,0.732,1.213,0.732,2.238v5.236H624.015z" />
		<path class="st4" d="M634.299,173.074v0.77l-1.487,0.176c0.137,0.171,0.259,0.394,0.366,0.67c0.107,0.275,0.161,0.587,0.161,0.934
		c0,0.786-0.269,1.414-0.806,1.883s-1.274,0.703-2.212,0.703c-0.239,0-0.464-0.02-0.674-0.059c-0.518,0.273-0.776,0.617-0.776,1.032
		c0,0.22,0.09,0.382,0.271,0.487c0.18,0.104,0.49,0.157,0.93,0.157h1.421c0.869,0,1.537,0.183,2.003,0.55
		c0.467,0.365,0.699,0.897,0.699,1.596c0,0.889-0.356,1.566-1.068,2.033c-0.714,0.466-1.754,0.699-3.121,0.699
		c-1.05,0-1.858-0.195-2.428-0.586c-0.568-0.391-0.854-0.942-0.854-1.655c0-0.488,0.156-0.911,0.469-1.267
		c0.312-0.356,0.752-0.599,1.318-0.726c-0.205-0.093-0.377-0.236-0.516-0.433c-0.14-0.194-0.209-0.422-0.209-0.681
		c0-0.293,0.078-0.55,0.234-0.769c0.156-0.221,0.402-0.433,0.74-0.638c-0.416-0.171-0.754-0.462-1.015-0.872
		c-0.262-0.41-0.392-0.879-0.392-1.406c0-0.879,0.264-1.556,0.791-2.032c0.527-0.476,1.273-0.714,2.24-0.714
		c0.42,0,0.799,0.049,1.136,0.146H634.299z M627.896,182.449c0,0.435,0.184,0.764,0.55,0.988s0.891,0.338,1.575,0.338
		c1.02,0,1.775-0.153,2.267-0.458c0.49-0.306,0.735-0.72,0.735-1.241c0-0.436-0.134-0.736-0.402-0.905
		c-0.269-0.168-0.774-0.253-1.516-0.253h-1.458c-0.552,0-0.981,0.133-1.289,0.396S627.896,181.955,627.896,182.449z
		 M628.557,175.644c0,0.562,0.158,0.987,0.476,1.275s0.759,0.432,1.325,0.432c1.188,0,1.78-0.576,1.78-1.729
		c0-1.206-0.601-1.809-1.802-1.809c-0.571,0-1.011,0.153-1.318,0.461S628.557,175.039,628.557,175.644z" />
	</g>
	<path class="st1" d="M606.078,62.307c1.315,17.265,2.149,34.565,2.502,51.876c0.089,4.348,0.146,8.696,0.198,13.044
	c0.016,1.286-0.196,2.906-1.423,3.292c-0.88,0.277-1.979-0.244-2.691,0.343c-0.699,0.577-0.337,1.818,0.448,2.271
	c0.785,0.453,1.761,0.352,2.657,0.215c0.896-0.137,1.853-0.287,2.677,0.09c0.055-8.491,0.109-16.983,0.163-25.474
	c0.019-2.917,0.037-5.834,0.03-8.751c-0.035-11.781,0.477-27.424,0.001-39.195c-0.017-0.433-1.049-1.117-1.39-1.385
	c-0.199-0.156-0.462-0.201-0.712-0.242l-3.442-0.554" />
	<path class="st1" d="M586.559,30.633c-0.988-0.096-1.387,1.239-1.385,2.231c0.012,9.394,1.993,14.461,8.669,21.07
	c3.971,3.929,11.252,7.964,16.525,6.928c0.226-4.529,0.453-4.174,0.679-8.704c0.035-0.703,0.067-1.43-0.185-2.088
	c-0.767-1.991-3.423-2.187-5.426-2.923c-2.78-1.022-4.713-3.507-6.492-5.875c-1.467-1.951-2.933-3.904-4.4-5.855
	c-1.041-1.386-2.112-2.8-3.566-3.741c-1.455-0.942-3.394-1.33-4.93-0.529" />
	<path class="st1" d="M597.19,110.55c1.936,0.161,3.87,0.322,5.806,0.483c0.238,0.02,0.481,0.04,0.7,0.137
	c0.947,0.419,0.816,1.792,1.267,2.724c0.59,1.217,2.236,1.687,2.713,2.953c0.535,1.417-0.69,2.929-0.568,4.439
	c0.075,0.942,0.669,1.912,0.272,2.77c-0.365,0.793-1.406,1.056-1.869,1.795c-0.283,0.452-0.307,1.013-0.324,1.547
	c-0.056,1.826-0.112,3.652-0.168,5.478c-0.723,0.297-1.444,0.595-2.167,0.892c-0.047-1.778-0.095-3.556-0.141-5.334
	c-0.033-1.217-0.058-2.475,0.404-3.601c0.461-1.127,1.547-2.092,2.762-2.013c-0.782-1.1-1.097-2.521-0.855-3.848
	c0.105-0.57,0.307-1.157,0.144-1.713c-0.128-0.438-0.461-0.777-0.749-1.13c-0.841-1.025-1.377-2.298-1.525-3.615
	c-0.992,0.114-2.006,0.226-2.981,0.015c-0.976-0.211-1.924-0.81-2.288-1.741" />
	<polyline class="st3" points="591.842,133.359 529.558,133.359 529.558,30.741 610.646,30.741 610.646,133.359 602.835,133.359 " />
	<line class="st3" x1="584.069" y1="109.915" x2="554.269" y2="109.915" />
	<line class="st3" x1="594.147" y1="39.176" x2="544.191" y2="39.176" />
	<line class="st3" x1="583.903" y1="44.45" x2="554.435" y2="44.45" />
	<line class="st3" x1="584.069" y1="114.881" x2="554.269" y2="114.881" />
	<line class="st3" x1="584.069" y1="119.848" x2="554.269" y2="119.848" />
	<path class="st1" d="M620.993,22.674c0,5.912-2.165,10.333-3.989,13.005c-1.998,2.93-4.656,5.276-6.776,5.979
	c-0.06,0.024-0.121,0.031-0.181,0.031c2.612-16.934,0-23.05,0-23.05c0.106,0,0.219,0.03,0.318,0.098
	c1.711,1.136,6.813,3.362,10.053,3.362C620.735,22.099,620.993,22.356,620.993,22.674" />
	<path class="st5" d="M586.926,29.417c0-13.1,10.62-23.72,23.72-23.72c13.099,0,23.718,10.62,23.718,23.72
	c0,13.1-10.619,23.72-23.718,23.72C597.546,53.138,586.926,42.517,586.926,29.417" />
	<path class="st1" d="M620.418,22.099c-3.24,0-8.342-2.226-10.053-3.361c-0.098-0.069-0.212-0.099-0.318-0.099
	c0,0,2.612,6.116,0,23.05c0.06,0,0.121-0.007,0.182-0.03c2.12-0.704,4.777-3.05,6.775-5.98c1.824-2.672,3.989-7.093,3.989-13.005
	C620.993,22.356,620.735,22.099,620.418,22.099" />
	<polyline class="st3" points="606.307,29.96 608.91,32.476 615.01,26.359 " />
	<path class="st2" d="M610.044,41.693c-0.062,0-0.123-0.011-0.182-0.03c-2.12-0.707-4.78-3.056-6.778-5.987
	c-1.82-2.669-3.99-7.093-3.99-13.004c0-0.318,0.258-0.577,0.576-0.577c3.243,0,8.343-2.219,10.055-3.361
	c0.193-0.129,0.446-0.129,0.639,0c1.712,1.142,6.812,3.361,10.055,3.361c0.318,0,0.577,0.259,0.577,0.577
	c0,5.911-2.171,10.333-3.991,13.004c-1.997,2.93-4.658,5.28-6.777,5.987C610.169,41.682,610.106,41.693,610.044,41.693
	L610.044,41.693z" />
	<path class="st1" d="M591.843,142.118c1.002-0.272,1.763-1.066,2.642-1.618c0.522-0.328,1.268-0.873,1.866-1.026
	c0.417-0.106,1.212-0.095,1.485,0.237c-0.541,0.256-1.464,0.92-1.794,1.42c-0.182,0.277-0.329,0.59-0.591,0.794
	c-0.269,0.212-0.621,0.277-0.943,0.392c-0.428,0.153-0.821,0.401-1.144,0.722c-0.196,0.195-0.371,0.422-0.616,0.552
	s-0.593,0.125-0.756-0.099c-0.078-0.108-0.099-0.246-0.115-0.379c-0.047-0.418-0.048-0.841-0.002-1.259" />
	<path class="st1" d="M601.385,127.097c-0.16,3.855-0.191,7.717-0.092,11.573c0.013,0.496,0.028,0.994-0.042,1.485
	c-0.047,0.334-0.177,0.712-0.496,0.819c-0.132,0.045-0.274,0.034-0.413,0.022c-0.408-0.034-0.816-0.067-1.226-0.101
	c-0.054,0.186,0.036,0.389,0.169,0.528c0.135,0.14,0.31,0.233,0.473,0.337c0.931,0.599,1.569,1.665,2.629,1.984
	c0.367-0.37,0.327-0.964,0.301-1.485c-0.066-1.274,0.102-2.548,0.193-3.822c0.276-3.892-0.171-7.803,0.028-11.699
	c-0.515,0.048-1.024,0.157-1.515,0.322" />
	<path class="st1" d="M591.911,128.551c0.906-0.02,1.813-0.039,2.72-0.059c0.167-0.003,0.339-0.006,0.496,0.051
	c0.343,0.127,0.521,0.505,0.82,0.716c0.28,0.198,0.641,0.235,0.983,0.265c0.179,0.016,0.407,0.006,0.479-0.16
	c0.054-0.123-0.014-0.262-0.08-0.379c-0.278-0.494-0.562-0.994-0.966-1.39c-0.404-0.397-0.953-0.683-1.517-0.643
	c-0.511,0.037-0.995,0.33-1.503,0.272c-0.23-0.027-0.447-0.125-0.677-0.152c-0.23-0.029-0.499,0.038-0.603,0.246
	c-0.051,0.105-0.051,0.227-0.05,0.344c0.002,0.174,0.003,0.347,0.005,0.52" />
	<path class="st1" d="M601.123,127.032c-0.017-0.812,0.443-1.795,0.854-2.495c0.997-1.699,1.68-2.212,2.523-2.472
	c-0.54-1.371-0.642-2.91-0.287-4.34c-0.944-0.4-1.715-1.143-2.271-2.005c-0.555-0.861-0.908-1.838-1.169-2.83l1.483,0.097
	c0.09,0.006,0.181,0.013,0.262,0.053c0.191,0.097,0.241,0.342,0.288,0.551c0.201,0.905,0.725,1.7,1.241,2.471
	c0.183,0.276,0.374,0.558,0.651,0.74c0.261,0.17,0.596,0.251,0.781,0.502c0.289,0.394,0.052,0.936-0.085,1.405
	c-0.169,0.582-0.166,1.2-0.16,1.806c0.002,0.265,0.006,0.536,0.101,0.783c0.105,0.274,0.321,0.508,0.365,0.799
	c0.059,0.389-0.2,0.748-0.445,1.055c-0.49,0.616-0.986,1.238-1.61,1.72c-0.173,0.135-0.359,0.259-0.504,0.424
	c-0.344,0.389-0.418,0.944-0.439,1.463c-0.005,0.124-0.014,0.262-0.106,0.344c-0.077,0.07-0.19,0.077-0.293,0.081
	c-0.33,0.014-0.66,0.029-0.991,0.042" />
	<path class="st1" d="M578.466,54.726l-0.902,3.272c-0.079,0.29-0.164,0.589-0.359,0.818c-0.298,0.352-0.799,0.468-1.259,0.436
	c-0.459-0.032-0.9-0.187-1.35-0.287c-1.023-0.225-2.084-0.164-3.13-0.1c-1.076,0.065-2.235,0.162-3.056,0.862
	c2.31-0.475,4.68,0.227,6.934,0.921c0.485,0.149,0.978,0.303,1.407,0.576c0.244,0.155,0.484,0.356,0.773,0.37
	c0.546,0.028,0.877-0.582,1.068-1.096c0.587-1.572,1.173-3.143,1.76-4.715c0.039-0.106,0.078-0.224,0.031-0.326
	c-0.043-0.091-0.144-0.14-0.236-0.181l-1.448-0.642" />
	<path class="st1" d="M566.503,60.863c-0.393,1.642,0.479,3.362,1.705,4.521c1.227,1.16,2.777,1.901,4.218,2.782
	c1.421,0.868,3.951,1.852,5.129,3.03c1.595,1.595,1.996,3.642,1.996,5.401c0,4.916-3.202,5.861-2.756,6.506
	c0.094,0.136,0.495-0.165,0.655-0.208c0.08-0.021,0.143-0.084,0.201-0.144c0.683-0.709,1.365-1.418,2.047-2.126
	c0.336-0.349,0.673-0.7,0.939-1.105c0.742-1.134,0.842-2.566,0.79-3.921c-0.032-0.851-0.119-1.715-0.426-2.51
	c-0.243-0.633-0.618-1.205-0.991-1.772c-0.443-0.673-0.889-1.35-1.443-1.934c-1.644-1.735-4.043-2.475-6.264-3.359
	c-2.222-0.883-4.533-2.146-5.446-4.355" />
	<path class="st1" d="M576.987,82.85c0.429,0.638,1.041,1.727,1.38,2.416c1.009,2.052,0.513,4.15-0.266,6.299
	c-0.777,2.149-2.458,3.955-4.545,4.886c-1.79,0.797-3.8,0.955-5.758,0.884c-0.707-0.024-1.415-0.079-2.107-0.226
	c-0.522-0.112-1.032-0.276-1.54-0.439c-1.934-0.623-3.867-1.246-5.8-1.869c-0.167,0.724-0.291,1.598,0.25,2.106
	c0.16,0.151,0.363,0.248,0.562,0.342c0.9,0.429,1.805,0.861,2.761,1.15c0.754,0.228,1.535,0.366,2.312,0.504
	c0.98,0.173,1.959,0.346,2.938,0.519c0.803,0.142,1.611,0.284,2.425,0.277c1.783-0.017,3.472-0.745,5.105-1.46
	c0.967-0.424,1.945-0.854,2.774-1.506c1.666-1.311,2.558-3.377,3.073-5.434c0.271-1.079,0.455-2.222,0.159-3.295
	c-0.18-0.649-0.527-1.238-0.896-1.802c-0.782-1.198-1.679-2.322-2.672-3.352" />
	<path class="st3" d="M557.724,75.367c0-1.232,0.414-2.436,1.242-3.61c0.827-1.174,1.992-2.214,3.493-3.118
	c-2.714-1.964-4.071-4.331-4.071-7.104c0-2.636,1.068-4.715,3.205-6.236c2.137-1.52,4.975-2.281,8.517-2.281
	c3.677,0,7.238,0.828,10.684,2.483l-2.83,6.381c-1.405-0.769-2.815-1.376-4.23-1.818c-1.415-0.444-2.652-0.665-3.711-0.665
	c-2.078,0-3.118,0.713-3.118,2.136c0,0.829,0.438,1.588,1.315,2.282c0.875,0.693,2.111,1.367,3.71,2.021
	c3.368,1.367,5.798,2.829,7.29,4.389c1.491,1.558,2.238,3.272,2.238,5.14c0,1.482-0.309,2.805-0.924,3.969
	c-0.616,1.165-1.732,2.324-3.349,3.48c2.406,1.809,3.609,4.157,3.609,7.045c0,2.868-1.122,5.153-3.364,6.857
	c-2.242,1.703-5.318,2.556-9.225,2.556c-3.927,0-7.315-0.828-10.164-2.484v-7.045c1.521,0.847,3.273,1.579,5.255,2.195
	s3.639,0.924,4.967,0.924c2.675,0,4.012-0.924,4.012-2.773c0-0.807-0.297-1.506-0.894-2.093c-0.597-0.587-1.935-1.342-4.014-2.266
	c-2.714-1.213-4.691-2.29-5.932-3.234c-1.243-0.943-2.171-1.983-2.788-3.119C558.031,78.244,557.724,76.907,557.724,75.367z
	 M566.126,74.471c0,0.981,0.423,1.858,1.271,2.627c0.846,0.77,2.338,1.714,4.475,2.83c0.789-0.904,1.184-1.935,1.184-3.09
	c0-1.096-0.405-2.059-1.213-2.887c-0.809-0.827-2.156-1.635-4.042-2.425C566.684,72.142,566.126,73.124,566.126,74.471z" />
	<polyline class="st3" points="602.835,127.195 602.835,144.001 597.322,139.958 591.811,144.001 591.811,127.195 " />
	<path class="st3" d="M605.984,122.679c-2.781,1.015-3.118,3.396-3.149,4.224c-0.01,0.182,0,0.292,0,0.292h-3.524l-1.989,1.743
	l-1.989-1.743h-3.523c0,0,0.009-0.11,0-0.292c-0.032-0.828-0.369-3.204-3.154-4.224c2.08-2.968,0-5.513,0-5.513
	c2.785-1.019,3.122-3.395,3.154-4.223c0.009-0.182,0-0.291,0-0.291h3.523l1.989-1.744l1.989,1.744h3.524c0,0-0.01,0.109,0,0.291
	c0.031,0.828,0.368,3.209,3.149,4.223C605.984,117.166,603.909,119.711,605.984,122.679z" />
	<path class="st6" d="M211.102,96.266c-1.236,0-1.705-1.614-0.662-2.276l17.838-11.32c0.26-0.161,0.641-0.254,1.045-0.254
	c0.404,0,0.785,0.093,1.045,0.254l17.543,11.323c1.033,0.668,0.561,2.271-0.67,2.271L211.102,96.266z" />
	<path class="st2" d="M211.102,96.266c-1.236,0-1.705-1.614-0.662-2.276l17.838-11.32c0.26-0.161,0.641-0.254,1.045-0.254
	c0.404,0,0.785,0.093,1.045,0.254l17.543,11.323c1.033,0.668,0.561,2.271-0.67,2.271L211.102,96.266z" />
	<path class="st6" d="M208.855,124.582c-0.491,0-0.89-0.4-0.89-0.891v-2.67c0-0.49,0.399-0.889,0.89-0.889h40.936
	c0.491,0,0.89,0.399,0.89,0.889v2.67c0,0.491-0.399,0.891-0.89,0.891H208.855z" />
	<path class="st2" d="M208.855,124.582c-0.491,0-0.89-0.4-0.89-0.891v-2.67c0-0.49,0.399-0.889,0.89-0.889h40.936
	c0.491,0,0.89,0.399,0.89,0.889v2.67c0,0.491-0.399,0.891-0.89,0.891H208.855z" />
	<path class="st6" d="M243.562,115.683V96.428c0-0.056-0.011-0.107-0.016-0.162h-5.307c-0.005,0.055-0.016,0.106-0.016,0.162v19.255
	H243.562z" />
	<path class="st2" d="M243.562,115.683V96.428c0-0.056-0.011-0.107-0.016-0.162h-5.307c-0.005,0.055-0.016,0.106-0.016,0.162v19.255
	H243.562z" />
	<path class="st6" d="M231.993,115.683V96.428c0-0.056-0.011-0.107-0.016-0.162h-5.307c-0.005,0.055-0.016,0.106-0.016,0.162v19.255
	H231.993z" />
	<path class="st2" d="M231.993,115.683V96.428c0-0.056-0.011-0.107-0.016-0.162h-5.307c-0.005,0.055-0.016,0.106-0.016,0.162v19.255
	H231.993z" />
	<rect x="215.085" y="96.264" class="st6" width="5.339" height="19.418" />
	<rect x="215.085" y="96.264" class="st2" width="5.339" height="19.418" />
	<path class="st6" d="M211.525,120.132c-0.491,0-0.89-0.399-0.89-0.89v-2.67c0-0.49,0.399-0.889,0.89-0.889h35.596
	c0.492,0,0.89,0.399,0.89,0.889v2.67c0,0.491-0.398,0.89-0.89,0.89H211.525z" />
	<path class="st2" d="M211.525,120.132c-0.491,0-0.89-0.399-0.89-0.89v-2.67c0-0.49,0.399-0.889,0.89-0.889h35.596
	c0.492,0,0.89,0.399,0.89,0.889v2.67c0,0.491-0.398,0.89-0.89,0.89H211.525z" />
	<polygon class="st1" points="227.163,83.508 228.649,82.545 229.675,82.481 230.368,82.67 248.267,94.212 248.458,94.917 
	248.202,95.687 246.879,96.262 " />
	<path class="st1" d="M249.768,124.599h-40.954c-0.481,0-0.871-0.39-0.871-0.871v-0.847h42.696v0.847
	C250.639,124.209,250.249,124.599,249.768,124.599" />
	<path class="st1" d="M247.183,119.984h-35.847c-0.481,0-0.871-0.391-0.871-0.871v-0.848h37.589v0.848
	C248.053,119.593,247.663,119.984,247.183,119.984" />
	<rect x="241.416" y="96.327" class="st1" width="2.116" height="19.297" />
	<rect x="229.877" y="96.327" class="st1" width="2.116" height="19.297" />
	<rect x="218.209" y="96.327" class="st1" width="2.116" height="19.297" />
	<path class="st2" d="M211.102,96.266c-1.236,0-1.705-1.614-0.662-2.276l17.838-11.32c0.26-0.161,0.641-0.254,1.045-0.254
	c0.404,0,0.785,0.093,1.045,0.254l17.543,11.323c1.033,0.668,0.561,2.271-0.67,2.271L211.102,96.266z" />
	<path class="st2" d="M208.855,124.582c-0.491,0-0.89-0.4-0.89-0.891v-2.67c0-0.49,0.399-0.889,0.89-0.889h40.936
	c0.491,0,0.89,0.399,0.89,0.889v2.67c0,0.491-0.399,0.891-0.89,0.891H208.855z" />
	<path class="st2" d="M243.562,115.683V96.428c0-0.056-0.011-0.107-0.016-0.162h-5.307c-0.005,0.055-0.016,0.106-0.016,0.162v19.255
	H243.562z" />
	<path class="st2" d="M231.993,115.683V96.428c0-0.056-0.011-0.107-0.016-0.162h-5.307c-0.005,0.055-0.016,0.106-0.016,0.162v19.255
	H231.993z" />
	<rect x="215.085" y="96.264" class="st2" width="5.339" height="19.418" />
	<path class="st2" d="M211.525,120.132c-0.491,0-0.89-0.399-0.89-0.89v-2.67c0-0.49,0.399-0.889,0.89-0.889h35.596
	c0.492,0,0.89,0.399,0.89,0.889v2.67c0,0.491-0.398,0.89-0.89,0.89H211.525z" />
	<path class="st6" d="M121.542,96.375c-1.235,0-1.705-1.614-0.661-2.276l17.838-11.32c0.26-0.161,0.64-0.253,1.044-0.253
	c0.404,0,0.785,0.092,1.045,0.253l17.543,11.324c1.034,0.667,0.561,2.27-0.669,2.27L121.542,96.375z" />
	<path class="st2" d="M121.542,96.375c-1.235,0-1.705-1.614-0.661-2.276l17.838-11.32c0.26-0.161,0.64-0.253,1.044-0.253
	c0.404,0,0.785,0.092,1.045,0.253l17.543,11.324c1.034,0.667,0.561,2.27-0.669,2.27L121.542,96.375z" />
	<path class="st6" d="M119.295,124.692c-0.491,0-0.89-0.399-0.89-0.891v-2.669c0-0.49,0.399-0.89,0.89-0.89h40.936
	c0.491,0,0.89,0.4,0.89,0.89v2.669c0,0.492-0.399,0.891-0.89,0.891H119.295z" />
	<path class="st2" d="M119.295,124.692c-0.491,0-0.89-0.399-0.89-0.891v-2.669c0-0.49,0.399-0.89,0.89-0.89h40.936
	c0.491,0,0.89,0.4,0.89,0.89v2.669c0,0.492-0.399,0.891-0.89,0.891H119.295z" />
	<path class="st6" d="M154.002,115.792V96.538c0-0.056-0.012-0.108-0.016-0.162h-5.307c-0.005,0.054-0.016,0.106-0.016,0.162v19.254
	H154.002z" />
	<path class="st2" d="M154.002,115.792V96.538c0-0.056-0.012-0.108-0.016-0.162h-5.307c-0.005,0.054-0.016,0.106-0.016,0.162v19.254
	H154.002z" />
	<path class="st6" d="M142.433,115.792V96.538c0-0.056-0.012-0.108-0.017-0.162h-5.306c-0.005,0.054-0.016,0.106-0.016,0.162v19.254
	H142.433z" />
	<path class="st2" d="M142.433,115.792V96.538c0-0.056-0.012-0.108-0.017-0.162h-5.306c-0.005,0.054-0.016,0.106-0.016,0.162v19.254
	H142.433z" />
	<rect x="125.525" y="96.376" class="st6" width="5.339" height="19.417" />
	<rect x="125.525" y="96.376" class="st2" width="5.339" height="19.417" />
	<path class="st6" d="M121.965,120.242c-0.491,0-0.89-0.399-0.89-0.89v-2.67c0-0.49,0.399-0.889,0.89-0.889h35.596
	c0.491,0,0.89,0.399,0.89,0.889v2.67c0,0.491-0.399,0.89-0.89,0.89H121.965z" />
	<path class="st2" d="M121.965,120.242c-0.491,0-0.89-0.399-0.89-0.89v-2.67c0-0.49,0.399-0.889,0.89-0.889h35.596
	c0.491,0,0.89,0.399,0.89,0.889v2.67c0,0.491-0.399,0.89-0.89,0.89H121.965z" />
	<polygon class="st1" points="137.603,83.617 139.089,82.655 140.115,82.591 140.808,82.78 158.706,94.322 158.898,95.027 
	158.642,95.797 157.319,96.371 " />
	<path class="st1" d="M160.208,124.708h-40.954c-0.481,0-0.871-0.39-0.871-0.87v-0.848h42.696v0.848
	C161.079,124.319,160.689,124.708,160.208,124.708" />
	<path class="st1" d="M157.622,120.093h-35.846c-0.481,0-0.871-0.39-0.871-0.871v-0.847h37.588v0.847
	C158.493,119.703,158.103,120.093,157.622,120.093" />
	<rect x="151.856" y="96.438" class="st1" width="2.116" height="19.296" />
	<rect x="140.316" y="96.438" class="st1" width="2.116" height="19.296" />
	<rect x="128.649" y="96.438" class="st1" width="2.116" height="19.296" />
	<path class="st2" d="M121.542,96.375c-1.235,0-1.705-1.614-0.661-2.276l17.838-11.32c0.26-0.161,0.64-0.253,1.044-0.253
	c0.404,0,0.785,0.092,1.045,0.253l17.543,11.324c1.034,0.667,0.561,2.27-0.669,2.27L121.542,96.375z" />
	<path class="st2" d="M119.295,124.692c-0.491,0-0.89-0.399-0.89-0.891v-2.669c0-0.49,0.399-0.89,0.89-0.89h40.936
	c0.491,0,0.89,0.4,0.89,0.89v2.669c0,0.492-0.399,0.891-0.89,0.891H119.295z" />
	<path class="st2" d="M154.002,115.792V96.538c0-0.056-0.012-0.108-0.016-0.162h-5.307c-0.005,0.054-0.016,0.106-0.016,0.162v19.254
	H154.002z" />
	<path class="st2" d="M142.433,115.792V96.538c0-0.056-0.012-0.108-0.017-0.162h-5.306c-0.005,0.054-0.016,0.106-0.016,0.162v19.254
	H142.433z" />
	<rect x="125.525" y="96.376" class="st2" width="5.339" height="19.417" />
	<path class="st2" d="M121.965,120.242c-0.491,0-0.89-0.399-0.89-0.89v-2.67c0-0.49,0.399-0.889,0.89-0.889h35.596
	c0.491,0,0.89,0.399,0.89,0.889v2.67c0,0.491-0.399,0.89-0.89,0.89H121.965z" />
	<path class="st6" d="M166.322,111.327c-1.235,0-1.705-1.614-0.661-2.276l17.837-11.32c0.261-0.161,0.641-0.254,1.045-0.254
	c0.404,0,0.785,0.093,1.045,0.254l17.543,11.323c1.034,0.668,0.561,2.271-0.669,2.271L166.322,111.327z" />
	<path class="st2" d="M166.322,111.327c-1.235,0-1.705-1.614-0.661-2.276l17.837-11.32c0.261-0.161,0.641-0.254,1.045-0.254
	c0.404,0,0.785,0.093,1.045,0.254l17.543,11.323c1.034,0.668,0.561,2.271-0.669,2.271L166.322,111.327z" />
	<path class="st6" d="M164.076,139.643c-0.491,0-0.89-0.399-0.89-0.89v-2.67c0-0.49,0.399-0.889,0.89-0.889h40.936
	c0.491,0,0.89,0.399,0.89,0.889v2.67c0,0.491-0.399,0.89-0.89,0.89H164.076z" />
	<path class="st2" d="M164.076,139.643c-0.491,0-0.89-0.399-0.89-0.89v-2.67c0-0.49,0.399-0.889,0.89-0.889h40.936
	c0.491,0,0.89,0.399,0.89,0.889v2.67c0,0.491-0.399,0.89-0.89,0.89H164.076z" />
	<path class="st6" d="M198.782,130.744V111.49c0-0.056-0.012-0.107-0.017-0.162h-5.306c-0.005,0.055-0.017,0.106-0.017,0.162v19.255
	H198.782z" />
	<path class="st2" d="M198.782,130.744V111.49c0-0.056-0.012-0.107-0.017-0.162h-5.306c-0.005,0.055-0.017,0.106-0.017,0.162v19.255
	H198.782z" />
	<path class="st6" d="M187.213,130.744V111.49c0-0.056-0.012-0.107-0.017-0.162h-5.306c-0.005,0.055-0.017,0.106-0.017,0.162v19.255
	H187.213z" />
	<path class="st2" d="M187.213,130.744V111.49c0-0.056-0.012-0.107-0.017-0.162h-5.306c-0.005,0.055-0.017,0.106-0.017,0.162v19.255
	H187.213z" />
	<rect x="170.304" y="111.326" class="st6" width="5.34" height="19.418" />
	<rect x="170.304" y="111.326" class="st2" width="5.34" height="19.418" />
	<path class="st6" d="M166.745,135.194c-0.491,0-0.89-0.399-0.89-0.89v-2.67c0-0.49,0.399-0.889,0.89-0.889h35.597
	c0.491,0,0.889,0.399,0.889,0.889v2.67c0,0.491-0.398,0.89-0.889,0.89H166.745z" />
	<path class="st2" d="M166.745,135.194c-0.491,0-0.89-0.399-0.89-0.89v-2.67c0-0.49,0.399-0.889,0.89-0.889h35.597
	c0.491,0,0.889,0.399,0.889,0.889v2.67c0,0.491-0.398,0.89-0.889,0.89H166.745z" />
	<polygon class="st1" points="182.383,98.57 183.87,97.607 184.895,97.543 185.588,97.732 203.487,109.274 203.679,109.979 
	203.423,110.749 202.099,111.323 " />
	<path class="st1" d="M204.988,139.66h-40.954c-0.481,0-0.87-0.39-0.87-0.871v-0.847h42.695v0.847
	C205.859,139.271,205.469,139.66,204.988,139.66" />
	<path class="st1" d="M202.402,135.045h-35.847c-0.481,0-0.87-0.391-0.87-0.871v-0.848h37.588v0.848
	C203.273,134.655,202.883,135.045,202.402,135.045" />
	<rect x="196.636" y="111.388" class="st1" width="2.116" height="19.297" />
	<rect x="185.097" y="111.388" class="st1" width="2.116" height="19.297" />
	<rect x="173.429" y="111.388" class="st1" width="2.116" height="19.297" />
	<path class="st2" d="M166.322,111.327c-1.235,0-1.705-1.614-0.661-2.276l17.837-11.32c0.261-0.161,0.641-0.254,1.045-0.254
	c0.404,0,0.785,0.093,1.045,0.254l17.543,11.323c1.034,0.668,0.561,2.271-0.669,2.271L166.322,111.327z" />
	<path class="st2" d="M164.076,139.643c-0.491,0-0.89-0.399-0.89-0.89v-2.67c0-0.49,0.399-0.889,0.89-0.889h40.936
	c0.491,0,0.89,0.399,0.89,0.889v2.67c0,0.491-0.399,0.89-0.89,0.89H164.076z" />
	<path class="st2" d="M198.782,130.744V111.49c0-0.056-0.012-0.107-0.017-0.162h-5.306c-0.005,0.055-0.017,0.106-0.017,0.162v19.255
	H198.782z" />
	<path class="st2" d="M187.213,130.744V111.49c0-0.056-0.012-0.107-0.017-0.162h-5.306c-0.005,0.055-0.017,0.106-0.017,0.162v19.255
	H187.213z" />
	<rect x="170.304" y="111.326" class="st2" width="5.34" height="19.418" />
	<path class="st2" d="M166.745,135.194c-0.491,0-0.89-0.399-0.89-0.89v-2.67c0-0.49,0.399-0.889,0.89-0.889h35.597
	c0.491,0,0.889,0.399,0.889,0.889v2.67c0,0.491-0.398,0.89-0.889,0.89H166.745z" />
	<path class="st1" d="M197.298,23.723c1.552,2.129,2.13,4.941,1.542,7.51c-0.308,1.349-0.913,2.608-1.514,3.855
	c-0.641,1.33-1.283,2.661-1.924,3.992c0.271,0.281,0.741,0.075,1.061-0.15c2.082-1.457,3.967-3.259,5.213-5.474
	c1.247-2.213,1.81-4.873,1.227-7.345c-0.387-1.646-1.25-3.133-2.118-4.583c-0.287-0.479-0.621-0.993-1.154-1.156
	c-0.487-0.148-1.003,0.038-1.503,0.138c-0.499,0.1-1.111,0.066-1.389-0.362c-0.563,1.415-0.35,3.113,0.546,4.345" />
	<path class="st1" d="M169.091,20.8c-0.879,0.684-1.611,1.82-2.216,2.757c-0.145,0.223-0.53,0.645-0.548,0.911
	c-0.023,0.341-0.29,0.163-0.118,0.458l1.529,2.625c0.902,1.549,1.848,3.146,3.312,4.181c2.075,1.464,5.062,1.487,7.159,0.053
	c-1.245-0.418-2.453-0.943-3.608-1.568c-1.215-0.657-2.436-1.503-2.959-2.782c-0.755-1.848,0.169-3.9,0.838-5.781
	c0.114-0.32,0.21-0.712-0.01-0.973c-0.108-0.128-0.271-0.193-0.429-0.247c-1.02-0.351-2.13-0.438-3.192-0.251" />
	<path class="st1" d="M188.359,17.643c0.16,0.104,0.286,0.253,0.397,0.409c0.996,1.391,0.907,3.334,0.215,4.899
	c-0.691,1.565-1.895,2.837-3.076,4.075l-4.113,4.312c-0.338,0.355-0.691,0.719-1.146,0.902c-0.454,0.182-1.042,0.13-1.346-0.254
	c-0.506-0.638,0.072-1.544,0.627-2.14c0.852-0.916,1.705-1.832,2.558-2.748c0.4-0.429,0.81-1.101,0.418-1.538
	c-0.155-0.171-0.391-0.237-0.612-0.305c-0.427-0.131-0.861-0.31-1.153-0.648c-0.292-0.339-0.396-0.876-0.13-1.235
	c0.527-0.712,1.945-0.234,2.344-1.025c0.2-0.395-0.012-0.876-0.29-1.22c-0.672-0.833-1.764-1.307-2.832-1.231
	c-0.254,0.018-0.533,0.06-0.743-0.084c-0.126-0.087-0.599-0.764-0.656-0.906c-0.496-1.257,1.109-2.294,2.451-2.135
	c0.366,0.044,0.719,0.19,1.088,0.186c0.635-0.006,1.174-0.447,1.775-0.651c1.44-0.488,2.945,0.423,4.193,1.292" />
	<path class="st1" d="M188.231,41.474c-0.505-0.319-1.114,0.222-1.421,0.734c-1.272,2.121-1.621,4.775-0.942,7.153
	c0.134,0.467,0.306,0.933,0.31,1.42c0.003,0.439-0.132,0.866-0.179,1.302c-0.164,1.514,0.718,2.921,1.563,4.188
	c0.173,0.26,0.364,0.533,0.655,0.645c0.651,0.249,1.25-0.421,1.701-0.953c0.912-1.072,2.144-1.87,3.497-2.261
	c-0.913-1.148-1.825-2.295-2.737-3.443c-0.392-0.493-0.788-0.992-1.053-1.563c-0.306-0.66-0.425-1.389-0.541-2.108
	c-0.261-1.617-0.521-3.235-0.782-4.852c-0.03-0.187,0.225-0.436,0.247-0.249" />
	<line class="st3" x1="165.671" y1="29.544" x2="159.142" y2="39.031" />
	<line class="st3" x1="167.587" y1="34.301" x2="159.88" y2="45.497" />
	<line class="st3" x1="170.613" y1="37.613" x2="161.897" y2="50.276" />
	<line class="st3" x1="173.998" y1="40.046" x2="164.233" y2="54.233" />
	<line class="st3" x1="178.485" y1="41.649" x2="167.152" y2="58.114" />
	<line class="st3" x1="177.663" y1="55.074" x2="171.203" y2="64.46" />
	<line class="st3" x1="169.591" y1="60.013" x2="179.849" y2="59.87" />
	<line class="st3" x1="174.791" y1="59.941" x2="175.575" y2="65.784" />
	<line class="st3" x1="167.366" y1="20.599" x2="176.144" y2="20.156" />
	<line class="st3" x1="203.393" y1="29.521" x2="209.922" y2="39.006" />
	<line class="st3" x1="201.478" y1="34.277" x2="209.185" y2="45.474" />
	<line class="st3" x1="198.452" y1="37.588" x2="207.167" y2="50.251" />
	<line class="st3" x1="195.067" y1="40.023" x2="204.832" y2="54.209" />
	<line class="st3" x1="190.58" y1="41.624" x2="201.913" y2="58.09" />
	<line class="st3" x1="191.401" y1="55.049" x2="197.861" y2="64.435" />
	<path class="st3" d="M180.059,67.866c2.509-4.52,3.697-9.868,2.861-14.97c-0.705,1.532-1.598,2.977-2.652,4.293
	c-1.533-1.427-3.247-2.66-5.089-3.658c1.705-0.999,2.928-2.655,3.873-4.391c1.239-2.277,2.084-5.004,1.221-7.45
	c-4.646-0.233-8.914-2.968-11.833-6.589c-0.761-0.943-1.448-1.956-1.931-3.067c-1.639-3.773-0.54-8.555,2.582-11.233" />
	<path class="st3" d="M199.974,20.776c3.122,2.679,4.221,7.46,2.582,11.233c-0.483,1.112-1.17,2.124-1.931,3.069
	c-2.919,3.621-7.188,6.354-11.833,6.589c-0.863,2.445-0.018,5.171,1.221,7.449c0.945,1.736,2.168,3.391,3.873,4.39
	c-1.842,0.999-3.557,2.231-5.09,3.659c-1.053-1.316-1.946-2.761-2.652-4.293c-0.835,5.102,0.352,10.45,2.862,14.97" />
	<line class="st3" x1="199.474" y1="59.989" x2="189.216" y2="59.847" />
	<line class="st3" x1="194.274" y1="59.916" x2="193.49" y2="65.76" />
	<path class="st3" d="M195.485,20.523c5.984,7.766-2.988,11.014-5.521,11.03c-0.787-1.14-1.548-2.325-1.649-3.708
	c-0.07-0.951,0.207-1.889,0.481-2.803c0.272-0.905,0.543-1.809,0.814-2.713c0.121-0.404,0.243-0.812,0.259-1.232
	c0.018-0.464-0.093-0.923-0.23-1.365c-0.176-0.568-0.396-1.122-0.656-1.656" />
	<line class="st3" x1="201.504" y1="20.535" x2="192.921" y2="20.132" />
	<path class="st3" d="M190.169,16.537c-0.404,0.198-0.815,0.398-1.259,0.476c-0.626,0.108-1.264-0.038-1.882-0.182
	c-0.521-0.122-1.043-0.243-1.564-0.365c-0.434-0.102-0.88-0.204-1.323-0.147c-0.442,0.058-0.888,0.311-1.046,0.728
	c-1.024-0.533-2.276-0.61-3.358-0.205c-0.54,0.202-1.084,0.586-1.178,1.155c-0.084,0.501,0.204,0.981,0.479,1.408
	c0.147,0.228,0.294,0.455,0.442,0.684c0.579-0.355,1.569-0.269,2.21-0.044c0.642,0.223,1.182,0.692,1.561,1.256
	c0.196,0.293,0.356,0.624,0.374,0.976c0.017,0.353-0.132,0.729-0.435,0.908c-0.293,0.175-0.66,0.14-0.999,0.1
	c-0.873-0.103-1.746-0.207-2.62-0.311c1.163,1.112,2.467,2.076,3.869,2.864c0,0-3.729,3.513-4.338,5.739
	c-2.534-0.017-11.506-3.266-5.522-11.03" />
	<path class="st3" d="M186.26,19.443c0,0.079-0.063,0.143-0.143,0.143c-0.078,0-0.142-0.064-0.142-0.143
	c0-0.078,0.064-0.142,0.142-0.142C186.197,19.301,186.26,19.365,186.26,19.443z" />
	<path class="st3" d="M184.004,65.96c-0.23,0.902-0.566,1.778-1.001,2.602" />
	<path class="st3" d="M185.251,65.96c0.23,0.902,0.566,1.778,1.001,2.602" />
	<line class="st3" x1="166.749" y1="65.667" x2="152.382" y2="80.255" />
	<polyline class="st3" points="152.382,75.3 151.942,80.475 157.336,80.144 " />
	<line class="st3" x1="203.829" y1="65.667" x2="218.196" y2="80.255" />
	<polyline class="st3" points="218.196,75.3 218.636,80.475 213.242,80.144 " />
	<line class="st3" x1="184.701" y1="73.8" x2="184.701" y2="92.525" />
	<polyline class="st3" points="188.071,89.009 184.7,92.991 181.142,88.955 " />
	<path class="st6" d="M413.23,96.266c-1.235,0-1.704-1.614-0.661-2.276l17.838-11.32c0.26-0.161,0.64-0.254,1.044-0.254
	c0.404,0,0.785,0.093,1.045,0.254l17.543,11.323c1.034,0.668,0.561,2.271-0.669,2.271L413.23,96.266z" />
	<path class="st2" d="M413.23,96.266c-1.235,0-1.704-1.614-0.661-2.276l17.838-11.32c0.26-0.161,0.64-0.254,1.044-0.254
	c0.404,0,0.785,0.093,1.045,0.254l17.543,11.323c1.034,0.668,0.561,2.271-0.669,2.271L413.23,96.266z" />
	<path class="st6" d="M410.983,124.582c-0.491,0-0.89-0.4-0.89-0.891v-2.67c0-0.49,0.399-0.889,0.89-0.889h40.937
	c0.491,0,0.889,0.399,0.889,0.889v2.67c0,0.491-0.398,0.891-0.889,0.891H410.983z" />
	<path class="st2" d="M410.983,124.582c-0.491,0-0.89-0.4-0.89-0.891v-2.67c0-0.49,0.399-0.889,0.89-0.889h40.937
	c0.491,0,0.889,0.399,0.889,0.889v2.67c0,0.491-0.398,0.891-0.889,0.891H410.983z" />
	<path class="st6" d="M445.69,115.683V96.428c0-0.056-0.012-0.107-0.017-0.162h-5.306c-0.005,0.055-0.017,0.106-0.017,0.162v19.255
	H445.69z" />
	<path class="st2" d="M445.69,115.683V96.428c0-0.056-0.012-0.107-0.017-0.162h-5.306c-0.005,0.055-0.017,0.106-0.017,0.162v19.255
	H445.69z" />
	<path class="st6" d="M434.121,115.683V96.428c0-0.056-0.012-0.107-0.016-0.162h-5.307c-0.005,0.055-0.016,0.106-0.016,0.162v19.255
	H434.121z" />
	<path class="st2" d="M434.121,115.683V96.428c0-0.056-0.012-0.107-0.016-0.162h-5.307c-0.005,0.055-0.016,0.106-0.016,0.162v19.255
	H434.121z" />
	<rect x="417.212" y="96.264" class="st6" width="5.34" height="19.418" />
	<rect x="417.212" y="96.264" class="st2" width="5.34" height="19.418" />
	<path class="st6" d="M413.653,120.132c-0.491,0-0.89-0.399-0.89-0.89v-2.67c0-0.49,0.399-0.889,0.89-0.889h35.597
	c0.491,0,0.889,0.399,0.889,0.889v2.67c0,0.491-0.398,0.89-0.889,0.89H413.653z" />
	<path class="st2" d="M413.653,120.132c-0.491,0-0.89-0.399-0.89-0.89v-2.67c0-0.49,0.399-0.889,0.89-0.889h35.597
	c0.491,0,0.889,0.399,0.889,0.889v2.67c0,0.491-0.398,0.89-0.889,0.89H413.653z" />
	<polygon class="st1" points="429.292,83.508 430.778,82.545 431.804,82.481 432.496,82.67 450.395,94.212 450.587,94.917 
	450.331,95.687 449.008,96.262 " />
	<path class="st1" d="M451.896,124.599h-40.954c-0.481,0-0.871-0.39-0.871-0.871v-0.847h42.695v0.847
	C452.766,124.209,452.376,124.599,451.896,124.599" />
	<path class="st1" d="M449.31,119.984h-35.847c-0.48,0-0.871-0.391-0.871-0.871v-0.848h37.589v0.848
	C450.181,119.593,449.79,119.984,449.31,119.984" />
	<rect x="443.544" y="96.327" class="st1" width="2.116" height="19.297" />
	<rect x="432.004" y="96.327" class="st1" width="2.116" height="19.297" />
	<rect x="420.337" y="96.327" class="st1" width="2.116" height="19.297" />
	<path class="st2" d="M413.23,96.266c-1.235,0-1.704-1.614-0.661-2.276l17.838-11.32c0.26-0.161,0.64-0.254,1.044-0.254
	c0.404,0,0.785,0.093,1.045,0.254l17.543,11.323c1.034,0.668,0.561,2.271-0.669,2.271L413.23,96.266z" />
	<path class="st2" d="M410.983,124.582c-0.491,0-0.89-0.4-0.89-0.891v-2.67c0-0.49,0.399-0.889,0.89-0.889h40.937
	c0.491,0,0.889,0.399,0.889,0.889v2.67c0,0.491-0.398,0.891-0.889,0.891H410.983z" />
	<path class="st2" d="M445.69,115.683V96.428c0-0.056-0.012-0.107-0.017-0.162h-5.306c-0.005,0.055-0.017,0.106-0.017,0.162v19.255
	H445.69z" />
	<path class="st2" d="M434.121,115.683V96.428c0-0.056-0.012-0.107-0.016-0.162h-5.307c-0.005,0.055-0.016,0.106-0.016,0.162v19.255
	H434.121z" />
	<rect x="417.212" y="96.264" class="st2" width="5.34" height="19.418" />
	<path class="st2" d="M413.653,120.132c-0.491,0-0.89-0.399-0.89-0.89v-2.67c0-0.49,0.399-0.889,0.89-0.889h35.597
	c0.491,0,0.889,0.399,0.889,0.889v2.67c0,0.491-0.398,0.89-0.889,0.89H413.653z" />
	<path class="st6" d="M323.67,96.375c-1.236,0-1.705-1.614-0.662-2.276l17.838-11.32c0.26-0.161,0.641-0.253,1.045-0.253
	c0.404,0,0.785,0.092,1.045,0.253l17.543,11.324c1.033,0.667,0.561,2.27-0.67,2.27L323.67,96.375z" />
	<path class="st2" d="M323.67,96.375c-1.236,0-1.705-1.614-0.662-2.276l17.838-11.32c0.26-0.161,0.641-0.253,1.045-0.253
	c0.404,0,0.785,0.092,1.045,0.253l17.543,11.324c1.033,0.667,0.561,2.27-0.67,2.27L323.67,96.375z" />
	<path class="st6" d="M321.423,124.692c-0.491,0-0.89-0.399-0.89-0.891v-2.669c0-0.49,0.399-0.89,0.89-0.89h40.936
	c0.491,0,0.89,0.4,0.89,0.89v2.669c0,0.492-0.399,0.891-0.89,0.891H321.423z" />
	<path class="st2" d="M321.423,124.692c-0.491,0-0.89-0.399-0.89-0.891v-2.669c0-0.49,0.399-0.89,0.89-0.89h40.936
	c0.491,0,0.89,0.4,0.89,0.89v2.669c0,0.492-0.399,0.891-0.89,0.891H321.423z" />
	<path class="st6" d="M356.13,115.792V96.538c0-0.056-0.011-0.108-0.016-0.162h-5.307c-0.005,0.054-0.016,0.106-0.016,0.162v19.254
	H356.13z" />
	<path class="st2" d="M356.13,115.792V96.538c0-0.056-0.011-0.108-0.016-0.162h-5.307c-0.005,0.054-0.016,0.106-0.016,0.162v19.254
	H356.13z" />
	<path class="st6" d="M344.561,115.792V96.538c0-0.056-0.012-0.108-0.016-0.162h-5.307c-0.005,0.054-0.016,0.106-0.016,0.162v19.254
	H344.561z" />
	<path class="st2" d="M344.561,115.792V96.538c0-0.056-0.012-0.108-0.016-0.162h-5.307c-0.005,0.054-0.016,0.106-0.016,0.162v19.254
	H344.561z" />
	<rect x="327.653" y="96.376" class="st6" width="5.339" height="19.417" />
	<rect x="327.653" y="96.376" class="st2" width="5.339" height="19.417" />
	<path class="st6" d="M324.093,120.242c-0.491,0-0.89-0.399-0.89-0.89v-2.67c0-0.49,0.399-0.889,0.89-0.889h35.596
	c0.491,0,0.89,0.399,0.89,0.889v2.67c0,0.491-0.399,0.89-0.89,0.89H324.093z" />
	<path class="st2" d="M324.093,120.242c-0.491,0-0.89-0.399-0.89-0.89v-2.67c0-0.49,0.399-0.889,0.89-0.889h35.596
	c0.491,0,0.89,0.399,0.89,0.889v2.67c0,0.491-0.399,0.89-0.89,0.89H324.093z" />
	<polygon class="st1" points="339.731,83.617 341.217,82.655 342.243,82.591 342.936,82.78 360.834,94.322 361.026,95.027 
	360.77,95.797 359.447,96.371 " />
	<path class="st1" d="M362.336,124.708h-40.954c-0.481,0-0.871-0.39-0.871-0.87v-0.848h42.696v0.848
	C363.207,124.319,362.817,124.708,362.336,124.708" />
	<path class="st1" d="M359.75,120.093h-35.847c-0.481,0-0.871-0.39-0.871-0.871v-0.847h37.589v0.847
	C360.621,119.703,360.231,120.093,359.75,120.093" />
	<rect x="353.984" y="96.438" class="st1" width="2.116" height="19.296" />
	<rect x="342.445" y="96.438" class="st1" width="2.116" height="19.296" />
	<rect x="330.777" y="96.438" class="st1" width="2.116" height="19.296" />
	<path class="st2" d="M323.67,96.375c-1.236,0-1.705-1.614-0.662-2.276l17.838-11.32c0.26-0.161,0.641-0.253,1.045-0.253
	c0.404,0,0.785,0.092,1.045,0.253l17.543,11.324c1.033,0.667,0.561,2.27-0.67,2.27L323.67,96.375z" />
	<path class="st2" d="M321.423,124.692c-0.491,0-0.89-0.399-0.89-0.891v-2.669c0-0.49,0.399-0.89,0.89-0.89h40.936
	c0.491,0,0.89,0.4,0.89,0.89v2.669c0,0.492-0.399,0.891-0.89,0.891H321.423z" />
	<path class="st2" d="M356.13,115.792V96.538c0-0.056-0.011-0.108-0.016-0.162h-5.307c-0.005,0.054-0.016,0.106-0.016,0.162v19.254
	H356.13z" />
	<path class="st2" d="M344.561,115.792V96.538c0-0.056-0.012-0.108-0.016-0.162h-5.307c-0.005,0.054-0.016,0.106-0.016,0.162v19.254
	H344.561z" />
	<rect x="327.653" y="96.376" class="st2" width="5.339" height="19.417" />
	<path class="st2" d="M324.093,120.242c-0.491,0-0.89-0.399-0.89-0.89v-2.67c0-0.49,0.399-0.889,0.89-0.889h35.596
	c0.491,0,0.89,0.399,0.89,0.889v2.67c0,0.491-0.399,0.89-0.89,0.89H324.093z" />
	<path class="st6" d="M368.45,111.327c-1.235,0-1.705-1.614-0.661-2.276l17.838-11.32c0.26-0.161,0.64-0.254,1.044-0.254
	c0.404,0,0.785,0.093,1.045,0.254l17.543,11.323c1.034,0.668,0.561,2.271-0.669,2.271L368.45,111.327z" />
	<path class="st2" d="M368.45,111.327c-1.235,0-1.705-1.614-0.661-2.276l17.838-11.32c0.26-0.161,0.64-0.254,1.044-0.254
	c0.404,0,0.785,0.093,1.045,0.254l17.543,11.323c1.034,0.668,0.561,2.271-0.669,2.271L368.45,111.327z" />
	<path class="st6" d="M366.203,139.643c-0.491,0-0.89-0.399-0.89-0.89v-2.67c0-0.49,0.399-0.889,0.89-0.889h40.936
	c0.491,0,0.89,0.399,0.89,0.889v2.67c0,0.491-0.399,0.89-0.89,0.89H366.203z" />
	<path class="st2" d="M366.203,139.643c-0.491,0-0.89-0.399-0.89-0.89v-2.67c0-0.49,0.399-0.889,0.89-0.889h40.936
	c0.491,0,0.89,0.399,0.89,0.889v2.67c0,0.491-0.399,0.89-0.89,0.89H366.203z" />
	<path class="st6" d="M400.91,130.744V111.49c0-0.056-0.012-0.107-0.017-0.162h-5.306c-0.005,0.055-0.016,0.106-0.016,0.162v19.255
	H400.91z" />
	<path class="st2" d="M400.91,130.744V111.49c0-0.056-0.012-0.107-0.017-0.162h-5.306c-0.005,0.055-0.016,0.106-0.016,0.162v19.255
	H400.91z" />
	<path class="st6" d="M389.341,130.744V111.49c0-0.056-0.012-0.107-0.017-0.162h-5.306c-0.005,0.055-0.017,0.106-0.017,0.162v19.255
	H389.341z" />
	<path class="st2" d="M389.341,130.744V111.49c0-0.056-0.012-0.107-0.017-0.162h-5.306c-0.005,0.055-0.017,0.106-0.017,0.162v19.255
	H389.341z" />
	<rect x="372.432" y="111.326" class="st6" width="5.34" height="19.418" />
	<rect x="372.432" y="111.326" class="st2" width="5.34" height="19.418" />
	<path class="st6" d="M368.873,135.194c-0.491,0-0.89-0.399-0.89-0.89v-2.67c0-0.49,0.399-0.889,0.89-0.889h35.597
	c0.491,0,0.889,0.399,0.889,0.889v2.67c0,0.491-0.398,0.89-0.889,0.89H368.873z" />
	<path class="st2" d="M368.873,135.194c-0.491,0-0.89-0.399-0.89-0.89v-2.67c0-0.49,0.399-0.889,0.89-0.889h35.597
	c0.491,0,0.889,0.399,0.889,0.889v2.67c0,0.491-0.398,0.89-0.889,0.89H368.873z" />
	<polygon class="st1" points="384.511,98.57 385.998,97.607 387.024,97.543 387.716,97.732 405.615,109.274 405.807,109.979 
	405.551,110.749 404.227,111.323 " />
	<path class="st1" d="M407.116,139.66h-40.954c-0.481,0-0.871-0.39-0.871-0.871v-0.847h42.695v0.847
	C407.986,139.271,407.596,139.66,407.116,139.66" />
	<path class="st1" d="M404.53,135.045h-35.847c-0.481,0-0.87-0.391-0.87-0.871v-0.848h37.588v0.848
	C405.401,134.655,405.011,135.045,404.53,135.045" />
	<rect x="398.764" y="111.388" class="st1" width="2.116" height="19.297" />
	<rect x="387.225" y="111.388" class="st1" width="2.116" height="19.297" />
	<rect x="375.557" y="111.388" class="st1" width="2.116" height="19.297" />
	<path class="st2" d="M368.45,111.327c-1.235,0-1.705-1.614-0.661-2.276l17.838-11.32c0.26-0.161,0.64-0.254,1.044-0.254
	c0.404,0,0.785,0.093,1.045,0.254l17.543,11.323c1.034,0.668,0.561,2.271-0.669,2.271L368.45,111.327z" />
	<path class="st2" d="M366.203,139.643c-0.491,0-0.89-0.399-0.89-0.89v-2.67c0-0.49,0.399-0.889,0.89-0.889h40.936
	c0.491,0,0.89,0.399,0.89,0.889v2.67c0,0.491-0.399,0.89-0.89,0.89H366.203z" />
	<path class="st2" d="M400.91,130.744V111.49c0-0.056-0.012-0.107-0.017-0.162h-5.306c-0.005,0.055-0.016,0.106-0.016,0.162v19.255
	H400.91z" />
	<path class="st2" d="M389.341,130.744V111.49c0-0.056-0.012-0.107-0.017-0.162h-5.306c-0.005,0.055-0.017,0.106-0.017,0.162v19.255
	H389.341z" />
	<rect x="372.432" y="111.326" class="st2" width="5.34" height="19.418" />
	<path class="st2" d="M368.873,135.194c-0.491,0-0.89-0.399-0.89-0.89v-2.67c0-0.49,0.399-0.889,0.89-0.889h35.597
	c0.491,0,0.889,0.399,0.889,0.889v2.67c0,0.491-0.398,0.89-0.889,0.89H368.873z" />
	<line class="st3" x1="368.877" y1="65.667" x2="354.51" y2="80.255" />
	<polyline class="st3" points="354.51,75.3 354.07,80.475 359.464,80.144 " />
	<line class="st3" x1="405.957" y1="65.667" x2="420.324" y2="80.255" />
	<polyline class="st3" points="420.324,75.3 420.764,80.475 415.37,80.144 " />
	<line class="st3" x1="386.828" y1="73.8" x2="386.828" y2="92.525" />
	<polyline class="st3" points="390.199,89.009 386.828,92.991 383.27,88.955 " />
	<polygon class="st0" points="411.655,42.361 412.705,45.589 409.96,43.594 407.214,45.589 408.262,42.361 405.516,40.367 
	408.909,40.367 409.958,37.139 411.008,40.367 414.401,40.367 " />
	<polygon class="st1" points="409.525,37.458 409.756,40.703 411.502,41.128 410.475,42.221 410.508,43.301 409.526,43.678 
	412.271,45.672 411.221,42.444 413.967,40.45 410.574,40.45 " />
	<polygon class="st3" points="411.655,42.361 412.705,45.589 409.96,43.594 407.214,45.589 408.262,42.361 405.516,40.367 
	408.909,40.367 409.958,37.139 411.008,40.367 414.401,40.367 " />
	<polygon class="st0" points="408.509,30.633 409.559,33.861 406.814,31.867 404.068,33.861 405.116,30.633 402.37,28.639 
	405.763,28.639 406.812,25.411 407.862,28.639 411.255,28.639 " />
	<polygon class="st1" points="406.379,25.731 406.611,28.976 408.356,29.4 407.329,30.493 407.362,31.573 406.38,31.949 
	409.125,33.944 408.075,30.716 410.821,28.722 407.428,28.722 " />
	<polygon class="st3" points="408.509,30.633 409.559,33.861 406.814,31.867 404.068,33.861 405.116,30.633 402.37,28.639 
	405.763,28.639 406.812,25.411 407.862,28.639 411.255,28.639 " />
	<polygon class="st0" points="399.976,22.148 401.024,25.376 398.279,23.38 395.534,25.376 396.583,22.148 393.836,20.154 
	397.229,20.154 398.279,16.926 399.328,20.154 402.721,20.154 " />
	<polygon class="st1" points="397.846,17.245 398.077,20.491 399.823,20.914 398.796,22.008 398.829,23.088 397.847,23.464 
	400.591,25.458 399.542,22.23 402.288,20.236 398.895,20.236 " />
	<polygon class="st3" points="399.976,22.148 401.024,25.376 398.279,23.38 395.534,25.376 396.583,22.148 393.836,20.154 
	397.229,20.154 398.279,16.926 399.328,20.154 402.721,20.154 " />
	<polygon class="st0" points="388.248,18.953 389.297,22.181 386.552,20.187 383.806,22.181 384.855,18.953 382.109,16.96 
	385.501,16.96 386.551,13.732 387.6,16.96 390.994,16.96 " />
	<polygon class="st1" points="386.118,14.051 386.349,17.296 388.095,17.72 387.068,18.813 387.101,19.893 386.118,20.269 
	388.864,22.263 387.814,19.036 390.56,17.041 387.166,17.041 " />
	<polygon class="st3" points="388.248,18.953 389.297,22.181 386.552,20.187 383.806,22.181 384.855,18.953 382.109,16.96 
	385.501,16.96 386.551,13.732 387.6,16.96 390.994,16.96 " />
	<polygon class="st0" points="376.663,22.148 377.712,25.376 374.968,23.38 372.221,25.376 373.271,22.148 370.524,20.154 
	373.917,20.154 374.966,16.926 376.016,20.154 379.41,20.154 " />
	<polygon class="st1" points="374.534,17.203 374.765,20.449 376.511,20.873 375.484,21.966 375.517,23.047 374.534,23.423 
	377.28,25.417 376.23,22.189 378.976,20.195 375.582,20.195 " />
	<polygon class="st3" points="376.663,22.148 377.712,25.376 374.968,23.38 372.221,25.376 373.271,22.148 370.524,20.154 
	373.917,20.154 374.966,16.926 376.016,20.154 379.41,20.154 " />
	<polygon class="st0" points="368.082,30.681 369.131,33.909 366.387,31.914 363.64,33.909 364.689,30.681 361.943,28.687 
	365.336,28.687 366.385,25.459 367.435,28.687 370.829,28.687 " />
	<polygon class="st1" points="365.952,25.779 366.184,29.024 367.929,29.447 366.902,30.541 366.935,31.621 365.953,31.997 
	368.698,33.992 367.648,30.764 370.395,28.769 367.001,28.769 " />
	<polygon class="st3" points="368.082,30.681 369.131,33.909 366.387,31.914 363.64,33.909 364.689,30.681 361.943,28.687 
	365.336,28.687 366.385,25.459 367.435,28.687 370.829,28.687 " />
	<polygon class="st0" points="364.935,42.313 365.984,45.541 363.24,43.546 360.493,45.541 361.542,42.313 358.796,40.319 
	362.189,40.319 363.238,37.091 364.288,40.319 367.682,40.319 " />
	<polygon class="st1" points="362.806,37.41 363.037,40.656 364.782,41.08 363.756,42.173 363.789,43.254 362.806,43.63 
	365.552,45.624 364.502,42.396 367.248,40.402 363.854,40.402 " />
	<polygon class="st3" points="364.935,42.313 365.984,45.541 363.24,43.546 360.493,45.541 361.542,42.313 358.796,40.319 
	362.189,40.319 363.238,37.091 364.288,40.319 367.682,40.319 " />
	<polygon class="st0" points="368.084,54.109 369.133,57.337 366.389,55.341 363.642,57.337 364.691,54.109 361.945,52.114 
	365.337,52.114 366.387,48.886 367.437,52.114 370.831,52.114 " />
	<polygon class="st1" points="365.955,49.205 366.187,52.45 367.932,52.875 366.904,53.969 366.938,55.049 365.956,55.425 
	368.701,57.419 367.651,54.191 370.398,52.197 367.003,52.197 " />
	<polygon class="st3" points="368.084,54.109 369.133,57.337 366.389,55.341 363.642,57.337 364.691,54.109 361.945,52.114 
	365.337,52.114 366.387,48.886 367.437,52.114 370.831,52.114 " />
	<polygon class="st0" points="376.618,62.07 377.667,65.298 374.922,63.303 372.176,65.298 373.225,62.07 370.479,60.076 
	373.871,60.076 374.921,56.848 375.97,60.076 379.364,60.076 " />
	<polygon class="st1" points="374.488,57.167 374.719,60.412 376.465,60.836 375.438,61.93 375.471,63.01 374.489,63.386 
	377.234,65.381 376.184,62.153 378.93,60.158 375.536,60.158 " />
	<polygon class="st3" points="376.618,62.07 377.667,65.298 374.922,63.303 372.176,65.298 373.225,62.07 370.479,60.076 
	373.871,60.076 374.921,56.848 375.97,60.076 379.364,60.076 " />
	<polygon class="st0" points="388.298,65.55 389.347,68.778 386.603,66.783 383.856,68.778 384.905,65.55 382.159,63.556 
	385.552,63.556 386.601,60.328 387.651,63.556 391.045,63.556 " />
	<polygon class="st1" points="386.168,60.648 386.4,63.893 388.145,64.316 387.118,65.41 387.151,66.49 386.169,66.866 
	388.914,68.86 387.864,65.632 390.611,63.638 387.217,63.638 " />
	<polygon class="st3" points="388.298,65.55 389.347,68.778 386.603,66.783 383.856,68.778 384.905,65.55 382.159,63.556 
	385.552,63.556 386.601,60.328 387.651,63.556 391.045,63.556 " />
	<polygon class="st0" points="400.025,62.022 401.075,65.25 398.33,63.255 395.583,65.25 396.632,62.022 393.886,60.028 
	397.279,60.028 398.328,56.8 399.378,60.028 402.771,60.028 " />
	<polygon class="st1" points="397.895,57.119 398.127,60.365 399.872,60.789 398.845,61.882 398.878,62.962 397.896,63.339 
	400.641,65.333 399.591,62.105 402.337,60.111 398.944,60.111 " />
	<polygon class="st3" points="400.025,62.022 401.075,65.25 398.33,63.255 395.583,65.25 396.632,62.022 393.886,60.028 
	397.279,60.028 398.328,56.8 399.378,60.028 402.771,60.028 " />
	<polygon class="st0" points="408.512,54.061 409.561,57.289 406.816,55.293 404.07,57.289 405.119,54.061 402.372,52.067 
	405.765,52.067 406.815,48.839 407.864,52.067 411.258,52.067 " />
	<polygon class="st1" points="406.382,49.159 406.613,52.404 408.359,52.827 407.331,53.921 407.364,55.001 406.383,55.377 
	409.127,57.371 408.078,54.143 410.824,52.149 407.43,52.149 " />
	<polygon class="st3" points="408.512,54.061 409.561,57.289 406.816,55.293 404.07,57.289 405.119,54.061 402.372,52.067 
	405.765,52.067 406.815,48.839 407.864,52.067 411.258,52.067 " />
</svg>