<?xml version="1.0" encoding="utf-8"?>
<!-- Generator: Adobe Illustrator 25.2.0, SVG Export Plug-In . SVG Version: 6.00 Build 0)  -->
<svg version="1.1" baseProfile="basic" id="Grafik" xmlns="http://www.w3.org/2000/svg"
	xmlns:xlink="http://www.w3.org/1999/xlink" x="0px" y="0px" width="750px" height="181.562px"
	viewBox="0 0 750 181.562" xml:space="preserve">
	<style type="text/css">
		.st0 {
			fill: #FFFFFF;
		}

		.st1 {
			fill: #D0E2F3;
		}

		.st2 {
			fill: none;
			stroke: #004B8C;
			stroke-miterlimit: 10;
		}

		.st3 {
			fill: none;
			stroke: #004B8C;
			stroke-linecap: round;
			stroke-linejoin: round;
			stroke-miterlimit: 10;
		}

		.st4 {
			fill: #404040;
		}

		.st5 {
			fill: #E8F0F9;
		}

		.st6 {
			fill-rule: evenodd;
			clip-rule: evenodd;
			fill: #FFFFFF;
		}

		.st7 {
			fill: #004B8C;
		}

		.st8 {
			fill: #E6411A;
		}

		.st9 {
			fill: #003554;
		}

		.st10 {
			clip-path: url(#SVGID_2_);
			fill: #D0E2F3;
		}

		.st11 {
			fill: none;
			stroke: #3A8DFF;
			stroke-linecap: round;
			stroke-linejoin: round;
			stroke-miterlimit: 10;
		}

		.st12 {
			fill: #3A8DFF;
		}

		.st13 {
			opacity: 0.2;
		}

		.st14 {
			clip-path: url(#SVGID_4_);
			fill: #156CC4;
		}

		.st15 {
			clip-path: url(#SVGID_6_);
			fill: #156CC4;
		}

		.st16 {
			clip-path: url(#SVGID_8_);
			fill: #156CC4;
		}

		.st17 {
			clip-path: url(#SVGID_10_);
			fill: #156CC4;
		}

		.st18 {
			clip-path: url(#SVGID_12_);
			fill: #156CC4;
		}

		.st19 {
			clip-path: url(#SVGID_14_);
			fill: #156CC4;
		}

		.st20 {
			clip-path: url(#SVGID_16_);
			fill: #156CC4;
		}

		.st21 {
			clip-path: url(#SVGID_18_);
			fill: #156CC4;
		}

		.st22 {
			clip-path: url(#SVGID_20_);
			fill: #156CC4;
		}

		.st23 {
			clip-path: url(#SVGID_22_);
			fill: #156CC4;
		}

		.st24 {
			clip-path: url(#SVGID_24_);
			fill: #156CC4;
		}

		.st25 {
			clip-path: url(#SVGID_26_);
			fill: #156CC4;
		}

		.st26 {
			clip-path: url(#SVGID_28_);
			fill: #156CC4;
		}

		.st27 {
			clip-path: url(#SVGID_30_);
			fill: #156CC4;
		}

		.st28 {
			clip-path: url(#SVGID_32_);
			fill: #156CC4;
		}

		.st29 {
			clip-path: url(#SVGID_34_);
			fill: #156CC4;
		}

		.st30 {
			clip-path: url(#SVGID_36_);
			fill: #156CC4;
		}

		.st31 {
			clip-path: url(#SVGID_38_);
			fill: #156CC4;
		}

		.st32 {
			clip-path: url(#SVGID_40_);
			fill: #156CC4;
		}

		.st33 {
			clip-path: url(#SVGID_42_);
			fill: #156CC4;
		}

		.st34 {
			clip-path: url(#SVGID_44_);
			fill: #156CC4;
		}

		.st35 {
			clip-path: url(#SVGID_46_);
			fill: #156CC4;
		}

		.st36 {
			clip-path: url(#SVGID_48_);
			fill: #156CC4;
		}

		.st37 {
			clip-path: url(#SVGID_50_);
			fill: #156CC4;
		}

		.st38 {
			clip-path: url(#SVGID_52_);
			fill: #156CC4;
		}

		.st39 {
			clip-path: url(#SVGID_54_);
			fill: #156CC4;
		}

		.st40 {
			clip-path: url(#SVGID_56_);
			fill: #156CC4;
		}

		.st41 {
			clip-path: url(#SVGID_58_);
			fill: #156CC4;
		}

		.st42 {
			fill: none;
			stroke: #D7D7D7;
			stroke-linecap: round;
			stroke-miterlimit: 10;
		}

		.st43 {
			fill: none;
			stroke: #004B8C;
			stroke-width: 0.5;
			stroke-linecap: round;
			stroke-linejoin: round;
			stroke-miterlimit: 10;
		}

		.st44 {
			fill: none;
			stroke: #004B8C;
			stroke-width: 1.75;
			stroke-linecap: round;
			stroke-linejoin: round;
			stroke-miterlimit: 10;
		}

		.st45 {
			fill: none;
			stroke: #004B8C;
			stroke-linecap: round;
			stroke-miterlimit: 10;
		}

		.st46 {
			fill: none;
			stroke: #BFCCD4;
			stroke-linecap: round;
			stroke-miterlimit: 10;
		}

		.st47 {
			fill: #FFFFFF;
			stroke: #004B8C;
			stroke-linecap: round;
			stroke-linejoin: round;
			stroke-miterlimit: 10;
		}

		.st48 {
			fill: #004B8C;
			stroke: #004B8C;
			stroke-linecap: round;
			stroke-linejoin: round;
			stroke-miterlimit: 10;
		}

		.st49 {
			clip-path: url(#SVGID_60_);
			fill: #D0E2F3;
		}

		.st50 {
			fill: none;
		}

		.st51 {
			fill: #929292;
		}

		.st52 {
			fill: #922C1C;
		}

		.st53 {
			fill: #F3F7FC;
		}

		.st54 {
			fill: #A1C4E7;
		}

		.st55 {
			fill: none;
			stroke: #F3F7FC;
			stroke-width: 0;
			stroke-linecap: round;
			stroke-linejoin: round;
		}
	</style>
	<g>
		<path class="st1" d="M326.322,30.002c0,7.697-2.818,13.452-5.194,16.931c-2.601,3.814-6.06,6.869-8.82,7.786
		c-0.079,0.03-0.158,0.039-0.236,0.039c3.399-22.046,0-30.009,0-30.009c0.137,0,0.285,0.04,0.413,0.128
		c2.228,1.479,8.87,4.376,13.088,4.376C325.987,29.253,326.322,29.588,326.322,30.002" />
		<path class="st5" d="M281.969,38.781c0-17.055,13.826-30.881,30.881-30.881s30.881,13.826,30.881,30.881
		c0,17.055-13.826,30.881-30.881,30.881S281.969,55.836,281.969,38.781" />
		<path class="st1" d="M325.573,29.253c-4.218,0-10.86-2.897-13.088-4.376c-0.128-0.088-0.276-0.128-0.413-0.128
		c0,0,3.399,7.963,0,30.009c0.078,0,0.157-0.009,0.236-0.039c2.76-0.917,6.219-3.972,8.82-7.786
		c2.376-3.479,5.194-9.234,5.194-16.931C326.322,29.588,325.987,29.253,325.573,29.253" />
		<polyline class="st3" points="307.202,39.488 310.591,42.764 318.533,34.799 	" />
		<path class="st2" d="M312.067,54.762c-0.08,0-0.161-0.014-0.237-0.039c-2.76-0.92-6.223-3.979-8.825-7.794
		c-2.369-3.475-5.195-9.235-5.195-16.93c0-0.415,0.337-0.751,0.751-0.751c4.223,0,10.861-2.89,13.09-4.376
		c0.252-0.168,0.581-0.168,0.833,0c2.229,1.486,8.868,4.376,13.091,4.376c0.414,0,0.75,0.336,0.75,0.751
		c0,7.695-2.825,13.453-5.195,16.93c-2.601,3.814-6.064,6.874-8.824,7.794C312.229,54.748,312.148,54.762,312.067,54.762
		L312.067,54.762z" />
		<path class="st0" d="M313.582,95.285c0-36.419,29.523-65.942,65.942-65.942c36.42,0,65.943,29.523,65.943,65.942
		c0,36.419-29.523,65.942-65.943,65.942C343.105,161.227,313.582,131.704,313.582,95.285" />
		<path class="st1" d="M435.139,130.717l0.457-2.727l0.316-2.767l1.301-4.462l1.639-4.375l1.175-5.51l0.023-5.637l-0.638,2.594
		l-2.286,1.553l-2.736-0.111l-2.474-1.316l-1.94-2.002l-1.624-2.294l-0.741-1.104l-0.741-1.111l5.093,2.932l4.288,4.028l2.657-7.158
		l1.001-7.67l0.008-1.608l-0.536-1.434l-1.404-0.631l-1.166,0.741l0.063,1.332l-2.215,1.301l-1.317-0.465l-0.764-1.964l1.576-0.795
		l2.665-1.49l1.655-2.562l0.308-1.088l2.081-2.334l1.355,0.757l0.718,1.577l1.427,2.916l0.953,1.623
		c-1.458-12.834-5.998-24.444-13.739-33.959c-7.741-9.522-18.076-16.838-29.941-20.874l-0.047-0.016l-7.986,1.151l0.97,0.977
		l0.97,0.97l-6.977-1.048l-7.063,0.015l1.671-0.993l1.664-0.994l-3.115,0.363l-2.884,1.096l-3.106,0.481l-3.122,0.709l-1.671,1.695
		l0.236,0.757l0.97,0.339l1.119-0.221l7.529-0.276l7.489,1.963l3.177,1.396l1.19,1.269l0.922,3.295l0.623,0.473l5.525,3.65
		l5.527,3.65l-2.207-0.142l-2.207-0.15l1.773,1.261l2.058,0.702l-0.308,3.957l0.914,4.099l0.103,1.483l-0.544,1.292l-1.356,0.323
		l-0.796-0.93l0.835-0.426l0.095-0.93l-4.532-0.504l-2.807,2.349l-0.323,1.135l-1.388,10.437l0.142,0.883l0.371,0.789l0.741,0.496
		l0.835-0.11l0.576-0.773l0.622-0.701l1.64,0.938l0.6,0.875l0.859,0.449l0.875-0.497l-0.071-2.073l-0.56-0.938l-1.474-4.154
		l0.228-4.391l1.254-0.158l0.095,0.592l-0.064,0.606l0.008,1.837l0.67,1.664l1.521,0.985l1.696-0.3l0.315,2.515l-1.096,4.817
		l-1.97,1.442l-2.429-0.362l-1.214-1.987l-0.654,0.213l-0.126,0.828l0.449,0.725l0.442,0.725l-0.978,3.177l-1.986,2.948
		l-0.835,1.206l-1.183,0.742l-0.899,0.031l-0.899,0.016l-0.796,0.449l-0.141,0.789l1.678,0.378l1.396,0.962l0.623,1.206l0.063,1.356
		l-2.349,0.543l-1.238-0.118l-2.68,1.805l0.646,3.453l1.616,3.098l3.642,0.15l1.396-0.701l1.088-1.112l0.748-2.396l0.481-2.531
		l1.388-2.239l2.01-1.789l3.712-0.229l2.815,1.797l2.814,1.798l0.103-1.466l-0.939-1.27l-1.379-0.732l-1.466-0.592l-1.301-0.914
		l-0.639-1.372l4.619,1.135l3.753,2.925l2.168,0.536l-0.307-0.875l-0.726-0.828l-0.062-1.158l0.654-1.081l0.85-0.914l0.584-1.065
		l-0.023-1.04l-0.379-1.001l-0.465-0.962l0.552-2.791l0.985,0.198l0.292,0.883l0.591-0.6l0.056-0.961l1.34-2.105l0.418,0.607
		l-0.103,0.725l1.253-0.552l1.262,0.647l0.315,1.379l-0.623,1.317l-1.237,0.756l-1.459,0.182l-0.978,2.034l-0.977,2.041
		l-0.583,1.892l0.591,1.609l1.569,0.173l1.489-0.946l2.783-1.884l1.332,2.412l0.048,2.539l-1.506,1.718l-3.799,2.05l-1.822,0.677
		l-1.717,1.939l-2.003,1.94l-4.336,0.165l-2.159-2.853l-3.375-1.12l-4.028,2.452l-4.297,2.144l-5.399,3.5l-4.714,8.798l-2.499,9.483
		l0.11,2.988l0.97,2.775l3.642,3.011l4.824,0.97l6.85-0.939l6.615-2.285l2.159-0.623l2.018,0.441l0.702,0.812l0.481,0.985
		l1.057,2.657l0.488,2.775l-0.505,3.067l-0.922,3.011l-0.339,3.153 M428.36,83.954l-0.914-0.457l-0.363-0.828l-0.363-0.812
		l-1.001-0.52l-2.16-0.986l-0.638-1.064l-0.308-1.198l-0.07-2.247l0.78-0.528l0.473,0.371l0.15,1.292l0.134,0.623l0.733,0.56
		l1.963,0.512l0.473-0.489l1.26,1.759l1.333,1.741l0.047,1.057L428.36,83.954z" />
		<polygon class="st1" points="359.497,66.043 357.961,65.703 357.699,67.38 357.913,69.062 358.278,69.95 358.925,70.623 
		360.124,70.845 361.322,70.411 362.752,69.068 363.69,67.315 364.255,65.414 364.683,63.474 364.937,62.304 365.043,61.118 
		364.804,59.944 364.107,59.003 362.981,58.649 361.945,59.117 361.611,59.918 361.654,60.818 361.887,61.681 362.094,62.548 
		361.962,64.017 361.214,65.288 	" />
		<polygon class="st1" points="370.125,61.6 369.228,59.855 372.802,58.31 376.477,57.027 379.18,56.919 380.632,60.592 
		380.373,65.173 378.543,69.148 374.81,71.753 371.916,74.114 369.615,77.055 368.133,78.459 366.88,77.943 366.161,76.585 
		367.108,69.405 368.557,67.412 370.002,65.419 370.838,63.079 	" />
		<polyline class="st1" points="372.462,53.619 370.746,53.355 369.112,54.075 367.954,55.416 367.197,57.046 367.138,57.308 
		367.216,57.539 367.441,57.615 367.697,57.563 371.297,56.41 374.897,55.259 373.52,54.132 371.741,54.113 	" />
		<polygon class="st1" points="361.599,49.854 360.258,50.817 359.45,52.237 358.943,53.816 358.84,55.082 359.243,55.579 
		360.197,55.142 360.389,54.515 361.842,53.158 362.713,52.615 363.37,51.868 362.764,50.232 	" />
		<polygon class="st1" points="364.242,54.219 363.549,54.566 363.14,55.236 363.291,55.956 363.921,56.23 364.617,56.021 
		365.115,55.504 365.481,54.869 365.652,54.483 365.682,54.078 	" />
		<polyline class="st1" points="335.869,144.654 330.098,136.158 325.516,126.926 324.414,123.67 325.824,118.098 326.68,115.744 
		323.297,109.785 322.474,103.346 321.549,99.25 320.375,95.197 321.434,82.045 323.982,75.887 327.076,69.963 324.66,73.519 
		322.244,77.076 322.843,75.485 325.19,70.568 328.32,64.83 332.831,59.677 338.449,55.708 346.385,51.208 353.675,45.87 
		361.162,38.652 363.574,38.031 364.587,39.964 366.9,39.207 367.96,41.017 365.661,44.744 363.717,45.987 358.954,51.86 
		358.017,59.362 358.933,58.618 359.85,57.871 359.533,59.558 358.338,60.79 359.307,61.578 360.277,62.367 356.155,62.069 
		352.036,61.776 349.968,63.805 348.967,66.76 348.018,70.751 347.07,74.743 350.515,73.031 353.192,70.267 354.608,68.726 
		356.232,68.621 356.56,70.491 356.486,72.66 357.162,73.484 357.984,74.215 358.419,78.335 358.719,82.563 353.677,82.507 
		348.636,82.451 349.066,83.705 350.288,84.218 350.124,85.277 350.876,86.318 351.767,87.246 351.973,88.349 350.936,88.972 
		349.612,88.5 348.649,87.486 347.59,86.625 346.059,86.45 344.498,86.872 340.168,88.383 335.837,89.893 334.296,90.54 
		333.098,91.617 332.596,93.216 332.253,94.894 331.057,96.117 329.66,95.845 330.618,93.005 331.009,90.072 330.219,87.191 
		324.702,85.526 322.349,88.125 322.176,91.606 323.762,94.798 325.575,93.697 325.349,95.501 325.124,97.306 324.703,104.352 
		326.642,110.844 328.917,113.396 331.562,115.618 337.213,120.969 342.286,126.875 346.97,133.139 348.672,135.784 
		351.056,137.882 355.529,140.29 361.09,143.327 362.607,146.443 360.945,148.026 359.257,149.599 358.898,151.796 358.119,152.783 
		354.365,153.559 351.788,153.643 350.399,154.463 	" />
		<path class="st1" d="M362.213,158.931c-7.286,0.783-10.837,2.358-10.837,3.718c0,1.297,3.392,2.394,12.027,3.438
		c7.093,0.858,18.698,0.45,26.536,0.497c12.51,0.076,27.07-3.71,27.07-6.07c0-1.396-9.505-2.402-17.576-2.402l-2.923,0.755
		l-12.694,2.338l-5.205,0.139l-8.203-0.719l-3.818-0.741l-6.46-1.886" />
		<path class="st0" d="M334.769,143.521l-5.771-8.497l-4.582-9.232l-1.102-3.255l1.41-5.572l0.856-2.354l-3.383-5.959l-0.823-6.44
		l-0.925-4.094l-1.174-4.055l1.059-13.151l2.548-6.159l3.094-5.923l-2.416,3.556l-2.416,3.556l0.599-1.59l2.347-4.916l3.13-5.739
		l4.511-5.154l5.618-3.968l7.936-4.499l7.29-5.339l7.487-7.217l2.412-0.622l1.013,1.934l2.313-0.758l1.06,1.811l-2.299,3.726
		l-1.944,1.243l-4.763,5.873l-0.937,7.502l0.916-0.745l0.917-0.746l-0.317,1.687l-1.195,1.232l0.969,0.788l0.97,0.788l-4.122-0.297
		l-4.119-0.292l-2.068,2.028l-1.001,2.954l-0.949,3.993l-0.948,3.991l3.445-1.712l2.677-2.764l1.416-1.54l1.624-0.106l0.328,1.869
		l-0.074,2.171l0.676,0.823l0.822,0.732l0.435,4.119l0.3,4.228l-5.042-0.055l-5.041-0.057l0.43,1.254l1.222,0.513l-0.164,1.059
		l0.752,1.041l0.891,0.929l0.206,1.102l-1.037,0.622l-1.324-0.471l-0.963-1.013l-1.059-0.862l-1.531-0.176l-1.561,0.423l-4.33,1.511
		l-4.331,1.511l-1.541,0.646l-1.198,1.076l-0.502,1.6l-0.343,1.678l-1.196,1.223l-1.397-0.273l0.958-2.839l0.391-2.934l-0.79-2.88
		l-5.517-1.665l-2.353,2.6l-0.173,3.48l1.586,3.192l1.813-1.102l-0.226,1.805l-0.225,1.804l-0.421,7.047l1.939,6.491l2.275,2.553
		l2.645,2.222l5.651,5.35l5.073,5.907l4.684,6.265l1.702,2.643l2.384,2.099l4.473,2.408l5.561,3.036l1.517,3.118l-1.662,1.582
		l-1.688,1.573l-0.359,2.197l-0.779,0.986l-3.754,0.777l-2.577,0.084l-1.865,1.029C348.823,153.539,340.337,149.142,334.769,143.521
		" />
		<path class="st3" d="M334.769,143.521l-5.771-8.497l-4.582-9.232l-1.102-3.255l1.41-5.572l0.856-2.354l-3.383-5.959l-0.823-6.44
		l-0.925-4.094l-1.174-4.055l1.059-13.151l2.548-6.159l3.094-5.923l-2.416,3.556l-2.416,3.556l0.599-1.59l2.347-4.916l3.13-5.739
		l4.511-5.154l5.618-3.968l7.936-4.499l7.29-5.339l7.487-7.217l2.412-0.622l1.013,1.934l2.313-0.758l1.06,1.811l-2.299,3.726
		l-1.944,1.243l-4.763,5.873l-0.937,7.502l0.916-0.745l0.917-0.746l-0.317,1.687l-1.195,1.232l0.969,0.788l0.97,0.788l-4.122-0.297
		l-4.119-0.292l-2.068,2.028l-1.001,2.954l-0.949,3.993l-0.948,3.991l3.445-1.712l2.677-2.764l1.416-1.54l1.624-0.106l0.328,1.869
		l-0.074,2.171l0.676,0.823l0.822,0.732l0.435,4.119l0.3,4.228l-5.042-0.055l-5.041-0.057l0.43,1.254l1.222,0.513l-0.164,1.059
		l0.752,1.041l0.891,0.929l0.206,1.102l-1.037,0.622l-1.324-0.471l-0.963-1.013l-1.059-0.862l-1.531-0.176l-1.561,0.423l-4.33,1.511
		l-4.331,1.511l-1.541,0.646l-1.198,1.076l-0.502,1.6l-0.343,1.678l-1.196,1.223l-1.397-0.273l0.958-2.839l0.391-2.934l-0.79-2.88
		l-5.517-1.665l-2.353,2.6l-0.173,3.48l1.586,3.192l1.813-1.102l-0.226,1.805l-0.225,1.804l-0.421,7.047l1.939,6.491l2.275,2.553
		l2.645,2.222l5.651,5.35l5.073,5.907l4.684,6.265l1.702,2.643l2.384,2.099l4.473,2.408l5.561,3.036l1.517,3.118l-1.662,1.582
		l-1.688,1.573l-0.359,2.197l-0.779,0.986l-3.754,0.777l-2.577,0.084l-1.865,1.029C348.823,153.539,340.337,149.142,334.769,143.521
		z" />
		<polygon class="st0" points="359.046,64.955 357.51,64.617 357.248,66.292 357.462,67.974 357.827,68.862 358.474,69.535 
		359.673,69.757 360.871,69.324 362.301,67.98 363.239,66.227 363.804,64.327 364.232,62.387 364.486,61.216 364.592,60.03 
		364.353,58.856 363.656,57.916 362.53,57.561 361.494,58.029 361.16,58.83 361.203,59.73 361.437,60.593 361.643,61.461 
		361.511,62.93 360.763,64.201 	" />
		<polygon class="st3" points="359.046,64.955 357.51,64.617 357.248,66.292 357.462,67.974 357.827,68.862 358.474,69.535 
		359.673,69.757 360.871,69.324 362.301,67.98 363.239,66.227 363.804,64.327 364.232,62.387 364.486,61.216 364.592,60.03 
		364.353,58.856 363.656,57.916 362.53,57.561 361.494,58.029 361.16,58.83 361.203,59.73 361.437,60.593 361.643,61.461 
		361.511,62.93 360.763,64.201 	" />
		<polygon class="st0" points="369.674,60.513 368.778,58.767 372.351,57.222 376.026,55.939 378.729,55.831 380.181,59.504 
		379.922,64.085 378.092,68.06 374.359,70.666 371.465,73.026 369.164,75.967 367.682,77.371 366.43,76.855 365.71,75.497 
		366.657,68.317 368.106,66.325 369.551,64.331 370.387,61.992 	" />
		<polygon class="st3" points="369.674,60.513 368.778,58.767 372.351,57.222 376.026,55.939 378.729,55.831 380.181,59.504 
		379.922,64.085 378.092,68.06 374.359,70.666 371.465,73.026 369.164,75.967 367.682,77.371 366.43,76.855 365.71,75.497 
		366.657,68.317 368.106,66.325 369.551,64.331 370.387,61.992 	" />
		<polyline class="st0" points="372.166,52.626 370.45,52.362 368.816,53.081 367.658,54.423 366.901,56.053 366.842,56.315 
		366.92,56.546 367.145,56.621 367.401,56.57 371,55.417 374.601,54.265 373.224,53.139 371.444,53.119 	" />
		<polyline class="st3" points="372.166,52.626 370.45,52.362 368.816,53.081 367.658,54.423 366.901,56.053 366.842,56.315 
		366.92,56.546 367.145,56.621 367.401,56.57 371,55.417 374.601,54.265 373.224,53.139 371.444,53.119 	" />
		<polygon class="st0" points="361.342,49.118 360.001,50.08 359.193,51.5 358.686,53.079 358.582,54.346 358.986,54.843 
		359.94,54.406 360.132,53.779 361.584,52.421 362.456,51.878 363.113,51.132 362.507,49.495 	" />
		<polygon class="st3" points="361.342,49.118 360.001,50.08 359.193,51.5 358.686,53.079 358.582,54.346 358.986,54.843 
		359.94,54.406 360.132,53.779 361.584,52.421 362.456,51.878 363.113,51.132 362.507,49.495 	" />
		<polygon class="st0" points="363.862,53.473 363.168,53.821 362.759,54.491 362.91,55.211 363.542,55.485 364.237,55.276 
		364.735,54.758 365.1,54.124 365.272,53.738 365.301,53.333 	" />
		<polygon class="st3" points="363.862,53.473 363.168,53.821 362.759,54.491 362.91,55.211 363.542,55.485 364.237,55.276 
		364.735,54.758 365.1,54.124 365.272,53.738 365.301,53.333 	" />
		<path class="st0" d="M430.709,53.711c-7.741-9.522-18.076-16.838-29.94-20.874l-0.047-0.016l-7.986,1.151l0.97,0.977l0.97,0.97
		l-6.977-1.048l-7.063,0.015l1.67-0.993l1.665-0.994l-3.115,0.363l-2.885,1.096l-3.106,0.481l-3.122,0.709l-1.671,1.695L370.309,38
		l0.97,0.339l1.119-0.221l7.528-0.276l7.489,1.963l3.177,1.396l1.19,1.269l0.923,3.295l0.622,0.473l5.526,3.65l5.527,3.65
		l-2.207-0.142l-2.208-0.15l1.774,1.261l2.057,0.702l-0.307,3.957l0.914,4.099l0.103,1.483l-0.544,1.292l-1.357,0.323l-0.796-0.93
		l0.836-0.426l0.095-0.93l-4.533-0.504l-2.807,2.349l-0.323,1.135l-1.387,10.437l0.142,0.883l0.37,0.789l0.741,0.496l0.836-0.11
		l0.575-0.773l0.623-0.701l1.64,0.938l0.599,0.875l0.859,0.449l0.875-0.497l-0.07-2.073l-0.56-0.938l-1.474-4.154l0.228-4.391
		l1.254-0.158l0.095,0.592l-0.064,0.606l0.008,1.837l0.67,1.664l1.521,0.985l1.696-0.3l0.314,2.515l-1.096,4.817l-1.97,1.442
		l-2.428-0.362l-1.214-1.987l-0.654,0.213l-0.126,0.828l0.449,0.725l0.442,0.725l-0.978,3.177l-1.986,2.948l-0.836,1.206
		l-1.183,0.742l-0.898,0.031l-0.899,0.016l-0.796,0.449l-0.142,0.789l1.679,0.378l1.395,0.962l0.623,1.206l0.064,1.356l-2.35,0.543
		l-1.237-0.118l-2.681,1.805l0.646,3.453l1.617,3.098l3.641,0.15l1.396-0.701l1.088-1.112l0.749-2.396l0.48-2.531l1.388-2.239
		l2.011-1.789l3.712-0.229l2.814,1.797l2.814,1.798l0.103-1.466l-0.938-1.27l-1.379-0.732l-1.466-0.592l-1.301-0.914l-0.639-1.372
		l4.619,1.135l3.752,2.925l2.168,0.536l-0.306-0.875l-0.726-0.828l-0.063-1.158l0.654-1.081l0.851-0.914l0.583-1.065l-0.023-1.04
		l-0.378-1.001l-0.465-0.962l0.552-2.791l0.985,0.198l0.291,0.883l0.592-0.6l0.055-0.961l1.34-2.105l0.418,0.607l-0.103,0.725
		l1.254-0.552l1.261,0.647l0.315,1.379l-0.622,1.317l-1.238,0.756l-1.458,0.182l-0.978,2.034l-0.977,2.041l-0.583,1.892l0.591,1.609
		l1.568,0.173l1.49-0.946l2.783-1.884l1.332,2.412l0.047,2.539l-1.506,1.718l-3.798,2.05l-1.822,0.677l-1.718,1.939l-2.002,1.94
		l-4.336,0.165l-2.16-2.853l-3.374-1.12l-4.029,2.452l-4.296,2.144l-5.4,3.5l-4.714,8.798l-2.499,9.483l0.11,2.988l0.97,2.775
		l3.643,3.011l4.824,0.97l6.85-0.939l6.614-2.285l2.16-0.623l2.018,0.441l0.702,0.812l0.48,0.985l1.057,2.657l0.489,2.775
		l-0.505,3.067l-0.922,3.011l-0.34,3.153l1.105,2.806l0.118,0.213c5.573-3.129,10.649-7.055,15.072-11.612l1.853-2.782l2.782-4.163
		l1.608-2.562l1.175-2.759l0.457-2.727l0.316-2.767l1.301-4.462l1.639-4.375l1.175-5.51l0.023-5.637l-0.638,2.594l-2.286,1.553
		l-2.736-0.111l-2.475-1.316l-1.94-2.002l-1.623-2.294l-0.741-1.104l-0.741-1.111l5.093,2.932l4.288,4.028l2.656-7.158l1.002-7.67
		l0.008-1.608l-0.536-1.434l-1.404-0.631l-1.167,0.741l0.064,1.332l-2.216,1.301l-1.317-0.465l-0.764-1.964l1.577-0.795l2.664-1.49
		l1.655-2.562l0.308-1.088l2.081-2.334l1.356,0.757l0.717,1.577l1.427,2.916l1.546,1.727
		C443.582,74.94,438.45,63.226,430.709,53.711 M427.493,82.169l-0.915-0.457l-0.362-0.828l-0.363-0.812l-1.002-0.52l-2.159-0.986
		l-0.638-1.064l-0.308-1.198l-0.071-2.247l0.78-0.528l0.474,0.371l0.149,1.292l0.134,0.623l0.733,0.56l1.963,0.512l0.474-0.489
		l1.26,1.759l1.332,1.741l0.048,1.057L427.493,82.169z" />
		<path class="st1" d="M391.258,136.961c0.914-1.083,1.946-2.12,2.459-3.441c0.525-1.354,0.445-2.856,0.65-4.293
		c0.569-3.991,3.572-7.533,7.414-8.748c2.075-0.656,4.572-0.826,5.835-2.597c0.696-0.973,0.835-2.221,1.177-3.367
		c1.478-4.946,6.579-7.753,9.744-11.83c1.349-1.738,2.359-3.733,3.835-5.364c3.171-3.502,8.477-4.892,12.957-3.395
		c1.901,0.635,3.723,1.84,4.54,3.669c1.257,2.809-0.042,6.545,1.97,8.875c0.465,0.538,1.1,0.986,1.291,1.671
		c0.169,0.603,0.286,3.806,0.06,4.389c-2.236,5.71-5.789,8.468-9.803,13.104c-2.985,3.448-6.423,6.537-8.933,10.346
		c-2.515,3.818-4.074,8.321-7.296,11.565c-3.065,3.089-7.033,4.289-10.908,5.979c-3.119,1.36-5.738,3.452-8.586,5.266
		c-2.148,1.368-4.476,2.294-6.947,1.167c-1.527-0.696-3.113-1.951-4.023-3.364c-1.207-1.875-1.129-4.292-0.934-6.43
		C386.197,145.343,388.134,140.663,391.258,136.961" />
		<path class="st3" d="M430.709,53.711c-7.741-9.522-18.076-16.838-29.94-20.874l-0.047-0.016l-7.986,1.151l0.97,0.977l0.97,0.97
		l-6.977-1.048l-7.063,0.015l1.67-0.993l1.665-0.994l-3.115,0.363l-2.885,1.096l-3.106,0.481l-3.122,0.709l-1.671,1.695L370.309,38
		l0.97,0.339l1.119-0.221l7.528-0.276l7.489,1.963l3.177,1.396l1.19,1.269l0.923,3.295l0.622,0.473l5.526,3.65l5.527,3.65
		l-2.207-0.142l-2.208-0.15l1.774,1.261l2.057,0.702l-0.307,3.957l0.914,4.099l0.103,1.483l-0.544,1.292l-1.357,0.323l-0.796-0.93
		l0.836-0.426l0.095-0.93l-4.533-0.504l-2.807,2.349l-0.323,1.135l-1.387,10.437l0.142,0.883l0.37,0.789l0.741,0.496l0.836-0.11
		l0.575-0.773l0.623-0.701l1.64,0.938l0.599,0.875l0.859,0.449l0.875-0.497l-0.07-2.073l-0.56-0.938l-1.474-4.154l0.228-4.391
		l1.254-0.158l0.095,0.592l-0.064,0.606l0.008,1.837l0.67,1.664l1.521,0.985l1.696-0.3l0.314,2.515l-1.096,4.817l-1.97,1.442
		l-2.428-0.362l-1.214-1.987l-0.654,0.213l-0.126,0.828l0.449,0.725l0.442,0.725l-0.978,3.177l-1.986,2.948l-0.836,1.206
		l-1.183,0.742l-0.898,0.031l-0.899,0.016l-0.796,0.449l-0.142,0.789l1.679,0.378l1.395,0.962l0.623,1.206l0.064,1.356l-2.35,0.543
		l-1.237-0.118l-2.681,1.805l0.646,3.453l1.617,3.098l3.641,0.15l1.396-0.701l1.088-1.112l0.749-2.396l0.48-2.531l1.388-2.239
		l2.011-1.789l3.712-0.229l2.814,1.797l2.814,1.798l0.103-1.466l-0.938-1.27l-1.379-0.732l-1.466-0.592l-1.301-0.914l-0.639-1.372
		l4.619,1.135l3.752,2.925l2.168,0.536l-0.306-0.875l-0.726-0.828l-0.063-1.158l0.654-1.081l0.851-0.914l0.583-1.065l-0.023-1.04
		l-0.378-1.001l-0.465-0.962l0.552-2.791l0.985,0.198l0.291,0.883l0.592-0.6l0.055-0.961l1.34-2.105l0.418,0.607l-0.103,0.725
		l1.254-0.552l1.261,0.647l0.315,1.379l-0.622,1.317l-1.238,0.756l-1.458,0.182l-0.978,2.034l-0.977,2.041l-0.583,1.892l0.591,1.609
		l1.568,0.173l1.49-0.946l2.783-1.884l1.332,2.412l0.047,2.539l-1.506,1.718l-3.798,2.05l-1.822,0.677l-1.718,1.939l-2.002,1.94
		l-4.336,0.165l-2.16-2.853l-3.374-1.12l-4.029,2.452l-4.296,2.144l-5.4,3.5l-4.714,8.798l-2.499,9.483l0.11,2.988l0.97,2.775
		l3.643,3.011l4.824,0.97l6.85-0.939l6.614-2.285l2.16-0.623l2.018,0.441l0.702,0.812l0.48,0.985l1.057,2.657l0.489,2.775
		l-0.505,3.067l-0.922,3.011l-0.34,3.153l1.105,2.806l0.118,0.213c5.573-3.129,10.649-7.055,15.072-11.612l1.853-2.782l2.782-4.163
		l1.608-2.562l1.175-2.759l0.457-2.727l0.316-2.767l1.301-4.462l1.639-4.375l1.175-5.51l0.023-5.637l-0.638,2.594l-2.286,1.553
		l-2.736-0.111l-2.475-1.316l-1.94-2.002l-1.623-2.294l-0.741-1.104l-0.741-1.111l5.093,2.932l4.288,4.028l2.656-7.158l1.002-7.67
		l0.008-1.608l-0.536-1.434l-1.404-0.631l-1.167,0.741l0.064,1.332l-2.216,1.301l-1.317-0.465l-0.764-1.964l1.577-0.795l2.664-1.49
		l1.655-2.562l0.308-1.088l2.081-2.334l1.356,0.757l0.717,1.577l1.427,2.916l1.546,1.727
		C443.582,74.94,438.45,63.226,430.709,53.711z M427.493,82.169l-0.915-0.457l-0.362-0.828l-0.363-0.812l-1.002-0.52l-2.159-0.986
		l-0.638-1.064l-0.308-1.198l-0.071-2.247l0.78-0.528l0.474,0.371l0.149,1.292l0.134,0.623l0.733,0.56l1.963,0.512l0.474-0.489
		l1.26,1.759l1.332,1.741l0.048,1.057L427.493,82.169z" />
		<path class="st2" d="M313.582,95.285c0-36.419,29.523-65.942,65.942-65.942c36.42,0,65.943,29.523,65.943,65.942
		c0,36.419-29.523,65.942-65.943,65.942C343.105,161.227,313.582,131.704,313.582,95.285z" />
		<path class="st1" d="M400.116,163.877c-3.369,0.783-5.012,2.358-5.012,3.719c0,1.296,1.569,2.393,5.562,3.437
		c3.28,0.858,8.645,0.45,12.269,0.497c5.785,0.076,12.518-3.709,12.518-6.07c0-1.396-4.396-2.402-8.127-2.402l-1.352,0.756
		l-5.87,2.337l-2.406,0.139l-3.793-0.719l-1.766-0.74l-2.987-1.886" />
		<path class="st1" d="M441.724,163.877c-3.369,0.783-5.011,2.358-5.011,3.719c0,1.296,1.569,2.393,5.562,3.437
		c3.279,0.858,8.645,0.45,12.269,0.497c5.784,0.076,12.517-3.709,12.517-6.07c0-1.396-4.396-2.402-8.127-2.402l-1.351,0.756
		l-5.87,2.337l-2.407,0.139l-3.793-0.719l-1.765-0.74l-2.987-1.886" />
		<path class="st0" d="M467.833,149.386c-0.21-1.762-0.639-3.523-1.245-5.206c-0.296-0.863-0.602-1.613-0.884-2.162
		c-0.003-0.006-0.006-0.011-0.01-0.017c-0.819-1.741-1.815-3.337-2.925-4.672c-1.564-1.883-3.466-3.708-5.313-5.2
		c-0.187-0.172-0.365-0.338-0.556-0.515c-0.545-0.502-1.246-0.92-1.954-1.318c-0.528-0.341-1.027-0.629-1.496-0.869
		c-0.045-0.028-0.098-0.055-0.142-0.085c-0.07-0.045-0.177-0.105-0.29-0.146c0.101-0.161,0.191-0.31,0.286-0.464
		c0.145-0.186,0.28-0.379,0.408-0.571c0.54-0.81,1.043-1.645,1.508-2.5c0.404-0.744,0.992-1.621,0.896-2.462
		c0-0.003,0.001-0.007,0.001-0.01c0.006-0.045,0.008-0.085,0.012-0.127c0.04-0.229,0.142-0.592-0.2-0.701
		c-0.003-0.001-0.005-0.001-0.007-0.002c-0.283-0.25-0.835-0.269-1.59-0.196c-1.116,0.019-2.33,0.28-3.632,0.42
		c-0.656,0.045-1.348,0.065-2.071,0.03c-0.62-0.029-1.133-0.007-1.572,0.05c-0.017,0.001-0.031,0-0.049,0.001l-0.096,0.017
		c-0.078,0.013-0.151,0.026-0.223,0.041l-0.128,0.023c0,0-0.439,0.01-0.788,0.166c-0.234-1.143-0.561-2.271-0.955-3.368
		c-0.296-0.865-0.603-1.615-0.885-2.164c-0.003-0.006-0.007-0.012-0.01-0.018c-0.818-1.74-1.814-3.336-2.925-4.671
		c-1.564-1.883-3.466-3.709-5.314-5.201c-0.186-0.171-0.364-0.337-0.556-0.514c-0.544-0.503-1.246-0.92-1.954-1.319
		c-0.527-0.34-1.025-0.628-1.495-0.867c-0.046-0.029-0.098-0.056-0.142-0.085c-0.071-0.047-0.177-0.106-0.289-0.147
		c0.1-0.161,0.19-0.309,0.286-0.464c0.144-0.186,0.28-0.379,0.408-0.571c0.539-0.81,1.042-1.645,1.507-2.5
		c0.404-0.744,0.992-1.62,0.896-2.462c0-0.003,0.001-0.008,0-0.011c0.008-0.045,0.009-0.084,0.013-0.125
		c0.041-0.229,0.142-0.593-0.2-0.703c-0.002,0-0.004-0.001-0.007-0.001c-0.282-0.251-0.835-0.27-1.59-0.196
		c-1.115,0.019-2.329,0.28-3.632,0.42c-0.656,0.045-1.348,0.065-2.07,0.03c-0.62-0.029-1.134-0.007-1.573,0.05
		c-0.017,0.001-0.031,0.001-0.048,0.001l-0.097,0.018c-0.077,0.011-0.151,0.026-0.223,0.04l-0.128,0.023
		c0,0-0.932,0.012-1.158,0.482c-0.048,0.1-0.086,0.189-0.121,0.276c-0.179,0.273-0.236,0.594-0.208,0.942v0.004
		c-0.001,0.004,0.002,0.013,0.002,0.017c0.182,2.027,3.297,4.976,3.297,4.976c-0.17,0.078-0.33,0.16-0.497,0.239
		c-0.006,0-0.013,0.002-0.02,0.002c-0.127,0-0.254,0.089-0.378,0.189c-1.427,0.699-2.735,1.458-3.917,2.269l-0.002,0.001
		c0,0,0,0.001,0.001,0.001c-6.024,4.136-8.948,9.569-9.87,14.705c-0.888,0.088-1.833,0.267-2.828,0.374
		c-0.656,0.045-1.348,0.065-2.071,0.03c-0.619-0.029-1.133-0.007-1.572,0.05c-0.018,0.001-0.032,0-0.049,0.001l-0.096,0.017
		c-0.078,0.013-0.151,0.026-0.222,0.041l-0.128,0.023c0,0-0.933,0.012-1.159,0.482c-0.047,0.1-0.086,0.189-0.121,0.276
		c-0.178,0.273-0.236,0.594-0.208,0.943c0,0.001-0.001,0.002-0.001,0.003c0,0.004,0.003,0.013,0.003,0.017
		c0.182,2.026,3.297,4.977,3.297,4.977c-0.17,0.077-0.33,0.159-0.497,0.238c-0.007,0-0.014,0.002-0.019,0.002
		c-0.128,0-0.255,0.089-0.378,0.189c-1.429,0.699-2.737,1.458-3.918,2.269l-0.002,0.001v0.001c-9.93,6.82-11.436,17.16-9.436,23.889
		c3.826,12.879,25.336,16.041,32.403,2.286c0.629-1.225,1.036-2.561,1.256-3.957c0.337-1.427,0.297-3.195,0.051-4.976
		c-0.209-1.761-0.639-3.521-1.244-5.203c-0.296-0.864-0.604-1.615-0.885-2.164c-0.004-0.007-0.007-0.011-0.011-0.018
		c-0.014-0.031-0.028-0.062-0.043-0.094c3.661,0.993,7.655,0.973,11.277-0.217c-2.328,5.058-2.385,10.34-1.195,14.343
		c3.826,12.879,25.336,16.041,32.403,2.286c0.629-1.225,1.035-2.561,1.257-3.957C468.12,152.934,468.08,151.166,467.833,149.386
		 M447.856,129.682c-0.127,0-0.254,0.089-0.378,0.189c-0.577,0.283-1.14,0.573-1.676,0.875c0.079-0.339,0.155-0.678,0.209-1.025
		c0.193-0.814,0.263-1.738,0.242-2.714c0.95,1.325,2.12,2.435,2.12,2.435c-0.17,0.077-0.331,0.159-0.497,0.238
		C447.87,129.681,447.863,129.682,447.856,129.682 M411.769,128.632c0.038,0.279,0.081,0.554,0.13,0.825
		c-0.02-0.01-0.039-0.02-0.058-0.03c-0.046-0.029-0.097-0.056-0.142-0.086c-0.071-0.045-0.177-0.105-0.289-0.146
		c0.1-0.161,0.19-0.309,0.286-0.464C411.721,128.699,411.745,128.665,411.769,128.632" />
		<path class="st0" d="M424.918,158.139c3.267-6.359,0.636-15.704-3.757-20.989c-2.93-3.524-7.048-6.89-9.755-8.127
		c6.349-10.201,2.083-6.28-4.385-6.588c-7.874-0.376-0.256,6.829-0.256,6.829c-14.241,6.475-16.537,18.894-14.25,26.59
		C396.341,168.732,417.851,171.895,424.918,158.139" />
		<path class="st1" d="M404.953,122.567c0,0-0.933,0.012-1.158,0.482c-0.217,0.451-0.281,0.724-0.33,1.222
		c-0.013,0.138,0.159,0.554,0.216,0.68c0.084,0.183,0.289,0.273,0.482,0.327c1.528,0.428,3.084-0.455,4.652-0.69
		c0.367-0.054,0.769-0.065,1.076,0.141c0.426,0.286,0.51,0.869,0.531,1.382c0.049,1.206-0.038,2.418-0.258,3.605
		c0.858-0.227,1.448-0.995,1.939-1.733c0.54-0.811,1.043-1.645,1.508-2.5c0.405-0.745,0.992-1.621,0.897-2.462
		c-0.021-0.178,0.235-0.704-0.188-0.839c-1.523-0.486-3.292,0.018-5.257,0.226c-1.589,0.167-2.065,0.023-3.664,0.078" />
		<path class="st1"
			d="M401.95,131.964c2.142,0.924,4.334,1.552,6.665,1.465c0.752-0.028,1.499-0.163,2.251-0.135
		c2.868,0.104,7.747,7.302,8.693,13.678c0.814,5.486-1.505,15.305-14.07,19.617c3.665,0.877,6.819,0.127,8.598-0.306
		c9.001-2.191,10.916-8.61,11.908-11.465c1.274-3.667-0.587-10.424-1.899-12.979c-2.305-4.483-5.102-6.981-8.805-10.403
		c-0.982-0.907-2.474-1.539-3.592-2.272c-0.158-0.103-0.49-0.287-0.691-0.134c-1.111,0.851-2.692,1.037-3.97,0.47
		c-0.242-0.108-0.525,0.004-0.79,0.005c-0.237,0-0.476,0.309-0.686,0.42c-1.095,0.585-2.057,0.869-2.958,1.724L401.95,131.964z" />
		<path class="st3" d="M406.764,129.264c0,0,1.154,1.773,4.642-0.241" />
		<path class="st3" d="M409.086,129.985c0,0,3.105,1.497,5.001,4.781" />
		<path class="st3" d="M407.91,129.925c0,0-0.618,1.379-0.785,4.077" />
		<path class="st3"
			d="M414.133,144.637c-0.058-2.561-8.004-4.04-7.86,2.362l0.055,2.482c0.145,6.402,8.016,4.567,7.958,2.007" />
		<line class="st3" x1="410.778" y1="146.295" x2="403.661" y2="146.455" />
		<line class="st3" x1="410.865" y1="150.137" x2="403.747" y2="150.297" />
		<path class="st3" d="M424.918,158.139c3.267-6.359,0.636-15.704-3.757-20.989c-2.93-3.524-7.048-6.89-9.755-8.127
		c6.349-10.201,2.083-6.28-4.385-6.588c-7.874-0.376-0.256,6.829-0.256,6.829c-14.241,6.475-16.537,18.894-14.25,26.59
		C396.341,168.732,417.851,171.895,424.918,158.139z" />
		<path class="st0" d="M466.526,158.139c3.268-6.359,0.637-15.704-3.757-20.989c-2.929-3.524-7.048-6.89-9.754-8.127
		c6.349-10.201,2.083-6.28-4.385-6.588c-7.874-0.376-0.256,6.829-0.256,6.829c-14.241,6.475-16.537,18.894-14.251,26.59
		C437.949,168.732,459.46,171.895,466.526,158.139" />
		<path class="st1" d="M446.562,122.567c0,0-0.933,0.012-1.158,0.482c-0.217,0.451-0.281,0.724-0.33,1.222
		c-0.014,0.138,0.158,0.554,0.216,0.68c0.083,0.183,0.289,0.273,0.482,0.327c1.527,0.428,3.084-0.455,4.652-0.69
		c0.367-0.054,0.769-0.065,1.075,0.141c0.427,0.286,0.511,0.869,0.532,1.382c0.048,1.206-0.038,2.418-0.258,3.605
		c0.857-0.227,1.448-0.995,1.939-1.733c0.54-0.811,1.043-1.645,1.508-2.5c0.405-0.745,0.992-1.621,0.896-2.462
		c-0.02-0.178,0.236-0.704-0.187-0.839c-1.523-0.486-3.292,0.018-5.257,0.226c-1.59,0.167-2.065,0.023-3.664,0.078" />
		<path class="st1"
			d="M443.558,131.964c2.143,0.924,4.335,1.552,6.666,1.465c0.751-0.028,1.499-0.163,2.251-0.135
		c2.868,0.104,7.747,7.302,8.692,13.678c0.815,5.486-1.505,15.305-14.069,19.617c3.664,0.877,6.818,0.127,8.598-0.306
		c9.001-2.191,10.915-8.61,11.908-11.465c1.274-3.667-0.587-10.424-1.9-12.979c-2.304-4.483-5.102-6.981-8.804-10.403
		c-0.982-0.907-2.474-1.539-3.592-2.272c-0.159-0.103-0.491-0.287-0.691-0.134c-1.111,0.851-2.692,1.037-3.97,0.47
		c-0.243-0.108-0.525,0.004-0.791,0.005c-0.236,0-0.476,0.309-0.685,0.42c-1.095,0.585-2.057,0.869-2.959,1.724L443.558,131.964z" />
		<path class="st3" d="M448.374,129.264c0,0,1.153,1.773,4.642-0.241" />
		<path class="st3" d="M450.694,129.985c0,0,3.105,1.497,5.002,4.781" />
		<path class="st3" d="M449.519,129.925c0,0-0.619,1.379-0.785,4.077" />
		<path class="st3"
			d="M455.741,144.637c-0.058-2.561-8.003-4.04-7.859,2.362l0.055,2.482c0.144,6.402,8.016,4.567,7.958,2.007" />
		<line class="st3" x1="452.387" y1="146.295" x2="445.269" y2="146.455" />
		<line class="st3" x1="452.473" y1="150.137" x2="445.356" y2="150.297" />
		<path class="st3" d="M466.526,158.139c3.268-6.359,0.637-15.704-3.757-20.989c-2.929-3.524-7.048-6.89-9.754-8.127
		c6.349-10.201,2.083-6.28-4.385-6.588c-7.874-0.376-0.256,6.829-0.256,6.829c-14.241,6.475-16.537,18.894-14.251,26.59
		C437.949,168.732,459.46,171.895,466.526,158.139z" />
		<path class="st0" d="M444.756,133.5c3.267-6.359,0.636-15.704-3.757-20.989c-2.929-3.523-7.048-6.89-9.754-8.127
		c6.348-10.201,2.082-6.279-4.385-6.588c-7.875-0.376-0.257,6.829-0.257,6.829c-14.24,6.475-16.536,18.895-14.25,26.59
		C416.179,144.094,437.689,147.256,444.756,133.5" />
		<path class="st1" d="M424.791,97.928c0,0-0.932,0.012-1.158,0.482c-0.217,0.451-0.281,0.725-0.329,1.222
		c-0.014,0.138,0.158,0.554,0.216,0.68c0.083,0.183,0.289,0.274,0.482,0.327c1.527,0.428,3.083-0.455,4.652-0.689
		c0.366-0.055,0.768-0.066,1.075,0.14c0.426,0.286,0.511,0.87,0.531,1.382c0.049,1.206-0.038,2.418-0.257,3.606
		c0.857-0.228,1.447-0.995,1.939-1.734c0.539-0.811,1.042-1.645,1.507-2.5c0.405-0.745,0.993-1.621,0.897-2.462
		c-0.021-0.178,0.235-0.704-0.188-0.839c-1.523-0.486-3.292,0.019-5.257,0.226c-1.589,0.167-2.065,0.024-3.663,0.078" />
		<path class="st1"
			d="M421.788,107.325c2.142,0.924,4.334,1.552,6.666,1.465c0.751-0.028,1.499-0.163,2.25-0.135
		c2.868,0.104,7.748,7.302,8.693,13.678c0.814,5.486-1.505,15.305-14.069,19.618c3.664,0.876,6.818,0.126,8.597-0.307
		c9.001-2.191,10.916-8.61,11.908-11.465c1.275-3.667-0.587-10.424-1.899-12.979c-2.305-4.483-5.102-6.981-8.804-10.403
		c-0.982-0.907-2.475-1.539-3.592-2.271c-0.159-0.104-0.491-0.288-0.692-0.135c-1.111,0.851-2.692,1.038-3.969,0.47
		c-0.243-0.108-0.526,0.005-0.791,0.005c-0.237,0-0.476,0.309-0.685,0.42c-1.095,0.585-2.058,0.87-2.959,1.724L421.788,107.325z" />
		<path class="st3" d="M426.602,104.625c0,0,1.154,1.773,4.643-0.241" />
		<path class="st3" d="M428.924,105.346c0,0,3.105,1.497,5.001,4.781" />
		<path class="st3" d="M427.748,105.286c0,0-0.618,1.379-0.784,4.077" />
		<path class="st3"
			d="M433.97,119.998c-0.058-2.561-8.004-4.041-7.859,2.362l0.055,2.481c0.144,6.403,8.015,4.568,7.957,2.007" />
		<line class="st3" x1="430.616" y1="121.656" x2="423.499" y2="121.816" />
		<line class="st3" x1="430.703" y1="125.497" x2="423.585" y2="125.658" />
		<path class="st3" d="M444.756,133.5c3.267-6.359,0.636-15.704-3.757-20.989c-2.929-3.523-7.048-6.89-9.754-8.127
		c6.348-10.201,2.082-6.279-4.385-6.588c-7.875-0.376-0.257,6.829-0.257,6.829c-14.24,6.475-16.536,18.895-14.25,26.59
		C416.179,144.094,437.689,147.256,444.756,133.5z" />
	</g>
</svg>