<?xml version="1.0" encoding="UTF-8" standalone="no"?>
<svg
   version="1.1"
   x="0px"
   y="0px"
   width="320px"
   height="467.31px"
   viewBox="0 0 320 467.31"
   xml:space="preserve"
   id="svg721"
   sodipodi:docname="einlagensicherung-m-12-wie-funktioniert-zinsunion.svg"
   inkscape:version="1.1 (c68e22c387, 2021-05-23)"
   xmlns:inkscape="http://www.inkscape.org/namespaces/inkscape"
   xmlns:sodipodi="http://sodipodi.sourceforge.net/DTD/sodipodi-0.dtd"
   xmlns="http://www.w3.org/2000/svg"
   xmlns:svg="http://www.w3.org/2000/svg"><defs
   id="defs725" /><sodipodi:namedview
   id="namedview723"
   pagecolor="#ffffff"
   bordercolor="#666666"
   borderopacity="1.0"
   inkscape:pageshadow="2"
   inkscape:pageopacity="0.0"
   inkscape:pagecheckerboard="0"
   showgrid="false"
   inkscape:zoom="1.2589349"
   inkscape:cx="293.50208"
   inkscape:cy="206.92095"
   inkscape:window-width="1920"
   inkscape:window-height="1017"
   inkscape:window-x="-8"
   inkscape:window-y="-8"
   inkscape:window-maximized="1"
   inkscape:current-layer="g717" />
    <style
   type="text/css"
   id="style2">
        .st0 {
            fill: none;
        }

        .st1 {
            fill: #F3F7FC;
        }

        .st2 {
            fill: #A1C4E7;
        }

        .st3 {
            fill: none;
            stroke: #F3F7FC;
            stroke-width: 0;
            stroke-linecap: round;
            stroke-linejoin: round;
        }

        .st4 {
            fill: #FFFFFF;
        }

        .st5 {
            fill: #D0E2F3;
        }

        .st6 {
            fill: none;
            stroke: #004B8C;
            stroke-miterlimit: 10;
        }

        .st7 {
            fill: none;
            stroke: #004B8C;
            stroke-linecap: round;
            stroke-linejoin: round;
            stroke-miterlimit: 10;
        }

        .st8 {
            fill: #404040;
        }

        .st9 {
            fill: #E8F0F9;
        }

        .st10 {
            fill-rule: evenodd;
            clip-rule: evenodd;
            fill: #FFFFFF;
        }

        .st11 {
            fill: none;
            stroke: #BFCCD4;
            stroke-linecap: round;
            stroke-miterlimit: 10;
        }

        .st12 {
            fill: none;
            stroke: #D7D7D7;
            stroke-linecap: round;
            stroke-miterlimit: 10;
        }

        .st13 {
            fill: #FFFFFF;
            stroke: #004B8C;
            stroke-linecap: round;
            stroke-linejoin: round;
            stroke-miterlimit: 10;
        }

        .st14 {
            fill: #004B8C;
            stroke: #004B8C;
            stroke-linecap: round;
            stroke-linejoin: round;
            stroke-miterlimit: 10;
        }

        .st15 {
            fill: #004B8C;
        }

        .st16 {
            clip-path: url(#SVGID_2_);
            fill: #D0E2F3;
        }

        .st17 {
            fill: #929292;
        }

        .st18 {
            fill: #922C1C;
        }

        .st19 {
            fill: #E6411A;
        }

        .st20 {
            fill: #003554;
        }

        .st21 {
            fill: none;
            stroke: #FFFFFF;
            stroke-linecap: round;
            stroke-linejoin: round;
            stroke-miterlimit: 10;
        }

        .st22 {
            fill: none;
            stroke: #3A8DFF;
            stroke-linecap: round;
            stroke-linejoin: round;
            stroke-miterlimit: 10;
        }

        .st23 {
            fill: #3A8DFF;
            stroke: #004B8C;
            stroke-linecap: round;
            stroke-linejoin: round;
            stroke-miterlimit: 10;
        }

        .st24 {
            opacity: 0.2;
            fill: #156CC4;
        }

        .st25 {
            fill: #D0E2F3;
            stroke: #004B8C;
            stroke-linecap: round;
            stroke-linejoin: round;
            stroke-miterlimit: 10;
        }

        .st26 {
            fill: none;
            stroke: #D0E2F3;
            stroke-linecap: round;
            stroke-miterlimit: 10;
        }

        .st27 {
            fill: none;
            stroke: #004B8C;
            stroke-width: 0.5;
            stroke-linecap: round;
            stroke-linejoin: round;
            stroke-miterlimit: 10;
        }

        .st28 {
            fill: none;
            stroke: #004B8C;
            stroke-width: 1.75;
            stroke-linecap: round;
            stroke-linejoin: round;
            stroke-miterlimit: 10;
        }

        .st29 {
            fill: #FFFFFF;
            stroke: #004B8C;
            stroke-miterlimit: 10;
        }

        .st30 {
            fill: none;
            stroke: #004B8C;
            stroke-linecap: round;
            stroke-miterlimit: 10;
        }

        .st31 {
            fill: #E8F0F9;
            stroke: #004B8C;
            stroke-linecap: round;
            stroke-linejoin: round;
            stroke-miterlimit: 10;
        }
    </style>
    <g
   id="Karte" />
    <g
   id="Grafik">
        <g
   id="g717">
            <line
   class="st7"
   x1="167.125"
   y1="85.484"
   x2="167.125"
   y2="125.099"
   id="line5" />
            <path
   class="st7"
   d="M122.84,27.135h32.756c6.368,0,11.529,5.162,11.529,11.529v16.103"
   id="path7" />
            <g
   id="g83">
                <path
   class="st4"
   d="M277.054,214.247v-79.469c0-1.384-1.122-2.506-2.505-2.506H154.653c-1.384,0-2.505,1.122-2.505,2.506v79.469     h-12.903c0,1.317,0.43,2.531,1.15,3.521l0.01,0.031h0.013c1.092,1.48,2.843,2.445,4.824,2.445h138.718     c3.312,0,5.997-2.685,5.997-5.997H277.054z"
   id="path9" />
                <circle
   class="st7"
   cx="164.089"
   cy="145.046"
   r="1.318"
   id="circle11" />
                <circle
   class="st7"
   cx="170.565"
   cy="145.046"
   r="1.318"
   id="circle13" />
                <circle
   class="st7"
   cx="177.041"
   cy="145.046"
   r="1.318"
   id="circle15" />
                <g
   id="g31">
                    <path
   class="st5"
   d="M273.077,173.472l-96.996,35.375l97.265-0.045c0,0,0.017,1.733,0.017,0.088L273.077,173.472z"
   id="path17" />
                    <polyline
   class="st5"
   points="139.244,214.246 289.957,214.246 288.495,217.799 140.404,217.799 139.244,214.246     "
   id="polyline19" />
                    <g
   id="g29">
                        <path
   class="st6"
   d="M274.549,132.272H154.653c-1.384,0-2.505,1.122-2.505,2.505v79.469h124.907v-79.469       C277.054,133.394,275.932,132.272,274.549,132.272z"
   id="path21" />
                        <path
   class="st6"
   d="M272.815,137.723H156.386c-0.302,0-0.548,0.245-0.548,0.548v69.976c0,0.302,0.245,0.548,0.548,0.548       h116.429c0.302,0,0.548-0.245,0.548-0.548v-69.976C273.362,137.969,273.117,137.723,272.815,137.723z"
   id="path23" />
                        <circle
   class="st15"
   cx="214.601"
   cy="134.989"
   r="1.271"
   id="circle25" />
                        <path
   class="st6"
   d="M283.959,220.244H145.242c-3.312,0-5.997-2.685-5.997-5.997l0,0h150.713l0,0       C289.957,217.559,287.272,220.244,283.959,220.244z"
   id="path27" />
                    </g>
                </g>
                
                <line
   class="st7"
   x1="155.839"
   y1="150.551"
   x2="273.362"
   y2="150.551"
   id="line81" />
            </g>
            <path
   class="st5"
   d="M276.64,219.742v-39.791h-17.915c-1.522,0-2.755,1.233-2.755,2.755v37.036H276.64z"
   id="path85" />
            <polyline
   class="st21"
   points="67.711,199.518 61.445,193.148 55.158,199.498   "
   id="polyline87" />
            <polyline
   class="st7"
   points="160.797,118.812 167.074,125.172 173.351,118.812   "
   id="polyline89" />
            
            <polyline
   class="st7"
   points="169.005,319.556 162.738,325.927 156.451,319.577   "
   id="polyline93" />
            
            <g
   id="g101">
                <g
   id="g99">
                    <path
   class="st4"
   d="M118.252,78.923c-0.193-3.193-1.092-12.757-2.139-17.712c-1.318-6.238-1.847-7.904-3.429-9.955      c-1.603-2.495-3.844-4.245-7.133-4.907c0,0-0.039-0.009-0.066-0.015c-3.314-1.058-6.97-1.461-10.64-3.162      c-0.286-0.277-0.374-0.3-0.399-0.181c-0.017-0.008-0.033-0.014-0.05-0.022l0.044,0.066c-0.025,0.306-0.044-0.066-0.044-0.066      c-0.031-1.327-0.055-1.982-0.077-2.523c0.003-0.002,0.006-0.003,0.009-0.005l-0.115-3.187l-0.091,0.011      c1.077-0.709,2.013-1.629,2.687-2.729c0.688-1.123,1.119-2.384,1.47-3.653c0.521-1.881,0.871-3.807,1.065-5.75      c0.031,0.347,0.081,0.671,0.179,0.928c0.107,0.281,1.65-1.359,2.329-9.55c0.155-1.874-1.068-3.601-2.329-5.018      c-1-1.126-1.307-1.665-2.665-2.565c-1.589-1.052-3.09-1.647-4.934-2.143c-1.844-0.495-3.814-0.66-5.658-0.165      c-1.631,0.427-3.077,1.349-4.445,2.368c-0.01,0-0.01,0.01-0.019,0.01c-1.368,0.641-2.892,2.611-3.892,3.727      c-1.252,1.417-1.873,3.348-1.951,5.231c-0.33,8.337,3.552,10.793,3.659,10.511c0.065-0.171,0.109-0.381,0.138-0.62      c0.075,0.664,0.169,1.325,0.285,1.983c0.26,1.485,0.631,2.97,1.349,4.295c1.032,1.904,2.807,3.358,4.836,4.104l-0.448,0.055      v2.156c0,0.71,0,1.133,0,2.884c0,0,0.015,0.11,0.082,0.275c-0.092,0.048-0.186,0.091-0.281,0.128l0.2-0.403      c-3.413,1.257-6.229,1.794-12.939,5.093c-4.158,2.044-10.555,18.31-12.204,22.487c-2.618,6.63-0.513,10.173,3.669,15.079      c5.53,6.487,4.691,5.325,9.211,9.696l0.448-0.444c0.159,0.095,0.902,0.531,1.793,0.874c-0.075,0.075-0.119,0.187-0.129,0.301      c-0.053,0.579-0.042,1.163,0.019,1.741c0.027,0.004,0.054,0.008,0.081,0.012c-0.116,3.922-0.287,7.413-0.515,10.034      c0.702,0.054,2.328,0.16,1.805,0.221l-0.546,0.017c0.009,0.223,0.023,0.457,0.034,0.684c-0.161,1.059-0.092,2.147,0.211,3.175      c0.002,0.019,0.003,0.038,0.005,0.056c-0.032-0.001-0.064-0.003-0.096-0.004l0.105,0.114c0.616,7.459,1.974,16.541,2.266,24.556      c0.091,2.499-0.438,28.168-0.438,28.168c0.384,0.043,0.781,0.079,1.183,0.112c-0.192,0.37-0.268,0.928-0.236,1.302      c-0.032,0.73,0.239,1.492,0.686,2.085c0.657,0.872,1.617,1.457,2.558,2.011c3.587,2.115,7.281,4.122,11.271,5.31      c1.001,0.298,2.058,0.545,3.082,0.341c1.024-0.204,2.003-0.975,2.134-2.011c0.192-1.526-1.366-2.632-2.719-3.365      c-0.552-0.299-1.116-0.612-1.677-0.923c-0.309-0.264-0.631-0.512-0.98-0.72c-0.525-0.314-1.087-0.56-1.636-0.829      c-1.557-0.764-3.018-1.722-4.34-2.845c-0.084-0.072-0.17-0.143-0.26-0.207c0.769-0.082,1.538-0.163,2.307-0.244      c0.004-0.07,0.006-0.14,0.01-0.21c0.021-0.005,0.047-0.01,0.067-0.016c0.016-0.968,0.04-1.968,0.07-2.994      c0.17-3.668,0.309-7.337,0.404-11.008c0.156-4.241,0.292-8.719,0.299-13.334c0.015-9.874-0.585-20.327-0.674-29.6      c2.185-0.073,4.057-0.048,2.883,0.098c-0.33,1.32,0.322,4.09,0.329,4.119c0.81,14.476-0.383,42.301-0.23,52.42      c0.476,0.131,1.286,0.233,2.278,0.307c0,0-0.001,0-0.002,0c-0.018,0.011-0.032,0.034-0.049,0.048l-0.474-0.003      c-0.519,0.961-0.227,2.198,0.43,3.07c0.657,0.872,1.617,1.457,2.558,2.011c3.587,2.115,7.281,4.122,11.271,5.31      c1.001,0.298,2.058,0.545,3.082,0.341c1.024-0.204,2.003-0.975,2.134-2.011c0.193-1.526-1.366-2.632-2.719-3.365      c-2.988-1.617-5.532-3.195-8.433-4.805c-0.129-0.108-0.26-0.212-0.414-0.277c-0.041-0.018-0.085-0.021-0.128-0.032      c0.804-0.125,1.618-0.301,2.415-0.385c0,0,0.409-14.978,0.702-30.191c0,0,0,0,0-0.001c0.209-3.789,0.413-7.54,0.291-11.332      c-0.156-4.846,0.218-10.962-0.019-15.854c0.079-0.024,0.163-0.037,0.233-0.083c0.142-0.092,0.231-0.224,0.299-0.37      c0.067-0.032,0.14-0.052,0.194-0.105c0.231-0.226,0.242-0.588,0.234-0.912c-0.16-6.68-0.043-21.376,0.118-31.07      c0.04-0.873,0.074-1.747,0.125-2.62c0.103-1.747,0.215-3.555,0.086-5.306c1.288,6.042,2.934,13.638,3.039,14.294      c0,0-0.162,18.507-0.477,20.71c0,0,0.324,0.071,0.839,0.157H110.7c-0.077,2.244,0.097,5.355,1.613,5.691      c1.524,0.338,2.732-2.862,3.41-5.241l-0.551-0.049c0.49-0.08,0.98-0.159,1.469-0.239c0.019-0.074,0.03-0.15,0.048-0.225      c0.077-0.031,0.158-0.058,0.229-0.094c0,0,0.05-0.596,0.129-1.586c0.631-3.154,0.916-6.374,1.057-9.591      c0.116-2.637,0.148-5.277,0.103-7.916C118.278,81.195,118.303,79.757,118.252,78.923z M79.634,21.781      c-0.04,0.547-0.057,1.096-0.07,1.645c-0.05-0.784-0.062-1.477,0.042-1.927c0.023-0.1,0.053-0.205,0.086-0.313      C79.656,21.55,79.634,21.781,79.634,21.781z M75.049,88.529c-2.042-2.521-4.095-5.06-5.667-7.899      c-0.981-1.772-1.785-3.816-1.319-5.788c0.039-0.164,0.089-0.325,0.143-0.484c0.956-2.105,2.885-6.024,5.569-9.884      c0.431-0.58,0.877-1.148,1.357-1.691c0.023-0.026,0.047-0.055,0.07-0.083l0.03,0.702l0.662,26.173      C75.613,89.226,75.331,88.878,75.049,88.529z M75.899,89.579c-0.001-0.001-0.001-0.001-0.002-0.002      C75.905,88.055,75.905,88.573,75.899,89.579z M114.545,102.545l-0.294-0.026c0.099-0.001,0.197-0.005,0.295-0.008      C114.545,102.522,114.545,102.534,114.545,102.545z"
   id="path97" />
                </g>
            </g>
            <g
   id="g261">
                <g
   id="g259">
                    <path
   class="st5"
   d="M85.776,40.44c0,0,2.771,3.342,8.551,0l-0.115-3.187c0,0-2.829,1.438-5.232,1.531      c-2.403,0.093-3.204-0.5-3.204-0.5V40.44z"
   id="path103" />
                    <path
   class="st5"
   d="M93.465,44.811c4.07,1.815,14.382,4.735,16.83,8.459c0.65,0.988,2.051,2.651,2.366,3.791      c0.351,1.269,1.424,4.051,1.515,5.589c0.193,3.261,0.564,5.751,1.147,8.966c0.484,2.672,0.468,5.12,0.825,7.812      c0.575,4.334-0.376,8.703-0.95,13.038c-0.449,3.393-0.668,6.816-0.655,10.239c0.699-0.114,1.399-0.228,2.098-0.341      c0.949-3.751,1.294-7.629,1.464-11.495c0.451-10.272-0.319-20.597-2.287-30.688c-0.291-1.491-0.609-2.98-1.078-4.424      c-1.583-4.867-4.171-8.396-9.189-9.405c0,0-9.673-2.17-10.69-3.162C93.845,42.195,95.219,44.23,93.465,44.811"
   id="path105" />
                    <path
   class="st5"
   d="M101.515,107.352c1.244-2.731,1.568-5.778,1.876-8.764c0.342-3.316,0.685-6.638,0.725-9.972      c0.057-4.751-0.501-9.498-0.34-14.247c0.143-4.198,0.851-8.377,2.099-12.387c1.8,3.047,1.546,6.83,1.339,10.363      c-0.187,3.193-0.291,6.391-0.395,9.588c-0.072,2.22-0.144,4.44-0.216,6.661c-0.187,5.77-0.374,11.554,0.068,17.31      c0.042,0.552,0.038,1.218-0.428,1.518c-0.24,0.154-0.542,0.163-0.827,0.167c-1.33,0.017-2.661,0.034-3.991,0.052"
   id="path107" />
                    <path
   class="st13"
   d="M110.7,102.2c-0.077,2.244,0.097,5.355,1.613,5.691c1.524,0.338,2.732-2.862,3.41-5.241"
   id="path109" />
                    <path
   class="st5"
   d="M75.674,92.349c-1.083-0.902-2.134-1.844-3.15-2.821c-0.585-0.563-1.162-1.143-1.627-1.808      c-0.469-0.671-0.816-1.418-1.161-2.16c-1.068-2.3-2.136-4.599-3.203-6.899c-0.353-0.761-0.713-1.548-0.74-2.386      c-0.019-0.581,0.124-1.156,0.316-1.704c0.574-1.639,1.581-3.086,2.599-4.494c1.34-1.853,2.721-3.675,4.101-5.498      c0.94-1.241,1.894-2.497,3.117-3.46c0.102,0.628-0.371,1.187-0.793,1.664c-2.583,2.921-4.391,6.43-6.172,9.899      c-0.357,0.696-0.718,1.4-0.897,2.161c-0.466,1.972,0.338,4.016,1.319,5.788c1.571,2.839,3.625,5.377,5.667,7.899      c0.442,0.546,0.885,1.093,1.327,1.639c0.153,0.189,0.315,0.403,0.301,0.646c-0.011,0.199-0.138,0.37-0.26,0.528      c-0.241,0.313-0.482,0.625-0.723,0.938"
   id="path111" />
                    <path
   class="st5"
   d="M75.576,98.14c0.473,0.079,0.949,0.158,1.428,0.138c0.479-0.02,0.966-0.145,1.345-0.438      c0.176-0.136,0.324-0.305,0.466-0.477c0.223-0.272,0.434-0.561,0.561-0.889s0.165-0.702,0.042-1.031      c-0.215,0.266-0.432,0.534-0.701,0.744s-0.6,0.359-0.941,0.349c-0.2-0.006-0.393-0.065-0.584-0.123      c-0.386-0.118-0.773-0.236-1.159-0.355c-0.065-0.02-0.133-0.04-0.199-0.024c-0.148,0.036-0.194,0.222-0.208,0.374      c-0.057,0.627-0.048,1.259,0.029,1.884"
   id="path113" />
                    <path
   class="st5"
   d="M95.362,164.981c0.305-0.186,0.692-0.138,1.044-0.079c1.683,0.285,3.393,0.701,5.076,0.416      c0.423-0.072,0.872-0.184,1.267-0.018c0.19,0.08,0.348,0.218,0.505,0.351c1.322,1.123,2.783,2.081,4.34,2.845      c0.549,0.269,1.111,0.515,1.636,0.829c0.394,0.236,0.766,0.509,1.109,0.815c-0.427,0.245-0.978,0.131-1.407-0.109      c-0.43-0.24-0.787-0.591-1.204-0.853c-0.694-0.437-1.519-0.607-2.27-0.936c-0.44-0.193-0.854-0.439-1.288-0.644      c-1.275-0.602-2.701-0.83-4.11-0.859c-1.41-0.029-2.816,0.132-4.219,0.276c-0.279,0.029-0.57,0.055-0.833-0.043      S94.832,165.306,95.362,164.981z"
   id="path115" />
                    <path
   class="st5"
   d="M79.992,164.981c0.305-0.186,0.692-0.138,1.044-0.079c1.683,0.285,3.393,0.701,5.076,0.416      c0.423-0.072,0.872-0.184,1.267-0.018c0.19,0.08,0.348,0.218,0.505,0.351c1.322,1.123,2.783,2.081,4.34,2.845      c0.549,0.269,1.111,0.515,1.636,0.829c0.394,0.236,0.766,0.509,1.109,0.815c-0.427,0.245-0.978,0.131-1.407-0.109      c-0.43-0.24-0.787-0.591-1.204-0.853c-0.694-0.437-1.519-0.607-2.27-0.936c-0.44-0.193-0.854-0.439-1.288-0.644      c-1.275-0.602-2.701-0.83-4.11-0.859s-2.816,0.132-4.219,0.276c-0.279,0.029-0.57,0.055-0.833-0.043      S79.461,165.306,79.992,164.981z"
   id="path117" />
                    <path
   class="st5"
   d="M76.624,112.345c2.203,0.091,4.406,0.182,6.609,0.273c0.51,0.021,1.041,0.048,1.488,0.295      c0.58,0.32,0.911,0.95,1.174,1.558c2.038,4.701,1.953,10.011,1.834,15.133c-0.278,11.973-0.556,23.945-0.834,35.918      c1.011-0.107,2.022-0.214,3.033-0.322c0.531-10.136,0.774-20.288,0.726-30.438c-0.018-3.794-0.076-7.588-0.198-11.381      c-0.159-4.944-0.427-9.885-0.695-14.825c-4.351-0.611-8.783-0.646-13.143-0.104c-0.332,1.327-0.28,2.747,0.147,4.047"
   id="path119" />
                    <path
   class="st5"
   d="M93.317,112.257c2.203,0.091,3.688,0.27,5.891,0.361c0.51,0.021,1.041,0.048,1.488,0.295      c0.58,0.32,0.911,0.95,1.174,1.558c2.038,4.701,1.953,10.011,1.834,15.133c-0.278,11.973-1.454,23.78-1.732,35.753      c1.011-0.107,2.051-0.367,3.062-0.474c0.098-10.887,0.151-20.196,0.703-30.192c0.209-3.788,0.413-7.54,0.291-11.332      c-0.159-4.944,0.238-11.219-0.03-16.159c-4.026,0.308-8.651,0.394-13.011,0.936C92.656,109.462,93.317,112.257,93.317,112.257z"
   id="path121" />
                    <path
   class="st7"
   d="M75.78,96.12c-0.113,4.752-0.304,9.007-0.57,12.076c4.236,0.327,25.657-0.433,30.789-0.997      c0.264-0.029,0.548-0.067,0.738-0.253c0.231-0.226,0.242-0.588,0.234-0.912c-0.219-9.15,0.081-33.347,0.303-39.115"
   id="path123" />
                    <path
   class="st7"
   d="M75.21,62.517c0.51,5.757,0.736,17.586,0.687,27.14"
   id="path125" />
                    <path
   class="st7"
   d="M85.776,43.324c-3.413,1.257-6.229,1.794-12.939,5.093c-4.158,2.044-10.555,18.31-12.204,22.487      c-2.618,6.63-0.513,10.173,3.669,15.079c5.53,6.487,4.691,5.325,9.211,9.696l3.395-4.953c0,0-8.361-8.388-9.383-14.797      c0,0,3.894-9.758,10.179-16.321"
   id="path127" />
                    <path
   class="st7"
   d="M94.395,42.968c-0.074-3.213-0.109-2.502-0.183-5.714l-8.436,1.031c0,2.876,0,2.164,0,5.04      c0,0,0.234,2.149,4.684,2.149S94.395,42.968,94.395,42.968z"
   id="path129" />
                    <path
   class="st7"
   d="M86.412,165.357c3.298,1.785,6.807,3.826,10.104,5.611c1.353,0.732,2.911,1.839,2.719,3.365      c-0.131,1.036-1.11,1.807-2.134,2.011c-1.024,0.204-2.081-0.043-3.082-0.34c-3.991-1.188-7.685-3.195-11.271-5.31      c-0.941-0.555-1.901-1.139-2.558-2.011c-0.657-0.872-0.949-2.109-0.43-3.07"
   id="path131" />
                    <path
   class="st7"
   d="M102.266,165.077c3.298,1.785,6.032,3.52,9.33,5.305c1.353,0.732,2.911,1.839,2.719,3.365      c-0.131,1.036-1.11,1.807-2.134,2.011c-1.024,0.204-2.081-0.043-3.082-0.34c-3.991-1.188-7.685-3.195-11.271-5.31      c-0.941-0.555-1.901-1.139-2.558-2.011c-0.657-0.872-0.949-2.109-0.43-3.07"
   id="path133" />
                    <g
   id="g151">
                        <g
   id="g141">
                            <path
   class="st22"
   d="M104.372,166.503c-0.962,0.223-1.834,0.814-2.398,1.624"
   id="path135" />
                            <path
   class="st22"
   d="M106.233,167.459c-0.377-0.008-0.725,0.197-1.029,0.42c-0.433,0.318-0.828,0.69-1.171,1.104"
   id="path137" />
                            <path
   class="st22"
   d="M107.874,168.425c-0.705,0.37-1.324,0.903-1.794,1.546"
   id="path139" />
                        </g>
                        <g
   id="g149">
                            <path
   class="st7"
   d="M104.372,166.503c-0.962,0.223-1.834,0.814-2.398,1.624"
   id="path143" />
                            <path
   class="st7"
   d="M106.233,167.459c-0.377-0.008-0.725,0.197-1.029,0.42c-0.433,0.318-0.828,0.69-1.171,1.104"
   id="path145" />
                            <path
   class="st7"
   d="M107.874,168.425c-0.705,0.37-1.324,0.903-1.794,1.546"
   id="path147" />
                        </g>
                    </g>
                    <g
   id="g169">
                        <g
   id="g159">
                            <path
   class="st22"
   d="M89.951,167.464c-0.962,0.223-1.834,0.814-2.398,1.624"
   id="path153" />
                            <path
   class="st22"
   d="M91.812,168.421c-0.377-0.008-0.725,0.197-1.029,0.42c-0.433,0.318-0.828,0.69-1.171,1.104"
   id="path155" />
                            <path
   class="st22"
   d="M93.453,169.387c-0.705,0.37-1.324,0.903-1.794,1.546"
   id="path157" />
                        </g>
                        <g
   id="g167">
                            <path
   class="st7"
   d="M89.951,167.464c-0.962,0.223-1.834,0.814-2.398,1.624"
   id="path161" />
                            <path
   class="st7"
   d="M91.812,168.421c-0.377-0.008-0.725,0.197-1.029,0.42c-0.433,0.318-0.828,0.69-1.171,1.104"
   id="path163" />
                            <path
   class="st7"
   d="M93.453,169.387c-0.705,0.37-1.324,0.903-1.794,1.546"
   id="path165" />
                        </g>
                    </g>
                    <path
   class="st7"
   d="M90.104,108.019c0.089,9.277,0.689,19.737,0.674,29.618c-0.015,10.159-0.649,19.712-0.773,27.337      c-1.862,0.512-7.271,0.676-11.449,0.208c0,0,0.529-25.67,0.438-28.168c-0.348-9.522-2.204-20.56-2.526-28.581"
   id="path171" />
                    <path
   class="st7"
   d="M92.988,108.135c1.407,12.494-0.07,45.347,0.098,56.539c1.862,0.512,8.82,0.59,11.949,0.208      c0,0,1.197-43.821,0.963-57.683"
   id="path173" />
                    <path
   class="st13"
   d="M98.075,13.313c-0.586-1.047-1.851-1.515-3.004-1.847c-1.485-0.427-3.03-0.605-4.571-0.715      c-1.691-0.121-3.412-0.159-5.057,0.251c-1.645,0.409-3.223,1.315-4.137,2.742c-0.652,1.018-0.929,2.227-1.122,3.42      c-0.278,1.717-0.551,4.617-0.551,4.617c-0.197,2.686-0.061,5.397,0.405,8.05c0.26,1.485,0.631,2.97,1.349,4.295      c1.482,2.734,4.484,4.576,7.592,4.658c3.108,0.083,6.204-1.598,7.829-4.249c0.688-1.123,1.119-2.384,1.47-3.653      c1.161-4.19,1.517-8.602,1.041-12.925C99.32,17.958,99.206,15.334,98.075,13.313z"
   id="path175" />
                    <circle
   class="st23"
   cx="85.232"
   cy="22.661"
   r="0.571"
   id="circle177" />
                    <circle
   class="st23"
   cx="94.114"
   cy="22.661"
   r="0.571"
   id="circle179" />
                    <path
   class="st7"
   d="M91.464,27.126c0.346,0.891,0.695,1.88,0.366,2.777c-0.078,0.212-0.196,0.416-0.377,0.551      c-0.233,0.174-0.538,0.214-0.828,0.236c-0.697,0.053-1.399,0.037-2.093-0.047"
   id="path181" />
                    <path
   class="st7"
   d="M105.932,60.497c0.806,4.079,4.254,19.877,4.407,20.836c0,0-0.162,18.507-0.477,20.71      c0,0,4.914,1.073,7.056,0c0,0,1.585-18.968,1.334-23.12c-0.193-3.193-1.092-12.757-2.139-17.712      c-1.455-6.889-1.945-8.2-3.957-10.614c-4.672-5.604-11.218-4.401-17.761-7.629"
   id="path183" />
                    <path
   class="st7"
   d="M84.807,32.88c0.306,0.52,0.733,0.967,1.239,1.296c0.446,0.29,1.059,0.477,1.49,0.166"
   id="path185" />
                    <path
   class="st23"
   d="M88.243,23.313c1.137,0.59,2.409,0.436,3.375,0.002"
   id="path187" />
                    <path
   class="st23"
   d="M82.059,23.061c-0.045-0.02-0.668-2.044-1.912-2.587"
   id="path189" />
                    <path
   class="st23"
   d="M95.958,23.061c0,0,1.337-2.916,3.566-3.131"
   id="path191" />
                    <path
   class="st13"
   d="M101.852,16.51c-0.679,8.192-2.223,9.832-2.329,9.55c-0.544-1.417,0.136-4.503-0.204-5.988      c-0.34-1.456-2.076-3.476-3.58-3.621c0.087-0.019-0.316,0.01-0.296,0.02c-1.747,0.437-3.519,0.34-5.062-0.601      c-0.582,0.437-1.116,0.961-1.737,1.359c-1.543,0.99-5.273,0.621-5.253,0.621l-0.065,0c-1.9-0.246-3.378,2.184-3.717,3.649      c-0.34,1.475,0.553,5.552,0.01,6.969c-0.107,0.282-3.989-2.174-3.659-10.511c0.078-1.883,0.699-3.814,1.951-5.231      c1-1.116,2.523-3.086,3.892-3.727c0.01,0,0.01-0.01,0.019-0.01c1.369-1.019,2.815-1.941,4.445-2.368      c1.844-0.495,3.814-0.33,5.658,0.165c1.844,0.495,3.345,1.09,4.934,2.142c1.359,0.9,1.666,1.439,2.665,2.565      C100.784,12.91,102.007,14.637,101.852,16.51z"
   id="path193" />
                    <path
   class="st13"
   d="M73.927,95.213c0,0,3.905,2.43,5.134,0.706c1.229-1.725-2.39-4.851-2.39-4.851L73.927,95.213z"
   id="path195" />
                    <g
   id="g253">
                        <circle
   class="st24"
   cx="81.424"
   cy="28.923"
   r="0.5"
   id="circle197" />
                        <circle
   class="st24"
   cx="82.344"
   cy="30.537"
   r="0.5"
   id="circle199" />
                        <circle
   class="st24"
   cx="85.145"
   cy="31.381"
   r="0.5"
   id="circle201" />
                        <circle
   class="st24"
   cx="87.252"
   cy="32.15"
   r="0.5"
   id="circle203" />
                        <circle
   class="st24"
   cx="82.059"
   cy="32.636"
   r="0.5"
   id="circle205" />
                        <circle
   class="st24"
   cx="84.125"
   cy="29.812"
   r="0.5"
   id="circle207" />
                        <circle
   class="st24"
   cx="83.263"
   cy="32.15"
   r="0.5"
   id="circle209" />
                        <circle
   class="st24"
   cx="83.933"
   cy="33.926"
   r="0.5"
   id="circle211" />
                        <circle
   class="st24"
   cx="84.523"
   cy="35.964"
   r="0.5"
   id="circle213" />
                        <circle
   class="st24"
   cx="86.735"
   cy="36.329"
   r="0.5"
   id="circle215" />
                        <circle
   class="st24"
   cx="89.191"
   cy="32.287"
   r="0.5"
   id="circle217" />
                        <circle
   class="st24"
   cx="88.87"
   cy="33.864"
   r="0.5"
   id="circle219" />
                        <circle
   class="st24"
   cx="91.671"
   cy="34.708"
   r="0.5"
   id="circle221" />
                        <circle
   class="st24"
   cx="88.585"
   cy="35.964"
   r="0.5"
   id="circle223" />
                        <circle
   class="st24"
   cx="90.651"
   cy="33.139"
   r="0.5"
   id="circle225" />
                        <circle
   class="st24"
   cx="94.949"
   cy="31.749"
   r="0.5"
   id="circle227" />
                        <circle
   class="st24"
   cx="89.789"
   cy="35.477"
   r="0.5"
   id="circle229" />
                        <circle
   class="st24"
   cx="92.545"
   cy="34.012"
   r="0.5"
   id="circle231" />
                        <circle
   class="st24"
   cx="92.341"
   cy="32.569"
   r="0.5"
   id="circle233" />
                        <circle
   class="st24"
   cx="94.861"
   cy="34.581"
   r="0.5"
   id="circle235" />
                        <circle
   class="st24"
   cx="88.293"
   cy="37.254"
   r="0.5"
   id="circle237" />
                        <circle
   class="st24"
   cx="96.466"
   cy="31.749"
   r="0.5"
   id="circle239" />
                        <circle
   class="st24"
   cx="97.121"
   cy="29.481"
   r="0.5"
   id="circle241" />
                        <circle
   class="st24"
   cx="94.327"
   cy="33.287"
   r="0.5"
   id="circle243" />
                        <circle
   class="st24"
   cx="95.779"
   cy="33.139"
   r="0.5"
   id="circle245" />
                        <circle
   class="st24"
   cx="93.465"
   cy="35.625"
   r="0.5"
   id="circle247" />
                        <circle
   class="st24"
   cx="90.459"
   cy="37.254"
   r="0.5"
   id="circle249" />
                        <circle
   class="st24"
   cx="91.962"
   cy="36.761"
   r="0.5"
   id="circle251" />
                    </g>
                    <path
   class="st25"
   d="M85.812,21.099c-0.768-0.023-1.558,0.057-2.249,0.395c-0.69,0.338-1.269,0.968-1.396,1.727      c-0.081,0.483,0.025,0.985,0.237,1.426c0.452,0.941,1.409,1.62,2.446,1.736c1.037,0.116,2.12-0.334,2.77-1.151      c0.624-0.785,0.837-1.936,0.372-2.824C87.325,21.137,85.812,21.099,85.812,21.099z"
   id="path255" />
                    <path
   class="st25"
   d="M94.278,21.046c-1.449,0.087-2.575,0.964-2.661,2.269c-0.086,1.305,0.918,2.556,2.183,2.888      c0.924,0.242,1.971,0.025,2.683-0.612c0.712-0.637,1.018-1.681,0.77-2.604C96.611,20.592,94.278,21.046,94.278,21.046z"
   id="path257" />
                </g>
            </g>
            <line
   class="st26"
   x1="20.375"
   y1="169.505"
   x2="39.8"
   y2="169.505"
   id="line263" />
            <line
   class="st26"
   x1="52.273"
   y1="169.505"
   x2="64.198"
   y2="169.505"
   id="line265" />
            <line
   class="st26"
   x1="115.286"
   y1="169.505"
   x2="134.211"
   y2="169.505"
   id="line267" />
            <g
   id="g271">
                <path
   class="st4"
   d="M84.543,178.219c-1.165-0.44-2.218-0.891-3.237-1.367c0.855-0.204,2.647-0.783,1.932-1.941     c-0.779-1.261-1.914,1.031-2.256,1.792c-0.035-0.017-0.07-0.035-0.105-0.052c-0.014-0.864-0.157-3.349-1.358-2.511     c-0.836,0.583-0.25,1.428,0.393,2.037c-1.484-0.749-2.959-1.578-4.661-2.552c-0.619-0.41-1.19-0.789-1.648-1.092     c-0.088-0.104-0.174-0.209-0.249-0.325c-0.371-0.577-0.521-1.256-0.625-1.94c-0.176-2.726-0.546-8.395-1.029-15.398     c-0.001-0.028-0.001-0.055-0.002-0.083c-0.076-2.055-0.219-4.106-0.361-6.158c-0.161-2.323-0.323-4.647-0.484-6.97     c-0.231-3.321-0.468-6.644-0.839-9.952c-0.14-1.8-0.281-3.588-0.423-5.345c0,0-0.037-0.055,0.431-0.074l3.849,0.064     c0.008-0.103,0.009-0.211,0.017-0.314c0.042-0.02,0.091-0.026,0.128-0.057c0.252-0.209,0.263-0.585,0.251-0.912     c-0.085-2.391-0.241-4.779-0.458-7.161c-0.18-2.351-0.474-4.751-0.857-7.153c-0.605-4.101-1.398-8.175-2.395-12.198     c-1.947-7.865-4.649-15.658-5.114-23.72c-0.025-0.726-0.024-1.414,0.014-2.038c0,0,0.841-0.161,1.403-1.063     c1.323,8.131,7.59,22.13,9.748,25.129c1.062,2.367,2.695,5.742,4.547,5.407c1.889-0.342-0.375-5.854-0.574-7.04     c0,0-0.007-0.023-0.017-0.059c0.021-0.538-0.185-1.07-0.38-1.581c-0.179-0.472-0.33-0.952-0.476-1.435     c-0.132-0.468-0.275-0.978-0.427-1.517c-0.359-1.381-0.676-2.776-1.089-4.142c-0.115-0.38-0.246-0.755-0.373-1.131     c-1.06-3.875-2.122-7.892-2.566-9.994c-1.423-6.734-2.2-18.485-4.788-22.592c-0.443-0.704-0.388-0.746,0.131-0.153     c1.221,1.395,1.003-6.119-0.756-6.977c-0.135-0.186-0.831-4.421-0.814-4.419c-0.781-0.955-0.93-1.141-0.698-2.5     c0.227-1.323-0.93-0.345-0.872-1.686c0.116-2.674-0.523-1.279-0.871-3.2c0,0,0.233-0.362,0.289-2.153     c0.094-0.761,0.182-1.522,0.267-2.283c0.062-0.555,0.053-1.115-0.009-1.669c0.065-1.271,0.056-2.605-0.197-4.1     c-0.298-1.758-0.915-3.191-1.601-4.328c-0.593-1.346-1.412-2.495-2.653-3.827c0.292-0.481,0.438-0.954,0.386-1.406     c-0.45-3.948-8.655-7.223-16.293-3.11c-11.115,5.984-6.403,14.527-7.382,19.825c-0.73,3.948-5.672,4.415-6.844,8.465     c-0.987,3.413,0.406,4.551,0.808,9.122c0.437,4.965-7.621,3.58-6.11,13.657c0.178,1.188,0.316,2.494,0.316,2.494     c-0.414,0.709-0.794,1.387-1.137,2.024c-0.633,0.882-1.131,1.861-1.42,2.907l-0.167,0.374c0.011-0.005,0.022-0.006,0.033-0.01     c-1.271,3.459-0.144,6.293,1.709,8.987c1.925,2.799,9.193,8.979,14.558,13.099c0.715,0.52,1.528,0.76,2.091,0.873     c-0.206,0.766-0.408,1.562-0.605,2.386c-0.049,0.172-0.098,0.345-0.147,0.517l0.011,0.058     c-2.881,12.348-4.751,30.003-4.751,30.003s5.258,0.194,3.89,0.311l0.165,0.247c-0.006,0.264-0.011,0.523-0.016,0.784     c-0.212,0.826-0.32,1.715-0.041,2.427c-0.015,1.169-0.023,2.307-0.02,3.399c0.006,2.444,1.595,40.334,1.595,40.334l-1.098,3.315     c0,0,0.051,0.133,0.154,0.333l-0.316-0.01c0,0-2.662,4.78-0.713,6.028c0.036,0.023,0.079,0.045,0.119,0.068     c0.103,0.101,0.214,0.194,0.34,0.266c0.205,0.118,0.427,0.195,0.657,0.251c1.09,0.266,2.211,0.37,3.33,0.449     c0.872,0.062,1.836,0.152,2.661-0.211c0.487-0.214,0.889-0.571,1.261-0.957c0.74-0.516,1.095-1.267,0.747-2.317     c-0.598-1.803-1.062-3.354-1.062-3.354l-0.124-0.004c0.047-0.07,0.076-0.116,0.076-0.116c-0.036-0.163-0.073-0.34-0.109-0.52     c-0.04-0.442-0.117-0.889-0.181-1.315c-0.332-2.212-0.144-4.466,0.037-6.696c1.066-13.161,1.84-26.345,2.345-39.54     c0.051-0.922,0.103-1.848,0.154-2.762H51.55c0-0.004,0-0.008,0-0.012c-1.085-0.113,7.315,0.012,7.315,0.012     c0.007,0.046,0.015,0.089,0.022,0.134l-0.116,0.064c0.12,0.188,0.186,0.397,0.229,0.616c0.006,0.037,0.012,0.074,0.018,0.111     c0.088,0.557,0.046,1.165,0.274,1.652c0.209,1.229,0.421,2.436,0.638,3.585c2.88,15.217,7.879,35.242,8.239,39.154     c0,0-0.092,0.625-0.084,1.391l-0.071-0.008l-0.408,2.367c-0.231,1.12,0.069,2.159,0.82,2.917     c0.751,0.759,1.758,1.199,2.742,1.613c0.859,0.361,2.096,0.765,3.503,1.143c0.039,0.06,0.084,0.115,0.138,0.155     c0.352,0.26,0.798,0.352,1.228,0.431c2.641,0.491,5.312,0.816,7.994,0.975c0.557,0.033,1.122,0.058,1.667-0.061     c0.41-0.089,0.798-0.258,1.183-0.425c0.319-0.139,0.678-0.324,0.752-0.664c0.016-0.073,0.009-0.148-0.001-0.221     C88.456,179.883,85.939,178.746,84.543,178.219z M38.731,74.058c0.181,0.063,0.363,0.107,0.545,0.152     c0.009,0.023,0.022,0.069,0.022,0.069l1.345,0.058c0,0,0.832,0.388,1.301,0.267c0.419,1.537,0.783,4.707,0.783,4.707l0.029-0.331     c0.053,0.013,1.191,6.75,1.286,9.77c-0.047-0.012-0.088-0.021-0.126-0.03c-0.672-0.651-1.322-1.323-1.972-1.996     c-1.253-1.386-3.006-3.344-4.77-5.374c-1.562-1.915-3.061-3.881-4.452-5.923c-0.312-0.458-0.626-0.934-0.747-1.475     c-0.116-0.516-0.042-1.041,0.143-1.537c0.235-0.321,0.496-0.673,0.806-1.083l-0.1-0.127c0.019-0.023,0.036-0.048,0.055-0.071     C32.776,71.056,36.635,73.332,38.731,74.058z"
   id="path269" />
            </g>
            
            
            <g
   id="g441"
   transform="translate(-106.43919,-3.9716114)">
                <path
   class="st8"
   d="m 252.14,418.085 -1.333,-3.406 h -4.292 l -1.318,3.406 h -1.26 l 4.233,-10.752 h 1.048 l 4.211,10.752 z m -1.721,-4.528 -1.246,-3.317 c -0.16,-0.42 -0.327,-0.935 -0.498,-1.546 -0.107,0.469 -0.261,0.984 -0.461,1.546 l -1.26,3.317 z"
   id="path397" />
                <path
   class="st8"
   d="m 255.934,418.085 h -1.216 v -11.396 h 1.216 z"
   id="path399" />
                <path
   class="st8"
   d="m 261.104,417.227 c 0.215,0 0.422,-0.016 0.622,-0.047 0.2,-0.032 0.359,-0.065 0.477,-0.1 v 0.93 c -0.132,0.064 -0.326,0.116 -0.582,0.158 -0.257,0.041 -0.487,0.062 -0.692,0.062 -1.553,0 -2.329,-0.818 -2.329,-2.454 v -4.775 h -1.15 v -0.586 l 1.15,-0.505 0.513,-1.715 h 0.703 v 1.861 h 2.329 V 411 h -2.329 v 4.724 c 0,0.484 0.114,0.855 0.345,1.113 0.228,0.261 0.543,0.39 0.943,0.39 z"
   id="path401" />
                <path
   class="st8"
   d="m 267.198,418.231 c -1.186,0 -2.122,-0.361 -2.809,-1.084 -0.686,-0.723 -1.029,-1.727 -1.029,-3.011 0,-1.294 0.319,-2.321 0.956,-3.083 0.638,-0.762 1.493,-1.143 2.567,-1.143 1.006,0 1.802,0.33 2.388,0.992 0.586,0.662 0.879,1.534 0.879,2.618 v 0.769 h -5.53 c 0.024,0.943 0.263,1.658 0.715,2.146 0.451,0.488 1.088,0.732 1.908,0.732 0.863,0 1.718,-0.181 2.562,-0.542 v 1.084 c -0.43,0.186 -0.836,0.319 -1.219,0.399 -0.383,0.082 -0.845,0.123 -1.388,0.123 z m -0.329,-7.303 c -0.645,0 -1.158,0.21 -1.542,0.63 -0.383,0.42 -0.609,1.001 -0.678,1.743 h 4.197 c 0,-0.767 -0.171,-1.354 -0.513,-1.762 -0.341,-0.406 -0.829,-0.611 -1.464,-0.611 z"
   id="path403" />
                <path
   class="st8"
   d="m 275.886,409.911 c 0.356,0 0.676,0.029 0.959,0.088 l -0.168,1.127 c -0.332,-0.072 -0.625,-0.109 -0.879,-0.109 -0.649,0 -1.205,0.264 -1.666,0.791 -0.462,0.527 -0.692,1.184 -0.692,1.971 v 4.307 h -1.216 v -8.027 h 1.004 l 0.139,1.486 h 0.059 c 0.298,-0.522 0.656,-0.926 1.076,-1.209 0.42,-0.283 0.881,-0.425 1.384,-0.425 z"
   id="path405" />
                <path
   class="st8"
   d="m 283.524,415.894 c 0,0.747 -0.277,1.323 -0.834,1.729 -0.557,0.406 -1.339,0.608 -2.344,0.608 -1.065,0 -1.896,-0.169 -2.49,-0.506 v -1.128 c 0.385,0.195 0.799,0.349 1.241,0.462 0.441,0.111 0.868,0.168 1.278,0.168 0.634,0 1.122,-0.102 1.465,-0.305 0.341,-0.201 0.512,-0.511 0.512,-0.926 0,-0.312 -0.135,-0.58 -0.406,-0.803 -0.271,-0.221 -0.8,-0.484 -1.586,-0.787 -0.746,-0.277 -1.277,-0.521 -1.593,-0.729 -0.314,-0.207 -0.549,-0.443 -0.703,-0.707 -0.153,-0.264 -0.23,-0.578 -0.23,-0.944 0,-0.654 0.266,-1.171 0.798,-1.55 0.532,-0.377 1.263,-0.566 2.19,-0.566 0.864,0 1.709,0.176 2.534,0.527 l -0.432,0.988 c -0.807,-0.332 -1.536,-0.498 -2.19,-0.498 -0.576,0 -1.011,0.09 -1.304,0.271 -0.293,0.18 -0.439,0.43 -0.439,0.746 0,0.215 0.055,0.398 0.165,0.55 0.109,0.151 0.286,0.296 0.53,0.433 0.244,0.137 0.713,0.334 1.406,0.593 0.953,0.347 1.596,0.696 1.931,1.048 0.334,0.353 0.501,0.794 0.501,1.326 z"
   id="path407" />
                <path
   class="st8"
   d="m 284.829,414.62 v -1.113 h 3.596 v 1.113 z"
   id="path409" />
                <path
   class="st8"
   d="m 246.983,436.085 -3.047,-8.027 h 1.304 l 1.729,4.76 c 0.391,1.113 0.62,1.836 0.688,2.168 h 0.059 c 0.054,-0.258 0.224,-0.795 0.509,-1.607 0.286,-0.812 0.927,-2.586 1.923,-5.32 h 1.304 l -3.047,8.027 h -1.422 z"
   id="path411" />
                <path
   class="st8"
   d="m 259.669,432.063 c 0,1.309 -0.329,2.33 -0.989,3.064 -0.658,0.736 -1.569,1.104 -2.731,1.104 -0.718,0 -1.354,-0.169 -1.911,-0.506 -0.557,-0.337 -0.987,-0.82 -1.289,-1.45 -0.304,-0.63 -0.455,-1.367 -0.455,-2.212 0,-1.309 0.327,-2.328 0.982,-3.059 0.653,-0.729 1.562,-1.094 2.725,-1.094 1.122,0 2.015,0.373 2.677,1.12 0.66,0.748 0.991,1.759 0.991,3.033 z m -6.116,0 c 0,1.025 0.205,1.807 0.615,2.344 0.41,0.537 1.014,0.806 1.81,0.806 0.796,0 1.4,-0.267 1.812,-0.802 0.413,-0.535 0.619,-1.317 0.619,-2.348 0,-1.021 -0.206,-1.795 -0.619,-2.326 -0.412,-0.529 -1.021,-0.794 -1.827,-0.794 -0.796,0 -1.396,0.261 -1.802,0.784 -0.405,0.522 -0.608,1.301 -0.608,2.336 z"
   id="path413" />
                <path
   class="st8"
   d="m 265.462,427.911 c 0.356,0 0.676,0.029 0.959,0.088 l -0.168,1.127 c -0.332,-0.072 -0.625,-0.109 -0.879,-0.109 -0.649,0 -1.205,0.264 -1.666,0.791 -0.462,0.527 -0.692,1.184 -0.692,1.971 v 4.307 H 261.8 v -8.027 h 1.004 l 0.139,1.486 h 0.059 c 0.298,-0.522 0.656,-0.926 1.076,-1.209 0.42,-0.283 0.881,-0.425 1.384,-0.425 z"
   id="path415" />
                <path
   class="st8"
   d="m 273.101,433.894 c 0,0.747 -0.277,1.323 -0.834,1.729 -0.557,0.406 -1.339,0.608 -2.344,0.608 -1.065,0 -1.896,-0.169 -2.49,-0.506 v -1.128 c 0.385,0.195 0.799,0.349 1.241,0.462 0.441,0.111 0.868,0.168 1.278,0.168 0.634,0 1.122,-0.102 1.465,-0.305 0.341,-0.201 0.512,-0.511 0.512,-0.926 0,-0.312 -0.135,-0.58 -0.406,-0.803 -0.271,-0.221 -0.8,-0.484 -1.586,-0.787 -0.746,-0.277 -1.277,-0.521 -1.593,-0.729 -0.314,-0.207 -0.549,-0.443 -0.703,-0.707 -0.153,-0.264 -0.23,-0.578 -0.23,-0.944 0,-0.654 0.266,-1.171 0.798,-1.55 0.532,-0.377 1.263,-0.566 2.19,-0.566 0.864,0 1.709,0.176 2.534,0.527 l -0.432,0.988 c -0.807,-0.332 -1.536,-0.498 -2.19,-0.498 -0.576,0 -1.011,0.09 -1.304,0.271 -0.293,0.18 -0.439,0.43 -0.439,0.746 0,0.215 0.055,0.398 0.165,0.55 0.109,0.151 0.286,0.296 0.53,0.433 0.244,0.137 0.713,0.334 1.406,0.593 0.953,0.347 1.596,0.696 1.931,1.048 0.334,0.353 0.501,0.794 0.501,1.326 z"
   id="path417" />
                <path
   class="st8"
   d="m 282.008,432.063 c 0,1.309 -0.329,2.33 -0.989,3.064 -0.658,0.736 -1.569,1.104 -2.731,1.104 -0.718,0 -1.354,-0.169 -1.911,-0.506 -0.557,-0.337 -0.987,-0.82 -1.289,-1.45 -0.304,-0.63 -0.455,-1.367 -0.455,-2.212 0,-1.309 0.327,-2.328 0.982,-3.059 0.653,-0.729 1.562,-1.094 2.725,-1.094 1.122,0 2.015,0.373 2.677,1.12 0.66,0.748 0.991,1.759 0.991,3.033 z m -6.116,0 c 0,1.025 0.205,1.807 0.615,2.344 0.41,0.537 1.014,0.806 1.81,0.806 0.796,0 1.4,-0.267 1.812,-0.802 0.413,-0.535 0.619,-1.317 0.619,-2.348 0,-1.021 -0.206,-1.795 -0.619,-2.326 -0.412,-0.529 -1.021,-0.794 -1.827,-0.794 -0.796,0 -1.396,0.261 -1.802,0.784 -0.405,0.522 -0.608,1.301 -0.608,2.336 z"
   id="path419" />
                <path
   class="st8"
   d="m 287.802,427.911 c 0.356,0 0.676,0.029 0.959,0.088 l -0.168,1.127 c -0.332,-0.072 -0.625,-0.109 -0.879,-0.109 -0.649,0 -1.205,0.264 -1.666,0.791 -0.462,0.527 -0.692,1.184 -0.692,1.971 v 4.307 h -1.216 v -8.027 h 1.004 l 0.139,1.486 h 0.059 c 0.298,-0.522 0.656,-0.926 1.076,-1.209 0.42,-0.283 0.881,-0.425 1.384,-0.425 z"
   id="path421" />
                <path
   class="st8"
   d="m 296.833,428.057 v 0.769 l -1.487,0.176 c 0.137,0.171 0.259,0.395 0.366,0.671 0.107,0.275 0.161,0.586 0.161,0.934 0,0.785 -0.269,1.413 -0.806,1.882 -0.537,0.469 -1.274,0.703 -2.212,0.703 -0.239,0 -0.464,-0.02 -0.674,-0.059 -0.518,0.273 -0.776,0.618 -0.776,1.032 0,0.221 0.09,0.383 0.271,0.488 0.18,0.104 0.49,0.156 0.93,0.156 h 1.421 c 0.869,0 1.537,0.184 2.003,0.55 0.467,0.366 0.699,0.898 0.699,1.597 0,0.889 -0.356,1.566 -1.068,2.033 -0.714,0.465 -1.754,0.699 -3.121,0.699 -1.05,0 -1.858,-0.195 -2.428,-0.586 -0.568,-0.391 -0.854,-0.943 -0.854,-1.656 0,-0.488 0.156,-0.91 0.469,-1.267 0.313,-0.357 0.752,-0.599 1.318,-0.726 -0.205,-0.092 -0.377,-0.236 -0.516,-0.432 -0.14,-0.195 -0.209,-0.422 -0.209,-0.682 0,-0.293 0.078,-0.549 0.234,-0.769 0.156,-0.22 0.402,-0.433 0.74,-0.638 -0.416,-0.17 -0.754,-0.461 -1.015,-0.871 -0.262,-0.41 -0.392,-0.879 -0.392,-1.406 0,-0.879 0.264,-1.557 0.791,-2.033 0.527,-0.475 1.273,-0.713 2.24,-0.713 0.42,0 0.799,0.049 1.136,0.146 h 2.779 z m -6.402,9.375 c 0,0.434 0.184,0.764 0.55,0.988 0.366,0.224 0.891,0.337 1.575,0.337 1.02,0 1.775,-0.153 2.267,-0.458 0.49,-0.305 0.735,-0.719 0.735,-1.241 0,-0.435 -0.134,-0.735 -0.402,-0.905 -0.269,-0.168 -0.774,-0.252 -1.516,-0.252 h -1.458 c -0.552,0 -0.981,0.132 -1.289,0.396 -0.308,0.264 -0.462,0.641 -0.462,1.135 z m 0.66,-6.804 c 0,0.562 0.158,0.986 0.476,1.274 0.318,0.288 0.759,0.433 1.325,0.433 1.188,0 1.78,-0.576 1.78,-1.729 0,-1.207 -0.601,-1.81 -1.802,-1.81 -0.571,0 -1.011,0.153 -1.318,0.462 -0.308,0.307 -0.461,0.764 -0.461,1.37 z"
   id="path423" />
                <path
   class="st8"
   d="m 301.871,436.231 c -1.186,0 -2.122,-0.361 -2.809,-1.084 -0.686,-0.723 -1.029,-1.727 -1.029,-3.011 0,-1.294 0.319,-2.321 0.956,-3.083 0.638,-0.762 1.493,-1.143 2.567,-1.143 1.006,0 1.802,0.33 2.388,0.992 0.586,0.662 0.879,1.534 0.879,2.618 v 0.769 h -5.53 c 0.024,0.943 0.263,1.658 0.715,2.146 0.451,0.488 1.088,0.732 1.908,0.732 0.863,0 1.718,-0.181 2.562,-0.542 v 1.084 c -0.43,0.186 -0.836,0.319 -1.219,0.399 -0.383,0.082 -0.845,0.123 -1.388,0.123 z m -0.329,-7.303 c -0.645,0 -1.158,0.21 -1.542,0.63 -0.383,0.42 -0.609,1.001 -0.678,1.743 h 4.197 c 0,-0.767 -0.171,-1.354 -0.513,-1.762 -0.341,-0.406 -0.829,-0.611 -1.464,-0.611 z"
   id="path425" />
                <path
   class="st8"
   d="m 255.458,454.085 v -5.223 c 0,-0.64 -0.138,-1.119 -0.41,-1.439 -0.274,-0.319 -0.699,-0.479 -1.275,-0.479 -0.757,0 -1.315,0.218 -1.677,0.651 -0.361,0.436 -0.542,1.104 -0.542,2.008 v 4.482 h -1.216 v -5.223 c 0,-0.64 -0.137,-1.119 -0.41,-1.439 -0.273,-0.319 -0.701,-0.479 -1.282,-0.479 -0.762,0 -1.319,0.229 -1.673,0.685 -0.354,0.457 -0.531,1.205 -0.531,2.245 v 4.212 h -1.216 v -8.027 h 0.988 l 0.198,1.098 h 0.059 c 0.229,-0.391 0.553,-0.695 0.971,-0.915 0.417,-0.22 0.885,-0.329 1.402,-0.329 1.255,0 2.075,0.453 2.461,1.361 h 0.059 c 0.239,-0.42 0.586,-0.752 1.04,-0.996 0.454,-0.244 0.972,-0.365 1.553,-0.365 0.908,0 1.588,0.232 2.04,0.699 0.451,0.467 0.677,1.212 0.677,2.237 v 5.237 h -1.216 z"
   id="path427" />
                <path
   class="st8"
   d="m 259.076,443.882 c 0,-0.278 0.068,-0.482 0.205,-0.611 0.137,-0.129 0.308,-0.194 0.513,-0.194 0.195,0 0.363,0.065 0.506,0.198 0.141,0.131 0.212,0.334 0.212,0.607 0,0.273 -0.071,0.478 -0.212,0.611 -0.143,0.135 -0.311,0.201 -0.506,0.201 -0.205,0 -0.376,-0.066 -0.513,-0.201 -0.136,-0.134 -0.205,-0.338 -0.205,-0.611 z m 1.319,10.203 h -1.216 v -8.027 h 1.216 z"
   id="path429" />
                <path
   class="st8"
   d="m 265.565,453.227 c 0.215,0 0.422,-0.016 0.622,-0.047 0.2,-0.032 0.359,-0.065 0.477,-0.1 v 0.93 c -0.132,0.064 -0.326,0.116 -0.582,0.158 -0.257,0.041 -0.487,0.062 -0.692,0.062 -1.553,0 -2.329,-0.818 -2.329,-2.454 v -4.775 h -1.15 v -0.586 l 1.15,-0.505 0.513,-1.715 h 0.703 v 1.861 h 2.329 V 447 h -2.329 v 4.724 c 0,0.484 0.114,0.855 0.345,1.113 0.228,0.261 0.543,0.39 0.943,0.39 z"
   id="path431" />
                <path
   class="st8"
   d="m 278.317,454.085 h -5.969 v -10.709 h 5.969 v 1.106 h -4.725 v 3.45 h 4.439 v 1.098 h -4.439 v 3.941 h 4.725 z"
   id="path433" />
                <path
   class="st8"
   d="m 283.985,454.085 h -1.244 v -9.603 h -3.392 v -1.106 h 8.027 v 1.106 h -3.392 v 9.603 z"
   id="path435" />
                <path
   class="st8"
   d="m 290.233,454.085 h -1.244 v -10.709 h 5.969 v 1.106 h -4.725 v 3.919 h 4.439 v 1.105 h -4.439 v 4.579 z"
   id="path437" />
                <path
   class="st8"
   d="m 301.726,451.894 c 0,0.747 -0.277,1.323 -0.834,1.729 -0.557,0.406 -1.339,0.608 -2.344,0.608 -1.065,0 -1.896,-0.169 -2.49,-0.506 v -1.128 c 0.385,0.195 0.799,0.349 1.241,0.462 0.441,0.111 0.868,0.168 1.278,0.168 0.634,0 1.122,-0.102 1.465,-0.305 0.341,-0.201 0.512,-0.511 0.512,-0.926 0,-0.312 -0.135,-0.58 -0.406,-0.803 -0.271,-0.221 -0.8,-0.484 -1.586,-0.787 -0.746,-0.277 -1.277,-0.521 -1.593,-0.729 -0.314,-0.207 -0.549,-0.443 -0.703,-0.707 -0.153,-0.264 -0.23,-0.578 -0.23,-0.944 0,-0.654 0.266,-1.171 0.798,-1.55 0.532,-0.377 1.263,-0.566 2.19,-0.566 0.864,0 1.709,0.176 2.534,0.527 l -0.432,0.988 c -0.807,-0.332 -1.536,-0.498 -2.19,-0.498 -0.576,0 -1.011,0.09 -1.304,0.271 -0.293,0.18 -0.439,0.43 -0.439,0.746 0,0.215 0.055,0.398 0.165,0.55 0.109,0.151 0.286,0.296 0.53,0.433 0.244,0.137 0.713,0.334 1.406,0.593 0.953,0.347 1.596,0.696 1.931,1.048 0.334,0.353 0.501,0.794 0.501,1.326 z"
   id="path439" />
            </g>
            <g
   id="g523">
                <path
   class="st5"
   d="M65.169,48.145c3.332,2.057,4.768,6.122,5.65,9.936c0.51,2.202,0.915,4.43,1.16,6.678     c0.44,4.042,0.359,8.134,0.92,12.161c0.943,6.767,3.664,13.139,6.358,19.418c0.576,0.22,1.204-0.347,1.302-0.955     c0.099-0.609-0.154-1.212-0.373-1.788c-0.873-2.297-1.281-4.741-1.992-7.093c-0.684-2.265-1.648-4.44-2.268-6.723     c-0.638-2.349-0.902-4.78-1.229-7.191c-0.526-3.876-1.22-7.726-1.913-11.575c-0.38-2.109-0.767-4.243-1.64-6.2     c-1.038-2.326-2.759-4.342-4.894-5.731"
   id="path443" />
                <path
   class="st5"
   d="M44.307,87.92c3.001,1.236,6.22,1.94,9.464,2.07c1.474,0.059,2.955,0.001,4.423,0.149     c1.367,0.137,2.709,0.452,4.064,0.677c0.833,0.138,1.689,0.249,2.441,0.633c1.277,0.652,2.045,1.975,2.742,3.228     c-0.371-1.796-0.598-3.621-0.679-5.453c-0.029-0.649-0.082-1.388-0.594-1.787c-0.416-0.324-1.008-0.305-1.513-0.154     c-0.505,0.151-0.973,0.414-1.485,0.541c-1.01,0.25-2.077-0.057-3.11,0.071c-0.642,0.079-1.253,0.325-1.891,0.433     c-0.722,0.123-1.462,0.067-2.188,0.158c-0.504,0.063-0.997,0.197-1.501,0.259c-1.929,0.238-3.809-0.575-5.656-1.182     c-1.515-0.497-3.069-0.863-4.621-1.228c-0.207,0.514-0.135,1.131,0.184,1.583"
   id="path445" />
                <path
   class="st5"
   d="M42.513,95.87c1.315,0.277,2.712,0.152,3.956-0.356c0.54-0.22,1.071-0.529,1.383-1.022     c0.24-0.379,0.33-0.838,0.335-1.287c0.008-0.676-0.166-1.353-0.499-1.941c-0.327,0.801-0.785,1.663-1.609,1.927     c-0.482,0.154-1.003,0.07-1.501-0.015c-0.327-0.056-0.653-0.112-0.98-0.168c-0.103-0.018-0.219-0.033-0.304,0.029     c-0.071,0.051-0.1,0.142-0.124,0.227c-0.231,0.81-0.461,1.62-0.692,2.43"
   id="path447" />
                <path
   class="st5"
   d="M50.169,55.496c0.494,0.625,1.118,1.147,1.82,1.523c0.307,0.164,0.665,0.304,0.996,0.195     c0.207-0.068,0.372-0.224,0.525-0.378c0.593-0.595,1.139-1.238,1.631-1.92c0.108-0.15,0.243-0.318,0.428-0.319     c0.115,0,0.218,0.066,0.312,0.132c0.626,0.437,1.204,0.943,1.72,1.505c0.292,0.317,0.641,0.685,1.068,0.631     c0.21-0.026,0.393-0.154,0.561-0.283c1.231-0.945,2.239-2.179,2.919-3.574c0.382-0.784,0.673-1.612,1.16-2.341     c0.456-0.682,0.685-1.178,0.094-1.887c-0.206-0.248-0.445-0.47-0.62-0.741c-0.277-0.431-0.385-0.975-0.758-1.327     c-0.274-0.258-0.649-0.372-1.01-0.477c-0.313-0.091-0.626-0.183-0.939-0.274c-0.161,0.499,0.234,0.986,0.563,1.394     c0.424,0.528,0.778,1.107,1.131,1.684c0.324,0.53,0.346,0.859,0.057,1.379c-0.299,0.539-0.568,1.088-0.898,1.61     C60.284,53.05,59.53,54,58.68,54.857c-0.699-0.844-1.489-1.612-2.351-2.288c-0.191-0.149-0.396-0.299-0.635-0.335     c-0.504-0.075-0.936,0.378-1.142,0.844s-0.294,0.994-0.607,1.395c-0.637,0.816-1.866,0.759-2.892,0.626     c-0.25-0.033-0.518-0.073-0.701-0.246"
   id="path449" />
                <path
   class="st5"
   d="M42.756,78.98c0.873,0.215,1.81-0.114,2.523-0.662c0.713-0.548,1.242-1.296,1.755-2.035     c1.348-1.946,2.671-3.953,3.385-6.209c0.934-2.95,0.773-6.155,1.047-9.175c0.179-1.963,0.132-3.93-0.056-5.891     c-0.018-0.193-0.01-0.406-0.096-0.587c-0.089-0.187-0.266-0.313-0.43-0.44c-1.117-0.872-1.838-2.142-2.531-3.378     c0.006,3.178-0.586,6.323-0.881,9.488c-0.24,2.581-0.281,5.176-0.222,7.767c0.022,0.97,0.052,1.978-0.341,2.865     c-0.431,0.975-1.317,1.672-2.234,2.215c-0.917,0.544-1.904,0.98-2.738,1.645c0.422,1.544,0.687,3.131,0.788,4.729"
   id="path451" />
                <path
   class="st5"
   d="M24.841,69.841c1.03-0.469,2.269,0.255,2.841,1.232c0.572,0.977,0.69,2.143,0.968,3.241     c0.79,3.114,2.892,5.001,4.937,7.479c2.35,2.846,4.831,5.823,7.804,8.01c0.193,0.142,0.309,0.887,0.548,0.873     c0.225-0.013,0.415-0.165,0.588-0.309c0.551-0.46,1.101-0.921,1.652-1.381c-4.274-4.107-8.12-8.658-11.455-13.558     c-0.312-0.458-0.626-0.934-0.747-1.475c-0.224-0.998,0.251-2.032,0.904-2.819c-2.148-1.61-3.871-3.784-4.948-6.243     c-1.401,1.189-2.434,2.806-2.924,4.577"
   id="path453" />
                <path
   class="st5"
   d="M77.847,177.773c0.68-0.027,1.368,0.193,1.905,0.611c0.284,0.22,0.54,0.529,0.541,0.888     c0.001,0.379-0.295,0.709-0.641,0.865c-0.346,0.156-0.736,0.175-1.115,0.191c-1.211,0.051-2.422,0.102-3.634,0.153     c-0.083,0.004-0.173,0.009-0.237,0.062c-0.159,0.131-0.022,0.393,0.144,0.516c0.352,0.26,0.798,0.352,1.228,0.432     c2.641,0.491,5.312,0.816,7.994,0.975c0.557,0.033,1.122,0.058,1.667-0.061c0.41-0.089,0.798-0.258,1.183-0.425     c0.319-0.139,0.678-0.324,0.752-0.664c0.039-0.178-0.013-0.364-0.089-0.53c-0.345-0.757-1.134-1.191-1.872-1.573     c-1.066-0.552-2.132-1.104-3.198-1.656c-0.367-0.19-0.758-0.385-1.17-0.355c-0.875,0.064-1.68,1.11-2.441,0.674"
   id="path455" />
                <path
   class="st5"
   d="M41.068,180.694c0.324,0.453,0.903,0.672,1.46,0.679s1.099-0.171,1.617-0.378     c1.673-0.667,3.233-1.674,4.39-3.054c0.102-0.121,0.211-0.252,0.365-0.288c0.318-0.075,0.556,0.28,0.68,0.582     c0.4,0.979,0.691,2.003,0.866,3.046c0.029,0.172,0.054,0.35,0.014,0.52c-0.053,0.222-0.212,0.402-0.365,0.571     c-0.483,0.534-1.04,0.719-1.7,1.009c-0.825,0.363-1.72,0.408-2.593,0.347c-1.119-0.079-2.256,0.046-3.346-0.22     c-0.23-0.056-0.452-0.133-0.657-0.251c-0.761-0.438-1.131-1.452-0.833-2.277"
   id="path457" />
                <path
   class="st5"
   d="M41.94,126.528c-0.39,1.256-0.7,2.836,0.284,3.709c0.463,0.411,1.105,0.541,1.714,0.655     c1.134,0.213,2.269,0.426,3.403,0.639c1.825,3.756,1.253,8.166,1.001,12.334c-0.616,10.188,0.935,20.495-1.795,30.516     c-0.445,1.631-0.041,3.496,1.279,4.552c0.007,0.005,0.014,0.011,0.021,0.016c0.298,0.211,0.717-0.017,0.941-0.305     c0.736-0.948,0.447-2.295,0.269-3.482c-0.332-2.212-0.144-4.466,0.037-6.696c1.141-14.084,1.961-28.193,2.458-42.314     c-3.295-0.341-6.621-0.37-9.921-0.087"
   id="path459" />
                <path
   class="st5"
   d="M58.772,126.363c0.499,0.781,0.104,1.935,0.69,2.654c0.224,0.275,0.56,0.436,0.902,0.534     c1.051,0.3,2.168,0.067,3.257-0.028c1.089-0.095,2.307-0.002,3.073,0.778c0.653,0.664,0.812,1.657,0.937,2.58     c0.9,6.609,1.802,13.235,1.97,19.903c0.139,5.518-0.001,11.039,1.293,16.405c0.269,1.117,0.477,2.719,1.07,3.703     c0.822,1.365,1.994,2.003,3.221,3.021c0.71,0.589,1.439,1.189,2.305,1.507c0.866,0.318,1.911,0.306,2.635-0.266     c-1.802-1.105-3.56-2.281-5.269-3.526c-0.56-0.408-1.127-0.836-1.502-1.419c-0.461-0.718-0.585-1.594-0.697-2.44     c-0.244-1.838-0.488-3.678-0.634-5.527c-0.247-3.144-0.209-6.302-0.325-9.454c-0.076-2.055-0.219-4.106-0.361-6.158     c-0.161-2.324-0.323-4.647-0.484-6.97c-0.325-4.677-0.651-9.36-1.365-13.993c-0.045-0.291-0.104-0.606-0.322-0.804     c-0.191-0.174-0.464-0.22-0.721-0.246c-3.153-0.318-6.596,1.11-9.37-0.422"
   id="path461" />
                <path
   class="st5"
   d="M66.892,126.56c0.162-0.882,0.206-1.781,0.247-2.677c0.516-11.322,1.523-21.205-1.156-32.217     c-0.549-2.259-1.252-18.873-0.602-18.489c0.153,8.656,3.097,16.978,5.178,25.381c2.148,8.678,3.394,17.578,3.71,26.513     c0.012,0.327,0.001,0.704-0.251,0.912c-0.18,0.149-0.433,0.165-0.667,0.175c-2.252,0.09-4.505,0.18-6.757,0.27"
   id="path463" />
                <path
   class="st5"
   d="M50.516,44.547c0.998,0.48,2.077,0.79,3.177,0.913c0.595,0.066,1.197,0.078,1.795,0.041     c1.051-0.065,2.087-0.28,3.118-0.495c0.105-0.022,0.219-0.049,0.283-0.134c0.076-0.1,0.056-0.241,0.029-0.363     c-0.096-0.443-0.228-0.878-0.394-1.3c-2.197,0.886-4.743,0.87-6.929-0.043c-0.392-0.164-0.932-0.318-1.171,0.033"
   id="path465" />
                <path
   class="st5"
   d="M56.085,52.512c1.11-0.474,1.83-1.64,2.97-2.035c0.074-0.026,0.152-0.048,0.23-0.039     c0.097,0.011,0.182,0.068,0.261,0.124c0.472,0.331,0.93,0.682,1.372,1.052c0.209-0.283,0.406-0.575,0.591-0.874     c0.066-0.107,0.132-0.219,0.15-0.343c0.023-0.158-0.032-0.316-0.09-0.465c-0.476-1.218-1.183-2.344-2.074-3.302     c-0.048-0.052-0.101-0.106-0.17-0.122c-0.171-0.041-0.295,0.155-0.361,0.317c-0.407,0.995-0.882,2.006-1.701,2.703     c-0.324,0.276-0.699,0.5-0.954,0.84c-0.232,0.309-0.366,0.713-0.699,0.909c-0.074,0.044-0.162,0.082-0.194,0.163     c-0.027,0.068-0.003,0.145,0.025,0.212c0.09,0.218,0.224,0.417,0.39,0.584"
   id="path467" />
                <path
   class="st5"
   d="M47.878,49.508c0.592-0.307,1.312-0.289,1.947-0.085s1.201,0.576,1.745,0.962     c0.669,0.475,1.318,0.977,1.966,1.479c0.317,0.245,0.634,0.49,0.951,0.736c0.214-0.349,0.428-0.698,0.642-1.048     c-0.391-0.379-0.85-0.68-1.273-1.023c-1.426-1.159-2.402-2.768-3.348-4.343c-0.924,0.699-2.07,1.079-2.936,1.848     c-0.051,0.045-0.103,0.095-0.122,0.161c-0.019,0.066-0.001,0.137,0.016,0.203c0.131,0.491,0.263,0.983,0.394,1.474"
   id="path469" />
                <path
   class="st5"
   d="M64.124,47.535c-1.079-1.22-0.555-1.112-0.303-2.584c0.227-1.323,0.56-2.621,1.025-3.88     c1.38-3.739,1.859-7.71,2.297-11.658c0.068-0.611,0.061-1.227-0.021-1.837c-0.922-6.823-1.419-8.907-4.598-12.261     c-0.319,0.624-0.765,1.183-1.302,1.633c1.45,1.501,2.955,3.097,3.482,5.117c0.22,0.842,0.257,1.72,0.293,2.589     c0.117,2.83,0.234,5.679-0.177,8.481c-0.292,1.992-0.85,3.945-1.654,5.79c-0.514,1.178-1.201,2.386-2.358,2.944     c-0.354,0.171-0.751,0.28-1.037,0.55c-0.29,0.274-0.423,0.679-0.469,1.075c-0.202,1.742-0.502,1.839,0.779,3.035     c0.307,0.287,2.175,0.397,2.562,0.561c0.723,0.306,1.769-0.052,1.992,0.701"
   id="path471" />
                <path
   class="st5"
   d="M40.641,74.955c-0.513,0.207-1.113-0.171-1.343-0.675s-0.185-1.084-0.124-1.635     c0.375-3.402,3.484-5.674,4.178-9.026c1.555-7.516,0.192-16.208,1.163-23.821c0.279-2.186,0.879-4.29,1.205-6.448     c0.238-1.58,0.583-3.146,1.148-4.641c0.865-2.291,2.025-4.584,3.747-6.38c2.022-2.108,4.707-3.429,7.333-4.708     c0.983-0.479,1.967-0.958,2.95-1.436c0.357-0.174,0.774-0.35,1.136-0.187c-0.031,0.766-0.561,1.437-1.199,1.862     c-0.638,0.425-1.382,0.654-2.099,0.925c-4.277,1.618-7.861,4.988-9.737,9.158c-0.286,0.635-0.394,1.335-0.381,2.032     c0.246,13.256-0.356,26.527-1.802,39.706c-0.105,0.959-0.229,1.958-0.761,2.763c-0.83,1.256-2.42,1.724-3.878,2.1     c-0.716,0.185-1.432,0.37-2.148,0.555"
   id="path473" />
                <path
   class="st7"
   d="M42.132,74.357c0.856,5.063,1.962,10.912,1.938,15.582c-3.759,11.524-6.33,35.815-6.33,35.815l36.132,0.6     c0.96-11.99-3.223-27.962-6.34-37.677c0,0-2.408-10.375-2.074-15.877c0,0,3.646-0.664,0.834-7.336     c-2.56-6.074-1.751-8.67-1.751-8.67"
   id="path475" />
                <path
   class="st7"
   d="M59.109,45.777c-0.073-3.14-0.107-0.033-0.179-3.173"
   id="path477" />
                <path
   class="st7"
   d="M50.683,42.299c0,2.811,0,0,0,3.477"
   id="path479" />
                <path
   class="st7"
   d="M75.252,173.626c3.377,1.932,5.863,3.297,9.291,4.593c1.406,0.532,3.953,1.681,3.076,2.902     c-1.893,2.633-12.696,0.219-16.448-1.359c-0.984-0.414-1.991-0.854-2.742-1.612s-1.051-1.798-0.82-2.917l0.408-2.367"
   id="path481" />
                <path
   class="st7"
   d="M51.591,126.165c-0.328,5.886-0.671,11.994-0.943,17.557c-0.486,9.918-1.275,21.3-1.981,29.452     c0,0,0.351,2.348,0.679,3.824c0,0-1.261,2.146-3.627,2.166c-2.523,0.022-3.503-2.593-3.503-2.593l1.098-3.315     c0,0-1.59-37.89-1.595-40.334c-0.005-2.112,0.028-4.392,0.08-6.757"
   id="path483" />
                <path
   class="st7"
   d="M48.89,40.929c1.567,1.547,3.719,2.513,5.925,2.571c3.038,0.081,6.064-1.562,7.652-4.153     c0.673-1.098,1.093-2.33,1.437-3.571c1.135-4.096,1.483-8.409,1.018-12.634c0,0-0.25-3.309-3.561-6.169"
   id="path485" />
                <circle
   class="st14"
   cx="53.152"
   cy="27.74"
   r="0.558"
   id="circle487" />
                <circle
   class="st14"
   cx="61.276"
   cy="27.74"
   r="0.558"
   id="circle489" />
                <path
   class="st7"
   d="M57.897,31.132c0.338,0.871,0.679,1.837,0.358,2.714c-0.076,0.207-0.192,0.407-0.368,0.539     c-0.228,0.17-0.526,0.209-0.809,0.231"
   id="path491" />
                <path
   class="st7"
   d="M52.07,37.728c0.299,0.508,0.717,0.945,1.211,1.266c0.436,0.283,1.035,0.467,1.457,0.162"
   id="path493" />
                <path
   class="st7"
   d="M42.053,176.895c0,0-2.662,4.78-0.713,6.028s10.418,1.472,9.116-2.452c-0.598-1.803-1.062-3.353-1.062-3.353     "
   id="path495" />
                <path
   class="st7"
   d="M48.37,47.251c0.651-0.565,1.6-1.3,2.313-1.474c0,0,1.049,3.177,4.861,5.376l-2.639,3.959     c-2.691-1.218-4.036-3.434-4.691-5.082"
   id="path497" />
                <path
   class="st7"
   d="M55.544,51.153c0,0,2.633-1.417,3.565-5.376c0,0,2.373,2.296,2.837,4.008c0,0-1.759,3.812-3.201,4.838     C58.745,54.623,55.827,52.268,55.544,51.153z"
   id="path499" />
                <path
   class="st7"
   d="M47.19,68.317c-0.237,4.235-4.451,7.129-8.459,5.741c-4.915-1.703-10.451-5.134-11.483-12.017     c-1.511-10.078,6.547-8.692,6.11-13.657c-0.403-4.572-1.796-5.709-0.808-9.122c1.172-4.05,6.113-4.516,6.844-8.465     c0.98-5.298-3.733-13.841,7.382-19.825c7.638-4.112,15.843-0.838,16.293,3.11c0.228,1.996-3.227,4.367-7.307,6.261     c0,0-6.816,3.561-6.931,10.836v7.846L47.19,68.317z"
   id="path501" />
                <path
   class="st7"
   d="M62.337,15.985c0,0,3.713,2.416,4.601,7.658c0.887,5.241-1.199,8.529,0.896,13.931     c3.055,7.878,3.98,18.235,3.98,18.235"
   id="path503" />
                <path
   class="st7"
   d="M58.866,126.165c0.342,2.143,0.698,4.22,1.065,6.163c2.88,15.217,7.879,35.242,8.239,39.154     c0,0-0.5,3.368,0.931,4.039c1.432,0.671,9.163,2.825,11.942,1.992c0,0-6.663-4.469-8.201-5.48c0,0-1.577-24.958-3.251-45.668"
   id="path505" />
                <path
   class="st13"
   d="M76.61,96.867c1.062,2.367,2.695,5.742,4.547,5.407c1.889-0.342-0.375-5.854-0.574-7.04"
   id="path507" />
                <path
   class="st7"
   d="M59.193,45.514c5.243,1.773,8.7,3.186,11.274,7.27c2.589,4.108,3.366,15.859,4.788,22.592     c1.023,4.844,5.327,19.858,5.327,19.858c-2.01,2.479-3.973,1.633-3.973,1.633c-2.159-3.002-8.434-17.016-9.751-25.145"
   id="path509" />
                <path
   class="st13"
   d="M43.722,88.678c0,0,3.762,0.698,3.564,2.759c-0.147,1.53-1.664,1.551-2.763,1.532     c-0.422-0.007-0.839-0.09-1.253-0.17c-0.563-0.11-1.398-0.352-2.128-0.882L43.722,88.678z"
   id="path511" />
                <path
   class="st7"
   d="M27.564,64.535c-1.204,2.062-2.146,3.895-2.611,5.07c-1.406,3.562-0.264,6.459,1.629,9.212     c1.925,2.799,9.193,8.979,14.558,13.099l2.581-3.239c0,0-8.595-9.348-11.834-13.746c-0.482-0.654-0.48-1.543-0.002-2.2     c0.279-0.383,0.627-0.855,1.039-1.4"
   id="path513" />
                <path
   class="st7"
   d="M43.889,85.876c0,0,8.765,5.173,22.974,0.612"
   id="path515" />
                <g
   id="g521">
                    <path
   class="st7"
   d="M45.597,178.677c0,0,3.46-0.559,2.485-2.138S45.597,178.677,45.597,178.677z"
   id="path517" />
                    <path
   class="st7"
   d="M45.597,178.677c0,0-2.953-1.888-1.431-2.95C45.688,174.665,45.597,178.677,45.597,178.677z"
   id="path519" />
                </g>
            </g>
            
            <g
   id="g579">
                <path
   class="st29"
   d="M263.376,181.712h26.414c1.522,0,2.755,1.233,2.755,2.755v50.826c0,1.522-1.233,2.755-2.755,2.755h-26.414     c-1.522,0-2.755-1.233-2.755-2.755v-50.826C260.621,182.946,261.855,181.712,263.376,181.712z"
   id="path565" />
                <polygon
   class="st5"
   points="292.552,217.309 262.291,228.983 292.291,228.873    "
   id="polygon567" />
                <path
   class="st6"
   d="M263.376,181.712h26.414c1.522,0,2.755,1.233,2.755,2.755v50.826c0,1.522-1.233,2.755-2.755,2.755h-26.414     c-1.522,0-2.755-1.233-2.755-2.755v-50.826C260.621,182.946,261.855,181.712,263.376,181.712z"
   id="path569" />
                <circle
   class="st6"
   cx="276.583"
   cy="233.364"
   r="1.967"
   id="circle571" />
                <circle
   class="st15"
   cx="269.224"
   cy="185.11"
   r="1.244"
   id="circle573" />
                <line
   class="st7"
   x1="279.828"
   y1="185.11"
   x2="273.339"
   y2="185.11"
   id="line575" />
                <line
   class="st6"
   x1="292.545"
   y1="229.158"
   x2="260.621"
   y2="229.158"
   id="line577" />
            </g>
            
            <g
   id="g647"
   transform="translate(-106.1028,-4.0608931)">
                <g
   id="g631">
                    <circle
   class="st4"
   cx="268.742"
   cy="367.60199"
   r="27.204"
   id="circle617" />
                    <path
   class="st5"
   d="m 283.772,352.172 c 9.944,10.043 9.033,25.117 1.432,36.709 5.498,-3.686 9.229,-9.769 10.283,-16.281 1.054,-6.512 0.321,-13.163 -2.99,-18.878 -3.819,-6.591 -11.16,-11.203 -18.59,-13.001 -7.43,-1.798 -17.59,1.538 -23.265,6.334 9.562,-4.445 22.468,-5.651 33.13,5.117 z"
   id="path619" />
                    <circle
   class="st6"
   cx="268.742"
   cy="367.60199"
   r="27.204"
   id="circle621" />
                    <polyline
   class="st7"
   points="253.315,352.532 263.733,374.814 264.504,384.363     "
   id="polyline623" />
                    <path
   class="st7"
   d="m 263.733,374.814 11.463,-1.323 c 0.655,-0.076 1.293,0.24 1.63,0.806 l 4.847,8.136"
   id="path625" />
                    <path
   class="st7"
   d="m 286.298,379.535 c -2.75,3.02 -8.438,5.319 -15.127,5.743 -5.779,0.366 -10.994,-0.751 -14.311,-2.769"
   id="path627" />
                    <path
   class="st7"
   d="m 260.706,368.206 8.969,-1.126 c 1.225,-0.154 2.368,0.646 2.641,1.85 v 0"
   id="path629" />
                </g>
                <path
   class="st4"
   d="m 276.012,361.909 c 12.708,-5.499 13.451,-23.484 13.451,-23.484 -10.33,-1.709 -13.451,-4.682 -13.451,-4.682 0,0 -3.121,2.973 -13.451,4.682 0,0 0.743,17.984 13.451,23.484 z"
   id="path633" />
                <path
   class="st5"
   d="m 275.666,361.909 c 12.708,-5.499 13.92,-23.484 13.92,-23.484 -2.073,-0.343 -3.892,-0.623 -5.382,-1.148 -0.118,-0.041 0.677,11.329 -8.538,24.632 z"
   id="path635" />
                <g
   id="g643">
                    <path
   class="st15"
   d="m 272.827,348.922 h -4.203 v -7.299 h 4.203 v 1.269 h -2.656 v 1.602 h 2.472 v 1.269 h -2.472 v 1.882 h 2.656 z"
   id="path637" />
                    <path
   class="st15"
   d="m 277.166,348.922 h -1.548 v -6.011 h -1.981 v -1.288 h 5.511 v 1.288 h -1.981 v 6.011 z"
   id="path639" />
                    <path
   class="st15"
   d="m 281.794,348.922 h -1.522 v -7.299 h 4.184 v 1.269 h -2.661 v 1.882 h 2.477 v 1.263 h -2.477 v 2.885 z"
   id="path641" />
                </g>
                <path
   class="st7"
   d="m 276.033,361.909 c 12.708,-5.499 13.451,-23.484 13.451,-23.484 -10.33,-1.709 -13.451,-4.682 -13.451,-4.682 0,0 -3.121,2.973 -13.451,4.682 0,0 0.743,17.984 13.451,23.484 z"
   id="path645" />
            </g>
            <g
   id="g657">
                <path
   class="st29"
   d="M283.918,212.55h-14.663c-0.739,0-1.338-0.599-1.338-1.338v-14.663c0-0.739,0.599-1.338,1.338-1.338h14.663     c0.739,0,1.338,0.599,1.338,1.338v14.663C285.257,211.951,284.657,212.55,283.918,212.55z"
   id="path649" />
                <g
   id="g655">
                    <g
   id="g653">
                        
                    </g>
                </g>
            </g>
            <g
   id="g675">
                <g
   id="g663">

                    <rect
   x="144.177"
   y="59.07"
   transform="matrix(0.9782 -0.2076 0.2076 0.9782 -10.881 36.1304)"
   class="st13"
   width="44.986"
   height="21.655"
   id="rect659" />
                    <path
   class="st31"
   d="M157.491,60.778l0.77,3.629c-2.781,1.574-4.368,4.816-3.663,8.139c0.705,3.323,3.473,5.64,6.653,5.95      l0.736,3.466l26.194-5.56l-4.496-21.183L157.491,60.778z"
   id="path661" />
                </g>
                <g
   id="g673">
                    <g
   id="g671">
                        <path
   class="st7"
   d="M175.643,63.443c-0.666-2.998-10.355-2.88-8.69,4.615l0.646,2.905c1.666,7.494,10.493,3.497,9.826,0.499"
   id="path665" />
                        <line
   class="st7"
   x1="172.087"
   y1="66.176"
   x2="163.755"
   y2="68.028"
   id="line667" />
                        <line
   class="st7"
   x1="173.086"
   y1="70.673"
   x2="164.754"
   y2="72.525"
   id="line669" />
                    </g>
                </g>
            </g>
            <path
   class="st21"
   d="M71.054,248.805c-5.545-1.565-9.61-6.661-9.61-12.707v-42.945"
   id="path677" />
            <path
   class="st21"
   d="M167.125,227.644v8.454c0,7.291-5.911,13.202-13.202,13.202h-20.525"
   id="path679" />
            <path
   class="st7"
   d="M213.35,227.644v54.981c0,9.686-7.852,17.537-17.537,17.537h-19.548c-7.426,0-13.447,6.02-13.447,13.447    v12.315"
   id="path681" />
            
            
            <g
   id="g715">
                <g
   id="g691">

                    <rect
   x="75.356"
   y="242.465"
   transform="matrix(0.9782 -0.2076 0.2076 0.9782 -50.4606 25.8376)"
   class="st13"
   width="44.986"
   height="21.655"
   id="rect687" />
                    <path
   class="st31"
   d="M88.67,244.173l0.77,3.629c-2.781,1.574-4.368,4.816-3.663,8.139c0.705,3.323,3.473,5.641,6.653,5.95      l0.736,3.466l26.194-5.56l-4.496-21.183L88.67,244.173z"
   id="path689" />
                </g>
                <g
   id="g697">

                    <rect
   x="79.751"
   y="238.07"
   transform="matrix(0.9782 -0.2076 0.2076 0.9782 -49.4522 26.6543)"
   class="st13"
   width="44.986"
   height="21.655"
   id="rect693" />
                    <path
   class="st31"
   d="M93.065,239.778l0.77,3.629c-2.781,1.574-4.368,4.816-3.663,8.139c0.705,3.323,3.473,5.64,6.653,5.95      l0.736,3.466l26.194-5.56l-4.496-21.183L93.065,239.778z"
   id="path695" />
                </g>
                <g
   id="g703">

                    <rect
   x="84.146"
   y="233.676"
   transform="matrix(0.9782 -0.2076 0.2076 0.9782 -48.4439 27.4711)"
   class="st13"
   width="44.986"
   height="21.655"
   id="rect699" />
                    <path
   class="st31"
   d="M97.46,235.383l0.77,3.629c-2.781,1.574-4.368,4.816-3.663,8.139c0.705,3.323,3.473,5.641,6.653,5.95      l0.736,3.466l26.194-5.56l-4.496-21.183L97.46,235.383z"
   id="path701" />
                </g>
                <g
   id="g713">
                    <g
   id="g711">
                        <path
   class="st7"
   d="M115.612,238.048c-0.666-2.998-10.355-2.88-8.69,4.615l0.646,2.905c1.666,7.494,10.493,3.497,9.826,0.499"
   id="path705" />
                        <line
   class="st7"
   x1="112.055"
   y1="240.781"
   x2="103.723"
   y2="242.633"
   id="line707" />
                        <line
   class="st7"
   x1="113.055"
   y1="245.278"
   x2="104.723"
   y2="247.13"
   id="line709" />
                    </g>
                </g>
            </g>
        </g>
    </g>
    <g
   id="Text" />
</svg>
