<?xml version="1.0" encoding="utf-8"?>
<!-- Generator: Adobe Illustrator 25.2.0, SVG Export Plug-In . SVG Version: 6.00 Build 0)  -->
<svg version="1.1" baseProfile="basic" id="Grafik" xmlns="http://www.w3.org/2000/svg" xmlns:xlink="http://www.w3.org/1999/xlink"
	 x="0px" y="0px" width="750px" height="193.27px" viewBox="0 0 750 193.27" xml:space="preserve">
<style type="text/css">
	.st0{fill:#FFFFFF;}
	.st1{fill:#D0E2F3;}
	.st2{fill:none;stroke:#004B8C;stroke-miterlimit:10;}
	.st3{fill:none;stroke:#004B8C;stroke-linecap:round;stroke-linejoin:round;stroke-miterlimit:10;}
	.st4{fill:#404040;}
	.st5{fill:#E8F0F9;}
	.st6{fill-rule:evenodd;clip-rule:evenodd;fill:#FFFFFF;}
	.st7{fill:#004B8C;}
	.st8{fill:#E6411A;}
	.st9{fill:#003554;}
	.st10{clip-path:url(#SVGID_2_);fill:#D0E2F3;}
	.st11{fill:none;stroke:#3A8DFF;stroke-linecap:round;stroke-linejoin:round;stroke-miterlimit:10;}
	.st12{fill:#3A8DFF;}
	.st13{opacity:0.2;}
	.st14{clip-path:url(#SVGID_4_);fill:#156CC4;}
	.st15{clip-path:url(#SVGID_6_);fill:#156CC4;}
	.st16{clip-path:url(#SVGID_8_);fill:#156CC4;}
	.st17{clip-path:url(#SVGID_10_);fill:#156CC4;}
	.st18{clip-path:url(#SVGID_12_);fill:#156CC4;}
	.st19{clip-path:url(#SVGID_14_);fill:#156CC4;}
	.st20{clip-path:url(#SVGID_16_);fill:#156CC4;}
	.st21{clip-path:url(#SVGID_18_);fill:#156CC4;}
	.st22{clip-path:url(#SVGID_20_);fill:#156CC4;}
	.st23{clip-path:url(#SVGID_22_);fill:#156CC4;}
	.st24{clip-path:url(#SVGID_24_);fill:#156CC4;}
	.st25{clip-path:url(#SVGID_26_);fill:#156CC4;}
	.st26{clip-path:url(#SVGID_28_);fill:#156CC4;}
	.st27{clip-path:url(#SVGID_30_);fill:#156CC4;}
	.st28{clip-path:url(#SVGID_32_);fill:#156CC4;}
	.st29{clip-path:url(#SVGID_34_);fill:#156CC4;}
	.st30{clip-path:url(#SVGID_36_);fill:#156CC4;}
	.st31{clip-path:url(#SVGID_38_);fill:#156CC4;}
	.st32{clip-path:url(#SVGID_40_);fill:#156CC4;}
	.st33{clip-path:url(#SVGID_42_);fill:#156CC4;}
	.st34{clip-path:url(#SVGID_44_);fill:#156CC4;}
	.st35{clip-path:url(#SVGID_46_);fill:#156CC4;}
	.st36{clip-path:url(#SVGID_48_);fill:#156CC4;}
	.st37{clip-path:url(#SVGID_50_);fill:#156CC4;}
	.st38{clip-path:url(#SVGID_52_);fill:#156CC4;}
	.st39{clip-path:url(#SVGID_54_);fill:#156CC4;}
	.st40{clip-path:url(#SVGID_56_);fill:#156CC4;}
	.st41{clip-path:url(#SVGID_58_);fill:#156CC4;}
	.st42{fill:none;stroke:#D7D7D7;stroke-linecap:round;stroke-miterlimit:10;}
	.st43{fill:none;stroke:#004B8C;stroke-width:0.5;stroke-linecap:round;stroke-linejoin:round;stroke-miterlimit:10;}
	.st44{fill:none;stroke:#004B8C;stroke-width:1.75;stroke-linecap:round;stroke-linejoin:round;stroke-miterlimit:10;}
	.st45{fill:none;stroke:#004B8C;stroke-linecap:round;stroke-miterlimit:10;}
	.st46{fill:none;stroke:#BFCCD4;stroke-linecap:round;stroke-miterlimit:10;}
	.st47{fill:#FFFFFF;stroke:#004B8C;stroke-linecap:round;stroke-linejoin:round;stroke-miterlimit:10;}
	.st48{fill:#004B8C;stroke:#004B8C;stroke-linecap:round;stroke-linejoin:round;stroke-miterlimit:10;}
	.st49{clip-path:url(#SVGID_60_);fill:#D0E2F3;}
	.st50{fill:none;}
	.st51{fill:#929292;}
	.st52{fill:#922C1C;}
	.st53{fill:#F3F7FC;}
	.st54{fill:#A1C4E7;}
	.st55{fill:none;stroke:#F3F7FC;stroke-width:0;stroke-linecap:round;stroke-linejoin:round;}
</style>
<g>
	<path class="st0" d="M327.412,43.737l6.391-5.223l9.721-0.845l5.39,4.121l2.008-7.397h8.242c0,0-7.608-9.406-7.502-9.722
		c0.105-0.317,0.105-12.998,0.105-12.998l10.996,1.69l5.806,6.552l10.674,4.333l4.121,1.057l-4.439,6.446l8.56,1.268l13.632-10.356
		l11.095,5.706l8.9,5.139l5.05,14.622l-3.805,8.982l6.869,7.609l0.846,17.859l4.115,7.128l-3.482,8.406l-6.115-3.061l-17.027,11.304
		l-11.73,2.747l7.186,16.908l15.957,14.16l-14.055,12.047l4.227,7.186l-16.168,1.585l-10.778,4.332l-19.439-2.219l-11.63-5.494
		l-3.201,1.848l2.567,2.59l-12.392,0.449l0.615-13.434l7.975-13.813l-9.798-3.356l-10.067,0.135l-1.744-5.638l-0.641-6.878
		l-3.574-2.064l-0.571-6.042l1.648-5.848l-3.055-5.291l1.279-4.575l0.148-12.075l-3.015-5.64l11.294-3.448l3.805-9.154l0.951-17.596
		L327.412,43.737z"/>
	<path class="st1" d="M351.762,15.699c0,0,8.902,0.834,10.267,3.197c1.363,2.362,6.776,5.487,9.949,7.319
		c3.173,1.832,6.948,5.536,6.948,5.536l4.438-6.446l-4.121-1.057l-10.673-4.333l-5.807-6.551l-10.996-1.691L351.762,15.699"/>
	<polygon class="st1" points="395.833,109.104 396.493,126.451 404.688,137.637 404.921,152.22 418.976,140.173 403.019,126.013 	
		"/>
	<path class="st1" d="M422.357,57.113c0,0,3.805,7.867,3.805,13.461c0,5.594-2.964,10.316,0,15.451
		c2.964,5.133-1.572,9.029-1.572,9.029l6.116,3.06l3.481-8.405l-4.115-7.129l-0.846-17.859L422.357,57.113z"/>
	<path class="st1" d="M378.925,31.751c0,0,6.179,5.702,12.029,5.165c6.595-0.606,10.213-8.472,12.004-7.541
		c4.123,2.142,9.05,4.921,11.03,6.901c3.674,3.675,1.288,8.605,3.048,11.656c1.761,3.05,6.56,6.256,6.56,6.256l2.565-6.058
		l-5.049-14.622l-19.996-10.845l-13.631,10.356L378.925,31.751z"/>
	<path class="st3" d="M327.412,43.737l6.391-5.223l9.721-0.845l5.39,4.121l2.008-7.397h8.242c0,0-7.608-9.406-7.502-9.722
		c0.105-0.317,0.105-12.998,0.105-12.998l10.996,1.69l5.806,6.552l10.674,4.333l4.121,1.057l-4.439,6.446l8.56,1.268l13.632-10.356
		l11.095,5.706l8.9,5.139l5.05,14.622l-3.805,8.982l6.869,7.609l0.846,17.859l4.115,7.128l-3.482,8.406l-6.115-3.061l-17.027,11.304
		l-11.73,2.747l7.186,16.908l15.957,14.16l-14.055,12.047l4.227,7.186l-16.168,1.585l-10.778,4.332l-19.439-2.219l-11.63-5.494
		l-3.201,1.848l2.567,2.59l-12.392,0.449l0.615-13.434l7.975-13.813l-9.798-3.356l-10.067,0.135l-1.744-5.638l-0.641-6.878
		l-3.574-2.064l-0.571-6.042l1.648-5.848l-3.055-5.291l1.279-4.575l0.148-12.075l-3.015-5.64l11.294-3.448l3.805-9.154l0.951-17.596
		L327.412,43.737z"/>
	<path class="st1" d="M341.017,48.333c0,7.697-2.818,13.452-5.194,16.931c-2.601,3.814-6.06,6.869-8.82,7.786
		c-0.079,0.03-0.158,0.039-0.236,0.039c3.399-22.046,0-30.009,0-30.009c0.137,0,0.285,0.04,0.413,0.128
		c2.228,1.479,8.87,4.376,13.088,4.376C340.682,47.585,341.017,47.92,341.017,48.333"/>
	<path class="st5" d="M296.664,57.113c0-17.055,13.826-30.881,30.881-30.881c17.055,0,30.881,13.826,30.881,30.881
		c0,17.055-13.826,30.881-30.881,30.881C310.49,87.994,296.664,74.168,296.664,57.113"/>
	<path class="st1" d="M340.268,47.584c-4.218,0-10.86-2.897-13.088-4.376c-0.128-0.088-0.276-0.128-0.413-0.128
		c0,0,3.399,7.963,0,30.009c0.078,0,0.157-0.009,0.236-0.039c2.76-0.917,6.219-3.972,8.82-7.786
		c2.376-3.479,5.194-9.234,5.194-16.931C341.017,47.92,340.682,47.584,340.268,47.584"/>
	<polyline class="st3" points="321.897,57.82 325.286,61.095 333.228,53.131 	"/>
	<path class="st2" d="M326.762,73.094c-0.08,0-0.161-0.014-0.237-0.039c-2.76-0.92-6.223-3.979-8.825-7.793
		c-2.369-3.476-5.195-9.235-5.195-16.931c0-0.414,0.337-0.751,0.751-0.751c4.223,0,10.861-2.89,13.09-4.376
		c0.252-0.168,0.581-0.168,0.833,0c2.229,1.486,8.868,4.376,13.091,4.376c0.414,0,0.75,0.337,0.75,0.751
		c0,7.696-2.825,13.453-5.195,16.931c-2.601,3.813-6.064,6.873-8.824,7.793C326.924,73.08,326.843,73.094,326.762,73.094
		L326.762,73.094z"/>
	<path class="st0" d="M453.138,168.246c-0.21-1.762-0.639-3.524-1.245-5.206c-0.296-0.864-0.602-1.614-0.884-2.162
		c-0.003-0.007-0.006-0.011-0.009-0.017c-0.819-1.741-1.816-3.337-2.925-4.672c-1.565-1.883-3.467-3.709-5.314-5.2
		c-0.186-0.173-0.365-0.338-0.556-0.515c-0.545-0.503-1.246-0.92-1.954-1.318c-0.528-0.341-1.027-0.629-1.496-0.869
		c-0.045-0.028-0.098-0.056-0.142-0.085c-0.07-0.046-0.177-0.105-0.289-0.146c0.101-0.162,0.19-0.31,0.286-0.464
		c0.144-0.186,0.279-0.379,0.407-0.571c0.54-0.81,1.043-1.645,1.508-2.5c0.404-0.745,0.992-1.621,0.896-2.462
		c0-0.003,0.001-0.007,0.001-0.01c0.006-0.045,0.008-0.085,0.012-0.127c0.041-0.23,0.142-0.593-0.2-0.701
		c-0.002-0.001-0.005-0.001-0.007-0.002c-0.283-0.251-0.835-0.269-1.59-0.196c-1.116,0.019-2.33,0.28-3.632,0.419
		c-0.656,0.046-1.348,0.066-2.071,0.031c-0.619-0.029-1.132-0.007-1.572,0.05c-0.017,0-0.031,0-0.049,0.001l-0.095,0.017
		c-0.079,0.013-0.152,0.026-0.224,0.041l-0.127,0.023c0,0-0.44,0.01-0.789,0.166c-0.234-1.143-0.56-2.271-0.955-3.368
		c-0.296-0.865-0.603-1.616-0.885-2.164c-0.003-0.007-0.007-0.012-0.01-0.018c-0.818-1.74-1.814-3.336-2.925-4.671
		c-1.564-1.883-3.466-3.709-5.313-5.201c-0.187-0.172-0.365-0.337-0.556-0.514c-0.545-0.503-1.246-0.921-1.955-1.319
		c-0.527-0.34-1.025-0.628-1.495-0.867c-0.045-0.029-0.098-0.056-0.141-0.086c-0.072-0.046-0.178-0.105-0.29-0.146
		c0.1-0.161,0.191-0.309,0.286-0.464c0.144-0.186,0.28-0.379,0.408-0.571c0.539-0.81,1.043-1.645,1.507-2.5
		c0.404-0.744,0.993-1.621,0.896-2.462c0-0.003,0.001-0.008,0.001-0.011c0.007-0.045,0.008-0.084,0.012-0.125
		c0.041-0.23,0.142-0.593-0.2-0.703c-0.002-0.001-0.004-0.001-0.006-0.001c-0.283-0.251-0.835-0.27-1.591-0.196
		c-1.115,0.019-2.329,0.28-3.632,0.42c-0.655,0.045-1.348,0.064-2.07,0.03c-0.62-0.029-1.134-0.008-1.572,0.05
		c-0.018,0-0.032,0-0.049,0.001l-0.097,0.017c-0.077,0.012-0.151,0.026-0.223,0.041l-0.128,0.023c0,0-0.931,0.012-1.158,0.482
		c-0.048,0.1-0.086,0.189-0.12,0.276c-0.18,0.273-0.236,0.594-0.209,0.942v0.004c-0.001,0.004,0.002,0.012,0.002,0.017
		c0.182,2.026,3.297,4.976,3.297,4.976c-0.17,0.078-0.33,0.16-0.497,0.239c-0.006,0-0.013,0.001-0.02,0.001
		c-0.127,0.001-0.254,0.09-0.378,0.19c-1.427,0.699-2.735,1.458-3.917,2.269l-0.002,0.001h0.001
		c-6.024,4.137-8.948,9.569-9.87,14.706c-0.887,0.088-1.833,0.267-2.828,0.373c-0.656,0.046-1.348,0.066-2.07,0.031
		c-0.62-0.029-1.134-0.007-1.573,0.05c-0.017,0-0.031,0-0.048,0.001l-0.097,0.017c-0.077,0.013-0.151,0.026-0.222,0.041
		l-0.128,0.023c0,0-0.933,0.012-1.159,0.482c-0.047,0.1-0.086,0.189-0.121,0.276c-0.178,0.273-0.236,0.594-0.208,0.943
		c0,0.001,0,0.002-0.001,0.003c0,0.004,0.003,0.013,0.003,0.017c0.182,2.026,3.297,4.976,3.297,4.976
		c-0.17,0.078-0.33,0.16-0.497,0.239c-0.007,0-0.013,0.001-0.019,0.001c-0.127,0-0.255,0.09-0.378,0.19
		c-1.429,0.699-2.737,1.458-3.917,2.269l-0.003,0.001c-9.93,6.821-11.435,17.161-9.436,23.89
		c3.826,12.879,25.336,16.041,32.403,2.286c0.629-1.225,1.036-2.562,1.256-3.957c0.337-1.427,0.297-3.195,0.051-4.976
		c-0.209-1.761-0.639-3.521-1.244-5.203c-0.296-0.864-0.603-1.615-0.885-2.164c-0.004-0.007-0.007-0.012-0.01-0.018
		c-0.014-0.031-0.029-0.063-0.044-0.094c3.661,0.992,7.655,0.973,11.277-0.217c-2.328,5.058-2.385,10.34-1.195,14.343
		c3.826,12.879,25.336,16.041,32.403,2.286c0.63-1.225,1.035-2.561,1.257-3.957C453.425,171.793,453.385,170.026,453.138,168.246
		 M433.162,148.541c-0.128,0-0.255,0.09-0.379,0.19c-0.577,0.282-1.14,0.573-1.676,0.874c0.079-0.338,0.155-0.677,0.21-1.025
		c0.192-0.813,0.262-1.737,0.241-2.713c0.95,1.325,2.12,2.434,2.12,2.434c-0.169,0.078-0.331,0.16-0.497,0.239
		C433.175,148.541,433.168,148.541,433.162,148.541 M397.074,147.492c0.038,0.279,0.081,0.554,0.13,0.825
		c-0.02-0.01-0.039-0.021-0.058-0.03c-0.046-0.029-0.097-0.056-0.142-0.086c-0.071-0.046-0.177-0.105-0.289-0.146
		c0.1-0.162,0.19-0.31,0.286-0.464C397.026,147.559,397.05,147.525,397.074,147.492"/>
	<path class="st0" d="M410.223,176.999c3.267-6.36,0.636-15.704-3.757-20.989c-2.929-3.524-7.048-6.89-9.754-8.127
		c6.348-10.201,2.082-6.28-4.385-6.588c-7.875-0.376-0.257,6.829-0.257,6.829c-14.241,6.475-16.536,18.894-14.25,26.589
		C381.646,187.592,403.156,190.755,410.223,176.999"/>
	<path class="st1" d="M390.258,141.427c0,0-0.933,0.012-1.158,0.482c-0.217,0.451-0.281,0.724-0.33,1.222
		c-0.013,0.138,0.159,0.554,0.216,0.68c0.084,0.182,0.289,0.273,0.483,0.327c1.527,0.428,3.083-0.455,4.652-0.69
		c0.366-0.054,0.768-0.066,1.075,0.141c0.426,0.286,0.51,0.869,0.531,1.382c0.049,1.206-0.038,2.418-0.257,3.605
		c0.857-0.228,1.447-0.995,1.939-1.733c0.539-0.811,1.042-1.645,1.507-2.5c0.405-0.745,0.992-1.621,0.897-2.462
		c-0.021-0.178,0.235-0.704-0.188-0.839c-1.523-0.486-3.292,0.018-5.257,0.225c-1.589,0.168-2.065,0.024-3.663,0.078"/>
	<path class="st1" d="M387.255,150.824c2.142,0.924,4.334,1.552,6.665,1.465c0.752-0.028,1.499-0.163,2.251-0.135
		c2.868,0.104,7.748,7.302,8.693,13.678c0.814,5.486-1.505,15.305-14.069,19.617c3.664,0.877,6.818,0.127,8.597-0.306
		c9.001-2.191,10.916-8.61,11.908-11.465c1.275-3.667-0.587-10.424-1.899-12.979c-2.305-4.483-5.102-6.981-8.805-10.403
		c-0.981-0.907-2.474-1.539-3.592-2.272c-0.158-0.104-0.49-0.287-0.691-0.134c-1.111,0.85-2.692,1.037-3.969,0.47
		c-0.243-0.108-0.526,0.004-0.791,0.004c-0.237,0.001-0.476,0.31-0.685,0.421c-1.095,0.585-2.058,0.869-2.959,1.724L387.255,150.824
		z"/>
	<path class="st3" d="M392.07,148.124c0,0,1.154,1.773,4.643-0.241"/>
	<path class="st3" d="M394.391,148.845c0,0,3.105,1.497,5.001,4.781"/>
	<path class="st3" d="M393.215,148.785c0,0-0.618,1.379-0.784,4.077"/>
	<path class="st3" d="M399.438,163.497c-0.058-2.561-8.004-4.04-7.859,2.362l0.055,2.482c0.144,6.402,8.015,4.567,7.957,2.007"/>
	<line class="st3" x1="396.083" y1="165.155" x2="388.966" y2="165.315"/>
	<line class="st3" x1="396.17" y1="168.997" x2="389.052" y2="169.157"/>
	<path class="st3" d="M410.223,176.999c3.267-6.36,0.636-15.704-3.757-20.989c-2.929-3.524-7.048-6.89-9.754-8.127
		c6.348-10.201,2.082-6.28-4.385-6.588c-7.875-0.376-0.257,6.829-0.257,6.829c-14.241,6.475-16.536,18.894-14.25,26.589
		C381.646,187.592,403.156,190.755,410.223,176.999z"/>
	<path class="st0" d="M451.831,176.999c3.268-6.36,0.637-15.704-3.756-20.989c-2.93-3.524-7.049-6.89-9.755-8.127
		c6.349-10.201,2.083-6.28-4.385-6.588c-7.874-0.376-0.256,6.829-0.256,6.829c-14.241,6.475-16.537,18.894-14.251,26.589
		C423.254,187.592,444.765,190.755,451.831,176.999"/>
	<path class="st1" d="M431.867,141.427c0,0-0.933,0.012-1.158,0.482c-0.217,0.451-0.281,0.724-0.33,1.222
		c-0.014,0.138,0.158,0.554,0.216,0.68c0.084,0.182,0.289,0.273,0.482,0.327c1.528,0.428,3.084-0.455,4.652-0.69
		c0.367-0.054,0.769-0.066,1.076,0.141c0.426,0.286,0.51,0.869,0.531,1.382c0.048,1.206-0.038,2.418-0.258,3.605
		c0.857-0.228,1.448-0.995,1.939-1.733c0.54-0.811,1.043-1.645,1.508-2.5c0.405-0.745,0.992-1.621,0.896-2.462
		c-0.02-0.178,0.236-0.704-0.187-0.839c-1.523-0.486-3.292,0.018-5.257,0.225c-1.59,0.168-2.065,0.024-3.664,0.078"/>
	<path class="st1" d="M428.865,150.824c2.142,0.924,4.334,1.552,6.665,1.465c0.752-0.028,1.499-0.163,2.251-0.135
		c2.868,0.104,7.747,7.302,8.693,13.678c0.814,5.486-1.505,15.305-14.07,19.617c3.664,0.877,6.818,0.127,8.598-0.306
		c9.001-2.191,10.916-8.61,11.908-11.465c1.274-3.667-0.587-10.424-1.9-12.979c-2.304-4.483-5.102-6.981-8.804-10.403
		c-0.982-0.907-2.474-1.539-3.592-2.272c-0.158-0.104-0.491-0.287-0.691-0.134c-1.111,0.85-2.692,1.037-3.97,0.47
		c-0.243-0.108-0.525,0.004-0.79,0.004c-0.237,0.001-0.477,0.31-0.686,0.421c-1.095,0.585-2.057,0.869-2.959,1.724L428.865,150.824z
		"/>
	<path class="st3" d="M433.679,148.124c0,0,1.153,1.773,4.642-0.241"/>
	<path class="st3" d="M435.999,148.845c0,0,3.105,1.497,5.002,4.781"/>
	<path class="st3" d="M434.824,148.785c0,0-0.619,1.379-0.785,4.077"/>
	<path class="st3" d="M441.046,163.497c-0.058-2.561-8.003-4.04-7.859,2.362l0.055,2.482c0.145,6.402,8.016,4.567,7.958,2.007"/>
	<line class="st3" x1="437.693" y1="165.155" x2="430.575" y2="165.315"/>
	<line class="st3" x1="437.779" y1="168.997" x2="430.662" y2="169.157"/>
	<path class="st3" d="M451.831,176.999c3.268-6.36,0.637-15.704-3.756-20.989c-2.93-3.524-7.049-6.89-9.755-8.127
		c6.349-10.201,2.083-6.28-4.385-6.588c-7.874-0.376-0.256,6.829-0.256,6.829c-14.241,6.475-16.537,18.894-14.251,26.589
		C423.254,187.592,444.765,190.755,451.831,176.999z"/>
	<path class="st0" d="M430.061,152.36c3.268-6.359,0.637-15.704-3.757-20.989c-2.929-3.523-7.048-6.89-9.754-8.127
		c6.348-10.201,2.082-6.279-4.385-6.588c-7.875-0.376-0.257,6.829-0.257,6.829c-14.24,6.475-16.536,18.894-14.25,26.59
		C401.484,162.953,422.994,166.116,430.061,152.36"/>
	<path class="st1" d="M410.096,116.788c0,0-0.932,0.012-1.158,0.482c-0.217,0.451-0.281,0.724-0.329,1.222
		c-0.014,0.138,0.158,0.554,0.216,0.68c0.083,0.183,0.289,0.273,0.482,0.327c1.527,0.428,3.083-0.455,4.652-0.69
		c0.366-0.054,0.768-0.065,1.075,0.141c0.426,0.286,0.511,0.869,0.532,1.382c0.048,1.206-0.039,2.418-0.258,3.605
		c0.857-0.227,1.447-0.995,1.939-1.733c0.539-0.811,1.043-1.645,1.507-2.5c0.405-0.745,0.993-1.621,0.897-2.462
		c-0.021-0.178,0.236-0.704-0.188-0.839c-1.523-0.486-3.292,0.018-5.257,0.226c-1.589,0.167-2.065,0.023-3.663,0.078"/>
	<path class="st1" d="M407.093,126.185c2.143,0.924,4.335,1.552,6.666,1.465c0.751-0.028,1.499-0.163,2.25-0.135
		c2.868,0.104,7.748,7.302,8.693,13.678c0.814,5.486-1.505,15.305-14.069,19.617c3.664,0.877,6.818,0.127,8.598-0.306
		c9-2.191,10.915-8.61,11.908-11.465c1.274-3.667-0.588-10.424-1.9-12.979c-2.305-4.483-5.102-6.981-8.804-10.403
		c-0.982-0.907-2.475-1.539-3.592-2.272c-0.159-0.103-0.491-0.287-0.692-0.134c-1.111,0.851-2.692,1.037-3.969,0.47
		c-0.243-0.108-0.525,0.004-0.791,0.005c-0.237,0-0.476,0.309-0.685,0.42c-1.095,0.585-2.058,0.869-2.959,1.724L407.093,126.185z"/>
	<path class="st3" d="M411.908,123.485c0,0,1.154,1.773,4.643-0.241"/>
	<path class="st3" d="M414.229,124.206c0,0,3.105,1.497,5.002,4.781"/>
	<path class="st3" d="M413.053,124.146c0,0-0.618,1.379-0.784,4.077"/>
	<path class="st3" d="M419.276,138.858c-0.058-2.561-8.004-4.041-7.859,2.362l0.055,2.481c0.144,6.403,8.015,4.568,7.958,2.007"/>
	<line class="st3" x1="415.922" y1="140.516" x2="408.804" y2="140.676"/>
	<line class="st3" x1="416.008" y1="144.357" x2="408.89" y2="144.518"/>
	<path class="st3" d="M430.061,152.36c3.268-6.359,0.637-15.704-3.757-20.989c-2.929-3.523-7.048-6.89-9.754-8.127
		c6.348-10.201,2.082-6.279-4.385-6.588c-7.875-0.376-0.257,6.829-0.257,6.829c-14.24,6.475-16.536,18.894-14.25,26.59
		C401.484,162.953,422.994,166.116,430.061,152.36z"/>
</g>
</svg>
