<?xml version="1.0" encoding="UTF-8" standalone="no"?>
<!-- Generator: Adobe Illustrator 25.2.0, SVG Export Plug-In . SVG Version: 6.00 Build 0)  -->

<svg version="1.1" id="Grafik" x="0px" y="0px" width="750px" height="264.818px" viewBox="0 0 750 264.818"
   xml:space="preserve" sodipodi:docname="einlagensicherung-d-12-wie-funktioniert-zinsunion.svg"
   inkscape:version="1.1 (c68e22c387, 2021-05-23)" xmlns:inkscape="http://www.inkscape.org/namespaces/inkscape"
   xmlns:sodipodi="http://sodipodi.sourceforge.net/DTD/sodipodi-0.dtd" xmlns:xlink="http://www.w3.org/1999/xlink"
   xmlns="http://www.w3.org/2000/svg" xmlns:svg="http://www.w3.org/2000/svg">
   <defs id="defs1953" />
   <sodipodi:namedview id="namedview1951" pagecolor="#ffffff" bordercolor="#666666" borderopacity="1.0"
      inkscape:pageshadow="2" inkscape:pageopacity="0.0" inkscape:pagecheckerboard="0" showgrid="false"
      inkscape:zoom="2" inkscape:cx="302.75" inkscape:cy="146.75" inkscape:window-width="1858"
      inkscape:window-height="1057" inkscape:window-x="-8" inkscape:window-y="-8" inkscape:window-maximized="1"
      inkscape:current-layer="g1948" />
   <style type="text/css" id="style982">
      .st0 {
         fill: #FFFFFF;
      }

      .st1 {
         fill: #D0E2F3;
      }

      .st2 {
         fill: none;
         stroke: #004B8C;
         stroke-miterlimit: 10;
      }

      .st3 {
         fill: none;
         stroke: #004B8C;
         stroke-linecap: round;
         stroke-linejoin: round;
         stroke-miterlimit: 10;
      }

      .st4 {
         fill: #404040;
      }

      .st5 {
         fill: #E8F0F9;
      }

      .st6 {
         fill-rule: evenodd;
         clip-rule: evenodd;
         fill: #FFFFFF;
      }

      .st7 {
         fill: #004B8C;
      }

      .st8 {
         fill: #E6411A;
      }

      .st9 {
         fill: #003554;
      }

      .st10 {
         clip-path: url(#SVGID_2_);
         fill: #D0E2F3;
      }

      .st11 {
         fill: none;
         stroke: #3A8DFF;
         stroke-linecap: round;
         stroke-linejoin: round;
         stroke-miterlimit: 10;
      }

      .st12 {
         fill: #3A8DFF;
      }

      .st13 {
         opacity: 0.2;
      }

      .st14 {
         clip-path: url(#SVGID_4_);
         fill: #156CC4;
      }

      .st15 {
         clip-path: url(#SVGID_6_);
         fill: #156CC4;
      }

      .st16 {
         clip-path: url(#SVGID_8_);
         fill: #156CC4;
      }

      .st17 {
         clip-path: url(#SVGID_10_);
         fill: #156CC4;
      }

      .st18 {
         clip-path: url(#SVGID_12_);
         fill: #156CC4;
      }

      .st19 {
         clip-path: url(#SVGID_14_);
         fill: #156CC4;
      }

      .st20 {
         clip-path: url(#SVGID_16_);
         fill: #156CC4;
      }

      .st21 {
         clip-path: url(#SVGID_18_);
         fill: #156CC4;
      }

      .st22 {
         clip-path: url(#SVGID_20_);
         fill: #156CC4;
      }

      .st23 {
         clip-path: url(#SVGID_22_);
         fill: #156CC4;
      }

      .st24 {
         clip-path: url(#SVGID_24_);
         fill: #156CC4;
      }

      .st25 {
         clip-path: url(#SVGID_26_);
         fill: #156CC4;
      }

      .st26 {
         clip-path: url(#SVGID_28_);
         fill: #156CC4;
      }

      .st27 {
         clip-path: url(#SVGID_30_);
         fill: #156CC4;
      }

      .st28 {
         clip-path: url(#SVGID_32_);
         fill: #156CC4;
      }

      .st29 {
         clip-path: url(#SVGID_34_);
         fill: #156CC4;
      }

      .st30 {
         clip-path: url(#SVGID_36_);
         fill: #156CC4;
      }

      .st31 {
         clip-path: url(#SVGID_38_);
         fill: #156CC4;
      }

      .st32 {
         clip-path: url(#SVGID_40_);
         fill: #156CC4;
      }

      .st33 {
         clip-path: url(#SVGID_42_);
         fill: #156CC4;
      }

      .st34 {
         clip-path: url(#SVGID_44_);
         fill: #156CC4;
      }

      .st35 {
         clip-path: url(#SVGID_46_);
         fill: #156CC4;
      }

      .st36 {
         clip-path: url(#SVGID_48_);
         fill: #156CC4;
      }

      .st37 {
         clip-path: url(#SVGID_50_);
         fill: #156CC4;
      }

      .st38 {
         clip-path: url(#SVGID_52_);
         fill: #156CC4;
      }

      .st39 {
         clip-path: url(#SVGID_54_);
         fill: #156CC4;
      }

      .st40 {
         clip-path: url(#SVGID_56_);
         fill: #156CC4;
      }

      .st41 {
         clip-path: url(#SVGID_58_);
         fill: #156CC4;
      }

      .st42 {
         fill: none;
         stroke: #D7D7D7;
         stroke-linecap: round;
         stroke-miterlimit: 10;
      }

      .st43 {
         fill: none;
         stroke: #004B8C;
         stroke-width: 0.5;
         stroke-linecap: round;
         stroke-linejoin: round;
         stroke-miterlimit: 10;
      }

      .st44 {
         fill: none;
         stroke: #004B8C;
         stroke-width: 1.75;
         stroke-linecap: round;
         stroke-linejoin: round;
         stroke-miterlimit: 10;
      }

      .st45 {
         fill: none;
         stroke: #004B8C;
         stroke-linecap: round;
         stroke-miterlimit: 10;
      }

      .st46 {
         fill: none;
         stroke: #BFCCD4;
         stroke-linecap: round;
         stroke-miterlimit: 10;
      }

      .st47 {
         fill: #FFFFFF;
         stroke: #004B8C;
         stroke-linecap: round;
         stroke-linejoin: round;
         stroke-miterlimit: 10;
      }

      .st48 {
         fill: #004B8C;
         stroke: #004B8C;
         stroke-linecap: round;
         stroke-linejoin: round;
         stroke-miterlimit: 10;
      }

      .st49 {
         clip-path: url(#SVGID_60_);
         fill: #D0E2F3;
      }

      .st50 {
         fill: none;
      }

      .st51 {
         fill: #929292;
      }

      .st52 {
         fill: #922C1C;
      }

      .st53 {
         fill: #F3F7FC;
      }

      .st54 {
         fill: #A1C4E7;
      }

      .st55 {
         fill: none;
         stroke: #F3F7FC;
         stroke-width: 0;
         stroke-linecap: round;
         stroke-linejoin: round;
      }
   </style>
   <g id="g1538">
      <path class="st0"
         d="M434.658,167.034v-79.47c0-1.384-1.121-2.505-2.505-2.505H312.257c-1.384,0-2.505,1.121-2.505,2.505v79.47   h-12.904c0,1.317,0.431,2.531,1.15,3.521l0.011,0.031h0.013c1.092,1.48,2.843,2.445,4.824,2.445h138.718   c3.312,0,5.997-2.685,5.997-5.997H434.658z"
         id="path984" />
      <path class="st3"
         d="M323.011,97.833c0,0.728-0.59,1.318-1.317,1.318c-0.728,0-1.318-0.59-1.318-1.318   c0-0.728,0.59-1.317,1.318-1.317C322.421,96.516,323.011,97.105,323.011,97.833z"
         id="path986" />
      <path class="st3"
         d="M329.487,97.833c0,0.728-0.59,1.318-1.317,1.318c-0.728,0-1.318-0.59-1.318-1.318   c0-0.728,0.59-1.317,1.318-1.317C328.897,96.516,329.487,97.105,329.487,97.833z"
         id="path988" />
      <path class="st3"
         d="M335.964,97.833c0,0.728-0.59,1.318-1.318,1.318c-0.727,0-1.317-0.59-1.317-1.318   c0-0.728,0.59-1.317,1.317-1.317C335.374,96.516,335.964,97.105,335.964,97.833z"
         id="path990" />
      <path class="st1" d="M430.682,126.26l-96.996,35.375l97.266-0.045c0,0,0.016,1.733,0.016,0.088L430.682,126.26z"
         id="path992" />
      <polygon class="st1" points="296.849,167.034 447.561,167.034 446.099,170.586 298.008,170.586  " id="polygon994" />
      <path class="st2"
         d="M432.153,85.059H312.257c-1.384,0-2.505,1.121-2.505,2.505v79.47h124.906v-79.47   C434.658,86.181,433.537,85.059,432.153,85.059z"
         id="path996" />
      <path class="st2"
         d="M430.42,90.511H313.991c-0.302,0-0.548,0.245-0.548,0.548v69.976c0,0.302,0.246,0.547,0.548,0.547H430.42   c0.302,0,0.547-0.245,0.547-0.547V91.059C430.967,90.756,430.722,90.511,430.42,90.511z"
         id="path998" />
      <path class="st7"
         d="M370.934,87.776c0-0.701,0.569-1.271,1.271-1.271c0.702,0,1.271,0.57,1.271,1.271   c0,0.702-0.569,1.271-1.271,1.271C371.503,89.047,370.934,88.478,370.934,87.776"
         id="path1000" />
      <path class="st2"
         d="M441.564,173.031H302.846c-3.312,0-5.998-2.686-5.998-5.997h150.713   C447.561,170.345,444.876,173.031,441.564,173.031z"
         id="path1002" />











      <path class="st9"
         d="M425.397,116.582c-0.998,0-1.808,0.81-1.808,1.808c0,0.999,0.81,1.808,1.808,1.808   c0.998,0,1.808-0.809,1.808-1.808C427.205,117.392,426.395,116.582,425.397,116.582"
         id="path1026" />











      <line class="st3" x1="313.443" y1="103.338" x2="430.966" y2="103.338" id="line1050" />
      <g id="g1062">
         <g id="g1060">
            <defs id="defs1053">
               <rect id="SVGID_1_" x="413.574" y="132.742" width="20.67" height="39.79" />
            </defs>
            <clipPath id="SVGID_2_">
               <use xlink:href="#SVGID_1_" style="overflow:visible;" id="use1055" />
            </clipPath>
            <path class="st10" d="M434.244,172.529v-39.791H416.33c-1.522,0-2.755,1.233-2.755,2.755v37.036H434.244z"
               clip-path="url(#SVGID_2_)" id="path1058" />
         </g>
      </g>
      <polyline class="st3" points="138.832,159.887 138.759,150.95 147.695,150.995  " id="polyline1064" />
      <path class="st3" d="M245.567,177.088c15.863-5.267,30.02-14.276,41.431-25.976" id="path1066" />
      <path class="st3" d="M139.035,151.112c12.026,12.331,27.103,21.673,44.013,26.795" id="path1068" />
      <polyline class="st3" points="286.924,97.015 286.998,105.952 278.062,105.907  " id="polyline1070" />
      <line class="st3" x1="527.856" y1="133.307" x2="464.881" y2="133.307" id="line1072" />
      <polyline class="st3" points="521.486,127.041 527.856,133.308 521.506,139.595  " id="polyline1074" />




      <path class="st0"
         d="M111.28,118.225c-0.193-3.192-1.092-12.756-2.139-17.712c-1.318-6.238-1.848-7.904-3.429-9.955   c-1.603-2.495-3.844-4.245-7.134-4.907c0,0-0.039-0.009-0.067-0.015c-3.314-1.058-6.969-1.462-10.64-3.163   c-0.286-0.276-0.374-0.3-0.399-0.181c-0.016-0.008-0.033-0.013-0.049-0.022l0.043,0.066c-0.025,0.306-0.043-0.066-0.043-0.066   c-0.031-1.326-0.055-1.983-0.078-2.524c0.003-0.001,0.006-0.002,0.009-0.003l-0.115-3.188l-0.091,0.012   c1.077-0.709,2.013-1.629,2.688-2.73c0.688-1.123,1.118-2.384,1.47-3.653c0.521-1.881,0.87-3.808,1.065-5.749   c0.032,0.347,0.08,0.671,0.179,0.928c0.107,0.281,1.65-1.359,2.329-9.55c0.155-1.874-1.067-3.602-2.329-5.019   c-0.999-1.126-1.307-1.665-2.665-2.564c-1.59-1.053-3.09-1.648-4.935-2.143c-1.844-0.495-3.814-0.66-5.658-0.165   c-1.631,0.427-3.076,1.349-4.445,2.368c-0.01,0-0.01,0.01-0.02,0.01c-1.368,0.641-2.892,2.61-3.892,3.727   c-1.252,1.417-1.873,3.348-1.95,5.231c-0.33,8.338,3.552,10.793,3.659,10.512c0.065-0.171,0.109-0.382,0.137-0.62   c0.075,0.664,0.169,1.325,0.285,1.983c0.26,1.485,0.631,2.97,1.349,4.295c1.032,1.903,2.807,3.357,4.836,4.104l-0.448,0.054v2.157   v2.882c0,0,0.015,0.111,0.082,0.276c-0.093,0.048-0.186,0.091-0.282,0.128l0.2-0.404c-3.413,1.257-6.229,1.794-12.939,5.093   c-4.158,2.045-10.555,18.311-12.204,22.487c-2.617,6.63-0.513,10.174,3.669,15.08c5.531,6.487,4.691,5.325,9.211,9.696l0.448-0.445   c0.159,0.095,0.902,0.532,1.793,0.874c-0.075,0.076-0.118,0.188-0.129,0.301c-0.053,0.579-0.042,1.162,0.019,1.74   c0.027,0.005,0.054,0.008,0.081,0.013c-0.116,3.922-0.287,7.413-0.514,10.033c0.701,0.055,2.327,0.162,1.805,0.222l-0.547,0.017   c0.01,0.222,0.024,0.457,0.035,0.684c-0.161,1.059-0.092,2.148,0.211,3.174c0.002,0.02,0.003,0.038,0.005,0.057   c-0.032-0.001-0.064-0.003-0.096-0.004l0.105,0.113c0.615,7.46,1.973,16.541,2.266,24.557c0.092,2.498-0.438,28.168-0.438,28.168   c0.385,0.043,0.782,0.079,1.183,0.111c-0.192,0.37-0.267,0.928-0.236,1.303c-0.032,0.729,0.238,1.491,0.686,2.085   c0.657,0.872,1.617,1.457,2.558,2.011c3.586,2.116,7.28,4.123,11.271,5.31c1.001,0.298,2.058,0.545,3.083,0.341   c1.024-0.204,2.003-0.976,2.133-2.012c0.193-1.525-1.366-2.632-2.718-3.364c-0.552-0.299-1.116-0.612-1.678-0.923   c-0.309-0.264-0.631-0.512-0.98-0.72c-0.524-0.313-1.086-0.559-1.635-0.829c-1.557-0.763-3.019-1.722-4.341-2.845   c-0.084-0.072-0.17-0.142-0.259-0.207c0.768-0.082,1.537-0.163,2.306-0.245c0.004-0.069,0.006-0.139,0.01-0.209   c0.02-0.006,0.046-0.01,0.066-0.016c0.016-0.967,0.04-1.967,0.07-2.994c0.17-3.668,0.309-7.337,0.404-11.008   c0.156-4.241,0.292-8.719,0.299-13.335c0.015-9.874-0.585-20.327-0.674-29.6c2.185-0.073,4.057-0.048,2.883,0.098   c-0.33,1.32,0.322,4.09,0.329,4.119c0.81,14.476-0.383,42.301-0.23,52.42c0.475,0.131,1.286,0.233,2.277,0.307   c0,0-0.001,0-0.001,0.001c-0.019,0.01-0.032,0.034-0.049,0.047l-0.475-0.003c-0.518,0.961-0.227,2.199,0.431,3.071   c0.657,0.872,1.617,1.456,2.557,2.011c3.587,2.115,7.281,4.122,11.272,5.31c1.001,0.298,2.058,0.544,3.082,0.34   c1.025-0.204,2.004-0.975,2.134-2.011c0.192-1.526-1.366-2.633-2.719-3.365c-2.988-1.617-5.532-3.195-8.432-4.805   c-0.129-0.107-0.261-0.212-0.415-0.276c-0.041-0.018-0.085-0.022-0.128-0.033c0.804-0.124,1.618-0.301,2.415-0.385   c0,0,0.409-14.979,0.702-30.192c0.209-3.789,0.413-7.541,0.291-11.333c-0.155-4.845,0.219-10.961-0.018-15.854   c0.079-0.023,0.162-0.037,0.233-0.082c0.142-0.092,0.231-0.224,0.299-0.37c0.067-0.032,0.14-0.053,0.194-0.106   c0.231-0.225,0.243-0.588,0.235-0.912c-0.16-6.679-0.043-21.376,0.118-31.069c0.04-0.874,0.074-1.747,0.125-2.62   c0.102-1.747,0.215-3.555,0.086-5.306c1.287,6.042,2.933,13.639,3.038,14.294c0,0-0.162,18.508-0.477,20.71   c0,0,0.325,0.071,0.839,0.157h-0.001c-0.077,2.244,0.097,5.356,1.613,5.692c1.524,0.338,2.732-2.862,3.41-5.242l-0.552-0.049   c0.491-0.079,0.98-0.16,1.47-0.239c0.019-0.075,0.03-0.15,0.048-0.224c0.077-0.031,0.158-0.059,0.23-0.095   c0,0,0.049-0.596,0.129-1.585c0.631-3.154,0.916-6.375,1.057-9.592c0.116-2.636,0.148-5.276,0.104-7.916   C111.305,120.496,111.33,119.059,111.28,118.225 M72.661,61.083c-0.04,0.547-0.057,1.096-0.069,1.645   c-0.05-0.784-0.062-1.478,0.042-1.927c0.023-0.1,0.053-0.205,0.086-0.312C72.683,60.852,72.661,61.083,72.661,61.083    M68.076,127.831c-2.042-2.521-4.095-5.06-5.667-7.899c-0.981-1.772-1.785-3.816-1.319-5.788c0.039-0.164,0.089-0.325,0.143-0.484   c0.956-2.105,2.885-6.024,5.569-9.884c0.432-0.58,0.877-1.149,1.357-1.692c0.024-0.026,0.047-0.054,0.071-0.083l0.03,0.702   l0.662,26.173C68.64,128.528,68.358,128.18,68.076,127.831 M68.926,128.881c0-0.001-0.001-0.001-0.001-0.002   C68.932,127.357,68.933,127.874,68.926,128.881 M107.572,141.847l-0.294-0.026c0.099-0.001,0.196-0.005,0.294-0.008   C107.572,141.825,107.572,141.835,107.572,141.847"
         id="path1084" />
      <path class="st1"
         d="M78.803,79.742c0,0,2.771,3.342,8.551,0l-0.114-3.188c0,0-2.83,1.439-5.233,1.532   c-2.403,0.093-3.204-0.5-3.204-0.5V79.742z"
         id="path1086" />
      <path class="st1"
         d="M86.492,84.112c4.07,1.814,14.382,4.735,16.83,8.459c0.649,0.988,2.05,2.651,2.366,3.791   c0.351,1.269,1.424,4.051,1.515,5.588c0.193,3.262,0.564,5.752,1.146,8.966c0.485,2.672,0.469,5.12,0.826,7.812   c0.575,4.334-0.376,8.703-0.95,13.038c-0.449,3.393-0.668,6.816-0.655,10.239c0.699-0.115,1.399-0.228,2.098-0.342   c0.949-3.751,1.295-7.629,1.464-11.495c0.451-10.272-0.319-20.597-2.287-30.688c-0.291-1.491-0.608-2.98-1.078-4.425   c-1.583-4.867-4.171-8.395-9.189-9.405c0,0-9.673-2.17-10.69-3.161C86.872,81.497,88.246,83.532,86.492,84.112"
         id="path1088" />
      <path class="st1"
         d="M94.542,146.653c1.244-2.731,1.568-5.778,1.876-8.764c0.343-3.316,0.685-6.637,0.725-9.971   c0.057-4.751-0.501-9.498-0.339-14.247c0.142-4.198,0.85-8.376,2.099-12.387c1.799,3.047,1.546,6.83,1.338,10.362   c-0.187,3.194-0.291,6.391-0.395,9.588c-0.072,2.221-0.144,4.44-0.216,6.66c-0.187,5.771-0.375,11.555,0.068,17.311   c0.042,0.552,0.038,1.219-0.427,1.518c-0.24,0.155-0.542,0.163-0.828,0.166c-1.33,0.018-2.66,0.035-3.99,0.052"
         id="path1090" />
      <path class="st0" d="M103.727,141.502c-0.077,2.244,0.097,5.355,1.613,5.691c1.524,0.338,2.731-2.862,3.409-5.241"
         id="path1092" />
      <path class="st3" d="M103.727,141.502c-0.077,2.244,0.097,5.355,1.613,5.691c1.524,0.338,2.731-2.862,3.409-5.241"
         id="path1094" />
      <path class="st1"
         d="M68.702,131.65c-1.083-0.902-2.135-1.844-3.15-2.821c-0.586-0.564-1.162-1.143-1.628-1.809   c-0.469-0.671-0.816-1.418-1.161-2.16c-1.068-2.3-2.135-4.6-3.203-6.898c-0.354-0.761-0.713-1.548-0.741-2.387   c-0.018-0.58,0.125-1.155,0.317-1.704c0.574-1.639,1.581-3.086,2.599-4.493c1.34-1.853,2.72-3.676,4.1-5.499   c0.94-1.241,1.894-2.497,3.118-3.459c0.102,0.627-0.372,1.187-0.793,1.664c-2.583,2.92-4.391,6.429-6.172,9.898   c-0.358,0.696-0.718,1.4-0.898,2.161c-0.466,1.972,0.338,4.016,1.32,5.788c1.571,2.839,3.624,5.377,5.666,7.9   c0.442,0.546,0.885,1.092,1.327,1.638c0.153,0.19,0.315,0.403,0.302,0.646c-0.011,0.199-0.138,0.371-0.26,0.528   c-0.241,0.313-0.482,0.625-0.723,0.938"
         id="path1096" />
      <path class="st1"
         d="M68.603,137.441c0.473,0.079,0.949,0.157,1.428,0.138c0.479-0.02,0.966-0.145,1.345-0.438   c0.176-0.137,0.325-0.304,0.466-0.476c0.223-0.273,0.433-0.561,0.561-0.889c0.127-0.328,0.165-0.702,0.041-1.031   c-0.214,0.265-0.431,0.534-0.7,0.743c-0.27,0.21-0.6,0.359-0.942,0.349c-0.199-0.005-0.393-0.064-0.584-0.123   c-0.386-0.118-0.773-0.236-1.159-0.354c-0.065-0.02-0.133-0.04-0.199-0.023c-0.149,0.036-0.194,0.221-0.208,0.373   c-0.057,0.627-0.048,1.259,0.029,1.884"
         id="path1098" />
      <path class="st1"
         d="M88.39,204.283c0.304-0.187,0.691-0.139,1.043-0.079c1.683,0.285,3.394,0.701,5.076,0.416   c0.423-0.071,0.872-0.185,1.267-0.019c0.19,0.08,0.348,0.218,0.505,0.352c1.322,1.123,2.783,2.081,4.34,2.845   c0.549,0.269,1.111,0.515,1.637,0.829c0.394,0.235,0.766,0.509,1.109,0.814c-0.428,0.245-0.978,0.132-1.408-0.108   s-0.787-0.591-1.204-0.854c-0.694-0.436-1.518-0.606-2.27-0.935c-0.44-0.193-0.854-0.44-1.288-0.645   c-1.275-0.601-2.701-0.829-4.11-0.859c-1.41-0.029-2.816,0.133-4.219,0.276c-0.279,0.03-0.57,0.056-0.833-0.043   C87.772,206.176,87.859,204.607,88.39,204.283"
         id="path1100" />
      <path class="st1"
         d="M73.019,204.283c0.304-0.187,0.691-0.139,1.043-0.079c1.683,0.285,3.394,0.701,5.076,0.416   c0.423-0.071,0.872-0.185,1.267-0.019c0.19,0.08,0.348,0.218,0.505,0.352c1.322,1.123,2.783,2.081,4.34,2.845   c0.549,0.269,1.111,0.515,1.636,0.829c0.395,0.235,0.767,0.509,1.11,0.814c-0.428,0.245-0.978,0.132-1.408-0.108   c-0.43-0.24-0.787-0.591-1.204-0.854c-0.694-0.436-1.518-0.606-2.27-0.935c-0.44-0.193-0.854-0.44-1.288-0.645   c-1.275-0.601-2.701-0.829-4.11-0.859c-1.41-0.029-2.816,0.133-4.219,0.276c-0.279,0.03-0.57,0.056-0.833-0.043   C72.401,206.176,72.488,204.607,73.019,204.283"
         id="path1102" />
      <path class="st1"
         d="M69.651,151.646c2.203,0.091,4.406,0.182,6.609,0.273c0.51,0.021,1.041,0.048,1.489,0.294   c0.58,0.321,0.91,0.951,1.174,1.558c2.038,4.701,1.953,10.011,1.834,15.134c-0.277,11.972-0.556,23.945-0.834,35.918   c1.012-0.108,2.023-0.215,3.034-0.323c0.531-10.135,0.774-20.287,0.726-30.437c-0.017-3.794-0.075-7.588-0.198-11.38   c-0.159-4.945-0.427-9.885-0.695-14.825c-4.351-0.611-8.783-0.646-13.142-0.104c-0.332,1.327-0.281,2.747,0.146,4.047"
         id="path1104" />
      <path class="st1"
         d="M86.344,151.558c2.203,0.091,3.688,0.27,5.891,0.361c0.51,0.021,1.042,0.048,1.489,0.294   c0.579,0.321,0.911,0.95,1.174,1.558c2.038,4.701,1.953,10.011,1.835,15.134c-0.279,11.972-1.454,23.78-1.732,35.753   c1.01-0.108,2.051-0.368,3.061-0.475c0.098-10.887,0.152-20.195,0.703-30.191c0.209-3.788,0.413-7.54,0.291-11.332   c-0.159-4.945,0.238-11.22-0.03-16.16c-4.026,0.308-8.651,0.394-13.011,0.936C85.683,148.764,86.344,151.558,86.344,151.558"
         id="path1106" />
      <path class="st3"
         d="M68.807,135.422c-0.113,4.752-0.304,9.007-0.569,12.075c4.236,0.328,25.656-0.432,30.788-0.996   c0.264-0.029,0.549-0.067,0.739-0.253c0.231-0.226,0.242-0.589,0.234-0.912c-0.218-9.149,0.08-33.347,0.304-39.115"
         id="path1108" />
      <path class="st3" d="M68.237,101.818c0.51,5.757,0.736,17.586,0.687,27.141" id="path1110" />
      <path class="st3"
         d="M78.803,82.625c-3.413,1.257-6.229,1.794-12.939,5.093c-4.158,2.044-10.555,18.31-12.204,22.487   c-2.617,6.63-0.513,10.174,3.669,15.079c5.531,6.487,4.691,5.325,9.211,9.696l3.395-4.953c0,0-8.361-8.388-9.383-14.797   c0,0,3.894-9.758,10.179-16.321"
         id="path1112" />
      <path class="st3"
         d="M87.422,82.269c-0.074-3.213-0.109-2.502-0.183-5.715l-8.437,1.031v5.039c0,0,0.235,2.149,4.684,2.149   C87.936,84.774,87.422,82.269,87.422,82.269z"
         id="path1114" />
      <path class="st3"
         d="M79.439,204.658c3.297,1.785,6.807,3.826,10.104,5.611c1.353,0.733,2.912,1.838,2.719,3.365   c-0.131,1.036-1.11,1.807-2.134,2.011c-1.024,0.204-2.081-0.043-3.082-0.341c-3.991-1.187-7.685-3.194-11.272-5.309   c-0.94-0.555-1.9-1.14-2.557-2.012c-0.657-0.872-0.949-2.109-0.43-3.07"
         id="path1116" />
      <path class="st3"
         d="M95.293,204.379c3.298,1.785,6.032,3.52,9.33,5.305c1.352,0.732,2.911,1.839,2.718,3.365   c-0.13,1.036-1.109,1.807-2.133,2.011c-1.025,0.204-2.082-0.042-3.083-0.34c-3.991-1.189-7.685-3.195-11.271-5.311   c-0.941-0.554-1.901-1.138-2.558-2.01c-0.657-0.874-0.949-2.11-0.43-3.071"
         id="path1118" />
      <path class="st11" d="M97.399,205.805c-0.962,0.223-1.833,0.813-2.398,1.623" id="path1120" />
      <path class="st11" d="M99.26,206.761c-0.377-0.008-0.725,0.197-1.029,0.42c-0.433,0.318-0.827,0.69-1.171,1.104"
         id="path1122" />
      <path class="st11" d="M100.901,207.726c-0.706,0.37-1.324,0.903-1.794,1.546" id="path1124" />
      <path class="st3" d="M97.399,205.805c-0.962,0.223-1.833,0.813-2.398,1.623" id="path1126" />
      <path class="st3" d="M99.26,206.761c-0.377-0.008-0.725,0.197-1.029,0.42c-0.433,0.318-0.827,0.69-1.171,1.104"
         id="path1128" />
      <path class="st3" d="M100.901,207.726c-0.706,0.37-1.324,0.903-1.794,1.546" id="path1130" />
      <path class="st11" d="M82.978,206.765c-0.962,0.224-1.833,0.813-2.398,1.624" id="path1132" />
      <path class="st11" d="M84.839,207.723c-0.377-0.008-0.725,0.196-1.029,0.42c-0.433,0.318-0.827,0.689-1.171,1.103"
         id="path1134" />
      <path class="st11" d="M86.48,208.688c-0.705,0.369-1.324,0.902-1.794,1.545" id="path1136" />
      <path class="st3" d="M82.978,206.765c-0.962,0.224-1.833,0.813-2.398,1.624" id="path1138" />
      <path class="st3" d="M84.839,207.723c-0.377-0.008-0.725,0.196-1.029,0.42c-0.433,0.318-0.827,0.689-1.171,1.103"
         id="path1140" />
      <path class="st3" d="M86.48,208.688c-0.705,0.369-1.324,0.902-1.794,1.545" id="path1142" />
      <path class="st3"
         d="M83.131,147.321c0.089,9.276,0.689,19.737,0.674,29.617c-0.015,10.159-0.649,19.712-0.773,27.337   c-1.861,0.513-7.27,0.676-11.448,0.209c0,0,0.529-25.67,0.438-28.168c-0.349-9.522-2.204-20.56-2.526-28.581"
         id="path1144" />
      <path class="st3"
         d="M86.015,147.436c1.407,12.494-0.07,45.348,0.098,56.539c1.862,0.512,8.82,0.59,11.949,0.208   c0,0,1.198-43.82,0.964-57.683"
         id="path1146" />
      <path class="st0"
         d="M91.102,52.614c-0.585-1.047-1.851-1.515-3.004-1.847c-1.484-0.426-3.029-0.604-4.57-0.715   c-1.691-0.12-3.412-0.159-5.057,0.251c-1.644,0.41-3.223,1.315-4.137,2.743c-0.651,1.017-0.928,2.226-1.122,3.42   c-0.277,1.716-0.551,4.616-0.551,4.616c-0.197,2.686-0.06,5.397,0.405,8.051c0.26,1.484,0.63,2.969,1.349,4.293   c1.481,2.735,4.483,4.577,7.592,4.66c3.108,0.082,6.204-1.598,7.828-4.249c0.688-1.123,1.119-2.384,1.471-3.654   c1.161-4.19,1.516-8.602,1.041-12.924C92.347,57.259,92.232,54.635,91.102,52.614"
         id="path1148" />
      <path class="st3"
         d="M91.102,52.614c-0.585-1.047-1.851-1.515-3.004-1.847c-1.484-0.426-3.029-0.604-4.57-0.715   c-1.691-0.12-3.412-0.159-5.057,0.251c-1.644,0.41-3.223,1.315-4.137,2.743c-0.651,1.017-0.928,2.226-1.122,3.42   c-0.277,1.716-0.551,4.616-0.551,4.616c-0.197,2.686-0.06,5.397,0.405,8.051c0.26,1.484,0.63,2.969,1.349,4.293   c1.481,2.735,4.483,4.577,7.592,4.66c3.108,0.082,6.204-1.598,7.828-4.249c0.688-1.123,1.119-2.384,1.471-3.654   c1.161-4.19,1.516-8.602,1.041-12.924C92.347,57.259,92.232,54.635,91.102,52.614z"
         id="path1150" />
      <path class="st12"
         d="M78.83,61.963c0,0.315-0.256,0.571-0.571,0.571c-0.315,0-0.571-0.256-0.571-0.571   c0-0.315,0.256-0.571,0.571-0.571C78.574,61.392,78.83,61.648,78.83,61.963"
         id="path1152" />
      <path class="st3"
         d="M78.83,61.963c0,0.315-0.256,0.571-0.571,0.571c-0.315,0-0.571-0.256-0.571-0.571   c0-0.315,0.256-0.571,0.571-0.571C78.574,61.392,78.83,61.648,78.83,61.963z"
         id="path1154" />
      <path class="st12"
         d="M87.712,61.963c0,0.315-0.256,0.571-0.571,0.571c-0.315,0-0.571-0.256-0.571-0.571   c0-0.315,0.256-0.571,0.571-0.571C87.456,61.392,87.712,61.648,87.712,61.963"
         id="path1156" />
      <path class="st3"
         d="M87.712,61.963c0,0.315-0.256,0.571-0.571,0.571c-0.315,0-0.571-0.256-0.571-0.571   c0-0.315,0.256-0.571,0.571-0.571C87.456,61.392,87.712,61.648,87.712,61.963z"
         id="path1158" />
      <path class="st3"
         d="M84.491,66.428c0.346,0.891,0.695,1.88,0.366,2.777c-0.077,0.212-0.196,0.416-0.377,0.551   c-0.233,0.174-0.537,0.214-0.827,0.235c-0.698,0.053-1.4,0.038-2.094-0.046"
         id="path1160" />
      <path class="st3"
         d="M98.959,99.799c0.806,4.079,4.254,19.877,4.407,20.836c0,0-0.162,18.508-0.477,20.71c0,0,4.914,1.073,7.056,0   c0,0,1.585-18.968,1.334-23.12c-0.193-3.193-1.091-12.756-2.138-17.712c-1.456-6.889-1.945-8.2-3.957-10.614   c-4.672-5.604-11.219-4.401-17.762-7.629"
         id="path1162" />
      <path class="st3" d="M77.834,72.182c0.305,0.52,0.733,0.967,1.239,1.295c0.446,0.29,1.059,0.477,1.49,0.166"
         id="path1164" />
      <path class="st12" d="M81.269,62.614c1.137,0.59,2.409,0.436,3.375,0.002" id="path1166" />
      <path class="st3" d="M81.269,62.614c1.137,0.59,2.409,0.436,3.375,0.002" id="path1168" />
      <path class="st12" d="M75.086,62.362c-0.045-0.02-0.667-2.044-1.912-2.587" id="path1170" />
      <path class="st3" d="M75.086,62.362c-0.045-0.02-0.667-2.044-1.912-2.587" id="path1172" />
      <path class="st12" d="M88.985,62.362c0,0,1.337-2.916,3.566-3.131" id="path1174" />
      <path class="st3" d="M88.985,62.362c0,0,1.337-2.916,3.566-3.131" id="path1176" />
      <path class="st0"
         d="M94.879,55.811c-0.68,8.192-2.223,9.832-2.33,9.551c-0.543-1.417,0.136-4.504-0.203-5.988   c-0.34-1.457-2.076-3.476-3.581-3.622c0.088-0.019-0.316,0.01-0.296,0.02c-1.747,0.436-3.519,0.341-5.062-0.602   c-0.583,0.438-1.116,0.961-1.737,1.36c-1.544,0.99-5.273,0.621-5.254,0.621h-0.065c-1.9-0.246-3.378,2.183-3.718,3.649   c-0.339,1.476,0.554,5.552,0.01,6.969c-0.107,0.281-3.989-2.174-3.659-10.512c0.078-1.883,0.699-3.814,1.951-5.231   c1-1.116,2.523-3.086,3.892-3.727c0.01,0,0.01-0.009,0.019-0.009c1.369-1.02,2.815-1.942,4.446-2.369   c1.843-0.495,3.814-0.33,5.658,0.165c1.844,0.496,3.345,1.09,4.934,2.143c1.359,0.899,1.666,1.438,2.665,2.564   C93.811,52.211,95.034,53.939,94.879,55.811"
         id="path1178" />
      <path class="st3"
         d="M94.879,55.811c-0.68,8.192-2.223,9.832-2.33,9.551c-0.543-1.417,0.136-4.504-0.203-5.988   c-0.34-1.457-2.076-3.476-3.581-3.622c0.088-0.019-0.316,0.01-0.296,0.02c-1.747,0.436-3.519,0.341-5.062-0.602   c-0.583,0.438-1.116,0.961-1.737,1.36c-1.544,0.99-5.273,0.621-5.254,0.621h-0.065c-1.9-0.246-3.378,2.183-3.718,3.649   c-0.339,1.476,0.554,5.552,0.01,6.969c-0.107,0.281-3.989-2.174-3.659-10.512c0.078-1.883,0.699-3.814,1.951-5.231   c1-1.116,2.523-3.086,3.892-3.727c0.01,0,0.01-0.009,0.019-0.009c1.369-1.02,2.815-1.942,4.446-2.369   c1.843-0.495,3.814-0.33,5.658,0.165c1.844,0.496,3.345,1.09,4.934,2.143c1.359,0.899,1.666,1.438,2.665,2.564   C93.811,52.211,95.034,53.939,94.879,55.811z"
         id="path1180" />
      <path class="st0" d="M66.954,134.515c0,0,3.905,2.431,5.134,0.706c1.23-1.725-2.39-4.852-2.39-4.852L66.954,134.515z"
         id="path1182" />
      <path class="st3" d="M66.954,134.515c0,0,3.905,2.431,5.134,0.706c1.23-1.725-2.39-4.852-2.39-4.852L66.954,134.515z"
         id="path1184" />
      <g class="st13" id="g1196">
         <g id="g1194">
            <defs id="defs1187">
               <rect id="SVGID_3_" x="73.951" y="67.722" width="1" height="1" />
            </defs>
            <clipPath id="SVGID_4_">
               <use xlink:href="#SVGID_3_" style="overflow:visible;" id="use1189" />
            </clipPath>
            <path class="st14"
               d="M73.951,68.224c0,0.276,0.224,0.5,0.5,0.5c0.276,0,0.5-0.224,0.5-0.5c0-0.275-0.224-0.5-0.5-0.5     C74.175,67.724,73.951,67.95,73.951,68.224"
               clip-path="url(#SVGID_4_)" id="path1192" />
         </g>
      </g>
      <g class="st13" id="g1208">
         <g id="g1206">
            <defs id="defs1199">
               <rect id="SVGID_5_" x="74.87" y="69.342" width="1" height="1" />
            </defs>
            <clipPath id="SVGID_6_">
               <use xlink:href="#SVGID_5_" style="overflow:visible;" id="use1201" />
            </clipPath>
            <path class="st15"
               d="M74.871,69.838c0,0.276,0.224,0.5,0.5,0.5c0.276,0,0.5-0.224,0.5-0.5c0-0.275-0.224-0.5-0.5-0.5     C75.095,69.338,74.871,69.563,74.871,69.838"
               clip-path="url(#SVGID_6_)" id="path1204" />
         </g>
      </g>
      <g class="st13" id="g1220">
         <g id="g1218">
            <defs id="defs1211">
               <rect id="SVGID_7_" x="77.671" y="70.182" width="1" height="1" />
            </defs>
            <clipPath id="SVGID_8_">
               <use xlink:href="#SVGID_7_" style="overflow:visible;" id="use1213" />
            </clipPath>
            <path class="st16"
               d="M77.672,70.682c0,0.275,0.224,0.5,0.5,0.5c0.276,0,0.5-0.225,0.5-0.5c0-0.276-0.224-0.5-0.5-0.5     C77.896,70.182,77.672,70.407,77.672,70.682"
               clip-path="url(#SVGID_8_)" id="path1216" />
         </g>
      </g>
      <g class="st13" id="g1232">
         <g id="g1230">
            <defs id="defs1223">
               <rect id="SVGID_9_" x="79.778" y="70.952" width="1" height="1" />
            </defs>
            <clipPath id="SVGID_10_">
               <use xlink:href="#SVGID_9_" style="overflow:visible;" id="use1225" />
            </clipPath>
            <path class="st17"
               d="M79.779,71.451c0,0.276,0.224,0.5,0.5,0.5c0.276,0,0.5-0.224,0.5-0.5c0-0.276-0.224-0.5-0.5-0.5     C80.003,70.951,79.779,71.175,79.779,71.451"
               clip-path="url(#SVGID_10_)" id="path1228" />
         </g>
      </g>
      <g class="st13" id="g1244">
         <g id="g1242">
            <defs id="defs1235">
               <rect id="SVGID_11_" x="74.586" y="71.442" width="1" height="1" />
            </defs>
            <clipPath id="SVGID_12_">
               <use xlink:href="#SVGID_11_" style="overflow:visible;" id="use1237" />
            </clipPath>
            <path class="st18"
               d="M74.586,71.937c0,0.276,0.224,0.5,0.5,0.5c0.276,0,0.5-0.224,0.5-0.5c0-0.276-0.224-0.5-0.5-0.5     C74.81,71.437,74.586,71.661,74.586,71.937"
               clip-path="url(#SVGID_12_)" id="path1240" />
         </g>
      </g>
      <g class="st13" id="g1256">
         <g id="g1254">
            <defs id="defs1247">
               <rect id="SVGID_13_" x="76.651" y="68.612" width="1" height="1" />
            </defs>
            <clipPath id="SVGID_14_">
               <use xlink:href="#SVGID_13_" style="overflow:visible;" id="use1249" />
            </clipPath>
            <path class="st19"
               d="M76.652,69.113c0,0.276,0.224,0.5,0.5,0.5c0.276,0,0.5-0.224,0.5-0.5c0-0.276-0.224-0.5-0.5-0.5     C76.876,68.613,76.652,68.837,76.652,69.113"
               clip-path="url(#SVGID_14_)" id="path1252" />
         </g>
      </g>
      <g class="st13" id="g1268">
         <g id="g1266">
            <defs id="defs1259">
               <rect id="SVGID_15_" x="75.789" y="70.952" width="1" height="1" />
            </defs>
            <clipPath id="SVGID_16_">
               <use xlink:href="#SVGID_15_" style="overflow:visible;" id="use1261" />
            </clipPath>
            <path class="st20"
               d="M75.79,71.451c0,0.276,0.224,0.5,0.5,0.5c0.276,0,0.5-0.224,0.5-0.5c0-0.276-0.224-0.5-0.5-0.5     C76.014,70.951,75.79,71.175,75.79,71.451"
               clip-path="url(#SVGID_16_)" id="path1264" />
         </g>
      </g>
      <g class="st13" id="g1280">
         <g id="g1278">
            <defs id="defs1271">
               <rect id="SVGID_17_" x="76.46" y="72.732" width="1" height="1" />
            </defs>
            <clipPath id="SVGID_18_">
               <use xlink:href="#SVGID_17_" style="overflow:visible;" id="use1273" />
            </clipPath>
            <path class="st21"
               d="M76.46,73.227c0,0.276,0.224,0.5,0.5,0.5c0.276,0,0.5-0.224,0.5-0.5c0-0.276-0.224-0.5-0.5-0.5     C76.684,72.727,76.46,72.952,76.46,73.227"
               clip-path="url(#SVGID_18_)" id="path1276" />
         </g>
      </g>
      <g class="st13" id="g1292">
         <g id="g1290">
            <defs id="defs1283">
               <rect id="SVGID_19_" x="77.049" y="74.762" width="1" height="1" />
            </defs>
            <clipPath id="SVGID_20_">
               <use xlink:href="#SVGID_19_" style="overflow:visible;" id="use1285" />
            </clipPath>
            <path class="st22"
               d="M77.05,75.265c0,0.276,0.224,0.5,0.5,0.5c0.276,0,0.5-0.224,0.5-0.5c0-0.275-0.224-0.5-0.5-0.5     C77.274,74.765,77.05,74.99,77.05,75.265"
               clip-path="url(#SVGID_20_)" id="path1288" />
         </g>
      </g>
      <g class="st13" id="g1304">
         <g id="g1302">
            <defs id="defs1295">
               <rect id="SVGID_21_" x="79.261" y="75.132" width="1" height="1" />
            </defs>
            <clipPath id="SVGID_22_">
               <use xlink:href="#SVGID_21_" style="overflow:visible;" id="use1297" />
            </clipPath>
            <path class="st23"
               d="M79.262,75.631c0,0.276,0.224,0.5,0.5,0.5c0.276,0,0.5-0.224,0.5-0.5c0-0.276-0.224-0.5-0.5-0.5     C79.486,75.131,79.262,75.355,79.262,75.631"
               clip-path="url(#SVGID_22_)" id="path1300" />
         </g>
      </g>
      <g class="st13" id="g1316">
         <g id="g1314">
            <defs id="defs1307">
               <rect id="SVGID_23_" x="81.718" y="71.092" width="1" height="1" />
            </defs>
            <clipPath id="SVGID_24_">
               <use xlink:href="#SVGID_23_" style="overflow:visible;" id="use1309" />
            </clipPath>
            <path class="st24"
               d="M81.718,71.589c0,0.276,0.224,0.5,0.5,0.5c0.276,0,0.5-0.224,0.5-0.5c0-0.276-0.224-0.5-0.5-0.5     C81.942,71.089,81.718,71.313,81.718,71.589"
               clip-path="url(#SVGID_24_)" id="path1312" />
         </g>
      </g>
      <g class="st13" id="g1328">
         <g id="g1326">
            <defs id="defs1319">
               <rect id="SVGID_25_" x="81.396" y="72.662" width="1" height="1" />
            </defs>
            <clipPath id="SVGID_26_">
               <use xlink:href="#SVGID_25_" style="overflow:visible;" id="use1321" />
            </clipPath>
            <path class="st25"
               d="M81.397,73.166c0,0.275,0.224,0.5,0.5,0.5c0.276,0,0.5-0.225,0.5-0.5c0-0.276-0.224-0.5-0.5-0.5     C81.621,72.666,81.397,72.89,81.397,73.166"
               clip-path="url(#SVGID_26_)" id="path1324" />
         </g>
      </g>
      <g class="st13" id="g1340">
         <g id="g1338">
            <defs id="defs1331">
               <rect id="SVGID_27_" x="84.198" y="73.512" width="1" height="1" />
            </defs>
            <clipPath id="SVGID_28_">
               <use xlink:href="#SVGID_27_" style="overflow:visible;" id="use1333" />
            </clipPath>
            <path class="st26"
               d="M84.198,74.01c0,0.276,0.224,0.5,0.5,0.5c0.276,0,0.5-0.224,0.5-0.5c0-0.276-0.224-0.5-0.5-0.5     C84.422,73.51,84.198,73.734,84.198,74.01"
               clip-path="url(#SVGID_28_)" id="path1336" />
         </g>
      </g>
      <g class="st13" id="g1352">
         <g id="g1350">
            <defs id="defs1343">
               <rect id="SVGID_29_" x="81.112" y="74.762" width="1" height="1" />
            </defs>
            <clipPath id="SVGID_30_">
               <use xlink:href="#SVGID_29_" style="overflow:visible;" id="use1345" />
            </clipPath>
            <path class="st27"
               d="M81.112,75.265c0,0.276,0.224,0.5,0.5,0.5c0.276,0,0.5-0.224,0.5-0.5c0-0.275-0.224-0.5-0.5-0.5     C81.336,74.765,81.112,74.99,81.112,75.265"
               clip-path="url(#SVGID_30_)" id="path1348" />
         </g>
      </g>
      <g class="st13" id="g1364">
         <g id="g1362">
            <defs id="defs1355">
               <rect id="SVGID_31_" x="83.178" y="71.942" width="1" height="1" />
            </defs>
            <clipPath id="SVGID_32_">
               <use xlink:href="#SVGID_31_" style="overflow:visible;" id="use1357" />
            </clipPath>
            <path class="st28"
               d="M83.178,72.44c0,0.276,0.224,0.5,0.5,0.5c0.276,0,0.5-0.224,0.5-0.5c0-0.275-0.224-0.5-0.5-0.5     C83.402,71.94,83.178,72.165,83.178,72.44"
               clip-path="url(#SVGID_32_)" id="path1360" />
         </g>
      </g>
      <g class="st13" id="g1376">
         <g id="g1374">
            <defs id="defs1367">
               <rect id="SVGID_33_" x="87.476" y="70.552" width="1" height="1" />
            </defs>
            <clipPath id="SVGID_34_">
               <use xlink:href="#SVGID_33_" style="overflow:visible;" id="use1369" />
            </clipPath>
            <path class="st29"
               d="M87.476,71.051c0,0.275,0.224,0.5,0.5,0.5c0.276,0,0.5-0.225,0.5-0.5c0-0.276-0.224-0.5-0.5-0.5     C87.7,70.551,87.476,70.775,87.476,71.051"
               clip-path="url(#SVGID_34_)" id="path1372" />
         </g>
      </g>
      <g class="st13" id="g1388">
         <g id="g1386">
            <defs id="defs1379">
               <rect id="SVGID_35_" x="82.316" y="74.282" width="1" height="1" />
            </defs>
            <clipPath id="SVGID_36_">
               <use xlink:href="#SVGID_35_" style="overflow:visible;" id="use1381" />
            </clipPath>
            <path class="st30"
               d="M82.316,74.779c0,0.275,0.224,0.5,0.5,0.5c0.276,0,0.5-0.225,0.5-0.5c0-0.276-0.224-0.5-0.5-0.5     C82.54,74.279,82.316,74.503,82.316,74.779"
               clip-path="url(#SVGID_36_)" id="path1384" />
         </g>
      </g>
      <g class="st13" id="g1400">
         <g id="g1398">
            <defs id="defs1391">
               <rect id="SVGID_37_" x="85.072" y="72.812" width="1" height="1" />
            </defs>
            <clipPath id="SVGID_38_">
               <use xlink:href="#SVGID_37_" style="overflow:visible;" id="use1393" />
            </clipPath>
            <path class="st31"
               d="M85.072,73.313c0,0.276,0.224,0.5,0.5,0.5c0.276,0,0.5-0.224,0.5-0.5c0-0.276-0.224-0.5-0.5-0.5     C85.296,72.813,85.072,73.037,85.072,73.313"
               clip-path="url(#SVGID_38_)" id="path1396" />
         </g>
      </g>
      <g class="st13" id="g1412">
         <g id="g1410">
            <defs id="defs1403">
               <rect id="SVGID_39_" x="84.867" y="71.372" width="1" height="1" />
            </defs>
            <clipPath id="SVGID_40_">
               <use xlink:href="#SVGID_39_" style="overflow:visible;" id="use1405" />
            </clipPath>
            <path class="st32"
               d="M84.868,71.87c0,0.276,0.224,0.5,0.5,0.5c0.276,0,0.5-0.224,0.5-0.5c0-0.276-0.224-0.5-0.5-0.5     C85.092,71.37,84.868,71.594,84.868,71.87"
               clip-path="url(#SVGID_40_)" id="path1408" />
         </g>
      </g>
      <g class="st13" id="g1424">
         <g id="g1422">
            <defs id="defs1415">
               <rect id="SVGID_41_" x="87.388" y="73.382" width="1" height="1" />
            </defs>
            <clipPath id="SVGID_42_">
               <use xlink:href="#SVGID_41_" style="overflow:visible;" id="use1417" />
            </clipPath>
            <path class="st33"
               d="M87.388,73.882c0,0.276,0.224,0.5,0.5,0.5c0.276,0,0.5-0.224,0.5-0.5c0-0.275-0.224-0.5-0.5-0.5     C87.612,73.382,87.388,73.607,87.388,73.882"
               clip-path="url(#SVGID_42_)" id="path1420" />
         </g>
      </g>
      <g class="st13" id="g1436">
         <g id="g1434">
            <defs id="defs1427">
               <rect id="SVGID_43_" x="80.819" y="76.052" width="1" height="1" />
            </defs>
            <clipPath id="SVGID_44_">
               <use xlink:href="#SVGID_43_" style="overflow:visible;" id="use1429" />
            </clipPath>
            <path class="st34"
               d="M80.82,76.555c0,0.276,0.224,0.5,0.5,0.5c0.276,0,0.5-0.224,0.5-0.5c0-0.275-0.224-0.5-0.5-0.5     C81.044,76.055,80.82,76.28,80.82,76.555"
               clip-path="url(#SVGID_44_)" id="path1432" />
         </g>
      </g>
      <g class="st13" id="g1448">
         <g id="g1446">
            <defs id="defs1439">
               <rect id="SVGID_45_" x="88.992" y="70.552" width="1" height="1" />
            </defs>
            <clipPath id="SVGID_46_">
               <use xlink:href="#SVGID_45_" style="overflow:visible;" id="use1441" />
            </clipPath>
            <path class="st35"
               d="M88.993,71.051c0,0.275,0.224,0.5,0.5,0.5c0.276,0,0.5-0.225,0.5-0.5c0-0.276-0.224-0.5-0.5-0.5     C89.217,70.551,88.993,70.775,88.993,71.051"
               clip-path="url(#SVGID_46_)" id="path1444" />
         </g>
      </g>
      <g class="st13" id="g1460">
         <g id="g1458">
            <defs id="defs1451">
               <rect id="SVGID_47_" x="89.647" y="68.282" width="1" height="1" />
            </defs>
            <clipPath id="SVGID_48_">
               <use xlink:href="#SVGID_47_" style="overflow:visible;" id="use1453" />
            </clipPath>
            <path class="st36"
               d="M89.648,68.782c0,0.276,0.224,0.5,0.5,0.5c0.276,0,0.5-0.224,0.5-0.5c0-0.275-0.224-0.5-0.5-0.5     C89.872,68.282,89.648,68.507,89.648,68.782"
               clip-path="url(#SVGID_48_)" id="path1456" />
         </g>
      </g>
      <g class="st13" id="g1472">
         <g id="g1470">
            <defs id="defs1463">
               <rect id="SVGID_49_" x="86.853" y="72.092" width="1" height="1" />
            </defs>
            <clipPath id="SVGID_50_">
               <use xlink:href="#SVGID_49_" style="overflow:visible;" id="use1465" />
            </clipPath>
            <path class="st37"
               d="M86.853,72.589c0,0.275,0.224,0.5,0.5,0.5c0.276,0,0.5-0.225,0.5-0.5c0-0.276-0.224-0.5-0.5-0.5     C87.077,72.089,86.853,72.313,86.853,72.589"
               clip-path="url(#SVGID_50_)" id="path1468" />
         </g>
      </g>
      <g class="st13" id="g1484">
         <g id="g1482">
            <defs id="defs1475">
               <rect id="SVGID_51_" x="88.305" y="71.942" width="1" height="1" />
            </defs>
            <clipPath id="SVGID_52_">
               <use xlink:href="#SVGID_51_" style="overflow:visible;" id="use1477" />
            </clipPath>
            <path class="st38"
               d="M88.306,72.44c0,0.276,0.224,0.5,0.5,0.5c0.276,0,0.5-0.224,0.5-0.5c0-0.275-0.224-0.5-0.5-0.5     C88.53,71.94,88.306,72.165,88.306,72.44"
               clip-path="url(#SVGID_52_)" id="path1480" />
         </g>
      </g>
      <g class="st13" id="g1496">
         <g id="g1494">
            <defs id="defs1487">
               <rect id="SVGID_53_" x="85.991" y="74.422" width="1" height="1" />
            </defs>
            <clipPath id="SVGID_54_">
               <use xlink:href="#SVGID_53_" style="overflow:visible;" id="use1489" />
            </clipPath>
            <path class="st39"
               d="M85.992,74.927c0,0.276,0.224,0.5,0.5,0.5c0.276,0,0.5-0.224,0.5-0.5c0-0.276-0.224-0.5-0.5-0.5     C86.216,74.427,85.992,74.651,85.992,74.927"
               clip-path="url(#SVGID_54_)" id="path1492" />
         </g>
      </g>
      <g class="st13" id="g1508">
         <g id="g1506">
            <defs id="defs1499">
               <rect id="SVGID_55_" x="82.986" y="76.052" width="1" height="1" />
            </defs>
            <clipPath id="SVGID_56_">
               <use xlink:href="#SVGID_55_" style="overflow:visible;" id="use1501" />
            </clipPath>
            <path class="st40"
               d="M82.986,76.555c0,0.276,0.224,0.5,0.5,0.5c0.276,0,0.5-0.224,0.5-0.5c0-0.275-0.224-0.5-0.5-0.5     C83.21,76.055,82.986,76.28,82.986,76.555"
               clip-path="url(#SVGID_56_)" id="path1504" />
         </g>
      </g>
      <g class="st13" id="g1520">
         <g id="g1518">
            <defs id="defs1511">
               <rect id="SVGID_57_" x="84.489" y="75.562" width="1" height="1" />
            </defs>
            <clipPath id="SVGID_58_">
               <use xlink:href="#SVGID_57_" style="overflow:visible;" id="use1513" />
            </clipPath>
            <path class="st41"
               d="M84.489,76.062c0,0.276,0.224,0.5,0.5,0.5c0.276,0,0.5-0.224,0.5-0.5c0-0.276-0.224-0.5-0.5-0.5     C84.713,75.562,84.489,75.786,84.489,76.062"
               clip-path="url(#SVGID_58_)" id="path1516" />
         </g>
      </g>
      <path class="st1"
         d="M78.838,60.401c-0.768-0.023-1.558,0.057-2.249,0.395c-0.69,0.337-1.269,0.968-1.395,1.726   c-0.081,0.483,0.024,0.985,0.237,1.426c0.452,0.941,1.408,1.62,2.446,1.736c1.037,0.116,2.12-0.334,2.769-1.151   c0.624-0.785,0.837-1.936,0.372-2.823C80.352,60.438,78.838,60.401,78.838,60.401"
         id="path1522" />
      <path class="st3"
         d="M78.838,60.401c-0.768-0.023-1.558,0.057-2.249,0.395c-0.69,0.337-1.269,0.968-1.395,1.726   c-0.081,0.483,0.024,0.985,0.237,1.426c0.452,0.941,1.408,1.62,2.446,1.736c1.037,0.116,2.12-0.334,2.769-1.151   c0.624-0.785,0.837-1.936,0.372-2.823C80.352,60.438,78.838,60.401,78.838,60.401z"
         id="path1524" />
      <path class="st1"
         d="M87.305,60.347c-1.449,0.087-2.575,0.964-2.661,2.27c-0.085,1.305,0.918,2.556,2.184,2.887   c0.924,0.242,1.971,0.026,2.683-0.611s1.018-1.682,0.77-2.605C89.638,59.894,87.305,60.347,87.305,60.347"
         id="path1526" />
      <path class="st3"
         d="M87.305,60.347c-1.449,0.087-2.575,0.964-2.661,2.27c-0.085,1.305,0.918,2.556,2.184,2.887   c0.924,0.242,1.971,0.026,2.683-0.611s1.018-1.682,0.77-2.605C89.638,59.894,87.305,60.347,87.305,60.347z"
         id="path1528" />
      <line class="st42" x1="13.402" y1="208.807" x2="32.827" y2="208.807" id="line1530" />
      <line class="st42" x1="45.3" y1="208.807" x2="57.225" y2="208.807" id="line1532" />
      <line class="st42" x1="108.313" y1="208.807" x2="127.238" y2="208.807" id="line1534" />
      <path class="st0"
         d="M77.57,217.52c-1.165-0.44-2.218-0.891-3.237-1.367c0.855-0.204,2.646-0.783,1.932-1.94   c-0.778-1.262-1.914,1.031-2.256,1.792c-0.035-0.018-0.069-0.036-0.105-0.052c-0.014-0.865-0.156-3.349-1.357-2.511   c-0.836,0.583-0.25,1.428,0.393,2.037c-1.484-0.749-2.959-1.578-4.661-2.552c-0.619-0.41-1.19-0.789-1.648-1.091   c-0.088-0.105-0.175-0.209-0.249-0.325c-0.371-0.577-0.521-1.256-0.625-1.94c-0.176-2.726-0.546-8.395-1.029-15.398   c-0.001-0.027-0.001-0.055-0.002-0.083c-0.076-2.054-0.219-4.106-0.362-6.157c-0.161-2.324-0.322-4.647-0.484-6.97   c-0.231-3.322-0.468-6.645-0.839-9.953c-0.139-1.799-0.281-3.588-0.422-5.344c0,0-0.038-0.055,0.431-0.075l3.849,0.065   c0.008-0.103,0.009-0.211,0.016-0.315c0.042-0.02,0.092-0.026,0.128-0.057c0.253-0.208,0.263-0.585,0.251-0.912   c-0.084-2.391-0.241-4.779-0.458-7.161c-0.18-2.352-0.474-4.751-0.857-7.153c-0.605-4.101-1.398-8.175-2.394-12.199   c-1.947-7.864-4.65-15.657-5.114-23.72c-0.025-0.726-0.024-1.414,0.014-2.037c0,0,0.84-0.162,1.403-1.063   c1.323,8.131,7.59,22.13,9.748,25.129c1.063,2.367,2.695,5.742,4.548,5.407c1.889-0.343-0.376-5.855-0.574-7.04   c0,0-0.007-0.024-0.017-0.059c0.021-0.538-0.186-1.07-0.38-1.581c-0.179-0.472-0.33-0.952-0.476-1.434   c-0.132-0.468-0.275-0.978-0.427-1.517c-0.359-1.382-0.676-2.776-1.089-4.142c-0.114-0.38-0.245-0.755-0.373-1.131   c-1.06-3.875-2.122-7.892-2.566-9.994c-1.422-6.734-2.199-18.485-4.788-22.592c-0.444-0.704-0.388-0.747,0.131-0.154   c1.22,1.396,1.003-6.119-0.756-6.976c-0.135-0.187-0.831-4.422-0.814-4.419c-0.781-0.955-0.931-1.141-0.698-2.5   c0.227-1.323-0.93-0.346-0.872-1.687c0.116-2.674-0.523-1.279-0.871-3.199c0,0,0.234-0.362,0.29-2.153   c0.093-0.761,0.181-1.523,0.266-2.284c0.062-0.554,0.053-1.114-0.009-1.668c0.065-1.272,0.056-2.606-0.197-4.101   c-0.297-1.758-0.914-3.19-1.601-4.328c-0.593-1.346-1.412-2.495-2.653-3.826c0.292-0.482,0.438-0.954,0.386-1.407   c-0.45-3.948-8.655-7.222-16.294-3.11C28.687,56.256,33.4,64.799,32.42,70.098c-0.73,3.948-5.672,4.414-6.844,8.465   c-0.987,3.412,0.406,4.55,0.809,9.122c0.437,4.965-7.621,3.579-6.11,13.657c0.178,1.189,0.316,2.495,0.316,2.495   c-0.414,0.709-0.794,1.386-1.137,2.024c-0.633,0.882-1.131,1.86-1.42,2.907l-0.167,0.374c0.011-0.005,0.023-0.006,0.034-0.011   c-1.271,3.459-0.144,6.293,1.709,8.988c1.925,2.799,9.192,8.978,14.558,13.099c0.715,0.52,1.528,0.76,2.09,0.873   c-0.206,0.766-0.408,1.562-0.605,2.386c-0.049,0.173-0.098,0.345-0.147,0.518l0.011,0.058c-2.881,12.348-4.751,30.003-4.751,30.003   s5.259,0.194,3.89,0.312l0.166,0.246c-0.006,0.264-0.011,0.523-0.016,0.785c-0.212,0.825-0.319,1.715-0.041,2.427   c-0.015,1.169-0.023,2.306-0.02,3.398c0.005,2.445,1.595,40.334,1.595,40.334l-1.098,3.316c0,0,0.052,0.132,0.154,0.333   l-0.316-0.01c0,0-2.663,4.779-0.714,6.027c0.037,0.024,0.08,0.046,0.12,0.069c0.103,0.1,0.214,0.193,0.34,0.265   c0.205,0.118,0.427,0.196,0.657,0.252c1.09,0.267,2.211,0.37,3.33,0.449c0.873,0.062,1.836,0.152,2.662-0.212   c0.487-0.213,0.888-0.57,1.261-0.957c0.739-0.515,1.095-1.266,0.746-2.317c-0.599-1.803-1.062-3.353-1.062-3.353l-0.124-0.004   c0.047-0.07,0.076-0.117,0.076-0.117c-0.036-0.163-0.072-0.339-0.109-0.52c-0.04-0.441-0.117-0.889-0.181-1.316   c-0.331-2.211-0.143-4.465,0.037-6.695c1.067-13.161,1.841-26.346,2.345-39.54c0.051-0.922,0.103-1.848,0.154-2.762h-0.041   c0-0.003,0.001-0.008,0.001-0.012c-1.085-0.113,7.315,0.012,7.315,0.012c0.007,0.045,0.015,0.088,0.022,0.134l-0.116,0.065   c0.12,0.187,0.186,0.396,0.229,0.616c0.006,0.037,0.012,0.073,0.018,0.11c0.088,0.557,0.046,1.165,0.274,1.653   c0.209,1.229,0.421,2.435,0.638,3.585c2.88,15.217,7.88,35.242,8.239,39.154c0,0-0.092,0.625-0.083,1.39l-0.071-0.007l-0.408,2.367   c-0.231,1.119,0.069,2.159,0.821,2.917c0.751,0.759,1.757,1.199,2.741,1.612c0.859,0.361,2.097,0.766,3.503,1.144   c0.038,0.059,0.084,0.115,0.138,0.154c0.352,0.261,0.797,0.352,1.228,0.432c2.641,0.491,5.313,0.816,7.994,0.974   c0.556,0.033,1.122,0.059,1.667-0.06c0.41-0.089,0.798-0.258,1.183-0.425c0.319-0.14,0.678-0.324,0.751-0.664   c0.016-0.073,0.009-0.148-0.001-0.222C81.482,219.184,78.966,218.047,77.57,217.52 M31.758,113.359   c0.182,0.062,0.363,0.107,0.545,0.152c0.009,0.023,0.022,0.07,0.022,0.07l1.345,0.057c0,0,0.832,0.389,1.3,0.268   c0.419,1.537,0.783,4.707,0.783,4.707l0.03-0.331c0.053,0.013,1.191,6.75,1.286,9.769c-0.047-0.011-0.088-0.021-0.126-0.03   c-0.671-0.651-1.322-1.323-1.972-1.996c-1.253-1.386-3.005-3.344-4.77-5.374c-1.562-1.914-3.061-3.881-4.451-5.923   c-0.313-0.458-0.626-0.933-0.748-1.474c-0.116-0.517-0.042-1.041,0.144-1.539c0.235-0.32,0.496-0.672,0.805-1.083l-0.1-0.127   c0.019-0.023,0.036-0.048,0.055-0.071C25.803,110.357,29.662,112.633,31.758,113.359"
         id="path1536" />
   </g>
   <g id="g1600" transform="translate(2.5,96.5)">
      <path class="st4"
         d="m 635.821,26.537 h -5.969 V 15.829 h 5.969 v 1.106 h -4.725 v 3.449 h 4.439 v 1.099 h -4.439 v 3.94 h 4.725 z"
         id="path1540" />
      <path class="st4"
         d="m 639.154,18.509 v 5.207 c 0,0.655 0.148,1.143 0.447,1.465 0.297,0.322 0.764,0.484 1.398,0.484 0.84,0 1.454,-0.229 1.842,-0.689 0.389,-0.458 0.582,-1.208 0.582,-2.248 v -4.219 h 1.217 v 8.027 h -1.004 L 643.46,25.46 h -0.066 c -0.248,0.395 -0.594,0.698 -1.036,0.908 -0.441,0.209 -0.946,0.314 -1.513,0.314 -0.977,0 -1.707,-0.231 -2.193,-0.695 -0.485,-0.464 -0.729,-1.206 -0.729,-2.227 v -5.252 h 1.231 z"
         id="path1542" />
      <path class="st4"
         d="m 650.881,18.363 c 0.356,0 0.676,0.029 0.959,0.088 l -0.168,1.128 c -0.332,-0.073 -0.625,-0.11 -0.879,-0.11 -0.649,0 -1.205,0.264 -1.666,0.791 -0.462,0.527 -0.692,1.185 -0.692,1.971 v 4.307 h -1.216 v -8.027 h 1.004 l 0.139,1.486 h 0.059 c 0.298,-0.521 0.656,-0.925 1.076,-1.208 0.42,-0.283 0.881,-0.426 1.384,-0.426 z"
         id="path1544" />
      <path class="st4"
         d="m 660.271,22.515 c 0,1.31 -0.329,2.331 -0.989,3.065 -0.658,0.735 -1.569,1.103 -2.731,1.103 -0.718,0 -1.354,-0.168 -1.911,-0.506 -0.557,-0.336 -0.987,-0.82 -1.289,-1.449 -0.304,-0.631 -0.455,-1.367 -0.455,-2.213 0,-1.308 0.327,-2.327 0.982,-3.058 0.653,-0.729 1.562,-1.095 2.725,-1.095 1.122,0 2.015,0.373 2.677,1.121 0.659,0.747 0.991,1.759 0.991,3.032 z m -6.117,0 c 0,1.025 0.205,1.808 0.615,2.344 0.41,0.538 1.014,0.807 1.81,0.807 0.796,0 1.4,-0.268 1.812,-0.803 0.413,-0.534 0.619,-1.316 0.619,-2.348 0,-1.02 -0.206,-1.795 -0.619,-2.325 -0.412,-0.529 -1.021,-0.794 -1.827,-0.794 -0.796,0 -1.396,0.261 -1.802,0.783 -0.406,0.522 -0.608,1.302 -0.608,2.336 z"
         id="path1546" />
      <path class="st4"
         d="m 666.138,26.683 c -0.522,0 -1,-0.097 -1.432,-0.289 -0.433,-0.193 -0.795,-0.489 -1.088,-0.891 h -0.088 c 0.059,0.469 0.088,0.914 0.088,1.334 v 3.303 h -1.216 V 18.509 h 0.988 l 0.169,1.099 h 0.059 c 0.312,-0.439 0.676,-0.757 1.091,-0.952 0.415,-0.195 0.892,-0.293 1.429,-0.293 1.064,0 1.886,0.364 2.465,1.092 0.578,0.728 0.868,1.748 0.868,3.061 0,1.318 -0.295,2.343 -0.883,3.073 -0.589,0.729 -1.405,1.094 -2.45,1.094 z m -0.176,-7.287 c -0.82,0 -1.413,0.227 -1.78,0.681 -0.365,0.454 -0.554,1.177 -0.563,2.168 v 0.271 c 0,1.129 0.188,1.936 0.563,2.421 0.376,0.486 0.979,0.729 1.81,0.729 0.693,0 1.236,-0.281 1.63,-0.843 0.393,-0.562 0.59,-1.335 0.59,-2.321 0,-1.001 -0.197,-1.77 -0.59,-2.304 -0.394,-0.535 -0.947,-0.802 -1.66,-0.802 z"
         id="path1548" />
      <path class="st4"
         d="m 676.53,26.537 -0.241,-1.143 h -0.059 c -0.401,0.503 -0.8,0.844 -1.198,1.021 -0.397,0.179 -0.895,0.268 -1.49,0.268 -0.796,0 -1.42,-0.205 -1.871,-0.615 -0.452,-0.41 -0.678,-0.993 -0.678,-1.75 0,-1.621 1.296,-2.471 3.89,-2.549 l 1.361,-0.045 v -0.498 c 0,-0.629 -0.135,-1.095 -0.406,-1.395 -0.271,-0.301 -0.704,-0.451 -1.3,-0.451 -0.669,0 -1.426,0.205 -2.271,0.615 l -0.373,-0.93 c 0.395,-0.215 0.828,-0.383 1.3,-0.506 0.471,-0.121 0.943,-0.183 1.417,-0.183 0.957,0 1.666,0.212 2.128,0.638 0.461,0.424 0.692,1.105 0.692,2.043 v 5.479 h -0.901 z m -2.747,-0.858 c 0.757,0 1.352,-0.207 1.784,-0.622 0.432,-0.415 0.647,-0.996 0.647,-1.743 V 22.59 L 675,22.64 c -0.967,0.034 -1.664,0.185 -2.092,0.45 -0.427,0.267 -0.641,0.681 -0.641,1.241 0,0.439 0.133,0.774 0.399,1.004 0.267,0.23 0.639,0.344 1.117,0.344 z"
         id="path1550" />
      <path class="st4"
         d="m 686.49,26.537 -1.472,-4.709 c -0.093,-0.288 -0.267,-0.942 -0.521,-1.963 h -0.059 c -0.195,0.854 -0.365,1.514 -0.512,1.977 l -1.517,4.695 h -1.406 l -2.19,-8.027 h 1.275 c 0.517,2.017 0.911,3.553 1.183,4.607 0.271,1.055 0.426,1.765 0.465,2.131 h 0.059 c 0.054,-0.278 0.141,-0.639 0.26,-1.08 0.12,-0.442 0.224,-0.792 0.312,-1.051 l 1.473,-4.607 h 1.318 l 1.436,4.607 c 0.272,0.84 0.458,1.545 0.557,2.116 h 0.059 c 0.019,-0.176 0.071,-0.446 0.157,-0.813 0.085,-0.365 0.594,-2.336 1.526,-5.91 h 1.26 l -2.219,8.027 z"
         id="path1552" />
      <path class="st4"
         d="m 694.994,26.683 c -1.186,0 -2.122,-0.361 -2.809,-1.084 -0.686,-0.723 -1.029,-1.726 -1.029,-3.01 0,-1.294 0.319,-2.322 0.956,-3.084 0.638,-0.762 1.493,-1.143 2.567,-1.143 1.006,0 1.802,0.331 2.388,0.992 0.586,0.662 0.879,1.535 0.879,2.619 v 0.769 h -5.53 c 0.024,0.942 0.263,1.658 0.715,2.146 0.451,0.489 1.088,0.732 1.908,0.732 0.863,0 1.718,-0.18 2.562,-0.541 v 1.084 c -0.43,0.186 -0.836,0.318 -1.219,0.398 -0.383,0.082 -0.845,0.122 -1.388,0.122 z m -0.329,-7.302 c -0.645,0 -1.158,0.211 -1.542,0.631 -0.383,0.42 -0.609,1.001 -0.678,1.742 h 4.197 c 0,-0.766 -0.171,-1.354 -0.513,-1.761 -0.341,-0.408 -0.829,-0.612 -1.464,-0.612 z"
         id="path1554" />
      <path class="st4"
         d="m 699.917,16.334 c 0,-0.277 0.068,-0.481 0.205,-0.611 0.137,-0.129 0.308,-0.193 0.513,-0.193 0.195,0 0.363,0.065 0.506,0.197 0.141,0.132 0.212,0.335 0.212,0.607 0,0.274 -0.071,0.478 -0.212,0.612 -0.143,0.134 -0.311,0.201 -0.506,0.201 -0.205,0 -0.376,-0.067 -0.513,-0.201 -0.137,-0.135 -0.205,-0.338 -0.205,-0.612 z m 1.318,10.203 h -1.216 V 18.51 h 1.216 z"
         id="path1556" />
      <path class="st4"
         d="m 706.406,25.679 c 0.215,0 0.422,-0.016 0.622,-0.047 0.2,-0.032 0.359,-0.064 0.477,-0.1 v 0.931 c -0.132,0.063 -0.326,0.116 -0.582,0.157 -0.257,0.042 -0.487,0.062 -0.692,0.062 -1.553,0 -2.329,-0.817 -2.329,-2.453 v -4.775 h -1.15 v -0.586 l 1.15,-0.506 0.513,-1.714 h 0.703 v 1.86 h 2.329 v 0.945 h -2.329 v 4.724 c 0,0.483 0.114,0.854 0.345,1.113 0.227,0.26 0.543,0.389 0.943,0.389 z"
         id="path1558" />
      <path class="st4"
         d="m 712.5,26.683 c -1.186,0 -2.122,-0.361 -2.809,-1.084 -0.686,-0.723 -1.029,-1.726 -1.029,-3.01 0,-1.294 0.319,-2.322 0.956,-3.084 0.638,-0.762 1.493,-1.143 2.567,-1.143 1.006,0 1.802,0.331 2.388,0.992 0.586,0.662 0.879,1.535 0.879,2.619 v 0.769 h -5.53 c 0.024,0.942 0.263,1.658 0.715,2.146 0.451,0.489 1.088,0.732 1.908,0.732 0.863,0 1.718,-0.18 2.562,-0.541 v 1.084 c -0.43,0.186 -0.836,0.318 -1.219,0.398 -0.383,0.082 -0.845,0.122 -1.388,0.122 z m -0.329,-7.302 c -0.645,0 -1.158,0.211 -1.542,0.631 -0.383,0.42 -0.609,1.001 -0.678,1.742 h 4.197 c 0,-0.766 -0.171,-1.354 -0.513,-1.761 -0.341,-0.408 -0.829,-0.612 -1.464,-0.612 z"
         id="path1560" />
      <path class="st4"
         d="m 631.097,44.537 h -1.244 V 33.829 h 5.969 v 1.106 h -4.725 v 3.918 h 4.439 v 1.105 h -4.439 z"
         id="path1562" />
      <path class="st4"
         d="m 640.801,44.683 c -1.186,0 -2.122,-0.361 -2.809,-1.084 -0.686,-0.723 -1.029,-1.726 -1.029,-3.01 0,-1.294 0.319,-2.322 0.956,-3.084 0.638,-0.762 1.493,-1.143 2.567,-1.143 1.006,0 1.802,0.331 2.388,0.992 0.586,0.662 0.879,1.535 0.879,2.619 v 0.769 h -5.53 c 0.024,0.942 0.263,1.658 0.715,2.146 0.451,0.489 1.088,0.732 1.908,0.732 0.863,0 1.718,-0.18 2.562,-0.541 v 1.084 c -0.43,0.186 -0.836,0.318 -1.219,0.398 -0.383,0.082 -0.845,0.122 -1.388,0.122 z m -0.329,-7.302 c -0.645,0 -1.158,0.211 -1.542,0.631 -0.383,0.42 -0.609,1.001 -0.678,1.742 h 4.197 c 0,-0.766 -0.171,-1.354 -0.513,-1.761 -0.341,-0.408 -0.83,-0.612 -1.464,-0.612 z"
         id="path1564" />
      <path class="st4"
         d="m 651.004,42.347 c 0,0.746 -0.277,1.323 -0.834,1.729 -0.557,0.406 -1.339,0.607 -2.344,0.607 -1.065,0 -1.896,-0.168 -2.49,-0.506 V 43.05 c 0.385,0.195 0.799,0.349 1.241,0.461 0.441,0.112 0.868,0.168 1.278,0.168 0.634,0 1.122,-0.101 1.465,-0.304 0.341,-0.202 0.512,-0.511 0.512,-0.927 0,-0.312 -0.135,-0.579 -0.406,-0.802 -0.271,-0.222 -0.8,-0.484 -1.586,-0.787 -0.746,-0.278 -1.277,-0.521 -1.593,-0.729 -0.314,-0.208 -0.549,-0.443 -0.703,-0.707 -0.153,-0.264 -0.23,-0.579 -0.23,-0.944 0,-0.654 0.266,-1.171 0.798,-1.55 0.532,-0.378 1.263,-0.567 2.19,-0.567 0.864,0 1.709,0.176 2.534,0.527 l -0.432,0.988 c -0.807,-0.331 -1.536,-0.498 -2.19,-0.498 -0.576,0 -1.011,0.091 -1.304,0.271 -0.293,0.18 -0.439,0.43 -0.439,0.747 0,0.215 0.055,0.398 0.165,0.55 0.109,0.151 0.286,0.295 0.53,0.432 0.244,0.137 0.713,0.335 1.406,0.594 0.953,0.347 1.596,0.695 1.931,1.047 0.334,0.353 0.501,0.795 0.501,1.327 z"
         id="path1566" />
      <path class="st4"
         d="m 655.575,43.679 c 0.215,0 0.422,-0.016 0.622,-0.047 0.2,-0.032 0.359,-0.064 0.477,-0.1 v 0.931 c -0.132,0.063 -0.326,0.116 -0.582,0.157 -0.257,0.042 -0.487,0.062 -0.692,0.062 -1.553,0 -2.329,-0.817 -2.329,-2.453 v -4.775 h -1.15 v -0.586 l 1.15,-0.506 0.513,-1.714 h 0.703 v 1.86 h 2.329 v 0.945 h -2.329 v 4.724 c 0,0.483 0.114,0.854 0.345,1.113 0.227,0.26 0.543,0.389 0.943,0.389 z"
         id="path1568" />
      <path class="st4" d="m 657.604,41.072 v -1.113 h 3.596 v 1.113 z" id="path1570" />
      <path class="st4"
         d="m 668.143,36.509 v 5.207 c 0,0.655 0.148,1.143 0.447,1.465 0.297,0.322 0.764,0.484 1.398,0.484 0.84,0 1.454,-0.229 1.842,-0.689 0.389,-0.458 0.582,-1.208 0.582,-2.248 v -4.219 h 1.217 v 8.027 h -1.004 l -0.176,-1.076 h -0.066 c -0.248,0.395 -0.594,0.698 -1.036,0.908 -0.441,0.209 -0.946,0.314 -1.513,0.314 -0.977,0 -1.707,-0.231 -2.193,-0.695 -0.485,-0.464 -0.729,-1.206 -0.729,-2.227 v -5.252 h 1.231 z"
         id="path1572" />
      <path class="st4"
         d="m 681.7,44.537 v -5.193 c 0,-0.653 -0.149,-1.143 -0.446,-1.465 -0.299,-0.322 -0.765,-0.482 -1.399,-0.482 -0.84,0 -1.455,0.227 -1.846,0.681 -0.391,0.454 -0.586,1.204 -0.586,2.249 v 4.211 h -1.216 v -8.027 h 0.988 l 0.198,1.099 h 0.059 c 0.249,-0.396 0.598,-0.702 1.048,-0.919 0.448,-0.218 0.949,-0.326 1.501,-0.326 0.967,0 1.694,0.233 2.183,0.699 0.488,0.467 0.732,1.213 0.732,2.238 v 5.236 H 681.7 Z"
         id="path1574" />
      <path class="st4"
         d="m 690.878,43.461 h -0.065 c -0.562,0.815 -1.402,1.223 -2.52,1.223 -1.051,0 -1.867,-0.359 -2.45,-1.076 -0.584,-0.719 -0.876,-1.738 -0.876,-3.062 0,-1.322 0.293,-2.351 0.879,-3.083 0.586,-0.732 1.401,-1.099 2.447,-1.099 1.088,0 1.923,0.396 2.504,1.187 h 0.096 l -0.051,-0.579 -0.029,-0.563 V 33.14 h 1.215 v 11.396 h -0.988 z m -2.432,0.205 c 0.83,0 1.432,-0.227 1.806,-0.678 0.373,-0.452 0.561,-1.181 0.561,-2.187 v -0.257 c 0,-1.137 -0.189,-1.949 -0.568,-2.435 -0.378,-0.486 -0.982,-0.729 -1.812,-0.729 -0.713,0 -1.259,0.277 -1.637,0.832 -0.379,0.554 -0.568,1.336 -0.568,2.348 0,1.025 0.188,1.799 0.564,2.321 0.376,0.522 0.927,0.785 1.654,0.785 z"
         id="path1576" />
      <path class="st4" d="m 633.147,62.537 h -1.244 v -9.602 h -3.392 v -1.106 h 8.027 v 1.106 h -3.392 v 9.602 z"
         id="path1578" />
      <path class="st4"
         d="m 642.903,62.537 -0.241,-1.143 h -0.059 c -0.401,0.503 -0.8,0.844 -1.198,1.021 -0.397,0.179 -0.895,0.268 -1.49,0.268 -0.796,0 -1.42,-0.205 -1.871,-0.615 -0.452,-0.41 -0.678,-0.993 -0.678,-1.75 0,-1.621 1.296,-2.471 3.89,-2.549 l 1.361,-0.045 v -0.498 c 0,-0.629 -0.135,-1.095 -0.406,-1.395 -0.271,-0.301 -0.704,-0.451 -1.3,-0.451 -0.669,0 -1.426,0.205 -2.271,0.615 l -0.373,-0.93 c 0.395,-0.215 0.828,-0.383 1.3,-0.506 0.471,-0.121 0.943,-0.183 1.417,-0.183 0.957,0 1.666,0.212 2.128,0.638 0.461,0.424 0.692,1.105 0.692,2.043 v 5.479 h -0.901 z m -2.747,-0.858 c 0.757,0 1.352,-0.207 1.784,-0.622 0.432,-0.415 0.647,-0.996 0.647,-1.743 V 58.59 l -1.215,0.051 c -0.967,0.034 -1.664,0.185 -2.092,0.45 -0.427,0.267 -0.641,0.681 -0.641,1.241 0,0.439 0.133,0.774 0.399,1.004 0.268,0.229 0.64,0.343 1.118,0.343 z"
         id="path1580" />
      <path class="st4"
         d="m 652.879,54.509 v 0.77 l -1.487,0.176 c 0.137,0.171 0.259,0.394 0.366,0.67 0.107,0.275 0.161,0.587 0.161,0.934 0,0.786 -0.269,1.414 -0.806,1.883 -0.537,0.469 -1.274,0.703 -2.212,0.703 -0.239,0 -0.464,-0.02 -0.674,-0.059 -0.518,0.273 -0.776,0.617 -0.776,1.032 0,0.22 0.09,0.382 0.271,0.487 0.18,0.104 0.49,0.157 0.93,0.157 h 1.421 c 0.869,0 1.537,0.183 2.003,0.55 0.467,0.365 0.699,0.897 0.699,1.596 0,0.889 -0.356,1.566 -1.068,2.033 -0.714,0.466 -1.754,0.699 -3.121,0.699 -1.05,0 -1.858,-0.195 -2.428,-0.586 -0.568,-0.391 -0.854,-0.942 -0.854,-1.655 0,-0.488 0.156,-0.911 0.469,-1.267 0.312,-0.356 0.752,-0.599 1.318,-0.726 -0.205,-0.093 -0.377,-0.236 -0.516,-0.433 -0.14,-0.194 -0.209,-0.422 -0.209,-0.681 0,-0.293 0.078,-0.55 0.234,-0.769 0.156,-0.221 0.402,-0.433 0.74,-0.638 -0.416,-0.171 -0.754,-0.462 -1.015,-0.872 -0.262,-0.41 -0.392,-0.879 -0.392,-1.406 0,-0.879 0.264,-1.556 0.791,-2.032 0.527,-0.476 1.273,-0.714 2.24,-0.714 0.42,0 0.799,0.049 1.136,0.146 h 2.779 z m -6.402,9.375 c 0,0.435 0.184,0.764 0.55,0.988 0.366,0.224 0.891,0.338 1.575,0.338 1.02,0 1.775,-0.153 2.267,-0.458 0.49,-0.306 0.735,-0.72 0.735,-1.241 0,-0.436 -0.134,-0.736 -0.402,-0.905 -0.269,-0.168 -0.774,-0.253 -1.516,-0.253 h -1.458 c -0.552,0 -0.981,0.133 -1.289,0.396 -0.308,0.263 -0.462,0.642 -0.462,1.135 z m 0.66,-6.804 c 0,0.562 0.158,0.987 0.476,1.275 0.318,0.288 0.759,0.432 1.325,0.432 1.188,0 1.78,-0.576 1.78,-1.729 0,-1.206 -0.601,-1.809 -1.802,-1.809 -0.571,0 -1.011,0.153 -1.318,0.461 -0.307,0.308 -0.461,0.765 -0.461,1.37 z"
         id="path1582" />
      <path class="st4"
         d="m 657.917,62.683 c -1.186,0 -2.122,-0.361 -2.809,-1.084 -0.686,-0.723 -1.029,-1.726 -1.029,-3.01 0,-1.294 0.319,-2.322 0.956,-3.084 0.638,-0.762 1.493,-1.143 2.567,-1.143 1.006,0 1.802,0.331 2.388,0.992 0.586,0.662 0.879,1.535 0.879,2.619 v 0.769 h -5.53 c 0.024,0.942 0.263,1.658 0.715,2.146 0.451,0.489 1.088,0.732 1.908,0.732 0.863,0 1.718,-0.18 2.562,-0.541 v 1.084 c -0.43,0.186 -0.836,0.318 -1.219,0.398 -0.383,0.082 -0.845,0.122 -1.388,0.122 z m -0.329,-7.302 c -0.645,0 -1.158,0.211 -1.542,0.631 -0.383,0.42 -0.609,1.001 -0.678,1.742 h 4.197 c 0,-0.766 -0.171,-1.354 -0.513,-1.761 -0.341,-0.408 -0.829,-0.612 -1.464,-0.612 z"
         id="path1584" />
      <path class="st4"
         d="m 668.119,60.347 c 0,0.746 -0.277,1.323 -0.834,1.729 -0.557,0.406 -1.339,0.607 -2.344,0.607 -1.065,0 -1.896,-0.168 -2.49,-0.506 V 61.05 c 0.385,0.195 0.799,0.349 1.241,0.461 0.441,0.112 0.868,0.168 1.278,0.168 0.634,0 1.122,-0.101 1.465,-0.304 0.341,-0.202 0.512,-0.511 0.512,-0.927 0,-0.312 -0.135,-0.579 -0.406,-0.802 -0.271,-0.222 -0.8,-0.484 -1.586,-0.787 -0.746,-0.278 -1.277,-0.521 -1.593,-0.729 -0.314,-0.208 -0.549,-0.443 -0.703,-0.707 -0.153,-0.264 -0.23,-0.579 -0.23,-0.944 0,-0.654 0.266,-1.171 0.798,-1.55 0.532,-0.378 1.263,-0.567 2.19,-0.567 0.864,0 1.709,0.176 2.534,0.527 l -0.432,0.988 c -0.807,-0.331 -1.536,-0.498 -2.19,-0.498 -0.576,0 -1.011,0.091 -1.304,0.271 -0.293,0.18 -0.439,0.43 -0.439,0.747 0,0.215 0.055,0.398 0.165,0.55 0.109,0.151 0.286,0.295 0.53,0.432 0.244,0.137 0.713,0.335 1.406,0.594 0.953,0.347 1.596,0.695 1.931,1.047 0.334,0.353 0.501,0.795 0.501,1.327 z"
         id="path1586" />
      <path class="st4"
         d="m 676.668,54.509 v 0.77 l -1.487,0.176 c 0.137,0.171 0.259,0.394 0.366,0.67 0.107,0.275 0.161,0.587 0.161,0.934 0,0.786 -0.269,1.414 -0.806,1.883 -0.537,0.469 -1.274,0.703 -2.212,0.703 -0.239,0 -0.464,-0.02 -0.674,-0.059 -0.518,0.273 -0.776,0.617 -0.776,1.032 0,0.22 0.09,0.382 0.271,0.487 0.18,0.104 0.49,0.157 0.93,0.157 h 1.421 c 0.869,0 1.537,0.183 2.003,0.55 0.467,0.365 0.699,0.897 0.699,1.596 0,0.889 -0.356,1.566 -1.068,2.033 -0.714,0.466 -1.754,0.699 -3.121,0.699 -1.05,0 -1.858,-0.195 -2.428,-0.586 -0.568,-0.391 -0.854,-0.942 -0.854,-1.655 0,-0.488 0.156,-0.911 0.469,-1.267 0.312,-0.356 0.752,-0.599 1.318,-0.726 -0.205,-0.093 -0.377,-0.236 -0.516,-0.433 -0.14,-0.194 -0.209,-0.422 -0.209,-0.681 0,-0.293 0.078,-0.55 0.234,-0.769 0.156,-0.221 0.402,-0.433 0.74,-0.638 -0.416,-0.171 -0.754,-0.462 -1.015,-0.872 -0.262,-0.41 -0.392,-0.879 -0.392,-1.406 0,-0.879 0.264,-1.556 0.791,-2.032 0.527,-0.476 1.273,-0.714 2.24,-0.714 0.42,0 0.799,0.049 1.136,0.146 h 2.779 z m -6.402,9.375 c 0,0.435 0.184,0.764 0.55,0.988 0.366,0.224 0.891,0.338 1.575,0.338 1.02,0 1.775,-0.153 2.267,-0.458 0.49,-0.306 0.735,-0.72 0.735,-1.241 0,-0.436 -0.134,-0.736 -0.402,-0.905 -0.269,-0.168 -0.774,-0.253 -1.516,-0.253 h -1.458 c -0.552,0 -0.981,0.133 -1.289,0.396 -0.308,0.263 -0.462,0.642 -0.462,1.135 z m 0.66,-6.804 c 0,0.562 0.158,0.987 0.476,1.275 0.318,0.288 0.759,0.432 1.325,0.432 1.188,0 1.78,-0.576 1.78,-1.729 0,-1.206 -0.601,-1.809 -1.802,-1.809 -0.571,0 -1.011,0.153 -1.318,0.461 -0.307,0.308 -0.461,0.765 -0.461,1.37 z"
         id="path1588" />
      <path class="st4"
         d="m 681.706,62.683 c -1.186,0 -2.122,-0.361 -2.809,-1.084 -0.686,-0.723 -1.029,-1.726 -1.029,-3.01 0,-1.294 0.319,-2.322 0.956,-3.084 0.638,-0.762 1.493,-1.143 2.567,-1.143 1.006,0 1.802,0.331 2.388,0.992 0.586,0.662 0.879,1.535 0.879,2.619 v 0.769 h -5.53 c 0.024,0.942 0.263,1.658 0.715,2.146 0.451,0.489 1.088,0.732 1.908,0.732 0.863,0 1.718,-0.18 2.562,-0.541 v 1.084 c -0.43,0.186 -0.836,0.318 -1.219,0.398 -0.383,0.082 -0.845,0.122 -1.388,0.122 z m -0.329,-7.302 c -0.645,0 -1.158,0.211 -1.542,0.631 -0.383,0.42 -0.609,1.001 -0.678,1.742 h 4.197 c 0,-0.766 -0.171,-1.354 -0.513,-1.761 -0.341,-0.408 -0.829,-0.612 -1.464,-0.612 z"
         id="path1590" />
      <path class="st4" d="M 687.946,62.537 H 686.73 V 51.14 h 1.216 z" id="path1592" />
      <path class="st4"
         d="m 695.988,61.461 h -0.065 c -0.562,0.815 -1.402,1.223 -2.52,1.223 -1.051,0 -1.867,-0.359 -2.45,-1.076 -0.584,-0.719 -0.876,-1.738 -0.876,-3.062 0,-1.322 0.293,-2.351 0.879,-3.083 0.586,-0.732 1.401,-1.099 2.447,-1.099 1.088,0 1.923,0.396 2.504,1.187 h 0.096 l -0.051,-0.579 -0.029,-0.563 V 51.14 h 1.215 v 11.396 h -0.988 z m -2.431,0.205 c 0.83,0 1.432,-0.227 1.806,-0.678 0.373,-0.452 0.561,-1.181 0.561,-2.187 v -0.257 c 0,-1.137 -0.189,-1.949 -0.568,-2.435 -0.378,-0.486 -0.982,-0.729 -1.812,-0.729 -0.713,0 -1.259,0.277 -1.637,0.832 -0.379,0.554 -0.568,1.336 -0.568,2.348 0,1.025 0.188,1.799 0.564,2.321 0.376,0.522 0.926,0.785 1.654,0.785 z"
         id="path1594" />
      <path class="st4"
         d="m 703.107,62.683 c -1.186,0 -2.122,-0.361 -2.809,-1.084 -0.686,-0.723 -1.029,-1.726 -1.029,-3.01 0,-1.294 0.319,-2.322 0.956,-3.084 0.638,-0.762 1.493,-1.143 2.567,-1.143 1.006,0 1.802,0.331 2.388,0.992 0.586,0.662 0.879,1.535 0.879,2.619 v 0.769 h -5.53 c 0.024,0.942 0.263,1.658 0.715,2.146 0.451,0.489 1.088,0.732 1.908,0.732 0.863,0 1.718,-0.18 2.562,-0.541 v 1.084 c -0.43,0.186 -0.836,0.318 -1.219,0.398 -0.383,0.082 -0.845,0.122 -1.388,0.122 z m -0.329,-7.302 c -0.645,0 -1.158,0.211 -1.542,0.631 -0.383,0.42 -0.609,1.001 -0.678,1.742 h 4.197 c 0,-0.766 -0.171,-1.354 -0.513,-1.761 -0.341,-0.408 -0.829,-0.612 -1.464,-0.612 z"
         id="path1596" />
      <path class="st4"
         d="m 711.795,54.363 c 0.356,0 0.676,0.029 0.959,0.088 l -0.168,1.128 c -0.332,-0.073 -0.625,-0.11 -0.879,-0.11 -0.649,0 -1.205,0.264 -1.666,0.791 -0.462,0.527 -0.692,1.185 -0.692,1.971 v 4.307 h -1.216 v -8.027 h 1.004 l 0.139,1.486 h 0.059 c 0.298,-0.521 0.656,-0.925 1.076,-1.208 0.42,-0.283 0.881,-0.426 1.384,-0.426 z"
         id="path1598" />
   </g>


   <g id="g1854">
      <path class="st1"
         d="M58.196,87.446c3.332,2.057,4.768,6.121,5.65,9.936c0.51,2.203,0.915,4.43,1.16,6.677   c0.44,4.043,0.359,8.134,0.92,12.161c0.943,6.768,3.664,13.14,6.358,19.418c0.576,0.22,1.204-0.346,1.302-0.955   c0.099-0.608-0.154-1.212-0.373-1.788c-0.873-2.297-1.281-4.741-1.992-7.093c-0.684-2.264-1.648-4.44-2.268-6.723   c-0.637-2.349-0.902-4.779-1.229-7.192c-0.526-3.875-1.219-7.725-1.912-11.575c-0.38-2.109-0.767-4.242-1.641-6.2   c-1.038-2.325-2.759-4.341-4.894-5.73"
         id="path1708" />
      <path class="st1"
         d="M37.333,127.222c3.001,1.235,6.221,1.939,9.464,2.069c1.474,0.06,2.954,0.001,4.422,0.149   c1.367,0.137,2.71,0.452,4.065,0.678c0.833,0.137,1.689,0.249,2.441,0.632c1.277,0.653,2.045,1.975,2.742,3.229   c-0.371-1.796-0.598-3.621-0.679-5.453c-0.029-0.649-0.082-1.388-0.595-1.787c-0.415-0.324-1.008-0.305-1.513-0.154   c-0.505,0.151-0.973,0.414-1.485,0.54c-1.009,0.25-2.077-0.056-3.109,0.072c-0.642,0.079-1.253,0.324-1.891,0.432   c-0.721,0.123-1.462,0.068-2.188,0.159c-0.504,0.064-0.997,0.197-1.501,0.259c-1.929,0.238-3.809-0.575-5.655-1.181   c-1.515-0.498-3.069-0.864-4.621-1.229c-0.207,0.514-0.135,1.131,0.184,1.583"
         id="path1710" />
      <path class="st1"
         d="M35.54,135.172c1.315,0.277,2.712,0.151,3.956-0.355c0.54-0.221,1.071-0.53,1.383-1.022   c0.241-0.38,0.33-0.839,0.335-1.287c0.009-0.677-0.165-1.354-0.498-1.941c-0.327,0.8-0.785,1.663-1.61,1.925   c-0.482,0.155-1.003,0.071-1.501-0.014c-0.327-0.057-0.653-0.113-0.98-0.168c-0.103-0.018-0.219-0.033-0.303,0.028   c-0.072,0.052-0.1,0.143-0.124,0.228c-0.231,0.809-0.461,1.619-0.692,2.429"
         id="path1712" />
      <path class="st1"
         d="M43.196,94.797c0.494,0.625,1.118,1.147,1.82,1.523c0.306,0.164,0.665,0.304,0.996,0.196   c0.207-0.068,0.372-0.224,0.525-0.378c0.593-0.596,1.139-1.238,1.631-1.92c0.108-0.15,0.243-0.318,0.428-0.318   c0.115,0,0.218,0.066,0.312,0.131c0.625,0.438,1.204,0.944,1.72,1.506c0.292,0.318,0.641,0.685,1.068,0.631   c0.211-0.025,0.393-0.153,0.561-0.283c1.231-0.944,2.239-2.178,2.919-3.573c0.382-0.785,0.673-1.613,1.16-2.341   c0.457-0.683,0.686-1.178,0.094-1.888c-0.206-0.248-0.445-0.47-0.619-0.741c-0.278-0.431-0.386-0.976-0.758-1.327   c-0.274-0.258-0.649-0.371-1.01-0.477c-0.313-0.092-0.627-0.182-0.94-0.274c-0.161,0.499,0.235,0.986,0.563,1.394   c0.424,0.529,0.778,1.108,1.131,1.685c0.323,0.53,0.346,0.859,0.057,1.38c-0.299,0.539-0.568,1.088-0.898,1.61   c-0.645,1.019-1.4,1.969-2.249,2.826c-0.699-0.843-1.489-1.612-2.351-2.289c-0.191-0.149-0.396-0.299-0.636-0.334   c-0.503-0.075-0.935,0.378-1.141,0.844c-0.206,0.466-0.294,0.993-0.608,1.395c-0.636,0.815-1.865,0.759-2.891,0.626   c-0.25-0.033-0.518-0.074-0.701-0.247"
         id="path1714" />
      <path class="st1"
         d="M35.783,118.282c0.874,0.215,1.81-0.114,2.523-0.663c0.713-0.548,1.242-1.295,1.754-2.035   c1.348-1.946,2.672-3.952,3.386-6.209c0.934-2.949,0.773-6.156,1.047-9.175c0.179-1.963,0.132-3.93-0.056-5.892   c-0.018-0.192-0.009-0.406-0.096-0.586c-0.089-0.187-0.266-0.313-0.43-0.44c-1.116-0.872-1.838-2.142-2.531-3.378   c0.007,3.178-0.586,6.323-0.88,9.488c-0.24,2.58-0.281,5.176-0.222,7.767c0.022,0.971,0.051,1.978-0.341,2.865   c-0.431,0.975-1.317,1.672-2.234,2.215c-0.917,0.544-1.904,0.981-2.738,1.645c0.422,1.544,0.687,3.131,0.788,4.729"
         id="path1716" />
      <path class="st1"
         d="M17.868,109.142c1.03-0.47,2.269,0.255,2.841,1.231c0.573,0.978,0.69,2.144,0.968,3.242   c0.79,3.113,2.892,5.001,4.938,7.478c2.349,2.846,4.831,5.822,7.803,8.01c0.193,0.143,0.309,0.888,0.548,0.873   c0.225-0.013,0.415-0.164,0.588-0.309c0.55-0.461,1.101-0.921,1.651-1.381c-4.274-4.107-8.119-8.659-11.455-13.558   c-0.312-0.459-0.626-0.934-0.747-1.475c-0.224-0.998,0.251-2.032,0.904-2.819c-2.149-1.61-3.872-3.783-4.949-6.243   c-1.401,1.189-2.433,2.805-2.923,4.577"
         id="path1718" />
      <path class="st1"
         d="M70.874,217.074c0.68-0.027,1.368,0.193,1.905,0.61c0.283,0.221,0.54,0.53,0.541,0.889   c0,0.379-0.295,0.709-0.641,0.865c-0.346,0.157-0.736,0.175-1.115,0.191c-1.211,0.05-2.422,0.102-3.633,0.153   c-0.084,0.004-0.173,0.01-0.238,0.063c-0.159,0.131-0.021,0.392,0.145,0.515c0.352,0.261,0.797,0.352,1.228,0.432   c2.641,0.49,5.312,0.816,7.994,0.974c0.556,0.034,1.122,0.059,1.667-0.06c0.41-0.089,0.797-0.258,1.183-0.425   c0.318-0.14,0.677-0.324,0.751-0.664c0.039-0.179-0.013-0.364-0.089-0.53c-0.344-0.757-1.134-1.191-1.872-1.574   c-1.066-0.551-2.132-1.103-3.198-1.655c-0.367-0.19-0.758-0.386-1.17-0.355c-0.875,0.064-1.68,1.11-2.441,0.674"
         id="path1720" />
      <path class="st1"
         d="M34.096,219.995c0.323,0.454,0.903,0.673,1.46,0.68c0.557,0.007,1.099-0.172,1.617-0.378   c1.672-0.668,3.232-1.675,4.39-3.054c0.101-0.121,0.211-0.253,0.365-0.289c0.317-0.074,0.557,0.28,0.68,0.582   c0.401,0.98,0.692,2.004,0.866,3.047c0.029,0.172,0.054,0.35,0.014,0.52c-0.054,0.222-0.212,0.402-0.366,0.572   c-0.484,0.533-0.987,1.083-1.647,1.373c-0.825,0.363-1.789,0.273-2.661,0.212c-1.119-0.079-2.24-0.183-3.33-0.45   c-0.23-0.056-0.452-0.133-0.657-0.252c-0.761-0.437-1.131-1.451-0.834-2.276"
         id="path1722" />
      <path class="st1"
         d="M34.967,165.83c-0.391,1.256-0.7,2.836,0.284,3.709c0.463,0.411,1.105,0.54,1.714,0.655l3.402,0.639   c1.826,3.756,1.254,8.166,1.001,12.334c-0.615,10.188,0.936,20.495-1.795,30.517c-0.444,1.631-0.042,3.496,1.279,4.551   c0.007,0.006,0.014,0.011,0.021,0.017c0.298,0.211,0.718-0.018,0.941-0.306c0.736-0.948,0.447-2.295,0.269-3.482   c-0.332-2.212-0.144-4.466,0.037-6.696c1.141-14.084,1.961-28.193,2.458-42.314c-3.294-0.341-6.621-0.37-9.921-0.086"
         id="path1724" />
      <path class="st1"
         d="M51.799,165.665c0.499,0.781,0.104,1.935,0.69,2.653c0.224,0.276,0.56,0.437,0.902,0.535   c1.051,0.3,2.168,0.067,3.257-0.029c1.088-0.096,2.307-0.001,3.073,0.779c0.653,0.664,0.811,1.656,0.937,2.58   c0.901,6.609,1.803,13.234,1.971,19.903c0.139,5.517-0.001,11.038,1.293,16.404c0.269,1.117,0.477,2.719,1.07,3.703   c0.822,1.366,1.994,2.003,3.221,3.021c0.71,0.59,1.438,1.189,2.304,1.508c0.866,0.318,1.911,0.306,2.635-0.266   c-1.802-1.104-3.56-2.281-5.269-3.525c-0.56-0.409-1.126-0.837-1.501-1.419c-0.461-0.718-0.585-1.595-0.697-2.441   c-0.244-1.839-0.489-3.677-0.634-5.527c-0.247-3.144-0.209-6.302-0.325-9.453c-0.076-2.055-0.219-4.107-0.362-6.157   c-0.161-2.325-0.322-4.648-0.484-6.971c-0.325-4.677-0.65-9.361-1.365-13.993c-0.045-0.292-0.104-0.607-0.322-0.805   c-0.191-0.174-0.464-0.22-0.721-0.245c-3.153-0.318-6.596,1.109-9.37-0.422"
         id="path1726" />
      <path class="st1"
         d="M59.919,165.861c0.162-0.882,0.206-1.781,0.247-2.677c0.516-11.322,1.523-21.205-1.156-32.218   c-0.549-2.257-1.252-18.873-0.603-18.488c0.154,8.656,3.097,16.978,5.178,25.381c2.148,8.678,3.394,17.579,3.709,26.513   c0.012,0.327,0.002,0.704-0.25,0.912c-0.181,0.149-0.433,0.166-0.667,0.175c-2.252,0.09-4.505,0.18-6.757,0.27"
         id="path1728" />
      <path class="st1"
         d="M43.543,83.848c0.998,0.48,2.077,0.79,3.177,0.913c0.595,0.066,1.197,0.078,1.795,0.041   c1.051-0.065,2.087-0.28,3.118-0.495c0.105-0.022,0.219-0.049,0.284-0.135c0.075-0.099,0.055-0.24,0.028-0.363   c-0.096-0.442-0.228-0.878-0.393-1.3c-2.197,0.886-4.744,0.87-6.93-0.044c-0.392-0.164-0.932-0.318-1.171,0.033"
         id="path1730" />
      <path class="st1"
         d="M49.112,91.813c1.11-0.475,1.83-1.64,2.971-2.035c0.073-0.026,0.152-0.048,0.229-0.039   c0.097,0.011,0.182,0.067,0.261,0.124c0.473,0.33,0.931,0.68,1.372,1.051c0.21-0.283,0.407-0.575,0.592-0.874   c0.066-0.107,0.131-0.219,0.15-0.343c0.023-0.158-0.033-0.317-0.091-0.465c-0.476-1.218-1.183-2.345-2.073-3.303   c-0.049-0.052-0.101-0.105-0.17-0.122c-0.171-0.041-0.295,0.155-0.361,0.318c-0.408,0.995-0.883,2.006-1.702,2.703   c-0.323,0.275-0.699,0.501-0.954,0.84c-0.231,0.309-0.366,0.713-0.698,0.91c-0.074,0.044-0.163,0.082-0.194,0.162   c-0.027,0.068-0.002,0.145,0.025,0.213c0.091,0.216,0.224,0.417,0.39,0.584"
         id="path1732" />
      <path class="st1"
         d="M40.905,88.809c0.592-0.307,1.312-0.289,1.946-0.085c0.636,0.203,1.201,0.575,1.745,0.961   c0.669,0.475,1.318,0.977,1.966,1.478c0.317,0.246,0.635,0.491,0.951,0.737c0.214-0.35,0.428-0.699,0.642-1.048   c-0.391-0.379-0.85-0.68-1.272-1.023c-1.427-1.16-2.402-2.768-3.348-4.343c-0.924,0.699-2.07,1.079-2.936,1.847   c-0.051,0.046-0.104,0.096-0.123,0.162c-0.019,0.066-0.001,0.136,0.017,0.203c0.131,0.492,0.263,0.983,0.394,1.474"
         id="path1734" />
      <path class="st1"
         d="M57.151,86.836c-1.08-1.22-0.556-1.112-0.304-2.584c0.227-1.322,0.561-2.621,1.026-3.88   c1.38-3.739,1.858-7.71,2.297-11.658c0.068-0.61,0.061-1.228-0.021-1.837c-0.922-6.822-1.419-8.906-4.598-12.26   c-0.319,0.623-0.765,1.182-1.302,1.633c1.45,1.501,2.955,3.097,3.482,5.117c0.22,0.842,0.257,1.72,0.293,2.589   c0.117,2.83,0.234,5.679-0.177,8.482c-0.291,1.991-0.849,3.944-1.654,5.79c-0.513,1.177-1.2,2.384-2.358,2.943   c-0.354,0.171-0.751,0.28-1.038,0.55c-0.289,0.274-0.422,0.678-0.468,1.075c-0.202,1.742-0.502,1.839,0.78,3.035   c0.307,0.287,2.174,0.398,2.562,0.562c0.723,0.305,1.769-0.052,1.991,0.701"
         id="path1736" />
      <path class="st1"
         d="M33.668,114.256c-0.513,0.207-1.113-0.171-1.343-0.675c-0.229-0.504-0.185-1.084-0.124-1.635   c0.375-3.402,3.484-5.673,4.178-9.025c1.555-7.516,0.191-16.208,1.163-23.821c0.278-2.186,0.879-4.29,1.204-6.448   c0.238-1.58,0.584-3.146,1.148-4.64c0.865-2.291,2.025-4.584,3.747-6.38c2.022-2.108,4.707-3.43,7.334-4.708   c0.983-0.479,1.966-0.958,2.949-1.437c0.358-0.173,0.774-0.349,1.137-0.187c-0.031,0.767-0.561,1.437-1.199,1.863   c-0.638,0.425-1.382,0.654-2.099,0.925c-4.277,1.617-7.861,4.988-9.738,9.158c-0.285,0.635-0.393,1.335-0.38,2.031   c0.246,13.256-0.357,26.528-1.802,39.707c-0.106,0.959-0.229,1.958-0.761,2.762c-0.831,1.256-2.42,1.724-3.878,2.101   c-0.716,0.184-1.432,0.37-2.148,0.555"
         id="path1738" />
      <path class="st3"
         d="M35.159,113.658c0.856,5.063,1.962,10.913,1.938,15.583c-3.759,11.523-6.33,35.815-6.33,35.815l36.132,0.6   c0.96-11.99-3.223-27.962-6.339-37.677c0,0-2.408-10.375-2.075-15.877c0,0,3.646-0.664,0.834-7.337   c-2.559-6.073-1.751-8.669-1.751-8.669"
         id="path1740" />
      <path class="st3" d="M52.136,85.078c-0.073-3.141-0.107-0.032-0.179-3.173" id="path1742" />
      <line class="st3" x1="43.71" y1="81.6" x2="43.71" y2="85.078" id="line1744" />
      <path class="st3"
         d="M68.279,212.928c3.377,1.932,5.862,3.297,9.291,4.593c1.406,0.531,3.953,1.68,3.076,2.901   c-1.893,2.633-12.697,0.219-16.449-1.359c-0.984-0.413-1.99-0.854-2.741-1.613c-0.752-0.757-1.052-1.797-0.821-2.917l0.408-2.367"
         id="path1746" />
      <path class="st3"
         d="M44.618,165.467c-0.328,5.886-0.67,11.993-0.943,17.557c-0.487,9.918-1.275,21.299-1.982,29.452   c0,0,0.352,2.348,0.679,3.824c0,0-1.26,2.146-3.627,2.166c-2.523,0.022-3.502-2.592-3.502-2.592l1.097-3.315   c0,0-1.59-37.89-1.595-40.334c-0.005-2.112,0.027-4.392,0.08-6.757"
         id="path1748" />
      <path class="st3"
         d="M41.917,80.23c1.567,1.547,3.719,2.513,5.925,2.571c3.038,0.08,6.064-1.562,7.652-4.153   c0.673-1.098,1.093-2.33,1.437-3.571c1.135-4.096,1.483-8.409,1.018-12.634c0,0-0.25-3.309-3.561-6.168"
         id="path1750" />
      <path class="st7"
         d="M46.738,67.042c0,0.308-0.25,0.558-0.558,0.558c-0.309,0-0.558-0.25-0.558-0.558   c0-0.309,0.249-0.559,0.558-0.559C46.488,66.483,46.738,66.733,46.738,67.042"
         id="path1752" />
      <path class="st3"
         d="M46.738,67.042c0,0.308-0.25,0.558-0.558,0.558c-0.309,0-0.558-0.25-0.558-0.558   c0-0.309,0.249-0.559,0.558-0.559C46.488,66.483,46.738,66.733,46.738,67.042z"
         id="path1754" />
      <path class="st7"
         d="M54.861,67.042c0,0.308-0.25,0.558-0.558,0.558c-0.308,0-0.558-0.25-0.558-0.558   c0-0.309,0.25-0.559,0.558-0.559C54.611,66.483,54.861,66.733,54.861,67.042"
         id="path1756" />
      <path class="st3"
         d="M54.861,67.042c0,0.308-0.25,0.558-0.558,0.558c-0.308,0-0.558-0.25-0.558-0.558   c0-0.309,0.25-0.559,0.558-0.559C54.611,66.483,54.861,66.733,54.861,67.042z"
         id="path1758" />
      <path class="st3"
         d="M50.924,70.433c0.338,0.871,0.679,1.837,0.358,2.715c-0.076,0.207-0.192,0.406-0.369,0.538   c-0.227,0.171-0.525,0.209-0.809,0.23"
         id="path1760" />
      <path class="st3" d="M45.097,77.03c0.299,0.508,0.717,0.945,1.211,1.267c0.436,0.283,1.035,0.465,1.457,0.162"
         id="path1762" />
      <path class="st3"
         d="M35.08,216.197c0,0-2.663,4.779-0.713,6.027c1.949,1.249,10.418,1.473,9.115-2.451   c-0.598-1.803-1.062-3.353-1.062-3.353"
         id="path1764" />
      <path class="st3"
         d="M41.397,86.553c0.65-0.564,1.601-1.3,2.313-1.475c0,0,1.049,3.177,4.861,5.376l-2.639,3.959   c-2.691-1.218-4.035-3.434-4.69-5.082"
         id="path1766" />
      <path class="st3"
         d="M48.571,90.454c0,0,2.633-1.417,3.565-5.376c0,0,2.373,2.296,2.837,4.008c0,0-1.759,3.811-3.201,4.838   C51.772,93.924,48.853,91.569,48.571,90.454z"
         id="path1768" />
      <path class="st3"
         d="M40.217,107.618c-0.237,4.234-4.451,7.13-8.459,5.741c-4.915-1.703-10.451-5.135-11.483-12.016   c-1.511-10.079,6.547-8.693,6.11-13.658c-0.403-4.572-1.796-5.71-0.809-9.122c1.172-4.05,6.114-4.516,6.844-8.466   c0.98-5.297-3.733-13.84,7.382-19.825c7.639-4.111,15.844-0.837,16.294,3.112c0.227,1.995-3.227,4.366-7.307,6.26   c0,0-6.816,3.561-6.931,10.836v7.847L40.217,107.618z"
         id="path1770" />
      <path class="st3"
         d="M55.364,55.287c0,0,3.713,2.416,4.601,7.657c0.887,5.242-1.199,8.53,0.896,13.932   c3.054,7.878,3.98,18.235,3.98,18.235"
         id="path1772" />
      <path class="st3"
         d="M51.893,165.467c0.341,2.144,0.697,4.22,1.065,6.162c2.88,15.218,7.879,35.242,8.239,39.153   c0,0-0.5,3.37,0.932,4.04c1.432,0.67,9.163,2.825,11.941,1.993c0,0-6.662-4.469-8.2-5.481c0,0-1.578-24.958-3.251-45.668"
         id="path1774" />
      <path class="st0" d="M69.637,136.168c1.062,2.367,2.694,5.742,4.547,5.407c1.89-0.343-0.375-5.854-0.574-7.04"
         id="path1776" />
      <path class="st3" d="M69.637,136.168c1.062,2.367,2.694,5.742,4.547,5.407c1.89-0.343-0.375-5.854-0.574-7.04"
         id="path1778" />
      <path class="st3"
         d="M52.221,84.815c5.243,1.773,8.7,3.186,11.273,7.27c2.589,4.107,3.366,15.858,4.789,22.592   c1.023,4.844,5.327,19.858,5.327,19.858c-2.01,2.478-3.973,1.633-3.973,1.633c-2.159-3.001-8.434-17.016-9.751-25.145"
         id="path1780" />
      <path class="st0"
         d="M36.749,127.979c0,0,3.762,0.698,3.563,2.759c-0.146,1.53-1.663,1.551-2.763,1.532   c-0.422-0.007-0.839-0.09-1.253-0.17c-0.563-0.11-1.398-0.352-2.128-0.883L36.749,127.979z"
         id="path1782" />
      <path class="st3"
         d="M36.749,127.979c0,0,3.762,0.698,3.563,2.759c-0.146,1.53-1.663,1.551-2.763,1.532   c-0.422-0.007-0.839-0.09-1.253-0.17c-0.563-0.11-1.398-0.352-2.128-0.883L36.749,127.979z"
         id="path1784" />
      <path class="st3"
         d="M20.591,103.837c-1.204,2.062-2.146,3.895-2.611,5.07c-1.406,3.563-0.264,6.459,1.63,9.212   c1.925,2.799,9.192,8.979,14.558,13.099l2.581-3.238c0,0-8.596-9.349-11.834-13.747c-0.482-0.654-0.48-1.542-0.002-2.2   c0.279-0.383,0.627-0.855,1.038-1.4"
         id="path1786" />
      <path class="st3" d="M36.916,125.177c0,0,8.765,5.173,22.974,0.612" id="path1788" />
      <path class="st3" d="M38.624,217.978c0,0,3.46-0.559,2.485-2.139C40.135,214.261,38.624,217.978,38.624,217.978z"
         id="path1790" />
      <path class="st3" d="M38.624,217.978c0,0-2.953-1.888-1.431-2.95C38.715,213.966,38.624,217.978,38.624,217.978z"
         id="path1792" />
      <path class="st0"
         d="m 553.423,134.872 c 0,-13.34 10.869,-24.153 24.277,-24.153 13.408,0 24.277,10.813 24.277,24.153 0,13.339 -10.869,24.153 -24.277,24.153 -13.408,0 -24.277,-10.814 -24.277,-24.153"
         id="path1794" />
      <path class="st1"
         d="m 590.349,122.271 c 8.595,8.681 8.595,20.989 2.024,31.009 4.753,-3.187 7.931,-8.486 8.842,-14.114 0.911,-5.629 0.07,-11.566 -2.793,-16.506 -3.301,-5.697 -9.257,-10.173 -15.678,-11.727 -6.422,-1.555 -15.576,0.974 -20.481,5.119 7.771,-2.849 18.87,-3.088 28.086,6.219"
         id="path1796" />
      <ellipse class="st2" cx="577.70001" cy="134.87199" rx="24.277" ry="24.153" id="ellipse1798" />
      <line class="st3" x1="570.35797" y1="147.27699" x2="585.18903" y2="122.217" id="line1800" />
      <path class="st3"
         d="m 573.938,129.122 c 0,3.813 -2.129,6.904 -4.755,6.904 -2.625,0 -4.754,-3.091 -4.754,-6.904 0,-3.813 2.129,-6.904 4.754,-6.904 2.626,0 4.755,3.091 4.755,6.904 z"
         id="path1802" />
      <path class="st3"
         d="m 590.97,140.125 c 0,3.813 -2.128,6.904 -4.754,6.904 -2.626,0 -4.754,-3.091 -4.754,-6.904 0,-3.813 2.128,-6.904 4.754,-6.904 2.626,0 4.754,3.091 4.754,6.904 z"
         id="path1804" />
      <path class="st43" d="m 556.488,115.576 c -4.303,4.743 -7.039,10.912 -7.411,17.729" id="path1806" />
      <path class="st43" d="m 576.258,106.199 c -6.808,0.357 -12.979,3.058 -17.727,7.341" id="path1808" />
      <path class="st44" d="m 596.946,113.462 c -4.762,-4.309 -10.963,-7.021 -17.805,-7.362" id="path1810" />
      <path class="st44" d="m 606.36,133.261 c -0.351,-6.827 -3.079,-13.006 -7.376,-17.758" id="path1812" />
      <path class="st44" d="m 598.985,153.994 c 4.31,-4.763 7.034,-10.963 7.377,-17.805" id="path1814" />
      <path class="st44" d="m 579.141,163.394 c 6.843,-0.34 13.04,-3.057 17.803,-7.363" id="path1816" />
      <path class="st44" d="m 558.456,156.031 c 4.762,4.307 10.959,7.023 17.802,7.363" id="path1818" />
      <path class="st44" d="m 549.037,136.189 c 0.343,6.842 3.067,13.042 7.377,17.805" id="path1820" />
      <path class="st0"
         d="M420.981,134.5h26.413c1.522,0,2.755,1.233,2.755,2.755v50.825c0,1.522-1.233,2.755-2.755,2.755h-26.413   c-1.521,0-2.755-1.233-2.755-2.755v-50.825C418.226,135.733,419.46,134.5,420.981,134.5"
         id="path1822" />
      <path class="st2"
         d="M420.981,134.5h26.413c1.522,0,2.755,1.233,2.755,2.755v50.825c0,1.522-1.233,2.755-2.755,2.755h-26.413   c-1.521,0-2.755-1.233-2.755-2.755v-50.825C418.226,135.733,419.46,134.5,420.981,134.5z"
         id="path1824" />
      <polygon class="st1" points="450.157,170.097 419.895,181.77 449.895,181.661  " id="polygon1826" />
      <path class="st2"
         d="M420.981,134.5h26.413c1.522,0,2.755,1.233,2.755,2.755v50.825c0,1.522-1.233,2.755-2.755,2.755h-26.413   c-1.521,0-2.755-1.233-2.755-2.755v-50.825C418.226,135.733,419.46,134.5,420.981,134.5z"
         id="path1828" />
      <path class="st2"
         d="M432.221,186.151c0-1.086,0.881-1.967,1.967-1.967c1.087,0,1.968,0.881,1.968,1.967   c0,1.087-0.881,1.968-1.968,1.968C433.102,188.119,432.221,187.238,432.221,186.151z"
         id="path1830" />
      <path class="st7"
         d="M425.585,137.897c0-0.687,0.557-1.244,1.243-1.244c0.688,0,1.244,0.557,1.244,1.244   c0,0.687-0.556,1.244-1.244,1.244C426.142,139.141,425.585,138.584,425.585,137.897"
         id="path1832" />
      <line class="st3" x1="437.432" y1="137.897" x2="430.943" y2="137.897" id="line1834" />
      <line class="st2" x1="450.149" y1="181.945" x2="418.226" y2="181.945" id="line1836" />








   </g>



   <g id="g1948">

      <path class="st3" d="M188.73,77.384c-19.33,4.604-36.55,14.645-49.972,28.406" id="path1894" />
      <path class="st3" d="M286.721,105.79c-12.676-12.997-28.741-22.675-46.77-27.589" id="path1896" />

      <rect x="190.862" y="61.212" transform="matrix(0.9782 -0.2076 0.2076 0.9782 -10.3083 45.8714)" class="st0"
         width="44.986" height="21.656" id="rect1898" />

      <rect x="190.862" y="61.212" transform="matrix(0.9782 -0.2076 0.2076 0.9782 -10.3083 45.8714)" class="st3"
         width="44.986" height="21.656" id="rect1900" />
      <path class="st5"
         d="M204.175,62.919l0.77,3.629c-2.781,1.574-4.368,4.815-3.663,8.14c0.705,3.323,3.473,5.639,6.654,5.949   l0.735,3.466l26.194-5.561l-4.496-21.183L204.175,62.919z"
         id="path1902" />
      <path class="st3"
         d="M204.175,62.919l0.77,3.629c-2.781,1.574-4.368,4.815-3.663,8.14c0.705,3.323,3.473,5.639,6.654,5.949   l0.735,3.466l26.194-5.561l-4.496-21.183L204.175,62.919z"
         id="path1904" />
      <path class="st3"
         d="M222.327,65.584c-0.667-2.997-10.355-2.879-8.69,4.615l0.646,2.906c1.666,7.494,10.492,3.497,9.826,0.499"
         id="path1906" />
      <line class="st3" x1="218.771" y1="68.318" x2="210.439" y2="70.17" id="line1908" />
      <line class="st3" x1="219.77" y1="72.814" x2="211.437" y2="74.667" id="line1910" />

      <rect x="187.323" y="171.294" transform="matrix(0.9782 -0.2076 0.2076 0.9782 -33.2429 47.5359)" class="st0"
         width="44.986" height="21.655" id="rect1912" />

      <rect x="187.323" y="171.294" transform="matrix(0.9782 -0.2076 0.2076 0.9782 -33.2429 47.5359)" class="st3"
         width="44.986" height="21.655" id="rect1914" />
      <path class="st5"
         d="M200.637,173.001l0.77,3.629c-2.781,1.574-4.368,4.815-3.663,8.139c0.705,3.323,3.473,5.64,6.654,5.95   l0.735,3.466l26.194-5.561l-4.496-21.183L200.637,173.001z"
         id="path1916" />
      <path class="st3"
         d="M200.637,173.001l0.77,3.629c-2.781,1.574-4.368,4.815-3.663,8.139c0.705,3.323,3.473,5.64,6.654,5.95   l0.735,3.466l26.194-5.561l-4.496-21.183L200.637,173.001z"
         id="path1918" />

      <rect x="191.719" y="166.899" transform="matrix(0.9782 -0.2076 0.2076 0.9782 -32.2346 48.3528)" class="st0"
         width="44.986" height="21.655" id="rect1920" />

      <rect x="191.719" y="166.899" transform="matrix(0.9782 -0.2076 0.2076 0.9782 -32.2346 48.3528)" class="st3"
         width="44.986" height="21.655" id="rect1922" />
      <path class="st5"
         d="M205.032,168.606l0.77,3.628c-2.781,1.575-4.368,4.816-3.663,8.14c0.705,3.323,3.473,5.64,6.654,5.949   l0.735,3.466l26.194-5.56l-4.496-21.184L205.032,168.606z"
         id="path1924" />
      <path class="st3"
         d="M205.032,168.606l0.77,3.628c-2.781,1.575-4.368,4.816-3.663,8.14c0.705,3.323,3.473,5.64,6.654,5.949   l0.735,3.466l26.194-5.56l-4.496-21.184L205.032,168.606z"
         id="path1926" />

      <rect x="196.113" y="162.504" transform="matrix(0.9782 -0.2076 0.2076 0.9782 -31.2263 49.1695)" class="st0"
         width="44.986" height="21.656" id="rect1928" />

      <rect x="196.113" y="162.504" transform="matrix(0.9782 -0.2076 0.2076 0.9782 -31.2263 49.1695)" class="st3"
         width="44.986" height="21.656" id="rect1930" />
      <path class="st5"
         d="M209.427,164.211l0.771,3.629c-2.781,1.574-4.369,4.816-3.664,8.14c0.706,3.323,3.474,5.64,6.654,5.949   l0.736,3.466l26.193-5.561l-4.496-21.183L209.427,164.211z"
         id="path1932" />
      <path class="st3"
         d="M209.427,164.211l0.771,3.629c-2.781,1.574-4.369,4.816-3.664,8.14c0.706,3.323,3.474,5.64,6.654,5.949   l0.736,3.466l26.193-5.561l-4.496-21.183L209.427,164.211z"
         id="path1934" />
      <path class="st3"
         d="M227.579,166.877c-0.667-2.998-10.355-2.88-8.689,4.614l0.645,2.906c1.666,7.494,10.493,3.497,9.826,0.499"
         id="path1936" />
      <line class="st3" x1="224.022" y1="169.61" x2="215.69" y2="171.462" id="line1938" />
      <line class="st3" x1="225.022" y1="174.106" x2="216.69" y2="175.959" id="line1940" />
      <path class="st0"
         d="M441.523,165.337H426.86c-0.739,0-1.339-0.599-1.339-1.338v-14.663c0-0.739,0.6-1.338,1.339-1.338h14.663   c0.738,0,1.338,0.599,1.338,1.338v14.663C442.861,164.738,442.261,165.337,441.523,165.337"
         id="path1942" />
      <path class="st2"
         d="M441.523,165.337H426.86c-0.739,0-1.339-0.599-1.339-1.338v-14.663c0-0.739,0.6-1.338,1.339-1.338h14.663   c0.738,0,1.338,0.599,1.338,1.338v14.663C442.861,164.738,442.261,165.337,441.523,165.337z"
         id="path1944" />

   </g>
</svg>