<svg xmlns="http://www.w3.org/2000/svg" xmlns:xlink="http://www.w3.org/1999/xlink" version="1.1" baseProfile="basic" x="0px" y="0px" width="320px" height="366.09px" viewBox="0 0 320 366.09" xml:space="preserve">
	<style type="text/css">
	.st0{fill:none;}
	.st1{fill:#F3F7FC;}
	.st2{fill:#A1C4E7;}
	.st3{fill:none;stroke:#F3F7FC;stroke-width:0;stroke-linecap:round;stroke-linejoin:round;}
	.st4{fill:#FFFFFF;}
	.st5{fill:#D0E2F3;}
	.st6{fill:none;stroke:#004B8C;stroke-miterlimit:10;}
	.st7{fill:none;stroke:#004B8C;stroke-linecap:round;stroke-linejoin:round;stroke-miterlimit:10;}
	.st8{fill:#404040;}
	.st9{fill:#E8F0F9;}
	.st10{fill-rule:evenodd;clip-rule:evenodd;fill:#FFFFFF;}
	.st11{fill:none;stroke:#BFCCD4;stroke-linecap:round;stroke-miterlimit:10;}
	.st12{fill:none;stroke:#D7D7D7;stroke-linecap:round;stroke-miterlimit:10;}
	.st13{fill:#FFFFFF;stroke:#004B8C;stroke-linecap:round;stroke-linejoin:round;stroke-miterlimit:10;}
	.st14{fill:#004B8C;stroke:#004B8C;stroke-linecap:round;stroke-linejoin:round;stroke-miterlimit:10;}
	.st15{fill:#004B8C;}
	.st16{clip-path:url(#SVGID_2_);fill:#D0E2F3;}
	.st17{fill:#929292;}
	.st18{fill:#922C1C;}
	.st19{fill:#E6411A;}
	.st20{fill:#003554;}
	.st21{fill:none;stroke:#FFFFFF;stroke-linecap:round;stroke-linejoin:round;stroke-miterlimit:10;}
	.st22{fill:none;stroke:#3A8DFF;stroke-linecap:round;stroke-linejoin:round;stroke-miterlimit:10;}
	.st23{fill:#3A8DFF;stroke:#004B8C;stroke-linecap:round;stroke-linejoin:round;stroke-miterlimit:10;}
	.st24{opacity:0.2;fill:#156CC4;}
	.st25{fill:#D0E2F3;stroke:#004B8C;stroke-linecap:round;stroke-linejoin:round;stroke-miterlimit:10;}
	.st26{fill:none;stroke:#D0E2F3;stroke-linecap:round;stroke-miterlimit:10;}
	.st27{fill:none;stroke:#004B8C;stroke-width:0.5;stroke-linecap:round;stroke-linejoin:round;stroke-miterlimit:10;}
	.st28{fill:none;stroke:#004B8C;stroke-width:1.75;stroke-linecap:round;stroke-linejoin:round;stroke-miterlimit:10;}
	.st29{fill:#FFFFFF;stroke:#004B8C;stroke-miterlimit:10;}
	.st30{fill:none;stroke:#004B8C;stroke-linecap:round;stroke-miterlimit:10;}
	.st31{fill:#E8F0F9;stroke:#004B8C;stroke-linecap:round;stroke-linejoin:round;stroke-miterlimit:10;}
</style>
	<g id="Karte"></g>
	<g id="Grafik">
		<g>
			<path class="st8" d="M53.815,158.302c0,0.943-0.342,1.678-1.025,2.205s-1.611,0.791-2.783,0.791c-1.27,0-2.246-0.163-2.93-0.49    v-1.201c0.439,0.186,0.918,0.332,1.436,0.439s1.03,0.16,1.538,0.16c0.83,0,1.455-0.157,1.875-0.472    c0.42-0.315,0.63-0.753,0.63-1.315c0-0.37-0.075-0.675-0.224-0.911c-0.149-0.237-0.398-0.455-0.747-0.655s-0.88-0.428-1.593-0.682    c-0.996-0.356-1.708-0.778-2.135-1.268c-0.428-0.487-0.641-1.125-0.641-1.911c0-0.825,0.31-1.481,0.93-1.97    s1.44-0.732,2.461-0.732c1.064,0,2.043,0.195,2.937,0.586l-0.388,1.084c-0.884-0.371-1.743-0.557-2.578-0.557    c-0.659,0-1.174,0.142-1.545,0.424c-0.371,0.284-0.557,0.677-0.557,1.18c0,0.371,0.068,0.675,0.205,0.912    c0.137,0.236,0.367,0.454,0.692,0.651c0.325,0.198,0.822,0.417,1.491,0.655c1.123,0.401,1.896,0.831,2.318,1.289    C53.604,156.975,53.815,157.57,53.815,158.302z" />
			<path class="st8" d="M58.415,160.294c0.215,0,0.422-0.016,0.623-0.047c0.2-0.032,0.359-0.064,0.476-0.1v0.931    c-0.132,0.063-0.326,0.116-0.582,0.157c-0.257,0.042-0.487,0.062-0.692,0.062c-1.553,0-2.329-0.817-2.329-2.453v-4.775h-1.15    v-0.586l1.15-0.506l0.513-1.714h0.703v1.86h2.329v0.945h-2.329v4.724c0,0.483,0.115,0.854,0.344,1.113    S58.014,160.294,58.415,160.294z" />
			<path class="st8" d="M66.054,161.152l-0.242-1.143h-0.059c-0.4,0.503-0.8,0.844-1.198,1.021c-0.398,0.179-0.895,0.268-1.49,0.268    c-0.796,0-1.42-0.205-1.871-0.615c-0.452-0.41-0.678-0.993-0.678-1.75c0-1.621,1.296-2.471,3.889-2.549l1.362-0.045v-0.498    c0-0.629-0.135-1.095-0.407-1.395c-0.271-0.301-0.704-0.451-1.3-0.451c-0.669,0-1.426,0.205-2.271,0.615l-0.374-0.93    c0.396-0.215,0.829-0.383,1.3-0.506c0.471-0.121,0.943-0.183,1.417-0.183c0.957,0,1.666,0.212,2.128,0.638    c0.461,0.424,0.692,1.105,0.692,2.043v5.479H66.054z M63.307,160.294c0.757,0,1.351-0.207,1.784-0.622    c0.432-0.415,0.648-0.996,0.648-1.743v-0.725l-1.216,0.051c-0.967,0.034-1.664,0.185-2.091,0.45    c-0.427,0.267-0.641,0.681-0.641,1.241c0,0.439,0.133,0.774,0.399,1.004C62.456,160.18,62.829,160.294,63.307,160.294z" />
			<path class="st8" d="M74.396,161.152l-0.242-1.143h-0.059c-0.4,0.503-0.8,0.844-1.198,1.021c-0.398,0.179-0.895,0.268-1.49,0.268    c-0.796,0-1.42-0.205-1.871-0.615c-0.452-0.41-0.678-0.993-0.678-1.75c0-1.621,1.296-2.471,3.889-2.549l1.362-0.045v-0.498    c0-0.629-0.135-1.095-0.407-1.395c-0.271-0.301-0.704-0.451-1.3-0.451c-0.669,0-1.426,0.205-2.271,0.615l-0.374-0.93    c0.396-0.215,0.829-0.383,1.3-0.506c0.471-0.121,0.943-0.183,1.417-0.183c0.957,0,1.666,0.212,2.128,0.638    c0.461,0.424,0.692,1.105,0.692,2.043v5.479H74.396z M71.649,160.294c0.757,0,1.351-0.207,1.784-0.622    c0.432-0.415,0.648-0.996,0.648-1.743v-0.725l-1.216,0.051c-0.967,0.034-1.664,0.185-2.091,0.45    c-0.427,0.267-0.641,0.681-0.641,1.241c0,0.439,0.133,0.774,0.399,1.004C70.798,160.18,71.171,160.294,71.649,160.294z" />
			<path class="st8" d="M80.395,160.294c0.215,0,0.422-0.016,0.623-0.047c0.2-0.032,0.359-0.064,0.476-0.1v0.931    c-0.132,0.063-0.326,0.116-0.582,0.157c-0.257,0.042-0.487,0.062-0.692,0.062c-1.553,0-2.329-0.817-2.329-2.453v-4.775h-1.15    v-0.586l1.15-0.506l0.513-1.714h0.703v1.86h2.329v0.945h-2.329v4.724c0,0.483,0.115,0.854,0.344,1.113    S79.994,160.294,80.395,160.294z" />
			<path class="st8" d="M84.313,161.152h-1.216v-11.396h1.216V161.152z" />
			<path class="st8" d="M86.789,150.949c0-0.277,0.068-0.481,0.205-0.611c0.137-0.129,0.308-0.193,0.513-0.193    c0.195,0,0.364,0.065,0.505,0.197s0.212,0.335,0.212,0.607c0,0.274-0.071,0.478-0.212,0.612c-0.142,0.134-0.31,0.201-0.505,0.201    c-0.205,0-0.376-0.067-0.513-0.201C86.857,151.426,86.789,151.223,86.789,150.949z M88.107,161.152h-1.216v-8.027h1.216V161.152z" />
			<path class="st8" d="M93.893,161.298c-1.162,0-2.062-0.357-2.699-1.073c-0.637-0.715-0.956-1.727-0.956-3.036    c0-1.342,0.323-2.38,0.97-3.112s1.569-1.099,2.765-1.099c0.386,0,0.771,0.042,1.157,0.125s0.688,0.181,0.908,0.293l-0.374,1.032    c-0.269-0.107-0.562-0.196-0.879-0.268c-0.317-0.07-0.598-0.106-0.842-0.106c-1.631,0-2.446,1.041-2.446,3.121    c0,0.986,0.199,1.742,0.597,2.27c0.397,0.527,0.987,0.791,1.769,0.791c0.669,0,1.355-0.144,2.058-0.432v1.076    C95.385,161.16,94.708,161.298,93.893,161.298z" />
			<path class="st8" d="M103.319,161.152v-5.193c0-0.653-0.149-1.143-0.447-1.465s-0.764-0.482-1.399-0.482    c-0.845,0-1.461,0.229-1.85,0.688c-0.388,0.46-0.582,1.212-0.582,2.256v4.197h-1.216v-11.396h1.216v3.449    c0,0.416-0.02,0.76-0.059,1.033h0.073c0.239-0.386,0.58-0.689,1.021-0.912c0.442-0.222,0.946-0.333,1.513-0.333    c0.981,0,1.718,0.233,2.208,0.699c0.491,0.467,0.736,1.208,0.736,2.224v5.236H103.319z" />
			<path class="st8" d="M110.424,161.298c-1.187,0-2.123-0.361-2.809-1.084s-1.029-1.726-1.029-3.01c0-1.294,0.319-2.322,0.956-3.084    c0.638-0.762,1.493-1.143,2.567-1.143c1.006,0,1.802,0.331,2.388,0.992c0.586,0.662,0.879,1.535,0.879,2.619v0.769h-5.53    c0.024,0.942,0.262,1.658,0.714,2.146c0.451,0.489,1.087,0.732,1.908,0.732c0.864,0,1.719-0.18,2.563-0.541v1.084    c-0.43,0.186-0.836,0.318-1.219,0.398C111.428,161.258,110.966,161.298,110.424,161.298z M110.094,153.995    c-0.645,0-1.159,0.211-1.542,0.631s-0.609,1.001-0.677,1.742h4.197c0-0.766-0.171-1.354-0.513-1.761    C111.217,154.2,110.729,153.995,110.094,153.995z" />
			<path class="st8" d="M27.708,171.444h3.025c1.421,0,2.449,0.212,3.083,0.638c0.635,0.424,0.952,1.096,0.952,2.014    c0,0.635-0.177,1.158-0.531,1.571c-0.354,0.412-0.871,0.68-1.549,0.802v0.073c1.626,0.278,2.439,1.133,2.439,2.563    c0,0.957-0.324,1.704-0.971,2.241s-1.551,0.806-2.713,0.806h-3.735V171.444z M28.953,176.029h2.051    c0.879,0,1.511-0.138,1.897-0.414c0.386-0.275,0.579-0.74,0.579-1.395c0-0.602-0.215-1.034-0.645-1.301    c-0.43-0.266-1.113-0.398-2.051-0.398h-1.831V176.029z M28.953,177.083v4.006h2.234c0.864,0,1.515-0.167,1.952-0.501    c0.437-0.335,0.655-0.858,0.655-1.571c0-0.664-0.224-1.152-0.67-1.465c-0.447-0.312-1.127-0.469-2.04-0.469H28.953z" />
			<path class="st8" d="M42.18,182.152l-0.242-1.143H41.88c-0.4,0.503-0.8,0.844-1.198,1.021c-0.398,0.179-0.895,0.268-1.49,0.268    c-0.796,0-1.42-0.205-1.871-0.615c-0.452-0.41-0.678-0.993-0.678-1.75c0-1.621,1.296-2.471,3.889-2.549l1.362-0.045v-0.498    c0-0.629-0.135-1.095-0.407-1.395c-0.271-0.301-0.704-0.451-1.3-0.451c-0.669,0-1.426,0.205-2.271,0.615l-0.374-0.93    c0.396-0.215,0.829-0.383,1.3-0.506c0.471-0.121,0.943-0.183,1.417-0.183c0.957,0,1.666,0.212,2.128,0.638    c0.461,0.424,0.692,1.105,0.692,2.043v5.479H42.18z M39.434,181.294c0.757,0,1.351-0.207,1.784-0.622    c0.432-0.415,0.648-0.996,0.648-1.743v-0.725l-1.216,0.051c-0.967,0.034-1.664,0.185-2.091,0.45    c-0.427,0.267-0.641,0.681-0.641,1.241c0,0.439,0.133,0.774,0.399,1.004C38.583,181.18,38.955,181.294,39.434,181.294z" />
			<path class="st8" d="M51.079,182.152v-5.193c0-0.653-0.149-1.143-0.447-1.465s-0.764-0.482-1.399-0.482    c-0.84,0-1.455,0.227-1.846,0.681s-0.586,1.204-0.586,2.249v4.211h-1.216v-8.027h0.989l0.198,1.099h0.059    c0.249-0.396,0.598-0.702,1.047-0.919c0.449-0.218,0.95-0.326,1.501-0.326c0.967,0,1.694,0.233,2.183,0.699    c0.488,0.467,0.732,1.213,0.732,2.238v5.236H51.079z" />
			<path class="st8" d="M55.994,178.042c0.21-0.297,0.53-0.688,0.959-1.172l2.593-2.746h1.443l-3.252,3.42l3.479,4.607h-1.472    l-2.834-3.794l-0.916,0.791v3.003h-1.201v-11.396h1.201v6.043c0,0.269-0.02,0.684-0.059,1.244H55.994z" />
			<path class="st8" d="M66.057,182.298c-1.187,0-2.123-0.361-2.809-1.084s-1.029-1.726-1.029-3.01c0-1.294,0.319-2.322,0.956-3.084    c0.638-0.762,1.493-1.143,2.567-1.143c1.006,0,1.802,0.331,2.388,0.992c0.586,0.662,0.879,1.535,0.879,2.619v0.769h-5.53    c0.024,0.942,0.262,1.658,0.714,2.146c0.451,0.489,1.087,0.732,1.908,0.732c0.864,0,1.719-0.18,2.563-0.541v1.084    c-0.43,0.186-0.836,0.318-1.219,0.398C67.062,182.258,66.599,182.298,66.057,182.298z M65.728,174.995    c-0.645,0-1.159,0.211-1.542,0.631s-0.609,1.001-0.677,1.742h4.197c0-0.766-0.171-1.354-0.513-1.761    C66.851,175.2,66.362,174.995,65.728,174.995z" />
			<path class="st8" d="M76.575,182.152v-5.193c0-0.653-0.149-1.143-0.447-1.465s-0.764-0.482-1.399-0.482    c-0.84,0-1.455,0.227-1.846,0.681s-0.586,1.204-0.586,2.249v4.211h-1.216v-8.027h0.989l0.198,1.099h0.059    c0.249-0.396,0.598-0.702,1.047-0.919c0.449-0.218,0.95-0.326,1.501-0.326c0.967,0,1.694,0.233,2.183,0.699    c0.488,0.467,0.732,1.213,0.732,2.238v5.236H76.575z" />
			<path class="st8" d="M85.225,182.152l-0.242-1.143h-0.059c-0.4,0.503-0.8,0.844-1.198,1.021c-0.398,0.179-0.895,0.268-1.49,0.268    c-0.796,0-1.42-0.205-1.871-0.615c-0.452-0.41-0.678-0.993-0.678-1.75c0-1.621,1.296-2.471,3.889-2.549l1.362-0.045v-0.498    c0-0.629-0.135-1.095-0.407-1.395c-0.271-0.301-0.704-0.451-1.3-0.451c-0.669,0-1.426,0.205-2.271,0.615l-0.374-0.93    c0.396-0.215,0.829-0.383,1.3-0.506c0.471-0.121,0.943-0.183,1.417-0.183c0.957,0,1.666,0.212,2.128,0.638    c0.461,0.424,0.692,1.105,0.692,2.043v5.479H85.225z M82.478,181.294c0.757,0,1.351-0.207,1.784-0.622    c0.432-0.415,0.648-0.996,0.648-1.743v-0.725l-1.216,0.051c-0.967,0.034-1.664,0.185-2.091,0.45    c-0.427,0.267-0.641,0.681-0.641,1.241c0,0.439,0.133,0.774,0.399,1.004C81.627,181.18,82,181.294,82.478,181.294z" />
			<path class="st8" d="M89.773,174.124v5.207c0,0.655,0.149,1.143,0.447,1.465s0.764,0.484,1.399,0.484    c0.84,0,1.454-0.229,1.842-0.689c0.389-0.458,0.583-1.208,0.583-2.248v-4.219h1.216v8.027h-1.003l-0.176-1.076h-0.066    c-0.249,0.395-0.595,0.698-1.037,0.908c-0.442,0.209-0.946,0.314-1.512,0.314c-0.977,0-1.708-0.231-2.194-0.695    s-0.729-1.206-0.729-2.227v-5.252H89.773z" />
			<path class="st8" d="M101.455,175.07h-2.043v7.082h-1.216v-7.082H96.76v-0.55l1.436-0.439v-0.446c0-1.973,0.862-2.959,2.585-2.959    c0.425,0,0.923,0.085,1.494,0.256l-0.315,0.975c-0.469-0.151-0.869-0.228-1.201-0.228c-0.459,0-0.798,0.152-1.018,0.458    c-0.22,0.305-0.33,0.795-0.33,1.469v0.52h2.043V175.07z" />
			<path class="st8" d="M108.098,179.962c0,0.746-0.278,1.323-0.835,1.729s-1.338,0.607-2.344,0.607c-1.064,0-1.895-0.168-2.49-0.506    v-1.127c0.386,0.195,0.799,0.349,1.242,0.461c0.441,0.112,0.868,0.168,1.278,0.168c0.635,0,1.123-0.101,1.465-0.304    c0.342-0.202,0.513-0.511,0.513-0.927c0-0.312-0.135-0.579-0.407-0.802c-0.271-0.222-0.799-0.484-1.585-0.787    c-0.747-0.278-1.278-0.521-1.593-0.729c-0.314-0.208-0.549-0.443-0.703-0.707c-0.153-0.264-0.23-0.579-0.23-0.944    c0-0.654,0.266-1.171,0.798-1.55c0.532-0.378,1.262-0.567,2.19-0.567c0.864,0,1.709,0.176,2.534,0.527l-0.432,0.988    c-0.806-0.331-1.536-0.498-2.19-0.498c-0.576,0-1.011,0.091-1.304,0.271s-0.439,0.43-0.439,0.747c0,0.215,0.055,0.398,0.165,0.55    c0.109,0.151,0.287,0.295,0.531,0.432s0.713,0.335,1.406,0.594c0.952,0.347,1.595,0.695,1.93,1.047    C107.931,178.988,108.098,179.43,108.098,179.962z" />
			<path class="st8" d="M109.973,171.949c0-0.277,0.068-0.481,0.205-0.611c0.137-0.129,0.308-0.193,0.513-0.193    c0.195,0,0.364,0.065,0.505,0.197s0.212,0.335,0.212,0.607c0,0.274-0.071,0.478-0.212,0.612c-0.142,0.134-0.31,0.201-0.505,0.201    c-0.205,0-0.376-0.067-0.513-0.201C110.042,172.426,109.973,172.223,109.973,171.949z M111.292,182.152h-1.216v-8.027h1.216    V182.152z" />
			<path class="st8" d="M117.078,182.298c-1.162,0-2.062-0.357-2.699-1.073c-0.637-0.715-0.956-1.727-0.956-3.036    c0-1.342,0.323-2.38,0.97-3.112s1.569-1.099,2.765-1.099c0.386,0,0.771,0.042,1.157,0.125s0.688,0.181,0.908,0.293l-0.374,1.032    c-0.269-0.107-0.562-0.196-0.879-0.268c-0.317-0.07-0.598-0.106-0.842-0.106c-1.631,0-2.446,1.041-2.446,3.121    c0,0.986,0.199,1.742,0.597,2.27c0.397,0.527,0.987,0.791,1.769,0.791c0.669,0,1.355-0.144,2.058-0.432v1.076    C118.569,182.16,117.893,182.298,117.078,182.298z" />
			<path class="st8" d="M126.504,182.152v-5.193c0-0.653-0.149-1.143-0.447-1.465s-0.764-0.482-1.399-0.482    c-0.845,0-1.461,0.229-1.85,0.688c-0.388,0.46-0.582,1.212-0.582,2.256v4.197h-1.216v-11.396h1.216v3.449    c0,0.416-0.02,0.76-0.059,1.033h0.073c0.239-0.386,0.58-0.689,1.021-0.912c0.442-0.222,0.946-0.333,1.513-0.333    c0.981,0,1.718,0.233,2.208,0.699c0.491,0.467,0.736,1.208,0.736,2.224v5.236H126.504z" />
			<path class="st8" d="M132.81,181.294c0.215,0,0.422-0.016,0.623-0.047c0.2-0.032,0.359-0.064,0.476-0.1v0.931    c-0.132,0.063-0.326,0.116-0.582,0.157c-0.257,0.042-0.487,0.062-0.692,0.062c-1.553,0-2.329-0.817-2.329-2.453v-4.775h-1.15    v-0.586l1.15-0.506l0.513-1.714h0.703v1.86h2.329v0.945h-2.329v4.724c0,0.483,0.115,0.854,0.344,1.113    S132.41,181.294,132.81,181.294z" />
		</g>
		<polyline class="st4" points="272.757,125.355 272.757,142.161 267.244,138.118 261.733,142.161 261.733,125.355  " />
		<polyline class="st4" points="261.764,131.519 199.48,131.519 199.48,28.901 280.568,28.901 280.568,131.519 272.757,131.519  " />
		<g>
			<path class="st8" d="M206.421,155.651h3.641v5.208c-0.567,0.181-1.143,0.317-1.729,0.41c-0.586,0.092-1.266,0.139-2.037,0.139    c-1.621,0-2.883-0.482-3.786-1.446c-0.903-0.965-1.354-2.315-1.354-4.054c0-1.113,0.223-2.089,0.67-2.927    c0.446-0.837,1.09-1.477,1.93-1.919c0.84-0.441,1.824-0.662,2.951-0.662c1.143,0,2.207,0.21,3.193,0.629l-0.482,1.1    c-0.967-0.41-1.897-0.615-2.791-0.615c-1.304,0-2.322,0.388-3.055,1.164s-1.098,1.854-1.098,3.23c0,1.445,0.353,2.541,1.058,3.288    c0.706,0.747,1.742,1.12,3.109,1.12c0.742,0,1.467-0.085,2.175-0.256v-3.296h-2.395V155.651z" />
			<path class="st8" d="M215.839,161.408c-1.186,0-2.122-0.361-2.809-1.084c-0.686-0.723-1.029-1.726-1.029-3.01    c0-1.294,0.319-2.322,0.956-3.084c0.638-0.762,1.493-1.143,2.567-1.143c1.006,0,1.802,0.331,2.388,0.992    c0.586,0.662,0.879,1.535,0.879,2.619v0.769h-5.53c0.024,0.942,0.263,1.658,0.715,2.146c0.451,0.489,1.088,0.732,1.908,0.732    c0.863,0,1.718-0.18,2.562-0.541v1.084c-0.43,0.186-0.836,0.318-1.219,0.398C216.844,161.368,216.382,161.408,215.839,161.408z     M215.51,154.105c-0.645,0-1.158,0.211-1.542,0.631c-0.383,0.42-0.609,1.001-0.678,1.742h4.197c0-0.766-0.171-1.354-0.513-1.761    C216.633,154.309,216.145,154.105,215.51,154.105z" />
			<path class="st8" d="M226.042,159.072c0,0.746-0.277,1.323-0.834,1.729s-1.339,0.607-2.344,0.607c-1.065,0-1.896-0.168-2.49-0.506    v-1.127c0.385,0.195,0.799,0.349,1.241,0.461c0.441,0.112,0.868,0.168,1.278,0.168c0.634,0,1.122-0.101,1.465-0.304    c0.341-0.202,0.512-0.511,0.512-0.927c0-0.312-0.135-0.579-0.406-0.802c-0.271-0.222-0.8-0.484-1.586-0.787    c-0.746-0.278-1.277-0.521-1.593-0.729c-0.314-0.208-0.549-0.443-0.703-0.707c-0.153-0.264-0.23-0.579-0.23-0.944    c0-0.654,0.266-1.171,0.798-1.55c0.532-0.378,1.263-0.567,2.19-0.567c0.864,0,1.709,0.176,2.534,0.527l-0.432,0.988    c-0.807-0.331-1.536-0.498-2.19-0.498c-0.576,0-1.011,0.091-1.304,0.271s-0.439,0.43-0.439,0.747c0,0.215,0.055,0.398,0.165,0.55    c0.109,0.151,0.286,0.295,0.53,0.432s0.713,0.335,1.406,0.594c0.953,0.347,1.596,0.695,1.931,1.047    C225.875,158.097,226.042,158.539,226.042,159.072z" />
			<path class="st8" d="M231.411,161.408c-1.186,0-2.122-0.361-2.809-1.084c-0.686-0.723-1.029-1.726-1.029-3.01    c0-1.294,0.319-2.322,0.956-3.084c0.638-0.762,1.493-1.143,2.567-1.143c1.006,0,1.802,0.331,2.388,0.992    c0.586,0.662,0.879,1.535,0.879,2.619v0.769h-5.53c0.024,0.942,0.263,1.658,0.715,2.146c0.451,0.489,1.088,0.732,1.908,0.732    c0.863,0,1.718-0.18,2.562-0.541v1.084c-0.43,0.186-0.836,0.318-1.219,0.398C232.416,161.368,231.954,161.408,231.411,161.408z     M231.082,154.105c-0.645,0-1.158,0.211-1.542,0.631c-0.383,0.42-0.609,1.001-0.678,1.742h4.197c0-0.766-0.171-1.354-0.513-1.761    C232.205,154.309,231.717,154.105,231.082,154.105z" />
			<path class="st8" d="M239.029,160.404c0.215,0,0.422-0.016,0.622-0.047c0.2-0.032,0.359-0.064,0.477-0.1v0.931    c-0.132,0.063-0.326,0.116-0.582,0.157c-0.257,0.042-0.487,0.062-0.692,0.062c-1.553,0-2.329-0.817-2.329-2.453v-4.775h-1.15    v-0.586l1.15-0.506l0.513-1.714h0.703v1.86h2.329v0.945h-2.329v4.724c0,0.483,0.114,0.854,0.345,1.113    C238.313,160.275,238.629,160.404,239.029,160.404z" />
			<path class="st8" d="M246.866,161.261h-5.823v-0.828l4.38-6.254h-4.109v-0.945h5.442v0.945l-4.321,6.137h4.432V161.261z" />
			<path class="st8" d="M249.964,161.261h-1.216v-11.396h1.216V161.261z" />
			<path class="st8" d="M252.439,151.058c0-0.277,0.068-0.481,0.205-0.611c0.137-0.129,0.308-0.193,0.513-0.193    c0.195,0,0.363,0.065,0.506,0.197c0.141,0.132,0.212,0.335,0.212,0.607c0,0.274-0.071,0.478-0.212,0.612    c-0.143,0.134-0.311,0.201-0.506,0.201c-0.205,0-0.376-0.067-0.513-0.201C252.508,151.536,252.439,151.332,252.439,151.058z     M253.758,161.261h-1.216v-8.027h1.216V161.261z" />
			<path class="st8" d="M259.544,161.408c-1.162,0-2.062-0.357-2.699-1.073c-0.637-0.715-0.956-1.727-0.956-3.036    c0-1.342,0.324-2.38,0.971-3.112c0.647-0.732,1.568-1.099,2.766-1.099c0.385,0,0.771,0.042,1.156,0.125s0.689,0.181,0.908,0.293    l-0.373,1.032c-0.269-0.107-0.562-0.196-0.879-0.268c-0.317-0.07-0.599-0.106-0.842-0.106c-1.632,0-2.447,1.041-2.447,3.121    c0,0.986,0.199,1.742,0.598,2.27c0.397,0.527,0.987,0.791,1.769,0.791c0.669,0,1.354-0.144,2.058-0.432v1.076    C261.035,161.269,260.359,161.408,259.544,161.408z" />
			<path class="st8" d="M268.971,161.261v-5.193c0-0.653-0.149-1.143-0.446-1.465c-0.299-0.322-0.765-0.482-1.399-0.482    c-0.845,0-1.461,0.229-1.85,0.688c-0.388,0.46-0.582,1.212-0.582,2.256v4.197h-1.216v-11.396h1.216v3.449    c0,0.416-0.02,0.76-0.059,1.033h0.073c0.239-0.386,0.58-0.689,1.021-0.912c0.442-0.222,0.946-0.333,1.513-0.333    c0.981,0,1.718,0.233,2.208,0.699c0.491,0.467,0.736,1.208,0.736,2.224v5.236H268.971z" />
			<path class="st8" d="M276.075,161.408c-1.186,0-2.122-0.361-2.809-1.084c-0.686-0.723-1.029-1.726-1.029-3.01    c0-1.294,0.319-2.322,0.956-3.084c0.638-0.762,1.493-1.143,2.567-1.143c1.006,0,1.802,0.331,2.388,0.992    c0.586,0.662,0.879,1.535,0.879,2.619v0.769h-5.53c0.024,0.942,0.263,1.658,0.715,2.146c0.451,0.489,1.088,0.732,1.908,0.732    c0.863,0,1.718-0.18,2.562-0.541v1.084c-0.43,0.186-0.836,0.318-1.219,0.398C277.08,161.368,276.618,161.408,276.075,161.408z     M275.746,154.105c-0.645,0-1.158,0.211-1.542,0.631c-0.383,0.42-0.609,1.001-0.678,1.742h4.197c0-0.766-0.171-1.354-0.513-1.761    C276.869,154.309,276.381,154.105,275.746,154.105z" />
			<path class="st8" d="M183.573,182.261h-5.969v-10.708h5.969v1.106h-4.725v3.449h4.439v1.099h-4.439v3.94h4.725V182.261z" />
			<path class="st8" d="M185.66,172.058c0-0.277,0.068-0.481,0.205-0.611c0.137-0.129,0.308-0.193,0.513-0.193    c0.195,0,0.363,0.065,0.506,0.197c0.141,0.132,0.212,0.335,0.212,0.607c0,0.274-0.071,0.478-0.212,0.612    c-0.143,0.134-0.311,0.201-0.506,0.201c-0.205,0-0.376-0.067-0.513-0.201C185.729,172.536,185.66,172.332,185.66,172.058z     M186.979,182.261h-1.216v-8.027h1.216V182.261z" />
			<path class="st8" d="M195.05,182.261v-5.193c0-0.653-0.149-1.143-0.446-1.465c-0.299-0.322-0.765-0.482-1.399-0.482    c-0.84,0-1.455,0.227-1.846,0.681s-0.586,1.204-0.586,2.249v4.211h-1.216v-8.027h0.988l0.198,1.099h0.059    c0.249-0.396,0.598-0.702,1.048-0.919c0.448-0.218,0.949-0.326,1.501-0.326c0.967,0,1.694,0.233,2.183,0.699    c0.488,0.467,0.732,1.213,0.732,2.238v5.236H195.05z" />
			<path class="st8" d="M199.979,182.261h-1.216v-11.396h1.216V182.261z" />
			<path class="st8" d="M207.493,182.261l-0.241-1.143h-0.059c-0.401,0.503-0.8,0.844-1.198,1.021    c-0.397,0.179-0.895,0.268-1.49,0.268c-0.796,0-1.42-0.205-1.871-0.615c-0.452-0.41-0.678-0.993-0.678-1.75    c0-1.621,1.296-2.471,3.89-2.549l1.361-0.045v-0.498c0-0.629-0.135-1.095-0.406-1.395c-0.271-0.301-0.704-0.451-1.3-0.451    c-0.669,0-1.426,0.205-2.271,0.615l-0.373-0.93c0.395-0.215,0.828-0.383,1.3-0.506c0.471-0.121,0.943-0.183,1.417-0.183    c0.957,0,1.666,0.212,2.128,0.638c0.461,0.424,0.692,1.105,0.692,2.043v5.479H207.493z M204.746,181.404    c0.757,0,1.352-0.207,1.784-0.622c0.432-0.415,0.647-0.996,0.647-1.743v-0.725l-1.215,0.051c-0.967,0.034-1.664,0.185-2.092,0.45    c-0.427,0.267-0.641,0.681-0.641,1.241c0,0.439,0.133,0.774,0.399,1.004C203.896,181.289,204.268,181.404,204.746,181.404z" />
			<path class="st8" d="M217.47,174.234v0.77l-1.487,0.176c0.137,0.171,0.259,0.394,0.366,0.67c0.107,0.275,0.161,0.587,0.161,0.934    c0,0.786-0.269,1.414-0.806,1.883s-1.274,0.703-2.212,0.703c-0.239,0-0.464-0.02-0.674-0.059    c-0.518,0.273-0.776,0.617-0.776,1.032c0,0.22,0.09,0.382,0.271,0.487c0.18,0.104,0.49,0.157,0.93,0.157h1.421    c0.869,0,1.537,0.183,2.003,0.55c0.467,0.365,0.699,0.897,0.699,1.596c0,0.889-0.356,1.566-1.068,2.033    c-0.714,0.466-1.754,0.699-3.121,0.699c-1.05,0-1.858-0.195-2.428-0.586c-0.568-0.391-0.854-0.942-0.854-1.655    c0-0.488,0.156-0.911,0.469-1.267c0.312-0.356,0.752-0.599,1.318-0.726c-0.205-0.093-0.377-0.236-0.516-0.433    c-0.14-0.194-0.209-0.422-0.209-0.681c0-0.293,0.078-0.55,0.234-0.769c0.156-0.221,0.402-0.433,0.74-0.638    c-0.416-0.171-0.754-0.462-1.015-0.872c-0.262-0.41-0.392-0.879-0.392-1.406c0-0.879,0.264-1.556,0.791-2.032    c0.527-0.476,1.273-0.714,2.24-0.714c0.42,0,0.799,0.049,1.136,0.146H217.47z M211.067,183.609c0,0.435,0.184,0.764,0.55,0.988    s0.891,0.338,1.575,0.338c1.02,0,1.775-0.153,2.267-0.458c0.49-0.306,0.735-0.72,0.735-1.241c0-0.436-0.134-0.736-0.402-0.905    c-0.269-0.168-0.774-0.253-1.516-0.253h-1.458c-0.552,0-0.981,0.133-1.289,0.396S211.067,183.116,211.067,183.609z     M211.728,176.804c0,0.562,0.158,0.987,0.476,1.275s0.759,0.432,1.325,0.432c1.188,0,1.78-0.576,1.78-1.729    c0-1.206-0.601-1.809-1.802-1.809c-0.571,0-1.011,0.153-1.318,0.461S211.728,176.2,211.728,176.804z" />
			<path class="st8" d="M222.508,182.408c-1.186,0-2.122-0.361-2.809-1.084c-0.686-0.723-1.029-1.726-1.029-3.01    c0-1.294,0.319-2.322,0.956-3.084c0.638-0.762,1.493-1.143,2.567-1.143c1.006,0,1.802,0.331,2.388,0.992    c0.586,0.662,0.879,1.535,0.879,2.619v0.769h-5.53c0.024,0.942,0.263,1.658,0.715,2.146c0.451,0.489,1.088,0.732,1.908,0.732    c0.863,0,1.718-0.18,2.562-0.541v1.084c-0.43,0.186-0.836,0.318-1.219,0.398C223.513,182.368,223.051,182.408,222.508,182.408z     M222.179,175.105c-0.645,0-1.158,0.211-1.542,0.631c-0.383,0.42-0.609,1.001-0.678,1.742h4.197c0-0.766-0.171-1.354-0.513-1.761    C223.302,175.309,222.813,175.105,222.179,175.105z" />
			<path class="st8" d="M233.025,182.261v-5.193c0-0.653-0.149-1.143-0.446-1.465c-0.299-0.322-0.765-0.482-1.399-0.482    c-0.84,0-1.455,0.227-1.846,0.681s-0.586,1.204-0.586,2.249v4.211h-1.216v-8.027h0.988l0.198,1.099h0.059    c0.249-0.396,0.598-0.702,1.048-0.919c0.448-0.218,0.949-0.326,1.501-0.326c0.967,0,1.694,0.233,2.183,0.699    c0.488,0.467,0.732,1.213,0.732,2.238v5.236H233.025z" />
			<path class="st8" d="M241.917,180.072c0,0.746-0.277,1.323-0.834,1.729s-1.339,0.607-2.344,0.607c-1.065,0-1.896-0.168-2.49-0.506    v-1.127c0.385,0.195,0.799,0.349,1.241,0.461c0.441,0.112,0.868,0.168,1.278,0.168c0.634,0,1.122-0.101,1.465-0.304    c0.341-0.202,0.512-0.511,0.512-0.927c0-0.312-0.135-0.579-0.406-0.802c-0.271-0.222-0.8-0.484-1.586-0.787    c-0.746-0.278-1.277-0.521-1.593-0.729c-0.314-0.208-0.549-0.443-0.703-0.707c-0.153-0.264-0.23-0.579-0.23-0.944    c0-0.654,0.266-1.171,0.798-1.55c0.532-0.378,1.263-0.567,2.19-0.567c0.864,0,1.709,0.176,2.534,0.527l-0.432,0.988    c-0.807-0.331-1.536-0.498-2.19-0.498c-0.576,0-1.011,0.091-1.304,0.271s-0.439,0.43-0.439,0.747c0,0.215,0.055,0.398,0.165,0.55    c0.109,0.151,0.286,0.295,0.53,0.432s0.713,0.335,1.406,0.594c0.953,0.347,1.596,0.695,1.931,1.047    C241.75,179.097,241.917,179.539,241.917,180.072z" />
			<path class="st8" d="M243.793,172.058c0-0.277,0.068-0.481,0.205-0.611c0.137-0.129,0.308-0.193,0.513-0.193    c0.195,0,0.363,0.065,0.506,0.197c0.141,0.132,0.212,0.335,0.212,0.607c0,0.274-0.071,0.478-0.212,0.612    c-0.143,0.134-0.311,0.201-0.506,0.201c-0.205,0-0.376-0.067-0.513-0.201C243.861,172.536,243.793,172.332,243.793,172.058z     M245.111,182.261h-1.216v-8.027h1.216V182.261z" />
			<path class="st8" d="M250.897,182.408c-1.162,0-2.062-0.357-2.699-1.073c-0.637-0.715-0.956-1.727-0.956-3.036    c0-1.342,0.324-2.38,0.971-3.112c0.647-0.732,1.568-1.099,2.766-1.099c0.385,0,0.771,0.042,1.156,0.125s0.689,0.181,0.908,0.293    l-0.373,1.032c-0.269-0.107-0.562-0.196-0.879-0.268c-0.317-0.07-0.599-0.106-0.842-0.106c-1.632,0-2.447,1.041-2.447,3.121    c0,0.986,0.199,1.742,0.598,2.27c0.397,0.527,0.987,0.791,1.769,0.791c0.669,0,1.354-0.144,2.058-0.432v1.076    C252.389,182.269,251.713,182.408,250.897,182.408z" />
			<path class="st8" d="M260.324,182.261v-5.193c0-0.653-0.149-1.143-0.446-1.465c-0.299-0.322-0.765-0.482-1.399-0.482    c-0.845,0-1.461,0.229-1.85,0.688c-0.388,0.46-0.582,1.212-0.582,2.256v4.197h-1.216v-11.396h1.216v3.449    c0,0.416-0.02,0.76-0.059,1.033h0.073c0.239-0.386,0.58-0.689,1.021-0.912c0.442-0.222,0.946-0.333,1.513-0.333    c0.981,0,1.718,0.233,2.208,0.699c0.491,0.467,0.736,1.208,0.736,2.224v5.236H260.324z" />
			<path class="st8" d="M267.429,182.408c-1.186,0-2.122-0.361-2.809-1.084c-0.686-0.723-1.029-1.726-1.029-3.01    c0-1.294,0.319-2.322,0.956-3.084c0.638-0.762,1.493-1.143,2.567-1.143c1.006,0,1.802,0.331,2.388,0.992    c0.586,0.662,0.879,1.535,0.879,2.619v0.769h-5.53c0.024,0.942,0.263,1.658,0.715,2.146c0.451,0.489,1.088,0.732,1.908,0.732    c0.863,0,1.718-0.18,2.562-0.541v1.084c-0.43,0.186-0.836,0.318-1.219,0.398C268.434,182.368,267.972,182.408,267.429,182.408z     M267.1,175.105c-0.645,0-1.158,0.211-1.542,0.631c-0.383,0.42-0.609,1.001-0.678,1.742h4.197c0-0.766-0.171-1.354-0.513-1.761    C268.223,175.309,267.734,175.105,267.1,175.105z" />
			<path class="st8" d="M276.116,174.087c0.356,0,0.676,0.029,0.959,0.088l-0.168,1.128c-0.332-0.073-0.625-0.11-0.879-0.11    c-0.649,0-1.205,0.264-1.666,0.791c-0.462,0.527-0.692,1.185-0.692,1.971v4.307h-1.216v-8.027h1.004l0.139,1.486h0.059    c0.298-0.521,0.656-0.925,1.076-1.208S275.613,174.087,276.116,174.087z" />
			<path class="st8" d="M279.72,174.234v5.207c0,0.655,0.148,1.143,0.447,1.465c0.297,0.322,0.764,0.484,1.398,0.484    c0.84,0,1.454-0.229,1.842-0.689c0.389-0.458,0.582-1.208,0.582-2.248v-4.219h1.217v8.027h-1.004l-0.176-1.076h-0.066    c-0.248,0.395-0.594,0.698-1.036,0.908c-0.441,0.209-0.946,0.314-1.513,0.314c-0.977,0-1.707-0.231-2.193-0.695    c-0.485-0.464-0.729-1.206-0.729-2.227v-5.252H279.72z" />
			<path class="st8" d="M293.277,182.261v-5.193c0-0.653-0.149-1.143-0.446-1.465c-0.299-0.322-0.765-0.482-1.399-0.482    c-0.84,0-1.455,0.227-1.846,0.681S289,177.005,289,178.05v4.211h-1.216v-8.027h0.988l0.198,1.099h0.059    c0.249-0.396,0.598-0.702,1.048-0.919c0.448-0.218,0.949-0.326,1.501-0.326c0.967,0,1.694,0.233,2.183,0.699    c0.488,0.467,0.732,1.213,0.732,2.238v5.236H293.277z" />
			<path class="st8" d="M303.562,174.234v0.77l-1.487,0.176c0.137,0.171,0.259,0.394,0.366,0.67c0.107,0.275,0.161,0.587,0.161,0.934    c0,0.786-0.269,1.414-0.806,1.883s-1.274,0.703-2.212,0.703c-0.239,0-0.464-0.02-0.674-0.059    c-0.518,0.273-0.776,0.617-0.776,1.032c0,0.22,0.09,0.382,0.271,0.487c0.18,0.104,0.49,0.157,0.93,0.157h1.421    c0.869,0,1.537,0.183,2.003,0.55c0.467,0.365,0.699,0.897,0.699,1.596c0,0.889-0.356,1.566-1.068,2.033    c-0.714,0.466-1.754,0.699-3.121,0.699c-1.05,0-1.858-0.195-2.428-0.586c-0.568-0.391-0.854-0.942-0.854-1.655    c0-0.488,0.156-0.911,0.469-1.267c0.312-0.356,0.752-0.599,1.318-0.726c-0.205-0.093-0.377-0.236-0.516-0.433    c-0.14-0.194-0.209-0.422-0.209-0.681c0-0.293,0.078-0.55,0.234-0.769c0.156-0.221,0.402-0.433,0.74-0.638    c-0.416-0.171-0.754-0.462-1.015-0.872c-0.262-0.41-0.392-0.879-0.392-1.406c0-0.879,0.264-1.556,0.791-2.032    c0.527-0.476,1.273-0.714,2.24-0.714c0.42,0,0.799,0.049,1.136,0.146H303.562z M297.159,183.609c0,0.435,0.184,0.764,0.55,0.988    s0.891,0.338,1.575,0.338c1.02,0,1.775-0.153,2.267-0.458c0.49-0.306,0.735-0.72,0.735-1.241c0-0.436-0.134-0.736-0.402-0.905    c-0.269-0.168-0.774-0.253-1.516-0.253h-1.458c-0.552,0-0.981,0.133-1.289,0.396S297.159,183.116,297.159,183.609z     M297.819,176.804c0,0.562,0.158,0.987,0.476,1.275s0.759,0.432,1.325,0.432c1.188,0,1.78-0.576,1.78-1.729    c0-1.206-0.601-1.809-1.802-1.809c-0.571,0-1.011,0.153-1.318,0.461S297.819,176.2,297.819,176.804z" />
		</g>
		<path class="st5" d="M276,60.467c1.315,17.265,2.149,34.565,2.502,51.876c0.089,4.348,0.146,8.696,0.198,13.044   c0.016,1.286-0.196,2.906-1.423,3.292c-0.88,0.277-1.979-0.244-2.691,0.343c-0.699,0.577-0.337,1.818,0.448,2.271   c0.785,0.453,1.761,0.352,2.657,0.215c0.896-0.137,1.853-0.287,2.677,0.09c0.055-8.491,0.109-16.983,0.163-25.474   c0.019-2.917,0.037-5.834,0.03-8.751c-0.035-11.781,0.477-27.424,0.001-39.195c-0.017-0.433-1.049-1.117-1.39-1.385   c-0.199-0.156-0.462-0.201-0.712-0.242l-3.442-0.554" />
		<path class="st5" d="M256.482,28.793c-0.988-0.096-1.387,1.239-1.385,2.231c0.012,9.394,1.993,14.461,8.669,21.07   c3.971,3.929,11.252,7.964,16.525,6.928c0.226-4.529,0.453-4.174,0.679-8.704c0.035-0.703,0.067-1.43-0.185-2.088   c-0.767-1.991-3.423-2.187-5.426-2.923c-2.78-1.022-4.713-3.507-6.492-5.875c-1.467-1.951-2.933-3.904-4.4-5.855   c-1.041-1.386-2.112-2.8-3.566-3.741c-1.455-0.942-3.394-1.33-4.93-0.529" />
		<path class="st5" d="M267.113,108.71c1.936,0.161,3.87,0.322,5.806,0.483c0.238,0.02,0.481,0.04,0.7,0.137   c0.947,0.419,0.816,1.792,1.267,2.724c0.59,1.217,2.236,1.687,2.713,2.953c0.535,1.417-0.69,2.929-0.568,4.439   c0.075,0.942,0.669,1.912,0.272,2.77c-0.365,0.793-1.406,1.056-1.869,1.795c-0.283,0.452-0.307,1.013-0.324,1.547   c-0.056,1.826-0.112,3.652-0.168,5.478c-0.723,0.297-1.444,0.595-2.167,0.892c-0.047-1.778-0.095-3.556-0.141-5.334   c-0.033-1.217-0.058-2.475,0.404-3.601c0.461-1.127,1.547-2.092,2.762-2.013c-0.782-1.1-1.097-2.521-0.855-3.848   c0.105-0.57,0.307-1.157,0.144-1.713c-0.128-0.438-0.461-0.777-0.749-1.13c-0.841-1.025-1.377-2.298-1.525-3.615   c-0.992,0.114-2.006,0.226-2.981,0.015c-0.976-0.211-1.924-0.81-2.288-1.741" />
		<polyline class="st7" points="261.764,131.519 199.48,131.519 199.48,28.901 280.568,28.901 280.568,131.519 272.757,131.519  " />
		<line class="st7" x1="253.991" y1="108.076" x2="224.191" y2="108.076" />
		<line class="st7" x1="264.07" y1="37.336" x2="214.114" y2="37.336" />
		<line class="st7" x1="253.825" y1="42.611" x2="224.357" y2="42.611" />
		<line class="st7" x1="253.991" y1="113.042" x2="224.191" y2="113.042" />
		<line class="st7" x1="253.991" y1="118.008" x2="224.191" y2="118.008" />
		<path class="st5" d="M290.915,20.834c0,5.912-2.165,10.333-3.989,13.005c-1.998,2.93-4.656,5.276-6.776,5.979   c-0.06,0.024-0.121,0.031-0.181,0.031c2.612-16.934,0-23.05,0-23.05c0.106,0,0.219,0.03,0.318,0.098   c1.711,1.136,6.813,3.362,10.053,3.362C290.657,20.26,290.915,20.517,290.915,20.834" />
		<path class="st9" d="M256.848,27.578c0-13.1,10.62-23.72,23.72-23.72c13.099,0,23.718,10.62,23.718,23.72   c0,13.1-10.619,23.72-23.718,23.72C267.468,51.298,256.848,40.678,256.848,27.578" />
		<path class="st5" d="M290.34,20.259c-3.24,0-8.342-2.226-10.053-3.361c-0.098-0.069-0.212-0.099-0.318-0.099   c0,0,2.612,6.116,0,23.05c0.06,0,0.121-0.007,0.182-0.03c2.12-0.704,4.777-3.05,6.775-5.98c1.824-2.672,3.989-7.093,3.989-13.005   C290.915,20.517,290.657,20.259,290.34,20.259" />
		<polyline class="st7" points="276.23,28.121 278.833,30.637 284.933,24.519  " />
		<path class="st6" d="M279.966,39.853c-0.062,0-0.123-0.011-0.182-0.03c-2.12-0.707-4.78-3.056-6.778-5.987   c-1.82-2.669-3.99-7.093-3.99-13.004c0-0.318,0.258-0.577,0.576-0.577c3.243,0,8.343-2.219,10.055-3.361   c0.193-0.129,0.446-0.129,0.639,0c1.712,1.142,6.812,3.361,10.055,3.361c0.318,0,0.577,0.259,0.577,0.577   c0,5.911-2.171,10.333-3.991,13.004c-1.997,2.93-4.658,5.28-6.777,5.987C280.091,39.842,280.028,39.853,279.966,39.853   L279.966,39.853z" />
		<path class="st5" d="M261.765,140.279c1.002-0.272,1.763-1.066,2.642-1.618c0.522-0.328,1.268-0.873,1.866-1.026   c0.417-0.106,1.212-0.095,1.485,0.237c-0.541,0.256-1.464,0.92-1.794,1.42c-0.182,0.277-0.329,0.59-0.591,0.794   c-0.269,0.212-0.621,0.277-0.943,0.392c-0.428,0.153-0.821,0.401-1.144,0.722c-0.196,0.195-0.371,0.422-0.616,0.552   s-0.593,0.125-0.756-0.099c-0.078-0.108-0.099-0.246-0.115-0.379c-0.047-0.418-0.048-0.841-0.002-1.259" />
		<path class="st5" d="M271.307,125.257c-0.16,3.855-0.191,7.717-0.092,11.573c0.013,0.496,0.028,0.994-0.042,1.485   c-0.047,0.334-0.177,0.712-0.496,0.819c-0.132,0.045-0.274,0.034-0.413,0.022c-0.408-0.034-0.816-0.067-1.226-0.101   c-0.054,0.186,0.036,0.389,0.169,0.528c0.135,0.14,0.31,0.233,0.473,0.337c0.931,0.599,1.569,1.665,2.629,1.984   c0.367-0.37,0.327-0.964,0.301-1.485c-0.066-1.274,0.102-2.548,0.193-3.822c0.276-3.892-0.171-7.803,0.028-11.699   c-0.515,0.048-1.024,0.157-1.515,0.322" />
		<path class="st5" d="M261.833,126.711c0.906-0.02,1.813-0.039,2.72-0.059c0.167-0.003,0.339-0.006,0.496,0.051   c0.343,0.127,0.521,0.505,0.82,0.716c0.28,0.198,0.641,0.235,0.983,0.265c0.179,0.016,0.407,0.006,0.479-0.16   c0.054-0.123-0.014-0.262-0.08-0.379c-0.278-0.494-0.562-0.994-0.966-1.39c-0.404-0.397-0.953-0.683-1.517-0.643   c-0.511,0.037-0.995,0.33-1.503,0.272c-0.23-0.027-0.447-0.125-0.677-0.152c-0.23-0.029-0.499,0.038-0.603,0.246   c-0.051,0.105-0.051,0.227-0.05,0.344c0.002,0.174,0.003,0.347,0.005,0.52" />
		<path class="st5" d="M271.045,125.192c-0.017-0.812,0.443-1.795,0.854-2.495c0.997-1.699,1.68-2.212,2.523-2.472   c-0.54-1.371-0.642-2.91-0.287-4.34c-0.944-0.4-1.715-1.143-2.271-2.005c-0.555-0.861-0.908-1.838-1.169-2.83l1.483,0.097   c0.09,0.006,0.181,0.013,0.262,0.053c0.191,0.097,0.241,0.342,0.288,0.551c0.201,0.905,0.725,1.7,1.241,2.471   c0.183,0.276,0.374,0.558,0.651,0.74c0.261,0.17,0.596,0.251,0.781,0.502c0.289,0.394,0.052,0.936-0.085,1.405   c-0.169,0.582-0.166,1.2-0.16,1.806c0.002,0.265,0.006,0.536,0.101,0.783c0.105,0.274,0.321,0.508,0.365,0.799   c0.059,0.389-0.2,0.748-0.445,1.055c-0.49,0.616-0.986,1.238-1.61,1.72c-0.173,0.135-0.359,0.259-0.504,0.424   c-0.344,0.389-0.418,0.944-0.439,1.463c-0.005,0.124-0.014,0.262-0.106,0.344c-0.077,0.07-0.19,0.077-0.293,0.081   c-0.33,0.014-0.66,0.029-0.991,0.042" />
		<path class="st5" d="M248.388,52.886l-0.902,3.272c-0.079,0.29-0.164,0.589-0.359,0.818c-0.298,0.352-0.799,0.468-1.259,0.436   c-0.459-0.032-0.9-0.187-1.35-0.287c-1.023-0.225-2.084-0.164-3.13-0.1c-1.076,0.065-2.235,0.162-3.056,0.862   c2.31-0.475,4.68,0.227,6.934,0.921c0.485,0.149,0.978,0.303,1.407,0.576c0.244,0.155,0.484,0.356,0.773,0.37   c0.546,0.028,0.877-0.582,1.068-1.096c0.587-1.572,1.173-3.143,1.76-4.715c0.039-0.106,0.078-0.224,0.031-0.326   c-0.043-0.091-0.144-0.14-0.236-0.181l-1.448-0.642" />
		<path class="st5" d="M236.425,59.023c-0.393,1.642,0.479,3.362,1.705,4.521c1.227,1.16,2.777,1.901,4.218,2.782   c1.421,0.868,3.951,1.852,5.129,3.03c1.595,1.595,1.996,3.642,1.996,5.401c0,4.916-3.202,5.861-2.756,6.506   c0.094,0.136,0.495-0.165,0.655-0.208c0.08-0.021,0.143-0.084,0.201-0.144c0.683-0.709,1.365-1.418,2.047-2.126   c0.336-0.349,0.673-0.7,0.939-1.105c0.742-1.134,0.842-2.566,0.79-3.921c-0.032-0.851-0.119-1.715-0.426-2.51   c-0.243-0.633-0.618-1.205-0.991-1.772c-0.443-0.673-0.889-1.35-1.443-1.934c-1.644-1.735-4.043-2.475-6.264-3.359   c-2.222-0.883-4.533-2.146-5.446-4.355" />
		<path class="st5" d="M246.909,81.01c0.429,0.638,1.041,1.727,1.38,2.416c1.009,2.052,0.513,4.15-0.266,6.299   c-0.777,2.149-2.458,3.955-4.545,4.886c-1.79,0.797-3.8,0.955-5.758,0.884c-0.707-0.024-1.415-0.079-2.107-0.226   c-0.522-0.112-1.032-0.276-1.54-0.439c-1.934-0.623-3.867-1.246-5.8-1.869c-0.167,0.724-0.291,1.598,0.25,2.106   c0.16,0.151,0.363,0.248,0.562,0.342c0.9,0.429,1.805,0.861,2.761,1.15c0.754,0.228,1.535,0.366,2.312,0.504   c0.98,0.173,1.959,0.346,2.938,0.519c0.803,0.142,1.611,0.284,2.425,0.277c1.783-0.017,3.472-0.745,5.105-1.46   c0.967-0.424,1.945-0.854,2.774-1.506c1.666-1.311,2.558-3.377,3.073-5.434c0.271-1.079,0.455-2.222,0.159-3.295   c-0.18-0.649-0.527-1.238-0.896-1.802c-0.782-1.198-1.679-2.322-2.672-3.352" />
		<path class="st7" d="M227.646,73.528c0-1.232,0.414-2.436,1.242-3.61c0.827-1.174,1.992-2.214,3.493-3.118   c-2.714-1.964-4.071-4.331-4.071-7.104c0-2.636,1.068-4.715,3.205-6.236c2.137-1.52,4.975-2.281,8.517-2.281   c3.677,0,7.238,0.828,10.684,2.483l-2.83,6.381c-1.405-0.769-2.815-1.376-4.23-1.818c-1.415-0.444-2.652-0.665-3.711-0.665   c-2.078,0-3.118,0.713-3.118,2.136c0,0.829,0.438,1.588,1.315,2.282c0.875,0.693,2.111,1.367,3.71,2.021   c3.368,1.367,5.798,2.829,7.29,4.389c1.491,1.558,2.238,3.272,2.238,5.14c0,1.482-0.309,2.805-0.924,3.969   c-0.616,1.165-1.732,2.324-3.349,3.48c2.406,1.809,3.609,4.157,3.609,7.045c0,2.868-1.122,5.153-3.364,6.857   c-2.242,1.703-5.318,2.556-9.225,2.556c-3.927,0-7.315-0.828-10.164-2.484v-7.045c1.521,0.847,3.273,1.579,5.255,2.195   s3.639,0.924,4.967,0.924c2.675,0,4.012-0.924,4.012-2.773c0-0.807-0.297-1.506-0.894-2.093c-0.597-0.587-1.935-1.342-4.014-2.266   c-2.714-1.213-4.691-2.29-5.932-3.234c-1.243-0.943-2.171-1.983-2.788-3.119C227.953,76.405,227.646,75.067,227.646,73.528z    M236.048,72.631c0,0.981,0.423,1.858,1.271,2.627c0.846,0.77,2.338,1.714,4.475,2.83c0.789-0.904,1.184-1.935,1.184-3.09   c0-1.096-0.405-2.059-1.213-2.887c-0.809-0.827-2.156-1.635-4.042-2.425C236.606,70.303,236.048,71.285,236.048,72.631z" />
		<polyline class="st7" points="272.757,125.355 272.757,142.161 267.244,138.118 261.733,142.161 261.733,125.355  " />
		<path class="st7" d="M275.906,120.839c-2.781,1.015-3.118,3.396-3.149,4.224c-0.01,0.182,0,0.292,0,0.292h-3.524l-1.989,1.743   l-1.989-1.743h-3.523c0,0,0.009-0.11,0-0.292c-0.032-0.828-0.369-3.204-3.154-4.224c2.08-2.968,0-5.513,0-5.513   c2.785-1.019,3.122-3.395,3.154-4.223c0.009-0.182,0-0.291,0-0.291h3.523l1.989-1.744l1.989,1.744h3.524c0,0-0.01,0.109,0,0.291   c0.031,0.828,0.368,3.209,3.149,4.223C275.906,115.327,273.831,117.872,275.906,120.839z" />
		<g>
			<path class="st4" d="M75.757,65.916c2.509-4.52,3.697-9.868,2.861-14.97c-0.705,1.532-1.598,2.977-2.652,4.293    c-1.533-1.427-3.247-2.66-5.089-3.658c1.705-0.999,2.928-2.655,3.873-4.391c1.239-2.277,2.084-5.004,1.221-7.45    c-4.646-0.233-8.914-2.968-11.833-6.589c-0.761-0.943-1.448-1.956-1.931-3.067c-1.639-3.773-0.54-8.555,2.582-11.233l4.489-0.253    c-5.984,7.764,2.988,11.013,5.522,11.03c0.609-2.226,4.338-5.739,4.338-5.739c-1.402-0.788-2.706-1.752-3.869-2.864    c0.874,0.104,1.747,0.208,2.62,0.311c0.339,0.04,0.706,0.075,0.999-0.1c0.303-0.179,0.452-0.555,0.435-0.908    c-0.018-0.352-0.178-0.683-0.374-0.976c-0.379-0.564-0.919-1.033-1.561-1.256c-0.641-0.225-1.631-0.311-2.21,0.044    c-0.148-0.229-0.295-0.456-0.442-0.684c-0.275-0.427-0.563-0.907-0.479-1.408c0.094-0.569,0.638-0.953,1.178-1.155    c1.082-0.405,2.334-0.328,3.358,0.205c0.158-0.417,0.604-0.67,1.046-0.728c0.443-0.057,0.889,0.045,1.323,0.147    c0.521,0.122,1.043,0.243,1.564,0.365c0.618,0.144,1.256,0.29,1.882,0.182c0.444-0.078,0.855-0.278,1.259-0.476l-1.186,1.539    c0.26,0.534,0.48,1.088,0.656,1.656c0.137,0.442,0.248,0.901,0.23,1.365c-0.016,0.42-0.138,0.828-0.259,1.232    c-0.271,0.904-0.542,1.808-0.814,2.713c-0.274,0.914-0.551,1.852-0.481,2.803c0.101,1.383,0.862,2.568,1.649,3.708    c2.533-0.016,11.505-3.264,5.521-11.03l4.489,0.253c3.122,2.679,4.221,7.46,2.582,11.233c-0.483,1.112-1.17,2.124-1.931,3.069    c-2.919,3.621-7.188,6.354-11.833,6.589c-0.863,2.445-0.018,5.171,1.221,7.449c0.945,1.736,2.168,3.391,3.873,4.39    c-1.842,0.999-3.557,2.231-5.09,3.659c-1.053-1.316-1.946-2.761-2.652-4.293c-0.835,5.102,0.352,10.45,2.862,14.97l-2.754,0.72    l-1.001-2.602h-1.247L78.7,66.613L75.757,65.916z" />
			<path class="st10" d="M106.8,94.316c-1.236,0-1.705-1.614-0.662-2.276l17.838-11.32c0.26-0.161,0.641-0.254,1.045-0.254    c0.404,0,0.785,0.093,1.045,0.254l17.543,11.323c1.033,0.668,0.561,2.271-0.67,2.271L106.8,94.316z" />
			<path class="st6" d="M106.8,94.316c-1.236,0-1.705-1.614-0.662-2.276l17.838-11.32c0.26-0.161,0.641-0.254,1.045-0.254    c0.404,0,0.785,0.093,1.045,0.254l17.543,11.323c1.033,0.668,0.561,2.271-0.67,2.271L106.8,94.316z" />
			<path class="st10" d="M104.553,122.633c-0.491,0-0.89-0.4-0.89-0.891v-2.67c0-0.49,0.399-0.889,0.89-0.889h40.936    c0.491,0,0.89,0.399,0.89,0.889v2.67c0,0.491-0.399,0.891-0.89,0.891H104.553z" />
			<path class="st6" d="M104.553,122.633c-0.491,0-0.89-0.4-0.89-0.891v-2.67c0-0.49,0.399-0.889,0.89-0.889h40.936    c0.491,0,0.89,0.399,0.89,0.889v2.67c0,0.491-0.399,0.891-0.89,0.891H104.553z" />
			<path class="st10" d="M139.26,113.733V94.478c0-0.056-0.011-0.107-0.016-0.162h-5.307c-0.005,0.055-0.016,0.106-0.016,0.162    v19.255H139.26z" />
			<path class="st6" d="M139.26,113.733V94.478c0-0.056-0.011-0.107-0.016-0.162h-5.307c-0.005,0.055-0.016,0.106-0.016,0.162v19.255    H139.26z" />
			<path class="st10" d="M127.691,113.733V94.478c0-0.056-0.011-0.107-0.016-0.162h-5.307c-0.005,0.055-0.016,0.106-0.016,0.162    v19.255H127.691z" />
			<path class="st6" d="M127.691,113.733V94.478c0-0.056-0.011-0.107-0.016-0.162h-5.307c-0.005,0.055-0.016,0.106-0.016,0.162    v19.255H127.691z" />
			<rect x="110.783" y="94.315" class="st10" width="5.339" height="19.418" />
			<rect x="110.783" y="94.315" class="st6" width="5.339" height="19.418" />
			<path class="st10" d="M107.223,118.183c-0.491,0-0.89-0.399-0.89-0.89v-2.67c0-0.49,0.399-0.889,0.89-0.889h35.596    c0.492,0,0.89,0.399,0.89,0.889v2.67c0,0.491-0.398,0.89-0.89,0.89H107.223z" />
			<path class="st6" d="M107.223,118.183c-0.491,0-0.89-0.399-0.89-0.89v-2.67c0-0.49,0.399-0.889,0.89-0.889h35.596    c0.492,0,0.89,0.399,0.89,0.889v2.67c0,0.491-0.398,0.89-0.89,0.89H107.223z" />
			<polygon class="st5" points="122.861,81.559 124.347,80.596 125.373,80.532 126.066,80.721 143.965,92.263 144.156,92.968     143.9,93.738 142.577,94.312   " />
			<path class="st5" d="M145.466,122.649h-40.954c-0.481,0-0.871-0.39-0.871-0.871v-0.847h42.696v0.847    C146.337,122.26,145.947,122.649,145.466,122.649" />
			<path class="st5" d="M142.88,118.034h-35.847c-0.481,0-0.871-0.391-0.871-0.871v-0.848h37.589v0.848    C143.751,117.644,143.361,118.034,142.88,118.034" />
			<rect x="137.114" y="94.378" class="st5" width="2.116" height="19.297" />
			<rect x="125.575" y="94.378" class="st5" width="2.116" height="19.297" />
			<rect x="113.907" y="94.378" class="st5" width="2.116" height="19.297" />
			<path class="st6" d="M106.8,94.316c-1.236,0-1.705-1.614-0.662-2.276l17.838-11.32c0.26-0.161,0.641-0.254,1.045-0.254    c0.404,0,0.785,0.093,1.045,0.254l17.543,11.323c1.033,0.668,0.561,2.271-0.67,2.271L106.8,94.316z" />
			<path class="st6" d="M104.553,122.633c-0.491,0-0.89-0.4-0.89-0.891v-2.67c0-0.49,0.399-0.889,0.89-0.889h40.936    c0.491,0,0.89,0.399,0.89,0.889v2.67c0,0.491-0.399,0.891-0.89,0.891H104.553z" />
			<path class="st6" d="M139.26,113.733V94.478c0-0.056-0.011-0.107-0.016-0.162h-5.307c-0.005,0.055-0.016,0.106-0.016,0.162v19.255    H139.26z" />
			<path class="st6" d="M127.691,113.733V94.478c0-0.056-0.011-0.107-0.016-0.162h-5.307c-0.005,0.055-0.016,0.106-0.016,0.162    v19.255H127.691z" />
			<rect x="110.783" y="94.315" class="st6" width="5.339" height="19.418" />
			<path class="st6" d="M107.223,118.183c-0.491,0-0.89-0.399-0.89-0.89v-2.67c0-0.49,0.399-0.889,0.89-0.889h35.596    c0.492,0,0.89,0.399,0.89,0.889v2.67c0,0.491-0.398,0.89-0.89,0.89H107.223z" />
			<path class="st10" d="M17.24,94.426c-1.235,0-1.705-1.614-0.661-2.276l17.838-11.32c0.26-0.161,0.64-0.253,1.044-0.253    c0.404,0,0.785,0.092,1.045,0.253l17.543,11.324c1.034,0.667,0.561,2.27-0.669,2.27L17.24,94.426z" />
			<path class="st6" d="M17.24,94.426c-1.235,0-1.705-1.614-0.661-2.276l17.838-11.32c0.26-0.161,0.64-0.253,1.044-0.253    c0.404,0,0.785,0.092,1.045,0.253l17.543,11.324c1.034,0.667,0.561,2.27-0.669,2.27L17.24,94.426z" />
			<path class="st10" d="M14.993,122.742c-0.491,0-0.89-0.399-0.89-0.891v-2.669c0-0.49,0.399-0.89,0.89-0.89h40.936    c0.491,0,0.89,0.4,0.89,0.89v2.669c0,0.492-0.399,0.891-0.89,0.891H14.993z" />
			<path class="st6" d="M14.993,122.742c-0.491,0-0.89-0.399-0.89-0.891v-2.669c0-0.49,0.399-0.89,0.89-0.89h40.936    c0.491,0,0.89,0.4,0.89,0.89v2.669c0,0.492-0.399,0.891-0.89,0.891H14.993z" />
			<path class="st10" d="M49.699,113.843V94.589c0-0.056-0.012-0.108-0.016-0.162h-5.307c-0.005,0.054-0.016,0.106-0.016,0.162    v19.254H49.699z" />
			<path class="st6" d="M49.699,113.843V94.589c0-0.056-0.012-0.108-0.016-0.162h-5.307c-0.005,0.054-0.016,0.106-0.016,0.162v19.254    H49.699z" />
			<path class="st10" d="M38.131,113.843V94.589c0-0.056-0.012-0.108-0.017-0.162h-5.306c-0.005,0.054-0.016,0.106-0.016,0.162    v19.254H38.131z" />
			<path class="st6" d="M38.131,113.843V94.589c0-0.056-0.012-0.108-0.017-0.162h-5.306c-0.005,0.054-0.016,0.106-0.016,0.162v19.254    H38.131z" />
			<rect x="21.223" y="94.426" class="st10" width="5.339" height="19.417" />
			<rect x="21.223" y="94.426" class="st6" width="5.339" height="19.417" />
			<path class="st10" d="M17.663,118.292c-0.491,0-0.89-0.399-0.89-0.89v-2.67c0-0.49,0.399-0.889,0.89-0.889h35.596    c0.491,0,0.89,0.399,0.89,0.889v2.67c0,0.491-0.399,0.89-0.89,0.89H17.663z" />
			<path class="st6" d="M17.663,118.292c-0.491,0-0.89-0.399-0.89-0.89v-2.67c0-0.49,0.399-0.889,0.89-0.889h35.596    c0.491,0,0.89,0.399,0.89,0.889v2.67c0,0.491-0.399,0.89-0.89,0.89H17.663z" />
			<polygon class="st5" points="33.301,81.668 34.787,80.705 35.813,80.641 36.506,80.83 54.404,92.372 54.596,93.077 54.34,93.847     53.017,94.421   " />
			<path class="st5" d="M55.906,122.759H14.952c-0.481,0-0.871-0.39-0.871-0.87v-0.848h42.696v0.848    C56.777,122.369,56.387,122.759,55.906,122.759" />
			<path class="st5" d="M53.32,118.144H17.474c-0.481,0-0.871-0.39-0.871-0.871v-0.847h37.588v0.847    C54.191,117.754,53.801,118.144,53.32,118.144" />
			<rect x="47.554" y="94.488" class="st5" width="2.116" height="19.296" />
			<rect x="36.014" y="94.488" class="st5" width="2.116" height="19.296" />
			<rect x="24.347" y="94.488" class="st5" width="2.116" height="19.296" />
			<path class="st6" d="M17.24,94.426c-1.235,0-1.705-1.614-0.661-2.276l17.838-11.32c0.26-0.161,0.64-0.253,1.044-0.253    c0.404,0,0.785,0.092,1.045,0.253l17.543,11.324c1.034,0.667,0.561,2.27-0.669,2.27L17.24,94.426z" />
			<path class="st6" d="M14.993,122.742c-0.491,0-0.89-0.399-0.89-0.891v-2.669c0-0.49,0.399-0.89,0.89-0.89h40.936    c0.491,0,0.89,0.4,0.89,0.89v2.669c0,0.492-0.399,0.891-0.89,0.891H14.993z" />
			<path class="st6" d="M49.699,113.843V94.589c0-0.056-0.012-0.108-0.016-0.162h-5.307c-0.005,0.054-0.016,0.106-0.016,0.162v19.254    H49.699z" />
			<path class="st6" d="M38.131,113.843V94.589c0-0.056-0.012-0.108-0.017-0.162h-5.306c-0.005,0.054-0.016,0.106-0.016,0.162v19.254    H38.131z" />
			<rect x="21.223" y="94.426" class="st6" width="5.339" height="19.417" />
			<path class="st6" d="M17.663,118.292c-0.491,0-0.89-0.399-0.89-0.89v-2.67c0-0.49,0.399-0.889,0.89-0.889h35.596    c0.491,0,0.89,0.399,0.89,0.889v2.67c0,0.491-0.399,0.89-0.89,0.89H17.663z" />
			<path class="st10" d="M62.02,109.378c-1.235,0-1.705-1.614-0.661-2.276l17.837-11.32c0.261-0.161,0.641-0.254,1.045-0.254    c0.404,0,0.785,0.093,1.045,0.254l17.543,11.323c1.034,0.668,0.561,2.271-0.669,2.271L62.02,109.378z" />
			<path class="st6" d="M62.02,109.378c-1.235,0-1.705-1.614-0.661-2.276l17.837-11.32c0.261-0.161,0.641-0.254,1.045-0.254    c0.404,0,0.785,0.093,1.045,0.254l17.543,11.323c1.034,0.668,0.561,2.271-0.669,2.271L62.02,109.378z" />
			<path class="st10" d="M59.773,137.693c-0.491,0-0.89-0.399-0.89-0.89v-2.67c0-0.49,0.399-0.889,0.89-0.889h40.936    c0.491,0,0.89,0.399,0.89,0.889v2.67c0,0.491-0.399,0.89-0.89,0.89H59.773z" />
			<path class="st6" d="M59.773,137.693c-0.491,0-0.89-0.399-0.89-0.89v-2.67c0-0.49,0.399-0.889,0.89-0.889h40.936    c0.491,0,0.89,0.399,0.89,0.889v2.67c0,0.491-0.399,0.89-0.89,0.89H59.773z" />
			<path class="st10" d="M94.48,128.795V109.54c0-0.056-0.012-0.107-0.017-0.162h-5.306c-0.005,0.055-0.017,0.106-0.017,0.162v19.255    H94.48z" />
			<path class="st6" d="M94.48,128.795V109.54c0-0.056-0.012-0.107-0.017-0.162h-5.306c-0.005,0.055-0.017,0.106-0.017,0.162v19.255    H94.48z" />
			<path class="st10" d="M82.911,128.795V109.54c0-0.056-0.012-0.107-0.017-0.162h-5.306c-0.005,0.055-0.017,0.106-0.017,0.162    v19.255H82.911z" />
			<path class="st6" d="M82.911,128.795V109.54c0-0.056-0.012-0.107-0.017-0.162h-5.306c-0.005,0.055-0.017,0.106-0.017,0.162v19.255    H82.911z" />
			<rect x="66.002" y="109.377" class="st10" width="5.34" height="19.418" />
			<rect x="66.002" y="109.377" class="st6" width="5.34" height="19.418" />
			<path class="st10" d="M62.443,133.244c-0.491,0-0.89-0.399-0.89-0.89v-2.67c0-0.49,0.399-0.889,0.89-0.889H98.04    c0.491,0,0.889,0.399,0.889,0.889v2.67c0,0.491-0.398,0.89-0.889,0.89H62.443z" />
			<path class="st6" d="M62.443,133.244c-0.491,0-0.89-0.399-0.89-0.89v-2.67c0-0.49,0.399-0.889,0.89-0.889H98.04    c0.491,0,0.889,0.399,0.889,0.889v2.67c0,0.491-0.398,0.89-0.889,0.89H62.443z" />
			<polygon class="st5" points="78.081,96.62 79.568,95.657 80.593,95.593 81.286,95.782 99.185,107.324 99.377,108.029     99.121,108.799 97.797,109.373   " />
			<path class="st5" d="M100.685,137.711H59.731c-0.481,0-0.87-0.39-0.87-0.871v-0.847h42.695v0.847    C101.556,137.321,101.166,137.711,100.685,137.711" />
			<path class="st5" d="M98.1,133.096H62.253c-0.481,0-0.87-0.391-0.87-0.871v-0.848h37.588v0.848    C98.971,132.705,98.581,133.096,98.1,133.096" />
			<rect x="92.334" y="109.439" class="st5" width="2.116" height="19.297" />
			<rect x="80.795" y="109.439" class="st5" width="2.116" height="19.297" />
			<rect x="69.127" y="109.439" class="st5" width="2.116" height="19.297" />
			<path class="st6" d="M62.02,109.378c-1.235,0-1.705-1.614-0.661-2.276l17.837-11.32c0.261-0.161,0.641-0.254,1.045-0.254    c0.404,0,0.785,0.093,1.045,0.254l17.543,11.323c1.034,0.668,0.561,2.271-0.669,2.271L62.02,109.378z" />
			<path class="st6" d="M59.773,137.693c-0.491,0-0.89-0.399-0.89-0.89v-2.67c0-0.49,0.399-0.889,0.89-0.889h40.936    c0.491,0,0.89,0.399,0.89,0.889v2.67c0,0.491-0.399,0.89-0.89,0.89H59.773z" />
			<path class="st6" d="M94.48,128.795V109.54c0-0.056-0.012-0.107-0.017-0.162h-5.306c-0.005,0.055-0.017,0.106-0.017,0.162v19.255    H94.48z" />
			<path class="st6" d="M82.911,128.795V109.54c0-0.056-0.012-0.107-0.017-0.162h-5.306c-0.005,0.055-0.017,0.106-0.017,0.162v19.255    H82.911z" />
			<rect x="66.002" y="109.377" class="st6" width="5.34" height="19.418" />
			<path class="st6" d="M62.443,133.244c-0.491,0-0.89-0.399-0.89-0.89v-2.67c0-0.49,0.399-0.889,0.89-0.889H98.04    c0.491,0,0.889,0.399,0.889,0.889v2.67c0,0.491-0.398,0.89-0.889,0.89H62.443z" />
			<path class="st5" d="M92.995,21.773c1.552,2.129,2.13,4.941,1.542,7.51c-0.308,1.349-0.913,2.608-1.514,3.855    c-0.641,1.33-1.283,2.661-1.924,3.992c0.271,0.281,0.741,0.075,1.061-0.15c2.082-1.457,3.967-3.259,5.213-5.474    c1.247-2.213,1.81-4.873,1.227-7.345c-0.387-1.646-1.25-3.133-2.118-4.583c-0.287-0.479-0.621-0.993-1.154-1.156    c-0.487-0.148-1.003,0.038-1.503,0.138c-0.499,0.1-1.111,0.066-1.389-0.362c-0.563,1.415-0.35,3.113,0.546,4.345" />
			<path class="st5" d="M64.788,18.851c-0.879,0.684-1.611,1.82-2.216,2.757c-0.145,0.223-0.53,0.645-0.548,0.911    c-0.023,0.341-0.29,0.163-0.118,0.458l1.529,2.625c0.902,1.549,1.848,3.146,3.312,4.181c2.075,1.464,5.062,1.487,7.159,0.053    c-1.245-0.418-2.453-0.943-3.608-1.568c-1.215-0.657-2.436-1.503-2.959-2.782c-0.755-1.848,0.169-3.9,0.838-5.781    c0.114-0.32,0.21-0.712-0.01-0.973c-0.108-0.128-0.271-0.193-0.429-0.247c-1.02-0.351-2.13-0.438-3.192-0.251" />
			<path class="st5" d="M84.057,15.693c0.16,0.104,0.286,0.253,0.397,0.409c0.996,1.391,0.907,3.334,0.215,4.899    c-0.691,1.565-1.895,2.837-3.076,4.075l-4.113,4.312c-0.338,0.355-0.691,0.719-1.146,0.902c-0.454,0.182-1.042,0.13-1.346-0.254    c-0.506-0.638,0.072-1.544,0.627-2.14c0.852-0.916,1.705-1.832,2.558-2.748c0.4-0.429,0.81-1.101,0.418-1.538    c-0.155-0.171-0.391-0.237-0.612-0.305c-0.427-0.131-0.861-0.31-1.153-0.648c-0.292-0.339-0.396-0.876-0.13-1.235    c0.527-0.712,1.945-0.234,2.344-1.025c0.2-0.395-0.012-0.876-0.29-1.22c-0.672-0.833-1.764-1.307-2.832-1.231    c-0.254,0.018-0.533,0.06-0.743-0.084c-0.126-0.087-0.599-0.764-0.656-0.906c-0.496-1.257,1.109-2.294,2.451-2.135    c0.366,0.044,0.719,0.19,1.088,0.186c0.635-0.006,1.174-0.447,1.775-0.651c1.44-0.488,2.945,0.423,4.193,1.292" />
			<path class="st5" d="M83.928,39.524c-0.505-0.319-1.114,0.222-1.421,0.734c-1.272,2.121-1.621,4.775-0.942,7.153    c0.134,0.467,0.306,0.933,0.31,1.42c0.003,0.439-0.132,0.866-0.179,1.302c-0.164,1.514,0.718,2.921,1.563,4.188    c0.173,0.26,0.364,0.533,0.655,0.645c0.651,0.249,1.25-0.421,1.701-0.953c0.912-1.072,2.144-1.87,3.497-2.261    c-0.913-1.148-1.825-2.295-2.737-3.443c-0.392-0.493-0.788-0.992-1.053-1.563c-0.306-0.66-0.425-1.389-0.541-2.108    c-0.261-1.617-0.521-3.235-0.782-4.852c-0.03-0.187,0.225-0.436,0.247-0.249" />
			<line class="st7" x1="61.369" y1="27.595" x2="54.84" y2="37.081" />
			<line class="st7" x1="63.284" y1="32.352" x2="55.577" y2="43.548" />
			<line class="st7" x1="66.311" y1="35.663" x2="57.595" y2="48.326" />
			<line class="st7" x1="69.696" y1="38.097" x2="59.931" y2="52.284" />
			<line class="st7" x1="74.182" y1="39.699" x2="62.849" y2="56.164" />
			<line class="st7" x1="73.361" y1="53.124" x2="66.901" y2="62.51" />
			<line class="st7" x1="65.288" y1="58.063" x2="75.546" y2="57.921" />
			<line class="st7" x1="70.489" y1="57.991" x2="71.273" y2="63.834" />
			<line class="st7" x1="63.064" y1="18.649" x2="71.842" y2="18.206" />
			<line class="st7" x1="99.091" y1="27.571" x2="105.62" y2="37.057" />
			<line class="st7" x1="97.176" y1="32.327" x2="104.883" y2="43.524" />
			<line class="st7" x1="94.149" y1="35.639" x2="102.865" y2="48.302" />
			<line class="st7" x1="90.764" y1="38.073" x2="100.529" y2="52.259" />
			<line class="st7" x1="86.278" y1="39.675" x2="97.611" y2="56.14" />
			<line class="st7" x1="87.099" y1="53.1" x2="93.559" y2="62.486" />
			<path class="st7" d="M75.757,65.916c2.509-4.52,3.697-9.868,2.861-14.97c-0.705,1.532-1.598,2.977-2.652,4.293    c-1.533-1.427-3.247-2.66-5.089-3.658c1.705-0.999,2.928-2.655,3.873-4.391c1.239-2.277,2.084-5.004,1.221-7.45    c-4.646-0.233-8.914-2.968-11.833-6.589c-0.761-0.943-1.448-1.956-1.931-3.067c-1.639-3.773-0.54-8.555,2.582-11.233" />
			<path class="st7" d="M95.672,18.826c3.122,2.679,4.221,7.46,2.582,11.233c-0.483,1.112-1.17,2.124-1.931,3.069    c-2.919,3.621-7.188,6.354-11.833,6.589c-0.863,2.445-0.018,5.171,1.221,7.449c0.945,1.736,2.168,3.391,3.873,4.39    c-1.842,0.999-3.557,2.231-5.09,3.659c-1.053-1.316-1.946-2.761-2.652-4.293c-0.835,5.102,0.352,10.45,2.862,14.97" />
			<line class="st7" x1="95.172" y1="58.039" x2="84.914" y2="57.897" />
			<line class="st7" x1="89.971" y1="57.967" x2="89.187" y2="63.81" />
			<path class="st7" d="M91.182,18.573c5.984,7.766-2.988,11.014-5.521,11.03c-0.787-1.14-1.548-2.325-1.649-3.708    c-0.07-0.951,0.207-1.889,0.481-2.803c0.272-0.905,0.543-1.809,0.814-2.713c0.121-0.404,0.243-0.812,0.259-1.232    c0.018-0.464-0.093-0.923-0.23-1.365c-0.176-0.568-0.396-1.122-0.656-1.656" />
			<line class="st7" x1="97.201" y1="18.586" x2="88.618" y2="18.182" />
			<path class="st7" d="M85.866,14.588c-0.404,0.198-0.815,0.398-1.259,0.476c-0.626,0.108-1.264-0.038-1.882-0.182    c-0.521-0.122-1.043-0.243-1.564-0.365c-0.434-0.102-0.88-0.204-1.323-0.147c-0.442,0.058-0.888,0.311-1.046,0.728    c-1.024-0.533-2.276-0.61-3.358-0.205c-0.54,0.202-1.084,0.586-1.178,1.155c-0.084,0.501,0.204,0.981,0.479,1.408    c0.147,0.228,0.294,0.455,0.442,0.684c0.579-0.355,1.569-0.269,2.21-0.044c0.642,0.223,1.182,0.692,1.561,1.256    c0.196,0.293,0.356,0.624,0.374,0.976c0.017,0.353-0.132,0.729-0.435,0.908c-0.293,0.175-0.66,0.14-0.999,0.1    c-0.873-0.103-1.746-0.207-2.62-0.311c1.163,1.112,2.467,2.076,3.869,2.864c0,0-3.729,3.513-4.338,5.739    c-2.534-0.017-11.506-3.266-5.522-11.03" />
			<path class="st7" d="M81.958,17.493c0,0.079-0.063,0.143-0.143,0.143c-0.078,0-0.142-0.064-0.142-0.143    c0-0.078,0.064-0.142,0.142-0.142C81.895,17.352,81.958,17.415,81.958,17.493z" />
			<path class="st7" d="M79.701,64.011c-0.23,0.902-0.566,1.778-1.001,2.602" />
			<path class="st7" d="M80.948,64.011c0.23,0.902,0.566,1.778,1.001,2.602" />
			<line class="st7" x1="62.447" y1="63.718" x2="48.08" y2="78.305" />
			<polyline class="st7" points="48.079,73.351 47.639,78.526 53.033,78.195   " />
			<line class="st7" x1="99.527" y1="63.718" x2="113.894" y2="78.305" />
			<polyline class="st7" points="113.894,73.351 114.334,78.526 108.94,78.195   " />
			<line class="st7" x1="80.398" y1="71.851" x2="80.398" y2="90.576" />
			<polyline class="st7" points="83.769,87.06 80.398,91.041 76.84,87.006   " />
		</g>
		<g>
			<path class="st8" d="M124.527,333.279h-5.969v-10.708h5.969v1.106h-4.724v3.449h4.438v1.099h-4.438v3.94h4.724V333.279z" />
			<path class="st8" d="M127.859,325.251v5.207c0,0.655,0.149,1.143,0.447,1.465s0.764,0.484,1.399,0.484    c0.84,0,1.454-0.229,1.842-0.689c0.389-0.458,0.583-1.208,0.583-2.248v-4.219h1.216v8.027h-1.003l-0.176-1.076H132.1    c-0.249,0.395-0.595,0.698-1.037,0.908c-0.442,0.209-0.946,0.314-1.512,0.314c-0.977,0-1.708-0.231-2.194-0.695    s-0.729-1.206-0.729-2.227v-5.252H127.859z" />
			<path class="st8" d="M139.585,325.105c0.356,0,0.676,0.029,0.959,0.088l-0.168,1.128c-0.332-0.073-0.625-0.11-0.879-0.11    c-0.649,0-1.205,0.264-1.666,0.791c-0.462,0.527-0.692,1.185-0.692,1.971v4.307h-1.216v-8.027h1.003l0.139,1.486h0.059    c0.298-0.521,0.657-0.925,1.077-1.208S139.083,325.105,139.585,325.105z" />
			<path class="st8" d="M148.975,329.257c0,1.31-0.33,2.331-0.989,3.065c-0.659,0.735-1.57,1.103-2.732,1.103    c-0.718,0-1.355-0.168-1.912-0.506c-0.557-0.336-0.986-0.82-1.289-1.449c-0.303-0.631-0.454-1.367-0.454-2.213    c0-1.308,0.327-2.327,0.981-3.058c0.654-0.729,1.562-1.095,2.725-1.095c1.123,0,2.015,0.373,2.677,1.121    C148.644,326.972,148.975,327.984,148.975,329.257z M142.859,329.257c0,1.025,0.205,1.808,0.615,2.344    c0.41,0.538,1.013,0.807,1.809,0.807s1.4-0.268,1.812-0.803c0.413-0.534,0.619-1.316,0.619-2.348c0-1.02-0.207-1.795-0.619-2.325    c-0.413-0.529-1.021-0.794-1.827-0.794c-0.796,0-1.396,0.261-1.802,0.783S142.859,328.223,142.859,329.257z" />
			<path class="st8" d="M154.842,333.425c-0.522,0-1-0.097-1.432-0.289c-0.433-0.193-0.795-0.489-1.088-0.891h-0.088    c0.059,0.469,0.088,0.914,0.088,1.334v3.303h-1.216v-11.631h0.989l0.168,1.099h0.059c0.312-0.439,0.676-0.757,1.091-0.952    s0.891-0.293,1.428-0.293c1.064,0,1.886,0.364,2.465,1.092c0.578,0.728,0.868,1.748,0.868,3.061c0,1.318-0.294,2.343-0.882,3.073    C156.703,333.06,155.887,333.425,154.842,333.425z M154.666,326.138c-0.82,0-1.414,0.227-1.78,0.681s-0.554,1.177-0.564,2.168    v0.271c0,1.129,0.188,1.936,0.564,2.421c0.376,0.486,0.979,0.729,1.809,0.729c0.693,0,1.236-0.281,1.63-0.843    c0.393-0.562,0.589-1.335,0.589-2.321c0-1.001-0.197-1.77-0.589-2.304C155.932,326.405,155.379,326.138,154.666,326.138z" />
			<path class="st8" d="M165.234,333.279l-0.241-1.143h-0.059c-0.4,0.503-0.8,0.844-1.198,1.021c-0.397,0.179-0.895,0.268-1.49,0.268    c-0.796,0-1.419-0.205-1.871-0.615c-0.452-0.41-0.678-0.993-0.678-1.75c0-1.621,1.296-2.471,3.889-2.549l1.362-0.045v-0.498    c0-0.629-0.136-1.095-0.407-1.395c-0.271-0.301-0.704-0.451-1.3-0.451c-0.669,0-1.426,0.205-2.27,0.615l-0.374-0.93    c0.396-0.215,0.828-0.383,1.3-0.506c0.471-0.121,0.943-0.183,1.417-0.183c0.957,0,1.666,0.212,2.128,0.638    c0.461,0.424,0.692,1.105,0.692,2.043v5.479H165.234z M162.488,332.421c0.757,0,1.351-0.207,1.783-0.622    c0.432-0.415,0.648-0.996,0.648-1.743v-0.725l-1.216,0.051c-0.967,0.034-1.664,0.185-2.092,0.45    c-0.427,0.267-0.64,0.681-0.64,1.241c0,0.439,0.132,0.774,0.399,1.004C161.637,332.307,162.01,332.421,162.488,332.421z     M161.053,323.076c0-0.253,0.064-0.437,0.193-0.549c0.13-0.112,0.285-0.168,0.466-0.168c0.186,0,0.345,0.056,0.479,0.168    c0.134,0.112,0.201,0.296,0.201,0.549c0,0.245-0.067,0.427-0.201,0.546c-0.135,0.12-0.294,0.18-0.479,0.18    c-0.181,0-0.336-0.06-0.466-0.18C161.117,323.502,161.053,323.321,161.053,323.076z M163.843,323.076    c0-0.253,0.064-0.437,0.194-0.549c0.129-0.112,0.284-0.168,0.465-0.168s0.338,0.056,0.473,0.168    c0.134,0.112,0.201,0.296,0.201,0.549c0,0.245-0.067,0.427-0.201,0.546c-0.135,0.12-0.292,0.18-0.473,0.18s-0.336-0.06-0.465-0.18    C163.907,323.502,163.843,323.321,163.843,323.076z" />
			<path class="st8" d="M168.538,323.076c0-0.277,0.068-0.481,0.205-0.611c0.137-0.129,0.308-0.193,0.513-0.193    c0.195,0,0.363,0.065,0.505,0.197s0.213,0.335,0.213,0.607c0,0.274-0.071,0.478-0.213,0.612c-0.142,0.134-0.31,0.201-0.505,0.201    c-0.205,0-0.376-0.067-0.513-0.201C168.606,323.553,168.538,323.35,168.538,323.076z M169.856,333.279h-1.216v-8.027h1.216    V333.279z" />
			<path class="st8" d="M177.612,331.089c0,0.746-0.278,1.323-0.835,1.729s-1.338,0.607-2.344,0.607c-1.064,0-1.895-0.168-2.49-0.506    v-1.127c0.386,0.195,0.8,0.349,1.242,0.461c0.441,0.112,0.867,0.168,1.277,0.168c0.635,0,1.123-0.101,1.465-0.304    c0.342-0.202,0.513-0.511,0.513-0.927c0-0.312-0.135-0.579-0.406-0.802c-0.271-0.222-0.8-0.484-1.586-0.787    c-0.747-0.278-1.277-0.521-1.593-0.729c-0.314-0.208-0.549-0.443-0.703-0.707c-0.153-0.264-0.23-0.579-0.23-0.944    c0-0.654,0.266-1.171,0.798-1.55c0.532-0.378,1.263-0.567,2.19-0.567c0.864,0,1.709,0.176,2.534,0.527l-0.433,0.988    c-0.806-0.331-1.535-0.498-2.189-0.498c-0.576,0-1.011,0.091-1.304,0.271s-0.439,0.43-0.439,0.747c0,0.215,0.055,0.398,0.165,0.55    c0.109,0.151,0.286,0.295,0.53,0.432s0.713,0.335,1.406,0.594c0.952,0.347,1.596,0.695,1.931,1.047    C177.445,330.115,177.612,330.557,177.612,331.089z" />
			<path class="st8" d="M182.798,333.425c-1.162,0-2.062-0.357-2.699-1.073c-0.637-0.715-0.955-1.727-0.955-3.036    c0-1.342,0.323-2.38,0.97-3.112c0.647-0.732,1.569-1.099,2.766-1.099c0.386,0,0.771,0.042,1.157,0.125s0.688,0.181,0.908,0.293    l-0.374,1.032c-0.269-0.107-0.562-0.196-0.879-0.268c-0.317-0.07-0.598-0.106-0.842-0.106c-1.631,0-2.446,1.041-2.446,3.121    c0,0.986,0.198,1.742,0.597,2.27c0.397,0.527,0.987,0.791,1.769,0.791c0.669,0,1.355-0.144,2.059-0.432v1.076    C184.29,333.286,183.613,333.425,182.798,333.425z" />
			<path class="st8" d="M192.225,333.279v-5.193c0-0.653-0.149-1.143-0.447-1.465s-0.764-0.482-1.398-0.482    c-0.845,0-1.461,0.229-1.85,0.688c-0.388,0.46-0.582,1.212-0.582,2.256v4.197h-1.216v-11.396h1.216v3.449    c0,0.416-0.02,0.76-0.059,1.033h0.073c0.239-0.386,0.579-0.689,1.021-0.912c0.441-0.222,0.946-0.333,1.513-0.333    c0.981,0,1.718,0.233,2.208,0.699c0.491,0.467,0.735,1.208,0.735,2.224v5.236H192.225z" />
			<path class="st8" d="M199.328,333.425c-1.186,0-2.122-0.361-2.809-1.084c-0.686-0.723-1.029-1.726-1.029-3.01    c0-1.294,0.319-2.322,0.956-3.084c0.638-0.762,1.493-1.143,2.567-1.143c1.006,0,1.802,0.331,2.388,0.992    c0.586,0.662,0.879,1.535,0.879,2.619v0.769h-5.53c0.024,0.942,0.263,1.658,0.715,2.146c0.451,0.489,1.088,0.732,1.908,0.732    c0.863,0,1.718-0.18,2.562-0.541v1.084c-0.43,0.186-0.836,0.318-1.219,0.398C200.333,333.385,199.871,333.425,199.328,333.425z     M198.999,326.122c-0.645,0-1.158,0.211-1.542,0.631c-0.383,0.42-0.609,1.001-0.678,1.742h4.197c0-0.766-0.171-1.354-0.513-1.761    C200.122,326.327,199.634,326.122,198.999,326.122z" />
			<path class="st8" d="M107.553,343.571h3.025c1.421,0,2.449,0.212,3.083,0.638c0.635,0.424,0.952,1.096,0.952,2.014    c0,0.635-0.177,1.158-0.531,1.571c-0.354,0.412-0.871,0.68-1.549,0.802v0.073c1.626,0.278,2.439,1.133,2.439,2.563    c0,0.957-0.324,1.704-0.971,2.241s-1.551,0.806-2.713,0.806h-3.735V343.571z M108.798,348.156h2.051    c0.879,0,1.511-0.138,1.897-0.414c0.386-0.275,0.579-0.74,0.579-1.395c0-0.602-0.215-1.034-0.645-1.301    c-0.43-0.266-1.113-0.398-2.051-0.398h-1.831V348.156z M108.798,349.21v4.006h2.234c0.864,0,1.515-0.167,1.952-0.501    c0.437-0.335,0.655-0.858,0.655-1.571c0-0.664-0.224-1.152-0.67-1.465c-0.447-0.312-1.127-0.469-2.04-0.469H108.798z" />
			<path class="st8" d="M122.025,354.279l-0.242-1.143h-0.059c-0.4,0.503-0.8,0.844-1.198,1.021c-0.398,0.179-0.895,0.268-1.49,0.268    c-0.796,0-1.42-0.205-1.871-0.615c-0.452-0.41-0.678-0.993-0.678-1.75c0-1.621,1.296-2.471,3.889-2.549l1.362-0.045v-0.498    c0-0.629-0.135-1.095-0.407-1.395c-0.271-0.301-0.704-0.451-1.3-0.451c-0.669,0-1.426,0.205-2.271,0.615l-0.374-0.93    c0.396-0.215,0.829-0.383,1.3-0.506c0.471-0.121,0.943-0.183,1.417-0.183c0.957,0,1.666,0.212,2.128,0.638    c0.461,0.424,0.692,1.105,0.692,2.043v5.479H122.025z M119.279,353.421c0.757,0,1.351-0.207,1.784-0.622    c0.432-0.415,0.648-0.996,0.648-1.743v-0.725l-1.216,0.051c-0.967,0.034-1.664,0.185-2.091,0.45    c-0.427,0.267-0.641,0.681-0.641,1.241c0,0.439,0.133,0.774,0.399,1.004C118.428,353.307,118.8,353.421,119.279,353.421z" />
			<path class="st8" d="M130.924,354.279v-5.193c0-0.653-0.149-1.143-0.447-1.465s-0.764-0.482-1.399-0.482    c-0.84,0-1.455,0.227-1.846,0.681s-0.586,1.204-0.586,2.249v4.211h-1.216v-8.027h0.989l0.198,1.099h0.059    c0.249-0.396,0.598-0.702,1.047-0.919c0.449-0.218,0.95-0.326,1.501-0.326c0.967,0,1.694,0.233,2.183,0.699    c0.488,0.467,0.732,1.213,0.732,2.238v5.236H130.924z" />
			<path class="st8" d="M135.839,350.169c0.21-0.297,0.53-0.688,0.959-1.172l2.593-2.746h1.443l-3.252,3.42l3.479,4.607h-1.472    l-2.834-3.794l-0.916,0.791v3.003h-1.201v-11.396h1.201v6.043c0,0.269-0.02,0.684-0.059,1.244H135.839z" />
			<path class="st8" d="M145.902,354.425c-1.187,0-2.123-0.361-2.809-1.084s-1.029-1.726-1.029-3.01c0-1.294,0.319-2.322,0.956-3.084    c0.638-0.762,1.493-1.143,2.567-1.143c1.006,0,1.802,0.331,2.388,0.992c0.586,0.662,0.879,1.535,0.879,2.619v0.769h-5.53    c0.024,0.942,0.262,1.658,0.714,2.146c0.451,0.489,1.087,0.732,1.908,0.732c0.864,0,1.719-0.18,2.563-0.541v1.084    c-0.43,0.186-0.836,0.318-1.219,0.398C146.907,354.385,146.444,354.425,145.902,354.425z M145.573,347.122    c-0.645,0-1.159,0.211-1.542,0.631s-0.609,1.001-0.677,1.742h4.197c0-0.766-0.171-1.354-0.513-1.761    C146.696,347.327,146.208,347.122,145.573,347.122z" />
			<path class="st8" d="M156.42,354.279v-5.193c0-0.653-0.149-1.143-0.447-1.465s-0.764-0.482-1.399-0.482    c-0.84,0-1.455,0.227-1.846,0.681s-0.586,1.204-0.586,2.249v4.211h-1.216v-8.027h0.989l0.198,1.099h0.059    c0.249-0.396,0.598-0.702,1.047-0.919c0.449-0.218,0.95-0.326,1.501-0.326c0.967,0,1.694,0.233,2.183,0.699    c0.488,0.467,0.732,1.213,0.732,2.238v5.236H156.42z" />
			<path class="st8" d="M165.069,354.279l-0.241-1.143h-0.059c-0.4,0.503-0.8,0.844-1.198,1.021c-0.397,0.179-0.895,0.268-1.49,0.268    c-0.796,0-1.419-0.205-1.871-0.615c-0.452-0.41-0.678-0.993-0.678-1.75c0-1.621,1.296-2.471,3.889-2.549l1.362-0.045v-0.498    c0-0.629-0.136-1.095-0.407-1.395c-0.271-0.301-0.704-0.451-1.3-0.451c-0.669,0-1.426,0.205-2.27,0.615l-0.374-0.93    c0.396-0.215,0.828-0.383,1.3-0.506c0.471-0.121,0.943-0.183,1.417-0.183c0.957,0,1.666,0.212,2.128,0.638    c0.461,0.424,0.692,1.105,0.692,2.043v5.479H165.069z M162.323,353.421c0.757,0,1.351-0.207,1.783-0.622    c0.432-0.415,0.648-0.996,0.648-1.743v-0.725l-1.216,0.051c-0.967,0.034-1.664,0.185-2.092,0.45    c-0.427,0.267-0.64,0.681-0.64,1.241c0,0.439,0.133,0.774,0.399,1.004C161.472,353.307,161.845,353.421,162.323,353.421z" />
			<path class="st8" d="M169.618,346.251v5.207c0,0.655,0.148,1.143,0.446,1.465s0.765,0.484,1.399,0.484    c0.84,0,1.454-0.229,1.842-0.689c0.389-0.458,0.582-1.208,0.582-2.248v-4.219h1.216v8.027h-1.003l-0.176-1.076h-0.066    c-0.249,0.395-0.595,0.698-1.036,0.908c-0.442,0.209-0.946,0.314-1.513,0.314c-0.977,0-1.708-0.231-2.193-0.695    c-0.486-0.464-0.729-1.206-0.729-2.227v-5.252H169.618z" />
			<path class="st8" d="M181.3,347.197h-2.043v7.082h-1.216v-7.082h-1.436v-0.55l1.436-0.439v-0.446c0-1.973,0.861-2.959,2.585-2.959    c0.425,0,0.923,0.085,1.494,0.256l-0.314,0.975c-0.469-0.151-0.869-0.228-1.201-0.228c-0.459,0-0.799,0.152-1.019,0.458    c-0.22,0.305-0.329,0.795-0.329,1.469v0.52h2.043V347.197z" />
			<path class="st8" d="M187.943,352.089c0,0.746-0.278,1.323-0.835,1.729s-1.338,0.607-2.344,0.607c-1.064,0-1.895-0.168-2.49-0.506    v-1.127c0.386,0.195,0.799,0.349,1.241,0.461c0.441,0.112,0.868,0.168,1.278,0.168c0.635,0,1.123-0.101,1.465-0.304    c0.342-0.202,0.513-0.511,0.513-0.927c0-0.312-0.136-0.579-0.407-0.802c-0.271-0.222-0.799-0.484-1.585-0.787    c-0.747-0.278-1.278-0.521-1.594-0.729c-0.314-0.208-0.549-0.443-0.703-0.707c-0.153-0.264-0.23-0.579-0.23-0.944    c0-0.654,0.267-1.171,0.799-1.55c0.532-0.378,1.262-0.567,2.189-0.567c0.864,0,1.709,0.176,2.534,0.527l-0.432,0.988    c-0.806-0.331-1.536-0.498-2.19-0.498c-0.576,0-1.011,0.091-1.304,0.271s-0.439,0.43-0.439,0.747c0,0.215,0.055,0.398,0.165,0.55    c0.109,0.151,0.287,0.295,0.531,0.432s0.713,0.335,1.406,0.594c0.952,0.347,1.595,0.695,1.93,1.047    C187.775,351.115,187.943,351.557,187.943,352.089z" />
			<path class="st8" d="M189.818,344.076c0-0.277,0.068-0.481,0.205-0.611c0.137-0.129,0.308-0.193,0.513-0.193    c0.195,0,0.363,0.065,0.505,0.197s0.213,0.335,0.213,0.607c0,0.274-0.071,0.478-0.213,0.612c-0.142,0.134-0.31,0.201-0.505,0.201    c-0.205,0-0.376-0.067-0.513-0.201C189.887,344.553,189.818,344.35,189.818,344.076z M191.137,354.279h-1.216v-8.027h1.216    V354.279z" />
			<path class="st8" d="M196.922,354.425c-1.162,0-2.061-0.357-2.699-1.073c-0.637-0.715-0.955-1.727-0.955-3.036    c0-1.342,0.324-2.38,0.971-3.112s1.568-1.099,2.766-1.099c0.385,0,0.77,0.042,1.156,0.125c0.385,0.083,0.689,0.181,0.908,0.293    l-0.373,1.032c-0.27-0.107-0.562-0.196-0.879-0.268c-0.318-0.07-0.6-0.106-0.842-0.106c-1.633,0-2.447,1.041-2.447,3.121    c0,0.986,0.199,1.742,0.598,2.27c0.396,0.527,0.986,0.791,1.768,0.791c0.67,0,1.355-0.144,2.059-0.432v1.076    C198.414,354.286,197.738,354.425,196.922,354.425z" />
			<path class="st8" d="M206.349,354.279v-5.193c0-0.653-0.149-1.143-0.446-1.465c-0.299-0.322-0.765-0.482-1.399-0.482    c-0.845,0-1.461,0.229-1.85,0.688c-0.388,0.46-0.582,1.212-0.582,2.256v4.197h-1.216v-11.396h1.216v3.449    c0,0.416-0.02,0.76-0.059,1.033h0.073c0.239-0.386,0.58-0.689,1.021-0.912c0.442-0.222,0.946-0.333,1.513-0.333    c0.981,0,1.718,0.233,2.208,0.699c0.491,0.467,0.736,1.208,0.736,2.224v5.236H206.349z" />
			<path class="st8" d="M212.655,353.421c0.215,0,0.422-0.016,0.622-0.047c0.2-0.032,0.359-0.064,0.477-0.1v0.931    c-0.132,0.063-0.326,0.116-0.582,0.157c-0.257,0.042-0.487,0.062-0.692,0.062c-1.553,0-2.329-0.817-2.329-2.453v-4.775H209v-0.586    l1.15-0.506l0.513-1.714h0.703v1.86h2.329v0.945h-2.329v4.724c0,0.483,0.114,0.854,0.345,1.113    C211.939,353.292,212.255,353.421,212.655,353.421z" />
		</g>
		<path class="st10" d="M186.57,266.443c-1.235,0-1.704-1.614-0.661-2.276l17.838-11.32c0.26-0.161,0.64-0.254,1.044-0.254   c0.404,0,0.785,0.093,1.045,0.254l17.543,11.323c1.034,0.668,0.561,2.271-0.669,2.271L186.57,266.443z" />
		<path class="st6" d="M186.57,266.443c-1.235,0-1.704-1.614-0.661-2.276l17.838-11.32c0.26-0.161,0.64-0.254,1.044-0.254   c0.404,0,0.785,0.093,1.045,0.254l17.543,11.323c1.034,0.668,0.561,2.271-0.669,2.271L186.57,266.443z" />
		<path class="st10" d="M184.323,294.76c-0.491,0-0.89-0.4-0.89-0.891v-2.67c0-0.49,0.399-0.889,0.89-0.889h40.937   c0.491,0,0.889,0.399,0.889,0.889v2.67c0,0.491-0.398,0.891-0.889,0.891H184.323z" />
		<path class="st6" d="M184.323,294.76c-0.491,0-0.89-0.4-0.89-0.891v-2.67c0-0.49,0.399-0.889,0.89-0.889h40.937   c0.491,0,0.889,0.399,0.889,0.889v2.67c0,0.491-0.398,0.891-0.889,0.891H184.323z" />
		<path class="st10" d="M219.03,285.86v-19.255c0-0.056-0.012-0.107-0.017-0.162h-5.306c-0.005,0.055-0.017,0.106-0.017,0.162v19.255   H219.03z" />
		<path class="st6" d="M219.03,285.86v-19.255c0-0.056-0.012-0.107-0.017-0.162h-5.306c-0.005,0.055-0.017,0.106-0.017,0.162v19.255   H219.03z" />
		<path class="st10" d="M207.461,285.86v-19.255c0-0.056-0.012-0.107-0.016-0.162h-5.307c-0.005,0.055-0.016,0.106-0.016,0.162   v19.255H207.461z" />
		<path class="st6" d="M207.461,285.86v-19.255c0-0.056-0.012-0.107-0.016-0.162h-5.307c-0.005,0.055-0.016,0.106-0.016,0.162v19.255   H207.461z" />
		<rect x="190.552" y="266.442" class="st10" width="5.34" height="19.418" />
		<rect x="190.552" y="266.442" class="st6" width="5.34" height="19.418" />
		<path class="st10" d="M186.993,290.309c-0.491,0-0.89-0.399-0.89-0.89v-2.67c0-0.49,0.399-0.889,0.89-0.889h35.597   c0.491,0,0.889,0.399,0.889,0.889v2.67c0,0.491-0.398,0.89-0.889,0.89H186.993z" />
		<path class="st6" d="M186.993,290.309c-0.491,0-0.89-0.399-0.89-0.89v-2.67c0-0.49,0.399-0.889,0.89-0.889h35.597   c0.491,0,0.889,0.399,0.889,0.889v2.67c0,0.491-0.398,0.89-0.889,0.89H186.993z" />
		<polygon class="st5" points="202.632,253.685 204.118,252.722 205.144,252.658 205.836,252.847 223.735,264.389 223.927,265.095    223.671,265.865 222.348,266.439  " />
		<path class="st5" d="M225.236,294.776h-40.954c-0.481,0-0.871-0.39-0.871-0.871v-0.847h42.695v0.847   C226.106,294.387,225.716,294.776,225.236,294.776" />
		<path class="st5" d="M222.65,290.161h-35.847c-0.48,0-0.871-0.391-0.871-0.871v-0.848h37.589v0.848   C223.521,289.77,223.13,290.161,222.65,290.161" />
		<rect x="216.884" y="266.505" class="st5" width="2.116" height="19.297" />
		<rect x="205.344" y="266.505" class="st5" width="2.116" height="19.297" />
		<rect x="193.677" y="266.505" class="st5" width="2.116" height="19.297" />
		<path class="st6" d="M186.57,266.443c-1.235,0-1.704-1.614-0.661-2.276l17.838-11.32c0.26-0.161,0.64-0.254,1.044-0.254   c0.404,0,0.785,0.093,1.045,0.254l17.543,11.323c1.034,0.668,0.561,2.271-0.669,2.271L186.57,266.443z" />
		<path class="st6" d="M184.323,294.76c-0.491,0-0.89-0.4-0.89-0.891v-2.67c0-0.49,0.399-0.889,0.89-0.889h40.937   c0.491,0,0.889,0.399,0.889,0.889v2.67c0,0.491-0.398,0.891-0.889,0.891H184.323z" />
		<path class="st6" d="M219.03,285.86v-19.255c0-0.056-0.012-0.107-0.017-0.162h-5.306c-0.005,0.055-0.017,0.106-0.017,0.162v19.255   H219.03z" />
		<path class="st6" d="M207.461,285.86v-19.255c0-0.056-0.012-0.107-0.016-0.162h-5.307c-0.005,0.055-0.016,0.106-0.016,0.162v19.255   H207.461z" />
		<rect x="190.552" y="266.442" class="st6" width="5.34" height="19.418" />
		<path class="st6" d="M186.993,290.309c-0.491,0-0.89-0.399-0.89-0.89v-2.67c0-0.49,0.399-0.889,0.89-0.889h35.597   c0.491,0,0.889,0.399,0.889,0.889v2.67c0,0.491-0.398,0.89-0.889,0.89H186.993z" />
		<path class="st10" d="M97.01,266.553c-1.236,0-1.705-1.614-0.662-2.276l17.838-11.32c0.26-0.161,0.641-0.253,1.045-0.253   c0.404,0,0.785,0.092,1.045,0.253l17.543,11.324c1.033,0.667,0.561,2.27-0.67,2.27L97.01,266.553z" />
		<path class="st6" d="M97.01,266.553c-1.236,0-1.705-1.614-0.662-2.276l17.838-11.32c0.26-0.161,0.641-0.253,1.045-0.253   c0.404,0,0.785,0.092,1.045,0.253l17.543,11.324c1.033,0.667,0.561,2.27-0.67,2.27L97.01,266.553z" />
		<path class="st10" d="M94.763,294.869c-0.491,0-0.89-0.399-0.89-0.891v-2.669c0-0.49,0.399-0.89,0.89-0.89h40.936   c0.491,0,0.89,0.4,0.89,0.89v2.669c0,0.492-0.399,0.891-0.89,0.891H94.763z" />
		<path class="st6" d="M94.763,294.869c-0.491,0-0.89-0.399-0.89-0.891v-2.669c0-0.49,0.399-0.89,0.89-0.89h40.936   c0.491,0,0.89,0.4,0.89,0.89v2.669c0,0.492-0.399,0.891-0.89,0.891H94.763z" />
		<path class="st10" d="M129.47,285.97v-19.254c0-0.056-0.011-0.108-0.016-0.162h-5.307c-0.005,0.054-0.016,0.106-0.016,0.162v19.254   H129.47z" />
		<path class="st6" d="M129.47,285.97v-19.254c0-0.056-0.011-0.108-0.016-0.162h-5.307c-0.005,0.054-0.016,0.106-0.016,0.162v19.254   H129.47z" />
		<path class="st10" d="M117.901,285.97v-19.254c0-0.056-0.012-0.108-0.016-0.162h-5.307c-0.005,0.054-0.016,0.106-0.016,0.162   v19.254H117.901z" />
		<path class="st6" d="M117.901,285.97v-19.254c0-0.056-0.012-0.108-0.016-0.162h-5.307c-0.005,0.054-0.016,0.106-0.016,0.162v19.254   H117.901z" />
		<rect x="100.993" y="266.553" class="st10" width="5.339" height="19.417" />
		<rect x="100.993" y="266.553" class="st6" width="5.339" height="19.417" />
		<path class="st10" d="M97.433,290.419c-0.491,0-0.89-0.399-0.89-0.89v-2.67c0-0.49,0.399-0.889,0.89-0.889h35.596   c0.491,0,0.89,0.399,0.89,0.889v2.67c0,0.491-0.399,0.89-0.89,0.89H97.433z" />
		<path class="st6" d="M97.433,290.419c-0.491,0-0.89-0.399-0.89-0.89v-2.67c0-0.49,0.399-0.889,0.89-0.889h35.596   c0.491,0,0.89,0.399,0.89,0.889v2.67c0,0.491-0.399,0.89-0.89,0.89H97.433z" />
		<polygon class="st5" points="113.071,253.795 114.557,252.832 115.583,252.768 116.276,252.957 134.174,264.499 134.366,265.204    134.11,265.974 132.787,266.548  " />
		<path class="st5" d="M135.676,294.886H94.722c-0.481,0-0.871-0.39-0.871-0.87v-0.848h42.696v0.848   C136.547,294.496,136.157,294.886,135.676,294.886" />
		<path class="st5" d="M133.09,290.27H97.243c-0.481,0-0.871-0.39-0.871-0.871v-0.847h37.589v0.847   C133.961,289.881,133.571,290.27,133.09,290.27" />
		<rect x="127.324" y="266.615" class="st5" width="2.116" height="19.296" />
		<rect x="115.785" y="266.615" class="st5" width="2.116" height="19.296" />
		<rect x="104.117" y="266.615" class="st5" width="2.116" height="19.296" />
		<path class="st6" d="M97.01,266.553c-1.236,0-1.705-1.614-0.662-2.276l17.838-11.32c0.26-0.161,0.641-0.253,1.045-0.253   c0.404,0,0.785,0.092,1.045,0.253l17.543,11.324c1.033,0.667,0.561,2.27-0.67,2.27L97.01,266.553z" />
		<path class="st6" d="M94.763,294.869c-0.491,0-0.89-0.399-0.89-0.891v-2.669c0-0.49,0.399-0.89,0.89-0.89h40.936   c0.491,0,0.89,0.4,0.89,0.89v2.669c0,0.492-0.399,0.891-0.89,0.891H94.763z" />
		<path class="st6" d="M129.47,285.97v-19.254c0-0.056-0.011-0.108-0.016-0.162h-5.307c-0.005,0.054-0.016,0.106-0.016,0.162v19.254   H129.47z" />
		<path class="st6" d="M117.901,285.97v-19.254c0-0.056-0.012-0.108-0.016-0.162h-5.307c-0.005,0.054-0.016,0.106-0.016,0.162v19.254   H117.901z" />
		<rect x="100.993" y="266.553" class="st6" width="5.339" height="19.417" />
		<path class="st6" d="M97.433,290.419c-0.491,0-0.89-0.399-0.89-0.89v-2.67c0-0.49,0.399-0.889,0.89-0.889h35.596   c0.491,0,0.89,0.399,0.89,0.889v2.67c0,0.491-0.399,0.89-0.89,0.89H97.433z" />
		<path class="st10" d="M141.79,281.505c-1.235,0-1.705-1.614-0.661-2.276l17.838-11.32c0.26-0.161,0.64-0.254,1.044-0.254   c0.404,0,0.785,0.093,1.045,0.254l17.543,11.323c1.034,0.668,0.561,2.271-0.669,2.271L141.79,281.505z" />
		<path class="st6" d="M141.79,281.505c-1.235,0-1.705-1.614-0.661-2.276l17.838-11.32c0.26-0.161,0.64-0.254,1.044-0.254   c0.404,0,0.785,0.093,1.045,0.254l17.543,11.323c1.034,0.668,0.561,2.271-0.669,2.271L141.79,281.505z" />
		<path class="st10" d="M139.543,309.82c-0.491,0-0.89-0.399-0.89-0.89v-2.67c0-0.49,0.399-0.889,0.89-0.889h40.936   c0.491,0,0.89,0.399,0.89,0.889v2.67c0,0.491-0.399,0.89-0.89,0.89H139.543z" />
		<path class="st6" d="M139.543,309.82c-0.491,0-0.89-0.399-0.89-0.89v-2.67c0-0.49,0.399-0.889,0.89-0.889h40.936   c0.491,0,0.89,0.399,0.89,0.889v2.67c0,0.491-0.399,0.89-0.89,0.89H139.543z" />
		<path class="st10" d="M174.25,300.922v-19.255c0-0.056-0.012-0.107-0.017-0.162h-5.306c-0.005,0.055-0.016,0.106-0.016,0.162   v19.255H174.25z" />
		<path class="st6" d="M174.25,300.922v-19.255c0-0.056-0.012-0.107-0.017-0.162h-5.306c-0.005,0.055-0.016,0.106-0.016,0.162v19.255   H174.25z" />
		<path class="st10" d="M162.681,300.922v-19.255c0-0.056-0.012-0.107-0.017-0.162h-5.306c-0.005,0.055-0.017,0.106-0.017,0.162   v19.255H162.681z" />
		<path class="st6" d="M162.681,300.922v-19.255c0-0.056-0.012-0.107-0.017-0.162h-5.306c-0.005,0.055-0.017,0.106-0.017,0.162   v19.255H162.681z" />
		<rect x="145.772" y="281.504" class="st10" width="5.34" height="19.418" />
		<rect x="145.772" y="281.504" class="st6" width="5.34" height="19.418" />
		<path class="st10" d="M142.213,305.371c-0.491,0-0.89-0.399-0.89-0.89v-2.67c0-0.49,0.399-0.889,0.89-0.889h35.597   c0.491,0,0.889,0.399,0.889,0.889v2.67c0,0.491-0.398,0.89-0.889,0.89H142.213z" />
		<path class="st6" d="M142.213,305.371c-0.491,0-0.89-0.399-0.89-0.89v-2.67c0-0.49,0.399-0.889,0.89-0.889h35.597   c0.491,0,0.889,0.399,0.889,0.889v2.67c0,0.491-0.398,0.89-0.889,0.89H142.213z" />
		<polygon class="st5" points="157.851,268.747 159.338,267.784 160.364,267.72 161.056,267.909 178.955,279.451 179.147,280.156    178.891,280.926 177.567,281.5  " />
		<path class="st5" d="M180.456,309.838h-40.954c-0.481,0-0.871-0.39-0.871-0.871v-0.847h42.695v0.847   C181.326,309.448,180.936,309.838,180.456,309.838" />
		<path class="st5" d="M177.87,305.222h-35.847c-0.481,0-0.87-0.391-0.87-0.871v-0.848h37.588v0.848   C178.741,304.832,178.351,305.222,177.87,305.222" />
		<rect x="172.104" y="281.566" class="st5" width="2.116" height="19.297" />
		<rect x="160.565" y="281.566" class="st5" width="2.116" height="19.297" />
		<rect x="148.897" y="281.566" class="st5" width="2.116" height="19.297" />
		<path class="st6" d="M141.79,281.505c-1.235,0-1.705-1.614-0.661-2.276l17.838-11.32c0.26-0.161,0.64-0.254,1.044-0.254   c0.404,0,0.785,0.093,1.045,0.254l17.543,11.323c1.034,0.668,0.561,2.271-0.669,2.271L141.79,281.505z" />
		<path class="st6" d="M139.543,309.82c-0.491,0-0.89-0.399-0.89-0.89v-2.67c0-0.49,0.399-0.889,0.89-0.889h40.936   c0.491,0,0.89,0.399,0.89,0.889v2.67c0,0.491-0.399,0.89-0.89,0.89H139.543z" />
		<path class="st6" d="M174.25,300.922v-19.255c0-0.056-0.012-0.107-0.017-0.162h-5.306c-0.005,0.055-0.016,0.106-0.016,0.162v19.255   H174.25z" />
		<path class="st6" d="M162.681,300.922v-19.255c0-0.056-0.012-0.107-0.017-0.162h-5.306c-0.005,0.055-0.017,0.106-0.017,0.162   v19.255H162.681z" />
		<rect x="145.772" y="281.504" class="st6" width="5.34" height="19.418" />
		<path class="st6" d="M142.213,305.371c-0.491,0-0.89-0.399-0.89-0.89v-2.67c0-0.49,0.399-0.889,0.89-0.889h35.597   c0.491,0,0.889,0.399,0.889,0.889v2.67c0,0.491-0.398,0.89-0.889,0.89H142.213z" />
		<line class="st7" x1="142.217" y1="235.845" x2="127.85" y2="250.432" />
		<polyline class="st7" points="127.85,245.477 127.41,250.653 132.804,250.322  " />
		<line class="st7" x1="179.297" y1="235.845" x2="193.664" y2="250.432" />
		<polyline class="st7" points="193.664,245.477 194.104,250.653 188.71,250.322  " />
		<line class="st7" x1="160.168" y1="243.977" x2="160.168" y2="262.702" />
		<polyline class="st7" points="163.539,259.186 160.168,263.168 156.61,259.133  " />
		<polygon class="st4" points="184.995,212.538 186.045,215.766 183.3,213.771 180.554,215.766 181.602,212.538 178.856,210.544    182.249,210.544 183.298,207.316 184.348,210.544 187.741,210.544  " />
		<polygon class="st5" points="182.865,207.636 183.096,210.881 184.842,211.305 183.815,212.398 183.848,213.478 182.866,213.855    185.611,215.849 184.561,212.621 187.307,210.627 183.914,210.627  " />
		<polygon class="st7" points="184.995,212.538 186.045,215.766 183.3,213.771 180.554,215.766 181.602,212.538 178.856,210.544    182.249,210.544 183.298,207.316 184.348,210.544 187.741,210.544  " />
		<polygon class="st4" points="181.849,200.81 182.899,204.038 180.154,202.044 177.408,204.038 178.456,200.81 175.71,198.817    179.103,198.817 180.152,195.589 181.202,198.817 184.595,198.817  " />
		<polygon class="st5" points="179.719,195.908 179.951,199.153 181.696,199.577 180.669,200.67 180.702,201.75 179.72,202.126    182.465,204.121 181.415,200.893 184.161,198.899 180.768,198.899  " />
		<polygon class="st7" points="181.849,200.81 182.899,204.038 180.154,202.044 177.408,204.038 178.456,200.81 175.71,198.817    179.103,198.817 180.152,195.589 181.202,198.817 184.595,198.817  " />
		<polygon class="st4" points="173.315,192.325 174.364,195.553 171.619,193.557 168.873,195.553 169.922,192.325 167.176,190.331    170.568,190.331 171.618,187.103 172.668,190.331 176.061,190.331  " />
		<polygon class="st5" points="171.186,187.423 171.416,190.668 173.163,191.091 172.135,192.185 172.168,193.265 171.186,193.641    173.931,195.635 172.882,192.407 175.627,190.413 172.234,190.413  " />
		<polygon class="st7" points="173.315,192.325 174.364,195.553 171.619,193.557 168.873,195.553 169.922,192.325 167.176,190.331    170.568,190.331 171.618,187.103 172.668,190.331 176.061,190.331  " />
		<polygon class="st4" points="161.588,189.131 162.637,192.359 159.892,190.364 157.146,192.359 158.195,189.131 155.449,187.137    158.841,187.137 159.891,183.909 160.94,187.137 164.334,187.137  " />
		<polygon class="st5" points="159.458,184.228 159.689,187.473 161.435,187.897 160.408,188.991 160.441,190.071 159.458,190.447    162.204,192.441 161.154,189.214 163.9,187.219 160.506,187.219  " />
		<polygon class="st7" points="161.588,189.131 162.637,192.359 159.892,190.364 157.146,192.359 158.195,189.131 155.449,187.137    158.841,187.137 159.891,183.909 160.94,187.137 164.334,187.137  " />
		<polygon class="st4" points="150.003,192.325 151.052,195.553 148.308,193.557 145.561,195.553 146.611,192.325 143.864,190.331    147.257,190.331 148.306,187.103 149.356,190.331 152.75,190.331  " />
		<polygon class="st5" points="147.874,187.381 148.105,190.626 149.851,191.05 148.824,192.143 148.857,193.224 147.874,193.6    150.62,195.594 149.57,192.366 152.316,190.372 148.922,190.372  " />
		<polygon class="st7" points="150.003,192.325 151.052,195.553 148.308,193.557 145.561,195.553 146.611,192.325 143.864,190.331    147.257,190.331 148.306,187.103 149.356,190.331 152.75,190.331  " />
		<polygon class="st4" points="141.422,200.858 142.471,204.086 139.727,202.092 136.98,204.086 138.029,200.858 135.283,198.865    138.676,198.865 139.725,195.637 140.775,198.865 144.169,198.865  " />
		<polygon class="st5" points="139.292,195.956 139.524,199.201 141.269,199.624 140.242,200.718 140.275,201.798 139.293,202.174    142.038,204.169 140.988,200.941 143.735,198.946 140.341,198.946  " />
		<polygon class="st7" points="141.422,200.858 142.471,204.086 139.727,202.092 136.98,204.086 138.029,200.858 135.283,198.865    138.676,198.865 139.725,195.637 140.775,198.865 144.169,198.865  " />
		<polygon class="st4" points="138.275,212.49 139.324,215.718 136.58,213.723 133.833,215.718 134.882,212.49 132.136,210.496    135.529,210.496 136.578,207.268 137.628,210.496 141.022,210.496  " />
		<polygon class="st5" points="136.146,207.588 136.377,210.833 138.122,211.257 137.096,212.35 137.129,213.431 136.146,213.807    138.892,215.801 137.842,212.573 140.588,210.579 137.194,210.579  " />
		<polygon class="st7" points="138.275,212.49 139.324,215.718 136.58,213.723 133.833,215.718 134.882,212.49 132.136,210.496    135.529,210.496 136.578,207.268 137.628,210.496 141.022,210.496  " />
		<polygon class="st4" points="141.424,224.286 142.473,227.514 139.729,225.518 136.982,227.514 138.031,224.286 135.285,222.291    138.677,222.291 139.727,219.063 140.777,222.291 144.171,222.291  " />
		<polygon class="st5" points="139.294,219.383 139.526,222.628 141.271,223.052 140.244,224.146 140.277,225.226 139.295,225.602    142.04,227.596 140.99,224.368 143.737,222.374 140.343,222.374  " />
		<polygon class="st7" points="141.424,224.286 142.473,227.514 139.729,225.518 136.982,227.514 138.031,224.286 135.285,222.291    138.677,222.291 139.727,219.063 140.777,222.291 144.171,222.291  " />
		<polygon class="st4" points="149.958,232.247 151.007,235.475 148.262,233.48 145.516,235.475 146.565,232.247 143.819,230.253    147.211,230.253 148.261,227.025 149.31,230.253 152.704,230.253  " />
		<polygon class="st5" points="147.828,227.345 148.059,230.59 149.805,231.013 148.778,232.107 148.811,233.187 147.829,233.563    150.574,235.558 149.524,232.33 152.27,230.335 148.876,230.335  " />
		<polygon class="st7" points="149.958,232.247 151.007,235.475 148.262,233.48 145.516,235.475 146.565,232.247 143.819,230.253    147.211,230.253 148.261,227.025 149.31,230.253 152.704,230.253  " />
		<polygon class="st4" points="161.638,235.727 162.687,238.955 159.943,236.96 157.196,238.955 158.245,235.727 155.499,233.734    158.892,233.734 159.941,230.506 160.991,233.734 164.385,233.734  " />
		<polygon class="st5" points="159.508,230.825 159.74,234.07 161.485,234.493 160.458,235.587 160.491,236.667 159.509,237.043    162.254,239.037 161.204,235.809 163.951,233.815 160.557,233.815  " />
		<polygon class="st7" points="161.638,235.727 162.687,238.955 159.943,236.96 157.196,238.955 158.245,235.727 155.499,233.734    158.892,233.734 159.941,230.506 160.991,233.734 164.385,233.734  " />
		<polygon class="st4" points="173.365,232.199 174.415,235.427 171.67,233.432 168.923,235.427 169.972,232.199 167.226,230.205    170.619,230.205 171.668,226.977 172.718,230.205 176.111,230.205  " />
		<polygon class="st5" points="171.235,227.297 171.467,230.542 173.212,230.966 172.185,232.059 172.218,233.139 171.236,233.516    173.981,235.51 172.931,232.282 175.677,230.288 172.284,230.288  " />
		<polygon class="st7" points="173.365,232.199 174.415,235.427 171.67,233.432 168.923,235.427 169.972,232.199 167.226,230.205    170.619,230.205 171.668,226.977 172.718,230.205 176.111,230.205  " />
		<polygon class="st4" points="181.852,224.238 182.9,227.466 180.155,225.47 177.41,227.466 178.459,224.238 175.712,222.244    179.105,222.244 180.155,219.016 181.204,222.244 184.598,222.244  " />
		<polygon class="st5" points="179.722,219.336 179.953,222.581 181.699,223.004 180.671,224.098 180.704,225.178 179.723,225.554    182.467,227.548 181.418,224.32 184.164,222.326 180.77,222.326  " />
		<polygon class="st7" points="181.852,224.238 182.9,227.466 180.155,225.47 177.41,227.466 178.459,224.238 175.712,222.244    179.105,222.244 180.155,219.016 181.204,222.244 184.598,222.244  " />
	</g>
	<g id="Text"></g>
</svg>