<svg xmlns="http://www.w3.org/2000/svg" xmlns:xlink="http://www.w3.org/1999/xlink" version="1.1" baseProfile="basic"
    x="0px" y="0px" width="320px" height="206.66px" viewBox="0 0 320 206.66" xml:space="preserve">
    <style type="text/css">
        .st0 {
            fill: none;
        }

        .st1 {
            fill: #F3F7FC;
        }

        .st2 {
            fill: #A1C4E7;
        }

        .st3 {
            fill: none;
            stroke: #F3F7FC;
            stroke-width: 0;
            stroke-linecap: round;
            stroke-linejoin: round;
        }

        .st4 {
            fill: #FFFFFF;
        }

        .st5 {
            fill: #D0E2F3;
        }

        .st6 {
            fill: none;
            stroke: #004B8C;
            stroke-miterlimit: 10;
        }

        .st7 {
            fill: none;
            stroke: #004B8C;
            stroke-linecap: round;
            stroke-linejoin: round;
            stroke-miterlimit: 10;
        }

        .st8 {
            fill: #404040;
        }

        .st9 {
            fill: #E8F0F9;
        }

        .st10 {
            fill-rule: evenodd;
            clip-rule: evenodd;
            fill: #FFFFFF;
        }

        .st11 {
            fill: none;
            stroke: #BFCCD4;
            stroke-linecap: round;
            stroke-miterlimit: 10;
        }

        .st12 {
            fill: none;
            stroke: #D7D7D7;
            stroke-linecap: round;
            stroke-miterlimit: 10;
        }

        .st13 {
            fill: #FFFFFF;
            stroke: #004B8C;
            stroke-linecap: round;
            stroke-linejoin: round;
            stroke-miterlimit: 10;
        }

        .st14 {
            fill: #004B8C;
            stroke: #004B8C;
            stroke-linecap: round;
            stroke-linejoin: round;
            stroke-miterlimit: 10;
        }

        .st15 {
            fill: #004B8C;
        }

        .st16 {
            clip-path: url(#SVGID_2_);
            fill: #D0E2F3;
        }

        .st17 {
            fill: #929292;
        }

        .st18 {
            fill: #922C1C;
        }

        .st19 {
            fill: #E6411A;
        }

        .st20 {
            fill: #003554;
        }

        .st21 {
            fill: none;
            stroke: #FFFFFF;
            stroke-linecap: round;
            stroke-linejoin: round;
            stroke-miterlimit: 10;
        }

        .st22 {
            fill: none;
            stroke: #3A8DFF;
            stroke-linecap: round;
            stroke-linejoin: round;
            stroke-miterlimit: 10;
        }

        .st23 {
            fill: #3A8DFF;
            stroke: #004B8C;
            stroke-linecap: round;
            stroke-linejoin: round;
            stroke-miterlimit: 10;
        }

        .st24 {
            opacity: 0.2;
            fill: #156CC4;
        }

        .st25 {
            fill: #D0E2F3;
            stroke: #004B8C;
            stroke-linecap: round;
            stroke-linejoin: round;
            stroke-miterlimit: 10;
        }

        .st26 {
            fill: none;
            stroke: #D0E2F3;
            stroke-linecap: round;
            stroke-miterlimit: 10;
        }

        .st27 {
            fill: none;
            stroke: #004B8C;
            stroke-width: 0.5;
            stroke-linecap: round;
            stroke-linejoin: round;
            stroke-miterlimit: 10;
        }

        .st28 {
            fill: none;
            stroke: #004B8C;
            stroke-width: 1.75;
            stroke-linecap: round;
            stroke-linejoin: round;
            stroke-miterlimit: 10;
        }

        .st29 {
            fill: #FFFFFF;
            stroke: #004B8C;
            stroke-miterlimit: 10;
        }

        .st30 {
            fill: none;
            stroke: #004B8C;
            stroke-linecap: round;
            stroke-miterlimit: 10;
        }

        .st31 {
            fill: #E8F0F9;
            stroke: #004B8C;
            stroke-linecap: round;
            stroke-linejoin: round;
            stroke-miterlimit: 10;
        }
    </style>
    <g id="Karte">
    </g>
    <g id="Grafik">
        <path class="st4"
            d="M47.409,145.061c0-62.192,50.417-112.609,112.609-112.609c62.193,0,112.609,50.418,112.609,112.609h-32.179   c0-44.42-36.01-80.429-80.43-80.429c-44.419,0-80.429,36.009-80.429,80.429H47.409z" />
        <path class="st4"
            d="M212,183.153h-14v-60h8c0.183,0,0.358-0.033,0.526-0.079h0.258l0.079-0.124   c0.67-0.323,1.137-1.003,1.137-1.797h0l0-0.003v-3.997c0-0.224-0.041-0.459-0.098-0.696l-0.008-0.36l-0.952-2.062l-44.687-21.663   l-0.005-0.001c-0.575-0.279-1.394-0.441-2.25-0.441c-0.858,0-1.68,0.163-2.255,0.443l-43.611,21.36   c-1.137,0.557-2.134,2.155-2.134,3.421v4c0,1.104,0.897,2,2,2h8v60h-14c-1.103,0-2,0.897-2,2v10c0,1.104,0.897,2,2,2h32   c0,0.481,0.178,0.918,0.462,1.264v0.568h0.74c0.245,0.106,0.514,0.168,0.798,0.168h36c0.284,0,0.553-0.062,0.798-0.168h0.628   v-0.433c0.354-0.361,0.574-0.854,0.574-1.399l2.309,0.089v-0.089H212c1.103,0,2-0.896,2-2v-10   C214,184.051,213.103,183.153,212,183.153z M132,183.153v-60h8v0.396h-0.141v1.586H140v58.018H132z M180,183.153v-0.132h0.141   v-59.789H180v-0.079h8v60H180z" />
        <path class="st5"
            d="M49.293,124.467c0.247-1.222,0.767-2.445,1.18-3.614c1.157-3.276,2.477-6.495,3.911-9.659   c4.746-10.48,10.771-20.413,17.968-29.392c4.538-5.661,9.557-10.941,15.035-15.701c1.459-1.267,2.95-2.498,4.472-3.689   c0.744-0.582,1.495-1.154,2.253-1.716c0.81-0.601,1.623-1.296,2.497-1.799c0.648-0.373,1.278-0.759,1.994-1.003   c2.208-0.753,4.783-0.466,6.71,0.875c1.679,1.169,2.791,2.964,3.951,4.649c2.916,4.237,6.399,8.047,9.87,11.842   c0.106,0.116,0.221,0.237,0.373,0.273c0.178,0.042,0.358-0.042,0.522-0.124c0.604-0.303,1.209-0.605,1.813-0.908   c-4.745-6.075-6.384-12.503-8.946-18.007c-0.405-0.87-0.788-1.789-0.598-2.73c0.456-2.246,2.403-3.838,4.244-5.203   c0.683-0.506,1.376-1.007,2.129-1.405c0.699-0.369,1.507-0.468,2.189-0.839c1.292-0.704,2.778-1.1,4.178-1.551   c3.081-0.995,6.207-1.852,9.363-2.574c3.318-0.759,6.67-1.368,10.041-1.834c3.563-0.493,7.148-0.826,10.74-1.012   c1.611-0.083,3.224-0.137,4.838-0.162c20.145-0.312,36.875,4.321,51.431,12.431c0,0-6.741,11.838-6.044,10.981   c8.919-10.965,8.919-9.166,11.434-7.757c18.876,10.576,31.813,28.356,38.801,44.133c8.593,19.4,10.476,38.22,10.702,46.088h6.285   c0,0,3.913-58.615-52.426-95.191s-110.819-5.415-110.819-5.415S61.392,64.55,49.293,124.467z" />
        <path class="st4"
            d="M34.766,142.556c3.268-6.358,0.637-15.703-3.756-20.988c-2.93-3.524-7.048-6.891-9.755-8.127   c6.348-10.201,2.083-6.28-4.385-6.588c-7.874-0.376-0.257,6.828-0.257,6.828c-14.24,6.476-16.536,18.896-14.25,26.591   C6.189,153.151,27.699,156.313,34.766,142.556" />
        <path class="st5"
            d="M14.802,106.984c0,0-0.932,0.013-1.158,0.481c-0.217,0.452-0.281,0.725-0.33,1.223   c-0.013,0.139,0.158,0.555,0.216,0.681c0.084,0.182,0.289,0.272,0.482,0.327c1.528,0.428,3.084-0.455,4.653-0.69   c0.366-0.054,0.768-0.066,1.075,0.141c0.426,0.286,0.511,0.869,0.531,1.383c0.048,1.205-0.038,2.418-0.258,3.604   c0.858-0.227,1.448-0.995,1.94-1.733c0.539-0.811,1.042-1.645,1.507-2.501c0.405-0.743,0.993-1.619,0.897-2.462   c-0.021-0.178,0.236-0.703-0.188-0.838c-1.523-0.485-3.292,0.019-5.257,0.227c-1.59,0.167-2.065,0.022-3.663,0.078" />
        <path class="st5"
            d="M11.799,116.381c2.142,0.925,4.334,1.553,6.666,1.467c0.751-0.029,1.499-0.163,2.25-0.137   c2.868,0.105,7.748,7.304,8.693,13.68c0.814,5.484-1.505,15.304-14.069,19.617c3.664,0.876,6.818,0.127,8.597-0.308   c9.001-2.189,10.916-8.608,11.908-11.465c1.275-3.667-0.587-10.423-1.9-12.978c-2.304-4.484-5.102-6.981-8.804-10.403   c-0.981-0.908-2.474-1.54-3.591-2.272c-0.159-0.104-0.492-0.288-0.692-0.135c-1.111,0.852-2.692,1.038-3.97,0.47   c-0.243-0.107-0.524,0.004-0.79,0.005c-0.237,0-0.476,0.311-0.685,0.422c-1.096,0.585-2.058,0.868-2.959,1.724L11.799,116.381z" />
        <path class="st7" d="M16.613,113.681c0,0,1.154,1.772,4.642-0.24" />
        <path class="st7" d="M18.935,114.402c0,0,3.105,1.497,5.001,4.781" />
        <path class="st7" d="M17.759,114.343c0,0-0.619,1.38-0.785,4.077" />
        <path class="st7"
            d="M23.981,129.054c-0.057-2.561-8.003-4.039-7.859,2.362l0.055,2.482c0.144,6.401,8.015,4.566,7.958,2.007" />
        <line class="st7" x1="20.627" y1="130.713" x2="13.509" y2="130.872" />
        <line class="st7" x1="20.713" y1="134.553" x2="13.595" y2="134.714" />
        <path class="st7"
            d="M34.766,142.556c3.268-6.358,0.637-15.703-3.756-20.988c-2.93-3.524-7.048-6.891-9.755-8.127   c6.348-10.201,2.083-6.28-4.385-6.588c-7.874-0.376-0.257,6.828-0.257,6.828c-14.24,6.476-16.536,18.896-14.25,26.591   C6.189,153.151,27.699,156.313,34.766,142.556z" />
        <path class="st5"
            d="M162.96,136.334c2.131,2.152,2.131,5.205,0.502,7.689c1.179-0.79,1.967-2.104,2.193-3.5   c0.226-1.396,0.017-2.868-0.693-4.093c-0.818-1.412-2.295-2.523-3.888-2.909c-1.593-0.384-3.863,0.243-5.079,1.27   C157.922,134.086,160.675,134.025,162.96,136.334" />
        <rect x="152.296" y="153.364" class="st5" width="14.788" height="2.961" />
        <rect x="164.388" y="153.5" class="st5" width="3.225" height="27.195" />
        <rect x="188.229" y="123.55" class="st5" width="7.613" height="1.586" />
        <rect x="139.859" y="123.55" class="st5" width="38.366" height="1.586" />
        <rect x="122.098" y="123.55" class="st5" width="7.612" height="1.586" />
        <rect x="148.264" y="185.717" class="st5" width="23.359" height="1.269" />
        <rect x="144.576" y="191.902" class="st5" width="30.735" height="1.269" />
        <rect x="140.462" y="197.717" class="st5" width="38.964" height="1.269" />
        <path class="st5"
            d="M156.745,93.371L160,91.93l2.255,0.441l44.687,21.663l0.952,2.062l0.106,5.057l-1.216,1.921h-2.586v-4.318   c0-1.63-0.921-3.119-2.378-3.849" />
        <path class="st5"
            d="M172,183.153l-0.159,2.986l-0.845,1.271l3.004-0.257l1.331,0.68l0.739,1.901l-0.211,2.115l-0.74,1.48   l3.595-0.106l0.951,0.846l0.335,3.084l2.309,0.089v-3.723c0-1.155-0.938-2.093-2.094-2.093h-1.078v-2.961   c0-1.109-0.9-2.008-2.009-2.008h-0.952v-3.278C176.176,183.18,171.802,182.956,172,183.153" />
        <rect x="194.572" y="123.232" class="st5" width="3.331" height="59.789" />
        <rect x="176.811" y="123.232" class="st5" width="3.33" height="59.789" />
        <rect x="128.388" y="123.232" class="st5" width="3.331" height="59.789" />
        <path class="st7"
            d="M160,145.153c-3.309,0-6-2.689-6-6c0-3.309,2.691-6,6-6c3.309,0,6,2.691,6,6   C166,142.464,163.309,145.153,160,145.153" />
        <path class="st7"
            d="M114,123.153c-1.103,0-2-0.896-2-2v-4c0-1.266,0.997-2.864,2.134-3.421l43.611-21.36   c0.575-0.28,1.397-0.443,2.255-0.443c0.858,0,1.68,0.163,2.255,0.443l43.611,21.36c1.137,0.557,2.134,2.155,2.134,3.421v4   c0,1.104-0.897,2-2,2H114z" />
        <polygon class="st7" points="198,183.153 198,183.153 198,123.153 188,123.153 188,183.153  " />
        <polygon class="st7" points="132,183.153 132,183.153 132,123.153 122,123.153 122,183.153  " />
        <path class="st7"
            d="M146,193.153c-1.103,0-2-0.896-2-2v-2c0-1.103,0.897-2,2-2h28c1.103,0,2,0.897,2,2v2c0,1.104-0.897,2-2,2H146z   " />
        <path class="st7"
            d="M142,199.153c-1.103,0-2-0.896-2-2v-2c0-1.103,0.897-2,2-2h36c1.103,0,2,0.897,2,2v2c0,1.104-0.897,2-2,2H142z   " />
        <path class="st7"
            d="M212,183.153h-40v2c0,1.104-0.897,2-2,2h-20c-1.103,0-2-0.896-2-2v-2h-40c-1.103,0-2,0.897-2,2v10   c0,1.104,0.897,2,2,2h32v-2c0-1.103,0.897-2,2-2h36c1.103,0,2,0.897,2,2v2h32c1.103,0,2-0.896,2-2v-10   C214,184.051,213.103,183.153,212,183.153z" />
        <path class="st7" d="M168,155.153c0-1.103-0.897-2-2-2h-12c-1.103,0-2,0.897-2,2v26h16V155.153z" />
        <path class="st7" d="M140,123.153v60h8c0-1.104,0.897-2,2-2h20c1.103,0,2,0.896,2,2h8v-60H140z" />
        <line class="st7" x1="121.23" y1="74.589" x2="105.711" y2="46.391" />
        <g>
            <path class="st8"
                d="M41.004,170.621v-4.5c0-0.567-0.129-0.99-0.387-1.27s-0.662-0.419-1.212-0.419c-0.728,0-1.261,0.197-1.6,0.59    s-0.508,1.043-0.508,1.949v3.65h-1.054v-6.957H37.1l0.171,0.952h0.051c0.216-0.343,0.519-0.608,0.908-0.797    c0.389-0.188,0.823-0.282,1.301-0.282c0.838,0,1.468,0.202,1.892,0.606c0.423,0.404,0.635,1.05,0.635,1.939v4.539H41.004z" />
            <path class="st8"
                d="M44.133,161.779c0-0.241,0.059-0.418,0.178-0.53c0.119-0.112,0.267-0.168,0.444-0.168    c0.169,0,0.315,0.057,0.438,0.171s0.184,0.29,0.184,0.527s-0.062,0.414-0.184,0.53c-0.123,0.117-0.269,0.175-0.438,0.175    c-0.178,0-0.326-0.058-0.444-0.175C44.192,162.192,44.133,162.016,44.133,161.779z M45.276,170.621h-1.054v-6.957h1.054V170.621z" />
            <path class="st8"
                d="M50.449,170.748c-1.028,0-1.84-0.313-2.434-0.939c-0.595-0.626-0.892-1.496-0.892-2.609    c0-1.122,0.276-2.012,0.829-2.672c0.552-0.66,1.293-0.99,2.225-0.99c0.872,0,1.562,0.287,2.069,0.86    c0.508,0.573,0.762,1.33,0.762,2.269v0.667h-4.792c0.021,0.816,0.228,1.437,0.619,1.86c0.392,0.423,0.943,0.635,1.654,0.635    c0.749,0,1.49-0.157,2.222-0.47v0.939c-0.373,0.161-0.725,0.276-1.057,0.346C51.32,170.713,50.919,170.748,50.449,170.748z     M50.164,164.419c-0.559,0-1.004,0.182-1.336,0.546c-0.333,0.364-0.528,0.868-0.587,1.511h3.637c0-0.665-0.148-1.173-0.444-1.527    C51.137,164.596,50.714,164.419,50.164,164.419z" />
            <path class="st8"
                d="M59.539,169.688h-0.057c-0.487,0.707-1.214,1.06-2.184,1.06c-0.91,0-1.618-0.311-2.124-0.933    c-0.505-0.622-0.758-1.506-0.758-2.653s0.254-2.038,0.762-2.672s1.214-0.952,2.12-0.952c0.944,0,1.667,0.343,2.171,1.028h0.083    l-0.044-0.501l-0.025-0.489v-2.831h1.054v9.877h-0.857L59.539,169.688z M57.432,169.866c0.719,0,1.241-0.196,1.564-0.587    c0.324-0.391,0.486-1.022,0.486-1.895v-0.222c0-0.986-0.164-1.689-0.492-2.111c-0.328-0.421-0.852-0.631-1.571-0.631    c-0.618,0-1.091,0.24-1.419,0.72c-0.328,0.48-0.492,1.159-0.492,2.035c0,0.889,0.163,1.559,0.489,2.012    S56.801,169.866,57.432,169.866z" />
            <path class="st8"
                d="M65.944,163.537c0.309,0,0.586,0.025,0.832,0.076l-0.146,0.978c-0.288-0.063-0.542-0.095-0.762-0.095    c-0.563,0-1.044,0.229-1.444,0.686c-0.399,0.457-0.6,1.026-0.6,1.708v3.732H62.77v-6.957h0.87l0.121,1.289h0.051    c0.258-0.453,0.569-0.802,0.933-1.047S65.508,163.537,65.944,163.537z" />
            <path class="st8"
                d="M67.988,161.779c0-0.241,0.059-0.418,0.178-0.53c0.119-0.112,0.267-0.168,0.444-0.168    c0.169,0,0.315,0.057,0.438,0.171s0.184,0.29,0.184,0.527s-0.062,0.414-0.184,0.53c-0.123,0.117-0.269,0.175-0.438,0.175    c-0.178,0-0.326-0.058-0.444-0.175C68.047,162.192,67.988,162.016,67.988,161.779z M69.13,170.621h-1.054v-6.957h1.054V170.621z" />
            <path class="st8"
                d="M77.059,163.664v0.667l-1.289,0.152c0.119,0.148,0.224,0.342,0.317,0.581c0.093,0.239,0.14,0.509,0.14,0.81    c0,0.682-0.233,1.225-0.698,1.631s-1.104,0.609-1.917,0.609c-0.208,0-0.402-0.017-0.584-0.051    c-0.449,0.237-0.673,0.536-0.673,0.895c0,0.19,0.078,0.331,0.235,0.422c0.157,0.091,0.425,0.137,0.806,0.137h1.231    c0.753,0,1.332,0.159,1.736,0.476c0.404,0.317,0.606,0.779,0.606,1.384c0,0.77-0.309,1.357-0.927,1.761    c-0.618,0.404-1.519,0.606-2.704,0.606c-0.91,0-1.611-0.169-2.104-0.508c-0.493-0.339-0.74-0.816-0.74-1.435    c0-0.423,0.135-0.789,0.406-1.098s0.652-0.518,1.143-0.628c-0.178-0.08-0.327-0.205-0.448-0.375    c-0.12-0.169-0.181-0.366-0.181-0.59c0-0.254,0.068-0.476,0.203-0.667s0.349-0.375,0.641-0.552c-0.36-0.148-0.653-0.4-0.879-0.755    c-0.226-0.355-0.339-0.762-0.339-1.219c0-0.762,0.229-1.349,0.686-1.761c0.457-0.413,1.104-0.619,1.942-0.619    c0.364,0,0.692,0.042,0.984,0.127H77.059z M71.511,171.789c0,0.377,0.159,0.662,0.476,0.857s0.772,0.292,1.365,0.292    c0.884,0,1.54-0.132,1.964-0.397c0.426-0.264,0.638-0.623,0.638-1.076c0-0.376-0.116-0.638-0.349-0.784    c-0.233-0.146-0.671-0.219-1.314-0.219h-1.263c-0.478,0-0.851,0.114-1.117,0.343S71.511,171.361,71.511,171.789z M72.082,165.892    c0,0.487,0.138,0.855,0.413,1.104s0.658,0.375,1.149,0.375c1.028,0,1.542-0.499,1.542-1.498c0-1.045-0.521-1.568-1.562-1.568    c-0.495,0-0.876,0.133-1.143,0.4S72.082,165.367,72.082,165.892z" />
            <path class="st8"
                d="M81.426,170.748c-1.028,0-1.84-0.313-2.434-0.939c-0.595-0.626-0.892-1.496-0.892-2.609    c0-1.122,0.276-2.012,0.829-2.672c0.552-0.66,1.293-0.99,2.225-0.99c0.872,0,1.562,0.287,2.069,0.86    c0.508,0.573,0.762,1.33,0.762,2.269v0.667h-4.792c0.021,0.816,0.228,1.437,0.619,1.86c0.392,0.423,0.943,0.635,1.654,0.635    c0.749,0,1.49-0.157,2.222-0.47v0.939c-0.373,0.161-0.725,0.276-1.057,0.346C82.296,170.713,81.896,170.748,81.426,170.748z     M81.14,164.419c-0.559,0-1.004,0.182-1.336,0.546c-0.333,0.364-0.528,0.868-0.587,1.511h3.637c0-0.665-0.148-1.173-0.444-1.527    C82.113,164.596,81.69,164.419,81.14,164.419z" />
            <path class="st8"
                d="M90.268,168.723c0,0.647-0.241,1.147-0.724,1.498s-1.16,0.527-2.031,0.527c-0.922,0-1.642-0.146-2.158-0.438    v-0.978c0.334,0.169,0.693,0.302,1.076,0.4c0.383,0.098,0.752,0.146,1.108,0.146c0.55,0,0.973-0.088,1.27-0.263    c0.296-0.176,0.444-0.443,0.444-0.803c0-0.271-0.118-0.502-0.352-0.695c-0.235-0.193-0.693-0.42-1.375-0.683    c-0.647-0.241-1.108-0.452-1.38-0.632c-0.273-0.18-0.477-0.384-0.609-0.612c-0.134-0.229-0.2-0.501-0.2-0.819    c0-0.567,0.23-1.015,0.692-1.342c0.461-0.328,1.094-0.492,1.898-0.492c0.749,0,1.481,0.152,2.196,0.457l-0.375,0.857    c-0.698-0.288-1.331-0.432-1.898-0.432c-0.5,0-0.876,0.079-1.13,0.235s-0.381,0.372-0.381,0.647c0,0.187,0.048,0.345,0.143,0.476    c0.096,0.131,0.249,0.256,0.46,0.375s0.618,0.29,1.219,0.514c0.825,0.3,1.383,0.603,1.672,0.908    C90.123,167.879,90.268,168.262,90.268,168.723z" />
            <path class="st8"
                d="M47.605,182.362v3.859h-1.079v-9.28h2.545c1.138,0,1.979,0.218,2.523,0.654    c0.543,0.436,0.815,1.092,0.815,1.968c0,1.228-0.622,2.057-1.866,2.488l2.52,4.17h-1.276l-2.247-3.859H47.605z M47.605,181.435    h1.479c0.762,0,1.32-0.151,1.676-0.454c0.355-0.303,0.533-0.757,0.533-1.362c0-0.614-0.181-1.056-0.543-1.327    c-0.361-0.271-0.942-0.406-1.742-0.406h-1.403V181.435z" />
            <path class="st8"
                d="M54.315,177.379c0-0.241,0.059-0.418,0.178-0.53c0.119-0.112,0.267-0.168,0.444-0.168    c0.169,0,0.315,0.057,0.438,0.171s0.184,0.29,0.184,0.527s-0.062,0.414-0.184,0.53c-0.123,0.116-0.269,0.174-0.438,0.174    c-0.178,0-0.326-0.058-0.444-0.174C54.374,177.792,54.315,177.616,54.315,177.379z M55.458,186.221h-1.054v-6.957h1.054V186.221z" />
            <path class="st8"
                d="M62.18,184.323c0,0.647-0.241,1.146-0.724,1.498s-1.16,0.527-2.031,0.527c-0.922,0-1.642-0.146-2.158-0.438    v-0.978c0.334,0.169,0.693,0.303,1.076,0.4c0.383,0.097,0.752,0.146,1.108,0.146c0.55,0,0.973-0.088,1.27-0.264    c0.296-0.175,0.444-0.443,0.444-0.803c0-0.271-0.118-0.502-0.352-0.695c-0.235-0.192-0.693-0.42-1.375-0.682    c-0.647-0.241-1.108-0.452-1.38-0.631c-0.273-0.18-0.477-0.384-0.609-0.613c-0.134-0.229-0.2-0.501-0.2-0.819    c0-0.567,0.23-1.015,0.692-1.343c0.461-0.328,1.094-0.492,1.898-0.492c0.749,0,1.481,0.152,2.196,0.457l-0.375,0.857    c-0.698-0.288-1.331-0.432-1.898-0.432c-0.5,0-0.876,0.078-1.13,0.235s-0.381,0.373-0.381,0.647c0,0.186,0.048,0.345,0.143,0.476    c0.096,0.131,0.249,0.256,0.46,0.375s0.618,0.29,1.219,0.514c0.825,0.301,1.383,0.603,1.672,0.908    C62.035,183.479,62.18,183.862,62.18,184.323z" />
            <path class="st8"
                d="M63.805,177.379c0-0.241,0.059-0.418,0.178-0.53c0.119-0.112,0.267-0.168,0.444-0.168    c0.169,0,0.315,0.057,0.438,0.171s0.184,0.29,0.184,0.527s-0.062,0.414-0.184,0.53c-0.123,0.116-0.269,0.174-0.438,0.174    c-0.178,0-0.326-0.058-0.444-0.174C63.864,177.792,63.805,177.616,63.805,177.379z M64.947,186.221h-1.054v-6.957h1.054V186.221z" />
            <path class="st8"
                d="M68.223,182.66c0.182-0.258,0.459-0.597,0.832-1.016l2.247-2.38h1.25l-2.818,2.964l3.015,3.993h-1.276    l-2.457-3.288l-0.793,0.686v2.603h-1.041v-9.877h1.041v5.237c0,0.232-0.017,0.593-0.051,1.079H68.223z" />
            <path class="st8"
                d="M80.01,182.736c0,1.134-0.286,2.02-0.857,2.656c-0.571,0.637-1.36,0.956-2.368,0.956    c-0.622,0-1.174-0.146-1.657-0.438s-0.855-0.711-1.117-1.257s-0.394-1.185-0.394-1.917c0-1.134,0.284-2.018,0.851-2.65    c0.567-0.632,1.354-0.949,2.361-0.949c0.973,0,1.747,0.324,2.32,0.971C79.724,180.756,80.01,181.632,80.01,182.736z     M74.71,182.736c0,0.889,0.178,1.565,0.533,2.031s0.878,0.698,1.568,0.698s1.213-0.231,1.571-0.695    c0.357-0.463,0.536-1.142,0.536-2.034c0-0.885-0.179-1.556-0.536-2.016c-0.358-0.459-0.886-0.688-1.584-0.688    c-0.69,0-1.21,0.227-1.562,0.679S74.71,181.839,74.71,182.736z" />
        </g>
        <g>
            <path class="st8"
                d="M78.761,16.687c0,0.974-0.353,1.733-1.06,2.278s-1.665,0.817-2.876,0.817c-1.312,0-2.321-0.169-3.027-0.507    v-1.241c0.454,0.192,0.949,0.343,1.483,0.454c0.535,0.111,1.064,0.167,1.589,0.167c0.858,0,1.503-0.163,1.938-0.488    c0.434-0.326,0.651-0.778,0.651-1.358c0-0.384-0.077-0.698-0.231-0.942s-0.411-0.471-0.772-0.678    c-0.361-0.207-0.909-0.441-1.646-0.704c-1.029-0.368-1.765-0.805-2.206-1.309c-0.442-0.505-0.662-1.163-0.662-1.976    c0-0.853,0.32-1.531,0.961-2.036c0.641-0.504,1.488-0.757,2.543-0.757c1.1,0,2.111,0.202,3.035,0.605l-0.401,1.12    c-0.913-0.383-1.801-0.575-2.664-0.575c-0.681,0-1.213,0.146-1.597,0.439c-0.384,0.292-0.575,0.699-0.575,1.218    c0,0.383,0.07,0.698,0.212,0.942c0.141,0.245,0.379,0.469,0.715,0.673c0.335,0.205,0.849,0.43,1.54,0.678    c1.161,0.414,1.959,0.857,2.396,1.332C78.543,15.315,78.761,15.931,78.761,16.687z" />
            <path class="st8"
                d="M80.729,9.089c0-0.288,0.071-0.499,0.212-0.632c0.141-0.133,0.318-0.201,0.53-0.201    c0.202,0,0.376,0.068,0.522,0.205c0.146,0.136,0.219,0.346,0.219,0.628c0,0.282-0.073,0.493-0.219,0.632    c-0.146,0.139-0.321,0.208-0.522,0.208c-0.212,0-0.389-0.069-0.53-0.208S80.729,9.371,80.729,9.089z M82.091,19.631h-1.256v-8.295    h1.256V19.631z" />
            <path class="st8"
                d="M90.432,19.631v-5.366c0-0.676-0.154-1.181-0.461-1.514c-0.308-0.333-0.79-0.5-1.446-0.5    c-0.868,0-1.503,0.235-1.907,0.704s-0.605,1.244-0.605,2.323v4.352h-1.256v-8.295h1.021l0.205,1.135h0.061    c0.257-0.409,0.618-0.725,1.083-0.95c0.464-0.225,0.981-0.337,1.551-0.337c0.999,0,1.751,0.241,2.255,0.723    s0.757,1.252,0.757,2.312v5.412H90.432z" />
            <path class="st8"
                d="M99.915,18.518h-0.068c-0.581,0.843-1.448,1.264-2.604,1.264c-1.085,0-1.929-0.371-2.532-1.113    c-0.603-0.741-0.905-1.796-0.905-3.163c0-1.368,0.303-2.43,0.908-3.187s1.448-1.135,2.528-1.135c1.125,0,1.988,0.409,2.588,1.226    h0.099l-0.053-0.598l-0.03-0.583V7.855h1.256v11.776h-1.021L99.915,18.518z M97.402,18.73c0.858,0,1.479-0.233,1.866-0.7    c0.386-0.467,0.579-1.22,0.579-2.259v-0.265c0-1.176-0.196-2.015-0.587-2.517s-1.015-0.753-1.873-0.753    c-0.737,0-1.301,0.286-1.691,0.859c-0.391,0.573-0.587,1.381-0.587,2.425c0,1.06,0.194,1.859,0.583,2.399    S96.65,18.73,97.402,18.73z" />
            <path class="st8"
                d="M114.15,19.631h-6.168V8.566h6.168v1.143h-4.882v3.565h4.587v1.135h-4.587v4.072h4.882V19.631z" />
            <path class="st8"
                d="M116.307,9.089c0-0.288,0.071-0.499,0.212-0.632c0.141-0.133,0.318-0.201,0.53-0.201    c0.202,0,0.376,0.068,0.522,0.205c0.146,0.136,0.219,0.346,0.219,0.628c0,0.282-0.073,0.493-0.219,0.632    c-0.146,0.139-0.321,0.208-0.522,0.208c-0.212,0-0.389-0.069-0.53-0.208S116.307,9.371,116.307,9.089z M117.669,19.631h-1.256    v-8.295h1.256V19.631z" />
            <path class="st8"
                d="M126.01,19.631v-5.366c0-0.676-0.154-1.181-0.461-1.514c-0.308-0.333-0.79-0.5-1.446-0.5    c-0.868,0-1.503,0.235-1.907,0.704s-0.605,1.244-0.605,2.323v4.352h-1.256v-8.295h1.021l0.205,1.135h0.061    c0.257-0.409,0.618-0.725,1.083-0.95c0.464-0.225,0.981-0.337,1.551-0.337c0.999,0,1.751,0.241,2.255,0.723    s0.757,1.252,0.757,2.312v5.412H126.01z" />
            <path class="st8" d="M131.103,19.631h-1.256V7.855h1.256V19.631z" />
            <path class="st8"
                d="M138.868,19.631l-0.25-1.181h-0.061c-0.414,0.52-0.827,0.872-1.238,1.056s-0.924,0.276-1.54,0.276    c-0.822,0-1.467-0.212-1.934-0.636c-0.467-0.424-0.7-1.027-0.7-1.809c0-1.675,1.339-2.553,4.019-2.634l1.407-0.045v-0.515    c0-0.651-0.14-1.132-0.42-1.442c-0.28-0.311-0.728-0.465-1.343-0.465c-0.691,0-1.473,0.212-2.346,0.636l-0.386-0.961    c0.408-0.222,0.856-0.396,1.343-0.522c0.487-0.126,0.975-0.189,1.464-0.189c0.989,0,1.722,0.22,2.199,0.658    c0.477,0.439,0.715,1.143,0.715,2.112v5.661H138.868z M136.03,18.746c0.782,0,1.396-0.215,1.843-0.644    c0.446-0.429,0.669-1.029,0.669-1.801v-0.75l-1.256,0.053c-0.999,0.036-1.72,0.19-2.161,0.465    c-0.441,0.275-0.662,0.703-0.662,1.283c0,0.454,0.137,0.8,0.413,1.037C135.151,18.627,135.536,18.746,136.03,18.746z" />
            <path class="st8"
                d="M149.177,11.336v0.794l-1.537,0.182c0.141,0.177,0.268,0.408,0.378,0.693s0.167,0.607,0.167,0.965    c0,0.812-0.277,1.46-0.833,1.945s-1.317,0.727-2.286,0.727c-0.247,0-0.479-0.02-0.696-0.061c-0.535,0.283-0.802,0.639-0.802,1.067    c0,0.227,0.093,0.395,0.28,0.503c0.187,0.108,0.507,0.163,0.961,0.163h1.468c0.898,0,1.588,0.189,2.07,0.567    c0.482,0.379,0.723,0.929,0.723,1.65c0,0.918-0.368,1.618-1.104,2.1c-0.737,0.482-1.812,0.723-3.225,0.723    c-1.084,0-1.921-0.202-2.509-0.605s-0.882-0.974-0.882-1.71c0-0.505,0.162-0.941,0.484-1.31c0.323-0.368,0.777-0.618,1.362-0.749    c-0.212-0.096-0.39-0.245-0.533-0.446c-0.144-0.202-0.216-0.437-0.216-0.704c0-0.303,0.081-0.567,0.242-0.795    c0.162-0.227,0.416-0.446,0.765-0.658c-0.429-0.177-0.779-0.477-1.048-0.9c-0.27-0.424-0.405-0.908-0.405-1.453    c0-0.908,0.272-1.608,0.817-2.101c0.545-0.492,1.316-0.738,2.315-0.738c0.434,0,0.825,0.05,1.173,0.151H149.177z M142.562,21.024    c0,0.449,0.189,0.79,0.568,1.022c0.378,0.232,0.921,0.348,1.627,0.348c1.054,0,1.835-0.157,2.342-0.473    c0.507-0.315,0.76-0.743,0.76-1.283c0-0.449-0.139-0.76-0.416-0.935c-0.277-0.174-0.8-0.261-1.566-0.261h-1.506    c-0.57,0-1.014,0.136-1.332,0.408S142.562,20.514,142.562,21.024z M143.243,13.993c0,0.58,0.164,1.019,0.492,1.316    c0.328,0.298,0.785,0.447,1.37,0.447c1.227,0,1.839-0.595,1.839-1.786c0-1.246-0.621-1.87-1.862-1.87    c-0.59,0-1.044,0.159-1.362,0.477S143.243,13.367,143.243,13.993z" />
            <path class="st8"
                d="M154.383,19.783c-1.226,0-2.193-0.374-2.902-1.12s-1.063-1.784-1.063-3.111c0-1.337,0.33-2.399,0.988-3.186    c0.659-0.787,1.543-1.181,2.653-1.181c1.04,0,1.862,0.342,2.467,1.025c0.605,0.684,0.908,1.585,0.908,2.706v0.795h-5.714    c0.025,0.974,0.271,1.713,0.738,2.218c0.466,0.504,1.124,0.757,1.972,0.757c0.893,0,1.776-0.187,2.648-0.561v1.12    c-0.444,0.192-0.864,0.33-1.26,0.413C155.421,19.741,154.944,19.783,154.383,19.783z M154.043,12.237    c-0.666,0-1.197,0.217-1.593,0.65c-0.396,0.434-0.629,1.035-0.7,1.802h4.337c0-0.792-0.177-1.399-0.53-1.82    S154.699,12.237,154.043,12.237z" />
            <path class="st8"
                d="M165.251,19.631v-5.366c0-0.676-0.153-1.181-0.461-1.514c-0.309-0.333-0.79-0.5-1.446-0.5    c-0.867,0-1.503,0.235-1.907,0.704c-0.403,0.469-0.605,1.244-0.605,2.323v4.352h-1.256v-8.295h1.021l0.205,1.135h0.061    c0.257-0.409,0.618-0.725,1.083-0.95c0.464-0.225,0.98-0.337,1.551-0.337c0.999,0,1.751,0.241,2.256,0.723    c0.504,0.482,0.757,1.252,0.757,2.312v5.412H165.251z" />
            <path class="st8"
                d="M179.904,11.336v0.794l-1.537,0.182c0.142,0.177,0.268,0.408,0.379,0.693c0.11,0.285,0.166,0.607,0.166,0.965    c0,0.812-0.277,1.46-0.832,1.945c-0.556,0.484-1.317,0.727-2.286,0.727c-0.247,0-0.479-0.02-0.696-0.061    c-0.534,0.283-0.802,0.639-0.802,1.067c0,0.227,0.093,0.395,0.28,0.503c0.187,0.108,0.507,0.163,0.961,0.163h1.468    c0.898,0,1.588,0.189,2.07,0.567c0.481,0.379,0.723,0.929,0.723,1.65c0,0.918-0.368,1.618-1.104,2.1    c-0.737,0.482-1.812,0.723-3.225,0.723c-1.085,0-1.921-0.202-2.509-0.605s-0.882-0.974-0.882-1.71c0-0.505,0.161-0.941,0.484-1.31    c0.323-0.368,0.777-0.618,1.362-0.749c-0.212-0.096-0.39-0.245-0.533-0.446c-0.145-0.202-0.216-0.437-0.216-0.704    c0-0.303,0.08-0.567,0.242-0.795c0.161-0.227,0.416-0.446,0.765-0.658c-0.43-0.177-0.779-0.477-1.049-0.9    s-0.404-0.908-0.404-1.453c0-0.908,0.272-1.608,0.817-2.101c0.545-0.492,1.316-0.738,2.315-0.738c0.434,0,0.825,0.05,1.173,0.151    H179.904z M173.289,21.024c0,0.449,0.189,0.79,0.567,1.022c0.379,0.232,0.921,0.348,1.628,0.348c1.054,0,1.835-0.157,2.342-0.473    s0.761-0.743,0.761-1.283c0-0.449-0.139-0.76-0.416-0.935c-0.277-0.174-0.8-0.261-1.566-0.261h-1.507    c-0.57,0-1.014,0.136-1.332,0.408C173.448,20.123,173.289,20.514,173.289,21.024z M173.971,13.993c0,0.58,0.163,1.019,0.491,1.316    c0.328,0.298,0.785,0.447,1.37,0.447c1.227,0,1.839-0.595,1.839-1.786c0-1.246-0.62-1.87-1.861-1.87    c-0.591,0-1.045,0.159-1.362,0.477C174.129,12.895,173.971,13.367,173.971,13.993z" />
            <path class="st8"
                d="M185.11,19.783c-1.226,0-2.193-0.374-2.902-1.12s-1.063-1.784-1.063-3.111c0-1.337,0.33-2.399,0.988-3.186    s1.543-1.181,2.652-1.181c1.04,0,1.862,0.342,2.468,1.025c0.605,0.684,0.908,1.585,0.908,2.706v0.795h-5.715    c0.025,0.974,0.271,1.713,0.738,2.218c0.467,0.504,1.124,0.757,1.972,0.757c0.893,0,1.776-0.187,2.648-0.561v1.12    c-0.443,0.192-0.863,0.33-1.26,0.413C186.148,19.741,185.671,19.783,185.11,19.783z M184.771,12.237    c-0.666,0-1.197,0.217-1.594,0.65c-0.396,0.434-0.629,1.035-0.7,1.802h4.337c0-0.792-0.177-1.399-0.529-1.82    C185.931,12.448,185.426,12.237,184.771,12.237z" />
            <path class="st8"
                d="M194.041,12.312h-2.111v7.319h-1.256v-7.319h-1.483v-0.567l1.483-0.454v-0.462    c0-2.038,0.89-3.058,2.671-3.058c0.439,0,0.954,0.089,1.544,0.265l-0.325,1.006c-0.484-0.156-0.898-0.234-1.241-0.234    c-0.475,0-0.825,0.158-1.052,0.473c-0.228,0.315-0.341,0.821-0.341,1.517v0.538h2.111V12.312z" />
            <path class="st8"
                d="M200.656,19.631l-0.25-1.181h-0.061c-0.414,0.52-0.826,0.872-1.237,1.056s-0.925,0.276-1.54,0.276    c-0.822,0-1.468-0.212-1.934-0.636c-0.467-0.424-0.7-1.027-0.7-1.809c0-1.675,1.339-2.553,4.019-2.634l1.407-0.045v-0.515    c0-0.651-0.14-1.132-0.42-1.442c-0.279-0.311-0.728-0.465-1.343-0.465c-0.691,0-1.474,0.212-2.347,0.636l-0.386-0.961    c0.408-0.222,0.856-0.396,1.344-0.522c0.486-0.126,0.975-0.189,1.464-0.189c0.989,0,1.722,0.22,2.199,0.658    c0.477,0.439,0.715,1.143,0.715,2.112v5.661H200.656z M197.817,18.746c0.782,0,1.396-0.215,1.844-0.644    c0.446-0.429,0.669-1.029,0.669-1.801v-0.75l-1.256,0.053c-0.999,0.036-1.72,0.19-2.161,0.465    c-0.441,0.275-0.662,0.703-0.662,1.283c0,0.454,0.138,0.8,0.413,1.037C196.938,18.627,197.323,18.746,197.817,18.746z     M196.334,9.089c0-0.263,0.067-0.452,0.201-0.568c0.134-0.116,0.294-0.174,0.48-0.174c0.191,0,0.356,0.059,0.496,0.174    c0.139,0.116,0.208,0.305,0.208,0.568c0,0.252-0.069,0.44-0.208,0.563c-0.14,0.124-0.305,0.186-0.496,0.186    c-0.187,0-0.347-0.062-0.48-0.186C196.401,9.529,196.334,9.341,196.334,9.089z M199.218,9.089c0-0.263,0.067-0.452,0.201-0.568    c0.133-0.116,0.294-0.174,0.48-0.174s0.349,0.059,0.488,0.174c0.139,0.116,0.208,0.305,0.208,0.568    c0,0.252-0.069,0.44-0.208,0.563c-0.14,0.124-0.302,0.186-0.488,0.186s-0.348-0.062-0.48-0.186    C199.285,9.529,199.218,9.341,199.218,9.089z" />
            <path class="st8"
                d="M209.852,19.631v-5.366c0-0.676-0.153-1.181-0.461-1.514c-0.309-0.333-0.79-0.5-1.446-0.5    c-0.873,0-1.51,0.237-1.911,0.712c-0.4,0.474-0.602,1.251-0.602,2.331v4.336h-1.256V7.855h1.256v3.565    c0,0.429-0.02,0.784-0.061,1.067h0.076c0.247-0.398,0.599-0.712,1.056-0.942c0.456-0.229,0.978-0.344,1.562-0.344    c1.015,0,1.775,0.241,2.282,0.723c0.507,0.482,0.761,1.248,0.761,2.297v5.412H209.852z" />
            <path class="st8"
                d="M217.474,11.185c0.368,0,0.698,0.03,0.991,0.091l-0.174,1.166c-0.344-0.076-0.646-0.113-0.908-0.113    c-0.671,0-1.245,0.272-1.722,0.817c-0.478,0.545-0.716,1.224-0.716,2.036v4.45h-1.256v-8.295h1.037l0.144,1.537h0.061    c0.308-0.54,0.679-0.956,1.112-1.249C216.477,11.331,216.954,11.185,217.474,11.185z" />
            <path class="st8"
                d="M225.662,18.518h-0.067c-0.581,0.843-1.448,1.264-2.604,1.264c-1.085,0-1.93-0.371-2.532-1.113    c-0.603-0.741-0.904-1.796-0.904-3.163c0-1.368,0.303-2.43,0.908-3.187s1.448-1.135,2.528-1.135c1.125,0,1.987,0.409,2.588,1.226    h0.099l-0.053-0.598l-0.03-0.583V7.855h1.256v11.776h-1.021L225.662,18.518z M223.149,18.73c0.858,0,1.479-0.233,1.866-0.7    c0.386-0.467,0.579-1.22,0.579-2.259v-0.265c0-1.176-0.196-2.015-0.587-2.517c-0.392-0.502-1.016-0.753-1.873-0.753    c-0.737,0-1.301,0.286-1.691,0.859c-0.392,0.573-0.587,1.381-0.587,2.425c0,1.06,0.194,1.859,0.583,2.399    S222.397,18.73,223.149,18.73z" />
            <path class="st8"
                d="M233.019,19.783c-1.226,0-2.193-0.374-2.902-1.12s-1.063-1.784-1.063-3.111c0-1.337,0.329-2.399,0.987-3.186    c0.659-0.787,1.543-1.181,2.653-1.181c1.039,0,1.861,0.342,2.467,1.025c0.605,0.684,0.908,1.585,0.908,2.706v0.795h-5.714    c0.025,0.974,0.271,1.713,0.738,2.218c0.466,0.504,1.124,0.757,1.972,0.757c0.893,0,1.775-0.187,2.648-0.561v1.12    c-0.444,0.192-0.864,0.33-1.26,0.413C234.057,19.741,233.579,19.783,233.019,19.783z M232.678,12.237    c-0.666,0-1.197,0.217-1.593,0.65c-0.396,0.434-0.63,1.035-0.7,1.802h4.337c0-0.792-0.177-1.399-0.53-1.82    C233.839,12.448,233.334,12.237,232.678,12.237z" />
            <path class="st8"
                d="M240.89,18.746c0.223,0,0.437-0.017,0.644-0.049s0.371-0.067,0.492-0.102v0.961    c-0.137,0.065-0.337,0.12-0.602,0.163c-0.266,0.043-0.504,0.064-0.716,0.064c-1.604,0-2.406-0.845-2.406-2.536v-4.935h-1.188    v-0.605l1.188-0.522l0.529-1.771h0.727v1.922h2.407v0.976h-2.407v4.882c0,0.5,0.119,0.883,0.356,1.15    C240.15,18.612,240.477,18.746,240.89,18.746z" />
            <path class="st8"
                d="M244.538,16.581v-0.408c0-0.591,0.091-1.076,0.272-1.457s0.52-0.783,1.014-1.207    c0.687-0.581,1.119-1.017,1.298-1.31c0.18-0.292,0.27-0.646,0.27-1.06c0-0.515-0.166-0.912-0.496-1.192    c-0.331-0.28-0.807-0.42-1.427-0.42c-0.398,0-0.787,0.047-1.166,0.14c-0.378,0.093-0.812,0.264-1.302,0.511l-0.446-1.022    c0.954-0.5,1.95-0.75,2.989-0.75c0.964,0,1.714,0.237,2.248,0.712c0.535,0.474,0.803,1.143,0.803,2.005    c0,0.369-0.05,0.692-0.147,0.973c-0.099,0.28-0.244,0.545-0.436,0.794c-0.191,0.25-0.605,0.652-1.241,1.207    c-0.51,0.434-0.847,0.795-1.011,1.083s-0.245,0.671-0.245,1.15v0.25H244.538z M244.167,18.829c0-0.686,0.303-1.029,0.908-1.029    c0.293,0,0.519,0.088,0.678,0.265c0.158,0.177,0.238,0.432,0.238,0.765c0,0.323-0.081,0.574-0.242,0.753    c-0.162,0.179-0.387,0.269-0.674,0.269c-0.263,0-0.479-0.079-0.65-0.238C244.253,19.454,244.167,19.192,244.167,18.829z" />
        </g>
        <g>
            <path class="st8"
                d="M246.764,170.621v-4.5c0-0.567-0.129-0.99-0.388-1.27c-0.258-0.279-0.662-0.419-1.212-0.419    c-0.732,0-1.267,0.199-1.603,0.597c-0.337,0.398-0.505,1.049-0.505,1.955v3.637h-1.054v-9.877h1.054v2.99    c0,0.36-0.017,0.658-0.051,0.895h0.063c0.207-0.334,0.503-0.598,0.886-0.79c0.383-0.193,0.819-0.289,1.311-0.289    c0.851,0,1.488,0.202,1.914,0.606c0.425,0.404,0.638,1.046,0.638,1.926v4.539H246.764z" />
            <path class="st8"
                d="M255.987,167.136c0,1.134-0.286,2.02-0.856,2.657c-0.572,0.637-1.361,0.955-2.368,0.955    c-0.622,0-1.175-0.146-1.657-0.438s-0.854-0.711-1.117-1.257c-0.262-0.546-0.393-1.185-0.393-1.917c0-1.134,0.283-2.018,0.85-2.65    c0.567-0.633,1.354-0.949,2.361-0.949c0.974,0,1.747,0.324,2.32,0.971S255.987,166.032,255.987,167.136z M250.688,167.136    c0,0.889,0.178,1.566,0.533,2.031s0.878,0.698,1.567,0.698s1.214-0.232,1.571-0.695c0.357-0.464,0.536-1.142,0.536-2.035    c0-0.884-0.179-1.556-0.536-2.015c-0.357-0.459-0.886-0.689-1.584-0.689c-0.689,0-1.21,0.226-1.562,0.679    S250.688,166.239,250.688,167.136z" />
            <path class="st8"
                d="M262.595,170.621v-4.5c0-0.567-0.129-0.99-0.388-1.27c-0.258-0.279-0.662-0.419-1.212-0.419    c-0.732,0-1.267,0.199-1.603,0.597c-0.337,0.398-0.505,1.049-0.505,1.955v3.637h-1.054v-9.877h1.054v2.99    c0,0.36-0.017,0.658-0.051,0.895h0.063c0.207-0.334,0.503-0.598,0.886-0.79c0.383-0.193,0.819-0.289,1.311-0.289    c0.851,0,1.488,0.202,1.914,0.606c0.425,0.404,0.638,1.046,0.638,1.926v4.539H262.595z" />
            <path class="st8"
                d="M268.752,170.748c-1.029,0-1.84-0.313-2.435-0.939s-0.892-1.496-0.892-2.609c0-1.122,0.275-2.012,0.828-2.672    c0.552-0.66,1.294-0.99,2.225-0.99c0.872,0,1.562,0.287,2.069,0.86c0.508,0.573,0.762,1.33,0.762,2.269v0.667h-4.792    c0.021,0.816,0.227,1.437,0.618,1.86s0.942,0.635,1.653,0.635c0.75,0,1.49-0.157,2.223-0.47v0.939    c-0.373,0.161-0.726,0.276-1.058,0.346C269.622,170.713,269.221,170.748,268.752,170.748z M268.466,164.419    c-0.559,0-1.004,0.182-1.336,0.546s-0.528,0.868-0.587,1.511h3.637c0-0.665-0.148-1.173-0.444-1.527    C269.439,164.596,269.016,164.419,268.466,164.419z" />
            <path class="st8"
                d="M277.594,168.723c0,0.647-0.242,1.147-0.725,1.498s-1.159,0.527-2.031,0.527    c-0.922,0-1.642-0.146-2.158-0.438v-0.978c0.335,0.169,0.693,0.302,1.076,0.4s0.752,0.146,1.107,0.146    c0.551,0,0.974-0.088,1.27-0.263c0.297-0.176,0.445-0.443,0.445-0.803c0-0.271-0.118-0.502-0.353-0.695    c-0.235-0.193-0.693-0.42-1.374-0.683c-0.648-0.241-1.108-0.452-1.381-0.632c-0.273-0.18-0.477-0.384-0.609-0.612    c-0.134-0.229-0.2-0.501-0.2-0.819c0-0.567,0.23-1.015,0.692-1.342c0.461-0.328,1.094-0.492,1.897-0.492    c0.749,0,1.481,0.152,2.196,0.457l-0.375,0.857c-0.697-0.288-1.33-0.432-1.897-0.432c-0.499,0-0.876,0.079-1.13,0.235    s-0.381,0.372-0.381,0.647c0,0.187,0.048,0.345,0.143,0.476c0.096,0.131,0.249,0.256,0.461,0.375    c0.211,0.118,0.617,0.29,1.219,0.514c0.824,0.3,1.382,0.603,1.672,0.908S277.594,168.262,277.594,168.723z" />
            <path class="st8"
                d="M244.148,182.362v3.859h-1.08v-9.28h2.546c1.139,0,1.979,0.218,2.523,0.654s0.815,1.092,0.815,1.968    c0,1.228-0.622,2.057-1.866,2.488l2.521,4.17h-1.276l-2.247-3.859H244.148z M244.148,181.435h1.479    c0.762,0,1.32-0.151,1.676-0.454c0.355-0.303,0.533-0.757,0.533-1.362c0-0.614-0.181-1.056-0.543-1.327    c-0.361-0.271-0.942-0.406-1.742-0.406h-1.402V181.435z" />
            <path class="st8"
                d="M250.857,177.379c0-0.241,0.06-0.418,0.178-0.53c0.118-0.112,0.267-0.168,0.444-0.168    c0.169,0,0.315,0.057,0.438,0.171c0.123,0.114,0.185,0.29,0.185,0.527s-0.062,0.414-0.185,0.53    c-0.122,0.116-0.269,0.174-0.438,0.174c-0.178,0-0.326-0.058-0.444-0.174C250.917,177.792,250.857,177.616,250.857,177.379z     M252,186.221h-1.054v-6.957H252V186.221z" />
            <path class="st8"
                d="M258.723,184.323c0,0.647-0.242,1.146-0.725,1.498s-1.159,0.527-2.031,0.527    c-0.922,0-1.642-0.146-2.158-0.438v-0.978c0.335,0.169,0.693,0.303,1.076,0.4s0.752,0.146,1.107,0.146    c0.551,0,0.974-0.088,1.27-0.264c0.297-0.175,0.445-0.443,0.445-0.803c0-0.271-0.118-0.502-0.353-0.695    c-0.235-0.192-0.693-0.42-1.374-0.682c-0.648-0.241-1.108-0.452-1.381-0.631c-0.273-0.18-0.477-0.384-0.609-0.613    c-0.134-0.229-0.2-0.501-0.2-0.819c0-0.567,0.23-1.015,0.692-1.343c0.461-0.328,1.094-0.492,1.897-0.492    c0.749,0,1.481,0.152,2.196,0.457l-0.375,0.857c-0.697-0.288-1.33-0.432-1.897-0.432c-0.499,0-0.876,0.078-1.13,0.235    s-0.381,0.373-0.381,0.647c0,0.186,0.048,0.345,0.143,0.476c0.096,0.131,0.249,0.256,0.461,0.375    c0.211,0.119,0.617,0.29,1.219,0.514c0.824,0.301,1.382,0.603,1.672,0.908S258.723,183.862,258.723,184.323z" />
            <path class="st8"
                d="M260.347,177.379c0-0.241,0.06-0.418,0.178-0.53c0.118-0.112,0.267-0.168,0.444-0.168    c0.169,0,0.315,0.057,0.438,0.171c0.123,0.114,0.185,0.29,0.185,0.527s-0.062,0.414-0.185,0.53    c-0.122,0.116-0.269,0.174-0.438,0.174c-0.178,0-0.326-0.058-0.444-0.174C260.406,177.792,260.347,177.616,260.347,177.379z     M261.489,186.221h-1.054v-6.957h1.054V186.221z" />
            <path class="st8"
                d="M264.765,182.66c0.182-0.258,0.459-0.597,0.832-1.016l2.246-2.38h1.251l-2.818,2.964l3.015,3.993h-1.275    l-2.457-3.288l-0.793,0.686v2.603h-1.041v-9.877h1.041v5.237c0,0.232-0.017,0.593-0.051,1.079H264.765z" />
            <path class="st8"
                d="M276.552,182.736c0,1.134-0.286,2.02-0.856,2.656c-0.572,0.637-1.361,0.956-2.368,0.956    c-0.622,0-1.175-0.146-1.657-0.438s-0.854-0.711-1.117-1.257c-0.262-0.546-0.393-1.185-0.393-1.917c0-1.134,0.283-2.018,0.85-2.65    c0.567-0.632,1.354-0.949,2.361-0.949c0.974,0,1.747,0.324,2.32,0.971S276.552,181.632,276.552,182.736z M271.252,182.736    c0,0.889,0.178,1.565,0.533,2.031s0.878,0.698,1.567,0.698s1.214-0.231,1.571-0.695c0.357-0.463,0.536-1.142,0.536-2.034    c0-0.885-0.179-1.556-0.536-2.016c-0.357-0.459-0.886-0.688-1.584-0.688c-0.689,0-1.21,0.227-1.562,0.679    S271.252,181.839,271.252,182.736z" />
        </g>
        <path class="st5"
            d="M199.746,46.17c0,0,7.717,3.232,4.499,9.945s-9.054,16.597-9.054,16.597l3.612,1.878l14.085-25.188   L199.746,46.17z" />
        <path class="st7"
            d="M47.409,145.061c0-62.192,50.417-112.609,112.609-112.609c62.193,0,112.609,50.418,112.609,112.609h-32.179   c0-44.42-36.01-80.429-80.43-80.429c-44.419,0-80.429,36.009-80.429,80.429H47.409z" />
        <line class="st7" x1="198.804" y1="74.59" x2="214.324" y2="46.391" />
        <polygon class="st4" points="39.91,143.387 55.155,136.242 41.105,126.587  " />
        <path class="st5"
            d="M41.731,133.426c0.082-0.423,0.188-0.886,0.535-1.14c0.424-0.31,1.015-0.178,1.517-0.022   c3.004,0.931,5.901,2.209,8.614,3.8c0.423,0.248,0.849,0.507,1.323,0.631c0.474,0.124,1.042-0.161,1.436-0.453   c-0.173-0.245-1.342-0.922-1.589-1.092c-4.854-3.336-7.945-5.266-12.346-8.496c0.007,0.758,0.014,1.516-0.048,2.271   c-0.063,0.762-0.196,1.517-0.296,2.275c-0.143,1.082-0.217,2.173-0.223,3.264c-0.002,0.394-0.668,8.429-0.443,8.782   c0.268,0.42,1.124-7.806,1.172-8.02C41.513,134.63,41.615,134.025,41.731,133.426z" />
        <polygon class="st7" points="39.91,143.387 55.155,136.242 41.105,126.587  " />
        <line class="st11" x1="-7.132" y1="197.153" x2="98" y2="197.153" />
        <line class="st11" x1="339.371" y1="199.153" x2="222" y2="197.153" />
    </g>
    <g id="Text">
    </g>
</svg>