<?xml version="1.0" encoding="utf-8"?>
<!-- Generator: Adobe Illustrator 25.2.0, SVG Export Plug-In . SVG Version: 6.00 Build 0)  -->
<svg version="1.1" baseProfile="basic" id="Grafik" xmlns="http://www.w3.org/2000/svg" xmlns:xlink="http://www.w3.org/1999/xlink"
	 x="0px" y="0px" width="750px" height="400.547px" viewBox="0 0 750 400.547" xml:space="preserve">
<style type="text/css">
	.st0{fill:#FFFFFF;}
	.st1{fill:#D0E2F3;}
	.st2{fill:none;stroke:#004B8C;stroke-miterlimit:10;}
	.st3{fill:none;stroke:#004B8C;stroke-linecap:round;stroke-linejoin:round;stroke-miterlimit:10;}
	.st4{fill:#404040;}
	.st5{fill:#E8F0F9;}
	.st6{fill-rule:evenodd;clip-rule:evenodd;fill:#FFFFFF;}
	.st7{fill:#004B8C;}
	.st8{fill:#E6411A;}
	.st9{fill:#003554;}
	.st10{clip-path:url(#SVGID_2_);fill:#D0E2F3;}
	.st11{fill:none;stroke:#3A8DFF;stroke-linecap:round;stroke-linejoin:round;stroke-miterlimit:10;}
	.st12{fill:#3A8DFF;}
	.st13{opacity:0.2;}
	.st14{clip-path:url(#SVGID_4_);fill:#156CC4;}
	.st15{clip-path:url(#SVGID_6_);fill:#156CC4;}
	.st16{clip-path:url(#SVGID_8_);fill:#156CC4;}
	.st17{clip-path:url(#SVGID_10_);fill:#156CC4;}
	.st18{clip-path:url(#SVGID_12_);fill:#156CC4;}
	.st19{clip-path:url(#SVGID_14_);fill:#156CC4;}
	.st20{clip-path:url(#SVGID_16_);fill:#156CC4;}
	.st21{clip-path:url(#SVGID_18_);fill:#156CC4;}
	.st22{clip-path:url(#SVGID_20_);fill:#156CC4;}
	.st23{clip-path:url(#SVGID_22_);fill:#156CC4;}
	.st24{clip-path:url(#SVGID_24_);fill:#156CC4;}
	.st25{clip-path:url(#SVGID_26_);fill:#156CC4;}
	.st26{clip-path:url(#SVGID_28_);fill:#156CC4;}
	.st27{clip-path:url(#SVGID_30_);fill:#156CC4;}
	.st28{clip-path:url(#SVGID_32_);fill:#156CC4;}
	.st29{clip-path:url(#SVGID_34_);fill:#156CC4;}
	.st30{clip-path:url(#SVGID_36_);fill:#156CC4;}
	.st31{clip-path:url(#SVGID_38_);fill:#156CC4;}
	.st32{clip-path:url(#SVGID_40_);fill:#156CC4;}
	.st33{clip-path:url(#SVGID_42_);fill:#156CC4;}
	.st34{clip-path:url(#SVGID_44_);fill:#156CC4;}
	.st35{clip-path:url(#SVGID_46_);fill:#156CC4;}
	.st36{clip-path:url(#SVGID_48_);fill:#156CC4;}
	.st37{clip-path:url(#SVGID_50_);fill:#156CC4;}
	.st38{clip-path:url(#SVGID_52_);fill:#156CC4;}
	.st39{clip-path:url(#SVGID_54_);fill:#156CC4;}
	.st40{clip-path:url(#SVGID_56_);fill:#156CC4;}
	.st41{clip-path:url(#SVGID_58_);fill:#156CC4;}
	.st42{fill:none;stroke:#D7D7D7;stroke-linecap:round;stroke-miterlimit:10;}
	.st43{fill:none;stroke:#004B8C;stroke-width:0.5;stroke-linecap:round;stroke-linejoin:round;stroke-miterlimit:10;}
	.st44{fill:none;stroke:#004B8C;stroke-width:1.75;stroke-linecap:round;stroke-linejoin:round;stroke-miterlimit:10;}
	.st45{fill:none;stroke:#004B8C;stroke-linecap:round;stroke-miterlimit:10;}
	.st46{fill:none;stroke:#BFCCD4;stroke-linecap:round;stroke-miterlimit:10;}
	.st47{fill:#FFFFFF;stroke:#004B8C;stroke-linecap:round;stroke-linejoin:round;stroke-miterlimit:10;}
	.st48{fill:#004B8C;stroke:#004B8C;stroke-linecap:round;stroke-linejoin:round;stroke-miterlimit:10;}
	.st49{clip-path:url(#SVGID_60_);fill:#D0E2F3;}
	.st50{fill:none;}
	.st51{fill:#929292;}
	.st52{fill:#922C1C;}
	.st53{fill:#F3F7FC;}
	.st54{fill:#A1C4E7;}
	.st55{fill:none;stroke:#F3F7FC;stroke-width:0;stroke-linecap:round;stroke-linejoin:round;}
</style>
<path class="st0" d="M238.973,94.388c0.121-1.488-0.063-2.919-0.117-4.374v-0.723c0-0.34-0.006-0.679,0.022-1.024h-0.022v-0.424
	h-70.418v0.001l-0.155-0.001c0.052,0.399,0.103,0.799,0.155,1.197v10.831h1.385h0.325v0.002l-0.325-0.002
	c0.103,0.798,0.207,1.596,0.31,2.394c0.005,0,0.01,0,0.015,0v2.133l4.93,5.021h-0.107l1.258,1.172l1.284,1.308h1.807v2.931h1.082
	v6.942h1.39c0.023,0.18,0.047,0.358,0.07,0.538v2.262h-1.46l-2.012,174.229h-1.327l-0.97,1.191c0.043,0.001,0.092,0.002,0.137,0.003
	c-0.042,0.136-0.072,0.277-0.072,0.427c0,0.793,0.643,1.437,1.437,1.437h0.794l-0.116,0.159c-0.531,0.347-1.139,0.899-0.795,1.091
	l-1.528,2.095h-2.317c-1.259,0-2.28,1.021-2.28,2.28c0,0.985,0.629,1.816,1.504,2.135l-2.782-0.017
	c0.032,0.245,0.064,0.49,0.095,0.736v10.413h63.923c0,0.001,0,0.002,0,0.003c1.104,0.001,2.208,0.003,3.313,0.004
	c-0.114-0.208-0.203-0.423-0.281-0.643v-7.473c0.058-0.877,0.116-1.754,0.187-2.629l-0.187-0.001v-0.25h-3.462
	c1.259,0,2.28-1.021,2.28-2.279c0-1.26-1.021-2.28-2.28-2.28h-0.685c-0.553-0.072-1.124-0.075-1.683-0.069l-1.412-1.938
	c-0.232-0.429-0.464-0.857-0.711-1.277c-0.078-0.005-0.156-0.013-0.235-0.02l-0.03-0.041h0.794c0.793,0,1.437-0.644,1.437-1.437
	c0-0.794-0.643-1.437-1.437-1.437h-0.794l-2.014-174.414h-1.46c0.031-0.38,0.025-0.65,0-0.867v-1.933h1.46v-6.838h0.782
	c0.003-0.04,0.002-0.066,0.004-0.104h0.296v-2.915l1.807-0.016l2.475-2.479h-0.041l0.019-0.02c0.007-0.003,0.014,0.001,0.021-0.003
	c0.065-0.034,0.106-0.112,0.148-0.17l0.916-0.934c0.678-0.63,1.391-1.222,2.062-1.858c0.405-0.385,0.804-0.787,1.132-1.24
	c0.098-0.135,0.191-0.281,0.273-0.434l0.357-0.363l0-2.331c0.023-0.394,0.051-0.837,0.126-1.772h-0.126l0-0.423h1.709v-0.152
	c0.039,0,0.078,0,0.117,0c-0.05-0.091-0.079-0.194-0.117-0.292v-4.064C238.904,95.023,238.949,94.692,238.973,94.388z"/>
<path class="st0" d="M412.06,94.388c0.121-1.488-0.063-2.919-0.117-4.374v-0.723c0-0.34-0.006-0.679,0.022-1.024h-0.022v-0.424
	h-70.418v0.001l-0.155-0.001c0.052,0.399,0.103,0.799,0.155,1.197v10.831h1.385h0.325v0.002l-0.325-0.002
	c0.103,0.798,0.207,1.596,0.31,2.394c0.005,0,0.01,0,0.015,0v2.133l4.93,5.021h-0.107l1.258,1.172l1.284,1.308h1.807v2.931h1.082
	v6.942h1.39c0.023,0.18,0.047,0.358,0.07,0.538v2.262h-1.46l-2.012,174.229h-1.327l-0.97,1.191c0.043,0.001,0.092,0.002,0.137,0.003
	c-0.042,0.136-0.072,0.277-0.072,0.427c0,0.793,0.643,1.437,1.437,1.437h0.794l-0.116,0.159c-0.531,0.347-1.139,0.899-0.795,1.091
	l-1.528,2.095h-2.317c-1.259,0-2.28,1.021-2.28,2.28c0,0.985,0.629,1.816,1.504,2.135l-2.782-0.017
	c0.032,0.245,0.064,0.49,0.095,0.736v10.413h63.923c0,0.001,0,0.002,0,0.003c1.104,0.001,2.208,0.003,3.313,0.004
	c-0.114-0.208-0.203-0.423-0.281-0.643v-7.473c0.058-0.877,0.116-1.754,0.187-2.629l-0.187-0.001v-0.25h-3.462
	c1.259,0,2.28-1.021,2.28-2.279c0-1.26-1.021-2.28-2.28-2.28h-0.685c-0.553-0.072-1.124-0.075-1.683-0.069l-1.412-1.938
	c-0.232-0.429-0.464-0.857-0.711-1.277c-0.078-0.005-0.156-0.013-0.235-0.02l-0.03-0.041h0.794c0.793,0,1.437-0.644,1.437-1.437
	c0-0.794-0.643-1.437-1.437-1.437h-0.794l-2.014-174.414h-1.46c0.031-0.38,0.025-0.65,0-0.867v-1.933h1.46v-6.838h0.782
	c0.003-0.04,0.002-0.066,0.004-0.104h0.296v-2.915l1.807-0.016l2.475-2.479h-0.041l0.019-0.02c0.007-0.003,0.014,0.001,0.021-0.003
	c0.065-0.034,0.106-0.112,0.148-0.17l0.916-0.934c0.678-0.63,1.391-1.222,2.062-1.858c0.405-0.385,0.804-0.787,1.132-1.24
	c0.098-0.135,0.191-0.281,0.273-0.434l0.357-0.363l0-2.331c0.023-0.394,0.051-0.837,0.126-1.772h-0.126l0-0.423h1.709v-0.152
	c0.039,0,0.078,0,0.117,0c-0.05-0.091-0.079-0.194-0.117-0.292v-4.064C411.99,95.023,412.035,94.692,412.06,94.388z"/>
<path class="st0" d="M589.788,94.388c0.121-1.488-0.063-2.919-0.117-4.374v-0.723c0-0.34-0.006-0.679,0.022-1.024h-0.022v-0.424
	h-70.418v0.001l-0.155-0.001c0.052,0.399,0.103,0.799,0.155,1.197v10.831h1.385h0.325v0.002l-0.325-0.002
	c0.103,0.798,0.207,1.596,0.31,2.394c0.005,0,0.01,0,0.015,0v2.133l4.93,5.021h-0.107l1.258,1.172l1.284,1.308h1.807v2.931h1.082
	v6.942h1.39c0.023,0.18,0.047,0.358,0.07,0.538v2.262h-1.46l-2.012,174.229h-1.327l-0.97,1.191c0.043,0.001,0.092,0.002,0.137,0.003
	c-0.042,0.136-0.072,0.277-0.072,0.427c0,0.793,0.643,1.437,1.437,1.437h0.794l-0.116,0.159c-0.531,0.347-1.139,0.899-0.795,1.091
	l-1.528,2.095h-2.317c-1.259,0-2.28,1.021-2.28,2.28c0,0.985,0.629,1.816,1.504,2.135l-2.782-0.017
	c0.032,0.245,0.064,0.49,0.095,0.736v10.413h63.923c0,0.001,0,0.002,0,0.003c1.104,0.001,2.208,0.003,3.313,0.004
	c-0.114-0.208-0.203-0.423-0.281-0.643v-7.473c0.058-0.877,0.116-1.754,0.187-2.629l-0.187-0.001v-0.25h-3.462
	c1.259,0,2.28-1.021,2.28-2.279c0-1.26-1.021-2.28-2.28-2.28h-0.685c-0.553-0.072-1.124-0.075-1.683-0.069l-1.412-1.938
	c-0.232-0.429-0.464-0.857-0.711-1.277c-0.078-0.005-0.156-0.013-0.235-0.02l-0.03-0.041h0.794c0.793,0,1.437-0.644,1.437-1.437
	c0-0.794-0.643-1.437-1.437-1.437h-0.794l-2.014-174.414h-1.46c0.031-0.38,0.025-0.65,0-0.867v-1.933h1.46v-6.838h0.782
	c0.003-0.04,0.002-0.066,0.004-0.104h0.296v-2.915l1.807-0.016l2.475-2.479h-0.041l0.019-0.02c0.007-0.003,0.014,0.001,0.021-0.003
	c0.065-0.034,0.106-0.112,0.148-0.17l0.916-0.934c0.678-0.63,1.391-1.222,2.062-1.858c0.405-0.385,0.804-0.787,1.132-1.24
	c0.098-0.135,0.191-0.281,0.273-0.434l0.357-0.363l0-2.331c0.023-0.394,0.051-0.837,0.126-1.772h-0.126l0-0.423h1.709v-0.152
	c0.039,0,0.078,0,0.117,0c-0.05-0.091-0.079-0.194-0.117-0.292v-4.064C589.719,95.023,589.764,94.692,589.788,94.388z"/>
<rect x="104.897" y="320.751" class="st0" width="543.244" height="21.499"/>
<rect x="104.897" y="55.917" class="st0" width="543.244" height="31.926"/>
<polygon class="st0" points="137.552,55.917 377.212,12.171 615.487,55.917 "/>
<path class="st1" d="M104.897,320.977v5.04c5.407,0.018,495.983-1.397,501.389-1.379c4.907,0.016,9.815,0.033,14.721,0.13
	c6.587,0.13,13.84-0.54,20.421-0.218c0.943,0.046,2.021,0.165,2.562,0.938c0.353,0.505,0.375,1.163,0.384,1.779
	c0.026,1.73,0.509,13.252,0.535,14.982l3.313,0.004c-0.763-1.39-0.655-13.826-0.527-15.407c0.164-2.026,0.27-4.063,0.434-6.089
	L104.897,320.977z"/>
<g>
	<path class="st4" d="M249.973,72.183c0,1.827-0.496,3.223-1.487,4.189c-0.991,0.966-2.418,1.449-4.28,1.449h-3.065V66.757h3.391
		c1.72,0,3.058,0.477,4.011,1.43C249.496,69.141,249.973,70.473,249.973,72.183z M248.61,72.229c0-1.443-0.362-2.53-1.086-3.262
		c-0.724-0.731-1.8-1.097-3.228-1.097h-1.87v8.84h1.567c1.534,0,2.687-0.377,3.458-1.132
		C248.225,74.824,248.61,73.707,248.61,72.229z"/>
	<path class="st4" d="M252.145,67.279c0-0.287,0.071-0.498,0.212-0.632s0.318-0.2,0.53-0.2c0.202,0,0.376,0.068,0.522,0.204
		c0.146,0.136,0.219,0.346,0.219,0.628c0,0.283-0.073,0.493-0.219,0.632c-0.146,0.139-0.321,0.208-0.522,0.208
		c-0.212,0-0.389-0.069-0.53-0.208C252.216,67.772,252.145,67.562,252.145,67.279z M253.507,77.822h-1.256v-8.295h1.256V77.822z"/>
	<path class="st4" d="M259.675,77.973c-1.226,0-2.193-0.373-2.902-1.12c-0.709-0.747-1.063-1.783-1.063-3.11
		c0-1.337,0.33-2.399,0.988-3.187c0.659-0.787,1.543-1.181,2.653-1.181c1.04,0,1.862,0.342,2.467,1.025s0.908,1.586,0.908,2.706
		v0.794h-5.714c0.025,0.974,0.271,1.713,0.738,2.217c0.466,0.505,1.124,0.757,1.972,0.757c0.893,0,1.776-0.187,2.648-0.56v1.12
		c-0.444,0.191-0.864,0.329-1.26,0.412C260.713,77.932,260.236,77.973,259.675,77.973z M259.335,70.427
		c-0.666,0-1.197,0.217-1.593,0.651c-0.396,0.434-0.629,1.034-0.7,1.801h4.337c0-0.792-0.177-1.398-0.53-1.82
		S259.991,70.427,259.335,70.427z"/>
	<path class="st4" d="M274.54,76.709h-0.068c-0.581,0.843-1.448,1.264-2.604,1.264c-1.085,0-1.929-0.371-2.532-1.112
		c-0.603-0.742-0.905-1.796-0.905-3.164c0-1.367,0.303-2.429,0.908-3.186s1.448-1.135,2.528-1.135c1.125,0,1.988,0.409,2.588,1.226
		h0.099l-0.053-0.598l-0.03-0.583v-3.375h1.256v11.776h-1.021L274.54,76.709z M272.027,76.921c0.858,0,1.479-0.233,1.866-0.7
		c0.386-0.467,0.579-1.22,0.579-2.259v-0.265c0-1.175-0.196-2.014-0.587-2.516c-0.391-0.502-1.015-0.753-1.873-0.753
		c-0.737,0-1.301,0.287-1.691,0.859c-0.391,0.572-0.587,1.381-0.587,2.426c0,1.06,0.194,1.859,0.583,2.399
		C270.705,76.651,271.275,76.921,272.027,76.921z"/>
	<path class="st4" d="M282.176,69.375c0.368,0,0.699,0.03,0.991,0.091l-0.174,1.166c-0.343-0.076-0.646-0.114-0.908-0.114
		c-0.671,0-1.245,0.272-1.722,0.817c-0.477,0.545-0.715,1.224-0.715,2.036v4.45h-1.256v-8.295h1.037l0.144,1.536h0.061
		c0.308-0.54,0.679-0.956,1.112-1.249C281.179,69.522,281.656,69.375,282.176,69.375z"/>
	<path class="st4" d="M288.223,77.973c-1.226,0-2.193-0.373-2.902-1.12c-0.709-0.747-1.063-1.783-1.063-3.11
		c0-1.337,0.33-2.399,0.988-3.187c0.659-0.787,1.543-1.181,2.653-1.181c1.04,0,1.862,0.342,2.467,1.025s0.908,1.586,0.908,2.706
		v0.794h-5.714c0.025,0.974,0.271,1.713,0.738,2.217c0.466,0.505,1.124,0.757,1.972,0.757c0.893,0,1.776-0.187,2.648-0.56v1.12
		c-0.444,0.191-0.864,0.329-1.26,0.412C289.261,77.932,288.783,77.973,288.223,77.973z M287.882,70.427
		c-0.666,0-1.197,0.217-1.593,0.651c-0.396,0.434-0.629,1.034-0.7,1.801h4.337c0-0.792-0.177-1.398-0.53-1.82
		S288.538,70.427,287.882,70.427z"/>
	<path class="st4" d="M293.309,67.279c0-0.287,0.071-0.498,0.212-0.632s0.318-0.2,0.53-0.2c0.202,0,0.376,0.068,0.522,0.204
		c0.146,0.136,0.219,0.346,0.219,0.628c0,0.283-0.073,0.493-0.219,0.632c-0.146,0.139-0.321,0.208-0.522,0.208
		c-0.212,0-0.389-0.069-0.53-0.208C293.38,67.772,293.309,67.562,293.309,67.279z M294.671,77.822h-1.256v-8.295h1.256V77.822z"/>
	<path class="st4" d="M307.795,74.877c0,0.974-0.353,1.733-1.06,2.278s-1.665,0.817-2.876,0.817c-1.312,0-2.321-0.169-3.027-0.507
		v-1.241c0.454,0.191,0.949,0.343,1.483,0.454c0.535,0.111,1.064,0.166,1.589,0.166c0.858,0,1.503-0.163,1.938-0.488
		c0.434-0.326,0.651-0.778,0.651-1.359c0-0.383-0.077-0.697-0.231-0.942s-0.411-0.47-0.772-0.677s-0.909-0.441-1.646-0.704
		c-1.029-0.368-1.765-0.805-2.206-1.31c-0.442-0.504-0.662-1.163-0.662-1.975c0-0.853,0.32-1.531,0.961-2.036
		c0.641-0.505,1.488-0.757,2.543-0.757c1.1,0,2.111,0.202,3.035,0.605l-0.401,1.12c-0.913-0.384-1.801-0.575-2.664-0.575
		c-0.681,0-1.213,0.146-1.597,0.438c-0.384,0.293-0.575,0.699-0.575,1.219c0,0.384,0.07,0.697,0.212,0.942
		c0.141,0.245,0.379,0.469,0.715,0.673c0.335,0.205,0.849,0.43,1.54,0.677c1.161,0.414,1.959,0.858,2.396,1.332
		C307.577,73.505,307.795,74.121,307.795,74.877z"/>
	<path class="st4" d="M314.97,77.822l-0.25-1.181h-0.061c-0.414,0.52-0.827,0.872-1.238,1.056c-0.411,0.185-0.924,0.276-1.54,0.276
		c-0.822,0-1.467-0.212-1.934-0.636c-0.467-0.424-0.7-1.026-0.7-1.809c0-1.675,1.339-2.553,4.019-2.634l1.407-0.046v-0.515
		c0-0.65-0.14-1.131-0.42-1.441c-0.28-0.311-0.728-0.466-1.343-0.466c-0.691,0-1.473,0.212-2.346,0.636l-0.386-0.961
		c0.408-0.222,0.856-0.396,1.343-0.522c0.487-0.126,0.975-0.189,1.464-0.189c0.989,0,1.722,0.219,2.199,0.659
		c0.477,0.438,0.715,1.143,0.715,2.111v5.661H314.97z M312.131,76.936c0.782,0,1.396-0.214,1.843-0.643
		c0.446-0.429,0.669-1.029,0.669-1.801v-0.749l-1.256,0.053c-0.999,0.035-1.72,0.19-2.161,0.465s-0.662,0.703-0.662,1.283
		c0,0.454,0.137,0.8,0.413,1.037C311.252,76.818,311.637,76.936,312.131,76.936z M310.648,67.279c0-0.262,0.067-0.451,0.201-0.567
		s0.294-0.174,0.481-0.174c0.191,0,0.356,0.058,0.496,0.174c0.139,0.116,0.208,0.306,0.208,0.567c0,0.253-0.069,0.44-0.208,0.564
		c-0.139,0.124-0.304,0.186-0.496,0.186c-0.187,0-0.347-0.062-0.481-0.186S310.648,67.532,310.648,67.279z M313.532,67.279
		c0-0.262,0.067-0.451,0.201-0.567c0.133-0.116,0.294-0.174,0.48-0.174s0.349,0.058,0.488,0.174
		c0.139,0.116,0.208,0.306,0.208,0.567c0,0.253-0.069,0.44-0.208,0.564c-0.139,0.124-0.302,0.186-0.488,0.186
		s-0.347-0.062-0.48-0.186C313.599,67.719,313.532,67.532,313.532,67.279z"/>
	<path class="st4" d="M319.67,69.527v5.381c0,0.677,0.154,1.181,0.462,1.514c0.308,0.333,0.79,0.5,1.445,0.5
		c0.868,0,1.502-0.237,1.903-0.712c0.401-0.474,0.602-1.249,0.602-2.323v-4.359h1.257v8.295h-1.037l-0.182-1.112h-0.068
		c-0.257,0.408-0.614,0.722-1.071,0.938s-0.978,0.325-1.563,0.325c-1.009,0-1.765-0.239-2.267-0.719s-0.753-1.246-0.753-2.301
		v-5.427H319.67z"/>
	<path class="st4" d="M329.259,77.822h-1.256V66.045h1.256V77.822z"/>
	<path class="st4" d="M335.427,77.973c-1.226,0-2.193-0.373-2.902-1.12c-0.709-0.747-1.063-1.783-1.063-3.11
		c0-1.337,0.33-2.399,0.988-3.187c0.659-0.787,1.543-1.181,2.653-1.181c1.04,0,1.862,0.342,2.467,1.025s0.908,1.586,0.908,2.706
		v0.794h-5.714c0.025,0.974,0.271,1.713,0.738,2.217c0.466,0.505,1.124,0.757,1.972,0.757c0.893,0,1.776-0.187,2.648-0.56v1.12
		c-0.444,0.191-0.864,0.329-1.26,0.412C336.465,77.932,335.988,77.973,335.427,77.973z M335.087,70.427
		c-0.666,0-1.197,0.217-1.593,0.651c-0.396,0.434-0.629,1.034-0.7,1.801h4.337c0-0.792-0.177-1.398-0.53-1.82
		S335.743,70.427,335.087,70.427z"/>
	<path class="st4" d="M346.295,77.822v-5.366c0-0.676-0.154-1.181-0.461-1.514c-0.308-0.333-0.79-0.499-1.446-0.499
		c-0.868,0-1.503,0.234-1.907,0.704s-0.605,1.244-0.605,2.324v4.352h-1.256v-8.295h1.021l0.205,1.135h0.061
		c0.257-0.409,0.618-0.725,1.083-0.95c0.464-0.225,0.981-0.337,1.551-0.337c0.999,0,1.751,0.241,2.255,0.723
		c0.504,0.482,0.757,1.253,0.757,2.312v5.411H346.295z"/>
	<path class="st4" d="M359.805,76.709h-0.068c-0.581,0.843-1.448,1.264-2.604,1.264c-1.085,0-1.929-0.371-2.532-1.112
		c-0.603-0.742-0.905-1.796-0.905-3.164c0-1.367,0.303-2.429,0.908-3.186s1.448-1.135,2.528-1.135c1.125,0,1.988,0.409,2.588,1.226
		h0.099l-0.053-0.598l-0.03-0.583v-3.375h1.256v11.776h-1.021L359.805,76.709z M357.292,76.921c0.858,0,1.479-0.233,1.866-0.7
		c0.386-0.467,0.579-1.22,0.579-2.259v-0.265c0-1.175-0.196-2.014-0.587-2.516c-0.391-0.502-1.015-0.753-1.873-0.753
		c-0.737,0-1.301,0.287-1.691,0.859c-0.391,0.572-0.587,1.381-0.587,2.426c0,1.06,0.194,1.859,0.583,2.399
		C355.971,76.651,356.541,76.921,357.292,76.921z"/>
	<path class="st4" d="M367.161,77.973c-1.226,0-2.193-0.373-2.902-1.12c-0.709-0.747-1.063-1.783-1.063-3.11
		c0-1.337,0.33-2.399,0.988-3.187c0.659-0.787,1.543-1.181,2.653-1.181c1.04,0,1.862,0.342,2.467,1.025s0.908,1.586,0.908,2.706
		v0.794h-5.714c0.025,0.974,0.271,1.713,0.738,2.217c0.466,0.505,1.124,0.757,1.972,0.757c0.893,0,1.776-0.187,2.648-0.56v1.12
		c-0.444,0.191-0.864,0.329-1.26,0.412C368.199,77.932,367.722,77.973,367.161,77.973z M366.821,70.427
		c-0.666,0-1.197,0.217-1.593,0.651c-0.396,0.434-0.629,1.034-0.7,1.801h4.337c0-0.792-0.177-1.398-0.53-1.82
		S367.477,70.427,366.821,70.427z"/>
	<path class="st4" d="M376.138,69.375c0.368,0,0.698,0.03,0.991,0.091l-0.174,1.166c-0.344-0.076-0.646-0.114-0.908-0.114
		c-0.671,0-1.245,0.272-1.722,0.817c-0.477,0.545-0.715,1.224-0.715,2.036v4.45h-1.256v-8.295h1.037l0.144,1.536h0.061
		c0.308-0.54,0.679-0.956,1.112-1.249C375.141,69.522,375.618,69.375,376.138,69.375z"/>
	<path class="st4" d="M389.064,77.822h-6.168V66.757h6.168V67.9h-4.882v3.564h4.587V72.6h-4.587v4.072h4.882V77.822z"/>
	<path class="st4" d="M391.221,67.279c0-0.287,0.071-0.498,0.212-0.632c0.142-0.134,0.318-0.2,0.53-0.2
		c0.201,0,0.376,0.068,0.522,0.204c0.146,0.136,0.219,0.346,0.219,0.628c0,0.283-0.073,0.493-0.219,0.632
		c-0.146,0.139-0.321,0.208-0.522,0.208c-0.212,0-0.389-0.069-0.53-0.208C391.292,67.772,391.221,67.562,391.221,67.279z
		 M392.583,77.822h-1.256v-8.295h1.256V77.822z"/>
	<path class="st4" d="M400.923,77.822v-5.366c0-0.676-0.153-1.181-0.461-1.514s-0.79-0.499-1.445-0.499
		c-0.868,0-1.504,0.234-1.908,0.704c-0.403,0.469-0.605,1.244-0.605,2.324v4.352h-1.256v-8.295h1.021l0.205,1.135h0.061
		c0.257-0.409,0.617-0.725,1.082-0.95c0.464-0.225,0.981-0.337,1.551-0.337c1,0,1.751,0.241,2.256,0.723
		c0.505,0.482,0.757,1.253,0.757,2.312v5.411H400.923z"/>
	<path class="st4" d="M406.017,77.822h-1.256V66.045h1.256V77.822z"/>
	<path class="st4" d="M413.782,77.822l-0.25-1.181h-0.061c-0.414,0.52-0.826,0.872-1.237,1.056c-0.412,0.185-0.925,0.276-1.54,0.276
		c-0.823,0-1.468-0.212-1.935-0.636s-0.7-1.026-0.7-1.809c0-1.675,1.34-2.553,4.02-2.634l1.407-0.046v-0.515
		c0-0.65-0.14-1.131-0.42-1.441c-0.28-0.311-0.728-0.466-1.343-0.466c-0.691,0-1.474,0.212-2.347,0.636l-0.386-0.961
		c0.408-0.222,0.856-0.396,1.343-0.522c0.487-0.126,0.976-0.189,1.465-0.189c0.989,0,1.722,0.219,2.198,0.659
		c0.478,0.438,0.716,1.143,0.716,2.111v5.661H413.782z M410.943,76.936c0.782,0,1.396-0.214,1.843-0.643
		c0.447-0.429,0.67-1.029,0.67-1.801v-0.749l-1.256,0.053c-0.999,0.035-1.72,0.19-2.161,0.465s-0.662,0.703-0.662,1.283
		c0,0.454,0.138,0.8,0.412,1.037C410.064,76.818,410.449,76.936,410.943,76.936z"/>
	<path class="st4" d="M424.09,69.527v0.795l-1.537,0.182c0.142,0.177,0.268,0.407,0.379,0.692s0.166,0.606,0.166,0.965
		c0,0.812-0.277,1.461-0.832,1.945s-1.316,0.727-2.285,0.727c-0.248,0-0.479-0.021-0.697-0.061
		c-0.534,0.282-0.802,0.638-0.802,1.067c0,0.227,0.094,0.395,0.28,0.503s0.507,0.163,0.961,0.163h1.469
		c0.897,0,1.588,0.189,2.069,0.568c0.481,0.378,0.723,0.928,0.723,1.649c0,0.918-0.368,1.619-1.104,2.101
		c-0.737,0.481-1.812,0.723-3.225,0.723c-1.085,0-1.921-0.202-2.509-0.605c-0.588-0.404-0.882-0.974-0.882-1.71
		c0-0.504,0.162-0.941,0.484-1.309c0.323-0.368,0.777-0.618,1.362-0.75c-0.212-0.096-0.39-0.245-0.533-0.447
		c-0.144-0.201-0.216-0.436-0.216-0.704c0-0.303,0.081-0.568,0.242-0.794c0.161-0.228,0.416-0.447,0.765-0.659
		c-0.429-0.176-0.778-0.477-1.049-0.901c-0.27-0.424-0.404-0.908-0.404-1.453c0-0.908,0.272-1.608,0.817-2.1
		c0.545-0.492,1.316-0.738,2.315-0.738c0.435,0,0.825,0.051,1.173,0.151H424.09z M417.475,79.214c0,0.449,0.189,0.79,0.568,1.021
		c0.378,0.232,0.92,0.349,1.627,0.349c1.055,0,1.835-0.158,2.342-0.473c0.508-0.315,0.761-0.743,0.761-1.283
		c0-0.449-0.139-0.761-0.416-0.935c-0.277-0.174-0.8-0.261-1.566-0.261h-1.507c-0.569,0-1.014,0.137-1.332,0.409
		C417.634,78.314,417.475,78.705,417.475,79.214z M418.156,72.183c0,0.581,0.164,1.02,0.492,1.317
		c0.327,0.298,0.784,0.446,1.369,0.446c1.227,0,1.84-0.595,1.84-1.786c0-1.246-0.621-1.869-1.862-1.869
		c-0.591,0-1.044,0.159-1.362,0.477S418.156,71.558,418.156,72.183z"/>
	<path class="st4" d="M429.296,77.973c-1.226,0-2.193-0.373-2.902-1.12c-0.709-0.747-1.063-1.783-1.063-3.11
		c0-1.337,0.329-2.399,0.988-3.187c0.658-0.787,1.542-1.181,2.652-1.181c1.039,0,1.862,0.342,2.468,1.025s0.908,1.586,0.908,2.706
		v0.794h-5.715c0.025,0.974,0.271,1.713,0.738,2.217c0.467,0.505,1.124,0.757,1.972,0.757c0.893,0,1.775-0.187,2.648-0.56v1.12
		c-0.443,0.191-0.864,0.329-1.26,0.412C430.334,77.932,429.856,77.973,429.296,77.973z M428.956,70.427
		c-0.666,0-1.197,0.217-1.594,0.651c-0.396,0.434-0.629,1.034-0.7,1.801h4.337c0-0.792-0.177-1.398-0.529-1.82
		C430.116,70.638,429.611,70.427,428.956,70.427z"/>
	<path class="st4" d="M440.164,77.822v-5.366c0-0.676-0.153-1.181-0.461-1.514s-0.79-0.499-1.445-0.499
		c-0.868,0-1.504,0.234-1.908,0.704c-0.403,0.469-0.605,1.244-0.605,2.324v4.352h-1.256v-8.295h1.021l0.205,1.135h0.061
		c0.257-0.409,0.617-0.725,1.082-0.95c0.464-0.225,0.981-0.337,1.551-0.337c1,0,1.751,0.241,2.256,0.723
		c0.505,0.482,0.757,1.253,0.757,2.312v5.411H440.164z"/>
	<path class="st4" d="M449.353,75.559c0,0.771-0.287,1.367-0.862,1.786s-1.383,0.628-2.422,0.628c-1.101,0-1.958-0.174-2.573-0.522
		v-1.165c0.398,0.202,0.826,0.36,1.282,0.477c0.457,0.116,0.897,0.174,1.321,0.174c0.655,0,1.16-0.104,1.514-0.314
		c0.353-0.209,0.529-0.528,0.529-0.958c0-0.322-0.14-0.599-0.42-0.829c-0.28-0.229-0.826-0.5-1.639-0.813
		c-0.771-0.288-1.32-0.539-1.646-0.753c-0.326-0.214-0.568-0.458-0.727-0.73c-0.159-0.272-0.238-0.598-0.238-0.976
		c0-0.676,0.274-1.21,0.824-1.601s1.305-0.586,2.264-0.586c0.893,0,1.766,0.182,2.618,0.545l-0.446,1.021
		c-0.833-0.343-1.587-0.515-2.264-0.515c-0.595,0-1.044,0.094-1.347,0.28s-0.454,0.444-0.454,0.772c0,0.222,0.057,0.412,0.17,0.568
		c0.114,0.156,0.297,0.305,0.549,0.446c0.253,0.142,0.737,0.346,1.453,0.613c0.984,0.358,1.648,0.719,1.994,1.082
		S449.353,75.009,449.353,75.559z"/>
	<path class="st4" d="M451.291,67.279c0-0.287,0.07-0.498,0.211-0.632c0.142-0.134,0.318-0.2,0.53-0.2
		c0.202,0,0.376,0.068,0.522,0.204s0.219,0.346,0.219,0.628c0,0.283-0.072,0.493-0.219,0.632c-0.146,0.139-0.32,0.208-0.522,0.208
		c-0.212,0-0.389-0.069-0.53-0.208C451.361,67.772,451.291,67.562,451.291,67.279z M452.652,77.822h-1.256v-8.295h1.256V77.822z"/>
	<path class="st4" d="M458.632,77.973c-1.2,0-2.13-0.37-2.788-1.109c-0.659-0.739-0.988-1.785-0.988-3.137
		c0-1.387,0.334-2.459,1.003-3.216s1.621-1.135,2.857-1.135c0.398,0,0.797,0.043,1.195,0.129s0.712,0.187,0.938,0.303l-0.386,1.067
		c-0.277-0.111-0.58-0.203-0.908-0.276c-0.328-0.073-0.618-0.11-0.87-0.11c-1.686,0-2.528,1.075-2.528,3.225
		c0,1.019,0.206,1.801,0.617,2.346s1.021,0.817,1.828,0.817c0.69,0,1.399-0.148,2.126-0.446v1.112
		C460.174,77.83,459.475,77.973,458.632,77.973z"/>
	<path class="st4" d="M468.372,77.822v-5.366c0-0.676-0.153-1.181-0.461-1.514s-0.79-0.499-1.445-0.499
		c-0.873,0-1.511,0.237-1.911,0.711c-0.401,0.475-0.603,1.252-0.603,2.331v4.337h-1.256V66.045h1.256v3.564
		c0,0.429-0.02,0.785-0.061,1.067h0.076c0.247-0.398,0.599-0.713,1.056-0.942s0.978-0.344,1.563-0.344
		c1.014,0,1.774,0.241,2.281,0.723s0.761,1.248,0.761,2.297v5.411H468.372z"/>
	<path class="st4" d="M475.714,77.973c-1.226,0-2.193-0.373-2.902-1.12c-0.709-0.747-1.063-1.783-1.063-3.11
		c0-1.337,0.329-2.399,0.988-3.187c0.658-0.787,1.542-1.181,2.652-1.181c1.039,0,1.862,0.342,2.468,1.025s0.908,1.586,0.908,2.706
		v0.794h-5.715c0.025,0.974,0.271,1.713,0.738,2.217c0.467,0.505,1.124,0.757,1.972,0.757c0.893,0,1.775-0.187,2.648-0.56v1.12
		c-0.443,0.191-0.864,0.329-1.26,0.412C476.752,77.932,476.274,77.973,475.714,77.973z M475.374,70.427
		c-0.666,0-1.197,0.217-1.594,0.651c-0.396,0.434-0.629,1.034-0.7,1.801h4.337c0-0.792-0.177-1.398-0.529-1.82
		C476.534,70.638,476.029,70.427,475.374,70.427z"/>
	<path class="st4" d="M484.69,69.375c0.368,0,0.699,0.03,0.991,0.091l-0.174,1.166c-0.343-0.076-0.646-0.114-0.908-0.114
		c-0.671,0-1.245,0.272-1.722,0.817s-0.716,1.224-0.716,2.036v4.45h-1.256v-8.295h1.037l0.144,1.536h0.061
		c0.308-0.54,0.679-0.956,1.112-1.249C483.694,69.522,484.171,69.375,484.69,69.375z"/>
	<path class="st4" d="M488.414,69.527v5.381c0,0.677,0.154,1.181,0.462,1.514s0.789,0.5,1.445,0.5c0.868,0,1.502-0.237,1.903-0.712
		c0.401-0.474,0.602-1.249,0.602-2.323v-4.359h1.257v8.295h-1.037l-0.182-1.112h-0.068c-0.257,0.408-0.614,0.722-1.07,0.938
		c-0.457,0.217-0.978,0.325-1.563,0.325c-1.009,0-1.765-0.239-2.267-0.719s-0.753-1.246-0.753-2.301v-5.427H488.414z"/>
	<path class="st4" d="M502.423,77.822v-5.366c0-0.676-0.153-1.181-0.461-1.514s-0.79-0.499-1.445-0.499
		c-0.868,0-1.504,0.234-1.908,0.704c-0.403,0.469-0.605,1.244-0.605,2.324v4.352h-1.256v-8.295h1.021l0.205,1.135h0.061
		c0.257-0.409,0.617-0.725,1.082-0.95c0.464-0.225,0.981-0.337,1.551-0.337c1,0,1.751,0.241,2.256,0.723
		c0.505,0.482,0.757,1.253,0.757,2.312v5.411H502.423z"/>
	<path class="st4" d="M513.05,69.527v0.795l-1.537,0.182c0.142,0.177,0.268,0.407,0.379,0.692s0.166,0.606,0.166,0.965
		c0,0.812-0.277,1.461-0.832,1.945s-1.316,0.727-2.285,0.727c-0.248,0-0.479-0.021-0.697-0.061
		c-0.534,0.282-0.802,0.638-0.802,1.067c0,0.227,0.094,0.395,0.28,0.503s0.507,0.163,0.961,0.163h1.469
		c0.897,0,1.588,0.189,2.069,0.568c0.481,0.378,0.723,0.928,0.723,1.649c0,0.918-0.368,1.619-1.104,2.101
		c-0.737,0.481-1.812,0.723-3.225,0.723c-1.085,0-1.921-0.202-2.509-0.605c-0.588-0.404-0.882-0.974-0.882-1.71
		c0-0.504,0.162-0.941,0.484-1.309c0.323-0.368,0.777-0.618,1.362-0.75c-0.212-0.096-0.39-0.245-0.533-0.447
		c-0.144-0.201-0.216-0.436-0.216-0.704c0-0.303,0.081-0.568,0.242-0.794c0.161-0.228,0.416-0.447,0.765-0.659
		c-0.429-0.176-0.778-0.477-1.049-0.901c-0.27-0.424-0.404-0.908-0.404-1.453c0-0.908,0.272-1.608,0.817-2.1
		c0.545-0.492,1.316-0.738,2.315-0.738c0.435,0,0.825,0.051,1.173,0.151H513.05z M506.435,79.214c0,0.449,0.189,0.79,0.568,1.021
		c0.378,0.232,0.92,0.349,1.627,0.349c1.055,0,1.835-0.158,2.342-0.473c0.508-0.315,0.761-0.743,0.761-1.283
		c0-0.449-0.139-0.761-0.416-0.935c-0.277-0.174-0.8-0.261-1.566-0.261h-1.507c-0.569,0-1.014,0.137-1.332,0.409
		C506.594,78.314,506.435,78.705,506.435,79.214z M507.116,72.183c0,0.581,0.164,1.02,0.492,1.317
		c0.327,0.298,0.784,0.446,1.369,0.446c1.227,0,1.84-0.595,1.84-1.786c0-1.246-0.621-1.869-1.862-1.869
		c-0.591,0-1.044,0.159-1.362,0.477S507.116,71.558,507.116,72.183z"/>
</g>
<g>
	<path class="st4" d="M360.539,362.813c0,0.942-0.342,1.678-1.025,2.205s-1.611,0.791-2.783,0.791c-1.27,0-2.246-0.164-2.93-0.491
		v-1.201c0.439,0.186,0.918,0.332,1.436,0.439s1.03,0.161,1.538,0.161c0.83,0,1.455-0.157,1.875-0.472s0.63-0.753,0.63-1.315
		c0-0.371-0.075-0.675-0.224-0.912s-0.398-0.456-0.747-0.656s-0.88-0.427-1.593-0.681c-0.996-0.356-1.708-0.779-2.135-1.268
		c-0.428-0.488-0.641-1.125-0.641-1.911c0-0.825,0.31-1.482,0.93-1.971s1.44-0.732,2.461-0.732c1.064,0,2.043,0.195,2.937,0.586
		l-0.388,1.084c-0.884-0.371-1.743-0.557-2.578-0.557c-0.659,0-1.174,0.142-1.545,0.425s-0.557,0.677-0.557,1.18
		c0,0.371,0.068,0.675,0.205,0.912s0.367,0.454,0.692,0.652s0.822,0.416,1.491,0.655c1.123,0.4,1.896,0.83,2.318,1.289
		S360.539,362.081,360.539,362.813z"/>
	<path class="st4" d="M365.138,364.805c0.215,0,0.422-0.016,0.623-0.047s0.359-0.065,0.476-0.099v0.931
		c-0.132,0.063-0.326,0.116-0.582,0.157c-0.257,0.042-0.487,0.062-0.692,0.062c-1.553,0-2.329-0.818-2.329-2.454v-4.775h-1.15
		v-0.586l1.15-0.505l0.513-1.714h0.703v1.86h2.329v0.944h-2.329v4.725c0,0.483,0.115,0.854,0.344,1.113
		S364.738,364.805,365.138,364.805z"/>
	<path class="st4" d="M372.777,365.663l-0.242-1.143h-0.059c-0.4,0.503-0.8,0.843-1.198,1.021s-0.895,0.268-1.49,0.268
		c-0.796,0-1.42-0.205-1.871-0.615c-0.452-0.41-0.678-0.994-0.678-1.751c0-1.621,1.296-2.471,3.889-2.549l1.362-0.044v-0.498
		c0-0.63-0.135-1.095-0.407-1.395c-0.271-0.3-0.704-0.451-1.3-0.451c-0.669,0-1.426,0.205-2.271,0.615l-0.374-0.93
		c0.396-0.215,0.829-0.384,1.3-0.506c0.471-0.122,0.943-0.183,1.417-0.183c0.957,0,1.666,0.212,2.128,0.637
		c0.461,0.425,0.692,1.106,0.692,2.044v5.479H372.777z M370.031,364.805c0.757,0,1.351-0.207,1.784-0.622
		c0.432-0.415,0.648-0.996,0.648-1.743v-0.726l-1.216,0.052c-0.967,0.034-1.664,0.184-2.091,0.45s-0.641,0.68-0.641,1.241
		c0,0.439,0.133,0.774,0.399,1.004C369.18,364.691,369.552,364.805,370.031,364.805z"/>
	<path class="st4" d="M381.119,365.663l-0.241-1.143h-0.059c-0.4,0.503-0.8,0.843-1.198,1.021c-0.397,0.178-0.895,0.268-1.49,0.268
		c-0.796,0-1.42-0.205-1.871-0.615c-0.452-0.41-0.677-0.994-0.677-1.751c0-1.621,1.296-2.471,3.889-2.549l1.362-0.044v-0.498
		c0-0.63-0.136-1.095-0.407-1.395c-0.271-0.3-0.704-0.451-1.3-0.451c-0.669,0-1.426,0.205-2.271,0.615l-0.373-0.93
		c0.396-0.215,0.828-0.384,1.3-0.506c0.471-0.122,0.943-0.183,1.417-0.183c0.957,0,1.666,0.212,2.128,0.637
		c0.461,0.425,0.692,1.106,0.692,2.044v5.479H381.119z M378.373,364.805c0.757,0,1.351-0.207,1.783-0.622
		c0.432-0.415,0.648-0.996,0.648-1.743v-0.726l-1.216,0.052c-0.967,0.034-1.664,0.184-2.092,0.45
		c-0.427,0.266-0.641,0.68-0.641,1.241c0,0.439,0.133,0.774,0.399,1.004C377.521,364.691,377.895,364.805,378.373,364.805z"/>
	<path class="st4" d="M387.118,364.805c0.215,0,0.422-0.016,0.622-0.047s0.359-0.065,0.477-0.099v0.931
		c-0.132,0.063-0.326,0.116-0.582,0.157c-0.257,0.042-0.487,0.062-0.692,0.062c-1.553,0-2.329-0.818-2.329-2.454v-4.775h-1.15
		v-0.586l1.15-0.505l0.513-1.714h0.703v1.86h2.329v0.944h-2.329v4.725c0,0.483,0.114,0.854,0.344,1.113
		S386.718,364.805,387.118,364.805z"/>
	<path class="st4" d="M394.999,363.472c0,0.747-0.278,1.323-0.835,1.729s-1.338,0.608-2.344,0.608c-1.064,0-1.895-0.169-2.49-0.506
		v-1.128c0.386,0.195,0.799,0.35,1.241,0.462c0.441,0.112,0.868,0.168,1.278,0.168c0.635,0,1.123-0.101,1.465-0.304
		s0.513-0.512,0.513-0.927c0-0.312-0.136-0.58-0.407-0.802c-0.271-0.222-0.799-0.484-1.585-0.787
		c-0.747-0.278-1.278-0.521-1.594-0.729c-0.314-0.208-0.549-0.443-0.703-0.707c-0.153-0.264-0.23-0.579-0.23-0.945
		c0-0.654,0.267-1.17,0.799-1.549s1.262-0.567,2.189-0.567c0.864,0,1.709,0.176,2.534,0.527l-0.432,0.988
		c-0.806-0.332-1.536-0.498-2.19-0.498c-0.576,0-1.011,0.091-1.304,0.271s-0.439,0.43-0.439,0.747c0,0.215,0.055,0.397,0.165,0.549
		c0.109,0.151,0.287,0.296,0.531,0.433s0.713,0.334,1.406,0.593c0.952,0.347,1.595,0.696,1.93,1.048
		C394.831,362.498,394.999,362.94,394.999,363.472z"/>
	<path class="st4" d="M396.303,362.198v-1.113h3.596v1.113H396.303z"/>
	<path class="st4" d="M355.759,378.635v0.769l-1.487,0.176c0.137,0.171,0.259,0.395,0.366,0.67s0.161,0.587,0.161,0.934
		c0,0.786-0.269,1.413-0.806,1.882s-1.274,0.703-2.212,0.703c-0.239,0-0.464-0.02-0.674-0.059c-0.518,0.273-0.776,0.618-0.776,1.033
		c0,0.22,0.09,0.382,0.271,0.487s0.491,0.158,0.93,0.158h1.421c0.869,0,1.537,0.183,2.003,0.549s0.7,0.898,0.7,1.597
		c0,0.889-0.356,1.566-1.069,2.033s-1.753,0.7-3.12,0.7c-1.05,0-1.859-0.195-2.428-0.586s-0.853-0.942-0.853-1.655
		c0-0.488,0.156-0.911,0.469-1.268s0.752-0.598,1.318-0.725c-0.205-0.093-0.377-0.237-0.516-0.433
		c-0.14-0.195-0.209-0.422-0.209-0.681c0-0.293,0.078-0.55,0.234-0.77s0.403-0.432,0.74-0.637c-0.415-0.171-0.753-0.462-1.014-0.872
		c-0.262-0.41-0.392-0.879-0.392-1.406c0-0.879,0.264-1.556,0.791-2.032s1.274-0.714,2.241-0.714c0.42,0,0.798,0.049,1.135,0.146
		H355.759z M349.358,388.01c0,0.435,0.183,0.764,0.549,0.988s0.891,0.337,1.575,0.337c1.021,0,1.776-0.152,2.267-0.458
		c0.49-0.305,0.736-0.719,0.736-1.242c0-0.435-0.134-0.736-0.403-0.904s-0.774-0.253-1.516-0.253h-1.458
		c-0.552,0-0.981,0.132-1.289,0.396S349.358,387.517,349.358,388.01z M350.017,381.206c0,0.562,0.159,0.986,0.476,1.274
		s0.759,0.433,1.326,0.433c1.187,0,1.78-0.576,1.78-1.729c0-1.206-0.601-1.81-1.802-1.81c-0.571,0-1.011,0.154-1.318,0.462
		S350.017,380.6,350.017,381.206z"/>
	<path class="st4" d="M362.344,386.663l-0.242-1.143h-0.059c-0.4,0.503-0.8,0.843-1.198,1.021s-0.895,0.268-1.49,0.268
		c-0.796,0-1.42-0.205-1.871-0.615c-0.452-0.41-0.678-0.994-0.678-1.751c0-1.621,1.296-2.471,3.889-2.549l1.362-0.044v-0.498
		c0-0.63-0.135-1.095-0.407-1.395c-0.271-0.3-0.704-0.451-1.3-0.451c-0.669,0-1.426,0.205-2.271,0.615l-0.374-0.93
		c0.396-0.215,0.829-0.384,1.3-0.506c0.471-0.122,0.943-0.183,1.417-0.183c0.957,0,1.666,0.212,2.128,0.637
		c0.461,0.425,0.692,1.106,0.692,2.044v5.479H362.344z M359.597,385.805c0.757,0,1.351-0.207,1.784-0.622
		c0.432-0.415,0.648-0.996,0.648-1.743v-0.726l-1.216,0.052c-0.967,0.034-1.664,0.184-2.091,0.45s-0.641,0.68-0.641,1.241
		c0,0.439,0.133,0.774,0.399,1.004C358.746,385.691,359.119,385.805,359.597,385.805z"/>
	<path class="st4" d="M369.412,378.489c0.356,0,0.676,0.029,0.959,0.088l-0.168,1.128c-0.332-0.073-0.625-0.11-0.879-0.11
		c-0.649,0-1.205,0.264-1.666,0.791c-0.462,0.527-0.692,1.185-0.692,1.971v4.307h-1.216v-8.027h1.003l0.139,1.486h0.059
		c0.298-0.522,0.657-0.925,1.077-1.208S368.909,378.489,369.412,378.489z"/>
	<path class="st4" d="M376.809,386.663l-0.241-1.143h-0.059c-0.4,0.503-0.8,0.843-1.198,1.021s-0.895,0.268-1.49,0.268
		c-0.796,0-1.42-0.205-1.871-0.615c-0.452-0.41-0.678-0.994-0.678-1.751c0-1.621,1.296-2.471,3.889-2.549l1.362-0.044v-0.498
		c0-0.63-0.136-1.095-0.407-1.395c-0.27-0.3-0.704-0.451-1.299-0.451c-0.669,0-1.426,0.205-2.271,0.615l-0.374-0.93
		c0.396-0.215,0.829-0.384,1.3-0.506c0.471-0.122,0.943-0.183,1.417-0.183c0.957,0,1.666,0.212,2.127,0.637
		c0.461,0.425,0.692,1.106,0.692,2.044v5.479H376.809z M374.062,385.805c0.757,0,1.351-0.207,1.784-0.622
		c0.431-0.415,0.648-0.996,0.648-1.743v-0.726l-1.216,0.052c-0.967,0.034-1.664,0.184-2.091,0.45s-0.641,0.68-0.641,1.241
		c0,0.439,0.133,0.774,0.399,1.004C373.211,385.691,373.584,385.805,374.062,385.805z"/>
	<path class="st4" d="M385.708,386.663v-5.193c0-0.654-0.149-1.143-0.447-1.465s-0.764-0.483-1.398-0.483
		c-0.84,0-1.455,0.228-1.846,0.682s-0.586,1.203-0.586,2.248v4.212h-1.216v-8.027h0.988l0.198,1.099h0.059
		c0.249-0.396,0.598-0.702,1.047-0.919s0.95-0.326,1.502-0.326c0.967,0,1.694,0.233,2.183,0.699s0.732,1.212,0.732,2.237v5.237
		H385.708z"/>
	<path class="st4" d="M392.014,385.805c0.215,0,0.423-0.016,0.623-0.047s0.358-0.065,0.476-0.099v0.931
		c-0.132,0.063-0.326,0.116-0.582,0.157c-0.257,0.042-0.487,0.062-0.692,0.062c-1.553,0-2.329-0.818-2.329-2.454v-4.775h-1.149
		v-0.586l1.149-0.505l0.513-1.714h0.703v1.86h2.329v0.944h-2.329v4.725c0,0.483,0.115,0.854,0.345,1.113
		S391.613,385.805,392.014,385.805z"/>
	<path class="st4" d="M394.614,376.459c0-0.278,0.068-0.482,0.205-0.611s0.308-0.194,0.513-0.194c0.195,0,0.363,0.066,0.505,0.198
		s0.213,0.334,0.213,0.607s-0.071,0.478-0.213,0.612s-0.31,0.202-0.505,0.202c-0.205,0-0.376-0.067-0.513-0.202
		S394.614,376.733,394.614,376.459z M395.933,386.663h-1.216v-8.027h1.216V386.663z"/>
	<path class="st4" d="M401.901,386.809c-1.187,0-2.123-0.361-2.809-1.084c-0.687-0.723-1.029-1.727-1.029-3.011
		c0-1.294,0.319-2.321,0.956-3.083c0.638-0.762,1.493-1.143,2.567-1.143c1.006,0,1.802,0.331,2.388,0.992s0.879,1.534,0.879,2.618
		v0.77h-5.53c0.024,0.942,0.263,1.657,0.715,2.146c0.451,0.488,1.087,0.732,1.907,0.732c0.864,0,1.719-0.181,2.563-0.542v1.084
		c-0.43,0.186-0.836,0.319-1.219,0.399C402.906,386.768,402.443,386.809,401.901,386.809z M401.572,379.506
		c-0.645,0-1.159,0.21-1.542,0.63c-0.384,0.42-0.609,1.001-0.678,1.743h4.197c0-0.767-0.171-1.354-0.513-1.761
		S402.207,379.506,401.572,379.506z"/>
</g>
<g>
	<path class="st4" d="M170.035,360.052h3.64v5.207c-0.566,0.181-1.143,0.317-1.729,0.41s-1.265,0.14-2.036,0.14
		c-1.621,0-2.883-0.482-3.787-1.447s-1.355-2.316-1.355-4.054c0-1.113,0.223-2.088,0.67-2.926c0.446-0.837,1.09-1.477,1.93-1.919
		s1.824-0.663,2.952-0.663c1.143,0,2.207,0.21,3.193,0.63l-0.483,1.099c-0.967-0.41-1.897-0.615-2.791-0.615
		c-1.304,0-2.322,0.389-3.054,1.165s-1.099,1.853-1.099,3.229c0,1.445,0.353,2.542,1.058,3.289s1.742,1.12,3.109,1.12
		c0.742,0,1.467-0.085,2.175-0.256v-3.296h-2.395V360.052z"/>
	<path class="st4" d="M179.454,365.809c-1.187,0-2.123-0.361-2.809-1.084s-1.029-1.727-1.029-3.011c0-1.294,0.319-2.321,0.956-3.083
		c0.638-0.762,1.493-1.143,2.567-1.143c1.006,0,1.802,0.331,2.388,0.992s0.879,1.534,0.879,2.618v0.77h-5.53
		c0.024,0.942,0.262,1.657,0.714,2.146c0.451,0.488,1.087,0.732,1.908,0.732c0.864,0,1.719-0.181,2.563-0.542v1.084
		c-0.43,0.186-0.836,0.319-1.219,0.399C180.458,365.768,179.996,365.809,179.454,365.809z M179.125,358.506
		c-0.645,0-1.159,0.21-1.542,0.63s-0.609,1.001-0.677,1.743h4.197c0-0.767-0.171-1.354-0.513-1.761S179.759,358.506,179.125,358.506
		z"/>
	<path class="st4" d="M189.657,363.472c0,0.747-0.278,1.323-0.835,1.729s-1.338,0.608-2.344,0.608c-1.064,0-1.895-0.169-2.49-0.506
		v-1.128c0.386,0.195,0.799,0.35,1.242,0.462c0.441,0.112,0.868,0.168,1.278,0.168c0.635,0,1.123-0.101,1.465-0.304
		s0.513-0.512,0.513-0.927c0-0.312-0.135-0.58-0.407-0.802c-0.271-0.222-0.799-0.484-1.585-0.787
		c-0.747-0.278-1.278-0.521-1.593-0.729c-0.314-0.208-0.549-0.443-0.703-0.707c-0.153-0.264-0.23-0.579-0.23-0.945
		c0-0.654,0.266-1.17,0.798-1.549s1.262-0.567,2.19-0.567c0.864,0,1.709,0.176,2.534,0.527l-0.432,0.988
		c-0.806-0.332-1.536-0.498-2.19-0.498c-0.576,0-1.011,0.091-1.304,0.271s-0.439,0.43-0.439,0.747c0,0.215,0.055,0.397,0.165,0.549
		c0.109,0.151,0.287,0.296,0.531,0.433s0.713,0.334,1.406,0.593c0.952,0.347,1.595,0.696,1.93,1.048
		C189.489,362.498,189.657,362.94,189.657,363.472z"/>
	<path class="st4" d="M195.025,365.809c-1.187,0-2.123-0.361-2.809-1.084s-1.029-1.727-1.029-3.011c0-1.294,0.319-2.321,0.956-3.083
		c0.638-0.762,1.493-1.143,2.567-1.143c1.006,0,1.802,0.331,2.388,0.992s0.879,1.534,0.879,2.618v0.77h-5.53
		c0.024,0.942,0.262,1.657,0.714,2.146c0.451,0.488,1.087,0.732,1.908,0.732c0.864,0,1.719-0.181,2.563-0.542v1.084
		c-0.43,0.186-0.836,0.319-1.219,0.399C196.03,365.768,195.567,365.809,195.025,365.809z M194.696,358.506
		c-0.645,0-1.159,0.21-1.542,0.63s-0.609,1.001-0.677,1.743h4.197c0-0.767-0.171-1.354-0.513-1.761S195.331,358.506,194.696,358.506
		z"/>
	<path class="st4" d="M202.643,364.805c0.215,0,0.422-0.016,0.623-0.047s0.359-0.065,0.476-0.099v0.931
		c-0.132,0.063-0.326,0.116-0.582,0.157c-0.257,0.042-0.487,0.062-0.692,0.062c-1.553,0-2.329-0.818-2.329-2.454v-4.775h-1.15
		v-0.586l1.15-0.505l0.513-1.714h0.703v1.86h2.329v0.944h-2.329v4.725c0,0.483,0.115,0.854,0.344,1.113
		S202.242,364.805,202.643,364.805z"/>
	<path class="st4" d="M210.479,365.663h-5.823v-0.828l4.38-6.255h-4.109v-0.944h5.442v0.944l-4.321,6.138h4.431V365.663z"/>
	<path class="st4" d="M213.578,365.663h-1.216v-11.396h1.216V365.663z"/>
	<path class="st4" d="M216.053,355.459c0-0.278,0.068-0.482,0.205-0.611s0.308-0.194,0.513-0.194c0.195,0,0.364,0.066,0.505,0.198
		s0.212,0.334,0.212,0.607s-0.071,0.478-0.212,0.612s-0.31,0.202-0.505,0.202c-0.205,0-0.376-0.067-0.513-0.202
		S216.053,355.733,216.053,355.459z M217.372,365.663h-1.216v-8.027h1.216V365.663z"/>
	<path class="st4" d="M223.158,365.809c-1.162,0-2.062-0.358-2.699-1.073c-0.637-0.715-0.956-1.728-0.956-3.036
		c0-1.343,0.323-2.38,0.97-3.112s1.569-1.099,2.765-1.099c0.386,0,0.771,0.041,1.157,0.124s0.688,0.181,0.908,0.293l-0.374,1.033
		c-0.269-0.107-0.562-0.197-0.879-0.268s-0.598-0.106-0.842-0.106c-1.631,0-2.446,1.04-2.446,3.12c0,0.986,0.199,1.743,0.597,2.271
		c0.397,0.527,0.987,0.791,1.769,0.791c0.669,0,1.355-0.144,2.058-0.432v1.076C224.649,365.669,223.973,365.809,223.158,365.809z"/>
	<path class="st4" d="M232.584,365.663v-5.193c0-0.654-0.149-1.143-0.447-1.465s-0.764-0.483-1.399-0.483
		c-0.845,0-1.461,0.229-1.85,0.688c-0.388,0.459-0.582,1.211-0.582,2.256v4.197h-1.216v-11.396h1.216v3.449
		c0,0.415-0.02,0.76-0.059,1.033h0.073c0.239-0.386,0.58-0.69,1.021-0.912s0.946-0.333,1.513-0.333c0.981,0,1.718,0.233,2.208,0.699
		c0.491,0.466,0.736,1.207,0.736,2.223v5.237H232.584z"/>
	<path class="st4" d="M239.688,365.809c-1.187,0-2.123-0.361-2.809-1.084s-1.029-1.727-1.029-3.011c0-1.294,0.319-2.321,0.956-3.083
		c0.638-0.762,1.493-1.143,2.567-1.143c1.006,0,1.802,0.331,2.388,0.992s0.879,1.534,0.879,2.618v0.77h-5.53
		c0.024,0.942,0.262,1.657,0.714,2.146c0.451,0.488,1.087,0.732,1.908,0.732c0.864,0,1.719-0.181,2.563-0.542v1.084
		c-0.43,0.186-0.836,0.319-1.219,0.399C240.693,365.768,240.23,365.809,239.688,365.809z M239.359,358.506
		c-0.645,0-1.159,0.21-1.542,0.63s-0.609,1.001-0.677,1.743h4.197c0-0.767-0.171-1.354-0.513-1.761S239.994,358.506,239.359,358.506
		z"/>
	<path class="st4" d="M147.188,386.663h-5.969v-10.708h5.969v1.105h-4.724v3.45h4.438v1.099h-4.438v3.94h4.724V386.663z"/>
	<path class="st4" d="M149.275,376.459c0-0.278,0.068-0.482,0.205-0.611s0.308-0.194,0.513-0.194c0.195,0,0.364,0.066,0.505,0.198
		s0.212,0.334,0.212,0.607s-0.071,0.478-0.212,0.612s-0.31,0.202-0.505,0.202c-0.205,0-0.376-0.067-0.513-0.202
		S149.275,376.733,149.275,376.459z M150.593,386.663h-1.216v-8.027h1.216V386.663z"/>
	<path class="st4" d="M158.665,386.663v-5.193c0-0.654-0.149-1.143-0.447-1.465s-0.764-0.483-1.399-0.483
		c-0.84,0-1.455,0.228-1.846,0.682s-0.586,1.203-0.586,2.248v4.212h-1.216v-8.027h0.989l0.198,1.099h0.059
		c0.249-0.396,0.598-0.702,1.047-0.919s0.95-0.326,1.501-0.326c0.967,0,1.694,0.233,2.183,0.699s0.732,1.212,0.732,2.237v5.237
		H158.665z"/>
	<path class="st4" d="M163.594,386.663h-1.216v-11.396h1.216V386.663z"/>
	<path class="st4" d="M171.108,386.663l-0.242-1.143h-0.059c-0.4,0.503-0.8,0.843-1.198,1.021s-0.895,0.268-1.49,0.268
		c-0.796,0-1.42-0.205-1.871-0.615c-0.452-0.41-0.678-0.994-0.678-1.751c0-1.621,1.296-2.471,3.889-2.549l1.362-0.044v-0.498
		c0-0.63-0.135-1.095-0.407-1.395c-0.271-0.3-0.704-0.451-1.3-0.451c-0.669,0-1.426,0.205-2.271,0.615l-0.374-0.93
		c0.396-0.215,0.829-0.384,1.3-0.506c0.471-0.122,0.943-0.183,1.417-0.183c0.957,0,1.666,0.212,2.128,0.637
		c0.461,0.425,0.692,1.106,0.692,2.044v5.479H171.108z M168.362,385.805c0.757,0,1.351-0.207,1.784-0.622
		c0.432-0.415,0.648-0.996,0.648-1.743v-0.726l-1.216,0.052c-0.967,0.034-1.664,0.184-2.091,0.45s-0.641,0.68-0.641,1.241
		c0,0.439,0.133,0.774,0.399,1.004C167.511,385.691,167.883,385.805,168.362,385.805z"/>
	<path class="st4" d="M181.084,378.635v0.769l-1.487,0.176c0.137,0.171,0.259,0.395,0.366,0.67s0.161,0.587,0.161,0.934
		c0,0.786-0.269,1.413-0.806,1.882s-1.274,0.703-2.212,0.703c-0.239,0-0.464-0.02-0.674-0.059c-0.518,0.273-0.776,0.618-0.776,1.033
		c0,0.22,0.09,0.382,0.271,0.487s0.491,0.158,0.93,0.158h1.421c0.869,0,1.537,0.183,2.003,0.549s0.7,0.898,0.7,1.597
		c0,0.889-0.356,1.566-1.069,2.033s-1.753,0.7-3.12,0.7c-1.05,0-1.859-0.195-2.428-0.586s-0.853-0.942-0.853-1.655
		c0-0.488,0.156-0.911,0.469-1.268s0.752-0.598,1.318-0.725c-0.205-0.093-0.377-0.237-0.516-0.433
		c-0.14-0.195-0.209-0.422-0.209-0.681c0-0.293,0.078-0.55,0.234-0.77s0.403-0.432,0.74-0.637c-0.415-0.171-0.753-0.462-1.014-0.872
		c-0.262-0.41-0.392-0.879-0.392-1.406c0-0.879,0.264-1.556,0.791-2.032s1.274-0.714,2.241-0.714c0.42,0,0.798,0.049,1.135,0.146
		H181.084z M174.683,388.01c0,0.435,0.183,0.764,0.549,0.988s0.891,0.337,1.575,0.337c1.021,0,1.776-0.152,2.267-0.458
		c0.49-0.305,0.736-0.719,0.736-1.242c0-0.435-0.134-0.736-0.403-0.904s-0.774-0.253-1.516-0.253h-1.458
		c-0.552,0-0.981,0.132-1.289,0.396S174.683,387.517,174.683,388.01z M175.342,381.206c0,0.562,0.159,0.986,0.476,1.274
		s0.759,0.433,1.326,0.433c1.187,0,1.78-0.576,1.78-1.729c0-1.206-0.601-1.81-1.802-1.81c-0.571,0-1.011,0.154-1.318,0.462
		S175.342,380.6,175.342,381.206z"/>
	<path class="st4" d="M186.123,386.809c-1.187,0-2.123-0.361-2.809-1.084s-1.029-1.727-1.029-3.011c0-1.294,0.319-2.321,0.956-3.083
		c0.638-0.762,1.493-1.143,2.567-1.143c1.006,0,1.802,0.331,2.388,0.992s0.879,1.534,0.879,2.618v0.77h-5.53
		c0.024,0.942,0.262,1.657,0.714,2.146c0.451,0.488,1.087,0.732,1.908,0.732c0.864,0,1.719-0.181,2.563-0.542v1.084
		c-0.43,0.186-0.836,0.319-1.219,0.399C187.127,386.768,186.665,386.809,186.123,386.809z M185.793,379.506
		c-0.645,0-1.159,0.21-1.542,0.63s-0.609,1.001-0.677,1.743h4.197c0-0.767-0.171-1.354-0.513-1.761S186.428,379.506,185.793,379.506
		z"/>
	<path class="st4" d="M196.641,386.663v-5.193c0-0.654-0.149-1.143-0.447-1.465s-0.764-0.483-1.399-0.483
		c-0.84,0-1.455,0.228-1.846,0.682s-0.586,1.203-0.586,2.248v4.212h-1.216v-8.027h0.989l0.198,1.099h0.059
		c0.249-0.396,0.598-0.702,1.047-0.919s0.95-0.326,1.501-0.326c0.967,0,1.694,0.233,2.183,0.699s0.732,1.212,0.732,2.237v5.237
		H196.641z"/>
	<path class="st4" d="M205.532,384.472c0,0.747-0.278,1.323-0.835,1.729s-1.338,0.608-2.344,0.608c-1.064,0-1.895-0.169-2.49-0.506
		v-1.128c0.386,0.195,0.799,0.35,1.242,0.462c0.441,0.112,0.868,0.168,1.278,0.168c0.635,0,1.123-0.101,1.465-0.304
		s0.513-0.512,0.513-0.927c0-0.312-0.135-0.58-0.407-0.802c-0.271-0.222-0.799-0.484-1.585-0.787
		c-0.747-0.278-1.278-0.521-1.593-0.729c-0.314-0.208-0.549-0.443-0.703-0.707c-0.153-0.264-0.23-0.579-0.23-0.945
		c0-0.654,0.266-1.17,0.798-1.549s1.262-0.567,2.19-0.567c0.864,0,1.709,0.176,2.534,0.527l-0.432,0.988
		c-0.806-0.332-1.536-0.498-2.19-0.498c-0.576,0-1.011,0.091-1.304,0.271s-0.439,0.43-0.439,0.747c0,0.215,0.055,0.397,0.165,0.549
		c0.109,0.151,0.287,0.296,0.531,0.433s0.713,0.334,1.406,0.593c0.952,0.347,1.595,0.696,1.93,1.048
		C205.365,383.498,205.532,383.94,205.532,384.472z"/>
	<path class="st4" d="M207.407,376.459c0-0.278,0.068-0.482,0.205-0.611s0.308-0.194,0.513-0.194c0.195,0,0.364,0.066,0.505,0.198
		s0.212,0.334,0.212,0.607s-0.071,0.478-0.212,0.612s-0.31,0.202-0.505,0.202c-0.205,0-0.376-0.067-0.513-0.202
		S207.407,376.733,207.407,376.459z M208.726,386.663h-1.216v-8.027h1.216V386.663z"/>
	<path class="st4" d="M214.512,386.809c-1.162,0-2.062-0.358-2.699-1.073c-0.637-0.715-0.956-1.728-0.956-3.036
		c0-1.343,0.323-2.38,0.97-3.112s1.569-1.099,2.765-1.099c0.386,0,0.771,0.041,1.157,0.124s0.688,0.181,0.908,0.293l-0.374,1.033
		c-0.269-0.107-0.562-0.197-0.879-0.268s-0.598-0.106-0.842-0.106c-1.631,0-2.446,1.04-2.446,3.12c0,0.986,0.199,1.743,0.597,2.271
		c0.397,0.527,0.987,0.791,1.769,0.791c0.669,0,1.355-0.144,2.058-0.432v1.076C216.003,386.669,215.327,386.809,214.512,386.809z"/>
	<path class="st4" d="M223.938,386.663v-5.193c0-0.654-0.149-1.143-0.447-1.465s-0.764-0.483-1.399-0.483
		c-0.845,0-1.461,0.229-1.85,0.688c-0.388,0.459-0.582,1.211-0.582,2.256v4.197h-1.216v-11.396h1.216v3.449
		c0,0.415-0.02,0.76-0.059,1.033h0.073c0.239-0.386,0.58-0.69,1.021-0.912s0.946-0.333,1.513-0.333c0.981,0,1.718,0.233,2.208,0.699
		c0.491,0.466,0.736,1.207,0.736,2.223v5.237H223.938z"/>
	<path class="st4" d="M231.042,386.809c-1.187,0-2.123-0.361-2.809-1.084s-1.029-1.727-1.029-3.011c0-1.294,0.319-2.321,0.956-3.083
		c0.638-0.762,1.493-1.143,2.567-1.143c1.006,0,1.802,0.331,2.388,0.992s0.879,1.534,0.879,2.618v0.77h-5.53
		c0.024,0.942,0.262,1.657,0.714,2.146c0.451,0.488,1.087,0.732,1.908,0.732c0.864,0,1.719-0.181,2.563-0.542v1.084
		c-0.43,0.186-0.836,0.319-1.219,0.399C232.047,386.768,231.584,386.809,231.042,386.809z M230.713,379.506
		c-0.645,0-1.159,0.21-1.542,0.63s-0.609,1.001-0.677,1.743h4.197c0-0.767-0.171-1.354-0.513-1.761S231.348,379.506,230.713,379.506
		z"/>
	<path class="st4" d="M239.729,378.489c0.356,0,0.676,0.029,0.959,0.088l-0.168,1.128c-0.332-0.073-0.625-0.11-0.879-0.11
		c-0.649,0-1.205,0.264-1.666,0.791c-0.462,0.527-0.692,1.185-0.692,1.971v4.307h-1.216v-8.027h1.003l0.139,1.486h0.059
		c0.298-0.522,0.657-0.925,1.077-1.208S239.226,378.489,239.729,378.489z"/>
	<path class="st4" d="M243.333,378.635v5.207c0,0.654,0.149,1.143,0.447,1.465s0.764,0.483,1.399,0.483
		c0.84,0,1.454-0.229,1.842-0.688c0.389-0.459,0.583-1.208,0.583-2.248v-4.219h1.216v8.027h-1.003l-0.176-1.077h-0.066
		c-0.249,0.396-0.595,0.698-1.037,0.908s-0.946,0.315-1.512,0.315c-0.977,0-1.708-0.232-2.194-0.696s-0.729-1.206-0.729-2.227
		v-5.251H243.333z"/>
	<path class="st4" d="M256.89,386.663v-5.193c0-0.654-0.149-1.143-0.447-1.465s-0.764-0.483-1.399-0.483
		c-0.84,0-1.455,0.228-1.846,0.682s-0.586,1.203-0.586,2.248v4.212h-1.216v-8.027h0.989l0.198,1.099h0.059
		c0.249-0.396,0.598-0.702,1.047-0.919s0.95-0.326,1.501-0.326c0.967,0,1.694,0.233,2.183,0.699s0.732,1.212,0.732,2.237v5.237
		H256.89z"/>
	<path class="st4" d="M267.173,378.635v0.769l-1.487,0.176c0.137,0.171,0.259,0.395,0.366,0.67s0.161,0.587,0.161,0.934
		c0,0.786-0.269,1.413-0.806,1.882s-1.274,0.703-2.212,0.703c-0.239,0-0.464-0.02-0.674-0.059c-0.518,0.273-0.776,0.618-0.776,1.033
		c0,0.22,0.09,0.382,0.271,0.487s0.491,0.158,0.93,0.158h1.421c0.869,0,1.537,0.183,2.003,0.549s0.7,0.898,0.7,1.597
		c0,0.889-0.356,1.566-1.069,2.033s-1.753,0.7-3.12,0.7c-1.05,0-1.859-0.195-2.428-0.586s-0.853-0.942-0.853-1.655
		c0-0.488,0.156-0.911,0.469-1.268s0.752-0.598,1.318-0.725c-0.205-0.093-0.377-0.237-0.516-0.433
		c-0.14-0.195-0.209-0.422-0.209-0.681c0-0.293,0.078-0.55,0.234-0.77s0.403-0.432,0.74-0.637c-0.415-0.171-0.753-0.462-1.014-0.872
		c-0.262-0.41-0.392-0.879-0.392-1.406c0-0.879,0.264-1.556,0.791-2.032s1.274-0.714,2.241-0.714c0.42,0,0.798,0.049,1.135,0.146
		H267.173z M260.771,388.01c0,0.435,0.183,0.764,0.549,0.988s0.891,0.337,1.575,0.337c1.021,0,1.776-0.152,2.267-0.458
		c0.49-0.305,0.736-0.719,0.736-1.242c0-0.435-0.134-0.736-0.403-0.904s-0.774-0.253-1.516-0.253h-1.458
		c-0.552,0-0.981,0.132-1.289,0.396S260.771,387.517,260.771,388.01z M261.431,381.206c0,0.562,0.159,0.986,0.476,1.274
		s0.759,0.433,1.326,0.433c1.187,0,1.78-0.576,1.78-1.729c0-1.206-0.601-1.81-1.802-1.81c-0.571,0-1.011,0.154-1.318,0.462
		S261.431,380.6,261.431,381.206z"/>
</g>
<g>
	<path class="st4" d="M522.312,365.663h-1.244v-10.708h5.969v1.105h-4.725v3.919h4.439v1.105h-4.439V365.663z"/>
	<path class="st4" d="M532.288,357.489c0.356,0,0.676,0.029,0.959,0.088l-0.168,1.128c-0.332-0.073-0.625-0.11-0.879-0.11
		c-0.649,0-1.205,0.264-1.666,0.791c-0.462,0.527-0.692,1.185-0.692,1.971v4.307h-1.216v-8.027h1.004l0.139,1.486h0.059
		c0.298-0.522,0.656-0.925,1.076-1.208S531.785,357.489,532.288,357.489z"/>
	<path class="st4" d="M538.14,365.809c-1.186,0-2.122-0.361-2.809-1.084c-0.686-0.723-1.029-1.727-1.029-3.011
		c0-1.294,0.319-2.321,0.956-3.083c0.638-0.762,1.493-1.143,2.567-1.143c1.006,0,1.802,0.331,2.388,0.992s0.879,1.534,0.879,2.618
		v0.77h-5.53c0.024,0.942,0.263,1.657,0.715,2.146c0.451,0.488,1.088,0.732,1.908,0.732c0.863,0,1.718-0.181,2.562-0.542v1.084
		c-0.43,0.186-0.836,0.319-1.219,0.399C539.145,365.768,538.683,365.809,538.14,365.809z M537.811,358.506
		c-0.645,0-1.158,0.21-1.542,0.63c-0.383,0.42-0.609,1.001-0.678,1.743h4.197c0-0.767-0.171-1.354-0.513-1.761
		S538.445,358.506,537.811,358.506z"/>
	<path class="st4" d="M543.062,355.459c0-0.278,0.068-0.482,0.205-0.611s0.308-0.194,0.513-0.194c0.195,0,0.363,0.066,0.506,0.198
		c0.141,0.132,0.212,0.334,0.212,0.607s-0.071,0.478-0.212,0.612c-0.143,0.134-0.311,0.202-0.506,0.202
		c-0.205,0-0.376-0.067-0.513-0.202S543.062,355.733,543.062,355.459z M544.381,365.663h-1.216v-8.027h1.216V365.663z"/>
	<path class="st4" d="M553.514,365.663l-1.472-4.71c-0.093-0.288-0.267-0.942-0.521-1.963h-0.059
		c-0.195,0.854-0.365,1.514-0.512,1.978l-1.517,4.695h-1.406l-2.19-8.027h1.275c0.517,2.017,0.911,3.552,1.183,4.606
		c0.271,1.055,0.426,1.766,0.465,2.132h0.059c0.054-0.278,0.141-0.639,0.26-1.081c0.12-0.442,0.224-0.792,0.312-1.051l1.473-4.606
		h1.318l1.436,4.606c0.272,0.84,0.458,1.546,0.557,2.117h0.059c0.019-0.176,0.071-0.447,0.157-0.813
		c0.085-0.366,0.594-2.336,1.526-5.91h1.26l-2.219,8.027H553.514z"/>
	<path class="st4" d="M558.523,355.459c0-0.278,0.068-0.482,0.205-0.611s0.308-0.194,0.513-0.194c0.195,0,0.363,0.066,0.506,0.198
		c0.141,0.132,0.212,0.334,0.212,0.607s-0.071,0.478-0.212,0.612c-0.143,0.134-0.311,0.202-0.506,0.202
		c-0.205,0-0.376-0.067-0.513-0.202S558.523,355.733,558.523,355.459z M559.842,365.663h-1.216v-8.027h1.216V365.663z"/>
	<path class="st4" d="M563.636,365.663h-1.216v-11.396h1.216V365.663z"/>
	<path class="st4" d="M567.43,365.663h-1.216v-11.396h1.216V365.663z"/>
	<path class="st4" d="M569.905,355.459c0-0.278,0.068-0.482,0.205-0.611s0.308-0.194,0.513-0.194c0.195,0,0.363,0.066,0.506,0.198
		c0.141,0.132,0.212,0.334,0.212,0.607s-0.071,0.478-0.212,0.612c-0.143,0.134-0.311,0.202-0.506,0.202
		c-0.205,0-0.376-0.067-0.513-0.202S569.905,355.733,569.905,355.459z M571.224,365.663h-1.216v-8.027h1.216V365.663z"/>
	<path class="st4" d="M580.372,357.635v0.769l-1.487,0.176c0.137,0.171,0.259,0.395,0.366,0.67s0.161,0.587,0.161,0.934
		c0,0.786-0.269,1.413-0.806,1.882s-1.274,0.703-2.212,0.703c-0.239,0-0.464-0.02-0.674-0.059c-0.518,0.273-0.776,0.618-0.776,1.033
		c0,0.22,0.09,0.382,0.271,0.487c0.18,0.105,0.49,0.158,0.93,0.158h1.421c0.869,0,1.537,0.183,2.003,0.549
		c0.467,0.366,0.699,0.898,0.699,1.597c0,0.889-0.356,1.566-1.068,2.033c-0.714,0.466-1.754,0.7-3.121,0.7
		c-1.05,0-1.858-0.195-2.428-0.586c-0.568-0.391-0.854-0.942-0.854-1.655c0-0.488,0.156-0.911,0.469-1.268s0.752-0.598,1.318-0.725
		c-0.205-0.093-0.377-0.237-0.516-0.433c-0.14-0.195-0.209-0.422-0.209-0.681c0-0.293,0.078-0.55,0.234-0.77s0.402-0.432,0.74-0.637
		c-0.416-0.171-0.754-0.462-1.015-0.872c-0.262-0.41-0.392-0.879-0.392-1.406c0-0.879,0.264-1.556,0.791-2.032
		s1.273-0.714,2.24-0.714c0.42,0,0.799,0.049,1.136,0.146H580.372z M573.97,367.01c0,0.435,0.184,0.764,0.55,0.988
		s0.891,0.337,1.575,0.337c1.02,0,1.775-0.152,2.267-0.458c0.49-0.305,0.735-0.719,0.735-1.242c0-0.435-0.134-0.736-0.402-0.904
		s-0.774-0.253-1.516-0.253h-1.458c-0.552,0-0.981,0.132-1.289,0.396S573.97,366.517,573.97,367.01z M574.63,360.206
		c0,0.562,0.158,0.986,0.476,1.274s0.759,0.433,1.325,0.433c1.188,0,1.78-0.576,1.78-1.729c0-1.206-0.601-1.81-1.802-1.81
		c-0.571,0-1.011,0.154-1.318,0.462S574.63,359.6,574.63,360.206z"/>
	<path class="st4" d="M585.41,365.809c-1.186,0-2.122-0.361-2.809-1.084c-0.686-0.723-1.029-1.727-1.029-3.011
		c0-1.294,0.319-2.321,0.956-3.083c0.638-0.762,1.493-1.143,2.567-1.143c1.006,0,1.802,0.331,2.388,0.992s0.879,1.534,0.879,2.618
		v0.77h-5.53c0.024,0.942,0.263,1.657,0.715,2.146c0.451,0.488,1.088,0.732,1.908,0.732c0.863,0,1.718-0.181,2.562-0.542v1.084
		c-0.43,0.186-0.836,0.319-1.219,0.399C586.415,365.768,585.953,365.809,585.41,365.809z M585.081,358.506
		c-0.645,0-1.158,0.21-1.542,0.63c-0.383,0.42-0.609,1.001-0.678,1.743h4.197c0-0.767-0.171-1.354-0.513-1.761
		S585.716,358.506,585.081,358.506z"/>
	<path class="st4" d="M497.92,386.663h-5.969v-10.708h5.969v1.105h-4.725v3.45h4.439v1.099h-4.439v3.94h4.725V386.663z"/>
	<path class="st4" d="M500.008,376.459c0-0.278,0.068-0.482,0.205-0.611s0.308-0.194,0.513-0.194c0.195,0,0.363,0.066,0.506,0.198
		c0.141,0.132,0.212,0.334,0.212,0.607s-0.071,0.478-0.212,0.612c-0.143,0.134-0.311,0.202-0.506,0.202
		c-0.205,0-0.376-0.067-0.513-0.202S500.008,376.733,500.008,376.459z M501.326,386.663h-1.216v-8.027h1.216V386.663z"/>
	<path class="st4" d="M509.397,386.663v-5.193c0-0.654-0.149-1.143-0.446-1.465c-0.299-0.322-0.765-0.483-1.399-0.483
		c-0.84,0-1.455,0.228-1.846,0.682s-0.586,1.203-0.586,2.248v4.212h-1.216v-8.027h0.988l0.198,1.099h0.059
		c0.249-0.396,0.598-0.702,1.048-0.919c0.448-0.217,0.949-0.326,1.501-0.326c0.967,0,1.694,0.233,2.183,0.699
		s0.732,1.212,0.732,2.237v5.237H509.397z"/>
	<path class="st4" d="M514.326,386.663h-1.216v-11.396h1.216V386.663z"/>
	<path class="st4" d="M521.841,386.663l-0.241-1.143h-0.059c-0.401,0.503-0.8,0.843-1.198,1.021
		c-0.397,0.178-0.895,0.268-1.49,0.268c-0.796,0-1.42-0.205-1.871-0.615c-0.452-0.41-0.678-0.994-0.678-1.751
		c0-1.621,1.296-2.471,3.89-2.549l1.361-0.044v-0.498c0-0.63-0.135-1.095-0.406-1.395c-0.271-0.3-0.704-0.451-1.3-0.451
		c-0.669,0-1.426,0.205-2.271,0.615l-0.373-0.93c0.395-0.215,0.828-0.384,1.3-0.506c0.471-0.122,0.943-0.183,1.417-0.183
		c0.957,0,1.666,0.212,2.128,0.637c0.461,0.425,0.692,1.106,0.692,2.044v5.479H521.841z M519.094,385.805
		c0.757,0,1.352-0.207,1.784-0.622c0.432-0.415,0.647-0.996,0.647-1.743v-0.726l-1.215,0.052c-0.967,0.034-1.664,0.184-2.092,0.45
		c-0.427,0.266-0.641,0.68-0.641,1.241c0,0.439,0.133,0.774,0.399,1.004C518.243,385.691,518.615,385.805,519.094,385.805z"/>
	<path class="st4" d="M531.817,378.635v0.769l-1.487,0.176c0.137,0.171,0.259,0.395,0.366,0.67s0.161,0.587,0.161,0.934
		c0,0.786-0.269,1.413-0.806,1.882s-1.274,0.703-2.212,0.703c-0.239,0-0.464-0.02-0.674-0.059c-0.518,0.273-0.776,0.618-0.776,1.033
		c0,0.22,0.09,0.382,0.271,0.487c0.18,0.105,0.49,0.158,0.93,0.158h1.421c0.869,0,1.537,0.183,2.003,0.549
		c0.467,0.366,0.699,0.898,0.699,1.597c0,0.889-0.356,1.566-1.068,2.033c-0.714,0.466-1.754,0.7-3.121,0.7
		c-1.05,0-1.858-0.195-2.428-0.586c-0.568-0.391-0.854-0.942-0.854-1.655c0-0.488,0.156-0.911,0.469-1.268s0.752-0.598,1.318-0.725
		c-0.205-0.093-0.377-0.237-0.516-0.433c-0.14-0.195-0.209-0.422-0.209-0.681c0-0.293,0.078-0.55,0.234-0.77s0.402-0.432,0.74-0.637
		c-0.416-0.171-0.754-0.462-1.015-0.872c-0.262-0.41-0.392-0.879-0.392-1.406c0-0.879,0.264-1.556,0.791-2.032
		s1.273-0.714,2.24-0.714c0.42,0,0.799,0.049,1.136,0.146H531.817z M525.415,388.01c0,0.435,0.184,0.764,0.55,0.988
		s0.891,0.337,1.575,0.337c1.02,0,1.775-0.152,2.267-0.458c0.49-0.305,0.735-0.719,0.735-1.242c0-0.435-0.134-0.736-0.402-0.904
		s-0.774-0.253-1.516-0.253h-1.458c-0.552,0-0.981,0.132-1.289,0.396S525.415,387.517,525.415,388.01z M526.075,381.206
		c0,0.562,0.158,0.986,0.476,1.274s0.759,0.433,1.325,0.433c1.188,0,1.78-0.576,1.78-1.729c0-1.206-0.601-1.81-1.802-1.81
		c-0.571,0-1.011,0.154-1.318,0.462S526.075,380.6,526.075,381.206z"/>
	<path class="st4" d="M536.855,386.809c-1.186,0-2.122-0.361-2.809-1.084c-0.686-0.723-1.029-1.727-1.029-3.011
		c0-1.294,0.319-2.321,0.956-3.083c0.638-0.762,1.493-1.143,2.567-1.143c1.006,0,1.802,0.331,2.388,0.992s0.879,1.534,0.879,2.618
		v0.77h-5.53c0.024,0.942,0.263,1.657,0.715,2.146c0.451,0.488,1.088,0.732,1.908,0.732c0.863,0,1.718-0.181,2.562-0.542v1.084
		c-0.43,0.186-0.836,0.319-1.219,0.399C537.86,386.768,537.398,386.809,536.855,386.809z M536.526,379.506
		c-0.645,0-1.158,0.21-1.542,0.63c-0.383,0.42-0.609,1.001-0.678,1.743h4.197c0-0.767-0.171-1.354-0.513-1.761
		S537.161,379.506,536.526,379.506z"/>
	<path class="st4" d="M547.373,386.663v-5.193c0-0.654-0.149-1.143-0.446-1.465c-0.299-0.322-0.765-0.483-1.399-0.483
		c-0.84,0-1.455,0.228-1.846,0.682s-0.586,1.203-0.586,2.248v4.212h-1.216v-8.027h0.988l0.198,1.099h0.059
		c0.249-0.396,0.598-0.702,1.048-0.919c0.448-0.217,0.949-0.326,1.501-0.326c0.967,0,1.694,0.233,2.183,0.699
		s0.732,1.212,0.732,2.237v5.237H547.373z"/>
	<path class="st4" d="M556.265,384.472c0,0.747-0.277,1.323-0.834,1.729s-1.339,0.608-2.344,0.608c-1.065,0-1.896-0.169-2.49-0.506
		v-1.128c0.385,0.195,0.799,0.35,1.241,0.462c0.441,0.112,0.868,0.168,1.278,0.168c0.634,0,1.122-0.101,1.465-0.304
		c0.341-0.203,0.512-0.512,0.512-0.927c0-0.312-0.135-0.58-0.406-0.802c-0.271-0.222-0.8-0.484-1.586-0.787
		c-0.746-0.278-1.277-0.521-1.593-0.729c-0.314-0.208-0.549-0.443-0.703-0.707c-0.153-0.264-0.23-0.579-0.23-0.945
		c0-0.654,0.266-1.17,0.798-1.549s1.263-0.567,2.19-0.567c0.864,0,1.709,0.176,2.534,0.527l-0.432,0.988
		c-0.807-0.332-1.536-0.498-2.19-0.498c-0.576,0-1.011,0.091-1.304,0.271s-0.439,0.43-0.439,0.747c0,0.215,0.055,0.397,0.165,0.549
		c0.109,0.151,0.286,0.296,0.53,0.433s0.713,0.334,1.406,0.593c0.953,0.347,1.596,0.696,1.931,1.048
		C556.098,383.498,556.265,383.94,556.265,384.472z"/>
	<path class="st4" d="M558.141,376.459c0-0.278,0.068-0.482,0.205-0.611s0.308-0.194,0.513-0.194c0.195,0,0.363,0.066,0.506,0.198
		c0.141,0.132,0.212,0.334,0.212,0.607s-0.071,0.478-0.212,0.612c-0.143,0.134-0.311,0.202-0.506,0.202
		c-0.205,0-0.376-0.067-0.513-0.202S558.141,376.733,558.141,376.459z M559.459,386.663h-1.216v-8.027h1.216V386.663z"/>
	<path class="st4" d="M565.245,386.809c-1.162,0-2.062-0.358-2.699-1.073c-0.637-0.715-0.956-1.728-0.956-3.036
		c0-1.343,0.324-2.38,0.971-3.112c0.647-0.732,1.568-1.099,2.766-1.099c0.385,0,0.771,0.041,1.156,0.124s0.689,0.181,0.908,0.293
		l-0.373,1.033c-0.269-0.107-0.562-0.197-0.879-0.268s-0.599-0.106-0.842-0.106c-1.632,0-2.447,1.04-2.447,3.12
		c0,0.986,0.199,1.743,0.598,2.271c0.397,0.527,0.987,0.791,1.769,0.791c0.669,0,1.354-0.144,2.058-0.432v1.076
		C566.736,386.669,566.061,386.809,565.245,386.809z"/>
	<path class="st4" d="M574.672,386.663v-5.193c0-0.654-0.149-1.143-0.446-1.465c-0.299-0.322-0.765-0.483-1.399-0.483
		c-0.845,0-1.461,0.229-1.85,0.688c-0.388,0.459-0.582,1.211-0.582,2.256v4.197h-1.216v-11.396h1.216v3.449
		c0,0.415-0.02,0.76-0.059,1.033h0.073c0.239-0.386,0.58-0.69,1.021-0.912c0.442-0.222,0.946-0.333,1.513-0.333
		c0.981,0,1.718,0.233,2.208,0.699c0.491,0.466,0.736,1.207,0.736,2.223v5.237H574.672z"/>
	<path class="st4" d="M581.776,386.809c-1.186,0-2.122-0.361-2.809-1.084c-0.686-0.723-1.029-1.727-1.029-3.011
		c0-1.294,0.319-2.321,0.956-3.083c0.638-0.762,1.493-1.143,2.567-1.143c1.006,0,1.802,0.331,2.388,0.992s0.879,1.534,0.879,2.618
		v0.77h-5.53c0.024,0.942,0.263,1.657,0.715,2.146c0.451,0.488,1.088,0.732,1.908,0.732c0.863,0,1.718-0.181,2.562-0.542v1.084
		c-0.43,0.186-0.836,0.319-1.219,0.399C582.781,386.768,582.319,386.809,581.776,386.809z M581.447,379.506
		c-0.645,0-1.158,0.21-1.542,0.63c-0.383,0.42-0.609,1.001-0.678,1.743h4.197c0-0.767-0.171-1.354-0.513-1.761
		S582.082,379.506,581.447,379.506z"/>
	<path class="st4" d="M590.464,378.489c0.356,0,0.676,0.029,0.959,0.088l-0.168,1.128c-0.332-0.073-0.625-0.11-0.879-0.11
		c-0.649,0-1.205,0.264-1.666,0.791c-0.462,0.527-0.692,1.185-0.692,1.971v4.307h-1.216v-8.027h1.004l0.139,1.486h0.059
		c0.298-0.522,0.656-0.925,1.076-1.208S589.961,378.489,590.464,378.489z"/>
	<path class="st4" d="M594.067,378.635v5.207c0,0.654,0.148,1.143,0.447,1.465c0.297,0.322,0.764,0.483,1.398,0.483
		c0.84,0,1.454-0.229,1.842-0.688c0.389-0.459,0.582-1.208,0.582-2.248v-4.219h1.217v8.027h-1.004l-0.176-1.077h-0.066
		c-0.248,0.396-0.594,0.698-1.036,0.908c-0.441,0.21-0.946,0.315-1.513,0.315c-0.977,0-1.707-0.232-2.193-0.696
		c-0.485-0.464-0.729-1.206-0.729-2.227v-5.251H594.067z"/>
	<path class="st4" d="M607.625,386.663v-5.193c0-0.654-0.149-1.143-0.446-1.465c-0.299-0.322-0.765-0.483-1.399-0.483
		c-0.84,0-1.455,0.228-1.846,0.682s-0.586,1.203-0.586,2.248v4.212h-1.216v-8.027h0.988l0.198,1.099h0.059
		c0.249-0.396,0.598-0.702,1.048-0.919c0.448-0.217,0.949-0.326,1.501-0.326c0.967,0,1.694,0.233,2.183,0.699
		s0.732,1.212,0.732,2.237v5.237H607.625z"/>
	<path class="st4" d="M617.909,378.635v0.769l-1.487,0.176c0.137,0.171,0.259,0.395,0.366,0.67s0.161,0.587,0.161,0.934
		c0,0.786-0.269,1.413-0.806,1.882s-1.274,0.703-2.212,0.703c-0.239,0-0.464-0.02-0.674-0.059c-0.518,0.273-0.776,0.618-0.776,1.033
		c0,0.22,0.09,0.382,0.271,0.487c0.18,0.105,0.49,0.158,0.93,0.158h1.421c0.869,0,1.537,0.183,2.003,0.549
		c0.467,0.366,0.699,0.898,0.699,1.597c0,0.889-0.356,1.566-1.068,2.033c-0.714,0.466-1.754,0.7-3.121,0.7
		c-1.05,0-1.858-0.195-2.428-0.586c-0.568-0.391-0.854-0.942-0.854-1.655c0-0.488,0.156-0.911,0.469-1.268s0.752-0.598,1.318-0.725
		c-0.205-0.093-0.377-0.237-0.516-0.433c-0.14-0.195-0.209-0.422-0.209-0.681c0-0.293,0.078-0.55,0.234-0.77s0.402-0.432,0.74-0.637
		c-0.416-0.171-0.754-0.462-1.015-0.872c-0.262-0.41-0.392-0.879-0.392-1.406c0-0.879,0.264-1.556,0.791-2.032
		s1.273-0.714,2.24-0.714c0.42,0,0.799,0.049,1.136,0.146H617.909z M611.507,388.01c0,0.435,0.184,0.764,0.55,0.988
		s0.891,0.337,1.575,0.337c1.02,0,1.775-0.152,2.267-0.458c0.49-0.305,0.735-0.719,0.735-1.242c0-0.435-0.134-0.736-0.402-0.904
		s-0.774-0.253-1.516-0.253h-1.458c-0.552,0-0.981,0.132-1.289,0.396S611.507,387.517,611.507,388.01z M612.167,381.206
		c0,0.562,0.158,0.986,0.476,1.274s0.759,0.433,1.325,0.433c1.188,0,1.78-0.576,1.78-1.729c0-1.206-0.601-1.81-1.802-1.81
		c-0.571,0-1.011,0.154-1.318,0.462S612.167,380.6,612.167,381.206z"/>
</g>
<rect x="104.897" y="320.751" class="st3" width="543.244" height="21.499"/>
<path class="st1" d="M351.038,26.016c13.891,0.226,23.677-2.882,37.119,0.628c3.658,0.955,16.345,3.036,20.007,3.971
	c4.192,1.07,12.566,2.541,16.8,3.429c4.365,0.915,32.748,6.5,37.113,7.415c4.787,1.003,27.442,4.503,27.447,5.182h24.611
	L376.919,21.448L351.038,26.016z"/>
<path class="st1" d="M351.63,16.739c13.891,0.226,23.677-2.882,37.119,0.628c3.658,0.955,16.345,3.036,20.007,3.971
	c4.192,1.07,12.566,2.541,16.8,3.429c4.365,0.915,167.831,30.115,167.699,30.82l18.365,0L377.51,12.171L351.63,16.739z"/>
<path class="st1" d="M104.897,55.809v5.857c5.888,0.021,513.339-1.624,519.623-1.603c5.703,0.019,5.293,0.038,10.996,0.151
	c7.656,0.151-1.608-0.628,5.558-0.253c1.027,0.054,2.201,0.191,2.79,1.091c0.384,0.587,0.408,1.351,0.418,2.067
	c0.029,2.011,0.555,22.827,0.583,24.839l3.608,0.004c-0.831-1.615-0.714-23.495-0.574-25.332c0.179-2.355,0.294-4.722,0.473-7.076
	L104.897,55.809z"/>
<rect x="104.897" y="55.917" class="st3" width="543.244" height="31.926"/>
<polygon class="st3" points="137.552,55.917 377.212,12.171 615.487,55.917 "/>
<polygon class="st3" points="238.903,46.64 376.919,21.448 514.136,46.64 "/>
<g>
	<path class="st1" d="M580.505,111.899l-2.065,0.017c0,0,1.834-0.969,1.028-1.66c-0.432-0.37-52.518,0.335-52.518,0.335
		l-1.258-1.172h57.286L580.505,111.899z"/>
	<path class="st1" d="M520.797,309.602c0.101,0.778,0.201,1.555,0.302,2.333c5.407,0.018,10.813,0.036,16.22,0.054
		c4.907,0.016,19.815,0.033,24.721,0.13c6.587,0.13,13.17,0.405,19.75,0.727c0.943,0.046,2.021,0.165,2.562,0.938
		c0.353,0.505,0.375,1.163,0.384,1.779c0.026,1.73,0.052,3.461,0.078,5.191c1.104,0.001,2.208,0.003,3.313,0.004
		c-0.763-1.39-0.655-3.075-0.527-4.655c0.164-2.026,0.27-4.063,0.434-6.089L520.797,309.602z"/>
	<path class="st1" d="M519.006,87.844c0.103,0.798,0.207,1.596,0.31,2.394c5.548,0.018,12.96,0.037,18.508,0.055
		c5.035,0.017,20.071,0.034,25.105,0.133c6.759,0.134,13.514,0.416,20.265,0.746c0.967,0.047,2.074,0.169,2.629,0.963
		c0.362,0.518,0.385,1.193,0.394,1.825c0.027,1.776,0.054,3.979,0.08,5.755c1.133,0.001,2.266,0.003,3.399,0.004
		c-0.783-1.426-0.132-3.709,0-5.331c0.169-2.079-0.264-4.043-0.096-6.121L519.006,87.844z"/>
	<path class="st1" d="M532.47,121.431c0.076,0.586,0.152,1.172,0.228,1.758c4.075,0.014-1.525,0.027,2.55,0.041
		c3.698,0.012,15.789-0.132,19.487-0.059c4.964,0.098,12.001-0.436,16.96-0.193c0.711,0.035,2.162,0.099,2.569,0.682
		c0.266,0.381,0.201,0.911,0.201,0.911h1.692c0.124-1.527-0.348-1.302-0.224-2.829L532.47,121.431z"/>
	<path class="st1" d="M530.043,111.794c0.076,0.586,0.152,1.172,0.228,1.758c4.075,0.014-1.525,0.027,2.55,0.041
		c3.698,0.012,15.789-0.132,19.487-0.059c4.964,0.098,16.67-0.436,21.629-0.193c0.711,0.035,2.162,0.099,2.569,0.682
		c0.266,0.381,0.201,0.911,0.201,0.911h1.692c0.124-1.527-0.348-1.302-0.224-2.829L530.043,111.794z"/>
	<path class="st1" d="M520.546,99.871c0.103,0.798,0.207,1.596,0.31,2.394c5.548,0.018,12.96,0.037,18.508,0.055
		c5.035,0.017,28.01-0.121,29.588-0.058c1.402,0.056,3.57,0.047,4.974,0.036c1.878-0.015,9.144-0.534,9.93,1.623
		c0.209,0.573-0.091,1.218-0.463,1.702c-0.372,0.484-2.21,3.249-2.051,3.4c0.081,0.077,0.196,0.103,0.305,0.125
		c0.35,0.073,0.711,0.127,1.054,0.227c0.093,0.027,0.188,0.072,0.281,0.022c0.068-0.036,0.11-0.12,0.153-0.177
		c0.121-0.161,0.258-0.31,0.399-0.453c0.809-0.828,1.735-1.535,2.574-2.332c0.405-0.385,0.804-0.786,1.132-1.24
		c0.232-0.32,0.456-0.692,0.489-1.095c0.169-2.079,0.099-1.726,0.268-3.805L520.546,99.871z"/>
	<path class="st1" d="M567.947,306.952c3.269-0.109,13.684-0.367,14.947,0.29c1.464,1.09,0.238,1.674,0.182,2.196
		c1.133,0.148,2.503,0.201,3.171-0.726c0.685-0.95,0.083-2.382-0.921-2.985c-1.005-0.602-2.244-0.607-3.415-0.593
		c-2.999,0.035-5.997,0.069-8.996,0.104c-1.969,0.023-3.937,0.045-5.906,0.068c-1.619,0.019-3.238,0.037-4.857,0.056
		c-2.992,0.034-5.983,0.068-8.975,0.057c-1.569-0.006-13.138-0.024-14.707-0.046c-1.576-0.021-3.151-0.046-4.727-0.063
		c-1.582-0.017-3.164-0.028-4.746-0.021c-0.788,0.003-1.575,0.011-2.362,0.024c-0.586,0.01-2.62-0.059-3.165,0.195
		c-0.309,0.144-1.71,1.132-1.076,1.561C522.588,307.2,566.242,307.009,567.947,306.952z"/>
	<path class="st1" d="M570.782,302.981c1.757-0.015,3.522-0.03,5.261,0.223c0.875,0.127,1.82,0.372,2.339,1.088
		c0.185,0.255,0.316,0.57,0.589,0.728c0.168,0.098,0.368,0.12,0.562,0.141c0.729,0.079,1.458,0.157,2.187,0.236
		c-0.551-1.188-1.16-2.349-1.825-3.478c-1.221-0.086-2.44-0.257-3.664-0.257c-0.247,0-0.494,0-0.74,0c-0.682,0-1.364,0-2.046,0
		c-1.03,0-2.059,0-3.089,0c-1.29,0-2.581,0-3.871,0c-1.464,0-2.927,0-4.391,0c-1.55,0-3.1,0-4.649,0c-1.549,0-3.097,0-4.646,0
		c-1.46,0-12.921,0-14.381,0c-1.285,0-2.569,0-3.854,0c-1.022,0-2.044,0-3.066,0c-0.344,0-1.811-0.017-2.125,0.134
		c-0.529,0.254-1.606,1.071-1.173,1.311c0.185,0.103,2.588,0.129,2.791,0.128c0.341-0.003,0.681-0.006,1.022-0.009
		c0.681-0.006,1.362-0.012,2.043-0.018c1.362-0.012,2.724-0.023,4.087-0.035c2.724-0.023,15.449-0.047,18.173-0.07
		s5.449-0.047,8.173-0.07C566.586,303.017,568.684,302.999,570.782,302.981z"/>
	<path class="st1" d="M526.815,299.992c6.198,0.138,22.398,0.233,28.597,0.328c1.53,0.024,3.06,0.047,4.589,0.071
		c1.861,0.029,12.808-0.633,16.395-0.234c0.983,0.109,2.207,0.556,2.214,1.545c0.789,0.169,1.625,0.109,2.381-0.172
		c0.307-0.114,0.631-0.298,0.718-0.614c0.09-0.324-0.105-0.657-0.325-0.911c-0.974-1.127-2.602-1.204-4.092-1.204h-49.508
		L526.815,299.992z"/>
	<path class="st1" d="M531.355,127.726c8.94,0.021,29.022,0.212,38.746,0.711c1.266,0.065,3.758-0.173,4.709,0.665
		c0.793,0.698,0.53,4.988,0.454,6.042c-0.164,2.282,0.13,11.327-0.334,13.594c-0.751,3.671-0.278,146.539-0.006,150.276l4.704-0.029
		l-2.014-174.414h-46.492L531.355,127.726z"/>
	<rect x="519.161" y="87.844" class="st3" width="70.418" height="12.028"/>
	<polygon class="st3" points="580.505,111.899 528.236,111.899 520.871,104.397 520.871,99.871 587.87,99.871 587.869,104.397 	"/>
	<line class="st3" x1="525.694" y1="109.31" x2="583.068" y2="109.31"/>
	<rect x="530.043" y="111.899" class="st3" width="48.655" height="2.93"/>
	<rect x="531.124" y="114.829" class="st3" width="46.492" height="6.942"/>
	<rect x="520.893" y="309.763" class="st3" width="66.955" height="10.989"/>
	<path class="st3" d="M584.386,309.763h-60.031c-1.259,0-2.28-1.021-2.28-2.28l0,0c0-1.259,1.021-2.28,2.28-2.28h60.031
		c1.259,0,2.28,1.021,2.28,2.28l0,0C586.666,308.742,585.645,309.763,584.386,309.763z"/>
	<path class="st3" d="M580.424,301.859h-52.108c-0.793,0-1.437-0.643-1.437-1.437l0,0c0-0.793,0.643-1.437,1.437-1.437h52.108
		c0.793,0,1.437,0.643,1.437,1.437l0,0C581.861,301.215,581.217,301.859,580.424,301.859z"/>
	<polygon class="st3" points="579.63,298.985 529.11,298.985 531.124,124.571 577.616,124.571 	"/>
	<rect x="532.584" y="121.772" class="st3" width="43.572" height="2.8"/>
	<polygon class="st3" points="582.069,305.204 526.672,305.204 529.11,301.859 579.63,301.859 	"/>
	<path class="st3" d="M556.223,120.153V118.3c0-1.023-0.829-1.853-1.853-1.853l0,0c-1.023,0-1.853,0.829-1.853,1.853v1.853"/>
	<path class="st3" d="M537.52,120.153V118.3c0-1.023-0.829-1.853-1.853-1.853l0,0c-1.023,0-1.853,0.829-1.853,1.853v1.853"/>
	<path class="st3" d="M562.464,120.153V118.3c0-1.023-0.829-1.853-1.853-1.853l0,0c-1.023,0-1.853,0.829-1.853,1.853v1.853"/>
	<path class="st3" d="M565.001,120.153V118.3c0-1.023,0.829-1.853,1.853-1.853l0,0c1.023,0,1.853,0.829,1.853,1.853v1.853"/>
	<path class="st3" d="M571.242,120.153V118.3c0-1.023,0.829-1.853,1.853-1.853l0,0c1.023,0,1.853,0.829,1.853,1.853v1.853"/>
	<path class="st3" d="M552.518,120.153V118.3c0-1.023,0.829-1.853,1.853-1.853l0,0c1.023,0,1.853,0.829,1.853,1.853v1.853"/>
	<path class="st3" d="M546.276,120.153V118.3c0-1.023,0.829-1.853,1.853-1.853l0,0c1.023,0,1.853,0.829,1.853,1.853v1.853"/>
	<path class="st3" d="M543.74,120.153V118.3c0-1.023-0.829-1.853-1.853-1.853l0,0c-1.023,0-1.853,0.829-1.853,1.853v1.853"/>
	<g>
		<path class="st6" d="M538.865,208.953c-1.052,0-1.451-1.374-0.563-1.937l15.188-9.639c0.221-0.137,0.545-0.216,0.89-0.216
			c0.343,0,0.668,0.079,0.889,0.216l14.937,9.641c0.88,0.568,0.478,1.933-0.57,1.933L538.865,208.953z"/>
		<path class="st2" d="M538.865,208.953c-1.052,0-1.451-1.374-0.563-1.937l15.188-9.639c0.221-0.137,0.545-0.216,0.89-0.216
			c0.343,0,0.668,0.079,0.889,0.216l14.937,9.641c0.88,0.568,0.478,1.933-0.57,1.933L538.865,208.953z"/>
		<path class="st6" d="M536.952,233.063c-0.418,0-0.758-0.339-0.758-0.758v-2.273c0-0.417,0.34-0.757,0.758-0.757h34.856
			c0.418,0,0.757,0.339,0.757,0.757v2.273c0,0.418-0.339,0.758-0.757,0.758H536.952z"/>
		<path class="st2" d="M536.952,233.063c-0.418,0-0.758-0.339-0.758-0.758v-2.273c0-0.417,0.34-0.757,0.758-0.757h34.856
			c0.418,0,0.757,0.339,0.757,0.757v2.273c0,0.418-0.339,0.758-0.757,0.758H536.952z"/>
		<path class="st6" d="M566.504,225.486v-16.394c0-0.047-0.01-0.091-0.015-0.137h-4.518c-0.004,0.047-0.014,0.09-0.014,0.137v16.394
			H566.504z"/>
		<path class="st2" d="M566.504,225.486v-16.394c0-0.047-0.01-0.091-0.015-0.137h-4.518c-0.004,0.047-0.014,0.09-0.014,0.137v16.394
			H566.504z"/>
		<path class="st6" d="M556.653,225.486v-16.394c0-0.047-0.01-0.091-0.014-0.137h-4.519c-0.004,0.047-0.014,0.09-0.014,0.137v16.394
			H556.653z"/>
		<path class="st2" d="M556.653,225.486v-16.394c0-0.047-0.01-0.091-0.014-0.137h-4.519c-0.004,0.047-0.014,0.09-0.014,0.137v16.394
			H556.653z"/>
		<rect x="542.256" y="208.953" class="st6" width="4.547" height="16.533"/>
		<rect x="542.256" y="208.953" class="st2" width="4.547" height="16.533"/>
		<path class="st6" d="M539.225,229.275c-0.418,0-0.758-0.339-0.758-0.758v-2.273c0-0.417,0.34-0.758,0.758-0.758h30.31
			c0.418,0,0.757,0.34,0.757,0.758v2.273c0,0.418-0.339,0.758-0.757,0.758H539.225z"/>
		<path class="st2" d="M539.225,229.275c-0.418,0-0.758-0.339-0.758-0.758v-2.273c0-0.417,0.34-0.758,0.758-0.758h30.31
			c0.418,0,0.757,0.34,0.757,0.758v2.273c0,0.418-0.339,0.758-0.757,0.758H539.225z"/>
		<polygon class="st1" points="552.541,198.091 553.806,197.27 554.68,197.217 555.269,197.377 570.509,207.205 570.673,207.805 
			570.455,208.461 569.328,208.949 		"/>
		<path class="st1" d="M571.788,233.078h-34.871c-0.41,0-0.742-0.333-0.742-0.741v-0.723h36.353v0.723
			C572.529,232.745,572.197,233.078,571.788,233.078"/>
		<path class="st1" d="M569.586,229.147h-30.522c-0.409,0-0.742-0.332-0.742-0.741v-0.722h32.006v0.722
			C570.328,228.816,569.995,229.147,569.586,229.147"/>
		<rect x="564.677" y="209.006" class="st1" width="1.802" height="16.43"/>
		<rect x="554.851" y="209.006" class="st1" width="1.803" height="16.43"/>
		<rect x="544.917" y="209.006" class="st1" width="1.802" height="16.43"/>
		<path class="st2" d="M538.865,208.953c-1.052,0-1.451-1.374-0.563-1.937l15.188-9.639c0.221-0.137,0.545-0.216,0.89-0.216
			c0.343,0,0.668,0.079,0.889,0.216l14.937,9.641c0.88,0.568,0.478,1.933-0.57,1.933L538.865,208.953z"/>
		<path class="st2" d="M536.952,233.063c-0.418,0-0.758-0.339-0.758-0.758v-2.273c0-0.417,0.34-0.757,0.758-0.757h34.856
			c0.418,0,0.757,0.339,0.757,0.757v2.273c0,0.418-0.339,0.758-0.757,0.758H536.952z"/>
		<path class="st2" d="M566.504,225.486v-16.394c0-0.047-0.01-0.091-0.015-0.137h-4.518c-0.004,0.047-0.014,0.09-0.014,0.137v16.394
			H566.504z"/>
		<path class="st2" d="M556.653,225.486v-16.394c0-0.047-0.01-0.091-0.014-0.137h-4.519c-0.004,0.047-0.014,0.09-0.014,0.137v16.394
			H556.653z"/>
		<rect x="542.256" y="208.953" class="st2" width="4.547" height="16.533"/>
		<path class="st2" d="M539.225,229.275c-0.418,0-0.758-0.339-0.758-0.758v-2.273c0-0.417,0.34-0.758,0.758-0.758h30.31
			c0.418,0,0.757,0.34,0.757,0.758v2.273c0,0.418-0.339,0.758-0.757,0.758H539.225z"/>
	</g>
</g>
<g>
	<g>
		<path class="st1" d="M212.746,193.163c0.483,0.214,0.965,0.428,1.448,0.642c0.093,0.041,0.193,0.089,0.236,0.181
			c0.047,0.102,0.008,0.22-0.031,0.325c-0.446,1.195-0.904,2.387-1.338,3.587c-0.059,0.163-0.112,0.326-0.146,0.496
			c-0.078,0.395-0.058,0.908-0.268,1.259c-0.278,0.463-0.972,0.438-1.46,0.208s-0.924-0.609-1.459-0.683
			c0.315-0.813,1.492-2.741,1.549-2.967c0.051-0.202,0.103-0.408,0.093-0.617c-0.017-0.347-0.234-0.66-0.525-0.84
			c-0.156-0.096-0.316-0.136-0.495-0.162c-0.257-0.037-0.509-0.154-0.762-0.218c-0.331-0.084-0.664-0.136-0.979-0.26
			c-0.193-0.076-0.415-0.083-0.618-0.112c-0.466-0.067-0.933-0.125-1.401-0.175c-0.989-0.105-1.982-0.171-2.975-0.198
			c-1.935-0.052-3.875,0.043-5.796,0.287c-1.327,0.169-2.719,0.442-3.721,1.327c1.122-1.513,2.802-2.524,4.609-3.056
			s3.708-0.648,5.591-0.698c3.305-0.087,6.766,0.059,9.651,1.674"/>
		<path class="st1" d="M200.55,199.392c-0.393,1.641,0.478,3.362,1.705,4.521c1.227,1.159,2.777,1.9,4.217,2.781
			c1.421,0.869,3.951,1.853,5.129,3.031c1.595,1.595,1.996,3.641,1.996,5.402c0,4.915-3.203,5.86-2.757,6.506
			c0.094,0.136,0.496-0.165,0.655-0.208c0.081-0.022,0.143-0.085,0.201-0.145c0.683-0.709,1.365-1.417,2.048-2.126
			c0.335-0.348,0.673-0.699,0.938-1.104c0.743-1.134,0.842-2.567,0.79-3.921c-0.033-0.852-0.119-1.715-0.425-2.511
			c-0.244-0.633-0.619-1.205-0.992-1.771c-0.443-0.673-0.888-1.35-1.443-1.935c-1.645-1.735-4.043-2.475-6.264-3.358
			c-2.221-0.883-4.533-2.147-5.446-4.356"/>
		<path class="st1" d="M211.034,221.379c0.429,0.638,1.041,1.727,1.38,2.416c1.008,2.051,0.512,4.15-0.265,6.299
			c-0.124,0.341-0.311,0.662-0.414,1.01c-0.027,0.091-0.042,0.185-0.068,0.276c-0.074,0.256-0.261,0.46-0.425,0.664
			c-0.777,0.963-1.665,1.836-2.642,2.595c-0.419,0.326-0.855,0.631-1.32,0.887c-1.62,0.891-3.515,1.144-5.363,1.18
			c-1.848,0.036-3.701-0.127-5.545,0.005c-0.148,0.011-0.341,0.069-0.338,0.217c0.002,0.114,0.126,0.182,0.232,0.223
			c0.365,0.143,0.739,0.263,1.118,0.36c0.178,0.045,0.376,0.114,0.56,0.118c0.4,0.009,0.8,0.075,1.2,0.121
			c1.027,0.118,2.062,0.155,3.095,0.13c1.358-0.033,2.712-0.17,4.056-0.368c0.731-0.108,1.462-0.233,2.165-0.459
			c0.686-0.22,1.339-0.533,1.977-0.869c1.16-0.611,2.31-1.329,3.079-2.392c0.642-0.888,0.976-1.959,1.239-3.022
			c0.29-1.172,0.509-2.381,0.403-3.584c-0.106-1.203-0.568-2.412-1.463-3.223"/>
		<g>
			<path class="st3" d="M191.771,213.895c0-1.232,0.414-2.435,1.242-3.609c0.827-1.174,1.992-2.213,3.494-3.118
				c-2.714-1.964-4.071-4.331-4.071-7.103c0-2.637,1.068-4.716,3.205-6.236c2.137-1.52,4.976-2.281,8.518-2.281
				c3.676,0,7.237,0.828,10.683,2.483l-2.829,6.381c-1.405-0.769-2.815-1.376-4.23-1.819c-1.415-0.443-2.652-0.664-3.71-0.664
				c-2.079,0-3.118,0.713-3.118,2.137c0,0.828,0.437,1.588,1.314,2.281c0.876,0.693,2.112,1.367,3.71,2.021
				c3.368,1.367,5.799,2.829,7.291,4.389c1.491,1.559,2.238,3.272,2.238,5.139c0,1.482-0.308,2.805-0.924,3.97
				c-0.616,1.165-1.733,2.324-3.349,3.479c2.406,1.81,3.609,4.158,3.609,7.045c0,2.868-1.121,5.154-3.364,6.857
				c-2.243,1.703-5.318,2.555-9.225,2.555c-3.927,0-7.315-0.828-10.163-2.483v-7.045c1.52,0.847,3.272,1.579,5.255,2.195
				c1.983,0.616,3.638,0.924,4.966,0.924c2.675,0,4.013-0.924,4.013-2.772c0-0.808-0.298-1.506-0.895-2.093
				c-0.597-0.587-1.935-1.342-4.013-2.267c-2.714-1.213-4.692-2.29-5.933-3.234c-1.242-0.943-2.171-1.983-2.786-3.119
				C192.078,216.773,191.771,215.436,191.771,213.895z M200.173,213c0,0.982,0.423,1.858,1.27,2.627
				c0.847,0.77,2.339,1.714,4.475,2.83c0.789-0.905,1.184-1.935,1.184-3.09c0-1.097-0.405-2.06-1.213-2.888
				c-0.808-0.827-2.156-1.636-4.042-2.425C200.731,210.671,200.173,211.653,200.173,213z"/>
		</g>
	</g>
	<path class="st1" d="M229.772,111.899l-2.065,0.017c0,0,1.834-0.969,1.028-1.66c-0.432-0.37-52.518,0.335-52.518,0.335
		l-1.258-1.172h57.286L229.772,111.899z"/>
	<path class="st1" d="M170.065,309.602c0.101,0.778,0.201,1.555,0.302,2.333c5.407,0.018,10.813,0.036,16.22,0.054
		c4.907,0.016,19.815,0.033,24.721,0.13c6.587,0.13,13.17,0.405,19.75,0.727c0.943,0.046,2.021,0.165,2.562,0.938
		c0.353,0.505,0.375,1.163,0.384,1.779c0.026,1.73,0.052,3.461,0.078,5.191c1.104,0.001,2.208,0.003,3.313,0.004
		c-0.763-1.39-0.655-3.075-0.527-4.655c0.164-2.026,0.27-4.063,0.434-6.089L170.065,309.602z"/>
	<path class="st1" d="M168.274,87.844c0.103,0.798,0.207,1.596,0.31,2.394c5.548,0.018,12.96,0.037,18.508,0.055
		c5.035,0.017,20.071,0.034,25.105,0.133c6.759,0.134,13.514,0.416,20.265,0.746c0.967,0.047,2.074,0.169,2.629,0.963
		c0.362,0.518,0.385,1.193,0.394,1.825c0.027,1.776,0.054,3.979,0.08,5.755c1.133,0.001,2.266,0.003,3.399,0.004
		c-0.783-1.426-0.132-3.709,0-5.331c0.169-2.079-0.264-4.043-0.096-6.121L168.274,87.844z"/>
	<path class="st1" d="M181.738,121.431c0.076,0.586,0.152,1.172,0.228,1.758c4.075,0.014-1.525,0.027,2.55,0.041
		c3.698,0.012,15.789-0.132,19.487-0.059c4.964,0.098,12.001-0.436,16.96-0.193c0.711,0.035,2.162,0.099,2.569,0.682
		c0.266,0.381,0.201,0.911,0.201,0.911h1.692c0.124-1.527-0.348-1.302-0.224-2.829L181.738,121.431z"/>
	<path class="st1" d="M179.31,111.794c0.076,0.586,0.152,1.172,0.228,1.758c4.075,0.014-1.525,0.027,2.55,0.041
		c3.698,0.012,15.789-0.132,19.487-0.059c4.964,0.098,16.67-0.436,21.629-0.193c0.71,0.035,2.162,0.099,2.569,0.682
		c0.266,0.381,0.201,0.911,0.201,0.911h1.692c0.124-1.527-0.348-1.302-0.224-2.829L179.31,111.794z"/>
	<path class="st1" d="M169.813,99.871c0.103,0.798,0.207,1.596,0.31,2.394c5.548,0.018,12.96,0.037,18.508,0.055
		c5.035,0.017,28.01-0.121,29.588-0.058c1.402,0.056,3.57,0.047,4.974,0.036c1.878-0.015,9.144-0.534,9.93,1.623
		c0.209,0.573-0.091,1.218-0.463,1.702s-2.21,3.249-2.051,3.4c0.081,0.077,0.196,0.103,0.306,0.125
		c0.35,0.073,0.711,0.127,1.054,0.227c0.093,0.027,0.188,0.072,0.281,0.022c0.068-0.036,0.11-0.12,0.153-0.177
		c0.121-0.161,0.258-0.31,0.399-0.453c0.809-0.828,1.735-1.535,2.574-2.332c0.405-0.385,0.804-0.786,1.132-1.24
		c0.232-0.32,0.456-0.692,0.489-1.095c0.169-2.079,0.099-1.726,0.268-3.805L169.813,99.871z"/>
	<path class="st1" d="M217.214,306.952c3.269-0.109,13.684-0.367,14.947,0.29c1.464,1.09,0.238,1.674,0.182,2.196
		c1.133,0.148,2.503,0.201,3.171-0.726c0.685-0.95,0.083-2.382-0.921-2.985c-1.004-0.602-2.244-0.607-3.415-0.593
		c-2.999,0.035-5.998,0.069-8.996,0.104c-1.969,0.023-3.937,0.045-5.906,0.068c-1.619,0.019-3.238,0.037-4.857,0.056
		c-2.992,0.034-5.983,0.068-8.975,0.057c-1.569-0.006-13.138-0.024-14.707-0.046c-1.576-0.021-3.151-0.046-4.727-0.063
		c-1.582-0.017-3.164-0.028-4.746-0.021c-0.788,0.003-1.575,0.011-2.363,0.024c-0.586,0.01-2.62-0.059-3.165,0.195
		c-0.309,0.144-1.71,1.132-1.076,1.561C171.855,307.2,215.51,307.009,217.214,306.952z"/>
	<path class="st1" d="M220.049,302.981c1.757-0.015,3.522-0.03,5.261,0.223c0.875,0.127,1.82,0.372,2.339,1.088
		c0.185,0.255,0.316,0.57,0.589,0.728c0.168,0.098,0.368,0.12,0.562,0.141c0.729,0.079,1.458,0.157,2.187,0.236
		c-0.551-1.188-1.16-2.349-1.825-3.478c-1.221-0.086-2.44-0.257-3.664-0.257c-0.247,0-0.494,0-0.74,0c-0.682,0-1.364,0-2.046,0
		c-1.03,0-2.059,0-3.089,0c-1.29,0-2.581,0-3.871,0c-1.464,0-2.927,0-4.391,0c-1.55,0-3.1,0-4.649,0c-1.549,0-3.097,0-4.646,0
		c-1.46,0-12.921,0-14.381,0c-1.285,0-2.569,0-3.854,0c-1.022,0-2.044,0-3.066,0c-0.344,0-1.811-0.017-2.125,0.134
		c-0.529,0.254-1.606,1.071-1.173,1.311c0.185,0.103,2.588,0.129,2.791,0.128c0.341-0.003,0.681-0.006,1.022-0.009
		c0.681-0.006,1.362-0.012,2.043-0.018c1.362-0.012,2.724-0.023,4.087-0.035c2.724-0.023,15.449-0.047,18.173-0.07
		s5.449-0.047,8.173-0.07C215.854,303.017,217.952,302.999,220.049,302.981z"/>
	<path class="st1" d="M176.083,299.992c6.198,0.138,22.398,0.233,28.597,0.328c1.53,0.024,3.06,0.047,4.589,0.071
		c1.861,0.029,12.808-0.633,16.395-0.234c0.983,0.109,2.207,0.556,2.214,1.545c0.789,0.169,1.625,0.109,2.381-0.172
		c0.307-0.114,0.631-0.298,0.718-0.614c0.09-0.324-0.105-0.657-0.325-0.911c-0.974-1.127-2.602-1.204-4.092-1.204h-49.508
		L176.083,299.992z"/>
	<path class="st1" d="M180.623,127.726c8.941,0.021,29.022,0.212,38.746,0.711c1.266,0.065,3.758-0.173,4.709,0.665
		c0.793,0.698,0.53,4.988,0.454,6.042c-0.164,2.282,0.13,11.327-0.334,13.594c-0.751,3.671-0.278,146.539-0.006,150.276l4.704-0.029
		l-2.014-174.414h-46.492L180.623,127.726z"/>
	<rect x="168.429" y="87.844" class="st3" width="70.418" height="12.028"/>
	<polygon class="st3" points="229.772,111.899 177.503,111.899 170.138,104.397 170.138,99.871 237.137,99.871 237.136,104.397 	"/>
	<line class="st3" x1="174.961" y1="109.31" x2="232.335" y2="109.31"/>
	<rect x="179.31" y="111.899" class="st3" width="48.655" height="2.93"/>
	<rect x="180.392" y="114.829" class="st3" width="46.492" height="6.942"/>
	<rect x="170.16" y="309.763" class="st3" width="66.955" height="10.989"/>
	<path class="st3" d="M233.654,309.763h-60.032c-1.259,0-2.28-1.021-2.28-2.28l0,0c0-1.259,1.021-2.28,2.28-2.28h60.032
		c1.259,0,2.28,1.021,2.28,2.28l0,0C235.933,308.742,234.912,309.763,233.654,309.763z"/>
	<path class="st3" d="M229.692,301.859h-52.108c-0.793,0-1.437-0.643-1.437-1.437l0,0c0-0.793,0.643-1.437,1.437-1.437h52.108
		c0.793,0,1.437,0.643,1.437,1.437l0,0C231.128,301.215,230.485,301.859,229.692,301.859z"/>
	<polygon class="st3" points="228.898,298.985 178.378,298.985 180.392,124.571 226.884,124.571 	"/>
	<rect x="181.851" y="121.772" class="st3" width="43.572" height="2.8"/>
	<polygon class="st3" points="231.337,305.204 175.939,305.204 178.378,301.859 228.898,301.859 	"/>
	<path class="st3" d="M205.49,120.153V118.3c0-1.023-0.829-1.853-1.853-1.853h0c-1.023,0-1.853,0.829-1.853,1.853v1.853"/>
	<path class="st3" d="M186.787,120.153V118.3c0-1.023-0.829-1.853-1.853-1.853l0,0c-1.023,0-1.853,0.829-1.853,1.853v1.853"/>
	<path class="st3" d="M211.732,120.153V118.3c0-1.023-0.829-1.853-1.853-1.853l0,0c-1.023,0-1.853,0.829-1.853,1.853v1.853"/>
	<path class="st3" d="M214.268,120.153V118.3c0-1.023,0.829-1.853,1.853-1.853l0,0c1.023,0,1.853,0.829,1.853,1.853v1.853"/>
	<path class="st3" d="M220.51,120.153V118.3c0-1.023,0.829-1.853,1.853-1.853l0,0c1.023,0,1.853,0.829,1.853,1.853v1.853"/>
	<path class="st3" d="M201.785,120.153V118.3c0-1.023,0.829-1.853,1.853-1.853h0c1.023,0,1.853,0.829,1.853,1.853v1.853"/>
	<path class="st3" d="M195.544,120.153V118.3c0-1.023,0.829-1.853,1.853-1.853l0,0c1.023,0,1.853,0.829,1.853,1.853v1.853"/>
	<path class="st3" d="M193.007,120.153V118.3c0-1.023-0.829-1.853-1.853-1.853l0,0c-1.023,0-1.853,0.829-1.853,1.853v1.853"/>
</g>
<path class="st1" d="M402.903,111.899l-2.065,0.017c0,0,1.834-0.969,1.028-1.66c-0.431-0.37-52.518,0.335-52.518,0.335l-1.258-1.172
	h57.286L402.903,111.899z"/>
<path class="st1" d="M343.195,309.602c0.101,0.778,0.201,1.555,0.302,2.333c5.407,0.018,10.813,0.036,16.22,0.054
	c4.907,0.016,19.815,0.033,24.721,0.13c6.587,0.13,13.17,0.405,19.75,0.727c0.943,0.046,2.021,0.165,2.562,0.938
	c0.353,0.505,0.375,1.163,0.384,1.779c0.026,1.73,0.052,3.461,0.078,5.191c1.104,0.001,2.208,0.003,3.313,0.004
	c-0.763-1.39-0.655-3.075-0.527-4.655c0.164-2.026,0.27-4.063,0.434-6.089L343.195,309.602z"/>
<path class="st1" d="M341.404,87.844c0.103,0.798,0.207,1.596,0.31,2.394c5.548,0.018,12.96,0.037,18.508,0.055
	c5.035,0.017,20.071,0.034,25.105,0.133c6.759,0.134,13.514,0.416,20.265,0.746c0.967,0.047,2.074,0.169,2.629,0.963
	c0.362,0.518,0.385,1.193,0.394,1.825c0.027,1.776,0.054,3.979,0.08,5.755c1.133,0.001,2.266,0.003,3.399,0.004
	c-0.783-1.426-0.132-3.709,0-5.331c0.169-2.079-0.264-4.043-0.096-6.121L341.404,87.844z"/>
<path class="st1" d="M354.868,121.431c0.076,0.586,0.152,1.172,0.228,1.758c4.075,0.014-1.525,0.027,2.55,0.041
	c3.698,0.012,15.789-0.132,19.487-0.059c4.964,0.098,12.001-0.436,16.96-0.193c0.711,0.035,2.162,0.099,2.569,0.682
	c0.266,0.381,0.201,0.911,0.201,0.911h1.692c0.124-1.527-0.348-1.302-0.224-2.829L354.868,121.431z"/>
<path class="st1" d="M352.44,111.794c0.076,0.586,0.152,1.172,0.228,1.758c4.075,0.014-1.525,0.027,2.55,0.041
	c3.698,0.012,15.789-0.132,19.487-0.059c4.964,0.098,16.67-0.436,21.629-0.193c0.71,0.035,2.162,0.099,2.569,0.682
	c0.266,0.381,0.201,0.911,0.201,0.911h1.692c0.124-1.527-0.348-1.302-0.224-2.829L352.44,111.794z"/>
<path class="st1" d="M342.943,99.871c0.103,0.798,0.207,1.596,0.31,2.394c5.548,0.018,12.96,0.037,18.508,0.055
	c5.035,0.017,28.01-0.121,29.588-0.058c1.402,0.056,3.57,0.047,4.974,0.036c1.878-0.015,9.144-0.534,9.93,1.623
	c0.209,0.573-0.091,1.218-0.463,1.702s-2.21,3.249-2.051,3.4c0.081,0.077,0.196,0.103,0.306,0.125
	c0.35,0.073,0.711,0.127,1.054,0.227c0.093,0.027,0.188,0.072,0.281,0.022c0.068-0.036,0.11-0.12,0.153-0.177
	c0.121-0.161,0.258-0.31,0.399-0.453c0.809-0.828,1.735-1.535,2.574-2.332c0.405-0.385,0.804-0.786,1.132-1.24
	c0.232-0.32,0.456-0.692,0.489-1.095c0.169-2.079,0.099-1.726,0.268-3.805L342.943,99.871z"/>
<path class="st1" d="M390.345,306.952c3.269-0.109,13.684-0.367,14.947,0.29c1.464,1.09,0.238,1.674,0.182,2.196
	c1.133,0.148,2.503,0.201,3.171-0.726c0.685-0.95,0.083-2.382-0.921-2.985c-1.004-0.602-2.244-0.607-3.415-0.593
	c-2.999,0.035-5.998,0.069-8.996,0.104c-1.969,0.023-3.937,0.045-5.906,0.068c-1.619,0.019-3.238,0.037-4.857,0.056
	c-2.992,0.034-5.983,0.068-8.975,0.057c-1.569-0.006-13.138-0.024-14.707-0.046c-1.576-0.021-3.151-0.046-4.727-0.063
	c-1.582-0.017-3.164-0.028-4.746-0.021c-0.788,0.003-1.575,0.011-2.363,0.024c-0.586,0.01-2.62-0.059-3.165,0.195
	c-0.309,0.144-1.71,1.132-1.076,1.561C344.986,307.2,388.64,307.009,390.345,306.952z"/>
<path class="st1" d="M393.18,302.981c1.757-0.015,3.522-0.03,5.261,0.223c0.875,0.127,1.82,0.372,2.339,1.088
	c0.185,0.255,0.316,0.57,0.589,0.728c0.168,0.098,0.368,0.12,0.562,0.141c0.729,0.079,1.458,0.157,2.187,0.236
	c-0.551-1.188-1.16-2.349-1.825-3.478c-1.221-0.086-2.44-0.257-3.664-0.257c-0.247,0-0.494,0-0.74,0c-0.682,0-1.364,0-2.046,0
	c-1.03,0-2.059,0-3.089,0c-1.29,0-2.581,0-3.871,0c-1.464,0-2.927,0-4.391,0c-1.55,0-3.1,0-4.649,0c-1.549,0-3.097,0-4.646,0
	c-1.46,0-12.921,0-14.381,0c-1.285,0-2.569,0-3.854,0c-1.022,0-2.044,0-3.066,0c-0.344,0-1.811-0.017-2.125,0.134
	c-0.529,0.254-1.606,1.071-1.173,1.311c0.185,0.103,2.587,0.129,2.791,0.128c0.341-0.003,0.681-0.006,1.022-0.009
	c0.681-0.006,1.362-0.012,2.043-0.018c1.362-0.012,2.724-0.023,4.087-0.035c2.724-0.023,15.449-0.047,18.173-0.07
	c2.724-0.023,5.449-0.047,8.173-0.07C388.984,303.017,391.082,302.999,393.18,302.981z"/>
<path class="st1" d="M349.213,299.992c6.198,0.138,22.398,0.233,28.597,0.328c1.53,0.024,3.06,0.047,4.589,0.071
	c1.861,0.029,12.808-0.633,16.395-0.234c0.983,0.109,2.207,0.556,2.214,1.545c0.789,0.169,1.625,0.109,2.381-0.172
	c0.307-0.114,0.631-0.298,0.718-0.614c0.09-0.324-0.105-0.657-0.325-0.911c-0.974-1.127-2.602-1.204-4.092-1.204h-49.508
	L349.213,299.992z"/>
<path class="st1" d="M353.753,127.726c8.941,0.021,29.022,0.212,38.746,0.711c1.266,0.065,3.758-0.173,4.709,0.665
	c0.793,0.698,0.53,4.988,0.454,6.042c-0.164,2.282,0.13,11.327-0.334,13.594c-0.751,3.671-0.278,146.539-0.005,150.276l4.704-0.029
	l-2.014-174.414h-46.492L353.753,127.726z"/>
<rect x="341.559" y="87.844" class="st3" width="70.418" height="12.028"/>
<polygon class="st3" points="402.903,111.899 350.633,111.899 343.268,104.397 343.268,99.871 410.268,99.871 410.267,104.397 "/>
<line class="st3" x1="348.091" y1="109.31" x2="405.466" y2="109.31"/>
<rect x="352.44" y="111.899" class="st3" width="48.655" height="2.93"/>
<rect x="353.522" y="114.829" class="st3" width="46.492" height="6.942"/>
<rect x="343.291" y="309.763" class="st3" width="66.955" height="10.989"/>
<path class="st3" d="M406.784,309.763h-60.032c-1.259,0-2.28-1.021-2.28-2.28l0,0c0-1.259,1.021-2.28,2.28-2.28h60.032
	c1.259,0,2.28,1.021,2.28,2.28l0,0C409.063,308.742,408.043,309.763,406.784,309.763z"/>
<path class="st3" d="M402.822,301.859h-52.108c-0.793,0-1.437-0.643-1.437-1.437l0,0c0-0.793,0.643-1.437,1.437-1.437h52.108
	c0.793,0,1.437,0.643,1.437,1.437l0,0C404.258,301.215,403.615,301.859,402.822,301.859z"/>
<polygon class="st3" points="402.028,298.985 351.508,298.985 353.522,124.571 400.014,124.571 "/>
<rect x="354.982" y="121.772" class="st3" width="43.572" height="2.8"/>
<polygon class="st3" points="404.467,305.204 349.069,305.204 351.508,301.859 402.028,301.859 "/>
<path class="st3" d="M378.621,120.153V118.3c0-1.023-0.829-1.853-1.853-1.853l0,0c-1.023,0-1.853,0.829-1.853,1.853v1.853"/>
<path class="st3" d="M359.917,120.153V118.3c0-1.023-0.829-1.853-1.853-1.853l0,0c-1.023,0-1.853,0.829-1.853,1.853v1.853"/>
<path class="st3" d="M384.862,120.153V118.3c0-1.023-0.829-1.853-1.853-1.853l0,0c-1.023,0-1.853,0.829-1.853,1.853v1.853"/>
<path class="st3" d="M387.398,120.153V118.3c0-1.023,0.829-1.853,1.853-1.853l0,0c1.023,0,1.853,0.829,1.853,1.853v1.853"/>
<path class="st3" d="M393.64,120.153V118.3c0-1.023,0.829-1.853,1.853-1.853l0,0c1.023,0,1.853,0.829,1.853,1.853v1.853"/>
<path class="st3" d="M374.915,120.153V118.3c0-1.023,0.829-1.853,1.853-1.853l0,0c1.023,0,1.853,0.829,1.853,1.853v1.853"/>
<path class="st3" d="M368.674,120.153V118.3c0-1.023,0.829-1.853,1.853-1.853l0,0c1.023,0,1.853,0.829,1.853,1.853v1.853"/>
<path class="st3" d="M366.138,120.153V118.3c0-1.023-0.829-1.853-1.853-1.853l0,0c-1.023,0-1.853,0.829-1.853,1.853v1.853"/>
<g>
	<path class="st1" d="M385.683,199.526c1.146,1.571,1.572,3.647,1.138,5.542c-0.228,0.995-0.674,1.925-1.118,2.844
		c-0.473,0.982-0.947,1.964-1.42,2.946c0.201,0.207,0.547,0.055,0.783-0.111c1.536-1.075,2.928-2.405,3.847-4.039
		c0.919-1.634,1.335-3.596,0.905-5.421c-0.286-1.214-0.923-2.312-1.563-3.381c-0.211-0.353-0.458-0.733-0.852-0.853
		c-0.359-0.109-0.74,0.028-1.108,0.102s-0.82,0.048-1.025-0.267c-0.416,1.044-0.259,2.297,0.402,3.206"/>
	<path class="st1" d="M364.887,197.395c-0.649,0.505-1.212,1.12-1.659,1.81c-0.107,0.165-0.21,0.343-0.223,0.539
		c-0.017,0.251,0.114,0.486,0.241,0.704c0.376,0.646,0.752,1.291,1.128,1.937c0.666,1.143,1.364,2.322,2.444,3.085
		c1.531,1.081,3.736,1.097,5.283,0.04c-0.918-0.308-1.81-0.696-2.662-1.157c-0.897-0.485-1.798-1.109-2.184-2.053
		c-0.557-1.364,0.125-2.878,0.618-4.266c0.084-0.237,0.155-0.526-0.007-0.719c-0.08-0.094-0.2-0.143-0.317-0.183
		c-0.753-0.258-1.571-0.323-2.355-0.185"/>
	<path class="st1" d="M379.592,195.073c0.118,0.077,0.211,0.187,0.293,0.302c0.735,1.027,0.669,2.461,0.159,3.615
		c-0.51,1.155-1.399,2.093-2.27,3.007c-1.012,1.061-2.024,2.122-3.035,3.182c-0.25,0.262-0.51,0.531-0.845,0.665
		s-0.769,0.096-0.994-0.187c-0.373-0.471,0.053-1.14,0.463-1.579c0.629-0.676,1.259-1.352,1.888-2.027
		c0.295-0.317,0.598-0.813,0.308-1.135c-0.114-0.127-0.288-0.175-0.451-0.225c-0.315-0.097-0.636-0.229-0.851-0.479
		c-0.215-0.25-0.292-0.646-0.096-0.911c0.389-0.525,1.436-0.173,1.73-0.757c0.147-0.291-0.009-0.646-0.214-0.9
		c-0.496-0.615-1.302-0.965-2.09-0.909c-0.187,0.013-0.393,0.044-0.548-0.062c-0.093-0.064-0.151-0.168-0.192-0.274
		c-0.367-0.927,0.527-2.088,1.517-1.97c0.27,0.032,0.531,0.14,0.803,0.137c0.469-0.005,0.866-0.33,1.31-0.48
		c1.063-0.36,2.173,0.312,3.094,0.953"/>
	<path class="st1" d="M379.132,212.598c-0.372-0.236-0.822,0.164-1.049,0.542c-0.938,1.566-1.196,3.523-0.695,5.278
		c0.098,0.345,0.226,0.689,0.229,1.048c0.003,0.324-0.097,0.639-0.132,0.961c-0.121,1.117,0.53,2.156,1.154,3.09
		c0.128,0.191,0.269,0.394,0.484,0.476c0.48,0.184,0.922-0.311,1.255-0.703c0.673-0.792,1.582-1.38,2.58-1.669
		c-0.673-0.847-1.346-1.693-2.02-2.54c-0.289-0.364-0.582-0.732-0.777-1.154c-0.226-0.487-0.314-1.025-0.399-1.555
		c-0.192-1.194-0.385-2.387-0.577-3.581c-0.022-0.137,0.166-0.321,0.182-0.183"/>
	<line class="st3" x1="362.85" y1="203.856" x2="358.031" y2="210.856"/>
	<line class="st3" x1="364.263" y1="207.366" x2="358.576" y2="215.628"/>
	<line class="st3" x1="366.496" y1="209.81" x2="360.064" y2="219.154"/>
	<line class="st3" x1="368.994" y1="211.606" x2="361.788" y2="222.074"/>
	<line class="st3" x1="372.305" y1="212.788" x2="363.942" y2="224.938"/>
	<line class="st3" x1="371.699" y1="222.695" x2="366.932" y2="229.621"/>
	<line class="st3" x1="365.742" y1="226.34" x2="373.312" y2="226.235"/>
	<line class="st3" x1="369.579" y1="226.287" x2="370.158" y2="230.598"/>
	<line class="st3" x1="364.1" y1="197.254" x2="370.578" y2="196.927"/>
	<line class="st3" x1="390.686" y1="203.838" x2="395.505" y2="210.838"/>
	<line class="st3" x1="389.273" y1="207.348" x2="394.96" y2="215.611"/>
	<line class="st3" x1="387.04" y1="209.792" x2="393.472" y2="219.136"/>
	<line class="st3" x1="384.542" y1="211.588" x2="391.748" y2="222.057"/>
	<line class="st3" x1="381.231" y1="212.77" x2="389.594" y2="224.92"/>
	<line class="st3" x1="381.837" y1="222.677" x2="386.604" y2="229.603"/>
	<path class="st3" d="M373.467,232.135c1.852-3.335,2.728-7.282,2.111-11.047c-0.521,1.13-1.179,2.197-1.957,3.168
		c-1.131-1.054-2.396-1.963-3.756-2.7c1.258-0.738,2.161-1.959,2.858-3.24c0.915-1.681,1.538-3.693,0.901-5.498
		c-3.428-0.173-6.578-2.19-8.732-4.862c-0.561-0.696-1.069-1.444-1.425-2.264c-1.209-2.784-0.398-6.313,1.905-8.289"/>
	<path class="st3" d="M388.163,197.385c2.304,1.977,3.115,5.505,1.905,8.289c-0.356,0.82-0.864,1.568-1.425,2.264
		c-2.154,2.672-5.304,4.69-8.732,4.862c-0.637,1.805-0.014,3.817,0.901,5.498c0.697,1.281,1.6,2.502,2.858,3.24
		c-1.359,0.736-2.624,1.646-3.756,2.7c-0.778-0.971-1.437-2.038-1.957-3.168c-0.617,3.765,0.26,7.712,2.111,11.047"/>
	<line class="st3" x1="387.794" y1="226.322" x2="380.224" y2="226.217"/>
	<line class="st3" x1="383.957" y1="226.269" x2="383.378" y2="230.58"/>
	<path class="st3" d="M384.85,197.199c4.416,5.73-2.205,8.127-4.075,8.139c-0.58-0.842-1.142-1.716-1.217-2.736
		c-0.052-0.702,0.153-1.395,0.355-2.069c0.2-0.667,0.4-1.335,0.601-2.002c0.089-0.297,0.179-0.599,0.191-0.909
		c0.013-0.342-0.069-0.681-0.17-1.007c-0.13-0.419-0.292-0.828-0.484-1.222"/>
	<line class="st3" x1="389.292" y1="197.208" x2="382.958" y2="196.91"/>
	<path class="st3" d="M380.928,194.258c-0.298,0.146-0.602,0.294-0.929,0.351c-0.462,0.08-0.933-0.027-1.389-0.134
		c-0.385-0.09-0.769-0.18-1.154-0.27c-0.321-0.075-0.65-0.15-0.977-0.108s-0.655,0.229-0.772,0.537
		c-0.756-0.394-1.679-0.45-2.477-0.151c-0.399,0.149-0.8,0.433-0.87,0.852c-0.062,0.37,0.151,0.724,0.354,1.039
		c0.109,0.168,0.217,0.336,0.326,0.505c0.428-0.262,1.159-0.198,1.632-0.032c0.473,0.165,0.872,0.511,1.151,0.927
		c0.145,0.216,0.263,0.46,0.276,0.72s-0.097,0.537-0.321,0.671c-0.216,0.129-0.487,0.103-0.737,0.073
		c-0.644-0.076-1.289-0.153-1.933-0.229c0.858,0.82,1.82,1.532,2.855,2.113c0,0-2.752,2.594-3.202,4.235
		c-1.869-0.012-8.49-2.409-4.075-8.139"/>
	<circle class="st3" cx="377.938" cy="196.402" r="0.105"/>
	<path class="st3" d="M376.378,230.729c-0.169,0.666-0.418,1.312-0.739,1.92"/>
	<path class="st3" d="M377.298,230.729c0.169,0.666,0.418,1.312,0.739,1.92"/>
</g>
</svg>
