<?xml version="1.0" encoding="utf-8"?>
<!-- Generator: Adobe Illustrator 25.2.0, SVG Export Plug-In . SVG Version: 6.00 Build 0)  -->
<svg version="1.1" baseProfile="basic" id="Grafik" xmlns="http://www.w3.org/2000/svg" xmlns:xlink="http://www.w3.org/1999/xlink" x="0px" y="0px" width="750px" height="264.927px" viewBox="0 0 750 264.927" xml:space="preserve">
	<style type="text/css">
	.st0{fill:#FFFFFF;}
	.st1{fill:#D0E2F3;}
	.st2{fill:none;stroke:#004B8C;stroke-miterlimit:10;}
	.st3{fill:none;stroke:#004B8C;stroke-linecap:round;stroke-linejoin:round;stroke-miterlimit:10;}
	.st4{fill:#404040;}
	.st5{fill:#E8F0F9;}
	.st6{fill-rule:evenodd;clip-rule:evenodd;fill:#FFFFFF;}
	.st7{fill:#004B8C;}
	.st8{fill:#E6411A;}
	.st9{fill:#003554;}
	.st10{clip-path:url(#SVGID_2_);fill:#D0E2F3;}
	.st11{fill:none;stroke:#3A8DFF;stroke-linecap:round;stroke-linejoin:round;stroke-miterlimit:10;}
	.st12{fill:#3A8DFF;}
	.st13{opacity:0.2;}
	.st14{clip-path:url(#SVGID_4_);fill:#156CC4;}
	.st15{clip-path:url(#SVGID_6_);fill:#156CC4;}
	.st16{clip-path:url(#SVGID_8_);fill:#156CC4;}
	.st17{clip-path:url(#SVGID_10_);fill:#156CC4;}
	.st18{clip-path:url(#SVGID_12_);fill:#156CC4;}
	.st19{clip-path:url(#SVGID_14_);fill:#156CC4;}
	.st20{clip-path:url(#SVGID_16_);fill:#156CC4;}
	.st21{clip-path:url(#SVGID_18_);fill:#156CC4;}
	.st22{clip-path:url(#SVGID_20_);fill:#156CC4;}
	.st23{clip-path:url(#SVGID_22_);fill:#156CC4;}
	.st24{clip-path:url(#SVGID_24_);fill:#156CC4;}
	.st25{clip-path:url(#SVGID_26_);fill:#156CC4;}
	.st26{clip-path:url(#SVGID_28_);fill:#156CC4;}
	.st27{clip-path:url(#SVGID_30_);fill:#156CC4;}
	.st28{clip-path:url(#SVGID_32_);fill:#156CC4;}
	.st29{clip-path:url(#SVGID_34_);fill:#156CC4;}
	.st30{clip-path:url(#SVGID_36_);fill:#156CC4;}
	.st31{clip-path:url(#SVGID_38_);fill:#156CC4;}
	.st32{clip-path:url(#SVGID_40_);fill:#156CC4;}
	.st33{clip-path:url(#SVGID_42_);fill:#156CC4;}
	.st34{clip-path:url(#SVGID_44_);fill:#156CC4;}
	.st35{clip-path:url(#SVGID_46_);fill:#156CC4;}
	.st36{clip-path:url(#SVGID_48_);fill:#156CC4;}
	.st37{clip-path:url(#SVGID_50_);fill:#156CC4;}
	.st38{clip-path:url(#SVGID_52_);fill:#156CC4;}
	.st39{clip-path:url(#SVGID_54_);fill:#156CC4;}
	.st40{clip-path:url(#SVGID_56_);fill:#156CC4;}
	.st41{clip-path:url(#SVGID_58_);fill:#156CC4;}
	.st42{fill:none;stroke:#D7D7D7;stroke-linecap:round;stroke-miterlimit:10;}
	.st43{fill:none;stroke:#004B8C;stroke-width:0.5;stroke-linecap:round;stroke-linejoin:round;stroke-miterlimit:10;}
	.st44{fill:none;stroke:#004B8C;stroke-width:1.75;stroke-linecap:round;stroke-linejoin:round;stroke-miterlimit:10;}
	.st45{fill:none;stroke:#004B8C;stroke-linecap:round;stroke-miterlimit:10;}
	.st46{fill:none;stroke:#BFCCD4;stroke-linecap:round;stroke-miterlimit:10;}
	.st47{fill:#FFFFFF;stroke:#004B8C;stroke-linecap:round;stroke-linejoin:round;stroke-miterlimit:10;}
	.st48{fill:#004B8C;stroke:#004B8C;stroke-linecap:round;stroke-linejoin:round;stroke-miterlimit:10;}
	.st49{clip-path:url(#SVGID_60_);fill:#D0E2F3;}
	.st50{fill:none;}
	.st51{fill:#929292;}
	.st52{fill:#922C1C;}
	.st53{fill:#F3F7FC;}
	.st54{fill:#A1C4E7;}
	.st55{fill:none;stroke:#F3F7FC;stroke-width:0;stroke-linecap:round;stroke-linejoin:round;}
</style>
	<g>
		<path class="st0" d="M194.872,225.022c0-99.481,80.646-180.129,180.128-180.129c99.483,0,180.129,80.647,180.129,180.129h-51.474
		c0-71.054-57.601-128.653-128.655-128.653c-71.053,0-128.653,57.6-128.653,128.653H194.872z" />
		<path class="st0" d="M427,234.675h-14v-60h8c0.183,0,0.358-0.033,0.526-0.079h0.258l0.079-0.124
		c0.67-0.323,1.137-1.003,1.137-1.797h0l0-0.003v-3.997c0-0.224-0.041-0.459-0.098-0.696l-0.008-0.36l-0.952-2.062l-44.687-21.663
		l-0.005-0.001c-0.575-0.279-1.394-0.441-2.25-0.441c-0.858,0-1.68,0.163-2.255,0.443l-43.611,21.36
		c-1.137,0.557-2.134,2.155-2.134,3.421v4c0,1.104,0.897,2,2,2h8v60h-14c-1.103,0-2,0.897-2,2v10c0,1.104,0.897,2,2,2h32
		c0,0.481,0.178,0.918,0.462,1.264v0.568h0.74c0.245,0.106,0.514,0.168,0.798,0.168h36c0.284,0,0.553-0.062,0.798-0.168h0.628
		v-0.433c0.354-0.361,0.574-0.854,0.574-1.399l2.309,0.089v-0.089H427c1.103,0,2-0.896,2-2v-10
		C429,235.572,428.103,234.675,427,234.675z M347,234.675v-60h8v0.396h-0.141v1.586H355v58.018H347z M395,234.675v-0.132h0.141
		v-59.789H395v-0.079h8v60H395z" />
		<path class="st1" d="M197.885,192.08c0.395-1.954,1.226-3.911,1.888-5.782c1.851-5.24,3.963-10.389,6.255-15.451
		c7.591-16.764,17.229-32.652,28.741-47.014c7.259-9.056,15.287-17.501,24.05-25.115c2.333-2.027,4.718-3.996,7.153-5.9
		c1.189-0.931,2.391-1.846,3.603-2.746c1.295-0.961,2.596-2.072,3.994-2.877c1.036-0.596,2.044-1.215,3.189-1.605
		c3.532-1.204,7.651-0.746,10.733,1.399c2.686,1.87,4.464,4.741,6.32,7.437c4.665,6.777,10.236,12.872,15.788,18.943
		c0.169,0.185,0.353,0.379,0.597,0.437c0.284,0.067,0.573-0.067,0.834-0.198c0.967-0.484,1.933-0.968,2.9-1.452
		c-7.59-9.718-10.211-20-14.311-28.804c-0.648-1.392-1.261-2.862-0.956-4.367c0.729-3.593,3.843-6.139,6.788-8.323
		c1.092-0.81,2.201-1.611,3.406-2.247c1.119-0.591,2.411-0.748,3.501-1.342c2.067-1.126,4.444-1.759,6.683-2.482
		c4.929-1.592,9.929-2.963,14.978-4.117c5.307-1.214,10.669-2.188,16.062-2.934c5.699-0.788,11.433-1.322,17.179-1.619
		c2.578-0.133,5.158-0.219,7.738-0.259c32.223-0.5,58.985,6.911,82.268,19.885c0,0-10.782,18.935-9.667,17.565
		c14.267-17.539,14.267-14.662,18.29-12.408c30.194,16.918,50.887,45.358,62.066,70.594c13.746,31.032,16.757,61.136,17.119,73.723
		h10.054c0,0,6.259-93.76-83.86-152.267s-177.265-8.662-177.265-8.662S217.239,96.237,197.885,192.08z" />
		<path class="st0" d="M163.208,212.701c3.268-6.358,0.637-15.703-3.756-20.988c-2.93-3.524-7.048-6.891-9.755-8.127
		c6.348-10.201,2.083-6.28-4.385-6.588c-7.874-0.376-0.257,6.828-0.257,6.828c-14.24,6.476-16.536,18.896-14.25,26.591
		C134.631,223.296,156.141,226.458,163.208,212.701" />
		<path class="st1" d="M143.244,177.129c0,0-0.932,0.013-1.158,0.481c-0.217,0.452-0.281,0.725-0.33,1.223
		c-0.013,0.139,0.158,0.555,0.216,0.681c0.084,0.182,0.289,0.272,0.482,0.327c1.528,0.428,3.084-0.455,4.653-0.69
		c0.366-0.054,0.768-0.066,1.075,0.141c0.426,0.286,0.511,0.869,0.531,1.383c0.048,1.205-0.038,2.418-0.258,3.604
		c0.858-0.227,1.448-0.995,1.94-1.733c0.539-0.811,1.042-1.645,1.507-2.501c0.405-0.743,0.993-1.619,0.897-2.462
		c-0.021-0.178,0.236-0.703-0.188-0.838c-1.523-0.485-3.292,0.019-5.257,0.227c-1.59,0.167-2.065,0.022-3.663,0.078" />
		<path class="st1" d="M140.241,186.526c2.142,0.925,4.334,1.553,6.666,1.467c0.751-0.029,1.499-0.163,2.25-0.137
		c2.868,0.105,7.748,7.304,8.693,13.68c0.814,5.484-1.505,15.304-14.069,19.617c3.664,0.876,6.818,0.127,8.597-0.308
		c9.001-2.189,10.916-8.608,11.908-11.465c1.275-3.667-0.587-10.423-1.9-12.978c-2.304-4.484-5.102-6.981-8.804-10.403
		c-0.981-0.908-2.474-1.54-3.591-2.272c-0.159-0.104-0.492-0.288-0.692-0.135c-1.111,0.852-2.692,1.038-3.97,0.47
		c-0.243-0.107-0.524,0.004-0.79,0.005c-0.237,0-0.476,0.311-0.685,0.422c-1.096,0.585-2.058,0.868-2.959,1.724L140.241,186.526z" />
		<path class="st3" d="M145.055,183.826c0,0,1.154,1.772,4.642-0.24" />
		<path class="st3" d="M147.376,184.547c0,0,3.105,1.497,5.001,4.781" />
		<path class="st3" d="M146.201,184.487c0,0-0.619,1.38-0.785,4.077" />
		<path class="st3" d="M152.423,199.199c-0.057-2.561-8.003-4.039-7.859,2.362l0.055,2.482c0.144,6.401,8.015,4.566,7.958,2.007" />
		<line class="st3" x1="149.069" y1="200.858" x2="141.951" y2="201.017" />
		<line class="st3" x1="149.155" y1="204.698" x2="142.037" y2="204.859" />
		<path class="st3" d="M163.208,212.701c3.268-6.358,0.637-15.703-3.756-20.988c-2.93-3.524-7.048-6.891-9.755-8.127
		c6.348-10.201,2.083-6.28-4.385-6.588c-7.874-0.376-0.257,6.828-0.257,6.828c-14.24,6.476-16.536,18.896-14.25,26.591
		C134.631,223.296,156.141,226.458,163.208,212.701z" />
		<path class="st1" d="M377.96,187.855c2.131,2.152,2.131,5.205,0.502,7.689c1.179-0.79,1.967-2.104,2.193-3.5
		c0.226-1.396,0.017-2.868-0.693-4.093c-0.818-1.412-2.295-2.523-3.888-2.909c-1.593-0.384-3.863,0.243-5.079,1.27
		C372.922,185.607,375.675,185.547,377.96,187.855" />
		<rect x="367.296" y="204.886" class="st1" width="14.788" height="2.961" />
		<rect x="379.388" y="205.021" class="st1" width="3.225" height="27.195" />
		<rect x="403.229" y="175.071" class="st1" width="7.613" height="1.586" />
		<rect x="354.859" y="175.071" class="st1" width="38.366" height="1.586" />
		<rect x="337.098" y="175.071" class="st1" width="7.612" height="1.586" />
		<rect x="363.264" y="237.238" class="st1" width="23.359" height="1.269" />
		<rect x="359.576" y="243.424" class="st1" width="30.735" height="1.269" />
		<rect x="355.462" y="249.238" class="st1" width="38.964" height="1.269" />
		<path class="st1" d="M371.745,144.892l3.255-1.441l2.255,0.441l44.687,21.663l0.952,2.062l0.106,5.057l-1.216,1.921h-2.586v-4.318
		c0-1.63-0.921-3.119-2.378-3.849" />
		<path class="st1" d="M387,234.675l-0.159,2.986l-0.845,1.271l3.004-0.257l1.331,0.68l0.739,1.901l-0.211,2.115l-0.74,1.48
		l3.595-0.106l0.951,0.846l0.335,3.084l2.309,0.089v-3.723c0-1.155-0.938-2.093-2.094-2.093h-1.078v-2.961
		c0-1.109-0.9-2.008-2.009-2.008h-0.952v-3.278C391.176,234.701,386.802,234.477,387,234.675" />
		<rect x="409.572" y="174.754" class="st1" width="3.331" height="59.789" />
		<rect x="391.811" y="174.754" class="st1" width="3.33" height="59.789" />
		<rect x="343.388" y="174.754" class="st1" width="3.331" height="59.789" />
		<path class="st3" d="M375,196.675c-3.309,0-6-2.689-6-6c0-3.309,2.691-6,6-6c3.309,0,6,2.691,6,6
		C381,193.985,378.309,196.675,375,196.675" />
		<path class="st3" d="M329,174.675c-1.103,0-2-0.896-2-2v-4c0-1.266,0.997-2.864,2.134-3.421l43.611-21.36
		c0.575-0.28,1.397-0.443,2.255-0.443c0.858,0,1.68,0.163,2.255,0.443l43.611,21.36c1.137,0.557,2.134,2.155,2.134,3.421v4
		c0,1.104-0.897,2-2,2H329z" />
		<polygon class="st3" points="413,234.675 413,234.675 413,174.675 403,174.675 403,234.675 	" />
		<polygon class="st3" points="347,234.675 347,234.675 347,174.675 337,174.675 337,234.675 	" />
		<path class="st3" d="M361,244.675c-1.103,0-2-0.896-2-2v-2c0-1.103,0.897-2,2-2h28c1.103,0,2,0.897,2,2v2c0,1.104-0.897,2-2,2H361z
		" />
		<path class="st3" d="M357,250.675c-1.103,0-2-0.896-2-2v-2c0-1.103,0.897-2,2-2h36c1.103,0,2,0.897,2,2v2c0,1.104-0.897,2-2,2H357z
		" />
		<path class="st3" d="M427,234.675h-40v2c0,1.104-0.897,2-2,2h-20c-1.103,0-2-0.896-2-2v-2h-40c-1.103,0-2,0.897-2,2v10
		c0,1.104,0.897,2,2,2h32v-2c0-1.103,0.897-2,2-2h36c1.103,0,2,0.897,2,2v2h32c1.103,0,2-0.896,2-2v-10
		C429,235.572,428.103,234.675,427,234.675z" />
		<path class="st3" d="M383,206.675c0-1.103-0.897-2-2-2h-12c-1.103,0-2,0.897-2,2v26h16V206.675z" />
		<path class="st3" d="M355,174.675v60h8c0-1.104,0.897-2,2-2h20c1.103,0,2,0.896,2,2h8v-60H355z" />
		<line class="st3" x1="312.956" y1="112.295" x2="288.131" y2="67.19" />
		<g>
			<path class="st4" d="M178.482,249.191v-4.5c0-0.567-0.129-0.99-0.387-1.27s-0.662-0.419-1.212-0.419
			c-0.728,0-1.261,0.197-1.6,0.59s-0.508,1.043-0.508,1.949v3.65h-1.054v-6.957h0.857l0.171,0.952h0.051
			c0.216-0.343,0.519-0.608,0.908-0.796c0.389-0.188,0.823-0.283,1.301-0.283c0.838,0,1.468,0.202,1.892,0.606
			c0.423,0.404,0.635,1.051,0.635,1.939v4.539H178.482z" />
			<path class="st4" d="M181.611,240.348c0-0.241,0.059-0.418,0.178-0.53c0.119-0.112,0.267-0.168,0.444-0.168
			c0.169,0,0.315,0.057,0.438,0.171s0.184,0.29,0.184,0.527s-0.062,0.414-0.184,0.53c-0.123,0.116-0.269,0.174-0.438,0.174
			c-0.178,0-0.326-0.058-0.444-0.174C181.67,240.762,181.611,240.586,181.611,240.348z M182.754,249.191H181.7v-6.957h1.054V249.191
			z" />
			<path class="st4" d="M187.927,249.318c-1.028,0-1.84-0.313-2.434-0.939c-0.595-0.626-0.892-1.496-0.892-2.609
			c0-1.121,0.276-2.012,0.829-2.672c0.552-0.66,1.293-0.99,2.225-0.99c0.872,0,1.562,0.287,2.069,0.86
			c0.508,0.574,0.762,1.33,0.762,2.27v0.667h-4.792c0.021,0.817,0.228,1.437,0.619,1.86c0.392,0.423,0.943,0.635,1.654,0.635
			c0.749,0,1.49-0.156,2.222-0.47v0.939c-0.373,0.161-0.725,0.276-1.057,0.346C188.798,249.283,188.397,249.318,187.927,249.318z
			 M187.642,242.989c-0.559,0-1.004,0.182-1.336,0.546c-0.333,0.364-0.528,0.867-0.587,1.511h3.637c0-0.664-0.148-1.173-0.444-1.526
			C188.615,243.166,188.192,242.989,187.642,242.989z" />
			<path class="st4" d="M197.017,248.258h-0.057c-0.487,0.707-1.214,1.06-2.184,1.06c-0.91,0-1.618-0.311-2.124-0.933
			c-0.505-0.622-0.758-1.507-0.758-2.653s0.254-2.038,0.762-2.672s1.214-0.952,2.12-0.952c0.944,0,1.667,0.343,2.171,1.028h0.083
			l-0.044-0.501l-0.025-0.489v-2.831h1.054v9.877h-0.857L197.017,248.258z M194.91,248.435c0.719,0,1.241-0.196,1.564-0.587
			c0.324-0.392,0.486-1.023,0.486-1.895v-0.222c0-0.986-0.164-1.689-0.492-2.11c-0.328-0.421-0.852-0.632-1.571-0.632
			c-0.618,0-1.091,0.24-1.419,0.721c-0.328,0.48-0.492,1.158-0.492,2.034c0,0.889,0.163,1.56,0.489,2.012
			S194.279,248.435,194.91,248.435z" />
			<path class="st4" d="M203.422,242.107c0.309,0,0.586,0.025,0.832,0.076l-0.146,0.978c-0.288-0.063-0.542-0.095-0.762-0.095
			c-0.563,0-1.044,0.229-1.444,0.686c-0.399,0.457-0.6,1.026-0.6,1.708v3.732h-1.054v-6.957h0.87l0.121,1.289h0.051
			c0.258-0.453,0.569-0.802,0.933-1.047S202.986,242.107,203.422,242.107z" />
			<path class="st4" d="M205.466,240.348c0-0.241,0.059-0.418,0.178-0.53c0.119-0.112,0.267-0.168,0.444-0.168
			c0.169,0,0.315,0.057,0.438,0.171s0.184,0.29,0.184,0.527s-0.062,0.414-0.184,0.53c-0.123,0.116-0.269,0.174-0.438,0.174
			c-0.178,0-0.326-0.058-0.444-0.174C205.525,240.762,205.466,240.586,205.466,240.348z M206.608,249.191h-1.054v-6.957h1.054
			V249.191z" />
			<path class="st4" d="M214.537,242.234v0.667l-1.289,0.152c0.119,0.148,0.224,0.342,0.317,0.581c0.093,0.239,0.14,0.509,0.14,0.809
			c0,0.681-0.233,1.225-0.698,1.631s-1.104,0.609-1.917,0.609c-0.208,0-0.402-0.017-0.584-0.051
			c-0.449,0.237-0.673,0.535-0.673,0.895c0,0.19,0.078,0.331,0.235,0.422c0.157,0.091,0.425,0.136,0.806,0.136h1.231
			c0.753,0,1.332,0.159,1.736,0.476c0.404,0.317,0.606,0.778,0.606,1.384c0,0.771-0.309,1.357-0.927,1.762
			c-0.618,0.404-1.519,0.606-2.704,0.606c-0.91,0-1.611-0.169-2.104-0.508c-0.493-0.338-0.74-0.817-0.74-1.435
			c0-0.423,0.135-0.79,0.406-1.098s0.652-0.519,1.143-0.628c-0.178-0.081-0.327-0.206-0.448-0.375
			c-0.12-0.169-0.181-0.366-0.181-0.59c0-0.254,0.068-0.476,0.203-0.667s0.349-0.375,0.641-0.552c-0.36-0.148-0.653-0.4-0.879-0.755
			c-0.226-0.355-0.339-0.762-0.339-1.219c0-0.762,0.229-1.349,0.686-1.762c0.457-0.412,1.104-0.619,1.942-0.619
			c0.364,0,0.692,0.042,0.984,0.127H214.537z M208.989,250.359c0,0.376,0.159,0.663,0.476,0.857s0.772,0.292,1.365,0.292
			c0.884,0,1.54-0.132,1.964-0.396c0.426-0.265,0.638-0.623,0.638-1.076c0-0.377-0.116-0.638-0.349-0.784
			c-0.233-0.146-0.671-0.219-1.314-0.219h-1.263c-0.478,0-0.851,0.114-1.117,0.343S208.989,249.931,208.989,250.359z
			 M209.56,244.462c0,0.486,0.138,0.854,0.413,1.104s0.658,0.375,1.149,0.375c1.028,0,1.542-0.5,1.542-1.498
			c0-1.045-0.521-1.568-1.562-1.568c-0.495,0-0.876,0.133-1.143,0.4S209.56,243.937,209.56,244.462z" />
			<path class="st4" d="M218.904,249.318c-1.028,0-1.84-0.313-2.434-0.939c-0.595-0.626-0.892-1.496-0.892-2.609
			c0-1.121,0.276-2.012,0.829-2.672c0.552-0.66,1.293-0.99,2.225-0.99c0.872,0,1.562,0.287,2.069,0.86
			c0.508,0.574,0.762,1.33,0.762,2.27v0.667h-4.792c0.021,0.817,0.228,1.437,0.619,1.86c0.392,0.423,0.943,0.635,1.654,0.635
			c0.749,0,1.49-0.156,2.222-0.47v0.939c-0.373,0.161-0.725,0.276-1.057,0.346C219.774,249.283,219.374,249.318,218.904,249.318z
			 M218.618,242.989c-0.559,0-1.004,0.182-1.336,0.546c-0.333,0.364-0.528,0.867-0.587,1.511h3.637c0-0.664-0.148-1.173-0.444-1.526
			C219.591,243.166,219.168,242.989,218.618,242.989z" />
			<path class="st4" d="M227.746,247.293c0,0.647-0.241,1.146-0.724,1.498s-1.16,0.527-2.031,0.527c-0.922,0-1.642-0.146-2.158-0.438
			v-0.978c0.334,0.169,0.693,0.303,1.076,0.4c0.383,0.097,0.752,0.146,1.108,0.146c0.55,0,0.973-0.088,1.27-0.264
			c0.296-0.175,0.444-0.443,0.444-0.803c0-0.271-0.118-0.502-0.352-0.695c-0.235-0.192-0.693-0.42-1.375-0.682
			c-0.647-0.241-1.108-0.452-1.38-0.631c-0.273-0.18-0.477-0.384-0.609-0.613c-0.134-0.229-0.2-0.501-0.2-0.819
			c0-0.567,0.23-1.015,0.692-1.343c0.461-0.328,1.094-0.492,1.898-0.492c0.749,0,1.481,0.152,2.196,0.457l-0.375,0.857
			c-0.698-0.288-1.331-0.432-1.898-0.432c-0.5,0-0.876,0.078-1.13,0.235s-0.381,0.373-0.381,0.647c0,0.186,0.048,0.345,0.143,0.476
			c0.096,0.131,0.249,0.256,0.46,0.375s0.618,0.29,1.219,0.514c0.825,0.301,1.383,0.603,1.672,0.908
			C227.601,246.448,227.746,246.832,227.746,247.293z" />
			<path class="st4" d="M234.075,245.331v3.859h-1.079v-9.28h2.545c1.138,0,1.979,0.218,2.523,0.654
			c0.543,0.436,0.815,1.092,0.815,1.968c0,1.228-0.622,2.057-1.866,2.488l2.52,4.17h-1.276l-2.247-3.859H234.075z M234.075,244.404
			h1.479c0.762,0,1.32-0.151,1.676-0.454c0.355-0.303,0.533-0.757,0.533-1.362c0-0.614-0.181-1.056-0.543-1.327
			c-0.361-0.271-0.942-0.406-1.742-0.406h-1.403V244.404z" />
			<path class="st4" d="M240.784,240.348c0-0.241,0.059-0.418,0.178-0.53c0.119-0.112,0.267-0.168,0.444-0.168
			c0.169,0,0.315,0.057,0.438,0.171s0.184,0.29,0.184,0.527s-0.062,0.414-0.184,0.53c-0.123,0.116-0.269,0.174-0.438,0.174
			c-0.178,0-0.326-0.058-0.444-0.174C240.843,240.762,240.784,240.586,240.784,240.348z M241.927,249.191h-1.054v-6.957h1.054
			V249.191z" />
			<path class="st4" d="M248.649,247.293c0,0.647-0.241,1.146-0.724,1.498s-1.16,0.527-2.031,0.527c-0.922,0-1.642-0.146-2.158-0.438
			v-0.978c0.334,0.169,0.693,0.303,1.076,0.4c0.383,0.097,0.752,0.146,1.108,0.146c0.55,0,0.973-0.088,1.27-0.264
			c0.296-0.175,0.444-0.443,0.444-0.803c0-0.271-0.118-0.502-0.352-0.695c-0.235-0.192-0.693-0.42-1.375-0.682
			c-0.647-0.241-1.108-0.452-1.38-0.631c-0.273-0.18-0.477-0.384-0.609-0.613c-0.134-0.229-0.2-0.501-0.2-0.819
			c0-0.567,0.23-1.015,0.692-1.343c0.461-0.328,1.094-0.492,1.898-0.492c0.749,0,1.481,0.152,2.196,0.457l-0.375,0.857
			c-0.698-0.288-1.331-0.432-1.898-0.432c-0.5,0-0.876,0.078-1.13,0.235s-0.381,0.373-0.381,0.647c0,0.186,0.048,0.345,0.143,0.476
			c0.096,0.131,0.249,0.256,0.46,0.375s0.618,0.29,1.219,0.514c0.825,0.301,1.383,0.603,1.672,0.908
			C248.504,246.448,248.649,246.832,248.649,247.293z" />
			<path class="st4" d="M250.274,240.348c0-0.241,0.059-0.418,0.178-0.53c0.119-0.112,0.267-0.168,0.444-0.168
			c0.169,0,0.315,0.057,0.438,0.171s0.184,0.29,0.184,0.527s-0.062,0.414-0.184,0.53c-0.123,0.116-0.269,0.174-0.438,0.174
			c-0.178,0-0.326-0.058-0.444-0.174C250.333,240.762,250.274,240.586,250.274,240.348z M251.417,249.191h-1.054v-6.957h1.054
			V249.191z" />
			<path class="st4" d="M254.692,245.63c0.182-0.258,0.459-0.597,0.832-1.016l2.247-2.38h1.25l-2.818,2.964l3.015,3.993h-1.276
			l-2.457-3.288l-0.793,0.686v2.603h-1.041v-9.877h1.041v5.237c0,0.232-0.017,0.593-0.051,1.079H254.692z" />
			<path class="st4" d="M266.479,245.706c0,1.134-0.286,2.02-0.857,2.656c-0.571,0.637-1.36,0.956-2.368,0.956
			c-0.622,0-1.174-0.146-1.657-0.438s-0.855-0.711-1.117-1.257s-0.394-1.185-0.394-1.917c0-1.134,0.284-2.018,0.851-2.65
			c0.567-0.632,1.354-0.949,2.361-0.949c0.973,0,1.747,0.324,2.32,0.971C266.193,243.725,266.479,244.601,266.479,245.706z
			 M261.179,245.706c0,0.889,0.178,1.565,0.533,2.031s0.878,0.698,1.568,0.698s1.213-0.231,1.571-0.695
			c0.357-0.463,0.536-1.142,0.536-2.034c0-0.885-0.179-1.556-0.536-2.016c-0.358-0.459-0.886-0.688-1.584-0.688
			c-0.69,0-1.21,0.227-1.562,0.679S261.179,244.808,261.179,245.706z" />
		</g>
		<g>
			<path class="st4" d="M293.761,22.515c0,0.974-0.353,1.733-1.06,2.278s-1.665,0.817-2.876,0.817c-1.312,0-2.321-0.169-3.027-0.507
			v-1.241c0.454,0.192,0.949,0.343,1.483,0.454c0.535,0.111,1.064,0.167,1.589,0.167c0.858,0,1.503-0.163,1.938-0.488
			c0.434-0.326,0.651-0.778,0.651-1.358c0-0.384-0.077-0.698-0.231-0.942s-0.411-0.471-0.772-0.678
			c-0.361-0.207-0.909-0.441-1.646-0.704c-1.029-0.368-1.765-0.805-2.206-1.309c-0.442-0.505-0.662-1.163-0.662-1.976
			c0-0.853,0.32-1.531,0.961-2.036c0.641-0.504,1.488-0.757,2.543-0.757c1.1,0,2.111,0.202,3.035,0.605l-0.401,1.12
			c-0.913-0.383-1.801-0.575-2.664-0.575c-0.681,0-1.213,0.146-1.597,0.439c-0.384,0.292-0.575,0.699-0.575,1.218
			c0,0.383,0.07,0.698,0.212,0.942c0.141,0.245,0.379,0.469,0.715,0.673c0.335,0.205,0.849,0.43,1.54,0.678
			c1.161,0.414,1.959,0.857,2.396,1.332C293.543,21.143,293.761,21.758,293.761,22.515z" />
			<path class="st4" d="M295.729,14.917c0-0.288,0.071-0.499,0.212-0.632c0.141-0.133,0.318-0.201,0.53-0.201
			c0.202,0,0.376,0.068,0.522,0.205c0.146,0.136,0.219,0.346,0.219,0.628c0,0.282-0.073,0.493-0.219,0.632
			c-0.146,0.139-0.321,0.208-0.522,0.208c-0.212,0-0.389-0.069-0.53-0.208S295.729,15.199,295.729,14.917z M297.091,25.459h-1.256
			v-8.295h1.256V25.459z" />
			<path class="st4" d="M305.432,25.459v-5.366c0-0.676-0.154-1.181-0.461-1.514c-0.308-0.333-0.79-0.5-1.446-0.5
			c-0.868,0-1.503,0.235-1.907,0.704s-0.605,1.244-0.605,2.323v4.352h-1.256v-8.295h1.021l0.205,1.135h0.061
			c0.257-0.409,0.618-0.725,1.083-0.95c0.464-0.225,0.981-0.337,1.551-0.337c0.999,0,1.751,0.241,2.255,0.723
			s0.757,1.252,0.757,2.312v5.412H305.432z" />
			<path class="st4" d="M314.915,24.346h-0.068c-0.581,0.843-1.448,1.264-2.604,1.264c-1.085,0-1.929-0.371-2.532-1.113
			c-0.603-0.741-0.905-1.796-0.905-3.163c0-1.368,0.303-2.43,0.908-3.187s1.448-1.135,2.528-1.135c1.125,0,1.988,0.409,2.588,1.226
			h0.099l-0.053-0.598l-0.03-0.583v-3.375h1.256v11.776h-1.021L314.915,24.346z M312.402,24.558c0.858,0,1.479-0.233,1.866-0.7
			c0.386-0.467,0.579-1.22,0.579-2.259v-0.265c0-1.176-0.196-2.015-0.587-2.517s-1.015-0.753-1.873-0.753
			c-0.737,0-1.301,0.286-1.691,0.859c-0.391,0.573-0.587,1.381-0.587,2.425c0,1.06,0.194,1.859,0.583,2.399
			S311.65,24.558,312.402,24.558z" />
			<path class="st4" d="M329.15,25.459h-6.168V14.394h6.168v1.143h-4.882v3.565h4.587v1.135h-4.587v4.072h4.882V25.459z" />
			<path class="st4" d="M331.307,14.917c0-0.288,0.071-0.499,0.212-0.632c0.141-0.133,0.318-0.201,0.53-0.201
			c0.202,0,0.376,0.068,0.522,0.205c0.146,0.136,0.219,0.346,0.219,0.628c0,0.282-0.073,0.493-0.219,0.632
			c-0.146,0.139-0.321,0.208-0.522,0.208c-0.212,0-0.389-0.069-0.53-0.208S331.307,15.199,331.307,14.917z M332.669,25.459h-1.256
			v-8.295h1.256V25.459z" />
			<path class="st4" d="M341.01,25.459v-5.366c0-0.676-0.154-1.181-0.461-1.514c-0.308-0.333-0.79-0.5-1.446-0.5
			c-0.868,0-1.503,0.235-1.907,0.704s-0.605,1.244-0.605,2.323v4.352h-1.256v-8.295h1.021l0.205,1.135h0.061
			c0.257-0.409,0.618-0.725,1.083-0.95c0.464-0.225,0.981-0.337,1.551-0.337c0.999,0,1.751,0.241,2.255,0.723
			s0.757,1.252,0.757,2.312v5.412H341.01z" />
			<path class="st4" d="M346.103,25.459h-1.256V13.683h1.256V25.459z" />
			<path class="st4" d="M353.868,25.459l-0.25-1.181h-0.061c-0.414,0.52-0.827,0.872-1.238,1.056s-0.924,0.276-1.54,0.276
			c-0.822,0-1.467-0.212-1.934-0.636c-0.467-0.424-0.7-1.027-0.7-1.809c0-1.675,1.339-2.553,4.019-2.634l1.407-0.045v-0.515
			c0-0.651-0.14-1.132-0.42-1.442c-0.28-0.311-0.728-0.465-1.343-0.465c-0.691,0-1.473,0.212-2.346,0.636l-0.386-0.961
			c0.408-0.222,0.856-0.396,1.343-0.522c0.487-0.126,0.975-0.189,1.464-0.189c0.989,0,1.722,0.22,2.199,0.658
			c0.477,0.439,0.715,1.143,0.715,2.112v5.661H353.868z M351.03,24.574c0.782,0,1.396-0.215,1.843-0.644
			c0.446-0.429,0.669-1.029,0.669-1.801v-0.75l-1.256,0.053c-0.999,0.036-1.72,0.19-2.161,0.465
			c-0.441,0.275-0.662,0.703-0.662,1.283c0,0.454,0.137,0.8,0.413,1.037C350.151,24.455,350.536,24.574,351.03,24.574z" />
			<path class="st4" d="M364.177,17.164v0.794l-1.537,0.182c0.141,0.177,0.268,0.408,0.378,0.693s0.167,0.607,0.167,0.965
			c0,0.812-0.277,1.46-0.833,1.945s-1.317,0.727-2.286,0.727c-0.247,0-0.479-0.02-0.696-0.061c-0.535,0.283-0.802,0.639-0.802,1.067
			c0,0.227,0.093,0.395,0.28,0.503c0.187,0.108,0.507,0.163,0.961,0.163h1.468c0.898,0,1.588,0.189,2.07,0.567
			c0.482,0.379,0.723,0.929,0.723,1.65c0,0.918-0.368,1.618-1.104,2.1c-0.737,0.482-1.812,0.723-3.225,0.723
			c-1.084,0-1.921-0.202-2.509-0.605s-0.882-0.974-0.882-1.71c0-0.505,0.162-0.941,0.484-1.31c0.323-0.368,0.777-0.618,1.362-0.749
			c-0.212-0.096-0.39-0.245-0.533-0.446c-0.144-0.202-0.216-0.437-0.216-0.704c0-0.303,0.081-0.567,0.242-0.795
			c0.162-0.227,0.416-0.446,0.765-0.658c-0.429-0.177-0.779-0.477-1.048-0.9c-0.27-0.424-0.405-0.908-0.405-1.453
			c0-0.908,0.272-1.608,0.817-2.101c0.545-0.492,1.316-0.738,2.315-0.738c0.434,0,0.825,0.05,1.173,0.151H364.177z M357.562,26.852
			c0,0.449,0.189,0.79,0.568,1.022c0.378,0.232,0.921,0.348,1.627,0.348c1.054,0,1.835-0.157,2.342-0.473
			c0.507-0.315,0.76-0.743,0.76-1.283c0-0.449-0.139-0.76-0.416-0.935c-0.277-0.174-0.8-0.261-1.566-0.261h-1.506
			c-0.57,0-1.014,0.136-1.332,0.408S357.562,26.342,357.562,26.852z M358.243,19.821c0,0.58,0.164,1.019,0.492,1.316
			c0.328,0.298,0.785,0.447,1.37,0.447c1.227,0,1.839-0.595,1.839-1.786c0-1.246-0.621-1.87-1.862-1.87
			c-0.59,0-1.044,0.159-1.362,0.477S358.243,19.195,358.243,19.821z" />
			<path class="st4" d="M369.383,25.611c-1.226,0-2.193-0.374-2.902-1.12s-1.063-1.784-1.063-3.111c0-1.337,0.33-2.399,0.988-3.186
			c0.659-0.787,1.543-1.181,2.653-1.181c1.04,0,1.862,0.342,2.467,1.025c0.605,0.684,0.908,1.585,0.908,2.706v0.795h-5.714
			c0.025,0.974,0.271,1.713,0.738,2.218c0.466,0.504,1.124,0.757,1.972,0.757c0.893,0,1.776-0.187,2.648-0.561v1.12
			c-0.444,0.192-0.864,0.33-1.26,0.413C370.421,25.569,369.944,25.611,369.383,25.611z M369.043,18.065
			c-0.666,0-1.197,0.217-1.593,0.65c-0.396,0.434-0.629,1.035-0.7,1.802h4.337c0-0.792-0.177-1.399-0.53-1.82
			S369.699,18.065,369.043,18.065z" />
			<path class="st4" d="M380.251,25.459v-5.366c0-0.676-0.153-1.181-0.461-1.514c-0.309-0.333-0.79-0.5-1.446-0.5
			c-0.867,0-1.503,0.235-1.907,0.704c-0.403,0.469-0.605,1.244-0.605,2.323v4.352h-1.256v-8.295h1.021l0.205,1.135h0.061
			c0.257-0.409,0.618-0.725,1.083-0.95c0.464-0.225,0.98-0.337,1.551-0.337c0.999,0,1.751,0.241,2.256,0.723
			c0.504,0.482,0.757,1.252,0.757,2.312v5.412H380.251z" />
			<path class="st4" d="M394.904,17.164v0.794l-1.537,0.182c0.142,0.177,0.268,0.408,0.379,0.693c0.11,0.285,0.166,0.607,0.166,0.965
			c0,0.812-0.277,1.46-0.832,1.945c-0.556,0.484-1.317,0.727-2.286,0.727c-0.247,0-0.479-0.02-0.696-0.061
			c-0.534,0.283-0.802,0.639-0.802,1.067c0,0.227,0.093,0.395,0.28,0.503c0.187,0.108,0.507,0.163,0.961,0.163h1.468
			c0.898,0,1.588,0.189,2.07,0.567c0.481,0.379,0.723,0.929,0.723,1.65c0,0.918-0.368,1.618-1.104,2.1
			c-0.737,0.482-1.812,0.723-3.225,0.723c-1.085,0-1.921-0.202-2.509-0.605s-0.882-0.974-0.882-1.71c0-0.505,0.161-0.941,0.484-1.31
			c0.323-0.368,0.777-0.618,1.362-0.749c-0.212-0.096-0.39-0.245-0.533-0.446c-0.145-0.202-0.216-0.437-0.216-0.704
			c0-0.303,0.08-0.567,0.242-0.795c0.161-0.227,0.416-0.446,0.765-0.658c-0.43-0.177-0.779-0.477-1.049-0.9
			s-0.404-0.908-0.404-1.453c0-0.908,0.272-1.608,0.817-2.101c0.545-0.492,1.316-0.738,2.315-0.738c0.434,0,0.825,0.05,1.173,0.151
			H394.904z M388.289,26.852c0,0.449,0.189,0.79,0.567,1.022c0.379,0.232,0.921,0.348,1.628,0.348c1.054,0,1.835-0.157,2.342-0.473
			s0.761-0.743,0.761-1.283c0-0.449-0.139-0.76-0.416-0.935c-0.277-0.174-0.8-0.261-1.566-0.261h-1.507
			c-0.57,0-1.014,0.136-1.332,0.408C388.448,25.951,388.289,26.342,388.289,26.852z M388.971,19.821c0,0.58,0.163,1.019,0.491,1.316
			c0.328,0.298,0.785,0.447,1.37,0.447c1.227,0,1.839-0.595,1.839-1.786c0-1.246-0.62-1.87-1.861-1.87
			c-0.591,0-1.045,0.159-1.362,0.477C389.129,18.723,388.971,19.195,388.971,19.821z" />
			<path class="st4" d="M400.11,25.611c-1.226,0-2.193-0.374-2.902-1.12s-1.063-1.784-1.063-3.111c0-1.337,0.33-2.399,0.988-3.186
			s1.543-1.181,2.652-1.181c1.04,0,1.862,0.342,2.468,1.025c0.605,0.684,0.908,1.585,0.908,2.706v0.795h-5.715
			c0.025,0.974,0.271,1.713,0.738,2.218c0.467,0.504,1.124,0.757,1.972,0.757c0.893,0,1.776-0.187,2.648-0.561v1.12
			c-0.443,0.192-0.863,0.33-1.26,0.413C401.148,25.569,400.671,25.611,400.11,25.611z M399.771,18.065
			c-0.666,0-1.197,0.217-1.594,0.65c-0.396,0.434-0.629,1.035-0.7,1.802h4.337c0-0.792-0.177-1.399-0.529-1.82
			C400.931,18.276,400.426,18.065,399.771,18.065z" />
			<path class="st4" d="M409.041,18.14h-2.111v7.319h-1.256V18.14h-1.483v-0.567l1.483-0.454v-0.462c0-2.038,0.89-3.058,2.671-3.058
			c0.439,0,0.954,0.089,1.544,0.265l-0.325,1.006c-0.484-0.156-0.898-0.234-1.241-0.234c-0.475,0-0.825,0.158-1.052,0.473
			c-0.228,0.315-0.341,0.821-0.341,1.517v0.538h2.111V18.14z" />
			<path class="st4" d="M415.656,25.459l-0.25-1.181h-0.061c-0.414,0.52-0.826,0.872-1.237,1.056s-0.925,0.276-1.54,0.276
			c-0.822,0-1.468-0.212-1.934-0.636c-0.467-0.424-0.7-1.027-0.7-1.809c0-1.675,1.339-2.553,4.019-2.634l1.407-0.045v-0.515
			c0-0.651-0.14-1.132-0.42-1.442c-0.279-0.311-0.728-0.465-1.343-0.465c-0.691,0-1.474,0.212-2.347,0.636l-0.386-0.961
			c0.408-0.222,0.856-0.396,1.344-0.522c0.486-0.126,0.975-0.189,1.464-0.189c0.989,0,1.722,0.22,2.199,0.658
			c0.477,0.439,0.715,1.143,0.715,2.112v5.661H415.656z M412.817,24.574c0.782,0,1.396-0.215,1.844-0.644
			c0.446-0.429,0.669-1.029,0.669-1.801v-0.75l-1.256,0.053c-0.999,0.036-1.72,0.19-2.161,0.465
			c-0.441,0.275-0.662,0.703-0.662,1.283c0,0.454,0.138,0.8,0.413,1.037C411.938,24.455,412.323,24.574,412.817,24.574z
			 M411.334,14.917c0-0.263,0.067-0.452,0.201-0.568c0.134-0.116,0.294-0.174,0.48-0.174c0.191,0,0.356,0.059,0.496,0.174
			c0.139,0.116,0.208,0.305,0.208,0.568c0,0.252-0.069,0.44-0.208,0.563c-0.14,0.124-0.305,0.186-0.496,0.186
			c-0.187,0-0.347-0.062-0.48-0.186C411.401,15.357,411.334,15.169,411.334,14.917z M414.218,14.917
			c0-0.263,0.067-0.452,0.201-0.568c0.133-0.116,0.294-0.174,0.48-0.174s0.349,0.059,0.488,0.174
			c0.139,0.116,0.208,0.305,0.208,0.568c0,0.252-0.069,0.44-0.208,0.563c-0.14,0.124-0.302,0.186-0.488,0.186
			s-0.348-0.062-0.48-0.186C414.285,15.357,414.218,15.169,414.218,14.917z" />
			<path class="st4" d="M424.852,25.459v-5.366c0-0.676-0.153-1.181-0.461-1.514c-0.309-0.333-0.79-0.5-1.446-0.5
			c-0.873,0-1.51,0.237-1.911,0.712c-0.4,0.474-0.602,1.251-0.602,2.331v4.336h-1.256V13.683h1.256v3.565
			c0,0.429-0.02,0.784-0.061,1.067h0.076c0.247-0.398,0.599-0.712,1.056-0.942c0.456-0.229,0.978-0.344,1.562-0.344
			c1.015,0,1.775,0.241,2.282,0.723c0.507,0.482,0.761,1.248,0.761,2.297v5.412H424.852z" />
			<path class="st4" d="M432.474,17.013c0.368,0,0.698,0.03,0.991,0.091l-0.174,1.166c-0.344-0.076-0.646-0.113-0.908-0.113
			c-0.671,0-1.245,0.272-1.722,0.817c-0.478,0.545-0.716,1.224-0.716,2.036v4.45h-1.256v-8.295h1.037l0.144,1.537h0.061
			c0.308-0.54,0.679-0.956,1.112-1.249C431.477,17.159,431.954,17.013,432.474,17.013z" />
			<path class="st4" d="M440.662,24.346h-0.067c-0.581,0.843-1.448,1.264-2.604,1.264c-1.085,0-1.93-0.371-2.532-1.113
			c-0.603-0.741-0.904-1.796-0.904-3.163c0-1.368,0.303-2.43,0.908-3.187s1.448-1.135,2.528-1.135c1.125,0,1.987,0.409,2.588,1.226
			h0.099l-0.053-0.598l-0.03-0.583v-3.375h1.256v11.776h-1.021L440.662,24.346z M438.149,24.558c0.858,0,1.479-0.233,1.866-0.7
			c0.386-0.467,0.579-1.22,0.579-2.259v-0.265c0-1.176-0.196-2.015-0.587-2.517c-0.392-0.502-1.016-0.753-1.873-0.753
			c-0.737,0-1.301,0.286-1.691,0.859c-0.392,0.573-0.587,1.381-0.587,2.425c0,1.06,0.194,1.859,0.583,2.399
			S437.397,24.558,438.149,24.558z" />
			<path class="st4" d="M448.019,25.611c-1.226,0-2.193-0.374-2.902-1.12s-1.063-1.784-1.063-3.111c0-1.337,0.329-2.399,0.987-3.186
			c0.659-0.787,1.543-1.181,2.653-1.181c1.039,0,1.861,0.342,2.467,1.025c0.605,0.684,0.908,1.585,0.908,2.706v0.795h-5.714
			c0.025,0.974,0.271,1.713,0.738,2.218c0.466,0.504,1.124,0.757,1.972,0.757c0.893,0,1.775-0.187,2.648-0.561v1.12
			c-0.444,0.192-0.864,0.33-1.26,0.413C449.057,25.569,448.579,25.611,448.019,25.611z M447.678,18.065
			c-0.666,0-1.197,0.217-1.593,0.65c-0.396,0.434-0.63,1.035-0.7,1.802h4.337c0-0.792-0.177-1.399-0.53-1.82
			C448.839,18.276,448.334,18.065,447.678,18.065z" />
			<path class="st4" d="M455.89,24.574c0.223,0,0.437-0.017,0.644-0.049s0.371-0.067,0.492-0.102v0.961
			c-0.137,0.065-0.337,0.12-0.602,0.163c-0.266,0.043-0.504,0.064-0.716,0.064c-1.604,0-2.406-0.845-2.406-2.536V18.14h-1.188
			v-0.605l1.188-0.522l0.529-1.771h0.727v1.922h2.407v0.976h-2.407v4.882c0,0.5,0.119,0.883,0.356,1.15
			C455.15,24.44,455.477,24.574,455.89,24.574z" />
			<path class="st4" d="M459.538,22.409v-0.408c0-0.591,0.091-1.076,0.272-1.457s0.52-0.783,1.014-1.207
			c0.687-0.581,1.119-1.017,1.298-1.31c0.18-0.292,0.27-0.646,0.27-1.06c0-0.515-0.166-0.912-0.496-1.192
			c-0.331-0.28-0.807-0.42-1.427-0.42c-0.398,0-0.787,0.047-1.166,0.14c-0.378,0.093-0.812,0.264-1.302,0.511l-0.446-1.022
			c0.954-0.5,1.95-0.75,2.989-0.75c0.964,0,1.714,0.237,2.248,0.712c0.535,0.474,0.803,1.143,0.803,2.005
			c0,0.369-0.05,0.692-0.147,0.973c-0.099,0.28-0.244,0.545-0.436,0.794c-0.191,0.25-0.605,0.652-1.241,1.207
			c-0.51,0.434-0.847,0.795-1.011,1.083s-0.245,0.671-0.245,1.15v0.25H459.538z M459.167,24.657c0-0.686,0.303-1.029,0.908-1.029
			c0.293,0,0.519,0.088,0.678,0.265c0.158,0.177,0.238,0.432,0.238,0.765c0,0.323-0.081,0.574-0.242,0.753
			c-0.162,0.179-0.387,0.269-0.674,0.269c-0.263,0-0.479-0.079-0.65-0.238C459.253,25.281,459.167,25.02,459.167,24.657z" />
		</g>
		<g>
			<path class="st4" d="M498.161,248.677v-4.5c0-0.567-0.129-0.99-0.388-1.27c-0.258-0.279-0.662-0.419-1.212-0.419
			c-0.732,0-1.267,0.199-1.603,0.597c-0.337,0.397-0.505,1.05-0.505,1.955v3.637H493.4V238.8h1.054v2.99
			c0,0.359-0.017,0.658-0.051,0.895h0.063c0.207-0.334,0.503-0.598,0.886-0.791c0.383-0.192,0.819-0.289,1.311-0.289
			c0.851,0,1.488,0.202,1.914,0.606c0.425,0.404,0.638,1.047,0.638,1.927v4.539H498.161z" />
			<path class="st4" d="M507.385,245.192c0,1.134-0.286,2.02-0.856,2.656c-0.572,0.637-1.361,0.956-2.368,0.956
			c-0.622,0-1.175-0.146-1.657-0.438s-0.854-0.711-1.117-1.257c-0.262-0.546-0.393-1.185-0.393-1.917c0-1.134,0.283-2.018,0.85-2.65
			c0.567-0.632,1.354-0.949,2.361-0.949c0.974,0,1.747,0.324,2.32,0.971S507.385,244.088,507.385,245.192z M502.085,245.192
			c0,0.889,0.178,1.565,0.533,2.031s0.878,0.698,1.567,0.698s1.214-0.231,1.571-0.695c0.357-0.463,0.536-1.142,0.536-2.034
			c0-0.885-0.179-1.556-0.536-2.016c-0.357-0.459-0.886-0.688-1.584-0.688c-0.689,0-1.21,0.227-1.562,0.679
			S502.085,244.295,502.085,245.192z" />
			<path class="st4" d="M513.992,248.677v-4.5c0-0.567-0.129-0.99-0.388-1.27c-0.258-0.279-0.662-0.419-1.212-0.419
			c-0.732,0-1.267,0.199-1.603,0.597c-0.337,0.397-0.505,1.05-0.505,1.955v3.637h-1.054V238.8h1.054v2.99
			c0,0.359-0.017,0.658-0.051,0.895h0.063c0.207-0.334,0.503-0.598,0.886-0.791c0.383-0.192,0.819-0.289,1.311-0.289
			c0.851,0,1.488,0.202,1.914,0.606c0.425,0.404,0.638,1.047,0.638,1.927v4.539H513.992z" />
			<path class="st4" d="M520.149,248.804c-1.029,0-1.84-0.313-2.435-0.939s-0.892-1.496-0.892-2.609c0-1.121,0.275-2.012,0.828-2.672
			c0.552-0.66,1.294-0.99,2.225-0.99c0.872,0,1.562,0.287,2.069,0.86c0.508,0.574,0.762,1.33,0.762,2.27v0.667h-4.792
			c0.021,0.817,0.227,1.437,0.618,1.86s0.942,0.635,1.653,0.635c0.75,0,1.49-0.156,2.223-0.47v0.939
			c-0.373,0.161-0.726,0.276-1.058,0.346C521.02,248.769,520.618,248.804,520.149,248.804z M519.863,242.475
			c-0.559,0-1.004,0.182-1.336,0.546s-0.528,0.867-0.587,1.511h3.637c0-0.664-0.148-1.173-0.444-1.526
			C520.837,242.652,520.413,242.475,519.863,242.475z" />
			<path class="st4" d="M528.991,246.779c0,0.647-0.242,1.146-0.725,1.498s-1.159,0.527-2.031,0.527
			c-0.922,0-1.642-0.146-2.158-0.438v-0.978c0.335,0.169,0.693,0.303,1.076,0.4s0.752,0.146,1.107,0.146
			c0.551,0,0.974-0.088,1.27-0.264c0.297-0.175,0.445-0.443,0.445-0.803c0-0.271-0.118-0.502-0.353-0.695
			c-0.235-0.192-0.693-0.42-1.374-0.682c-0.648-0.241-1.108-0.452-1.381-0.631c-0.273-0.18-0.477-0.384-0.609-0.613
			c-0.134-0.229-0.2-0.501-0.2-0.819c0-0.567,0.23-1.015,0.692-1.343c0.461-0.328,1.094-0.492,1.897-0.492
			c0.749,0,1.481,0.152,2.196,0.457l-0.375,0.857c-0.697-0.288-1.33-0.432-1.897-0.432c-0.499,0-0.876,0.078-1.13,0.235
			s-0.381,0.373-0.381,0.647c0,0.186,0.048,0.345,0.143,0.476c0.096,0.131,0.249,0.256,0.461,0.375
			c0.211,0.119,0.617,0.29,1.219,0.514c0.824,0.301,1.382,0.603,1.672,0.908S528.991,246.318,528.991,246.779z" />
			<path class="st4" d="M535.319,244.818v3.859h-1.08v-9.28h2.546c1.139,0,1.979,0.218,2.523,0.654s0.815,1.092,0.815,1.968
			c0,1.228-0.622,2.057-1.866,2.488l2.521,4.17h-1.276l-2.247-3.859H535.319z M535.319,243.891h1.479
			c0.762,0,1.32-0.151,1.676-0.454c0.355-0.303,0.533-0.757,0.533-1.362c0-0.614-0.181-1.056-0.543-1.327
			c-0.361-0.271-0.942-0.406-1.742-0.406h-1.402V243.891z" />
			<path class="st4" d="M542.028,239.835c0-0.241,0.06-0.418,0.178-0.53c0.118-0.112,0.267-0.168,0.444-0.168
			c0.169,0,0.315,0.057,0.438,0.171c0.123,0.114,0.185,0.29,0.185,0.527s-0.062,0.414-0.185,0.53
			c-0.122,0.116-0.269,0.174-0.438,0.174c-0.178,0-0.326-0.058-0.444-0.174C542.088,240.248,542.028,240.072,542.028,239.835z
			 M543.171,248.677h-1.054v-6.957h1.054V248.677z" />
			<path class="st4" d="M549.894,246.779c0,0.647-0.242,1.146-0.725,1.498s-1.159,0.527-2.031,0.527
			c-0.922,0-1.642-0.146-2.158-0.438v-0.978c0.335,0.169,0.693,0.303,1.076,0.4s0.752,0.146,1.107,0.146
			c0.551,0,0.974-0.088,1.27-0.264c0.297-0.175,0.445-0.443,0.445-0.803c0-0.271-0.118-0.502-0.353-0.695
			c-0.235-0.192-0.693-0.42-1.374-0.682c-0.648-0.241-1.108-0.452-1.381-0.631c-0.273-0.18-0.477-0.384-0.609-0.613
			c-0.134-0.229-0.2-0.501-0.2-0.819c0-0.567,0.23-1.015,0.692-1.343c0.461-0.328,1.094-0.492,1.897-0.492
			c0.749,0,1.481,0.152,2.196,0.457l-0.375,0.857c-0.697-0.288-1.33-0.432-1.897-0.432c-0.499,0-0.876,0.078-1.13,0.235
			s-0.381,0.373-0.381,0.647c0,0.186,0.048,0.345,0.143,0.476c0.096,0.131,0.249,0.256,0.461,0.375
			c0.211,0.119,0.617,0.29,1.219,0.514c0.824,0.301,1.382,0.603,1.672,0.908S549.894,246.318,549.894,246.779z" />
			<path class="st4" d="M551.518,239.835c0-0.241,0.06-0.418,0.178-0.53c0.118-0.112,0.267-0.168,0.444-0.168
			c0.169,0,0.315,0.057,0.438,0.171c0.123,0.114,0.185,0.29,0.185,0.527s-0.062,0.414-0.185,0.53
			c-0.122,0.116-0.269,0.174-0.438,0.174c-0.178,0-0.326-0.058-0.444-0.174C551.577,240.248,551.518,240.072,551.518,239.835z
			 M552.66,248.677h-1.054v-6.957h1.054V248.677z" />
			<path class="st4" d="M555.936,245.116c0.182-0.258,0.459-0.597,0.832-1.016l2.246-2.38h1.251l-2.818,2.964l3.015,3.993h-1.275
			l-2.457-3.288l-0.793,0.686v2.603h-1.041V238.8h1.041v5.237c0,0.232-0.017,0.593-0.051,1.079H555.936z" />
			<path class="st4" d="M567.723,245.192c0,1.134-0.286,2.02-0.856,2.656c-0.572,0.637-1.361,0.956-2.368,0.956
			c-0.622,0-1.175-0.146-1.657-0.438s-0.854-0.711-1.117-1.257c-0.262-0.546-0.393-1.185-0.393-1.917c0-1.134,0.283-2.018,0.85-2.65
			c0.567-0.632,1.354-0.949,2.361-0.949c0.974,0,1.747,0.324,2.32,0.971S567.723,244.088,567.723,245.192z M562.423,245.192
			c0,0.889,0.178,1.565,0.533,2.031s0.878,0.698,1.567,0.698s1.214-0.231,1.571-0.695c0.357-0.463,0.536-1.142,0.536-2.034
			c0-0.885-0.179-1.556-0.536-2.016c-0.357-0.459-0.886-0.688-1.584-0.688c-0.689,0-1.21,0.227-1.562,0.679
			S562.423,244.295,562.423,245.192z" />
		</g>
		<path class="st1" d="M438.55,66.837c0,0,12.344,5.17,7.196,15.907s-14.483,26.549-14.483,26.549l5.778,3.005l22.53-40.29
		L438.55,66.837z" />
		<path class="st3" d="M194.872,225.022c0-99.481,80.646-180.129,180.128-180.129c99.483,0,180.129,80.647,180.129,180.129h-51.474
		c0-71.054-57.601-128.653-128.655-128.653c-71.053,0-128.653,57.6-128.653,128.653H194.872z" />
		<line class="st3" x1="437.042" y1="112.298" x2="461.868" y2="67.19" />
		<polygon class="st0" points="173.25,221.615 203.242,207.558 175.599,188.564 	" />
		<path class="st1" d="M176.831,202.017c0.161-0.832,0.37-1.743,1.053-2.243c0.834-0.611,1.996-0.349,2.984-0.043
		c5.911,1.831,11.609,4.345,16.946,7.477c0.832,0.488,1.67,0.997,2.602,1.242c0.933,0.244,2.05-0.316,2.825-0.891
		c-0.34-0.482-2.64-1.814-3.127-2.148c-9.55-6.562-15.629-10.36-24.289-16.713c0.014,1.49,0.028,2.983-0.095,4.468
		c-0.124,1.5-0.386,2.984-0.583,4.475c-0.281,2.128-0.427,4.275-0.439,6.422c-0.004,0.776-1.313,16.583-0.871,17.277
		c0.527,0.826,2.212-15.357,2.305-15.779C176.403,204.387,176.603,203.197,176.831,202.017z" />
		<polygon class="st3" points="173.25,221.615 203.242,207.558 175.599,188.564 	" />
		<line class="st46" x1="271.291" y1="248.675" x2="313" y2="248.675" />
		<line class="st46" x1="92.903" y1="248.675" x2="168.16" y2="248.675" />
		<line class="st46" x1="486.783" y1="248.675" x2="437" y2="248.675" />
		<line class="st46" x1="657.097" y1="248.675" x2="573.919" y2="248.675" />
	</g>
</svg>