      <svg
        height="224"
        viewBox="0 0 231 224"
        width="231"
        xmlns="http://www.w3.org/2000/svg"
      >
        <g fill="none" fill-rule="evenodd">
          <path
            d="M118.602 0C180.344 0 230.47 50.127 230.47 111.868c0 61.74-50.126 111.867-111.868 111.867-61.74 0-111.867-50.126-111.867-111.867C6.735 50.127 56.86 0 118.602 0"
            fill="#e8f0f9"
          ></path>
          <path
            d="M197.887 56.547a4.476 4.476 0 00-4.475-4.475H5.475A4.476 4.476 0 001 56.547v93.969a4.477 4.477 0 004.475 4.474h187.937a4.477 4.477 0 004.475-4.474z"
            fill="#fff"
          ></path>
          <path
            d="M197.887 56.547a4.476 4.476 0 00-4.475-4.475H5.475A4.476 4.476 0 001 56.547v93.969a4.477 4.477 0 004.475 4.474h187.937a4.477 4.477 0 004.475-4.474z"
            stroke="#004b8c"
            stroke-linecap="round"
            stroke-linejoin="round"
            stroke-width="2"
          ></path>
          <path
            d="M46.642 52.967H5.475a3.581 3.581 0 00-3.58 3.58v93.969a3.582 3.582 0 003.58 3.58h41.167z"
            fill="#e8f0f9"
          ></path>
          <path
            d="M21.595 122.905c3.705 0 6.655 1.04 8.849 3.12s3.29 4.93 3.29 8.547c0 4.283-1.319 7.578-3.959 9.885-2.64 2.307-6.415 3.46-11.326 3.46-4.266 0-7.708-.69-10.33-2.07v-7c1.38.733 2.988 1.332 4.824 1.796 1.836.462 3.574.694 5.218.694 4.946 0 7.42-2.028 7.42-6.083 0-3.862-2.562-5.794-7.683-5.794-.926 0-1.949.092-3.068.275-1.118.184-2.028.38-2.726.59l-3.225-1.73 1.442-19.534h20.791v6.87H17.426l-.708 7.524.918-.183c1.066-.244 2.386-.367 3.96-.367M64.883 128.227c0 6.695-1.097 11.65-3.291 14.867-2.193 3.216-5.572 4.824-10.133 4.824-4.423 0-7.757-1.66-10.003-4.982s-3.37-8.223-3.37-14.709c0-6.764 1.093-11.75 3.279-14.957 2.184-3.207 5.55-4.811 10.094-4.811 4.422 0 7.765 1.678 10.028 5.034s3.396 8.267 3.396 14.734zm-18.747 0c0 4.702.407 8.072 1.22 10.108.812 2.037 2.18 3.055 4.103 3.055 1.887 0 3.25-1.032 4.09-3.095.839-2.062 1.258-5.418 1.258-10.068 0-4.7-.424-8.08-1.272-10.133-.847-2.054-2.206-3.08-4.076-3.08-1.906 0-3.27 1.026-4.09 3.08-.822 2.054-1.233 5.432-1.233 10.133zM92.408 115.276c-2.133 0-3.89.615-5.27 1.848-1.382 1.232-2.273 3.02-2.675 5.361H95.03v4.616h-10.96l-.052.917v1.232l.052.866h9.309v4.667h-8.863c.891 4.247 3.697 6.37 8.417 6.37 2.5 0 4.902-.498 7.21-1.494v6.712c-2.027 1.031-4.589 1.547-7.683 1.547-4.282 0-7.803-1.162-10.565-3.487-2.762-2.325-4.502-5.54-5.218-9.648h-3.592v-4.667h3.094c-.07-.402-.105-.945-.105-1.627l.052-1.388h-3.041v-4.616h3.487c.647-4.23 2.386-7.572 5.217-10.028 2.833-2.456 6.372-3.684 10.62-3.684 3.286 0 6.362.717 9.228 2.15l-2.57 6.083a26.22 26.22 0 00-3.381-1.271 11.641 11.641 0 00-3.277-.46"
            fill="#00387b"
          ></path>
          <path
            d="M135.25 75.365c4.94 0 8.873 1.387 11.797 4.16 2.926 2.774 4.388 6.572 4.388 11.397 0 5.71-1.76 10.103-5.279 13.18-3.519 3.075-8.553 4.614-15.102 4.614-5.687 0-10.278-.921-13.773-2.762V96.62c1.84.979 3.985 1.777 6.432 2.395 2.447.617 4.766.926 6.957.926 6.595 0 9.893-2.704 9.893-8.11 0-5.151-3.415-7.726-10.243-7.726-1.235 0-2.599.122-4.09.367-1.492.244-2.704.506-3.636.786l-4.3-2.307 1.923-26.044h27.722v9.16H129.69l-.944 10.032 1.223-.245c1.422-.326 3.182-.49 5.28-.49M192.966 82.462c0 8.926-1.462 15.533-4.387 19.82-2.926 4.29-7.429 6.434-13.512 6.434-5.897 0-10.342-2.214-13.336-6.643-2.996-4.428-4.493-10.965-4.493-19.611 0-9.02 1.457-15.668 4.37-19.944 2.913-4.277 7.4-6.415 13.459-6.415 5.897 0 10.354 2.237 13.371 6.712 3.019 4.475 4.528 11.023 4.528 19.647zm-24.996 0c0 6.269.542 10.761 1.626 13.476 1.084 2.715 2.907 4.073 5.471 4.073 2.517 0 4.335-1.375 5.454-4.125 1.118-2.75 1.678-7.225 1.678-13.424 0-6.27-.566-10.774-1.696-13.512-1.13-2.739-2.943-4.108-5.436-4.108-2.54 0-4.358 1.37-5.454 4.108-1.095 2.738-1.643 7.243-1.643 13.512z"
            fill="#e8f0f9"
          ></path>
          <path
            d="M219.289 77.539a4.476 4.476 0 00-4.475-4.475H26.876a4.477 4.477 0 00-4.474 4.475v93.969a4.477 4.477 0 004.474 4.474h187.938a4.477 4.477 0 004.475-4.474z"
            fill="#fff"
          ></path>
          <path
            d="M219.289 77.539a4.476 4.476 0 00-4.475-4.475H26.876a4.477 4.477 0 00-4.474 4.475v93.969a4.477 4.477 0 004.474 4.474h187.938a4.477 4.477 0 004.475-4.474z"
            stroke="#004b8c"
            stroke-linecap="round"
            stroke-linejoin="round"
            stroke-width="2"
          ></path>
          <path
            d="M68.044 73.959H26.876a3.582 3.582 0 00-3.58 3.58v93.969a3.582 3.582 0 003.58 3.58h41.168z"
            fill="#e8f0f9"
          ></path>
          <path
            d="M42.997 143.897c3.706 0 6.656 1.04 8.85 3.12 2.193 2.08 3.29 4.929 3.29 8.547 0 4.283-1.32 7.578-3.96 9.885-2.64 2.307-6.414 3.46-11.327 3.46-4.264 0-7.708-.69-10.33-2.07v-7c1.38.733 2.99 1.332 4.825 1.796 1.835.462 3.574.694 5.217.694 4.947 0 7.42-2.028 7.42-6.083 0-3.862-2.56-5.795-7.682-5.795-.926 0-1.95.093-3.068.276-1.119.183-2.027.38-2.726.59l-3.225-1.73 1.441-19.533h20.793v6.868H38.828l-.708 7.526.918-.184c1.066-.245 2.386-.367 3.959-.367M86.284 149.22c0 6.694-1.096 11.65-3.29 14.866-2.194 3.216-5.571 4.823-10.134 4.823-4.422 0-7.756-1.66-10.003-4.98-2.245-3.322-3.368-8.224-3.368-14.71 0-6.764 1.093-11.75 3.277-14.957 2.185-3.208 5.55-4.811 10.094-4.811 4.423 0 7.766 1.678 10.029 5.034 2.264 3.356 3.395 8.267 3.395 14.735zm-18.746 0c0 4.701.406 8.07 1.219 10.106.813 2.037 2.18 3.056 4.103 3.056 1.889 0 3.252-1.032 4.091-3.094.839-2.063 1.258-5.419 1.258-10.068 0-4.702-.424-8.08-1.271-10.134-.848-2.054-2.207-3.08-4.078-3.08-1.905 0-3.268 1.026-4.09 3.08s-1.232 5.432-1.232 10.134zM113.81 136.267c-2.133 0-3.89.616-5.271 1.848-1.381 1.233-2.272 3.02-2.674 5.363h10.566v4.614h-10.96l-.052.918v1.232l.053.865h9.307v4.667h-8.861c.89 4.248 3.697 6.372 8.416 6.372 2.5 0 4.903-.499 7.21-1.495v6.712c-2.028 1.031-4.588 1.546-7.682 1.546-4.282 0-7.805-1.161-10.567-3.486-2.761-2.325-4.5-5.54-5.217-9.649h-3.592v-4.667h3.093c-.07-.402-.104-.944-.104-1.625l.053-1.39h-3.042v-4.614h3.487c.646-4.23 2.386-7.573 5.218-10.03 2.831-2.455 6.37-3.683 10.618-3.683 3.286 0 6.362.717 9.23 2.15l-2.57 6.082a26.17 26.17 0 00-3.383-1.27 11.636 11.636 0 00-3.277-.46"
            fill="#00387b"
          ></path>
          <g fill="#e8f0f9">
            <path
              d="M156.65 96.357c4.942 0 8.875 1.387 11.8 4.16 2.925 2.774 4.387 6.572 4.387 11.396 0 5.71-1.76 10.103-5.279 13.18-3.52 3.076-8.553 4.614-15.102 4.614-5.686 0-10.278-.92-13.774-2.761v-9.335c1.841.98 3.985 1.778 6.433 2.395 2.447.618 4.766.927 6.957.927 6.595 0 9.893-2.704 9.893-8.11 0-5.152-3.414-7.726-10.243-7.726-1.235 0-2.598.122-4.09.367s-2.704.506-3.636.786l-4.3-2.307 1.923-26.045h27.722v9.16h-18.249l-.943 10.032 1.224-.244c1.42-.327 3.18-.49 5.278-.49M214.368 103.453c0 8.927-1.463 15.534-4.387 19.822-2.925 4.288-7.43 6.432-13.512 6.432-5.896 0-10.342-2.214-13.337-6.642s-4.492-10.966-4.492-19.612c0-9.019 1.457-15.667 4.37-19.943 2.914-4.277 7.4-6.415 13.459-6.415 5.896 0 10.353 2.237 13.372 6.712 3.018 4.475 4.527 11.023 4.527 19.646zm-24.995 0c0 6.27.541 10.762 1.625 13.476 1.084 2.716 2.908 4.073 5.47 4.073 2.518 0 4.336-1.374 5.454-4.124 1.12-2.75 1.678-7.225 1.678-13.425 0-6.269-.564-10.773-1.695-13.511-1.13-2.739-2.942-4.108-5.436-4.108-2.54 0-4.358 1.37-5.453 4.108-1.096 2.738-1.643 7.242-1.643 13.511z"
            ></path>
            <path
              d="M146.939 52.653c-.05-3.454-2.426-5.898-6.173-5.927-3.453-.028-18.931 0-18.885 0 .045 0 5.37 2.524 5.37 6.068v122.389c0 3.68-3.985 4.703-5.21 6.15h18.214c3.422 0 6.692-3.169 6.7-6.202.057-22.625.244-104.2-.016-122.478"
            ></path>
          </g>
          <path
            d="M136.352 46.714l1.384.002 1.225.002 1.023.003.424.002.358.003h.087l.087.002.086.004.087.004.085.004.085.005.085.007.084.007.083.008.083.009.083.01.081.01.082.012.08.013.08.012.08.015.08.014.078.016.079.016.077.017.077.018.077.019.075.02.15.04.075.023.073.022.073.025.073.024.071.025.071.025.07.027.071.027.07.028.068.029.07.03.066.03.067.031.067.031.066.033.065.034.13.068.063.035.062.036.062.037.062.037.06.039.06.038.06.04.06.04.116.082.056.043.113.086.055.045.054.045.108.091.104.095.05.047.1.099.05.05.048.05.048.052.047.052.047.052.045.053.045.053.088.11.043.055.042.056.041.057.041.057.04.057.039.058.038.06.039.06.073.12.036.06.035.062.034.063.066.125.032.064.03.064.031.065.06.13.027.067.028.067.027.067.05.136.025.07.023.068.022.07.023.07.021.071.02.071.02.072.02.072.017.073.017.072.016.074.017.074.028.148.014.076.012.076.012.076.01.076.01.077.01.077.015.155.013.158.009.16.005.16.002.08.012.903.011.992.011 1.08.01 1.164.018 2.57.016 2.873.007 1.544.013 3.287.015 5.388.013 7.922.007 8.6.001 4.496v4.6l-.011 18.975-.049 31.972-.059 26.112v.072l-.002.07-.002.072-.005.07-.005.072-.007.071-.007.072-.01.07-.01.072-.01.07-.013.072-.013.07-.015.072-.015.071-.016.07-.018.072-.02.07-.019.07-.02.07-.023.072-.022.07-.048.139-.026.07-.027.07-.028.068-.029.07-.03.068-.03.07-.032.067-.032.068-.033.068-.035.068-.035.067-.036.067-.075.135-.038.066-.04.065-.041.067-.041.065-.042.064-.043.066-.044.064-.044.064-.045.063-.047.064-.047.062-.047.062-.048.063-.05.06-.05.062-.05.06-.052.061-.052.06-.052.06-.054.057-.054.06-.166.171-.058.056-.057.056-.058.055-.118.109-.06.054-.06.052-.062.052-.062.052-.062.051-.063.05-.063.05-.064.05-.064.048-.066.048-.065.048-.066.046-.066.046-.068.045-.068.044-.068.044-.068.043-.069.042-.07.042-.139.08-.07.04-.071.039-.072.037-.072.037-.072.036-.073.036-.073.034-.073.033-.074.033-.074.032-.074.03-.075.03-.075.03-.076.028-.075.028-.076.027-.076.025-.076.025-.154.046-.077.022-.078.02-.078.02-.078.019-.077.018-.078.017-.08.016-.078.014-.079.015-.078.012-.08.012-.079.01-.08.01-.08.008-.079.008-.08.006-.079.005-.08.004-.08.003-.08.002h-18.294l.028-.034.03-.033.032-.034.032-.033.033-.033.034-.033.035-.033.036-.034.074-.066.077-.065.081-.065.083-.065.086-.065.09-.065.09-.066.094-.065.096-.065.098-.067.202-.132.207-.135.213-.138.216-.14.22-.145.11-.074.11-.074.11-.076.11-.078.11-.079.11-.08.109-.082.108-.083.107-.085.106-.086.106-.089.103-.09.102-.092.05-.047.05-.047.1-.097.047-.048.049-.05.047-.05.048-.05.046-.052.046-.051.045-.052.044-.053.088-.108.042-.054.042-.056.041-.056.04-.056.04-.058.04-.058.037-.058.038-.06.036-.06.035-.06.035-.062.034-.061.032-.063.032-.064.032-.064.03-.065.028-.066.029-.067.026-.067.026-.068.025-.069.024-.07.022-.07.022-.072.02-.072.019-.073.018-.074.017-.075.015-.076.014-.076.014-.078.011-.077.01-.08.01-.08.007-.08.007-.083.005-.083.004-.083.001-.085.001-.086V52.71l-.003-.082-.006-.082-.006-.082-.009-.081-.01-.08-.012-.081-.014-.08-.015-.08-.017-.08-.019-.078-.02-.079-.023-.078-.023-.078-.025-.077-.027-.076-.028-.077-.03-.076-.03-.075-.033-.075-.033-.074-.035-.075-.073-.146-.079-.145-.041-.072-.042-.07-.043-.071-.045-.07-.091-.14-.048-.068-.048-.068-.05-.068-.05-.067-.05-.066-.052-.066-.106-.131-.054-.064-.055-.064-.055-.063-.057-.063-.056-.062-.057-.062-.117-.121-.059-.06-.059-.06-.06-.058-.06-.059-.122-.114-.122-.112-.124-.11-.124-.107-.125-.104-.126-.102-.125-.1-.125-.096-.125-.094-.124-.092-.123-.088-.121-.086-.121-.083-.118-.08-.117-.078-.115-.074-.113-.072-.109-.069-.106-.065-.104-.063-.1-.059-.097-.056-.093-.054-.089-.05-.165-.09-.145-.077-.123-.064-.1-.05-.075-.036-.049-.022-.013-.005-.006-.002 2.445-.004 2.6-.003 3.085-.003 3.25-.002h3.091zm-3.09 1.79l-3.249.002-2.762.003.006.007.068.078.066.078.066.08.064.082.066.082.127.168.062.085.061.088.06.087.06.089.06.09.057.09.056.094.056.094.054.095.053.095.052.098.05.098.05.1.047.102.047.103.044.103.044.105.04.106.04.107.038.11.036.11.034.111.031.112.03.115.027.115.025.116.023.117.02.119.018.119.015.12.013.122.01.122.008.124.003.124.002.114v122.516l-.003.116-.006.114-.007.115-.008.113-.01.112-.014.112-.014.11-.017.11-.018.11-.02.108-.022.106-.024.107-.026.105-.026.104-.03.103-.03.102-.033.1-.034.1-.035.1-.037.097-.039.096-.039.095-.041.094-.043.092-.044.092-.045.09-.046.089-.048.087-.049.086-.05.085-.05.084-.052.083-.053.081-.054.079-.054.079-.056.078-.055.076-.057.075-.057.073-.059.073-.058.071-.06.07-.06.069-.059.068-.06.067-.062.066-.002.001h13.035l.054-.001.055-.002.055-.003.055-.004.054-.004.056-.004.054-.007.056-.006.055-.007.056-.01.055-.008.056-.009.055-.01.056-.012.056-.012.056-.013.055-.013.056-.014.056-.016.055-.016.057-.016.055-.017.056-.019.056-.018.056-.02.055-.02.056-.02.055-.022.056-.022.055-.023.056-.025.054-.024.056-.025.054-.026.054-.026.11-.055.054-.029.053-.028.053-.03.054-.03.106-.063.052-.032.104-.067.052-.034.052-.034.051-.035.05-.036.1-.074.05-.037.05-.038.096-.077.049-.039.047-.04.047-.04.093-.082.045-.041.09-.084.088-.086.042-.044.085-.088.042-.045.04-.044.04-.046.04-.045.039-.046.038-.046.038-.045.037-.047.036-.047.036-.047.035-.047.035-.047.034-.047.033-.048.032-.048.033-.048.06-.096.03-.048.03-.048.055-.097.026-.048.027-.048.025-.049.024-.047.024-.05.023-.048.022-.047.021-.048.021-.048.02-.048.037-.095.018-.048.032-.093.016-.048.028-.093.013-.046.012-.046.012-.046.01-.044.02-.092.008-.045.008-.043.012-.088.005-.043.01-.086.002-.043.003-.042.002-.042.001-.041v-.049l.06-26.103.048-31.971.01-14.293.001-4.68v-4.599l-.003-8.87-.01-8.28-.008-3.864-.015-5.387-.013-3.285-.007-1.543-.016-2.87-.018-2.568-.01-1.161-.01-1.078-.012-.99-.012-.894v-.067l-.003-.06-.002-.061-.004-.06-.003-.061-.005-.058-.004-.06-.007-.059-.005-.057-.014-.114-.008-.056-.018-.113-.02-.109-.01-.053-.012-.053-.012-.054-.012-.053-.013-.05-.013-.053-.03-.102-.014-.05-.016-.05-.016-.048-.034-.097-.017-.047-.018-.048-.018-.046-.02-.048-.019-.045-.02-.045-.02-.045-.022-.045-.02-.043-.022-.043-.045-.086-.047-.085-.024-.04-.024-.04-.025-.041-.026-.04-.026-.04-.026-.038-.027-.039-.028-.038-.026-.038-.058-.075-.027-.036-.03-.036-.03-.035-.061-.07-.032-.035-.032-.034-.031-.033-.066-.067-.033-.032-.035-.032-.034-.031-.071-.063-.035-.03-.037-.03-.036-.03-.038-.029-.038-.029-.038-.028-.04-.028-.038-.027-.04-.028-.04-.026-.042-.026-.04-.027-.043-.025-.042-.025-.043-.025-.044-.025-.044-.023-.044-.023-.046-.023-.046-.024-.046-.021-.047-.022-.047-.021-.048-.02-.049-.021-.049-.02-.05-.02-.05-.018-.051-.02-.051-.017-.052-.017-.053-.017-.054-.017-.053-.015-.055-.016-.055-.015-.056-.014-.056-.014-.057-.014-.058-.012-.058-.013-.06-.012-.058-.01-.06-.011-.061-.01-.06-.009-.063-.009-.062-.008-.127-.014-.065-.006-.065-.006-.065-.005-.067-.004-.067-.003-.068-.004-.068-.002-.069-.001-.072-.001-.351-.003-.42-.002-1.02-.003-1.222-.002-1.384-.002h-3.089z"
            fill="#004b8c"
          ></path>
          <path
            d="M122.86 46.671l.08.002.08.003.08.003.081.005.08.005.078.006.08.008.079.008.078.01.078.01.078.012.078.012.077.014.077.014.076.015.077.016.075.017.076.018.076.02.075.019.074.02.074.022.074.022.073.023.073.025.073.025.072.026.071.027.072.027.07.029.071.03.14.06.138.065.068.033.068.035.067.035.067.035.066.037.066.037.066.038.064.039.064.04.064.04.064.041.125.085.06.043.062.044.06.045.061.046.06.045.058.048.059.047.057.049.057.048.057.05.056.05.055.051.055.051.107.106.053.053.053.054.051.055.051.055.05.056.05.056.049.057.048.059.047.058.048.059.045.059.046.06.045.06.044.061.043.062.085.126.04.063.041.064.079.128.037.066.038.066.037.066.035.067.035.068.034.067.034.069.033.068.032.07.06.139.03.07.029.071.027.071.027.073.025.071.026.073.024.073.046.147.022.074.02.074.02.076.019.075.018.075.017.076.016.076.015.077.014.077.014.077.012.078.022.156.01.078.016.158.006.08.005.08.005.079.003.08.003.08.002.081v.08l-.61.004-.67.004-1.49.005-1.638.003H121.181l-1.689-.003-1.578-.006-.726-.003-.674-.004v-.08l.002-.081.003-.08.004-.081.004-.08.005-.08.007-.08.016-.157.01-.078.01-.078.011-.078.013-.078.013-.077.014-.077.016-.077.016-.076.017-.076.018-.075.018-.075.02-.076.02-.074.022-.074.023-.073.023-.074.024-.073.025-.073.026-.071.027-.073.028-.07.028-.071.03-.07.06-.14.033-.07.032-.068.033-.07.07-.134.036-.067.073-.132.039-.065.038-.065.04-.064.04-.064.042-.063.084-.126.044-.061.044-.061.044-.061.046-.06.046-.06.047-.058.048-.058.048-.059.048-.057.05-.056.05-.056.052-.055.05-.055.053-.054.106-.106.055-.053.054-.05.056-.052.055-.05.056-.05.058-.048.058-.049.058-.047.06-.048.058-.045.06-.046.061-.045.06-.043.063-.044.125-.084.063-.042.064-.04.064-.04.065-.039.065-.038.133-.073.067-.036.134-.07.069-.033.068-.032.07-.033.07-.03.07-.03.07-.03.07-.029.071-.027.073-.027.072-.026.072-.025.073-.024.074-.024.073-.022.074-.022.075-.02.075-.02.075-.019.075-.017.076-.017.076-.017.077-.015.077-.014.077-.014.078-.012.078-.012.078-.01.079-.01.157-.016.08-.006.08-.005.08-.005.08-.003.08-.003.08-.002h.163zm-.14 1.79l-.057.001-.058.002-.058.002-.057.004-.057.004-.057.004-.057.005-.056.007-.056.007-.056.007-.056.008-.054.01-.056.009-.054.01-.055.01-.054.012-.054.012-.054.013-.053.014-.054.014-.053.014-.053.015-.053.017-.052.017-.051.017-.052.017-.051.018-.051.02-.051.02-.05.02-.051.02-.05.022-.05.022-.049.023-.05.023-.048.024-.048.025-.048.024-.095.052-.048.027-.046.026-.046.028-.045.029-.047.029-.045.029-.09.06-.043.031-.044.032-.044.032-.043.033-.042.033-.042.033-.042.034-.082.07-.08.072-.08.073-.076.075-.076.077-.073.079-.037.04-.035.04-.07.083-.033.042-.067.084-.033.043-.031.044-.032.044-.03.043-.062.09-.03.045-.028.045-.027.047-.028.046-.028.047-.027.047-.026.047-.025.047-.05.097-.023.048-.047.099-.021.049-.005.01.824.003 1.687.002h3.451l1.635-.004.616-.002-.004-.01-.045-.098-.023-.05-.024-.048-.05-.097-.025-.047-.026-.047-.027-.047-.083-.14-.03-.045-.028-.045-.06-.09-.031-.043-.065-.088-.032-.043-.066-.084-.034-.042-.07-.082-.072-.081-.036-.04-.037-.039-.075-.077-.077-.075-.04-.037-.039-.036-.08-.072-.083-.07-.042-.034-.042-.033-.042-.033-.044-.033-.043-.032-.044-.032-.043-.03-.045-.03-.045-.03-.045-.03-.046-.029-.046-.029-.046-.027-.047-.027-.046-.027-.048-.026-.047-.026-.049-.024-.048-.025-.05-.023-.047-.024-.05-.023-.15-.064-.05-.02-.051-.02-.051-.02-.051-.017-.052-.018-.052-.017-.053-.017-.052-.016-.053-.016-.052-.014-.054-.014-.107-.027-.054-.012-.055-.011-.054-.011-.055-.01-.055-.01-.056-.009-.055-.008-.056-.007-.056-.007-.056-.006-.057-.006-.056-.004-.058-.004-.057-.003-.057-.003-.058-.002-.117-.002h-.058zM124.377 175.072l1.688.003 1.577.005.727.003.674.004v.08l-.002.081-.003.08-.003.081-.005.08-.005.08-.006.08-.016.157-.01.079-.022.155-.012.078-.014.077-.014.077-.015.077-.016.076-.017.076-.018.075-.019.076-.02.075-.02.074-.022.074-.046.147-.024.074-.026.072-.025.073-.027.071-.027.07-.029.072-.03.07-.03.07-.03.07-.032.07-.033.068-.034.069-.034.067-.035.068-.035.066-.037.066-.038.066-.037.066-.079.129-.04.064-.041.063-.085.125-.043.062-.044.06-.045.061-.046.06-.045.06-.048.058-.047.059-.048.058-.049.057-.05.056-.05.056-.051.055-.051.055-.053.055-.053.053-.053.053-.054.052-.055.051-.055.051-.056.05-.057.05-.057.05-.057.047-.059.048-.118.093-.06.045-.06.045-.062.045-.061.043-.063.043-.062.04-.064.042-.064.04-.064.04-.064.039-.066.038-.132.074-.067.036-.067.034-.068.035-.068.033-.138.065-.07.031-.07.03-.07.03-.071.028-.072.028-.071.027-.072.025-.073.026-.073.024-.073.023-.074.022-.074.022-.074.02-.075.02-.076.019-.076.018-.075.017-.077.016-.076.015-.077.014-.077.014-.078.012-.078.012-.078.01-.078.01-.079.009-.08.007-.078.006-.08.006-.08.005-.08.003-.08.002-.081.002h-.162l-.161-.005-.08-.003-.08-.005-.08-.006-.08-.006-.079-.007-.078-.01-.08-.009-.077-.01-.078-.012-.078-.012-.077-.013-.077-.015-.077-.015-.076-.016-.076-.017-.075-.018-.075-.019-.075-.02-.075-.02-.074-.022-.073-.022-.074-.023-.073-.024-.072-.025-.072-.026-.073-.027-.07-.028-.07-.029-.072-.03-.07-.029-.07-.031-.07-.032-.067-.032-.069-.034-.134-.07-.067-.035-.133-.074-.065-.038-.065-.038-.064-.04-.064-.041-.063-.041-.063-.041-.062-.043-.062-.043-.122-.09-.06-.045-.118-.093-.058-.048-.058-.047-.058-.05-.056-.05-.055-.05-.056-.05-.054-.052-.055-.052-.053-.053-.053-.053-.052-.055-.051-.054-.052-.056-.05-.055-.05-.057-.048-.057-.048-.058-.048-.058-.047-.06-.046-.059-.046-.06-.044-.06-.044-.061-.044-.062-.084-.125-.041-.063-.08-.129-.04-.064-.038-.066-.073-.132-.036-.066-.035-.068-.035-.067-.033-.07-.032-.067-.032-.07-.03-.069-.031-.07-.03-.07-.028-.072-.028-.07-.027-.072-.026-.073-.025-.072-.024-.074-.023-.073-.023-.074-.021-.074-.02-.074-.02-.075-.02-.075-.017-.076-.017-.076-.016-.076-.016-.077-.014-.077-.013-.077-.013-.078-.011-.077-.01-.078-.01-.079-.016-.157-.007-.08-.005-.08-.004-.08-.004-.08-.003-.08-.001-.081v-.08l.609-.004.67-.004 1.491-.004 1.637-.004h3.456zm-3.453 1.79l-1.635.004-.617.001.005.01.021.05.047.098.023.048.024.048.026.049.025.047.026.048.027.046.028.048.028.046.027.046.029.045.03.045.03.046.06.088.032.043.033.044.032.043.033.042.034.043.034.041.07.083.034.04.074.08.073.078.077.076.039.037.039.037.04.037.04.036.04.035.082.07.042.034.042.033.042.034.044.032.043.033.043.03.045.031.045.032.044.03.045.028.047.03.045.028.046.028.046.027.048.026.047.026.048.026.048.025.048.025.049.023.049.023.05.023.05.022.049.021.05.022.05.02.052.02.05.019.104.036.051.018.052.016.053.016.106.03.16.04.055.012.054.012.055.01.054.01.056.01.055.01.056.007.055.007.057.007.055.007.057.005.057.005.057.003.057.004.058.002.057.002.058.001h.118l.057-.002.058-.001.057-.003.057-.004.058-.003.057-.005.055-.005.057-.006.056-.008.056-.007.055-.008.056-.009.055-.01.055-.01.054-.01.055-.012.054-.011.053-.014.054-.013.054-.014.105-.03.053-.016.052-.016.052-.018.052-.018.05-.018.052-.02.05-.019.05-.02.151-.065.05-.023.048-.023.05-.023.047-.025.049-.025.095-.052.047-.026.047-.027.045-.028.046-.029.046-.03.045-.028.045-.03.045-.03.043-.031.044-.031.086-.065.043-.034.042-.033.042-.034.083-.07.04-.035.04-.035.04-.038.039-.037.038-.036.039-.039.075-.077.037-.038.036-.04.072-.081.07-.082.033-.042.034-.043.033-.042.032-.043.065-.087.06-.088.031-.046.029-.044.03-.046.027-.046.028-.046.027-.048.027-.046.026-.048.025-.047.05-.097.024-.048.023-.05.05-.108-.825-.002-1.686-.003h-3.451z"
            fill="#004b8c"
          ></path>
          <path
            d="M130.005 63.08S93.497 39.55 85.37 46.64c-4.026 3.512-6.784 13.232-7.479 22.668-.707 9.612.717 18.945 4.281 23.059 7.06 8.152 46.488-10.07 46.488-10.07s-3.77-3.45-3.336-9.672c.435-6.222 4.68-9.544 4.68-9.544"
            fill="#fff"
          ></path>
          <path
            d="M90.129 45.31l.173.004.174.007.177.008.178.01.18.013.181.015.184.016.184.02.186.02.188.022.19.024.19.027.193.028.194.03.195.032.197.034.199.035.2.038.2.04.203.04.203.043.205.044.207.046.207.048.209.05.21.05.211.053.213.054.213.056.214.058.216.059.217.06.218.062.218.064.22.065.22.067.223.068.222.068.223.071.225.072.225.073.227.075.226.076.228.077.229.08.229.079.23.081.23.083.232.083.231.085.233.086.234.086.233.088.235.09.234.09.236.091.236.093.236.093.236.094.237.095.239.097.237.098.239.097.238.1.239.1.239.1.24.102.48.206.48.21.48.211.48.215.482.218.482.22.481.223.48.224.481.227.48.229.478.23.478.232.476.234.474.234.474.237.47.236.47.238.467.239.464.239.462.239.459.24.456.24.453.238.45.24.445.24.443.237.439.238.434.237.43.236.425.234.421.233.416.232.412.23.405.228.401.227.395.224.39.222.382.22.378.216.37.215.365.21.358.21.35.204.68.4.651.385.62.37.586.352.552.334.517.314.479.294.441.272.401.248.36.224.316.197.27.171.226.143.413.262-.048.04-.058.048-.078.067-.096.086-.056.052-.059.055-.063.06-.067.064-.071.07-.074.074-.077.08-.082.083-.083.088-.086.093-.089.098-.09.103-.094.106-.095.112-.097.116-.099.121-.1.126-.101.13-.102.135-.104.139-.104.144-.104.149-.104.153-.105.157-.105.162-.052.083-.052.084-.053.085-.104.173-.051.089-.052.09-.05.09-.052.092-.051.093-.05.094-.05.095-.05.096-.05.097-.049.099-.096.2-.049.102-.047.103-.047.104-.046.105-.046.107-.045.106-.044.11-.044.109-.044.11-.042.113-.042.112-.042.114-.08.23-.078.237-.037.12-.037.12-.036.122-.035.122-.034.124-.032.125-.032.126-.032.127-.03.128-.029.13-.027.13-.027.13-.026.134-.025.133-.023.134-.023.136-.021.137-.02.138-.019.139-.018.14-.016.141-.015.142-.013.143-.013.145-.01.145-.01.144-.008.145-.006.144-.005.142-.004.141-.002.14v.14l.001.137.002.137.004.136.004.135.006.135.007.133.01.132.01.13.01.131.012.129.013.127.014.127.016.125.017.126.017.123.02.123.019.12.02.121.022.12.022.117.024.118.025.116.025.115.026.114.027.113.027.112.029.11.03.11.06.217.033.105.03.106.034.104.034.103.034.102.034.102.072.198.035.098.037.096.075.19.038.093.038.092.08.181.038.089.04.087.08.172.042.084.04.084.041.082.083.16.083.156.084.152.083.147.083.142.083.138.084.133.082.128.081.125.08.119.08.114.078.11.077.105.075.1.072.096.14.176.066.082.064.077.061.071.058.067.055.062.051.057.048.052.085.09.068.07.05.05.043.04-.113.052-.331.151-.244.11-.292.13-.341.153-.387.171-.431.19-.475.208-.516.224-.556.239-.593.254-.63.268-.664.279-.698.29-.73.302-.375.155-.384.157-.39.158-.396.16-.404.162-.41.165-.417.166-.422.167-.428.168-.434.17-.438.17-.445.171-.45.173-.453.173-.46.173-.462.175-.467.173-.472.175-.475.174-.478.175-.482.174-.485.174-.488.174-.49.172-.494.172-.495.172-.498.17-.5.17-.5.167-.504.166-.503.166-.506.163-.506.162-.506.159-.508.158-.507.155-.508.154-.507.151-.506.148-.507.146-.506.143-.504.14-.504.137-.25.068-.252.067-.25.065-.25.065-.25.065-.25.062-.248.063-.248.06-.248.062-.247.06-.492.116-.245.056-.244.056-.244.055-.243.053-.243.053-.24.052-.241.05-.24.05-.24.048-.237.047-.237.046-.237.045-.235.043-.234.043-.234.041-.232.04-.232.04-.23.037-.229.036-.227.035-.226.034-.226.033-.225.03-.222.03-.222.029-.22.027-.22.026-.218.024-.216.022-.215.022-.213.02-.213.018-.21.017-.21.016-.208.014-.206.012-.204.011-.203.01-.201.007-.2.006-.198.004-.196.003-.195.001h-.193l-.19-.002-.19-.005-.187-.005-.186-.007-.183-.01-.182-.01-.18-.012-.178-.015-.175-.016-.174-.019-.172-.02-.17-.02-.167-.024-.166-.026-.163-.028-.161-.028-.159-.032-.156-.033-.155-.036-.152-.036-.15-.04-.148-.04-.145-.044-.144-.046-.07-.023-.07-.023-.138-.05-.068-.025-.068-.026-.066-.027-.066-.027-.067-.028-.064-.027-.064-.029-.065-.03-.063-.03-.062-.03-.062-.03-.122-.063-.06-.034-.059-.032-.059-.034-.057-.034-.057-.035-.057-.035-.056-.035-.056-.037-.053-.037-.055-.037-.105-.077-.052-.04-.051-.04-.05-.04-.099-.082-.048-.042-.048-.043-.047-.044-.091-.087-.045-.046-.044-.046-.043-.045-.043-.048-.041-.047-.083-.098-.083-.099-.081-.101-.08-.103-.081-.105-.079-.106-.079-.109-.078-.11-.077-.112-.076-.114-.075-.116-.074-.118-.073-.119-.074-.12-.071-.123-.072-.124-.07-.127-.07-.128-.07-.128-.068-.132-.067-.132-.067-.135-.066-.136-.065-.137-.065-.14-.063-.14-.063-.141-.062-.144-.06-.145-.061-.147-.06-.149-.058-.149-.059-.151-.057-.152-.056-.154-.057-.156-.054-.157-.055-.158-.053-.16-.052-.16-.052-.162-.051-.164-.05-.165-.05-.166-.049-.168-.047-.168-.048-.17-.046-.172-.046-.172-.045-.173-.044-.176-.043-.176-.043-.177-.04-.178-.042-.18-.04-.181-.039-.182-.077-.367-.036-.185-.036-.186-.036-.187-.035-.189-.033-.189-.033-.19-.032-.192-.032-.191-.03-.194-.03-.194-.03-.195-.028-.196-.027-.198-.027-.197-.026-.2-.025-.199-.025-.2-.047-.403-.043-.407-.02-.204-.02-.206-.038-.413-.034-.415-.03-.419-.014-.21-.014-.21-.013-.212-.012-.212-.021-.426-.01-.214-.024-.646-.007-.215-.01-.434-.008-.436-.002-.219-.002-.219v-.438l.002-.442.002-.22.007-.444.004-.222.01-.444.008-.223.016-.447.01-.223.009-.224.01-.225.012-.224.013-.224.027-.45.014-.225.032-.45.016-.221.036-.443.019-.221.02-.222.02-.221.043-.443.023-.221.023-.222.024-.221.025-.221.052-.442.027-.22.028-.222.028-.22.03-.22.03-.22.03-.22.031-.219.032-.219.032-.218.068-.437.07-.435.037-.217.037-.217.037-.216.077-.431.04-.215.04-.214.042-.214.041-.213.042-.212.043-.212.044-.212.09-.42.045-.21.093-.417.049-.208.048-.205.048-.207.05-.205.05-.204.051-.204.051-.202.053-.203.106-.4.054-.2.055-.198.055-.198.056-.196.057-.196.058-.194.057-.193.058-.193.059-.191.06-.19.06-.19.062-.188.06-.187.063-.186.063-.184.063-.184.064-.182.064-.182.066-.18.065-.178.066-.177.067-.176.068-.175.068-.173.068-.172.07-.171.07-.17.069-.168.072-.166.07-.166.073-.163.072-.162.074-.16.073-.16.074-.157.075-.157.076-.154.075-.153.077-.151.077-.15.077-.148.078-.147.078-.144.08-.143.08-.142.08-.14.08-.137.082-.136.082-.134.082-.133.082-.13.083-.13.085-.126.084-.125.085-.123.086-.121.086-.12.086-.117.086-.115.088-.114.088-.111.088-.11.089-.106.09-.106.089-.103.09-.1.092-.1.09-.096.092-.095.092-.092.093-.09.093-.088.094-.086.094-.083.048-.041.05-.041.048-.04.05-.04.05-.038.052-.037.051-.037.052-.037.054-.035.054-.035.053-.034.056-.034.055-.033.056-.033.114-.062.058-.03.059-.03.059-.029.06-.029.06-.027.06-.027.062-.026.062-.026.063-.025.063-.025.064-.023.064-.024.066-.022.065-.022.066-.022.066-.02.068-.02.068-.02.068-.019.068-.018.07-.018.07-.017.141-.032.072-.014.073-.015.072-.014.073-.013.148-.025.15-.023.152-.02.154-.018.155-.015.159-.014.16-.01.161-.01.164-.007.165-.004.168-.002h.169l.17.002zm-.328 1.788l-.145.002-.14.003-.139.006-.136.008-.133.009-.13.01-.129.014-.125.014-.122.016-.119.018-.12.02-.053.01-.057.011-.055.011-.055.012-.054.012-.053.012-.053.013-.052.013-.051.013-.05.015-.05.014-.096.029-.047.015-.047.016-.046.015-.044.017-.045.016-.043.017-.043.017-.042.017-.041.018-.04.018-.04.019-.04.018-.038.019-.037.02-.037.018-.037.02-.035.02-.035.02-.034.02-.034.021-.034.02-.032.022-.032.022-.03.021-.032.022-.059.044-.03.024-.028.022-.028.023-.027.024-.073.065-.073.067-.073.069-.074.072-.074.074-.075.077-.074.079-.074.08-.074.084-.076.086-.075.088-.075.09-.074.093-.075.095-.076.098-.075.1-.075.101-.074.104-.075.106-.075.109-.075.11-.074.113-.074.114-.074.116-.074.12-.073.12-.074.123-.073.125-.073.126-.072.13-.073.13-.071.132-.072.135-.072.137-.07.137-.07.14-.072.141-.07.144-.07.145-.068.147-.07.149-.067.15-.068.152-.068.153-.067.156-.066.157-.067.157-.065.16-.066.161-.065.163-.064.165-.064.166-.063.166-.064.17-.062.17-.062.17-.061.173-.06.173-.062.176-.06.176-.059.178-.059.18-.058.18-.058.18-.057.183-.057.184-.056.185-.056.186-.055.187-.054.188-.054.19-.106.38-.052.193-.052.193-.05.194-.101.39-.05.197-.048.198-.048.199-.047.198-.047.2-.046.201-.09.405-.089.406-.043.205-.042.205-.042.206-.04.206-.041.206-.04.208-.039.209-.077.417-.036.21-.037.21-.036.21-.07.423-.034.211-.033.212-.064.426-.061.426-.03.214-.03.214-.028.215-.028.214-.027.215-.051.43-.025.215-.025.215-.023.215-.045.43-.021.216-.02.216-.02.215-.038.431-.018.216-.017.215-.016.215-.03.438-.015.22-.013.218-.025.437-.022.436-.01.218-.008.217-.009.218-.007.216-.012.433-.006.217-.003.216-.005.215-.002.215-.002.215-.002.428v.213l.001.213.002.213.002.212.008.423.004.21.005.21.007.21.007.209.008.208.018.415.01.207.01.206.012.205.025.409.029.405.015.202.016.2.017.201.036.399.019.197.02.197.02.197.021.195.045.389.023.192.025.192.025.191.026.19.026.189.027.188.028.187.029.185.03.185.03.185.03.182.031.182.033.18.033.18.068.356.071.35.037.174.037.172.038.172.039.17.04.168.04.167.04.167.04.165.044.163.042.162.087.32.045.158.046.157.046.155.047.154.047.152.049.151.049.149.05.147.05.147.05.144.051.143.052.142.052.14.054.137.054.137.053.135.056.133.055.131.056.13.056.128.057.127.116.247.059.12.059.12.06.117.06.116.06.113.062.112.061.11.062.108.062.105.063.104.063.102.064.1.063.099.064.095.065.095.065.092.065.09.065.089.066.085.066.085.066.081.066.08.066.078.024.027.076.08.052.054.028.026.028.025.057.052.03.025.03.025.031.025.033.025.032.024.033.024.034.024.035.024.036.025.035.024.037.023.038.023.038.024.079.046.041.022.041.023.042.022.043.023.044.021.045.022.046.021.046.022.095.04.048.021.05.02.05.02.05.02.053.02.052.019.108.037.052.017.116.037.115.034.119.033.121.032.126.03.128.03.13.027.134.027.137.024.14.023.141.023.145.02.148.02.15.016.153.016.156.015.159.012.16.012.164.01.165.008.167.006.171.005.173.004.175.002h.177l.18-.001.181-.003.184-.004.185-.006.188-.007.19-.009.191-.01.194-.011.196-.014.196-.014.2-.016.2-.018.204-.019.204-.02.206-.022.207-.022.21-.025.21-.026.212-.027.214-.029.216-.03.216-.03.218-.033.22-.034.22-.035.222-.036.224-.038.224-.039.226-.04.227-.041.227-.042.23-.044.23-.045.231-.045.233-.047.234-.048.233-.05.236-.05.236-.05.237-.053.238-.054.239-.054.239-.055.24-.057.241-.057.242-.058.485-.12.244-.06.245-.063.244-.063.245-.064.246-.064.246-.065.247-.067.495-.135.496-.138.498-.14.498-.143.5-.147.5-.149.5-.15.5-.154.5-.156.501-.157.5-.16.499-.161.498-.163.497-.165.496-.166.494-.168.492-.168.49-.17.488-.17.486-.171.483-.171.48-.173.478-.172.474-.173.471-.173.467-.173.463-.172.459-.173.455-.172.45-.172.446-.17.44-.17.436-.17.43-.168.845-.333.412-.165.408-.163.4-.16.394-.16.388-.157.38-.155.372-.153.724-.3.693-.288.66-.279.624-.264.59-.252.55-.238.512-.222.47-.206.024-.01-.093-.144-.095-.153-.095-.157-.096-.163-.096-.168-.096-.174-.094-.178-.093-.18-.048-.097-.046-.095-.047-.096-.046-.098-.046-.098-.046-.1-.045-.102-.044-.102-.045-.104-.044-.105-.043-.106-.044-.109-.042-.109-.042-.11-.041-.111-.041-.113-.04-.113-.04-.116-.038-.116-.039-.117-.037-.12-.037-.12-.036-.121-.035-.123-.034-.123-.034-.125-.032-.127-.032-.127-.03-.129-.03-.13-.029-.13-.028-.133-.027-.133-.05-.27-.024-.137-.022-.139-.022-.138-.02-.141-.018-.141-.018-.144-.016-.144-.015-.145-.014-.146-.012-.146-.012-.149-.018-.3-.006-.152-.005-.153-.004-.153-.003-.156v-.155l.001-.157.003-.158.004-.16.005-.16.007-.16.009-.163.01-.164.013-.163.014-.162.015-.16.017-.16.018-.158.02-.159.021-.155.022-.155.025-.155.025-.152.026-.152.028-.15.029-.15.03-.148.032-.147.033-.146.034-.144.035-.144.073-.282.038-.14.04-.139.04-.137.041-.136.042-.134.044-.133.044-.133.045-.13.045-.13.047-.13.047-.126.049-.126.049-.125.05-.123.05-.123.05-.12.052-.12.052-.119.053-.117.053-.115.108-.23.055-.111.11-.22.057-.109.056-.107.058-.106.056-.105.057-.102.058-.102.059-.1.057-.1.058-.099.06-.096.057-.096.06-.094.06-.096.116-.18.118-.177.117-.172.117-.166.118-.162.116-.157.114-.152.115-.147.113-.14.11-.137.016-.019-.097-.06-.437-.27-.476-.29-.512-.312-.548-.331-.583-.35-.615-.367-.645-.382-.675-.398-.348-.203-.355-.207-.73-.422-.373-.216-.38-.217-.387-.22-.392-.223-.398-.225-.402-.226-.408-.228-.413-.23-.417-.231-.423-.233-.426-.234-.43-.234-.435-.235-.438-.237-.443-.237-.445-.237-.449-.237-.452-.237-.454-.238-.458-.237-.459-.237-.462-.235-.464-.236-.466-.234-.468-.234-.47-.231-.47-.231-.472-.23-.472-.228-.474-.225-.473-.224-.474-.222-.475-.22-.474-.216-.474-.214-.475-.212-.472-.208-.473-.206-.471-.202-.235-.1-.469-.197-.234-.098-.467-.191-.233-.094-.232-.094-.232-.093-.231-.09-.23-.091-.23-.09-.23-.087-.23-.087-.227-.086-.227-.085-.227-.084-.226-.083-.225-.081-.225-.08-.224-.079-.222-.077-.222-.076-.22-.076-.22-.073-.22-.072-.218-.072-.217-.069-.216-.069-.215-.066-.213-.065-.213-.065-.21-.063-.211-.06-.21-.06-.207-.058-.206-.056-.206-.056-.203-.052-.202-.052-.202-.05-.2-.049-.197-.047-.196-.045-.195-.044-.193-.042-.193-.04-.19-.039-.187-.036-.187-.035-.186-.033-.182-.032-.182-.03-.179-.027-.177-.026-.176-.024-.174-.022-.171-.02-.17-.02-.167-.017-.165-.015-.163-.012-.161-.012-.158-.009-.157-.008-.153-.005-.152-.004-.149-.002h-.147z"
            fill="#004b8c"
          ></path>
          <path
            d="M126.882 77.638s-9.263 7.019-17.48 18.8c-8.217 11.784-12.85 24.895-12.85 24.895s6.276-4.252 10.315-1.797c4.04 2.455 3.84 10.32 3.84 10.32s.517-15.076 7.894-27.797c7.377-12.72 17.52-18.858 17.52-18.858s-3.066-.056-5.384-1.452c-2.318-1.396-3.855-4.111-3.855-4.111"
            fill="#fff"
          ></path>
          <path
            d="M126.9 77.668l.052.089.04.064.047.077.056.087.063.099.072.109.08.117.086.126.094.135.102.14.11.149.116.153.06.077.062.08.065.08.065.082.067.082.07.084.07.083.072.084.075.085.075.085.077.085.078.086.08.086.082.085.083.086.17.17.088.085.089.084.09.084.092.083.093.083.094.081.096.08.097.08.098.08.1.076.1.076.103.075.103.073.105.071.105.071.107.068.108.066.11.065.11.062.111.061.112.058.113.058.113.054.114.054.114.052.115.05.115.047.115.047.116.045.115.043.116.042.115.04.115.038.115.037.115.036.113.034.114.032.113.032.111.03.111.029.111.027.11.026.108.025.106.024.106.022.105.022.103.02.1.019.101.019.098.017.096.016.187.03.18.025.17.023.16.018.15.017.139.014.127.012.115.008.102.008.089.005.073.004.101.004h.035l-.03.018-.085.054-.142.09-.193.126-.116.077-.128.086-.14.095-.15.104-.163.113-.174.122-.184.132-.194.14-.205.15-.215.159-.225.168-.233.177-.243.187-.251.196-.259.204-.268.214-.275.224-.283.233-.29.241-.148.125-.15.126-.15.13-.152.13-.154.135-.156.136-.157.138-.16.14-.158.143-.162.145-.163.148-.164.15-.166.152-.166.155-.167.157-.17.16-.17.161-.17.164-.173.166-.174.169-.173.17-.176.174-.176.176-.176.178-.179.18-.179.183-.179.185-.18.187-.18.19-.182.192-.182.195-.182.196-.184.2-.183.201-.184.204-.185.206-.185.209-.185.211-.186.214-.186.216-.186.217-.186.221-.186.223-.187.225-.186.228-.187.23-.187.232-.187.234-.187.237-.187.24-.186.242-.186.244-.186.247-.186.249-.185.251-.186.254-.185.256-.184.258-.185.261-.183.264-.184.265-.182.269-.183.27-.18.273-.181.275-.181.278-.18.28-.178.282-.178.286-.177.287-.177.289-.174.293-.175.294-.173.297-.172.298-.17.3-.166.3-.164.3-.161.302-.16.303-.157.302-.155.304-.152.303-.15.304-.147.304-.145.306-.144.305-.14.305-.139.305-.136.305-.133.306-.133.306-.128.306-.128.305-.125.305-.123.305-.121.305-.12.305-.116.304-.115.304-.113.304-.11.303-.109.302-.107.302-.104.302-.103.3-.1.3-.1.3-.096.297-.096.297-.093.296-.091.296-.09.294-.088.294-.086.292-.085.291-.082.29-.08.288-.08.288-.077.285-.076.285-.074.283-.072.28-.07.28-.07.278-.068.277-.066.274-.064.273-.063.272-.062.269-.06.267-.058.265-.057.263-.056.262-.053.258-.053.257-.052.255-.05.253-.048.25-.048.247-.046.246-.044.242-.043.24-.042.238-.041.235-.04.232-.038.23-.038.227-.036.224-.035.221-.067.433-.062.422-.058.409-.053.395-.05.383-.046.37-.043.354-.039.34-.035.325-.033.31-.028.295-.027.278-.023.262-.02.244-.02.228-.015.21-.014.192-.012.173-.018.29-.01.21-.007.13-.002.042.002-.088v-.254l-.002-.183-.007-.217-.004-.12-.005-.128-.007-.135-.007-.141-.009-.15-.01-.154-.012-.161-.014-.167-.016-.173-.017-.177-.019-.182-.021-.187-.023-.191-.025-.195-.03-.199-.03-.202-.032-.205-.036-.208-.038-.21-.041-.211-.044-.214-.023-.107-.024-.109-.05-.216-.027-.11-.027-.108-.058-.218-.03-.11-.03-.109-.064-.218-.033-.11-.035-.107-.035-.11-.036-.108-.037-.108-.077-.217-.04-.107-.042-.107-.042-.106-.044-.107-.043-.105-.046-.106-.047-.104-.047-.104-.048-.103-.05-.103-.052-.101-.051-.101-.054-.102-.054-.099-.056-.098-.057-.098-.058-.097-.059-.095-.06-.095-.062-.093-.063-.093-.064-.092-.066-.09-.066-.089-.069-.087-.069-.086-.07-.085-.073-.084-.073-.083-.076-.08-.076-.08-.078-.078-.078-.076-.08-.074-.082-.073-.084-.072-.085-.07-.086-.067-.088-.066-.09-.065-.09-.062-.093-.06-.094-.06-.095-.056-.096-.053-.096-.051-.098-.05-.097-.047-.1-.044-.099-.043-.1-.04-.1-.037-.103-.036-.102-.034-.102-.031-.102-.029-.104-.027-.104-.025-.105-.024-.105-.021-.105-.019-.106-.018-.105-.015-.107-.014-.106-.012-.108-.01-.106-.009-.108-.007-.108-.004-.107-.004-.109-.002h-.108l-.108.001-.108.003-.109.004-.108.006-.108.007-.109.009-.108.01-.108.01-.108.013-.217.028-.108.017-.108.017-.107.02-.108.018-.106.022-.107.021-.107.022-.106.025-.21.05-.21.053-.104.029-.104.029-.104.03-.102.03-.102.03-.102.033-.1.032-.1.033-.1.034-.099.034-.098.035-.098.035-.193.072-.19.073-.186.075-.183.076-.18.077-.174.077-.172.077-.166.076-.162.077-.158.077-.153.076-.147.076-.143.073-.136.073-.131.07-.126.068-.119.067-.112.064-.106.06-.1.06-.093.054-.085.052-.15.092-.12.075-.086.055-.072.048.055-.15.067-.184.094-.252.12-.32.145-.382.173-.443.096-.244.103-.258.108-.272.236-.585.128-.311.135-.324.14-.337.299-.708.16-.372.165-.382.17-.393.179-.402.183-.414.19-.422.196-.433.201-.44.209-.45.214-.458.22-.467.225-.473.231-.48.238-.488.244-.495.25-.5.255-.507.13-.256.13-.257.267-.517.136-.261.137-.263.138-.263.14-.264.284-.531.144-.268.146-.268.146-.27.298-.54.152-.272.152-.272.154-.274.156-.274.156-.275.159-.275.159-.275.16-.277.163-.276.164-.277.164-.277.167-.279.168-.277.17-.278.17-.28.171-.278.174-.28.174-.278.177-.279.177-.279.178-.28.18-.278.181-.279.183-.278.184-.278.186-.279.186-.278.188-.277.19-.277.19-.277.191-.277.194-.275.193-.274.193-.27.194-.271.194-.269.194-.266.194-.264.195-.263.195-.262.195-.26.195-.256.195-.256.195-.254.195-.252.195-.25.195-.248.195-.247.195-.244.195-.243.194-.24.194-.24.194-.237.194-.235.193-.234.193-.232.194-.229.192-.228.191-.225.192-.224.19-.222.191-.22.19-.218.19-.216.189-.214.188-.212.187-.21.187-.208.187-.207.186-.204.184-.202.184-.2.183-.198.363-.39.181-.193.18-.19.178-.188.177-.186.352-.366.348-.358.343-.349.338-.34.333-.333.328-.324.322-.316.316-.307.31-.298.305-.29.298-.28.29-.273.284-.263.277-.254.27-.245.26-.237.255-.227.245-.218.237-.21.229-.2.22-.19.21-.182.201-.171.192-.163.182-.153.172-.144.162-.134.151-.125.27-.22.225-.18.178-.141.13-.102.105-.082.018.03zm-.438 2.618l-.187.159-.196.167-.206.177-.215.186-.223.195-.231.204-.49.436-.255.232-.264.24-.271.25-.278.257-.285.267-.292.276-.298.283-.304.293-.31.3-.317.31-.322.318-.326.327-.332.334-.337.343-.34.35-.347.36-.173.182-.352.372-.177.189-.178.19-.179.193-.18.194-.18.197-.181.198-.182.2-.183.203-.184.204-.183.207-.186.208-.185.21-.186.212-.186.214-.187.216-.187.218-.188.22-.19.221-.188.223-.189.225-.19.228-.19.229-.189.23-.19.233-.191.234-.19.236-.191.238-.192.241-.19.242-.192.243-.192.245-.19.247-.192.25-.191.25-.19.252-.192.254-.191.256-.19.258-.191.259-.191.26-.19.264-.19.264-.19.267-.188.267-.189.27-.188.27-.187.272-.185.271-.367.544-.182.273-.18.273-.179.273-.178.273-.176.274-.175.274-.174.274-.173.274-.171.273-.17.274-.17.273-.167.274-.166.274-.165.273-.326.546-.32.544-.315.542-.156.271-.154.27-.153.27-.151.269-.15.268-.15.268-.147.266-.146.266-.145.265-.143.264-.282.526-.14.262-.137.26-.136.259-.135.258-.266.512-.13.255-.13.254-.127.25-.252.5-.246.494-.24.488-.235.48-.228.475-.223.466-.216.46-.211.452-.205.443-.199.435-.193.426-.187.417-.181.407-.176.398-.169.387-.163.377-.156.366-.15.354-.042.098.005-.002.112-.037.225-.074.115-.036.23-.07.119-.033.117-.033.118-.032.12-.031.12-.03.12-.03.122-.029.246-.053.124-.025.124-.025.126-.023.126-.021.126-.02.128-.02.128-.018.129-.016.129-.015.13-.013.13-.012.13-.01.132-.009.132-.007.132-.005.134-.004.133-.002h.134l.135.002.135.005.135.006.135.009.136.01.137.013.136.016.137.017.137.02.137.023.138.025.137.029.137.03.137.033.138.036.138.04.136.042.137.044.137.049.136.05.135.054.135.058.134.06.135.064.132.067.132.07.131.074.13.077.128.08.125.082.124.085.12.087.12.089.115.09.114.094.11.095.11.097.105.099.104.1.102.102.1.103.096.105.095.106.093.108.09.108.09.11.085.111.084.112.083.113.08.113.076.113.036-.183.053-.26.053-.264.056-.266.057-.267.058-.27.06-.272.061-.273.064-.276.064-.278.066-.279.068-.282.07-.284.07-.284.073-.287.074-.289.076-.29.077-.291.08-.293.081-.294.082-.297.085-.298.087-.298.088-.3.09-.301.092-.303.094-.303.096-.304.098-.305.1-.307.101-.307.104-.31.105-.308.109-.31.109-.31.112-.312.114-.312.116-.312.118-.313.12-.314.123-.314.125-.315.127-.314.129-.315.131-.315.134-.316.136-.316.138-.315.14-.316.144-.315.145-.316.149-.316.149-.315.153-.315.155-.315.158-.314.16-.314.162-.314.166-.313.167-.313.171-.312.173-.312.176-.31.178-.31.18-.307.18-.304.18-.301.182-.3.182-.295.184-.294.184-.29.185-.29.186-.286.186-.284.187-.281.188-.28.188-.276.189-.274.19-.27.189-.27.19-.266.19-.264.192-.261.19-.259.192-.257.192-.254.192-.251.192-.25.193-.246.192-.245.192-.241.192-.24.193-.236.192-.235.192-.232.193-.229.191-.227.192-.225.191-.222.191-.22.191-.217.19-.215.19-.212.19-.21.19-.207.187-.206.19-.202.186-.2.187-.198.186-.196.186-.193.184-.19.367-.375.182-.182.181-.182.181-.178.18-.176.178-.174.177-.17.177-.17.175-.166.174-.165.173-.161.172-.16.17-.157.17-.154.167-.152.166-.15.166-.148.162-.145.162-.142.162-.14.158-.139.157-.135.156-.133.154-.13.154-.13.298-.25.293-.24.284-.23.277-.222.037-.03-.12-.042-.136-.051-.136-.053-.137-.056-.136-.057-.137-.06-.138-.06-.138-.065-.137-.067-.138-.07-.137-.072-.137-.074-.137-.078-.135-.08-.135-.083-.132-.084-.13-.087-.128-.087-.126-.09-.124-.09-.121-.09-.12-.094-.117-.093-.115-.095-.113-.096-.11-.095-.11-.097-.107-.097-.105-.097-.103-.098-.101-.098-.1-.098-.096-.098-.095-.098-.094-.098-.09-.098-.09-.096-.088-.098-.085-.096-.084-.095-.081-.095-.08-.095-.077-.093-.076-.092-.073-.092-.072-.09-.027-.034-.047.04z"
            fill="#004b8c"
          ></path>
          <path
            d="M147.87 77.638s9.262 7.019 17.48 18.8c8.216 11.784 12.85 24.895 12.85 24.895s-6.277-4.252-10.317-1.797c-4.039 2.455-3.838 10.32-3.838 10.32s-.517-15.076-7.894-27.797c-7.377-12.72-17.52-18.858-17.52-18.858s3.065-.056 5.383-1.452 3.856-4.111 3.856-4.111"
            fill="#fff"
          ></path>
          <path
            d="M147.975 77.72l.13.101.178.142.226.18.27.22.15.125.162.134.172.144.182.153.192.163.202.171.21.182.22.19.228.2.237.21.246.218.254.227.261.237.27.245.276.254.284.263.29.273.299.28.304.29.31.298.316.307.323.316.327.324.333.332.338.341.343.349.347.358.353.366.177.186.358.378.18.192.182.194.182.196.183.198.184.2.185.203.186.204.373.414.187.21.188.213.19.214.188.216.191.218.19.22.191.222.192.224.191.225.193.228.193.23.193.231.194.234.193.235.194.237.194.24.195.24.195.242.194.245.195.247.195.248.195.25.195.252.195.254.195.256.196.257.194.26.195.26.195.264.194.264.194.266.195.269.193.27.193.271.193.274.194.275.191.276.19.278.19.276.188.278.187.278.185.279.184.278.183.278.18.28.181.278.179.279.177.28.176.278.175.279.172.279.173.278.17.28.17.278.167.277.167.279.165.277.163.277.162.276.161.277.16.275.158.275.157.275.155.274.154.273.153.272.15.273.299.54.147.27.145.268.145.268.283.531.14.264.139.263.136.262.137.262.266.517.13.257.13.256.256.506.25.5.243.496.238.487.23.48.227.474.22.467.213.458.209.45.201.44.196.433.19.422.183.413.178.403.171.393.166.382.16.372.298.708.14.337.135.324.128.311.236.585.108.272.103.257.096.245.172.443.147.382.12.32.094.252.067.183.054.15-.071-.047-.087-.055-.12-.075-.15-.092-.084-.052-.094-.054-.1-.06-.105-.06-.113-.064-.12-.067-.124-.068-.132-.07-.137-.073-.141-.073-.148-.076-.153-.076-.158-.077-.162-.077-.166-.077-.172-.077-.174-.077-.18-.076-.183-.076-.186-.075-.19-.073-.193-.072-.098-.035-.098-.035-.098-.034-.1-.034-.1-.033-.101-.032-.102-.032-.102-.03-.206-.061-.104-.03-.104-.028-.209-.053-.211-.05-.107-.025-.105-.022-.108-.022-.106-.021-.108-.019-.107-.019-.108-.018-.108-.016-.216-.028-.109-.013-.108-.01-.108-.01-.108-.01-.109-.007-.108-.005-.108-.004-.109-.003-.108-.002h-.108l-.108.002-.108.004-.108.004-.108.007-.106.008-.107.011-.107.012-.106.014-.106.015-.106.018-.105.019-.105.021-.105.024-.103.025-.104.027-.103.029-.102.031-.102.034-.102.036-.1.038-.1.04-.1.042-.1.044-.097.047-.097.05-.097.05-.096.054-.096.057-.093.059-.093.06-.09.062-.09.065-.087.066-.087.067-.084.07-.084.072-.082.073-.08.074-.08.076-.077.078-.076.08-.075.08-.074.083-.072.084-.07.085-.07.086-.069.087-.066.089-.066.09-.064.092-.063.093-.062.093-.06.095-.059.095-.058.097-.057.098-.056.098-.054.1-.053.1-.052.102-.051.1-.05.104-.049.103-.047.104-.047.104-.045.106-.044.105-.044.107-.042.106-.041.107-.04.107-.077.217-.038.108-.036.108-.035.11-.035.108-.033.11-.064.217-.03.11-.06.218-.027.11-.027.107-.027.11-.05.216-.024.109-.024.107-.044.214-.04.212-.04.21-.035.207-.032.205-.03.202-.03.199-.024.195-.024.19-.021.188-.019.182-.017.177-.016.173-.013.167-.012.16-.01.155-.01.15-.007.141-.007.135-.005.128-.004.12-.006.217-.003.183V129.854v-.043l-.007-.129-.01-.21-.019-.29-.011-.173-.015-.192-.016-.21-.018-.228-.02-.244-.024-.262-.026-.278-.03-.295-.031-.31-.036-.325-.04-.34-.042-.355-.045-.37-.05-.382-.054-.395-.058-.41-.062-.42-.067-.434-.035-.22-.036-.225-.037-.227-.039-.23-.04-.232-.04-.235-.042-.237-.043-.24-.045-.243-.046-.246-.047-.248-.05-.25-.049-.252-.052-.255-.052-.257-.054-.258-.055-.262-.058-.263-.058-.265-.06-.267-.062-.27-.062-.27-.065-.274-.066-.274-.067-.277-.07-.277-.07-.28-.073-.281-.073-.283-.077-.285-.076-.285-.08-.288-.08-.289-.083-.289-.084-.291-.087-.292-.088-.294-.09-.294-.09-.296-.094-.296-.095-.297-.097-.298-.1-.3-.1-.3-.102-.3-.105-.3-.107-.303-.109-.302-.11-.303-.113-.304-.115-.304-.116-.304-.12-.305-.12-.305-.124-.305-.125-.305-.127-.305-.13-.306-.131-.306-.134-.306-.136-.305-.139-.305-.14-.305-.143-.305-.145-.306-.148-.304-.15-.304-.152-.303-.154-.304-.158-.302-.16-.303-.16-.301-.165-.301-.166-.3-.17-.3-.171-.298-.174-.297-.174-.294-.176-.293-.175-.289-.177-.287-.179-.286-.179-.282-.179-.28-.18-.278-.181-.275-.18-.273-.183-.27-.183-.269-.183-.265-.184-.264-.184-.26-.185-.26-.185-.255-.185-.254-.185-.251-.187-.249-.186-.247-.186-.244-.187-.242-.186-.24-.187-.237-.186-.234-.187-.232-.187-.23-.186-.228-.188-.225-.186-.223-.186-.22-.186-.218-.186-.216-.185-.214-.186-.211-.185-.209-.184-.206-.185-.204-.183-.2-.184-.2-.182-.197-.182-.195-.181-.192-.181-.19-.18-.187-.18-.185-.178-.183-.178-.18-.176-.178-.177-.176-.175-.173-.175-.171-.172-.169-.173-.166-.171-.164-.17-.162-.17-.16-.167-.156-.166-.155-.166-.152-.163-.15-.163-.148-.162-.145-.16-.143-.159-.14-.156-.138-.156-.136-.154-.135-.153-.13-.15-.13-.15-.126-.148-.125-.29-.241-.282-.233-.276-.224-.268-.214-.26-.204-.25-.196-.242-.187-.234-.177-.224-.168-.215-.158-.205-.15-.194-.141-.185-.132-.173-.122-.163-.113-.152-.104-.14-.095-.127-.086-.116-.077-.193-.126-.141-.09-.086-.054-.03-.018h.035l.101-.005.074-.004.088-.005.102-.007.115-.01.128-.011.139-.013.15-.017.16-.02.17-.022.18-.026.186-.03.096-.015.098-.017.1-.019.102-.019.103-.02.104-.022.106-.022.106-.024.109-.025.109-.026.11-.027.112-.029.112-.03.113-.032.113-.032.114-.034.114-.036.115-.037.115-.039.116-.04.115-.041.116-.043.115-.045.116-.046.114-.049.116-.049.113-.052.115-.054.113-.054.112-.057.112-.059.112-.06.11-.063.11-.065.107-.066.107-.068.106-.07.104-.072.103-.073.102-.075.102-.076.099-.077.098-.079.098-.08.096-.08.094-.081.093-.083.09-.083.091-.084.09-.084.087-.084.17-.171.084-.086.081-.085.08-.086.079-.086.077-.085.075-.085.074-.085.073-.084.07-.083.07-.083.066-.083.066-.081.064-.08.063-.08.06-.078.116-.153.11-.148.1-.141.095-.135.087-.126.08-.117.071-.11.064-.098.055-.087.048-.076.04-.065.052-.088.018-.03.105.08zm.24 2.56l-.071.09-.074.092-.076.092-.078.093-.078.095-.083.094-.083.096-.085.096-.088.098-.09.096-.09.098-.094.098-.094.098-.098.098-.098.098-.102.098-.102.098-.106.097-.107.097-.109.097-.11.095-.114.096-.115.095-.117.093-.12.093-.12.091-.124.09-.127.09-.128.087-.13.087-.132.084-.135.083-.135.08-.137.078-.137.074-.137.073-.138.068-.138.068-.136.064-.138.062-.137.059-.137.057-.137.056-.136.052-.136.051-.12.043.038.03.276.222.285.23.292.24.298.25.153.13.155.13.156.133.157.135.159.138.16.14.163.143.163.145.165.148.167.15.167.152.17.154.17.157.171.16.174.16.173.166.176.166.176.17.177.17.178.174.18.176.181.178.18.182.183.182.367.374.185.191.185.193.186.195.187.198.188.2.188.203.188.205.19.208.189.21.19.212.19.215.191.217.191.22.192.222.191.225.192.227.192.23.192.231.193.235.191.237.193.239.192.241.193.245.192.247.192.248.192.252.192.254.191.256.191.26.192.26.19.265.19.267.19.268.19.271.189.274.188.277.188.279.187.28.186.285.186.286.184.289.185.29.183.294.183.297.181.299.181.301.18.304.18.307.177.31.176.31.173.312.17.312.168.313.166.313.162.314.16.314.158.314.155.315.153.315.15.315.148.316.145.316.144.315.14.316.139.315.135.316.134.316.132.315.129.315.127.314.124.315.123.313.12.315.119.313.115.312.115.312.111.311.11.31.108.311.106.309.103.309.101.307.1.306.098.306.096.304.094.303.092.303.09.301.088.3.087.3.085.296.082.296.082.295.08.293.076.291.077.29.074.288.072.288.071.284.07.284.067.281.066.28.065.278.063.276.061.273.06.272.058.27.057.267.056.266.054.263.052.26.036.184.077-.113.08-.114.082-.112.084-.112.086-.111.089-.11.09-.108.093-.108.094-.106.098-.105.1-.103.101-.102.104-.1.106-.099.109-.097.11-.095.114-.093.117-.091.118-.09.12-.086.124-.085.125-.082.128-.08.13-.077.132-.073.131-.07.133-.068.134-.064.134-.06.135-.058.135-.053.137-.051.136-.049.137-.045.137-.042.137-.039.137-.036.138-.033.138-.03.137-.029.137-.025.137-.022.137-.02.137-.018.136-.016.137-.013.135-.01.136-.01.136-.006.135-.004.134-.002h.134l.134.001.133.004.132.005.133.007.13.008.131.011.13.012.13.013.13.015.128.016.128.018.128.02.126.02.127.021.125.023.124.025.125.025.122.026.123.027.122.029.12.03.12.03.12.031.237.065.117.034.115.035.116.034.114.036.226.074.11.037.006.002-.041-.098-.15-.354-.157-.366-.163-.377-.17-.387-.174-.398-.181-.407-.187-.417-.194-.426-.198-.435-.205-.443-.211-.452-.217-.46-.223-.466-.228-.474-.235-.48-.24-.489-.245-.494-.253-.5-.127-.25-.129-.254-.263-.51-.133-.257-.135-.258-.137-.259-.137-.26-.28-.525-.142-.263-.144-.264-.144-.265-.146-.266-.147-.266-.149-.268-.15-.268-.152-.269-.153-.27-.154-.27-.155-.27-.315-.543-.16-.272-.162-.272-.162-.273-.162-.273-.166-.273-.166-.274-.168-.274-.168-.273-.17-.274-.172-.273-.173-.274-.173-.274-.176-.274-.176-.274-.178-.273-.18-.274-.179-.272-.182-.273-.367-.544-.186-.272-.186-.27-.188-.271-.189-.27-.188-.267-.19-.267-.19-.264-.19-.263-.19-.26-.19-.26-.192-.258-.19-.256-.192-.254-.19-.252-.192-.25-.191-.25-.191-.247-.191-.245-.192-.243-.19-.242-.192-.24-.19-.239-.191-.236-.191-.234-.19-.233-.19-.231-.19-.228-.19-.228-.189-.225-.188-.223-.19-.222-.187-.22-.187-.217-.187-.216-.186-.214-.187-.212-.185-.21-.37-.415-.183-.204-.183-.202-.181-.2-.182-.2-.18-.196-.18-.194-.179-.193-.178-.19-.177-.19-.352-.37-.173-.182-.346-.36-.342-.35-.336-.344-.331-.334-.327-.327-.322-.318-.316-.31-.31-.3-.305-.293-.298-.283-.292-.276-.285-.267-.278-.257-.27-.25-.265-.24-.256-.232-.488-.436-.232-.204-.223-.195-.215-.186-.205-.177-.196-.167-.187-.159-.048-.04z"
            fill="#004b8c"
          ></path>
          <path
            d="M144.842 81.658s39.74 17.531 46.657 9.257c3.427-4.099 4.63-14.13 3.84-23.559-.804-9.604-3.673-18.6-7.835-22.105-8.249-6.947-44.34 17.218-44.34 17.218s4.264 2.818 4.807 9.031c.544 6.214-3.129 10.158-3.129 10.158"
            fill="#fff"
          ></path>
          <path
            d="M183.396 43.997l.164.004.162.006.16.008.158.01.156.013.154.016.152.017.15.02.15.022.073.013.072.013.073.013.071.013.072.015.07.015.14.032.07.017.068.018.068.018.067.019.067.02.067.02.066.02.065.022.065.022.127.046.064.024.063.024.061.025.062.027.061.026.06.028.059.028.06.028.058.03.057.03.058.03.057.031.055.032.056.034.055.033.054.034.108.07.103.073.051.037.051.039.05.038.05.04.048.04.098.083.096.086.097.087.096.09.095.09.094.093.095.095.094.097.093.099.093.1.093.103.092.105.091.105.091.109.09.11.091.11.09.114.088.116.089.117.087.118.088.12.087.123.086.124.086.125.085.127.085.13.084.13.084.132.083.134.083.136.082.137.081.138.081.14.08.141.08.144.08.145.079.146.078.148.077.149.077.15.077.153.076.153.15.311.075.159.073.16.074.16.072.161.072.163.071.165.142.333.07.169.069.17.068.17.068.173.067.173.067.175.066.175.065.177.065.179.064.18.064.18.063.182.062.182.062.184.062.185.06.186.06.187.06.188.116.38.057.191.057.193.111.386.056.195.107.394.053.198.053.199.05.2.052.2.05.201.05.202.05.203.048.204.047.205.093.411.046.207.044.208.045.208.044.21.043.209.042.21.041.211.041.213.04.212.04.213.039.214.038.214.038.215.036.215.036.216.07.434.034.218.033.217.032.219.032.22.03.22.031.218.03.222.029.22.028.222.028.22.052.445.05.446.046.447.023.223.021.225.02.225.04.449.036.443.032.443.015.222.03.444.024.444.012.222.01.222.01.222.018.445.008.222.008.222.006.222.01.444.008.444.002.22.004.443v.661l-.003.22-.002.22-.004.22-.009.438-.005.218-.007.217-.007.218-.016.434-.02.431-.01.216-.012.214-.012.214-.027.427-.015.212-.016.212-.032.421-.018.21-.037.417-.042.414-.021.206-.022.206-.023.204-.024.204-.024.202-.026.202-.026.2-.027.201-.028.2-.027.198-.03.198-.03.196-.03.195-.032.194-.032.193-.033.193-.034.191-.034.19-.036.189-.036.188-.037.187-.037.185-.039.184-.04.184-.04.181-.04.181-.042.18-.042.178-.088.353-.044.173-.046.174-.046.17-.047.17-.047.17-.05.167-.049.166-.05.165-.051.163-.052.16-.053.16-.053.16-.054.156-.056.155-.055.154-.056.152-.058.15-.058.149-.059.147-.06.145-.06.144-.062.142-.062.14-.063.139-.063.136-.065.135-.065.133-.066.131-.068.13-.068.127-.068.126-.07.124-.07.121-.07.12-.072.118-.073.116-.073.114-.075.111-.075.11-.076.108-.076.106-.078.103-.078.101-.08.1-.079.097-.041.049-.041.047-.086.093-.044.047-.045.044-.045.045-.093.088-.047.043-.048.042-.05.042-.049.041-.05.041-.052.04-.052.04-.052.038-.107.077-.055.037-.11.073-.057.036-.057.035-.058.035-.06.034-.059.033-.06.033-.06.033-.061.032-.062.031-.063.03-.127.061-.064.029-.065.029-.067.028-.066.028-.067.027-.067.027-.07.026-.068.026-.069.025-.07.024-.143.048-.144.046-.147.044-.15.04-.15.041-.154.038-.157.035-.158.035-.16.032-.163.03-.166.029-.167.026-.17.025-.17.022-.174.022-.176.018-.177.018-.18.016-.181.014-.184.012-.185.011-.187.01-.189.006-.191.006-.193.003-.194.003h-.197l-.198-.001-.2-.003-.2-.003-.204-.007-.205-.007-.206-.009-.208-.01-.21-.011-.21-.014-.213-.015-.214-.016-.214-.017-.435-.04-.22-.022-.222-.023-.222-.024-.223-.026-.225-.027-.225-.028-.228-.03-.228-.031-.23-.033-.23-.034-.233-.034-.232-.036-.235-.038-.234-.038-.237-.04-.237-.04-.238-.042-.238-.043-.24-.045-.24-.045-.242-.046-.243-.047-.243-.049-.243-.049-.246-.05-.245-.052-.246-.052-.246-.054-.248-.054-.248-.055-.249-.056-.248-.057-.25-.059-.501-.118-.25-.06-.253-.062-.252-.062-.252-.064-.506-.128-.507-.131-.508-.134-.509-.137-.51-.14-.51-.141-.51-.145-.51-.147-.51-.149-.509-.151-.509-.153-.507-.154-.507-.157-.506-.157-.504-.16-.502-.16-.5-.16-.5-.164-.495-.163-.494-.164-.491-.165-.488-.165-.485-.166-.482-.166-.477-.166-.474-.166-.47-.167-.467-.165-.46-.166-.458-.165-.452-.164-.447-.164-.443-.163-.436-.162-.432-.161-.425-.16-.419-.158-.412-.157-.407-.155-.4-.154-.392-.151-.386-.15-.379-.148-.734-.288-.703-.28-.67-.267-.634-.257-.598-.243-.559-.23-.52-.215-.478-.199-.435-.183-.39-.164-.343-.146-.294-.126-.245-.106-.334-.145-.115-.05.041-.046.05-.056.066-.08.082-.1.047-.059.05-.063.053-.07.056-.075.059-.08.062-.084.064-.09.066-.095.068-.1.071-.106.073-.11.074-.116.075-.12.076-.125.078-.13.079-.135.079-.14.08-.145.08-.148.08-.154.08-.158.08-.163.08-.168.078-.172.078-.177.038-.09.039-.09.038-.093.038-.093.037-.094.038-.095.037-.097.036-.098.036-.098.036-.1.035-.1.035-.103.034-.103.034-.103.033-.105.064-.213.03-.108.032-.11.03-.11.03-.11.028-.112.028-.114.026-.114.027-.115.025-.116.025-.117.024-.118.023-.119.022-.12.02-.12.021-.123.02-.123.018-.123.034-.251.015-.127.014-.127.013-.13.012-.128.011-.13.018-.264.007-.133.007-.134.004-.135.004-.136.002-.137v-.275l-.001-.14-.004-.14-.004-.14-.006-.142-.008-.143-.009-.144-.01-.145-.012-.145-.014-.145-.014-.144-.016-.142-.018-.141-.019-.14-.02-.139-.02-.137-.022-.136-.024-.136-.025-.134-.026-.132-.026-.132-.028-.13-.03-.13-.03-.127-.03-.127-.033-.125-.033-.124-.034-.123-.035-.122-.036-.12-.036-.12-.038-.118-.038-.116-.04-.116-.04-.115-.04-.113-.042-.111-.042-.111-.043-.11-.044-.109-.045-.107-.045-.106-.045-.105-.046-.104-.047-.102-.047-.101-.048-.1-.049-.1-.048-.097-.05-.097-.048-.096-.05-.094-.052-.093-.05-.092-.05-.09-.053-.09-.051-.089-.052-.087-.052-.086-.052-.085-.053-.084-.053-.083-.053-.081-.053-.08-.053-.08-.054-.077-.053-.077-.053-.076-.053-.075-.107-.145-.107-.142-.106-.136-.105-.132-.105-.127-.104-.124-.103-.118-.1-.115-.101-.109-.098-.105-.096-.1-.094-.097-.092-.092-.09-.087-.087-.083-.085-.078-.081-.075-.078-.07-.075-.066-.07-.06-.069-.058-.063-.053-.06-.048-.056-.044-.097-.075-.08-.059-.056-.041-.049-.033.104-.07.303-.2.224-.146.269-.176.312-.203.355-.23.397-.255.436-.28.474-.302.512-.323.546-.343.58-.363.613-.38.644-.397.673-.411.346-.212.355-.214.36-.218.367-.22.374-.224.379-.226.385-.228.39-.232.397-.233.402-.235.407-.237.413-.24.416-.24.422-.242.426-.243.43-.244.434-.246.439-.246.44-.247.447-.247.448-.247.452-.248.455-.248.458-.247.46-.247.462-.247.465-.245.467-.245.469-.244.47-.244.472-.241.474-.241.474-.24.475-.235.476-.236.477-.233.477-.231.478-.228.478-.226.477-.224.477-.22.476-.217.476-.214.239-.107.237-.104.474-.208.236-.102.237-.101.235-.101.235-.1.236-.098.234-.098.235-.096.233-.095.234-.095.232-.093.232-.092.232-.092.23-.09.232-.088.229-.087.229-.086.23-.085.226-.084.228-.083.226-.081.226-.08.224-.079.224-.077.224-.077.222-.074.22-.073.222-.072.22-.07.217-.069.218-.067.217-.066.215-.064.215-.063.214-.06.212-.06.211-.059.21-.056.21-.055.208-.053.206-.052.205-.049.205-.048.202-.046.203-.045.2-.043.199-.04.198-.04.196-.037.195-.035.193-.034.192-.031.19-.03.189-.027.188-.026.186-.023.184-.023.183-.02.18-.017.18-.016.178-.013.176-.012.175-.01.172-.007.171-.005.17-.003h.168zm-.314 1.79l-.147.002-.148.004-.151.007-.154.008-.156.01-.158.012-.16.014-.164.016-.164.018-.168.02-.169.021-.17.024-.174.025-.175.028-.177.028-.179.031-.18.034-.183.034-.185.036-.186.039-.188.04-.189.041-.19.044-.194.045-.194.047-.195.049-.197.05-.2.052-.199.053-.201.056-.203.057-.204.058-.205.06-.207.062-.208.063-.21.065-.21.066-.21.068-.214.07-.213.07-.214.071-.216.074-.217.075-.218.076-.218.077-.22.08-.22.08-.222.08-.222.084-.223.083-.223.086-.225.086-.225.088-.226.088-.226.09-.228.092-.228.092-.228.093-.23.094-.23.096-.23.097-.23.096-.231.099-.23.1-.234.1-.231.101-.233.102-.234.103-.231.104-.47.211-.468.213-.47.218-.47.219-.47.223-.47.225-.47.228-.471.23-.47.231-.469.235-.469.235-.467.238-.466.24-.466.24-.463.24-.462.243-.46.244-.458.243-.456.245-.453.245-.45.245-.447.245-.445.245-.441.246-.438.244-.434.243-.43.244-.427.242-.423.241-.418.24-.413.239-.408.237-.405.235-.792.465-.387.229-.382.227-.377.225-.37.222-.365.218-.358.217-.35.212-.345.21-.669.408-.639.394-.607.378-.577.36-.541.34-.508.32-.47.3-.433.277-.02.014.113.128.118.136.119.14.12.146.12.151.122.157.122.16.12.165.062.087.061.087.061.088.06.09.062.09.06.091.06.093.06.094.06.096.06.097.06.099.06.098.059.101.059.103.058.103.057.106.058.105.114.217.055.11.056.112.055.113.055.113.054.117.052.116.053.118.052.12.052.121.05.123.05.123.049.124.048.127.047.128.047.129.046.13.044.132.043.132.043.134.042.136.041.136.04.14.038.139.038.14.037.143.035.143.034.145.033.147.031.146.03.149.03.15.028.151.027.154.025.153.024.155.022.157.02.157.02.16.018.16.017.162.016.163.013.163.012.162.01.162.007.16.008.16.005.158.004.158.001.157v.31l-.001.154-.005.153-.005.151-.007.152-.008.15-.01.15-.023.294-.013.147-.015.145-.016.143-.017.142-.018.142-.02.14-.02.14-.023.14-.022.137-.025.136-.025.136-.026.134-.026.133-.028.132-.029.13-.03.13-.03.13-.031.127-.032.126-.033.125-.068.247-.036.122-.036.12-.037.119-.036.118-.038.117-.038.115-.04.115-.04.114-.04.112-.04.11-.04.11-.042.109-.042.107-.042.106-.043.106-.043.102-.043.102-.045.105-.087.195-.088.194-.09.188-.09.183-.09.178-.09.174-.09.167-.089.163-.09.157-.088.153-.013.02.107.045.473.197.516.213.555.228.593.242.63.254.663.266.698.277.73.286.375.146.383.15.39.15.396.152.404.154.409.156.416.157.422.159.427.16.434.16.438.161.444.163.448.163.454.164.457.164.463.164.465.165.471.165.474.164.477.165.48.165.483.163.486.163.489.163.491.161.493.161.495.16.497.159.499.157.5.156.5.154.502.153.503.151.502.149.504.147.503.145.503.142.502.14.502.137.501.136.5.131.498.13.499.126.247.062.247.06.247.06.246.06.246.059.245.058.489.113.243.054.243.055.242.053.24.052.242.05.24.052.237.049.239.047.237.048.236.046.235.045.234.044.233.043.232.042.231.04.23.04.23.038.227.038.226.035.226.035.223.034.223.032.221.032.22.03.219.028.217.028.216.026.214.025.213.023.21.022.21.02.208.02.207.019.204.016.203.016.201.013.199.013.198.011.196.01.193.008.192.006.19.006.187.004.186.002.184.001h.181l.18-.003.177-.003.175-.005.173-.007.17-.008.168-.009.166-.012.163-.012.16-.013.158-.017.155-.017.153-.018.15-.02.148-.022.144-.023.142-.024.14-.026.135-.027.133-.028.131-.03.127-.032.125-.032.12-.034.119-.035.114-.037.116-.038.05-.018.055-.02.053-.02.052-.02.052-.02.05-.02.05-.021.05-.022.048-.021.047-.022.047-.021.046-.022.045-.022.044-.022.044-.024.042-.022.042-.023.04-.024.041-.023.04-.023.039-.024.037-.023.037-.025.037-.025.036-.024.035-.024.068-.05.033-.025.031-.025.031-.025.032-.026.03-.025.029-.026.028-.026.028-.026.028-.026.054-.054.075-.08.046-.056.063-.075.062-.078.061-.08.061-.082.062-.085.062-.087.06-.09.061-.091.061-.094.061-.097.06-.098.06-.102.06-.103.06-.106.057-.107.06-.11.058-.112.057-.115.057-.117.056-.118.057-.121.056-.123.056-.125.054-.127.055-.128.054-.132.052-.132.053-.135.052-.136.052-.139.051-.14.05-.142.05-.144.05-.146.048-.147.047-.15.048-.15.046-.153.047-.154.09-.313.043-.16.044-.16.043-.163.041-.164.042-.164.04-.168.04-.168.04-.169.039-.171.075-.345.036-.176.036-.176.035-.177.034-.18.034-.18.033-.18.032-.183.032-.184.031-.185.03-.186.03-.187.028-.188.028-.19.027-.19.027-.191.026-.193.025-.193.024-.194.024-.195.023-.197.022-.197.02-.198.022-.199.04-.4.035-.403.017-.202.033-.409.015-.204.04-.619.023-.416.02-.418.018-.42.014-.421.007-.212.005-.212.004-.212.008-.426.002-.214.002-.214.001-.214v-.43l-.004-.43-.005-.43-.009-.432-.005-.216-.007-.216-.007-.217-.016-.432-.009-.217-.01-.215-.021-.434-.025-.432-.014-.215-.028-.433-.015-.215-.017-.216-.017-.215-.017-.216-.02-.218-.039-.438-.043-.435-.022-.218-.047-.434-.05-.433-.026-.216-.026-.215-.027-.215-.028-.215-.03-.214-.028-.214-.03-.213-.063-.426-.032-.211-.067-.422-.034-.21-.036-.21-.034-.21-.037-.208-.037-.208-.037-.207-.039-.207-.04-.206-.039-.205-.04-.205-.041-.204-.041-.203-.042-.202-.043-.202-.044-.2-.044-.2-.045-.2-.045-.199-.046-.198-.047-.196-.047-.196-.048-.196-.049-.194-.049-.194-.05-.192-.05-.192-.051-.19-.052-.19-.052-.188-.053-.188-.053-.187-.054-.185-.055-.185-.054-.183-.057-.183-.055-.181-.115-.36-.058-.178-.058-.177-.06-.175-.06-.175-.059-.173-.06-.173-.062-.17-.061-.17-.063-.168-.063-.168-.062-.165-.065-.165-.063-.163-.066-.162-.065-.16-.065-.16-.067-.158-.067-.155-.067-.155-.068-.154-.136-.302-.069-.15-.07-.147-.07-.146-.07-.145-.07-.142-.072-.141-.071-.14-.072-.139-.072-.136-.073-.135-.146-.265-.074-.13-.074-.127-.074-.127-.076-.125-.074-.122-.076-.121-.075-.12-.076-.117-.076-.116-.076-.114-.077-.112-.077-.11-.077-.109-.077-.106-.078-.105-.078-.103-.077-.101-.078-.098-.078-.097-.078-.095-.078-.093-.079-.091-.078-.089-.079-.087-.078-.085-.078-.083-.079-.08-.079-.08-.078-.076-.078-.075-.078-.073-.078-.07-.079-.069-.077-.067-.028-.022-.028-.023-.029-.023-.03-.022-.03-.022-.03-.022-.031-.021-.032-.021-.032-.021-.032-.02-.068-.041-.07-.04-.036-.019-.037-.018-.075-.038-.038-.018-.04-.018-.04-.017-.041-.018-.041-.017-.042-.016-.043-.017-.045-.016-.044-.015-.045-.015-.046-.015-.047-.016-.047-.014-.048-.013-.05-.015-.049-.013-.05-.013-.052-.012-.052-.013-.053-.011-.053-.012-.054-.01-.055-.011-.056-.01-.056-.01-.054-.01-.12-.017-.12-.016-.122-.014-.126-.013-.128-.01-.13-.009-.134-.007-.136-.005-.138-.003-.142-.002-.144.001z"
            fill="#004b8c"
          ></path>
          <path
            d="M137.09 57.427c8.556 0 15.502 6.946 15.502 15.502 0 8.556-6.946 15.503-15.502 15.503-8.556 0-15.503-6.947-15.503-15.503 0-8.556 6.947-15.502 15.503-15.502"
            fill="#fff"
          ></path>
          <path
            d="M137.29 57.428l.2.003.199.006.198.01.197.01.198.014.196.016.196.02.195.02.195.024.193.026.192.028.193.031.19.032.19.036.19.038.19.039.187.043.187.044.187.046.185.05.184.05.184.054.181.056.182.057.18.06.18.063.179.063.177.067.177.068.176.071.174.073.173.074.173.077.17.079.17.08.17.082.167.085.166.087.166.089.164.09.163.092.162.094.16.097.16.098.157.1.156.102.156.104.154.105.153.107.151.109.15.11.148.114.148.113.145.117.145.117.142.12.142.12.14.123.138.125.137.126.136.127.133.13.133.13.13.133.13.133.127.135.126.137.125.139.122.14.121.14.12.144.117.144.117.146.113.148.113.148.111.15.108.151.108.153.105.154.104.155.102.156.1.159.098.16.096.16.095.161.092.163.09.164.089.166.087.166.085.167.082.17.08.17.08.17.076.173.074.173.073.174.07.176.069.176.066.178.064.178.062.18.06.181.058.18.056.183.053.184.051.184.049.185.047.187.044.187.042.188.04.188.038.19.035.19.033.191.03.193.029.192.026.193.023.195.022.195.019.196.016.196.013.197.012.197.008.2.007.198.003.2.001.2v.2l-.004.2-.007.199-.008.198-.012.198-.013.197-.016.197-.02.195-.02.195-.024.194-.026.193-.029.194-.03.191-.033.192-.035.19-.038.19-.04.188-.042.188-.044.187-.047.186-.049.185-.05.185-.054.183-.056.183-.058.182-.06.18-.062.18-.064.178-.066.177-.068.177-.071.175-.073.175-.074.173-.077.172-.079.172-.08.17-.082.168-.085.169-.087.166-.089.165-.09.164-.092.163-.095.162-.096.16-.098.16-.1.157-.102.157-.104.156-.105.153-.108.153-.108.15-.11.151-.114.149-.113.147-.117.145-.118.144-.119.144-.12.141-.123.14-.125.138-.126.137-.127.135-.13.135-.13.132-.133.13-.133.13-.136.128-.137.126-.138.123-.14.124-.142.12-.142.12-.145.118-.145.115-.148.115-.148.113-.15.11-.151.109-.153.107-.154.106-.156.104-.156.1-.158.101-.16.098-.16.096-.161.094-.163.093-.164.09-.166.09-.166.086-.167.084-.17.083-.17.081-.17.079-.173.076-.173.075-.174.072-.176.07-.177.07-.177.065-.178.065-.18.062-.181.06-.182.058-.181.055-.184.053-.184.051-.185.05-.187.046-.187.045-.188.042-.188.04-.19.037-.19.035-.191.033-.193.03-.192.03-.193.025-.195.024-.195.02-.196.02-.196.015-.198.015-.197.01-.198.01-.2.005-.2.004-.199.002-.2-.002-.2-.004-.2-.006-.197-.009-.198-.01-.197-.015-.197-.016-.195-.019-.195-.02-.194-.024-.194-.025-.193-.03-.192-.03-.19-.033-.191-.035-.19-.037-.189-.04-.188-.042-.186-.045-.186-.047-.185-.049-.185-.051-.183-.053-.183-.055-.182-.058-.18-.06-.18-.062-.178-.065-.177-.066-.178-.069-.175-.07-.174-.072-.173-.075-.173-.076-.171-.079-.17-.08-.168-.084-.169-.084-.166-.087-.166-.088-.163-.09-.163-.094-.162-.094-.16-.096-.16-.098-.157-.1-.157-.101-.156-.104-.153-.106-.153-.107-.152-.11-.15-.11-.148-.112-.147-.115-.145-.115-.145-.118-.143-.12-.141-.12-.14-.124-.138-.123-.137-.126-.136-.128-.134-.13-.132-.13-.13-.132-.13-.135-.128-.135-.126-.137-.124-.138-.123-.14-.12-.141-.12-.144-.118-.144-.115-.145-.115-.147-.113-.149-.11-.15-.109-.151-.107-.153-.106-.153-.104-.156-.1-.157-.101-.157-.098-.16-.096-.16-.095-.162-.092-.163-.09-.164-.09-.165-.086-.166-.084-.169-.083-.168-.081-.17-.079-.172-.076-.172-.075-.173-.072-.175-.071-.175-.068-.177-.066-.177-.065-.179-.062-.179-.06-.18-.058-.182-.055-.183-.053-.183-.052-.185-.048-.185-.047-.186-.045-.187-.042-.188-.04-.188-.037-.19-.035-.19-.033-.192-.03-.191-.03-.194-.025-.193-.024-.194-.021-.195-.018-.195-.016-.197-.015-.197-.01-.198-.01-.198-.006-.2-.004-.199v-.4l.004-.2.007-.199.009-.199.01-.197.015-.197.016-.196.018-.196.021-.195.024-.195.025-.193.03-.192.03-.193.033-.19.035-.19.037-.19.04-.19.042-.187.045-.187.047-.187.048-.185.052-.184.053-.184.055-.182.058-.181.06-.18.062-.18.065-.179.066-.178.068-.176.07-.176.073-.174.075-.173.076-.173.079-.17.08-.17.084-.17.084-.167.087-.166.088-.166.09-.164.093-.163.095-.162.096-.16.098-.16.1-.158.101-.156.104-.155.106-.154.107-.153.108-.151.111-.15.113-.148.115-.148.115-.146.118-.144.12-.143.12-.141.123-.14.124-.139.126-.137.128-.135.13-.133.13-.133.132-.13.134-.13.136-.127.137-.126.137-.125.14-.122.142-.121.143-.12.145-.117.145-.117.147-.113.149-.113.15-.111.151-.11.153-.106.153-.105.156-.104.157-.102.157-.1.16-.098.16-.097.162-.094.163-.092.163-.09.166-.089.166-.087.169-.085.168-.082.17-.08.17-.08.174-.076.173-.074.174-.073.175-.07.178-.069.177-.067.179-.063.179-.063.18-.06.182-.057.183-.056.183-.053.185-.051.185-.05.186-.046.186-.044.188-.043.189-.04.19-.037.19-.036.19-.032.193-.031.193-.028.194-.026.194-.023.195-.022.195-.019.197-.016.197-.013.198-.012.198-.009.2-.006.199-.003.2-.001zm-.378 1.79l-.177.003-.176.005-.176.008-.175.01-.175.012-.173.014-.173.017-.173.019-.172.02-.17.023-.17.025-.17.028-.17.028-.168.032-.167.033-.168.036-.165.036-.166.04-.165.04-.163.045-.163.044-.162.048-.161.05-.16.05-.16.053-.16.055-.157.056-.156.059-.156.06-.156.063-.154.064-.153.065-.152.068-.151.07-.15.07-.15.074-.148.075-.147.076-.146.08-.146.079-.144.082-.142.083-.143.085-.14.087-.14.089-.138.09-.138.092-.136.093-.135.094-.135.097-.132.098-.132.1-.13.101-.13.102-.126.105-.127.105-.126.108-.123.108-.123.11-.12.112-.12.113-.12.114-.117.116-.115.117-.115.118-.112.12-.112.122-.11.122-.109.124-.107.125-.106.126-.104.128-.102.13-.102.13-.099.131-.098.133-.097.133-.095.135-.093.137-.091.137-.09.139-.09.14-.086.141-.085.141-.083.144-.082.144-.08.145-.078.145-.077.148-.075.149-.073.15-.071.15-.07.15-.067.153-.066.153-.065.154-.062.155-.06.155-.059.158-.057.157-.055.159-.052.16-.051.16-.05.161-.047.162-.045.163-.043.164-.042.165-.038.164-.038.167-.036.166-.033.168-.03.168-.03.169-.027.17-.025.17-.023.172-.02.172-.02.172-.015.173-.015.174-.012.174-.01.176-.008.175-.006.176-.003.178v.355l.004.176.006.176.008.177.01.174.012.175.014.174.017.173.018.173.021.172.023.17.025.17.027.17.03.17.03.168.033.167.036.168.038.165.038.166.042.165.043.162.045.163.047.162.05.162.05.16.053.16.055.158.057.159.058.156.061.156.062.155.064.155.067.153.067.152.07.151.071.15.073.15.075.147.077.148.078.146.08.145.082.144.083.143.085.143.087.14.088.14.09.138.092.138.093.136.095.135.097.134.098.133.1.132.1.13.103.128.104.128.106.127.107.125.108.124.11.123.112.12.113.12.115.12.115.116.117.116.12.115.12.112.12.112.123.11.123.109.126.107.127.106.127.104.129.102.13.102.132.099.132.098.135.096.135.095.136.094.138.091.138.09.14.09.14.085.143.086.142.083.144.082.146.08.146.078.147.077.148.074.15.074.15.071.151.07.152.067.153.066.154.064.156.063.156.06.156.059.158.056.16.056.158.052.16.051.162.05.162.046.163.046.163.043.165.04.166.04.165.038.168.035.167.033.168.031.17.03.17.027.17.025.17.023.172.02.173.02.173.015.173.015.175.012.175.01.175.008.177.006.177.003h.355l.177-.004.177-.006.175-.008.176-.01.174-.012.174-.015.172-.016.173-.018.172-.021.17-.023.172-.025.169-.027.17-.03.167-.031.169-.033.166-.035.166-.038.165-.039.165-.041.164-.043.163-.046.162-.046.16-.05.16-.05.161-.053.158-.056.158-.056.157-.058.156-.061.155-.063.154-.063.153-.067.152-.068.151-.069.15-.071.15-.074.149-.074.146-.077.147-.078.145-.08.144-.082.144-.083.282-.172.14-.088.139-.09.137-.092.136-.094.135-.095.134-.096.132-.098.132-.1.13-.1.13-.103.128-.104.126-.106.125-.107.123-.11.123-.109.122-.111.12-.113.118-.115.117-.115.116-.117.114-.12.113-.12.112-.12.11-.123.108-.124.107-.125.106-.127.104-.128.103-.129.1-.13.101-.13.098-.133.096-.135.095-.135.093-.136.092-.138.09-.137.089-.14.086-.141.085-.143.084-.143.082-.144.08-.145.077-.146.077-.147.076-.148.072-.15.072-.15.07-.151.067-.152.066-.153.064-.155.062-.155.06-.156.06-.156.056-.159.055-.158.053-.16.05-.16.05-.162.047-.162.045-.162.044-.163.041-.165.04-.166.036-.165.036-.168.033-.167.031-.168.03-.17.026-.17.025-.17.023-.17.02-.172.02-.173.016-.173.014-.174.013-.175.01-.174.008-.176.005-.177.003-.176.001-.178v-.177l-.004-.177-.005-.177-.009-.175-.01-.176-.012-.174-.014-.174-.016-.172-.02-.173-.02-.172-.023-.171-.025-.17-.027-.17-.029-.17-.03-.168-.034-.168-.036-.166-.036-.167-.04-.164-.041-.165-.044-.164-.045-.163-.047-.162-.05-.16-.05-.16-.053-.161-.055-.158-.057-.158-.058-.157-.06-.156-.063-.155-.064-.154-.066-.153-.067-.153-.07-.15-.072-.15-.072-.15-.076-.149-.077-.147-.077-.146-.08-.145-.082-.144-.084-.144-.085-.14-.086-.142-.089-.14-.09-.139-.092-.137-.093-.137-.095-.135-.096-.133-.098-.132-.1-.132-.101-.13-.103-.13-.104-.128-.106-.126-.107-.125-.108-.123-.11-.123-.112-.122-.113-.12-.114-.118-.116-.117-.117-.116-.118-.114-.12-.113-.122-.112-.123-.11-.123-.108-.125-.107-.126-.106-.128-.105-.13-.102-.13-.101-.132-.1-.132-.098-.134-.096-.135-.095-.136-.093-.137-.093-.14-.089-.14-.089-.14-.086-.141-.085-.144-.084-.144-.082-.145-.08-.147-.078-.146-.076-.149-.076-.15-.073-.15-.07-.15-.07-.153-.069-.153-.065-.154-.064-.155-.063-.156-.06-.157-.059-.158-.056-.158-.055-.16-.053-.16-.05-.161-.05-.162-.047-.163-.046-.164-.043-.165-.041-.165-.04-.166-.036-.166-.036-.169-.033-.168-.032-.169-.028-.17-.028-.17-.025-.171-.022-.172-.02-.173-.02-.172-.017-.174-.014-.174-.012-.176-.01-.175-.008-.177-.005-.177-.004h-.355z"
            fill="#004b8c"
          ></path>
        </g>
      </svg>