<svg id="Layer_1" data-name="Layer 1" xmlns="http://www.w3.org/2000/svg" viewBox="0 0 533.05 115.23">
  <defs>
    <style>.cls-1, .cls-2, .cls-3 {
      isolation: isolate;
    }

    .cls-2, .cls-3 {
      font-size: 81px;
      font-family: AirArabiaNormal, AirArabia Normal;
    }

    .cls-3, .cls-4 {
      fill: #e54325;
    }

    .cls-5 {
      fill: #fff;
    }</style>
  </defs>
  <g id="Group_10" data-name="Group 10">
    <g id="Zinsunion" class="cls-1">
      <text class="cls-2" transform="translate(133 80)">Zins</text>
      <text class="cls-3" transform="translate(304.88 80)">union</text>
    </g>
    <g id="Group_4" data-name="Group 4">
      <ellipse id="Ellipse_1" data-name="Ellipse 1" class="cls-4" cx="50" cy="50.5" rx="50" ry="50.5" />
      <g id="intersect">
        <path id="Path_1" data-name="Path 1" class="cls-5" d="M81.33,404.64h13.9V387.55A1.55,1.55,0,0,0,93.69,386h-31a1.55,1.55,0,0,0-1.54,1.55v31a1.54,1.54,0,0,0,1.54,1.54h17.1v-13.9A1.54,1.54,0,0,1,81.33,404.64Z" transform="translate(-37.6 -361.52)" />
        <path id="Path_2" data-name="Path 2" class="cls-5" d="M112.32,404.64H95.23v13.9a1.54,1.54,0,0,1-1.54,1.54H79.79v17.1a1.54,1.54,0,0,0,1.54,1.54h31a1.54,1.54,0,0,0,1.55-1.54v-31A1.54,1.54,0,0,0,112.32,404.64Z" transform="translate(-37.6 -361.52)" />
      </g>
    </g>
  </g>
</svg>