<svg width="141" height="141" viewBox="0 0 141 141" fill="none" xmlns="http://www.w3.org/2000/svg">
<circle opacity="0.2" cx="70.5" cy="70.5" r="70.5" fill="#ECB179"/>
<g clip-path="url(#clip0_2_711)">
<path d="M81.3658 58.3647C81.6419 58.4754 81.9265 58.5275 82.2068 58.5275C83.1059 58.5275 83.9571 57.9885 84.3115 57.1026L93.1089 35.1086C93.5738 33.9463 93.0086 32.6277 91.8468 32.1631C90.6841 31.6973 89.366 32.2635 88.9014 33.4252L80.104 55.4192C79.6388 56.5812 80.204 57.8998 81.3658 58.3647V58.3647Z" fill="#F08A5D"/>
<path d="M102.335 67.1911H89.8988C90.7761 66.8784 91.4051 66.0428 91.4051 65.0584V51.8621C91.4051 50.6107 90.3906 49.5962 89.1392 49.5962C87.8877 49.5962 86.8732 50.6107 86.8732 51.8621V62.7925H80.3414C79.09 62.7925 78.0755 63.807 78.0755 65.0584C78.0755 66.0431 78.7047 66.8784 79.5818 67.1911H71.544C70.2926 67.1911 69.2781 68.2056 69.2781 69.457V106.734C69.2781 107.985 70.2926 109 71.544 109C72.7954 109 73.8099 107.985 73.8099 106.734V80.5206H100.069V106.734C100.069 107.985 101.084 109 102.335 109C103.587 109 104.601 107.985 104.601 106.734V69.457C104.601 68.2056 103.587 67.1911 102.335 67.1911V67.1911ZM100.069 75.9885H73.8099V71.7229H100.069V75.9885Z" fill="#F08A5D"/>
<path d="M45.3653 56.4806C50.3094 56.4806 54.3318 52.4582 54.3318 47.5141C54.3318 42.57 50.3094 38.5474 45.3653 38.5474C40.4212 38.5474 36.3986 42.57 36.3986 47.5141C36.3986 52.4582 40.4212 56.4806 45.3653 56.4806Z" fill="#F08A5D"/>
<path d="M60.6279 76.9618H53.4864V67.862C53.4864 63.3841 49.8432 59.7407 45.3653 59.7407C40.8874 59.7407 37.244 63.3841 37.244 67.862V82.0176C37.244 86.3171 40.7417 89.8148 45.0412 89.8148H54.3074V106.751C54.3074 107.968 55.2942 108.955 56.5111 108.955H65.0667C66.2837 108.955 67.2704 107.968 67.2704 106.751V83.6042C67.2704 79.9414 64.2907 76.9618 60.6279 76.9618V76.9618ZM62.863 104.547H58.7148V87.6111C58.7148 86.3941 57.7281 85.4074 56.5111 85.4074H45.0412C43.172 85.4074 41.6514 83.8868 41.6514 82.0176V67.862C41.6514 65.8141 43.3174 64.1481 45.3653 64.1481C47.4129 64.1481 49.0789 65.8141 49.0789 67.862V79.1655C49.0789 80.3824 50.0657 81.3692 51.2827 81.3692H60.6279C61.8604 81.3692 62.863 82.3717 62.863 83.6042V104.547Z" fill="#F08A5D"/>
</g>
<defs>
<clipPath id="clip0_2_711">
<rect width="77" height="77" fill="white" transform="translate(32 32)"/>
</clipPath>
</defs>
</svg>
