<svg width="141" height="141" viewBox="0 0 141 141" fill="none" xmlns="http://www.w3.org/2000/svg">
<circle opacity="0.2" cx="70.5" cy="70.5" r="70.5" fill="#ECB179"/>
<g clip-path="url(#clip0_2_702)">
<path fill-rule="evenodd" clip-rule="evenodd" d="M70.4153 103.166V79.0409C70.4202 77.4952 71.0339 76.0142 72.1224 74.9212C73.2109 73.8282 74.6859 73.212 76.2252 73.207H99.0033C100.543 73.212 102.018 73.8282 103.106 74.9212C104.195 76.0142 104.808 77.4952 104.813 79.0409V103.166C104.808 104.712 104.195 106.193 103.106 107.286C102.018 108.379 100.543 108.995 99.0033 109H76.2252C74.6859 108.995 73.2109 108.379 72.1224 107.286C71.0339 106.193 70.4202 104.712 70.4153 103.166ZM72.1252 39.1874L84.3567 50.686H72.1252V39.1874ZM47.9305 75.4754C47.5828 75.4949 47.2568 75.6512 47.0231 75.9104C46.7895 76.1697 46.667 76.511 46.6824 76.8603C46.6714 77.034 46.6952 77.2082 46.7524 77.3726C46.8096 77.5369 46.899 77.6881 47.0154 77.8172C47.1317 77.9463 47.2726 78.0506 47.4298 78.1241C47.587 78.1976 47.7572 78.2388 47.9305 78.2451H63.2698V75.4754H47.9305ZM47.9305 85.3949C47.5828 85.4144 47.2568 85.5707 47.0231 85.8299C46.7895 86.0892 46.667 86.4305 46.6824 86.7798C46.6714 86.9535 46.6952 87.1277 46.7524 87.2921C46.8096 87.4564 46.899 87.6076 47.0154 87.7367C47.1317 87.8658 47.2726 87.9701 47.4298 88.0436C47.587 88.1171 47.7572 88.1583 47.9305 88.1646H63.2698V85.3949H47.9305ZM47.9305 55.6301C47.5828 55.6496 47.2568 55.8059 47.0231 56.0651C46.7895 56.3244 46.667 56.6657 46.6824 57.015C46.6723 57.1885 46.6967 57.3624 46.7542 57.5263C46.8117 57.6903 46.9012 57.8412 47.0174 57.9701C47.1335 58.099 47.2741 58.2034 47.4309 58.2771C47.5877 58.3509 47.7575 58.3926 47.9305 58.3998H62.1153C62.463 58.3804 62.789 58.2241 63.0227 57.9648C63.2563 57.7056 63.3787 57.3643 63.3634 57.015C63.3727 56.8416 63.3476 56.6681 63.2898 56.5045C63.232 56.3409 63.1425 56.1904 63.0265 56.0617C62.9105 55.9329 62.7702 55.8285 62.6138 55.7545C62.4575 55.6804 62.288 55.6381 62.1153 55.6301H47.9305ZM47.9305 45.7106C47.5828 45.7301 47.2568 45.8864 47.0231 46.1456C46.7895 46.4049 46.667 46.7462 46.6824 47.0955C46.6714 47.2692 46.6952 47.4434 46.7524 47.6078C46.8096 47.7721 46.899 47.9233 47.0154 48.0524C47.1317 48.1814 47.2726 48.2858 47.4298 48.3593C47.587 48.4328 47.7572 48.474 47.9305 48.4803H55.7312C56.0789 48.4609 56.4049 48.3046 56.6385 48.0453C56.8722 47.7861 56.9946 47.4448 56.9793 47.0955C56.9894 46.9219 56.965 46.7481 56.9075 46.5841C56.8499 46.4201 56.7605 46.2693 56.6443 46.1404C56.5281 46.0115 56.3876 45.9071 56.2308 45.8333C56.074 45.7595 55.9042 45.7178 55.7312 45.7106H47.9305ZM47.9305 65.5559C47.5828 65.5754 47.2568 65.7317 47.0231 65.9909C46.7895 66.2502 46.667 66.5914 46.6824 66.9408C46.6731 67.1141 46.6981 67.2876 46.756 67.4512C46.8138 67.6148 46.9033 67.7653 47.0193 67.8941C47.1353 68.0228 47.2756 68.1272 47.432 68.2013C47.5883 68.2753 47.7578 68.3176 47.9305 68.3256H71.9193C72.2663 68.3046 72.5914 68.1478 72.8247 67.8889C73.0581 67.63 73.1811 67.2896 73.1674 66.9408C73.1775 66.7672 73.153 66.5934 73.0955 66.4294C73.038 66.2654 72.9485 66.1146 72.8324 65.9857C72.7162 65.8568 72.5756 65.7524 72.4188 65.6786C72.2621 65.6048 72.0922 65.5631 71.9193 65.5559H47.9305ZM91.1652 52.3341C91.1657 51.8891 91.0215 51.4561 90.7546 51.101C90.4876 50.7458 90.1125 50.4879 89.6862 50.3665L71.6572 32.752C71.469 32.5167 71.2305 32.3269 70.9593 32.1967C70.6882 32.0666 70.3913 31.9993 70.0908 32H38.6632C38.1825 31.9992 37.7062 32.0936 37.2618 32.2777C36.8174 32.4619 36.4136 32.7322 36.0733 33.0733C35.7331 33.4144 35.4631 33.8194 35.279 34.2654C35.0948 34.7113 35 35.1893 35 35.672V98.5792C34.9991 99.0623 35.0935 99.5409 35.2777 99.9872C35.4619 100.434 35.7324 100.839 36.0734 101.18C36.7627 101.865 37.6932 102.25 38.6632 102.251H63.326V98.1468H39.0876V36.1107H68.0376V52.7288C68.0376 53.2756 68.2539 53.8 68.639 54.1866C69.024 54.5732 69.5462 54.7904 70.0908 54.7904H87.0651V68.2316H91.1652V52.3341ZM80.5562 89.8565H81.9603V87.6759C81.9644 86.1253 82.5817 84.6399 83.6765 83.5464C84.2148 83.0021 84.855 82.5701 85.5603 82.2753C86.2656 81.9805 87.022 81.8287 87.7859 81.8287C88.5499 81.8287 89.3063 81.9805 90.0115 82.2753C90.7168 82.5701 91.357 83.0021 91.8953 83.5464C92.4371 84.0877 92.8671 84.7312 93.1605 85.4399C93.4539 86.1485 93.6051 86.9084 93.6053 87.6759V89.8565H94.7223C94.8431 89.8565 94.959 89.9047 95.0444 89.9905C95.1299 90.0763 95.1779 90.1926 95.1779 90.314V99.9202C95.1779 100.041 95.1299 100.158 95.0444 100.244C94.959 100.329 94.8431 100.378 94.7223 100.378H80.5562C80.4354 100.378 80.3195 100.329 80.2341 100.244C80.1486 100.158 80.1006 100.041 80.1006 99.9202V90.314C80.1006 90.2539 80.1124 90.1944 80.1353 90.1389C80.1582 90.0834 80.1918 90.033 80.2341 89.9905C80.2764 89.948 80.3266 89.9143 80.3819 89.8913C80.4371 89.8684 80.4964 89.8565 80.5562 89.8565ZM84.2194 89.8565H91.3337V87.6383C91.332 87.1717 91.2385 86.7101 91.0586 86.2799C90.8787 85.8498 90.6159 85.4596 90.2853 85.1318C89.7886 84.6356 89.1571 84.2978 88.47 84.1606C87.7828 84.0235 87.0706 84.0931 86.4228 84.3608C85.7749 84.6285 85.2202 85.0824 84.8282 85.6655C84.4362 86.2485 84.2244 86.9348 84.2194 87.6383V89.8565ZM87.8015 95.1139L88.5067 98.4225H86.5347L87.1151 95.0513C86.7969 94.9696 86.5194 94.7741 86.3346 94.5016C86.1499 94.229 86.0705 93.8981 86.1115 93.571C86.1525 93.2439 86.311 92.943 86.5572 92.7249C86.8035 92.5068 87.1206 92.3864 87.4489 92.3864C87.7773 92.3864 88.0944 92.5068 88.3406 92.7249C88.5869 92.943 88.7454 93.2439 88.7864 93.571C88.8273 93.8981 88.748 94.229 88.5632 94.5016C88.3784 94.7741 88.1009 94.9696 87.7828 95.0513L87.8015 95.1139Z" fill="#F08A5D"/>
</g>
<defs>
<clipPath id="clip0_2_702">
<rect width="69.8133" height="77" fill="white" transform="translate(35 32)"/>
</clipPath>
</defs>
</svg>
