<svg xmlns="http://www.w3.org/2000/svg" width="42" height="20">
  <g fill="#FFF">
    <path
      d="M9.845 4.477L5.284 16.968c-.69 1.907-1.798 2.47-3.512 2.47-.336 0-.646-.017-1.008-.06v-1.402h.983c1.067 0 1.63-.479 1.966-1.336.126-.31.252-.672.378-1.008L.034 4.477h1.84l1.528 4.494c.546 1.571 1.05 3.117 1.546 4.662a169.334 169.334 0 0 1 1.545-4.687l1.529-4.477h1.823v.008zm10.399 5.981h-8.198c.168 2.428 1.444 3.536 3.326 3.536 1.529 0 2.486-.798 2.864-2.007h1.74c-.522 2.033-2.076 3.536-4.646 3.536-2.948 0-5.023-2.159-5.023-5.645 0-3.385 1.99-5.644 4.981-5.644 3.226 0 4.956 2.553 4.956 5.644v.58zm-8.156-1.512h6.358c-.168-1.78-1.234-3.2-3.158-3.2-1.697 0-2.932 1.066-3.2 3.2zm9.727 2.89h1.697c.184 1.63.982 2.234 2.89 2.234 1.822 0 2.595-.605 2.595-1.672 0-.966-.588-1.402-2.47-1.755l-1.008-.185c-2.343-.437-3.368-1.504-3.368-3.184 0-1.84 1.461-3.057 3.931-3.057 2.89 0 4.351 1.277 4.393 3.578h-1.671c-.084-1.671-1.067-2.133-2.722-2.133-1.445 0-2.26.588-2.26 1.587 0 1.025.798 1.403 2.176 1.672l.966.185c2.654.52 3.721 1.42 3.721 3.183 0 2.05-1.63 3.226-4.292 3.226-2.739 0-4.41-1.143-4.578-3.68zm20.143-6.838c0 2.764-2.234 4.956-5.107 4.956-2.89 0-5.124-2.192-5.124-4.956 0-2.764 2.234-4.956 5.124-4.956 2.864 0 5.107 2.192 5.107 4.956zm-1.05 0C40.908 2.764 39.152 1 36.851 1c-2.319 0-4.083 1.755-4.083 3.998 0 2.234 1.756 3.973 4.083 3.973 2.301 0 4.057-1.739 4.057-3.973zM38.9 6.778c.017.354.084.547.252.816h-.94c-.143-.185-.185-.462-.21-.815l-.042-.546c-.042-.588-.21-.773-.731-.773h-1.445v2.134h-.924V2.276h2.268c1.126 0 1.865.521 1.865 1.487 0 .479-.168.983-.773 1.252.395.168.588.504.63.983l.05.78zm-.856-2.914c0-.504-.311-.756-.924-.756h-1.336V4.62h1.42c.529 0 .84-.269.84-.756z"/>
  </g>
</svg>
