<svg xmlns="http://www.w3.org/2000/svg" version="1.1" baseProfile="basic" id="Grafik" x="0px" y="0px" width="750px"
     height="97.944px" viewBox="0 0 750 97.944" xml:space="preserve">
  <style type="text/css">
    .st0 {
      fill: #929292;
    }

    .st1 {
      fill: none;
      stroke: #D7D7D7;
      stroke-width: 0.5;
      stroke-miterlimit: 10;
    }

    .st2 {
      fill: #3A8DFF;
    }

    .st3 {
      fill: #E8F0F9;
    }

    .st4 {
      fill: #004B8C;
    }

    .st5 {
      fill: #FBDD32;
    }

    .st6 {
      fill: none;
      stroke: #929292;
      stroke-miterlimit: 10;
    }

    .st7 {
      fill: #404040;
    }

    .st8 {
      fill: #FFFFFF;
    }

    .st9 {
      fill: #D0E2F3;
    }

    .st10 {
      fill: none;
      stroke: #004B8C;
      stroke-width: 0.5;
      stroke-linecap: round;
      stroke-linejoin: round;
      stroke-miterlimit: 10;
    }

    .st11 {
      fill: none;
      stroke: #004B8C;
      stroke-miterlimit: 10;
    }

    .st12 {
      fill: none;
      stroke: #004B8C;
      stroke-width: 0.5;
      stroke-miterlimit: 10;
    }

    .st13 {
      fill: none;
      stroke: #004B8C;
      stroke-width: 0.3;
      stroke-linecap: round;
      stroke-linejoin: round;
      stroke-miterlimit: 10;
    }

    .st14 {
      fill: none;
    }

    .st15 {
      fill: #F3F3F3;
    }

    .st16 {
      fill: #F3F7FC;
    }

    .st17 {
      fill: none;
      stroke: #F3F7FC;
      stroke-width: 0;
      stroke-linecap: round;
      stroke-linejoin: round;
    }

    .st18 {
      fill: #598AB4;
    }

    .st19 {
      fill-rule: evenodd;
      clip-rule: evenodd;
      fill: #E8F0F9;
    }

    .st20 {
      fill-rule: evenodd;
      clip-rule: evenodd;
      fill: #156CC4;
      fill-opacity: 0.2;
    }

    .st21 {
      fill: none;
      stroke: #D7D7D7;
      stroke-width: 1.5;
      stroke-linecap: round;
      stroke-miterlimit: 10;
    }

    .st22 {
      fill: none;
      stroke: #004B8C;
      stroke-width: 1.5;
      stroke-linecap: round;
      stroke-linejoin: round;
      stroke-miterlimit: 10;
    }

    .st23 {
      fill: none;
      stroke: #3A8DFF;
      stroke-linecap: round;
      stroke-linejoin: round;
      stroke-miterlimit: 10;
    }

    .st24 {
      fill: #004B8C;
      stroke: #004B8C;
      stroke-width: 1.5;
      stroke-miterlimit: 10;
    }

    .st25 {
      fill: #004B8C;
      stroke: #004B8C;
      stroke-width: 1.5;
      stroke-linecap: round;
      stroke-linejoin: round;
      stroke-miterlimit: 10;
    }

    .st26 {
      fill: #FFFFFF;
      stroke: #004B8C;
      stroke-width: 1.5;
      stroke-linecap: round;
      stroke-linejoin: round;
      stroke-miterlimit: 10;
    }

    .st27 {
      fill: none;
      stroke: #004B8C;
      stroke-width: 1.5;
      stroke-miterlimit: 10;
    }

    .st28 {
      fill: none;
      stroke: #D7D7D7;
      stroke-width: 1.4727;
      stroke-linecap: round;
      stroke-miterlimit: 10;
    }

    .st29 {
      fill: none;
      stroke: #004B8C;
      stroke-linecap: round;
      stroke-linejoin: round;
      stroke-miterlimit: 10;
    }

    .st30 {
      fill: #FFFFFF;
      stroke: #004B8C;
      stroke-linecap: round;
      stroke-linejoin: round;
      stroke-miterlimit: 10;
    }

    .st31 {
      fill: none;
      stroke: #004B8C;
      stroke-width: 1.4727;
      stroke-linecap: round;
      stroke-linejoin: round;
      stroke-miterlimit: 10;
    }

    .st32 {
      fill: #FFFFFF;
      stroke: #004B8C;
      stroke-width: 1.4727;
      stroke-linecap: round;
      stroke-linejoin: round;
      stroke-miterlimit: 10;
    }

    .st33 {
      fill: #004B8C;
      stroke: #004B8C;
      stroke-width: 1.4727;
      stroke-linecap: round;
      stroke-linejoin: round;
      stroke-miterlimit: 10;
    }

    .st34 {
      fill: #FFFFFF;
      stroke: #D7D7D7;
      stroke-width: 1.4727;
      stroke-miterlimit: 10;
    }

    .st35 {
      fill: #FFFFFF;
      stroke: #D7D7D7;
      stroke-width: 1.5;
      stroke-miterlimit: 10;
    }

    .st36 {
      fill: #E8F0F9;
      stroke: #004B8C;
      stroke-linecap: round;
      stroke-linejoin: round;
      stroke-miterlimit: 10;
    }

    .st37 {
      fill: none;
      stroke: #D7D7D7;
      stroke-linecap: round;
      stroke-miterlimit: 10;
    }

    .st38 {
      fill: #004B8C;
      stroke: #004B8C;
      stroke-linecap: round;
      stroke-linejoin: round;
      stroke-miterlimit: 10;
    }

    .st39 {
      fill: none;
      stroke: #156CC4;
      stroke-linecap: round;
      stroke-linejoin: round;
      stroke-miterlimit: 10;
    }

    .st40 {
      fill: #3A8DFF;
      stroke: #FFFFFF;
      stroke-miterlimit: 10;
    }

    .st41 {
      fill: #FFFFFF;
      stroke: #004B8C;
      stroke-miterlimit: 10;
    }

    .st42 {
      fill: none;
      stroke: #D7D7D7;
      stroke-width: 0.4912;
      stroke-miterlimit: 10;
    }

    .st43 {
      fill: none;
      stroke: #D9D9D9;
      stroke-width: 1.4736;
      stroke-linejoin: round;
      stroke-miterlimit: 10;
    }

    .st44 {
      fill: none;
      stroke: #D9D9D9;
      stroke-width: 0.968;
      stroke-linejoin: round;
      stroke-miterlimit: 10;
    }

    .st45 {
      fill: none;
      stroke: #004B8C;
      stroke-linecap: round;
      stroke-linejoin: round;
    }

    .st46 {
      fill: #004B8C;
      stroke: #004B8C;
      stroke-width: 0.3;
      stroke-miterlimit: 10;
    }

    .st47 {
      fill: none;
      stroke: #004B8C;
      stroke-linecap: round;
      stroke-miterlimit: 10;
    }

    .st48 {
      fill: #FAE6E4;
    }

    .st49 {
      fill: none;
      stroke: #D7D7D7;
      stroke-linecap: round;
      stroke-linejoin: round;
      stroke-miterlimit: 10;
    }

    .st50 {
      fill: none;
      stroke: #929292;
      stroke-linecap: round;
      stroke-linejoin: round;
      stroke-miterlimit: 10;
    }

    .st51 {
      fill: none;
      stroke: #922C1C;
      stroke-linecap: round;
      stroke-linejoin: round;
      stroke-miterlimit: 10;
    }

    .st52 {
      fill: #EEEEEE;
    }

    .st53 {
      fill: #E5F8E0;
    }

    .st54 {
      fill: none;
      stroke: #1BAD2B;
      stroke-linecap: round;
      stroke-linejoin: round;
      stroke-miterlimit: 10;
    }
  </style>
  <g>
    <g>
      <g>
        <path class="st9"
              d="M346.521,48.205c2.624,7.077-0.515,14.004-6.768,17.967c3.487-0.581,6.627-2.753,8.575-5.689     c1.948-2.936,2.988-6.491,2.637-10.001c-0.405-4.048-2.615-8.086-5.833-10.598s-9.014-3.424-12.832-2.341     C337.401,37.92,343.708,40.617,346.521,48.205z"/>
        <path class="st29"
              d="M350.811,48.519c0.97,4.199,0.127,8.792-2.698,12.497c-5.022,6.588-14.407,7.878-20.962,2.882     c-1.218-0.928-2.252-2.008-3.097-3.194"/>
        <path class="st29"
              d="M321.757,55.743c-1.09-4.285-0.278-9.02,2.62-12.821c5.022-6.588,14.407-7.878,20.962-2.882     c1.075,0.82,2.008,1.758,2.793,2.782"/>
      </g>
      <g>
        <polyline class="st29" points="359.333,42.301 359.96,36.308 353.96,35.76    "/>
        <polyline class="st29"
                  points="309.976,68.992 328.339,53.959 331.144,55.753 337.964,49.874 341.188,51.935 359.551,36.635         "/>
      </g>
    </g>
    <g>
      <g>
        <path class="st41"
              d="M435.299,83.921h-47.153c-2.14,0-3.875-1.735-3.875-3.875V17.899c0-2.14,1.735-3.875,3.875-3.875h47.149     c2.14,0,3.875,1.735,3.875,3.875v20.96V80.05C439.17,82.188,437.437,83.921,435.299,83.921z"/>
        <path class="st9"
              d="M434.812,13.257h-46.184c-2.879,0-5.212,2.334-5.212,5.212v0h56.608v0     C440.024,15.591,437.691,13.257,434.812,13.257z"/>
        <path class="st9"
              d="M434.562,84.687V59.781V13.403l0,0c2.545,0,4.608,2.063,4.608,4.608V80.08     C439.17,82.624,437.107,84.687,434.562,84.687z"/>
        <g>
          <g>
            <path class="st11"
                  d="M435.299,83.921h-47.153c-2.14,0-3.875-1.735-3.875-3.875V17.899c0-2.14,1.735-3.875,3.875-3.875h47.149       c2.14,0,3.875,1.735,3.875,3.875v20.96V80.05C439.17,82.188,437.437,83.921,435.299,83.921z"/>
            <line class="st29" x1="396.566" y1="38.653" x2="426.874" y2="38.653"/>
            <line class="st29" x1="392.847" y1="43.199" x2="430.593" y2="43.199"/>
            <line class="st29" x1="396.566" y1="77.806" x2="426.874" y2="77.806"/>
            <line class="st29" x1="396.566" y1="72.481" x2="426.874" y2="72.481"/>
          </g>
        </g>
      </g>
      <g>
        <path class="st4"
              d="M403.553,31.61h-2.78l-2.867-5.529h-0.048c0.067,0.869,0.102,1.533,0.102,1.992v3.537h-1.879v-7.848h2.771     l2.855,5.453h0.032c-0.05-0.791-0.075-1.426-0.075-1.904v-3.549h1.89V31.61z"/>
        <path class="st4"
              d="M409.909,31.61h-4.66v-7.848h4.66v1.701h-2.539v1.234h2.352v1.703h-2.352v1.48h2.539V31.61z"/>
        <path class="st4"
              d="M419.761,31.61h-2.507l-0.752-3.42c-0.035-0.143-0.092-0.428-0.169-0.854s-0.133-0.781-0.169-1.068     c-0.028,0.232-0.075,0.521-0.14,0.867s-0.128,0.664-0.19,0.953c-0.062,0.291-0.323,1.465-0.781,3.521h-2.507l-1.943-7.848h2.045     l0.854,3.934c0.193,0.871,0.326,1.562,0.397,2.078c0.047-0.365,0.13-0.861,0.25-1.486c0.12-0.627,0.231-1.146,0.335-1.557     l0.693-2.969h1.965l0.671,2.969c0.114,0.475,0.23,1.025,0.349,1.648c0.118,0.621,0.197,1.088,0.236,1.395     c0.047-0.396,0.174-1.086,0.381-2.066l0.87-3.945h2.045L419.761,31.61z"/>
        <path class="st4"
              d="M427.841,29.227c0,0.486-0.123,0.918-0.37,1.297c-0.247,0.377-0.604,0.67-1.068,0.879     c-0.466,0.211-1.012,0.314-1.638,0.314c-0.522,0-0.961-0.037-1.315-0.109c-0.354-0.074-0.723-0.201-1.105-0.385v-1.889     c0.404,0.207,0.824,0.369,1.261,0.486c0.438,0.115,0.838,0.174,1.203,0.174c0.314,0,0.546-0.055,0.692-0.164     s0.22-0.25,0.22-0.422c0-0.107-0.029-0.201-0.088-0.281c-0.06-0.08-0.154-0.162-0.285-0.244c-0.13-0.082-0.479-0.25-1.044-0.504     c-0.512-0.234-0.896-0.459-1.151-0.678s-0.445-0.469-0.569-0.752c-0.123-0.281-0.186-0.617-0.186-1.004     c0-0.723,0.264-1.285,0.79-1.691c0.525-0.404,1.249-0.605,2.169-0.605c0.812,0,1.641,0.188,2.485,0.562l-0.649,1.639     c-0.734-0.336-1.367-0.506-1.9-0.506c-0.276,0-0.477,0.049-0.602,0.146c-0.125,0.096-0.188,0.217-0.188,0.359     c0,0.154,0.079,0.291,0.238,0.412c0.159,0.123,0.592,0.344,1.297,0.666c0.676,0.305,1.146,0.631,1.409,0.98     S427.841,28.698,427.841,29.227z"/>
      </g>
      <g id="ws-sad_2_" transform="translate(21.000000, 20.000000)">
        <path id="_xE88D__2_" class="st4"
              d="M390.308,47.789c-0.669,0-1.331-0.063-1.986-0.188c-0.655-0.125-1.289-0.317-1.903-0.575     s-1.192-0.568-1.735-0.93c-0.558-0.376-1.08-0.801-1.568-1.275c-0.474-0.488-0.899-1.004-1.275-1.547     c-0.362-0.558-0.669-1.143-0.92-1.756c-0.251-0.613-0.446-1.248-0.585-1.903c-0.125-0.641-0.188-1.303-0.188-1.986     c0-0.683,0.063-1.352,0.188-2.007c0.139-0.655,0.335-1.286,0.585-1.892c0.251-0.606,0.558-1.188,0.92-1.746     c0.376-0.558,0.801-1.073,1.275-1.547c0.488-0.488,1.011-0.913,1.568-1.275c0.544-0.376,1.122-0.69,1.735-0.941     s1.248-0.439,1.903-0.565c0.655-0.139,1.317-0.209,1.986-0.209c0.683,0,1.352,0.07,2.007,0.209     c0.655,0.125,1.286,0.314,1.892,0.565c0.606,0.251,1.188,0.565,1.746,0.941c0.558,0.362,1.073,0.788,1.547,1.275     c0.488,0.474,0.913,0.99,1.275,1.547c0.376,0.558,0.69,1.139,0.941,1.746c0.251,0.606,0.439,1.237,0.565,1.892     c0.139,0.655,0.209,1.324,0.209,2.007c0,0.683-0.07,1.345-0.209,1.986c-0.125,0.655-0.314,1.289-0.565,1.903     c-0.251,0.613-0.565,1.199-0.941,1.756c-0.362,0.544-0.788,1.059-1.275,1.547c-0.474,0.474-0.99,0.899-1.547,1.275     c-0.558,0.362-1.139,0.673-1.746,0.93c-0.606,0.258-1.237,0.45-1.892,0.575C391.66,47.727,390.991,47.789,390.308,47.789z      M390.308,28.533c-1.254,0-2.432,0.237-3.534,0.711c-1.101,0.474-2.063,1.122-2.885,1.944c-0.822,0.822-1.478,1.791-1.965,2.906     c-0.474,1.101-0.711,2.279-0.711,3.533c0,1.255,0.237,2.432,0.711,3.533c0.488,1.101,1.143,2.063,1.965,2.885     c0.822,0.822,1.784,1.478,2.885,1.965c1.101,0.474,2.279,0.711,3.534,0.711c1.255,0,2.439-0.237,3.554-0.711     c1.101-0.488,2.063-1.143,2.885-1.965c0.822-0.822,1.471-1.784,1.944-2.885c0.488-1.101,0.732-2.279,0.732-3.533     c0-1.255-0.244-2.432-0.732-3.533c-0.474-1.115-1.122-2.084-1.944-2.906c-0.822-0.822-1.784-1.471-2.885-1.944     C392.747,28.77,391.563,28.533,390.308,28.533z M387.109,34.952c-0.446,0-0.826-0.157-1.139-0.47s-0.47-0.693-0.47-1.14     c0-0.446,0.157-0.826,0.47-1.139s0.693-0.47,1.139-0.47s0.826,0.157,1.14,0.47c0.314,0.314,0.47,0.693,0.47,1.139     c0,0.446-0.157,0.826-0.47,1.14C387.935,34.795,387.555,34.952,387.109,34.952z M387.109,32.798     c-0.153,0-0.282,0.052-0.387,0.157c-0.105,0.105-0.157,0.233-0.157,0.387s0.052,0.282,0.157,0.387     c0.105,0.105,0.233,0.157,0.387,0.157c0.139,0,0.261-0.052,0.366-0.157s0.157-0.233,0.157-0.387s-0.052-0.282-0.157-0.387     S387.249,32.798,387.109,32.798z M393.528,34.952c-0.446,0-0.826-0.157-1.139-0.47s-0.47-0.693-0.47-1.14     c0-0.446,0.157-0.826,0.47-1.139s0.693-0.47,1.139-0.47s0.826,0.157,1.139,0.47s0.47,0.693,0.47,1.139     c0,0.446-0.157,0.826-0.47,1.14S393.974,34.952,393.528,34.952z M393.528,32.798c-0.153,0-0.282,0.052-0.387,0.157     c-0.105,0.105-0.157,0.233-0.157,0.387s0.052,0.282,0.157,0.387c0.105,0.105,0.233,0.157,0.387,0.157s0.282-0.052,0.387-0.157     c0.105-0.105,0.157-0.233,0.157-0.387s-0.052-0.282-0.157-0.387C393.81,32.851,393.681,32.798,393.528,32.798z M394.594,40.238     c0.056,0,0.112,0.007,0.167,0.021s0.112,0.042,0.167,0.084c0.112,0.084,0.178,0.199,0.199,0.345s-0.01,0.282-0.094,0.408     c-0.265,0.348-0.572,0.669-0.92,0.962c-0.348,0.293-0.718,0.544-1.108,0.753c-0.418,0.209-0.854,0.366-1.307,0.47     c-0.453,0.105-0.91,0.157-1.37,0.157c-0.474,0-0.934-0.052-1.38-0.157s-0.878-0.261-1.296-0.47     c-0.404-0.209-0.777-0.46-1.119-0.753c-0.342-0.293-0.652-0.613-0.93-0.962c-0.084-0.125-0.115-0.261-0.094-0.408     c0.021-0.146,0.087-0.261,0.199-0.345c0.125-0.084,0.261-0.115,0.408-0.094s0.261,0.087,0.345,0.199     c0.46,0.613,1.028,1.087,1.704,1.422s1.397,0.502,2.164,0.502c0.753,0,1.467-0.167,2.143-0.502     c0.676-0.335,1.244-0.808,1.704-1.422c0.056-0.07,0.122-0.122,0.199-0.157S394.525,40.238,394.594,40.238z"/>
      </g>
    </g>
  </g>
</svg>
