<svg xmlns="http://www.w3.org/2000/svg" xmlns:xlink="http://www.w3.org/1999/xlink" version="1.1" baseProfile="basic"
     x="0px" y="0px" width="320px" height="309.009px" viewBox="0 0 320 309.009" xml:space="preserve">
<style type="text/css">
	.st0 {
    fill: #FFFFFF;
  }

  .st1 {
    fill: #D0E2F3;
  }

  .st2 {
    fill: none;
    stroke: #004B8C;
    stroke-miterlimit: 10;
  }

  .st3 {
    fill: none;
    stroke: #004B8C;
    stroke-linecap: round;
    stroke-linejoin: round;
    stroke-miterlimit: 10;
  }

  .st4 {
    fill: #E6411A;
  }

  .st5 {
    fill: #003554;
  }

  .st6 {
    fill: #004B8C;
    stroke: #004B8C;
    stroke-linecap: round;
    stroke-linejoin: round;
    stroke-miterlimit: 10;
  }

  .st7 {
    fill: none;
    stroke: #D7D7D7;
    stroke-linecap: round;
    stroke-miterlimit: 10;
  }

  .st8 {
    fill: none;
    stroke: #D7D7D7;
    stroke-linecap: round;
    stroke-linejoin: round;
    stroke-miterlimit: 10;
  }

  .st9 {
    fill: #404040;
  }

  .st10 {
    fill: #3A8DFF;
    stroke: #004B8C;
    stroke-linecap: round;
    stroke-linejoin: round;
    stroke-miterlimit: 10;
  }

  .st11 {
    fill: #FFFFFF;
    stroke: #004B8C;
    stroke-linecap: round;
    stroke-linejoin: round;
    stroke-miterlimit: 10;
  }

  .st12 {
    fill: #004B8C;
  }

  .st13 {
    fill: #D0E2F3;
    stroke: #004B8C;
    stroke-linecap: round;
    stroke-linejoin: round;
    stroke-miterlimit: 10;
  }

  .st14 {
    fill: #FFFFFF;
    stroke: #004B8C;
    stroke-miterlimit: 10;
  }

  .st15 {
    fill: none;
    stroke: #004B8C;
    stroke-linecap: round;
    stroke-miterlimit: 10;
  }

  .st16 {
    fill: none;
    stroke: #D7D7D7;
    stroke-miterlimit: 10;
  }

  .st17 {
    fill: #929292;
  }

  .st18 {
    fill: none;
    stroke: #D7D7D7;
    stroke-width: 0.5;
    stroke-miterlimit: 10;
  }

  .st19 {
    fill: #3A8DFF;
  }

  .st20 {
    fill: #D7D7D7;
  }

  .st21 {
    fill: none;
    stroke: #3A8DFF;
    stroke-width: 0.8394;
    stroke-linecap: round;
    stroke-linejoin: round;
    stroke-miterlimit: 10;
    stroke-dasharray: 2, 2;
  }

  .st22 {
    fill: none;
    stroke: #3A8DFF;
    stroke-miterlimit: 10;
  }

  .st23 {
    fill: none;
    stroke: #3A8DFF;
    stroke-width: 0.8394;
    stroke-linecap: round;
    stroke-linejoin: round;
  }

  .st24 {
    fill: none;
    stroke: #3A8DFF;
    stroke-width: 0.8394;
    stroke-linecap: round;
    stroke-linejoin: round;
    stroke-dasharray: 2.0089, 2.0089;
  }

  .st25 {
    fill: none;
    stroke: #3A8DFF;
    stroke-width: 0.8394;
    stroke-linecap: round;
    stroke-linejoin: round;
    stroke-dasharray: 2.125, 2.125;
  }

  .st26 {
    fill: none;
    stroke: #3A8DFF;
    stroke-width: 0.8394;
    stroke-linecap: round;
    stroke-linejoin: round;
    stroke-dasharray: 2.0602, 2.0602;
  }

  .st27 {
    fill: none;
  }

  .st28 {
    fill: #D8E8FF;
  }

  .st29 {
    fill: #A1C4E7;
  }

  .st30 {
    fill: #598AB4;
  }

  .st31 {
    fill: #F3F7FC;
  }

  .st32 {
    fill: none;
    stroke: #F3F7FC;
    stroke-width: 0;
    stroke-linecap: round;
    stroke-linejoin: round;
  }

  .st33 {
    fill: #3A8DFF;
    stroke: #004B8C;
    stroke-miterlimit: 10;
  }

  .st34 {
    fill: #7FB5FF;
  }

  .st35 {
    fill: #D8E8FF;
    stroke: #004B8C;
    stroke-miterlimit: 10;
  }

  .st36 {
    fill: #598AB4;
    stroke: #004B8C;
    stroke-miterlimit: 10;
  }

  .st37 {
    fill: #E8F0F9;
  }

  .st38 {
    fill: none;
    stroke: #3A8DFF;
    stroke-linecap: round;
    stroke-linejoin: round;
    stroke-miterlimit: 10;
  }

  .st39 {
    fill: none;
    stroke: #004B8C;
    stroke-width: 1.296;
    stroke-linecap: round;
    stroke-linejoin: round;
    stroke-miterlimit: 10;
  }

  .st40 {
    fill: #FFFFFF;
    fill-opacity: 0.8;
  }
</style>
  <g id="Grafik">
</g>
  <g id="Grafik_fertig">
	<g>
		<g>
			<path class="st1"
            d="M259.284,203.002c-0.281-0.069-0.702,0.043-0.988,0.001c-0.1-0.015-0.616,0.42-0.749,1.133     c-0.3,1.609-0.317,2.724-0.194,4.356c0.081,1.082,0.87,1.533,1.509,1.655c0.049,0.009-0.009-0.185,0.026-0.221     c0.024-0.025,0.029-0.062,0.032-0.096c0.201-2.102,0.147-4.227-0.161-6.316"/>
      <path class="st1"
            d="M258.951,214.929c-0.308-0.368-0.958-0.185-1.216,0.22c-0.258,0.405-0.241,0.919-0.226,1.398     c0.04,1.232,0.016,2.466-0.071,3.696c-0.042,0.593-0.103,1.201-0.373,1.73c-0.369,0.724-1.092,1.215-1.857,1.491     s-1.582,0.367-2.386,0.486c-0.254,0.038-0.518,0.083-0.727,0.232c-0.209,0.15-0.342,0.437-0.235,0.671     c0.131,0.286,0.51,0.333,0.824,0.339c1.971,0.035,3.943,0.004,5.912-0.093c0.074-0.004,0.154-0.01,0.209-0.058     c0.064-0.055,0.076-0.148,0.084-0.232c0.302-3.133,0.373-6.288,0.212-9.431c-0.003-0.068-0.01-0.143-0.058-0.191     c-0.049-0.048-0.153-0.036-0.162,0.032"/>
      <path class="st1"
            d="M274.569,224.951c-2.26,0.07-4.52,0.15-6.78,0.22c-0.45,0.01-1.01-0.05-1.16-0.47     c-0.1-0.3,0.1-0.64,0.38-0.8c0.27-0.16,0.6-0.19,0.91-0.21c0.85-0.07,1.7-0.14,2.55-0.2c0.31-0.03,0.67-0.09,0.81-0.36     c0.14-0.28-0.05-0.61-0.22-0.87c-1.76-2.61-3.57-5.66-5.08-8.48c-0.19-0.36-0.19-0.78,0-1.14     c0.275-0.561,1.364-1.446,1.665-2.074c0.397-0.827,0.701-1.695,0.867-2.598c0.141-0.764,0.209-1.532,0.137-2.309     c-0.04-0.476-0.441-2.539-1.74-3.905c-1.319-1.386-3.543-2.073-4.49-2.415c-1.88-0.69-3.88-0.93-5.87-1.17l1.56-0.02     c-0.01-0.14-0.03-0.29-0.05-0.43c1.27-0.26,2.57-0.37,3.86-0.25c1.27,0.12,2.51,0.47,3.74,0.81c1.22,0.34,2.47,0.7,3.46,1.49     c0.92,0.73,1.54,1.78,2.05,2.84c0.32,0.64,0.61,1.31,0.65,2.03c0.027,0.435-0.044,0.869-0.117,1.296     c-0.141,0.775-0.282,1.55-0.423,2.325c-0.098,0.524-0.183,1.066-0.43,1.539c-0.71,1.38-2.51,1.85-3.45,3.09     c-0.06,0.08-0.13,0.16-0.21,0.22C269.649,217.061,272.109,221.002,274.569,224.951z"/>
      <path class="st1"
            d="M232.158,219.521c-2.088-0.645-3.558-2.602-4.205-4.689s-0.602-4.317-0.552-6.501     c0.078-3.371,0.155-6.742,0.233-10.112c0.001-0.061,0.003-0.124,0.033-0.177c0.069-0.126,0.245-0.133,0.389-0.123     c0.564,0.038,1.128,0.075,1.693,0.113c0.239,4.893,0.307,9.794,0.202,14.692c-0.026,1.238-0.061,2.498,0.268,3.691     s1.086,2.335,2.229,2.812"/>
      <path class="st1"
            d="M243.54,197.797c-0.136,2.249,0.306,3.921,0.17,6.17c-0.127,2.099-0.209,5.859-0.247,8.494     c-0.02,1.426-1.056,5.656-1.978,7.561c-0.759,1.569-3.211,2.459-3.542,2.621c-0.99,0.486-7.474,1.99-9.575,1.478     c-0.126,0.474,0.477,0.785,0.954,0.9c1.071,0.259,2.147,0.519,3.245,0.615c2.346,0.206,4.686-0.342,6.977-0.885     c0.369-0.087,0.748-0.18,1.055-0.402c0.364-0.263,0.583-0.677,0.889-1.006c0.202-0.217,0.441-0.396,0.673-0.58     c1.476-1.176,3.844-5.635,3.764-5.964c-0.211-0.871-0.216-1.777-0.22-2.673c-0.024-5.297-0.048-10.594-0.071-15.89     c-0.572,0.081-1.163,0.025-1.709-0.161"/>
      <path class="st1"
            d="M209.047,213.554c-0.233-0.033-0.46,0.189-0.624,0.497c-0.164,0.308-0.275,0.695-0.382,1.078     c-0.104,0.373-0.208,0.751-0.268,1.157c-0.075,0.509-0.077,1.044-0.079,1.572c-0.001,0.174-0.001,0.349,0.021,0.518     c0.062,0.485,0.301,0.84,0.559,0.994c0.258,0.154,0.535,0.141,0.805,0.127c0.037-1.848,0.031-3.7-0.019-5.547"/>
      <path class="st1"
            d="M209.047,203.416c-0.233-0.028-0.46,0.163-0.624,0.429c-0.164,0.266-0.275,0.6-0.382,0.931     c-0.104,0.322-0.208,0.649-0.268,0.999c-0.075,0.44-0.077,0.901-0.079,1.357c-0.001,0.15-0.001,0.301,0.021,0.447     c0.062,0.419,0.301,0.725,0.559,0.858c0.258,0.133,0.535,0.122,0.805,0.109c0.037-1.596,0.031-3.194-0.019-4.789"/>
      <path class="st1"
            d="M215.173,197.748c0.466,0.319,0.54,0.964,0.57,1.528c0.041,0.778,0.053,1.646-0.467,2.226     c-0.252,0.281-0.6,0.455-0.949,0.6c-1.337,0.554-2.791,0.757-4.232,0.896c-0.237,0.023-0.495,0.054-0.663,0.222     s-0.148,0.524,0.082,0.583c0.087,0.022,0.178-0.002,0.265-0.026c0.394-0.107,0.799-0.198,1.207-0.176     c0.454,0.024,0.887,0.186,1.333,0.275c1.458,0.29,2.959-0.214,4.444-0.134c0.36,0.019,0.764,0.06,1.036-0.176     c0.278-0.24,0.291-0.658,0.283-1.025c-0.025-1.151-0.054-2.304-0.17-3.45c-0.042-0.415-0.116-0.869-0.432-1.141     c-0.165-0.142-0.379-0.215-0.592-0.257c-0.457-0.09-0.939-0.047-1.373,0.121"/>
      <path class="st1"
            d="M214.628,208.036c0.466,0.319,0.54,0.964,0.57,1.528c0.041,0.778,0.053,1.646-0.467,2.226     c-0.252,0.281-0.6,0.455-0.949,0.6c-1.337,0.554-2.791,0.757-4.232,0.896c-0.237,0.023-0.495,0.054-0.663,0.222     c-0.168,0.169-0.148,0.524,0.082,0.583c0.087,0.022,0.178-0.002,0.265-0.026c0.394-0.107,0.799-0.198,1.207-0.176     c0.454,0.024,0.887,0.186,1.333,0.275c1.458,0.29,2.959-0.214,4.444-0.134c0.36,0.019,0.764,0.06,1.036-0.176     c0.278-0.24,0.291-0.658,0.283-1.025c-0.025-1.151-0.054-2.304-0.17-3.45c-0.042-0.415-0.116-0.869-0.432-1.141     c-0.165-0.142-0.379-0.215-0.592-0.257c-0.457-0.09-0.939-0.047-1.373,0.121"/>
      <path class="st1"
            d="M215.21,219.123c0.466,0.319,0.54,0.964,0.57,1.528c0.041,0.778,0.053,1.646-0.467,2.226     c-0.252,0.281-0.6,0.455-0.949,0.6c-1.337,0.554-10.64,0.475-12.081,0.614c-0.237,0.023-0.495,0.054-0.663,0.222     c-0.168,0.169-0.148,0.524,0.082,0.583c0.087,0.022,0.178-0.002,0.265-0.026c0.394-0.107,8.648,0.084,9.056,0.106     c0.454,0.024,0.887,0.186,1.333,0.275c1.458,0.29,2.959-0.214,4.444-0.134c0.36,0.019,0.764,0.06,1.036-0.176     c0.278-0.24,0.291-0.658,0.283-1.025c-0.025-1.151-0.054-2.304-0.17-3.45c-0.042-0.415-0.116-0.869-0.432-1.141     c-0.165-0.142-0.379-0.215-0.592-0.257c-0.457-0.09-0.939-0.047-1.373,0.121"/>
      <path class="st1"
            d="M112.292,223.085c0.685,0.834,1.933,1.226,2.974,0.943c0.16-0.044,0.695-0.283,0.848-0.406     c0.734-0.594,1.407-1.47,1.432-2.435c0.026-0.979-0.684-1.818-1.433-2.449c1.028-0.286,2.177,0.156,2.882,0.958     c0.705,0.802,0.999,1.907,0.968,2.974c-0.012,0.42-0.073,0.846-0.246,1.228c-0.337,0.744-1.076,1.252-1.863,1.468     c-0.788,0.216-1.624,0.174-2.432,0.057c-0.555-0.08-1.112-0.197-1.611-0.453c-0.647-0.331-1.173-0.895-1.458-1.564"/>
      <path class="st1"
            d="M76.069,219.881c-0.938-0.703-1.613-1.714-2.058-2.798c-0.445-1.084-0.673-2.244-0.84-3.404     c-0.39-2.71-0.45-5.533,0.433-8.124c0.25-0.733,0.592-1.466,1.185-1.962s1.493-0.695,2.156-0.295     c-0.529,0.203-0.938,0.646-1.205,1.146c-0.267,0.5-0.405,1.056-0.525,1.61c-0.799,3.69-0.861,7.538-0.184,11.253     c0.134,0.734,0.3,1.473,0.652,2.131c0.024,0.044,0.045,0.106,0.007,0.138c-0.038,0.032-0.081-0.07-0.033-0.054"/>
      <path class="st1"
            d="M75.679,197.485c1.483,0.576,2.919,1.312,4.135,2.337c2.443,2.061,3.835,5.197,4.174,8.376     s-0.302,6.4-1.4,9.403c-0.477,1.304-1.052,2.596-1.951,3.654c-0.86,1.012-1.978,1.766-3.081,2.506     c-0.9,0.604-1.83,1.221-2.892,1.439c0.262,0.513,0.995,0.481,1.561,0.374c1.649-0.312,3.298-0.625,4.947-0.937     c0.669-0.127,1.386-0.279,1.852-0.775c0.227-0.242,0.373-0.545,0.543-0.83c0.613-1.032,1.552-1.858,2.054-2.948     c0.316-0.686,0.442-1.441,0.564-2.185c0.379-2.298,0.759-4.613,0.681-6.94c-0.061-1.823-0.402-3.623-0.742-5.415     c-0.152-0.8-0.306-1.606-0.608-2.363c-0.308-0.771-0.764-1.473-1.217-2.169c-0.807-1.239-1.699-2.551-3.074-3.094     c-0.67-0.265-1.401-0.322-2.119-0.376c-0.872-0.066-1.744-0.132-2.615-0.198"/>
      <path class="st1"
            d="M98.475,219.881c-0.938-0.703-1.613-1.714-2.058-2.798c-0.445-1.084-0.673-2.244-0.84-3.404     c-0.39-2.71-0.45-5.533,0.433-8.124c0.25-0.733,0.592-1.466,1.185-1.962s1.493-0.695,2.156-0.295     c-0.529,0.203-0.938,0.646-1.205,1.146c-0.267,0.5-0.405,1.056-0.525,1.61c-0.799,3.69-0.861,7.538-0.184,11.253     c0.134,0.734,0.3,1.473,0.652,2.131c0.024,0.044,0.045,0.106,0.007,0.138c-0.038,0.032-0.081-0.07-0.033-0.054"/>
      <path class="st1"
            d="M98.084,197.485c1.483,0.576,2.919,1.312,4.135,2.337c2.443,2.061,3.835,5.197,4.174,8.376     s-0.302,6.4-1.4,9.403c-0.477,1.304-1.052,2.596-1.951,3.654c-0.86,1.012-1.978,1.766-3.081,2.506     c-0.9,0.604-1.83,1.221-2.892,1.439c0.262,0.513,0.995,0.481,1.561,0.374c1.649-0.312,3.298-0.625,4.947-0.937     c0.669-0.127,1.386-0.279,1.852-0.775c0.227-0.242,0.373-0.545,0.543-0.83c0.613-1.032,1.552-1.858,2.054-2.948     c0.316-0.686,0.442-1.441,0.564-2.185c0.379-2.298,0.759-4.613,0.681-6.94c-0.061-1.823-0.402-3.623-0.742-5.415     c-0.152-0.8-0.306-1.606-0.608-2.363c-0.308-0.771-0.764-1.473-1.217-2.169c-0.807-1.239-1.699-2.551-3.074-3.094     c-0.67-0.265-1.401-0.322-2.119-0.376c-0.872-0.066-1.744-0.132-2.615-0.198"/>
      <path class="st1"
            d="M131.564,219.881c-0.938-0.703-1.613-1.714-2.058-2.798c-0.445-1.084-0.673-2.244-0.84-3.404     c-0.39-2.71-0.45-5.533,0.433-8.124c0.25-0.733,0.592-1.466,1.185-1.962c0.594-0.496,1.493-0.695,2.156-0.295     c-0.529,0.203-0.938,0.646-1.205,1.146c-0.267,0.5-0.405,1.056-0.525,1.61c-0.799,3.69-0.861,7.538-0.184,11.253     c0.134,0.734,0.3,1.473,0.652,2.131c0.024,0.044,0.046,0.106,0.007,0.138c-0.038,0.032-0.081-0.07-0.033-0.054"/>
      <path class="st1"
            d="M131.173,197.485c1.483,0.576,2.919,1.312,4.135,2.337c2.443,2.061,3.835,5.197,4.174,8.376     s-0.302,6.4-1.4,9.403c-0.477,1.304-1.052,2.596-1.951,3.654c-0.86,1.012-1.978,1.766-3.081,2.506     c-0.9,0.604-1.83,1.221-2.892,1.439c0.262,0.513,0.995,0.481,1.561,0.374c1.649-0.312,3.298-0.625,4.947-0.937     c0.669-0.127,1.386-0.279,1.852-0.775c0.227-0.242,0.373-0.545,0.543-0.83c0.613-1.032,1.552-1.858,2.054-2.948     c0.316-0.686,0.442-1.441,0.564-2.185c0.379-2.298,0.759-4.613,0.682-6.94c-0.061-1.823-0.402-3.623-0.742-5.415     c-0.152-0.8-0.305-1.606-0.608-2.363c-0.308-0.771-0.764-1.473-1.217-2.169c-0.807-1.239-1.699-2.551-3.074-3.094     c-0.67-0.265-1.401-0.322-2.119-0.376c-0.872-0.066-1.744-0.132-2.615-0.198"/>
      <path class="st1"
            d="M154.296,219.881c-0.938-0.703-1.613-1.714-2.058-2.798c-0.445-1.084-0.673-2.244-0.84-3.404     c-0.39-2.71-0.45-5.533,0.433-8.124c0.25-0.733,0.592-1.466,1.185-1.962c0.594-0.496,1.493-0.695,2.156-0.295     c-0.529,0.203-0.938,0.646-1.205,1.146c-0.267,0.5-0.405,1.056-0.525,1.61c-0.799,3.69-0.861,7.538-0.184,11.253     c0.134,0.734,0.3,1.473,0.652,2.131c0.024,0.044,0.045,0.106,0.007,0.138c-0.038,0.032-0.081-0.07-0.033-0.054"/>
      <path class="st1"
            d="M153.905,197.485c1.483,0.576,2.919,1.312,4.135,2.337c2.443,2.061,3.835,5.197,4.174,8.376     s-0.302,6.4-1.4,9.403c-0.477,1.304-1.052,2.596-1.951,3.654c-0.86,1.012-1.978,1.766-3.081,2.506     c-0.9,0.604-1.83,1.221-2.892,1.439c0.262,0.513,0.995,0.481,1.561,0.374c1.649-0.312,3.298-0.625,4.947-0.937     c0.669-0.127,1.386-0.279,1.852-0.775c0.227-0.242,0.373-0.545,0.543-0.83c0.613-1.032,1.552-1.858,2.054-2.948     c0.316-0.686,0.442-1.441,0.564-2.185c0.379-2.298,0.759-4.613,0.681-6.94c-0.061-1.823-0.402-3.623-0.742-5.415     c-0.152-0.8-0.305-1.606-0.608-2.363c-0.308-0.771-0.764-1.473-1.217-2.169c-0.807-1.239-1.699-2.551-3.074-3.094     c-0.67-0.265-1.401-0.322-2.119-0.376c-0.872-0.066-1.744-0.132-2.615-0.198"/>
      <path class="st1"
            d="M176.34,219.881c-0.938-0.703-1.613-1.714-2.058-2.798c-0.445-1.084-0.673-2.244-0.84-3.404     c-0.39-2.71-0.45-5.533,0.433-8.124c0.25-0.733,0.592-1.466,1.185-1.962c0.594-0.496,1.493-0.695,2.156-0.295     c-0.529,0.203-0.938,0.646-1.205,1.146c-0.267,0.5-0.405,1.056-0.525,1.61c-0.799,3.69-0.861,7.538-0.184,11.253     c0.134,0.734,0.3,1.473,0.652,2.131c0.024,0.044,0.046,0.106,0.007,0.138c-0.038,0.032-0.081-0.07-0.033-0.054"/>
      <path class="st1"
            d="M175.949,197.485c1.483,0.576,2.919,1.312,4.135,2.337c2.443,2.061,3.835,5.197,4.174,8.376     s-0.302,6.4-1.4,9.403c-0.477,1.304-1.052,2.596-1.951,3.654c-0.86,1.012-1.978,1.766-3.081,2.506     c-0.9,0.604-1.83,1.221-2.892,1.439c0.262,0.513,0.995,0.481,1.561,0.374c1.649-0.312,3.298-0.625,4.947-0.937     c0.669-0.127,1.386-0.279,1.852-0.775c0.227-0.242,0.373-0.545,0.543-0.83c0.613-1.032,1.552-1.858,2.054-2.948     c0.316-0.686,0.442-1.441,0.564-2.185c0.379-2.298,0.759-4.613,0.682-6.94c-0.061-1.823-0.402-3.623-0.742-5.415     c-0.152-0.8-0.305-1.606-0.608-2.363c-0.308-0.771-0.764-1.473-1.217-2.169c-0.807-1.239-1.699-2.551-3.074-3.094     c-0.67-0.265-1.401-0.322-2.119-0.376c-0.872-0.066-1.744-0.132-2.615-0.198"/>
      <path class="st1"
            d="M49.333,209.592c-0.181,0.166-0.455,0.206-0.692,0.139c-0.237-0.066-0.438-0.225-0.599-0.411     c-0.167-0.193-0.302-0.446-0.245-0.694c0.043-0.19,0.189-0.338,0.331-0.472c1.013-0.962,1.791-1.461,2.919-2.284     c0.343-0.251,1.186-0.616,1.533-0.696c0.348-0.08,1.016,0.05,1.307,0.256c0.158,0.112-0.149,0.213-0.222,0.392     c-0.025,0.06-0.069,0.109-0.113,0.157c-0.479,0.525-0.958,1.05-1.437,1.576c-0.74,0.812-1.517,1.65-2.538,2.054"/>
      <path class="st1"
            d="M59.119,197.971c0.305,2.096-0.16,4.228-0.071,6.344c0.06,1.409-0.067,13.709-0.392,16.516     c-0.044,0.377-0.092,0.766-0.286,1.092c-0.541,0.914-1.837,0.892-2.899,0.869c-0.305-0.007-1.469-0.084-1.685,0.132     c-0.315,0.315-0.008,1.292,0.001,2.076c2.34,0.12,4.679,0.24,7.019,0.359c0.569-8.597,0.629-16.971,0.229-25.578     c-0.019-0.401-0.052-1.341-0.278-1.673c-0.226-0.331-1.182-0.247-1.493,0.007"/>
      <g>
				<path class="st3"
              d="M61.035,225.12h-7.481v-14.44c0-1.753,0.037-3.358,0.112-4.813c-0.46,0.56-1.032,1.145-1.716,1.754      l-3.097,2.556l-3.824-4.702l9.365-7.63h6.642V225.12z"/>
        <path class="st3"
              d="M86.894,211.52c0,4.826-0.809,8.361-2.426,10.606c-1.617,2.246-4.092,3.368-7.425,3.368      c-3.259,0-5.715-1.172-7.369-3.517c-1.654-2.344-2.481-5.83-2.481-10.457c0-4.851,0.809-8.408,2.425-10.672      c1.617-2.264,4.092-3.396,7.425-3.396c3.247,0,5.7,1.179,7.36,3.536C86.063,203.345,86.894,206.855,86.894,211.52z       M74.524,211.52c0,3.084,0.193,5.205,0.579,6.362c0.385,1.157,1.032,1.735,1.94,1.735c0.92,0,1.57-0.597,1.95-1.791      c0.379-1.194,0.569-3.296,0.569-6.306c0-3.022-0.193-5.14-0.579-6.353c-0.386-1.213-1.033-1.819-1.94-1.819      s-1.555,0.585-1.94,1.754C74.717,206.271,74.524,208.41,74.524,211.52z"/>
        <path class="st3"
              d="M109.282,211.52c0,4.826-0.809,8.361-2.426,10.606c-1.617,2.246-4.092,3.368-7.425,3.368      c-3.259,0-5.715-1.172-7.369-3.517c-1.654-2.344-2.481-5.83-2.481-10.457c0-4.851,0.809-8.408,2.425-10.672      c1.617-2.264,4.092-3.396,7.425-3.396c3.247,0,5.7,1.179,7.36,3.536C108.451,203.345,109.282,206.855,109.282,211.52z       M96.912,211.52c0,3.084,0.193,5.205,0.579,6.362c0.385,1.157,1.032,1.735,1.94,1.735c0.92,0,1.57-0.597,1.95-1.791      c0.379-1.194,0.569-3.296,0.569-6.306c0-3.022-0.193-5.14-0.579-6.353c-0.386-1.213-1.033-1.819-1.94-1.819      s-1.555,0.585-1.94,1.754C97.105,206.271,96.912,208.41,96.912,211.52z"/>
        <path class="st3"
              d="M112.229,222.023c0-1.144,0.339-2.027,1.017-2.649s1.664-0.933,2.957-0.933      c1.231,0,2.177,0.311,2.836,0.933s0.989,1.505,0.989,2.649c0,1.12-0.339,1.994-1.017,2.622      c-0.678,0.628-1.614,0.942-2.808,0.942c-1.231,0-2.201-0.311-2.91-0.933C112.584,224.032,112.229,223.156,112.229,222.023z"/>
        <path class="st3"
              d="M142.715,211.52c0,4.826-0.809,8.361-2.426,10.606c-1.617,2.246-4.092,3.368-7.425,3.368      c-3.259,0-5.715-1.172-7.369-3.517c-1.654-2.344-2.481-5.83-2.481-10.457c0-4.851,0.809-8.408,2.425-10.672      c1.617-2.264,4.092-3.396,7.425-3.396c3.247,0,5.7,1.179,7.36,3.536C141.884,203.345,142.715,206.855,142.715,211.52z       M130.345,211.52c0,3.084,0.193,5.205,0.579,6.362c0.385,1.157,1.032,1.735,1.94,1.735c0.92,0,1.57-0.597,1.95-1.791      c0.379-1.194,0.569-3.296,0.569-6.306c0-3.022-0.193-5.14-0.579-6.353c-0.386-1.213-1.033-1.819-1.94-1.819      s-1.555,0.585-1.94,1.754C130.538,206.271,130.345,208.41,130.345,211.52z"/>
        <path class="st3"
              d="M165.103,211.52c0,4.826-0.809,8.361-2.426,10.606c-1.617,2.246-4.092,3.368-7.425,3.368      c-3.259,0-5.715-1.172-7.369-3.517c-1.654-2.344-2.481-5.83-2.481-10.457c0-4.851,0.809-8.408,2.425-10.672      c1.617-2.264,4.092-3.396,7.425-3.396c3.247,0,5.7,1.179,7.36,3.536C164.272,203.345,165.103,206.855,165.103,211.52z       M152.733,211.52c0,3.084,0.193,5.205,0.579,6.362c0.385,1.157,1.032,1.735,1.94,1.735c0.92,0,1.57-0.597,1.95-1.791      c0.379-1.194,0.569-3.296,0.569-6.306c0-3.022-0.193-5.14-0.579-6.353c-0.386-1.213-1.033-1.819-1.94-1.819      s-1.555,0.585-1.94,1.754C152.926,206.271,152.733,208.41,152.733,211.52z"/>
        <path class="st3"
              d="M187.491,211.52c0,4.826-0.809,8.361-2.426,10.606c-1.617,2.246-4.092,3.368-7.425,3.368      c-3.259,0-5.715-1.172-7.369-3.517c-1.654-2.344-2.481-5.83-2.481-10.457c0-4.851,0.809-8.408,2.425-10.672      c1.617-2.264,4.092-3.396,7.425-3.396c3.247,0,5.7,1.179,7.36,3.536C186.661,203.345,187.491,206.855,187.491,211.52z       M175.122,211.52c0,3.084,0.193,5.205,0.579,6.362c0.385,1.157,1.032,1.735,1.94,1.735c0.92,0,1.57-0.597,1.95-1.791      c0.379-1.194,0.569-3.296,0.569-6.306c0-3.022-0.193-5.14-0.579-6.353c-0.386-1.213-1.033-1.819-1.94-1.819      s-1.555,0.585-1.94,1.754C175.314,206.271,175.122,208.41,175.122,211.52z"/>
        <path class="st3"
              d="M217.902,225.12h-16.194v-27.276h16.194v5.914h-8.824v4.291h8.172v5.914h-8.172v5.149h8.824V225.12z"/>
        <path class="st3"
              d="M245.868,197.845v16.417c0,3.57-1.011,6.334-3.031,8.293c-2.021,1.959-4.935,2.938-8.741,2.938      c-3.719,0-6.576-0.951-8.572-2.854c-1.996-1.903-2.994-4.639-2.994-8.209v-16.585h7.406v16.007c0,1.928,0.36,3.327,1.082,4.198      s1.785,1.306,3.19,1.306c1.505,0,2.597-0.432,3.274-1.296c0.678-0.864,1.017-2.279,1.017-4.245v-15.97H245.868z"/>
        <path class="st3"
              d="M258.965,215.195v9.925h-7.369v-27.276h8.937c7.412,0,11.119,2.687,11.119,8.06      c0,3.159-1.543,5.604-4.627,7.332l7.947,11.884h-8.357l-5.784-9.925H258.965z M258.965,209.654h1.38      c2.575,0,3.862-1.138,3.862-3.414c0-1.878-1.263-2.817-3.787-2.817h-1.455V209.654z"/>
			</g>
		</g>
    <path class="st1"
          d="M203.009,108.316c1.315,17.264,2.15,34.565,2.502,51.876c0.088,4.348,0.147,8.696,0.198,13.044    c0.015,1.286-0.196,2.906-1.423,3.292c-0.88,0.277-1.979-0.244-2.691,0.343c-0.699,0.577-0.337,1.818,0.448,2.271    s1.761,0.351,2.657,0.215s1.853-0.287,2.677,0.09c0.054-8.491,0.109-16.982,0.163-25.473c0.019-2.917,0.037-5.834,0.029-8.751    c-0.034-11.781,0.478-27.423,0.002-39.195c-0.017-0.433-1.05-1.117-1.391-1.384c-0.199-0.157-0.461-0.202-0.712-0.242    c-1.147-0.185-2.295-0.37-3.442-0.554"/>
    <path class="st1"
          d="M183.491,76.642c-0.988-0.095-1.386,1.239-1.385,2.232c0.012,9.394,1.993,14.461,8.669,21.069    c3.971,3.93,11.252,7.964,16.524,6.929c0.227-4.529,0.453-4.175,0.68-8.705c0.035-0.703,0.067-1.43-0.186-2.087    c-0.766-1.992-3.422-2.188-5.425-2.924c-2.78-1.021-4.713-3.507-6.492-5.875c-1.467-1.952-2.933-3.903-4.4-5.855    c-1.041-1.385-2.112-2.799-3.567-3.741c-1.454-0.942-3.393-1.33-4.93-0.529"/>
    <path class="st1"
          d="M194.121,156.56c1.935,0.161,3.871,0.322,5.806,0.483c0.238,0.02,0.481,0.041,0.7,0.137    c0.948,0.418,0.817,1.791,1.268,2.724c0.589,1.217,2.234,1.688,2.712,2.953c0.535,1.417-0.69,2.93-0.568,4.44    c0.076,0.942,0.669,1.912,0.273,2.77c-0.366,0.793-1.407,1.055-1.87,1.795c-0.283,0.452-0.308,1.013-0.324,1.547    c-0.056,1.826-0.112,3.652-0.168,5.478c-0.722,0.297-1.444,0.595-2.166,0.892c-0.047-1.778-0.095-3.556-0.142-5.334    c-0.032-1.217-0.058-2.475,0.404-3.601c0.462-1.126,1.548-2.092,2.762-2.013c-0.782-1.1-1.097-2.521-0.854-3.848    c0.104-0.57,0.306-1.157,0.143-1.713c-0.128-0.437-0.461-0.777-0.749-1.13c-0.841-1.026-1.377-2.298-1.525-3.616    c-0.992,0.114-2.005,0.227-2.981,0.016c-0.976-0.212-1.925-0.811-2.288-1.741"/>
    <polyline class="st3" points="126.488,87.616 126.488,76.75 207.577,76.75 207.577,179.367 199.766,179.367   "/>
    <polyline class="st3" points="188.773,179.367 126.488,179.367 126.488,96.518   "/>
    <line class="st3" x1="181.001" y1="155.924" x2="151.201" y2="155.924"/>
    <line class="st3" x1="191.079" y1="85.185" x2="141.123" y2="85.185"/>
    <line class="st3" x1="180.835" y1="90.46" x2="151.367" y2="90.46"/>
    <line class="st3" x1="181.001" y1="160.891" x2="151.201" y2="160.891"/>
    <line class="st3" x1="181.001" y1="165.857" x2="151.201" y2="165.857"/>
    <g>
			<path class="st1"
            d="M217.924,68.683c0,5.912-2.165,10.333-3.989,13.005c-1.998,2.93-4.655,5.276-6.775,5.98     c-0.061,0.023-0.121,0.03-0.182,0.03c2.612-16.934,0-23.05,0-23.05c0.106,0,0.22,0.03,0.318,0.099     c1.711,1.135,6.813,3.361,10.053,3.361C217.667,68.108,217.924,68.365,217.924,68.683z"/>
      <circle class="st37" cx="207.577" cy="75.426" r="23.719"/>
      <path class="st1"
            d="M217.349,68.108c-3.24,0-8.342-2.225-10.053-3.361c-0.098-0.068-0.212-0.099-0.318-0.099     c0,0,2.612,6.116,0,23.05c0.061,0,0.121-0.008,0.182-0.03c2.12-0.704,4.777-3.051,6.775-5.98     c1.824-2.672,3.989-7.093,3.989-13.005C217.924,68.365,217.667,68.108,217.349,68.108z"/>
      <polyline class="st3" points="203.239,75.969 205.842,78.485 211.942,72.368    "/>
      <path class="st2"
            d="M206.975,87.701c-0.061,0-0.123-0.01-0.182-0.03c-2.12-0.707-4.78-3.056-6.778-5.986     c-1.82-2.67-3.991-7.094-3.991-13.005c0-0.318,0.258-0.576,0.576-0.576c3.244,0,8.343-2.22,10.055-3.361     c0.194-0.129,0.446-0.129,0.64,0c1.712,1.141,6.811,3.361,10.055,3.361c0.318,0,0.576,0.258,0.576,0.576     c0,5.911-2.171,10.334-3.991,13.005c-1.998,2.929-4.658,5.279-6.778,5.986c-0.059,0.02-0.121,0.03-0.182,0.03H206.975z"/>
		</g>
    <path class="st1"
          d="M188.774,188.128c1.002-0.273,1.762-1.067,2.641-1.619c0.522-0.328,1.269-0.873,1.866-1.025    c0.417-0.106,1.212-0.096,1.485,0.236c-0.541,0.256-1.464,0.92-1.794,1.42c-0.183,0.277-0.33,0.59-0.591,0.794    c-0.269,0.211-0.621,0.277-0.943,0.392c-0.428,0.152-0.822,0.401-1.143,0.721c-0.196,0.196-0.372,0.422-0.617,0.552    s-0.593,0.125-0.755-0.099c-0.078-0.108-0.1-0.246-0.115-0.378c-0.047-0.418-0.048-0.841-0.002-1.259"/>
    <path class="st1"
          d="M198.316,173.106c-0.161,3.855-0.191,7.716-0.092,11.573c0.013,0.495,0.027,0.994-0.042,1.484    c-0.047,0.333-0.177,0.712-0.496,0.819c-0.132,0.044-0.275,0.034-0.413,0.022c-0.408-0.034-0.817-0.067-1.225-0.101    c-0.055,0.186,0.035,0.389,0.169,0.528c0.134,0.14,0.309,0.232,0.472,0.337c0.931,0.598,1.57,1.665,2.629,1.984    c0.367-0.37,0.327-0.964,0.301-1.484c-0.065-1.275,0.103-2.549,0.193-3.822c0.276-3.892-0.17-7.804,0.029-11.7    c-0.515,0.049-1.025,0.157-1.515,0.322"/>
    <path class="st1"
          d="M188.842,174.56c0.907-0.02,1.813-0.04,2.72-0.059c0.167-0.004,0.339-0.007,0.496,0.051    c0.343,0.127,0.522,0.504,0.821,0.716c0.28,0.198,0.64,0.235,0.982,0.265c0.18,0.016,0.406,0.006,0.479-0.16    c0.054-0.123-0.014-0.263-0.08-0.38c-0.278-0.493-0.562-0.994-0.966-1.39c-0.404-0.396-0.953-0.682-1.518-0.642    c-0.51,0.036-0.994,0.33-1.502,0.271c-0.23-0.026-0.447-0.124-0.677-0.153s-0.5,0.039-0.602,0.246    c-0.052,0.105-0.052,0.228-0.051,0.345c0.002,0.173,0.004,0.346,0.005,0.519"/>
    <path class="st1"
          d="M198.054,173.04c-0.017-0.812,0.443-1.795,0.854-2.495c0.997-1.699,1.68-2.212,2.523-2.471    c-0.54-1.371-0.641-2.91-0.287-4.341c-0.944-0.4-1.716-1.143-2.271-2.004s-0.908-1.839-1.169-2.83    c0.494,0.032,0.989,0.064,1.483,0.097c0.09,0.006,0.182,0.012,0.262,0.053c0.191,0.097,0.241,0.341,0.288,0.551    c0.201,0.905,0.726,1.7,1.241,2.471c0.184,0.275,0.375,0.558,0.651,0.739c0.261,0.171,0.596,0.251,0.781,0.503    c0.289,0.394,0.052,0.935-0.085,1.404c-0.17,0.583-0.166,1.2-0.16,1.807c0.002,0.264,0.006,0.535,0.101,0.782    c0.106,0.275,0.321,0.509,0.365,0.8c0.059,0.389-0.2,0.747-0.445,1.055c-0.49,0.616-0.986,1.239-1.61,1.72    c-0.174,0.134-0.359,0.259-0.505,0.423c-0.344,0.39-0.418,0.944-0.438,1.464c-0.005,0.124-0.014,0.262-0.106,0.344    c-0.077,0.069-0.19,0.077-0.293,0.081c-0.33,0.014-0.66,0.028-0.99,0.042"/>
    <path class="st1"
          d="M175.397,100.735c-0.301,1.091-0.601,2.182-0.902,3.272c-0.08,0.289-0.165,0.588-0.358,0.817    c-0.298,0.352-0.799,0.468-1.259,0.436s-0.901-0.187-1.351-0.286c-1.023-0.226-2.084-0.164-3.129-0.101    c-1.076,0.065-2.236,0.162-3.056,0.862c2.309-0.475,4.68,0.226,6.933,0.921c0.486,0.15,0.979,0.303,1.407,0.576    c0.244,0.155,0.483,0.355,0.772,0.37c0.548,0.029,0.878-0.582,1.069-1.096c0.586-1.572,1.173-3.144,1.759-4.716    c0.039-0.105,0.078-0.224,0.031-0.325c-0.043-0.092-0.143-0.14-0.236-0.181c-0.483-0.214-0.965-0.428-1.448-0.642"/>
    <path class="st1"
          d="M163.435,106.872c-0.393,1.641,0.478,3.362,1.705,4.521c1.227,1.159,2.777,1.9,4.217,2.781    c1.421,0.869,3.951,1.853,5.129,3.031c1.595,1.595,1.996,3.641,1.996,5.402c0,4.915-3.203,5.86-2.757,6.506    c0.094,0.136,0.496-0.165,0.655-0.208c0.081-0.022,0.143-0.085,0.201-0.145c0.683-0.709,1.365-1.417,2.048-2.126    c0.335-0.348,0.673-0.699,0.938-1.104c0.743-1.134,0.842-2.567,0.79-3.921c-0.033-0.852-0.119-1.715-0.425-2.511    c-0.244-0.633-0.619-1.205-0.992-1.771c-0.443-0.673-0.888-1.35-1.443-1.935c-1.645-1.735-4.043-2.475-6.265-3.358    s-4.533-2.147-5.446-4.356"/>
    <path class="st1"
          d="M173.918,128.859c0.429,0.638,1.041,1.727,1.38,2.416c1.008,2.051,0.512,4.15-0.265,6.299    s-2.458,3.955-4.546,4.885c-1.79,0.798-3.801,0.956-5.759,0.885c-0.707-0.025-1.415-0.079-2.106-0.227    c-0.522-0.111-1.031-0.275-1.54-0.439c-1.933-0.623-3.867-1.246-5.8-1.868c-0.166,0.723-0.29,1.597,0.251,2.105    c0.16,0.151,0.363,0.248,0.561,0.342c0.901,0.429,1.806,0.86,2.761,1.149c0.756,0.229,1.535,0.367,2.312,0.504    c0.98,0.173,1.959,0.346,2.939,0.52c0.802,0.142,1.61,0.284,2.425,0.276c1.783-0.017,3.472-0.745,5.105-1.46    c0.967-0.423,1.945-0.854,2.774-1.506c1.666-1.31,2.558-3.377,3.073-5.433c0.271-1.079,0.454-2.223,0.158-3.295    c-0.179-0.649-0.527-1.238-0.895-1.802c-0.783-1.198-1.679-2.322-2.673-3.352"/>
    <g>
			<path class="st3"
            d="M154.655,121.375c0-1.232,0.414-2.435,1.242-3.609c0.827-1.174,1.992-2.213,3.494-3.118     c-2.714-1.964-4.071-4.331-4.071-7.103c0-2.637,1.068-4.716,3.205-6.236c2.137-1.52,4.976-2.281,8.518-2.281     c3.676,0,7.237,0.828,10.683,2.483l-2.829,6.381c-1.405-0.769-2.815-1.376-4.23-1.819c-1.415-0.443-2.652-0.664-3.71-0.664     c-2.079,0-3.118,0.713-3.118,2.137c0,0.828,0.437,1.588,1.314,2.281c0.876,0.693,2.112,1.367,3.71,2.021     c3.368,1.367,5.799,2.829,7.291,4.389c1.491,1.559,2.238,3.272,2.238,5.139c0,1.482-0.308,2.805-0.924,3.97     c-0.616,1.165-1.733,2.324-3.349,3.479c2.406,1.81,3.609,4.158,3.609,7.045c0,2.868-1.121,5.154-3.364,6.857     c-2.243,1.703-5.318,2.555-9.225,2.555c-3.927,0-7.315-0.828-10.163-2.483v-7.045c1.52,0.847,3.272,1.579,5.255,2.195     c1.983,0.616,3.638,0.924,4.966,0.924c2.675,0,4.013-0.924,4.013-2.772c0-0.808-0.298-1.506-0.895-2.093     c-0.597-0.587-1.935-1.342-4.013-2.267c-2.714-1.213-4.692-2.29-5.933-3.234c-1.242-0.943-2.171-1.983-2.786-3.119     C154.963,124.253,154.655,122.915,154.655,121.375z M163.057,120.48c0,0.982,0.423,1.858,1.27,2.627     c0.847,0.77,2.339,1.714,4.475,2.83c0.789-0.905,1.184-1.935,1.184-3.09c0-1.097-0.404-2.06-1.213-2.888     c-0.808-0.827-2.156-1.636-4.042-2.425C163.615,118.151,163.057,119.133,163.057,120.48z"/>
		</g>
    <g>
			<polyline class="st3" points="199.766,173.203 199.766,190.01 194.254,185.967 188.742,190.01 188.742,173.203    "/>
      <path class="st3"
            d="M202.916,168.688c-2.781,1.015-3.118,3.396-3.15,4.224c-0.009,0.182,0,0.291,0,0.291h-3.523l-1.989,1.743     l-1.989-1.743h-3.523c0,0,0.009-0.109,0-0.291c-0.032-0.828-0.369-3.204-3.154-4.224c2.08-2.968,0-5.512,0-5.512     c2.786-1.02,3.123-3.396,3.154-4.224c0.009-0.182,0-0.291,0-0.291h3.523l1.989-1.743l1.989,1.743h3.523c0,0-0.009,0.109,0,0.291     c0.032,0.828,0.369,3.209,3.15,4.224C202.916,163.176,200.84,165.72,202.916,168.688z"/>
		</g>
    <g>
			<path class="st9"
            d="M105.083,242.541c0-0.278,0.068-0.481,0.205-0.611c0.137-0.129,0.308-0.194,0.513-0.194     c0.195,0,0.364,0.066,0.505,0.198s0.212,0.334,0.212,0.607s-0.071,0.478-0.212,0.612c-0.142,0.134-0.31,0.201-0.505,0.201     c-0.205,0-0.376-0.067-0.513-0.201C105.151,243.019,105.083,242.815,105.083,242.541z M106.401,252.745h-1.216v-8.027h1.216     V252.745z"/>
      <path class="st9"
            d="M114.473,252.745v-5.193c0-0.654-0.149-1.143-0.447-1.465s-0.764-0.483-1.399-0.483     c-0.84,0-1.455,0.228-1.846,0.682s-0.586,1.203-0.586,2.248v4.212h-1.216v-8.027h0.989l0.198,1.099h0.059     c0.249-0.396,0.598-0.702,1.047-0.919c0.449-0.218,0.95-0.326,1.501-0.326c0.967,0,1.694,0.233,2.183,0.699     c0.488,0.467,0.732,1.212,0.732,2.237v5.237H114.473z"/>
      <path class="st9"
            d="M119.387,248.635c0.21-0.298,0.53-0.688,0.959-1.172l2.593-2.746h1.443l-3.252,3.42l3.479,4.607h-1.472     l-2.834-3.794l-0.916,0.791v3.003h-1.201v-11.396h1.201v6.042c0,0.269-0.02,0.684-0.059,1.245H119.387z"/>
      <path class="st9" d="M127.275,252.745h-1.216v-11.396h1.216V252.745z"/>
      <path class="st9"
            d="M129.678,251.968c0-0.327,0.074-0.575,0.224-0.743c0.148-0.169,0.362-0.253,0.641-0.253     c0.283,0,0.504,0.084,0.663,0.253c0.158,0.168,0.238,0.416,0.238,0.743c0,0.317-0.081,0.562-0.242,0.732     s-0.381,0.256-0.659,0.256c-0.249,0-0.456-0.076-0.619-0.23C129.759,252.573,129.678,252.32,129.678,251.968z"/>
      <path class="st9"
            d="M144.414,252.745h-7.361v-0.975l5.684-8.613h-5.508v-1.12h7.024v0.974l-5.684,8.606h5.845V252.745z"/>
      <path class="st9"
            d="M146.201,242.541c0-0.278,0.068-0.481,0.205-0.611c0.137-0.129,0.308-0.194,0.513-0.194     c0.195,0,0.364,0.066,0.505,0.198s0.212,0.334,0.212,0.607s-0.071,0.478-0.212,0.612c-0.142,0.134-0.31,0.201-0.505,0.201     c-0.205,0-0.376-0.067-0.513-0.201C146.27,243.019,146.201,242.815,146.201,242.541z M147.52,252.745h-1.216v-8.027h1.216     V252.745z"/>
      <path class="st9"
            d="M155.591,252.745v-5.193c0-0.654-0.149-1.143-0.447-1.465s-0.764-0.483-1.399-0.483     c-0.84,0-1.455,0.228-1.846,0.682s-0.586,1.203-0.586,2.248v4.212h-1.216v-8.027h0.989l0.198,1.099h0.059     c0.249-0.396,0.598-0.702,1.047-0.919c0.449-0.218,0.95-0.326,1.501-0.326c0.967,0,1.694,0.233,2.183,0.699     c0.488,0.467,0.732,1.212,0.732,2.237v5.237H155.591z"/>
      <path class="st9"
            d="M164.482,250.554c0,0.747-0.278,1.323-0.835,1.729s-1.338,0.608-2.344,0.608     c-1.064,0-1.895-0.169-2.49-0.506v-1.128c0.386,0.195,0.799,0.35,1.242,0.462c0.441,0.112,0.868,0.168,1.278,0.168     c0.635,0,1.123-0.101,1.465-0.304c0.342-0.202,0.513-0.512,0.513-0.927c0-0.312-0.135-0.579-0.406-0.802     c-0.271-0.222-0.8-0.484-1.586-0.787c-0.747-0.278-1.278-0.521-1.593-0.729c-0.314-0.208-0.549-0.443-0.703-0.707     c-0.153-0.264-0.23-0.579-0.23-0.945c0-0.654,0.266-1.17,0.798-1.549c0.532-0.378,1.262-0.567,2.19-0.567     c0.864,0,1.709,0.176,2.534,0.527l-0.433,0.988c-0.806-0.332-1.535-0.498-2.189-0.498c-0.576,0-1.011,0.091-1.304,0.271     s-0.439,0.43-0.439,0.747c0,0.215,0.055,0.397,0.165,0.549c0.109,0.151,0.287,0.296,0.531,0.433s0.713,0.334,1.406,0.593     c0.952,0.347,1.596,0.696,1.931,1.048C164.315,249.58,164.482,250.022,164.482,250.554z"/>
      <path class="st9"
            d="M169.852,252.891c-1.187,0-2.123-0.361-2.81-1.084c-0.686-0.723-1.028-1.727-1.028-3.011     c0-1.294,0.318-2.321,0.955-3.083c0.638-0.762,1.493-1.143,2.567-1.143c1.006,0,1.802,0.331,2.388,0.992     c0.586,0.662,0.879,1.534,0.879,2.618v0.77h-5.529c0.024,0.942,0.262,1.657,0.714,2.146c0.451,0.488,1.088,0.732,1.908,0.732     c0.864,0,1.718-0.181,2.563-0.542v1.084c-0.43,0.186-0.836,0.319-1.219,0.399C170.855,252.851,170.394,252.891,169.852,252.891z      M169.521,245.588c-0.645,0-1.158,0.21-1.542,0.63c-0.383,0.42-0.608,1.001-0.677,1.743h4.197c0-0.767-0.172-1.354-0.514-1.761     C170.645,245.792,170.156,245.588,169.521,245.588z"/>
      <path class="st9"
            d="M178.538,244.571c0.356,0,0.676,0.029,0.959,0.088l-0.168,1.128c-0.332-0.073-0.625-0.11-0.879-0.11     c-0.649,0-1.205,0.264-1.666,0.791c-0.462,0.527-0.692,1.185-0.692,1.971v4.307h-1.216v-8.027h1.004l0.139,1.486h0.059     c0.298-0.522,0.656-0.925,1.076-1.208S178.035,244.571,178.538,244.571z"/>
      <path class="st9"
            d="M183.592,251.887c0.215,0,0.422-0.016,0.622-0.047c0.2-0.032,0.359-0.065,0.477-0.1v0.931     c-0.132,0.063-0.326,0.115-0.582,0.157c-0.257,0.041-0.487,0.062-0.692,0.062c-1.553,0-2.329-0.818-2.329-2.454v-4.775h-1.15     v-0.586l1.15-0.505l0.513-1.714h0.703v1.86h2.329v0.944h-2.329v4.725c0,0.483,0.114,0.854,0.345,1.113     C182.876,251.758,183.191,251.887,183.592,251.887z"/>
      <path class="st9"
            d="M189.957,244.571c0.356,0,0.676,0.029,0.959,0.088l-0.168,1.128c-0.332-0.073-0.625-0.11-0.879-0.11     c-0.649,0-1.205,0.264-1.666,0.791c-0.462,0.527-0.692,1.185-0.692,1.971v4.307h-1.216v-8.027h1.004l0.139,1.486h0.059     c0.298-0.522,0.656-0.925,1.076-1.208S189.454,244.571,189.957,244.571z"/>
      <path class="st9"
            d="M197.354,252.745l-0.241-1.143h-0.059c-0.401,0.503-0.8,0.844-1.198,1.021     c-0.397,0.178-0.895,0.268-1.49,0.268c-0.796,0-1.42-0.205-1.871-0.615c-0.452-0.41-0.678-0.994-0.678-1.751     c0-1.621,1.296-2.471,3.89-2.549l1.361-0.044v-0.498c0-0.63-0.135-1.095-0.406-1.395c-0.271-0.301-0.704-0.451-1.3-0.451     c-0.669,0-1.426,0.205-2.271,0.615l-0.373-0.93c0.395-0.215,0.828-0.384,1.3-0.506c0.471-0.122,0.943-0.183,1.417-0.183     c0.957,0,1.666,0.212,2.128,0.637c0.461,0.425,0.692,1.106,0.692,2.044v5.479H197.354z M194.607,251.887     c0.757,0,1.352-0.207,1.784-0.622c0.432-0.415,0.647-0.996,0.647-1.743v-0.726l-1.215,0.052c-0.967,0.034-1.664,0.185-2.092,0.45     c-0.427,0.267-0.641,0.68-0.641,1.241c0,0.439,0.133,0.774,0.399,1.004C193.757,251.773,194.129,251.887,194.607,251.887z      M193.172,242.541c0-0.254,0.065-0.437,0.194-0.549c0.13-0.112,0.284-0.169,0.466-0.169c0.185,0,0.345,0.057,0.479,0.169     c0.134,0.112,0.201,0.295,0.201,0.549c0,0.244-0.067,0.427-0.201,0.546c-0.135,0.12-0.295,0.18-0.479,0.18     c-0.182,0-0.336-0.06-0.466-0.18C193.237,242.968,193.172,242.786,193.172,242.541z M195.963,242.541     c0-0.254,0.064-0.437,0.194-0.549c0.129-0.112,0.284-0.169,0.465-0.169s0.338,0.057,0.473,0.169     c0.134,0.112,0.201,0.295,0.201,0.549c0,0.244-0.067,0.427-0.201,0.546c-0.135,0.12-0.292,0.18-0.473,0.18     s-0.336-0.06-0.465-0.18C196.027,242.968,195.963,242.786,195.963,242.541z"/>
      <path class="st9"
            d="M207.33,244.717v0.769l-1.487,0.176c0.137,0.171,0.259,0.395,0.366,0.671     c0.107,0.275,0.161,0.587,0.161,0.934c0,0.786-0.269,1.413-0.806,1.882s-1.274,0.703-2.212,0.703     c-0.239,0-0.464-0.02-0.674-0.059c-0.518,0.273-0.776,0.618-0.776,1.033c0,0.22,0.09,0.382,0.271,0.487     c0.18,0.104,0.49,0.157,0.93,0.157h1.421c0.869,0,1.537,0.183,2.003,0.549c0.467,0.366,0.699,0.898,0.699,1.597     c0,0.889-0.356,1.566-1.068,2.033c-0.714,0.466-1.754,0.699-3.121,0.699c-1.05,0-1.858-0.195-2.428-0.586     c-0.568-0.391-0.854-0.942-0.854-1.655c0-0.488,0.156-0.911,0.469-1.268s0.752-0.598,1.318-0.725     c-0.205-0.093-0.377-0.237-0.516-0.433c-0.14-0.195-0.209-0.422-0.209-0.681c0-0.293,0.078-0.55,0.234-0.77     s0.402-0.432,0.74-0.637c-0.416-0.171-0.754-0.462-1.015-0.872c-0.262-0.41-0.392-0.879-0.392-1.406     c0-0.879,0.264-1.556,0.791-2.032c0.527-0.476,1.273-0.714,2.24-0.714c0.42,0,0.799,0.049,1.136,0.146H207.33z M200.928,254.092     c0,0.435,0.184,0.764,0.55,0.988s0.891,0.337,1.575,0.337c1.02,0,1.775-0.152,2.267-0.457c0.49-0.306,0.735-0.72,0.735-1.242     c0-0.435-0.134-0.735-0.402-0.904c-0.269-0.168-0.774-0.253-1.516-0.253h-1.458c-0.552,0-0.981,0.132-1.289,0.396     S200.928,253.599,200.928,254.092z M201.588,247.288c0,0.562,0.158,0.986,0.476,1.274s0.759,0.433,1.325,0.433     c1.188,0,1.78-0.576,1.78-1.729c0-1.206-0.601-1.81-1.802-1.81c-0.571,0-1.011,0.154-1.318,0.462     S201.588,246.682,201.588,247.288z"/>
      <path class="st9"
            d="M212.368,252.891c-1.186,0-2.122-0.361-2.809-1.084c-0.686-0.723-1.029-1.727-1.029-3.011     c0-1.294,0.319-2.321,0.956-3.083c0.638-0.762,1.493-1.143,2.567-1.143c1.006,0,1.802,0.331,2.388,0.992     c0.586,0.662,0.879,1.534,0.879,2.618v0.77h-5.53c0.024,0.942,0.263,1.657,0.715,2.146c0.451,0.488,1.088,0.732,1.908,0.732     c0.863,0,1.718-0.181,2.562-0.542v1.084c-0.43,0.186-0.836,0.319-1.219,0.399C213.373,252.851,212.911,252.891,212.368,252.891z      M212.039,245.588c-0.645,0-1.158,0.21-1.542,0.63c-0.383,0.42-0.609,1.001-0.678,1.743h4.197c0-0.767-0.171-1.354-0.513-1.761     C213.162,245.792,212.674,245.588,212.039,245.588z"/>
		</g>
    <g>
			<path class="st9"
            d="M75.937,276.654h-5.823v-0.827l4.38-6.255h-4.109v-0.945h5.442v0.945l-4.321,6.138h4.431V276.654z"/>
      <path class="st9"
            d="M78.962,268.626v5.208c0,0.654,0.149,1.143,0.447,1.465s0.764,0.483,1.399,0.483     c0.84,0,1.454-0.229,1.842-0.688c0.389-0.459,0.583-1.208,0.583-2.249v-4.219h1.216v8.027h-1.003l-0.176-1.076h-0.066     c-0.249,0.396-0.595,0.698-1.037,0.908s-0.946,0.314-1.512,0.314c-0.977,0-1.708-0.231-2.194-0.695s-0.729-1.206-0.729-2.227     v-5.252H78.962z"/>
      <path class="st9"
            d="M94.87,276.654h-1.187v-7.631c0-0.635,0.02-1.236,0.059-1.803c-0.103,0.104-0.217,0.211-0.344,0.322     c-0.127,0.113-0.708,0.589-1.743,1.429l-0.645-0.835l2.834-2.189h1.025V276.654z"/>
      <path class="st9"
            d="M106.04,271.286c0,1.851-0.292,3.232-0.875,4.146s-1.476,1.369-2.677,1.369     c-1.152,0-2.029-0.467-2.629-1.402c-0.601-0.935-0.901-2.306-0.901-4.112c0-1.865,0.291-3.249,0.872-4.153     c0.581-0.902,1.467-1.354,2.659-1.354c1.162,0,2.044,0.472,2.647,1.413C105.738,268.134,106.04,269.498,106.04,271.286z      M100.188,271.286c0,1.558,0.183,2.692,0.549,3.401c0.366,0.711,0.95,1.066,1.75,1.066c0.811,0,1.397-0.359,1.762-1.08     c0.363-0.721,0.545-1.85,0.545-3.388s-0.182-2.665-0.545-3.38c-0.364-0.715-0.951-1.073-1.762-1.073     c-0.801,0-1.384,0.353-1.75,1.058C100.371,268.597,100.188,269.728,100.188,271.286z"/>
      <path class="st9"
            d="M114.616,271.286c0,1.851-0.292,3.232-0.875,4.146s-1.476,1.369-2.677,1.369     c-1.152,0-2.029-0.467-2.629-1.402c-0.601-0.935-0.901-2.306-0.901-4.112c0-1.865,0.291-3.249,0.872-4.153     c0.581-0.902,1.467-1.354,2.659-1.354c1.162,0,2.044,0.472,2.647,1.413C114.314,268.134,114.616,269.498,114.616,271.286z      M108.764,271.286c0,1.558,0.183,2.692,0.549,3.401c0.366,0.711,0.95,1.066,1.75,1.066c0.811,0,1.397-0.359,1.762-1.08     c0.363-0.721,0.545-1.85,0.545-3.388s-0.182-2.665-0.545-3.38c-0.364-0.715-0.951-1.073-1.762-1.073     c-0.801,0-1.384,0.353-1.75,1.058C108.947,268.597,108.764,269.728,108.764,271.286z"/>
      <path class="st9"
            d="M122.89,269.14c0,1.113-0.187,1.954-0.561,2.523c-0.373,0.568-0.921,0.853-1.644,0.853     c-0.684,0-1.215-0.29-1.593-0.872c-0.378-0.58-0.567-1.416-0.567-2.504c0-1.109,0.182-1.943,0.546-2.506     c0.363-0.561,0.902-0.842,1.615-0.842c0.708,0,1.252,0.291,1.633,0.871C122.7,267.246,122.89,268.07,122.89,269.14z      M119.536,269.14c0,0.83,0.09,1.452,0.271,1.867s0.474,0.623,0.879,0.623c0.801,0,1.201-0.83,1.201-2.49     c0-1.65-0.4-2.477-1.201-2.477c-0.405,0-0.698,0.205-0.879,0.615S119.536,268.31,119.536,269.14z M127.453,265.947l-5.94,10.707     h-1.077l5.94-10.707H127.453z M129.343,273.431c0,1.109-0.187,1.947-0.56,2.516c-0.374,0.57-0.922,0.854-1.645,0.854     c-0.693,0-1.227-0.29-1.601-0.871c-0.373-0.581-0.56-1.414-0.56-2.498c0-1.107,0.182-1.943,0.545-2.504     c0.364-0.562,0.902-0.843,1.615-0.843c0.693,0,1.234,0.287,1.622,0.86C129.149,271.519,129.343,272.347,129.343,273.431z      M125.981,273.431c0,0.836,0.09,1.459,0.271,1.871c0.181,0.414,0.476,0.619,0.886,0.619s0.713-0.203,0.908-0.611     c0.195-0.407,0.293-1.033,0.293-1.879c0-0.834-0.098-1.453-0.293-1.855c-0.195-0.404-0.498-0.605-0.908-0.605     s-0.706,0.201-0.886,0.605C126.071,271.978,125.981,272.597,125.981,273.431z"/>
      <path class="st9"
            d="M134.323,280.257c-0.464,0-0.84-0.061-1.128-0.183v-0.989c0.337,0.098,0.669,0.146,0.996,0.146     c0.381,0,0.66-0.104,0.838-0.311c0.178-0.208,0.268-0.523,0.268-0.949v-9.346h1.216v9.258     C136.513,279.466,135.783,280.257,134.323,280.257z M135.195,266.452c0-0.278,0.068-0.481,0.205-0.612     c0.137-0.129,0.308-0.193,0.513-0.193c0.195,0,0.364,0.066,0.505,0.197c0.142,0.133,0.212,0.335,0.212,0.608     s-0.071,0.478-0.212,0.612c-0.142,0.134-0.31,0.201-0.505,0.201c-0.205,0-0.376-0.067-0.513-0.201     C135.263,266.929,135.195,266.725,135.195,266.452z"/>
      <path class="st9"
            d="M142.482,276.8c-1.187,0-2.123-0.361-2.809-1.084s-1.029-1.726-1.029-3.01c0-1.294,0.319-2.322,0.956-3.084     c0.638-0.762,1.493-1.143,2.567-1.143c1.006,0,1.802,0.332,2.388,0.992c0.586,0.662,0.879,1.535,0.879,2.619v0.77h-5.53     c0.024,0.941,0.262,1.657,0.714,2.146c0.451,0.488,1.087,0.732,1.908,0.732c0.864,0,1.719-0.181,2.563-0.542v1.084     c-0.43,0.186-0.836,0.318-1.219,0.398C143.487,276.761,143.024,276.8,142.482,276.8z M142.153,269.498     c-0.645,0-1.159,0.21-1.542,0.63s-0.609,1.001-0.677,1.743h4.197c0-0.767-0.171-1.354-0.513-1.761     C143.276,269.703,142.788,269.498,142.153,269.498z"/>
      <path class="st9"
            d="M159.321,276.654h-1.465l-3.904-5.192l-1.121,0.996v4.196h-1.245v-10.707h1.245v5.31l4.856-5.31h1.472     l-4.307,4.65L159.321,276.654z"/>
      <path class="st9"
            d="M161.753,268.626v5.208c0,0.654,0.148,1.143,0.446,1.465s0.765,0.483,1.399,0.483     c0.84,0,1.454-0.229,1.842-0.688c0.389-0.459,0.582-1.208,0.582-2.249v-4.219h1.216v8.027h-1.003l-0.176-1.076h-0.066     c-0.249,0.396-0.595,0.698-1.036,0.908c-0.442,0.21-0.946,0.314-1.513,0.314c-0.977,0-1.708-0.231-2.193-0.695     c-0.486-0.464-0.729-1.206-0.729-2.227v-5.252H161.753z"/>
      <path class="st9"
            d="M175.31,276.654v-5.192c0-0.654-0.149-1.143-0.446-1.465c-0.299-0.322-0.765-0.483-1.399-0.483     c-0.84,0-1.455,0.227-1.846,0.682c-0.391,0.453-0.586,1.203-0.586,2.248v4.211h-1.216v-8.027h0.989l0.197,1.1h0.059     c0.249-0.396,0.598-0.702,1.048-0.92c0.448-0.217,0.949-0.326,1.501-0.326c0.967,0,1.694,0.234,2.183,0.699     c0.488,0.467,0.732,1.213,0.732,2.238v5.236H175.31z"/>
      <path class="st9"
            d="M184.487,275.578h-0.065c-0.562,0.815-1.402,1.223-2.52,1.223c-1.051,0-1.867-0.358-2.45-1.076     c-0.584-0.718-0.876-1.738-0.876-3.062s0.293-2.351,0.879-3.083s1.401-1.1,2.447-1.1c1.088,0,1.923,0.396,2.504,1.188h0.096     l-0.051-0.579l-0.029-0.563v-3.268h1.215v11.396h-0.988L184.487,275.578z M182.056,275.783c0.83,0,1.432-0.226,1.806-0.678     c0.373-0.451,0.561-1.18,0.561-2.186v-0.257c0-1.138-0.189-1.949-0.568-2.435c-0.378-0.486-0.982-0.729-1.812-0.729     c-0.713,0-1.259,0.277-1.637,0.831c-0.379,0.555-0.568,1.337-0.568,2.348c0,1.025,0.188,1.799,0.564,2.322     C180.776,275.521,181.328,275.783,182.056,275.783z"/>
      <path class="st9"
            d="M191.606,276.8c-1.186,0-2.122-0.361-2.809-1.084c-0.686-0.723-1.029-1.726-1.029-3.01     c0-1.294,0.319-2.322,0.956-3.084c0.638-0.762,1.493-1.143,2.567-1.143c1.006,0,1.802,0.332,2.388,0.992     c0.586,0.662,0.879,1.535,0.879,2.619v0.77h-5.53c0.024,0.941,0.263,1.657,0.715,2.146c0.451,0.488,1.088,0.732,1.908,0.732     c0.863,0,1.718-0.181,2.562-0.542v1.084c-0.43,0.186-0.836,0.318-1.219,0.398C192.611,276.761,192.149,276.8,191.606,276.8z      M191.277,269.498c-0.645,0-1.158,0.21-1.542,0.63c-0.383,0.42-0.609,1.001-0.678,1.743h4.197c0-0.767-0.171-1.354-0.513-1.761     C192.4,269.703,191.912,269.498,191.277,269.498z"/>
      <path class="st9"
            d="M199.554,280.257c-0.463,0-0.839-0.061-1.127-0.183v-0.989c0.336,0.098,0.669,0.146,0.996,0.146     c0.381,0,0.66-0.104,0.838-0.311c0.179-0.208,0.268-0.523,0.268-0.949v-9.346h1.216v9.258     C201.744,279.466,201.014,280.257,199.554,280.257z M200.426,266.452c0-0.278,0.068-0.481,0.205-0.612     c0.137-0.129,0.308-0.193,0.513-0.193c0.195,0,0.363,0.066,0.506,0.197c0.141,0.133,0.212,0.335,0.212,0.608     s-0.071,0.478-0.212,0.612c-0.143,0.134-0.311,0.201-0.506,0.201c-0.205,0-0.376-0.067-0.513-0.201     C200.494,266.929,200.426,266.725,200.426,266.452z"/>
      <path class="st9"
            d="M207.713,276.8c-1.186,0-2.122-0.361-2.809-1.084c-0.686-0.723-1.029-1.726-1.029-3.01     c0-1.294,0.319-2.322,0.956-3.084c0.638-0.762,1.493-1.143,2.567-1.143c1.006,0,1.802,0.332,2.388,0.992     c0.586,0.662,0.879,1.535,0.879,2.619v0.77h-5.53c0.024,0.941,0.263,1.657,0.715,2.146c0.451,0.488,1.088,0.732,1.908,0.732     c0.863,0,1.718-0.181,2.562-0.542v1.084c-0.43,0.186-0.836,0.318-1.219,0.398C208.718,276.761,208.256,276.8,207.713,276.8z      M207.384,269.498c-0.645,0-1.158,0.21-1.542,0.63c-0.383,0.42-0.609,1.001-0.678,1.743h4.197c0-0.767-0.171-1.354-0.513-1.761     C208.507,269.703,208.019,269.498,207.384,269.498z"/>
      <path class="st9"
            d="M216.817,265.947h3.024c1.421,0,2.448,0.212,3.083,0.637s0.953,1.096,0.953,2.014     c0,0.635-0.178,1.159-0.531,1.572c-0.354,0.412-0.871,0.68-1.549,0.801v0.074c1.625,0.277,2.438,1.133,2.438,2.562     c0,0.957-0.323,1.705-0.971,2.242c-0.646,0.537-1.552,0.805-2.714,0.805h-3.734V265.947z M218.062,270.531h2.051     c0.879,0,1.512-0.137,1.897-0.414c0.386-0.275,0.579-0.74,0.579-1.395c0-0.601-0.216-1.033-0.645-1.301     c-0.431-0.266-1.113-0.398-2.051-0.398h-1.832V270.531z M218.062,271.585v4.007h2.234c0.864,0,1.515-0.167,1.952-0.501     c0.437-0.335,0.655-0.859,0.655-1.572c0-0.664-0.224-1.152-0.67-1.465c-0.447-0.312-1.127-0.469-2.04-0.469H218.062z"/>
      <path class="st9"
            d="M231.289,276.654l-0.241-1.143h-0.059c-0.401,0.504-0.8,0.844-1.198,1.021     c-0.397,0.179-0.895,0.268-1.49,0.268c-0.796,0-1.42-0.205-1.871-0.615c-0.452-0.41-0.678-0.993-0.678-1.75     c0-1.621,1.296-2.471,3.89-2.549l1.361-0.044v-0.498c0-0.63-0.135-1.095-0.406-1.396c-0.271-0.301-0.704-0.45-1.3-0.45     c-0.669,0-1.426,0.205-2.271,0.615l-0.373-0.931c0.395-0.215,0.828-0.383,1.3-0.505c0.471-0.122,0.943-0.183,1.417-0.183     c0.957,0,1.666,0.212,2.128,0.637c0.461,0.425,0.692,1.105,0.692,2.043v5.479H231.289z M228.542,275.797     c0.757,0,1.352-0.208,1.784-0.622c0.432-0.416,0.647-0.996,0.647-1.744v-0.725l-1.215,0.051     c-0.967,0.035-1.664,0.186-2.092,0.451c-0.427,0.266-0.641,0.68-0.641,1.241c0,0.439,0.133,0.774,0.399,1.003     C227.691,275.683,228.063,275.797,228.542,275.797z"/>
      <path class="st9"
            d="M240.188,276.654v-5.192c0-0.654-0.149-1.143-0.446-1.465c-0.299-0.322-0.765-0.483-1.399-0.483     c-0.84,0-1.455,0.227-1.846,0.682c-0.391,0.453-0.586,1.203-0.586,2.248v4.211h-1.216v-8.027h0.988l0.198,1.1h0.059     c0.249-0.396,0.598-0.702,1.048-0.92c0.448-0.217,0.949-0.326,1.501-0.326c0.967,0,1.694,0.234,2.183,0.699     c0.488,0.467,0.732,1.213,0.732,2.238v5.236H240.188z"/>
      <path class="st9"
            d="M245.103,272.545c0.21-0.298,0.529-0.688,0.959-1.172l2.594-2.747h1.442l-3.252,3.421l3.479,4.606h-1.473     l-2.834-3.793l-0.916,0.791v3.002h-1.201v-11.396h1.201v6.043c0,0.269-0.02,0.684-0.059,1.245H245.103z"/>
      <path class="st9"
            d="M91.035,290.626v0.77l-1.487,0.176c0.137,0.171,0.259,0.395,0.366,0.67c0.107,0.276,0.161,0.588,0.161,0.934     c0,0.787-0.269,1.414-0.806,1.883s-1.274,0.703-2.212,0.703c-0.239,0-0.464-0.02-0.674-0.059     c-0.518,0.273-0.776,0.617-0.776,1.033c0,0.219,0.09,0.382,0.271,0.486c0.181,0.105,0.491,0.158,0.93,0.158h1.421     c0.869,0,1.537,0.183,2.003,0.549s0.7,0.898,0.7,1.597c0,0.889-0.356,1.565-1.069,2.032s-1.753,0.699-3.12,0.699     c-1.05,0-1.859-0.195-2.428-0.586s-0.853-0.941-0.853-1.654c0-0.488,0.156-0.911,0.469-1.268s0.752-0.598,1.318-0.725     c-0.205-0.094-0.377-0.237-0.516-0.433c-0.14-0.195-0.209-0.423-0.209-0.681c0-0.293,0.078-0.55,0.234-0.77     s0.403-0.432,0.74-0.637c-0.415-0.172-0.753-0.462-1.014-0.872c-0.262-0.41-0.392-0.879-0.392-1.406     c0-0.879,0.264-1.556,0.791-2.032s1.274-0.715,2.241-0.715c0.42,0,0.798,0.049,1.135,0.146H91.035z M84.633,300.001     c0,0.436,0.183,0.765,0.549,0.989s0.891,0.337,1.575,0.337c1.021,0,1.776-0.152,2.267-0.457c0.49-0.307,0.736-0.72,0.736-1.242     c0-0.435-0.134-0.736-0.403-0.904s-0.774-0.253-1.516-0.253h-1.458c-0.552,0-0.981,0.132-1.289,0.396     S84.633,299.509,84.633,300.001z M85.292,293.198c0,0.562,0.159,0.986,0.476,1.274s0.759,0.432,1.326,0.432     c1.187,0,1.78-0.576,1.78-1.729c0-1.205-0.601-1.809-1.802-1.809c-0.571,0-1.011,0.154-1.318,0.461     C85.446,292.136,85.292,292.592,85.292,293.198z"/>
      <path class="st9"
            d="M96.074,298.8c-1.187,0-2.123-0.361-2.809-1.084s-1.029-1.726-1.029-3.01c0-1.294,0.319-2.322,0.956-3.084     c0.638-0.762,1.493-1.143,2.567-1.143c1.006,0,1.802,0.332,2.388,0.992c0.586,0.662,0.879,1.535,0.879,2.619v0.77h-5.53     c0.024,0.941,0.262,1.657,0.714,2.146c0.451,0.488,1.087,0.732,1.908,0.732c0.864,0,1.719-0.181,2.563-0.542v1.084     c-0.43,0.186-0.836,0.318-1.219,0.398C97.078,298.761,96.616,298.8,96.074,298.8z M95.744,291.498     c-0.645,0-1.159,0.21-1.542,0.63s-0.609,1.001-0.677,1.743h4.197c0-0.767-0.171-1.354-0.513-1.761     C96.867,291.703,96.379,291.498,95.744,291.498z"/>
      <path class="st9"
            d="M106.276,296.464c0,0.747-0.278,1.323-0.835,1.729s-1.338,0.607-2.344,0.607     c-1.064,0-1.895-0.168-2.49-0.505v-1.128c0.386,0.195,0.799,0.35,1.242,0.461c0.441,0.113,0.868,0.169,1.278,0.169     c0.635,0,1.123-0.101,1.465-0.304s0.513-0.512,0.513-0.927c0-0.312-0.135-0.579-0.407-0.802     c-0.271-0.223-0.799-0.484-1.585-0.787c-0.747-0.279-1.278-0.521-1.593-0.729c-0.314-0.208-0.549-0.443-0.703-0.707     c-0.153-0.264-0.23-0.579-0.23-0.945c0-0.654,0.266-1.17,0.798-1.549s1.262-0.568,2.19-0.568c0.864,0,1.709,0.176,2.534,0.527     l-0.432,0.989c-0.806-0.332-1.536-0.498-2.19-0.498c-0.576,0-1.011,0.091-1.304,0.271c-0.293,0.182-0.439,0.43-0.439,0.748     c0,0.215,0.055,0.397,0.165,0.549c0.109,0.151,0.287,0.295,0.531,0.432s0.713,0.335,1.406,0.594     c0.952,0.347,1.595,0.695,1.93,1.047C106.109,295.49,106.276,295.932,106.276,296.464z"/>
      <path class="st9"
            d="M111.645,298.8c-1.187,0-2.123-0.361-2.809-1.084s-1.029-1.726-1.029-3.01c0-1.294,0.319-2.322,0.956-3.084     c0.638-0.762,1.493-1.143,2.567-1.143c1.006,0,1.802,0.332,2.388,0.992c0.586,0.662,0.879,1.535,0.879,2.619v0.77h-5.53     c0.024,0.941,0.262,1.657,0.714,2.146c0.451,0.488,1.087,0.732,1.908,0.732c0.864,0,1.719-0.181,2.563-0.542v1.084     c-0.43,0.186-0.836,0.318-1.219,0.398C112.649,298.761,112.187,298.8,111.645,298.8z M111.315,291.498     c-0.645,0-1.159,0.21-1.542,0.63s-0.609,1.001-0.677,1.743h4.197c0-0.767-0.171-1.354-0.513-1.761     C112.438,291.703,111.95,291.498,111.315,291.498z"/>
      <path class="st9"
            d="M119.262,297.797c0.215,0,0.422-0.016,0.623-0.048c0.2-0.031,0.359-0.064,0.476-0.099v0.931     c-0.132,0.062-0.326,0.115-0.582,0.156c-0.257,0.042-0.487,0.062-0.692,0.062c-1.553,0-2.329-0.817-2.329-2.453v-4.775h-1.15     v-0.586l1.15-0.506l0.513-1.713h0.703v1.859h2.329v0.945h-2.329v4.725c0,0.482,0.115,0.854,0.344,1.113     C118.547,297.667,118.862,297.797,119.262,297.797z"/>
      <path class="st9"
            d="M127.099,298.654h-5.823v-0.827l4.38-6.255h-4.109v-0.945h5.442v0.945l-4.321,6.138h4.431V298.654z"/>
      <path class="st9" d="M130.197,298.654h-1.216v-11.396h1.216V298.654z"/>
      <path class="st9"
            d="M132.673,288.452c0-0.278,0.068-0.481,0.205-0.612c0.137-0.129,0.308-0.193,0.513-0.193     c0.195,0,0.364,0.066,0.505,0.197c0.142,0.133,0.212,0.335,0.212,0.608s-0.071,0.478-0.212,0.612     c-0.142,0.134-0.31,0.201-0.505,0.201c-0.205,0-0.376-0.067-0.513-0.201C132.741,288.929,132.673,288.725,132.673,288.452z      M133.991,298.654h-1.216v-8.027h1.216V298.654z"/>
      <path class="st9"
            d="M139.777,298.8c-1.162,0-2.062-0.357-2.699-1.072c-0.637-0.715-0.956-1.728-0.956-3.036     c0-1.343,0.323-2.38,0.97-3.112s1.569-1.1,2.765-1.1c0.386,0,0.771,0.042,1.157,0.125s0.688,0.181,0.908,0.293l-0.374,1.033     c-0.269-0.107-0.562-0.197-0.879-0.268s-0.598-0.106-0.842-0.106c-1.631,0-2.446,1.04-2.446,3.12     c0,0.986,0.199,1.743,0.597,2.271c0.397,0.527,0.987,0.791,1.769,0.791c0.669,0,1.355-0.144,2.058-0.433v1.077     C141.269,298.662,140.593,298.8,139.777,298.8z"/>
      <path class="st9"
            d="M149.204,298.654v-5.192c0-0.654-0.149-1.143-0.447-1.465s-0.764-0.483-1.399-0.483     c-0.845,0-1.461,0.229-1.85,0.688c-0.388,0.459-0.582,1.211-0.582,2.256v4.196h-1.216v-11.396h1.216v3.45     c0,0.415-0.02,0.759-0.059,1.032h0.073c0.239-0.385,0.58-0.689,1.021-0.912c0.442-0.221,0.946-0.332,1.513-0.332     c0.981,0,1.718,0.232,2.208,0.699c0.491,0.467,0.736,1.207,0.736,2.223v5.236H149.204z"/>
      <path class="st9"
            d="M161.75,298.654l-0.241-1.143h-0.059c-0.4,0.504-0.8,0.844-1.198,1.021c-0.398,0.179-0.895,0.268-1.49,0.268     c-0.796,0-1.42-0.205-1.871-0.615c-0.452-0.41-0.678-0.993-0.678-1.75c0-1.621,1.296-2.471,3.889-2.549l1.363-0.044v-0.498     c0-0.63-0.136-1.095-0.407-1.396c-0.271-0.301-0.704-0.45-1.3-0.45c-0.669,0-1.426,0.205-2.271,0.615l-0.374-0.931     c0.396-0.215,0.829-0.383,1.3-0.505c0.471-0.122,0.943-0.183,1.417-0.183c0.957,0,1.666,0.212,2.128,0.637     c0.461,0.425,0.692,1.105,0.692,2.043v5.479H161.75z M159.003,297.797c0.757,0,1.351-0.208,1.784-0.622     c0.432-0.416,0.648-0.996,0.648-1.744v-0.725l-1.216,0.051c-0.967,0.035-1.664,0.186-2.091,0.451s-0.641,0.68-0.641,1.241     c0,0.439,0.133,0.774,0.399,1.003C158.152,297.683,158.525,297.797,159.003,297.797z"/>
      <path class="st9"
            d="M168.892,290.496c1.055,0,1.873,0.359,2.457,1.08s0.875,1.739,0.875,3.058s-0.295,2.343-0.883,3.073     c-0.588,0.729-1.404,1.094-2.449,1.094c-0.522,0-1-0.096-1.432-0.289c-0.433-0.192-0.795-0.489-1.088-0.89h-0.088l-0.257,1.032     h-0.871v-11.396h1.216v2.77c0,0.619-0.02,1.176-0.059,1.67h0.059C166.938,290.896,167.778,290.496,168.892,290.496z      M168.716,291.513c-0.83,0-1.429,0.238-1.795,0.715c-0.366,0.475-0.549,1.277-0.549,2.405s0.188,1.935,0.563,2.421     s0.979,0.729,1.81,0.729c0.747,0,1.304-0.271,1.67-0.816c0.365-0.545,0.549-1.327,0.549-2.348c0-1.045-0.184-1.824-0.549-2.336     C170.049,291.769,169.482,291.513,168.716,291.513z"/>
      <path class="st9"
            d="M180.918,290.626v0.77l-1.487,0.176c0.137,0.171,0.259,0.395,0.366,0.67     c0.107,0.276,0.161,0.588,0.161,0.934c0,0.787-0.269,1.414-0.806,1.883s-1.274,0.703-2.212,0.703     c-0.239,0-0.464-0.02-0.674-0.059c-0.518,0.273-0.776,0.617-0.776,1.033c0,0.219,0.09,0.382,0.271,0.486     c0.18,0.105,0.49,0.158,0.93,0.158h1.421c0.869,0,1.537,0.183,2.003,0.549c0.467,0.366,0.699,0.898,0.699,1.597     c0,0.889-0.356,1.565-1.068,2.032c-0.714,0.467-1.754,0.699-3.121,0.699c-1.05,0-1.858-0.195-2.428-0.586     c-0.568-0.391-0.854-0.941-0.854-1.654c0-0.488,0.156-0.911,0.469-1.268s0.752-0.598,1.318-0.725     c-0.205-0.094-0.377-0.237-0.516-0.433c-0.14-0.195-0.209-0.423-0.209-0.681c0-0.293,0.078-0.55,0.234-0.77     s0.402-0.432,0.74-0.637c-0.416-0.172-0.754-0.462-1.015-0.872c-0.262-0.41-0.392-0.879-0.392-1.406     c0-0.879,0.264-1.556,0.791-2.032s1.273-0.715,2.24-0.715c0.42,0,0.799,0.049,1.136,0.146H180.918z M174.516,300.001     c0,0.436,0.184,0.765,0.55,0.989s0.891,0.337,1.575,0.337c1.02,0,1.775-0.152,2.267-0.457c0.49-0.307,0.735-0.72,0.735-1.242     c0-0.435-0.134-0.736-0.402-0.904s-0.774-0.253-1.516-0.253h-1.458c-0.552,0-0.981,0.132-1.289,0.396     S174.516,299.509,174.516,300.001z M175.176,293.198c0,0.562,0.158,0.986,0.476,1.274s0.759,0.432,1.325,0.432     c1.188,0,1.78-0.576,1.78-1.729c0-1.205-0.601-1.809-1.802-1.809c-0.571,0-1.011,0.154-1.318,0.461     C175.329,292.136,175.176,292.592,175.176,293.198z"/>
      <path class="st9"
            d="M185.956,298.8c-1.186,0-2.122-0.361-2.809-1.084c-0.686-0.723-1.029-1.726-1.029-3.01     c0-1.294,0.319-2.322,0.956-3.084c0.638-0.762,1.493-1.143,2.567-1.143c1.006,0,1.802,0.332,2.388,0.992     c0.586,0.662,0.879,1.535,0.879,2.619v0.77h-5.53c0.024,0.941,0.263,1.657,0.715,2.146c0.451,0.488,1.088,0.732,1.908,0.732     c0.863,0,1.718-0.181,2.562-0.542v1.084c-0.43,0.186-0.836,0.318-1.219,0.398C186.961,298.761,186.499,298.8,185.956,298.8z      M185.627,291.498c-0.645,0-1.158,0.21-1.542,0.63c-0.383,0.42-0.609,1.001-0.678,1.743h4.197c0-0.767-0.171-1.354-0.513-1.761     C186.75,291.703,186.262,291.498,185.627,291.498z"/>
      <path class="st9"
            d="M196.159,296.464c0,0.747-0.277,1.323-0.834,1.729s-1.339,0.607-2.344,0.607     c-1.065,0-1.896-0.168-2.49-0.505v-1.128c0.385,0.195,0.799,0.35,1.241,0.461c0.441,0.113,0.868,0.169,1.278,0.169     c0.634,0,1.122-0.101,1.465-0.304c0.341-0.203,0.512-0.512,0.512-0.927c0-0.312-0.135-0.579-0.406-0.802     c-0.271-0.223-0.8-0.484-1.586-0.787c-0.746-0.279-1.277-0.521-1.593-0.729c-0.314-0.208-0.549-0.443-0.703-0.707     c-0.153-0.264-0.23-0.579-0.23-0.945c0-0.654,0.266-1.17,0.798-1.549s1.263-0.568,2.19-0.568c0.864,0,1.709,0.176,2.534,0.527     l-0.432,0.989c-0.807-0.332-1.536-0.498-2.19-0.498c-0.576,0-1.011,0.091-1.304,0.271c-0.293,0.182-0.439,0.43-0.439,0.748     c0,0.215,0.055,0.397,0.165,0.549c0.109,0.151,0.286,0.295,0.53,0.432s0.713,0.335,1.406,0.594     c0.953,0.347,1.596,0.695,1.931,1.047C195.992,295.49,196.159,295.932,196.159,296.464z"/>
      <path class="st9"
            d="M198.035,288.452c0-0.278,0.068-0.481,0.205-0.612c0.137-0.129,0.308-0.193,0.513-0.193     c0.195,0,0.363,0.066,0.506,0.197c0.141,0.133,0.212,0.335,0.212,0.608s-0.071,0.478-0.212,0.612     c-0.143,0.134-0.311,0.201-0.506,0.201c-0.205,0-0.376-0.067-0.513-0.201C198.104,288.929,198.035,288.725,198.035,288.452z      M199.354,298.654h-1.216v-8.027h1.216V298.654z"/>
      <path class="st9"
            d="M205.14,298.8c-1.162,0-2.062-0.357-2.699-1.072c-0.637-0.715-0.956-1.728-0.956-3.036     c0-1.343,0.324-2.38,0.971-3.112c0.647-0.732,1.568-1.1,2.766-1.1c0.385,0,0.771,0.042,1.156,0.125s0.689,0.181,0.908,0.293     l-0.373,1.033c-0.269-0.107-0.562-0.197-0.879-0.268s-0.599-0.106-0.842-0.106c-1.632,0-2.447,1.04-2.447,3.12     c0,0.986,0.199,1.743,0.598,2.271c0.397,0.527,0.987,0.791,1.769,0.791c0.669,0,1.354-0.144,2.058-0.433v1.077     C206.631,298.662,205.955,298.8,205.14,298.8z"/>
      <path class="st9"
            d="M214.566,298.654v-5.192c0-0.654-0.149-1.143-0.446-1.465c-0.299-0.322-0.765-0.483-1.399-0.483     c-0.845,0-1.461,0.229-1.85,0.688c-0.388,0.459-0.582,1.211-0.582,2.256v4.196h-1.216v-11.396h1.216v3.45     c0,0.415-0.02,0.759-0.059,1.032h0.073c0.239-0.385,0.58-0.689,1.021-0.912c0.442-0.221,0.946-0.332,1.513-0.332     c0.981,0,1.718,0.232,2.208,0.699c0.491,0.467,0.736,1.207,0.736,2.223v5.236H214.566z"/>
      <path class="st9"
            d="M221.671,298.8c-1.186,0-2.122-0.361-2.809-1.084c-0.686-0.723-1.029-1.726-1.029-3.01     c0-1.294,0.319-2.322,0.956-3.084c0.638-0.762,1.493-1.143,2.567-1.143c1.006,0,1.802,0.332,2.388,0.992     c0.586,0.662,0.879,1.535,0.879,2.619v0.77h-5.53c0.024,0.941,0.263,1.657,0.715,2.146c0.451,0.488,1.088,0.732,1.908,0.732     c0.863,0,1.718-0.181,2.562-0.542v1.084c-0.43,0.186-0.836,0.318-1.219,0.398C222.676,298.761,222.214,298.8,221.671,298.8z      M221.342,291.498c-0.645,0-1.158,0.21-1.542,0.63c-0.383,0.42-0.609,1.001-0.678,1.743h4.197c0-0.767-0.171-1.354-0.513-1.761     C222.465,291.703,221.977,291.498,221.342,291.498z"/>
      <path class="st9"
            d="M230.358,290.48c0.356,0,0.676,0.029,0.959,0.088l-0.168,1.129c-0.332-0.074-0.625-0.11-0.879-0.11     c-0.649,0-1.205,0.264-1.666,0.791c-0.462,0.527-0.692,1.185-0.692,1.97v4.307h-1.216v-8.027h1.004l0.139,1.487h0.059     c0.298-0.522,0.656-0.925,1.076-1.208S229.855,290.48,230.358,290.48z"/>
      <path class="st9"
            d="M235.412,297.797c0.215,0,0.422-0.016,0.622-0.048c0.2-0.031,0.359-0.064,0.477-0.099v0.931     c-0.132,0.062-0.326,0.115-0.582,0.156c-0.257,0.042-0.487,0.062-0.692,0.062c-1.553,0-2.329-0.817-2.329-2.453v-4.775h-1.15     v-0.586l1.15-0.506l0.513-1.713h0.703v1.859h2.329v0.945h-2.329v4.725c0,0.482,0.114,0.854,0.345,1.113     C234.696,297.667,235.012,297.797,235.412,297.797z"/>
		</g>
    <line class="st7" x1="203.819" y1="184.257" x2="257.886" y2="184.257"/>
    <line class="st7" x1="123.395" y1="184.257" x2="183.857" y2="184.257"/>
    <line class="st7" x1="87.58" y1="184.257" x2="94.446" y2="184.257"/>
    <line class="st7" x1="59.114" y1="184.257" x2="68.9" y2="184.257"/>
    <g>
			<path class="st1"
            d="M95.199,61.174c-0.05,0.021,0.011,0.106,0.06,0.083c0.05-0.023,0.06-0.087,0.064-0.141     c0.041-0.638-0.016-1.281-0.167-1.902c-0.061-0.25-0.137-0.502-0.12-0.758c0.035-0.528,0.448-0.94,0.826-1.31     c1.36-1.334,2.597-2.793,3.69-4.353c0.512-0.731,1.007-1.527,1.066-2.417c0.007-0.103,0.004-0.217-0.066-0.293     c-0.059-0.065-0.152-0.086-0.239-0.103c-0.616-0.122-1.232-0.243-1.847-0.365c0.125,0.584-0.199,1.16-0.511,1.669     c-0.723,1.181-1.447,2.363-2.17,3.544c-0.158,0.258-0.343,0.537-0.636,0.611c-0.091,0.023-0.192,0.027-0.268,0.083     c-0.079,0.059-0.11,0.161-0.136,0.256c-0.173,0.625-0.345,1.249-0.518,1.874"/>
      <path class="st1"
            d="M135.232,96.199c-0.218,0.124-0.511-0.022-0.627-0.244s-0.1-0.488-0.065-0.736     c0.113-0.801,0.389-1.569,0.564-2.358c0.175-0.789,0.246-1.636-0.046-2.39c-0.039-0.102-0.082-0.227-0.013-0.312     c0.059-0.072,0.168-0.072,0.261-0.066c0.158,0.011,0.317,0.022,0.475,0.033c0.466,0.033,1.003,0.106,1.246,0.505     c0.15,0.246,0.143,0.553,0.121,0.841c-0.137,1.756-0.682,3.478-1.58,4.993"/>
      <path class="st1"
            d="M108.538,54.737c0,0.026,0,0.052,0,0.078c0,2.623,2.07,4.846,2.477,7.437     c0.557,3.547,0.287,7.168,0.483,10.753c0.134,2.456,0.488,4.899,1.056,7.292c0.267,1.124,0.595,2.266,1.293,3.186     c0.666,0.877,1.619,1.486,2.575,2.033c3.081,1.765,6.413,3.09,9.864,3.923c0.483,0.117,1.014,0.253,1.296,0.663     c0.3,0.436,0.209,1.02,0.105,1.538c-0.304,1.526-0.607,3.051-0.911,4.577c0.845,0.041,1.689,0.082,2.534,0.123     c0.726-2.289,1.159-4.671,1.284-7.07c-4.592-1.539-9.264-3.165-13.087-6.138c-0.708-0.55-1.39-1.153-1.886-1.9     c-0.599-0.902-0.896-1.967-1.14-3.021c-1.463-6.331-1.302-12.919-2.217-19.352c-0.187-1.319-0.427-2.653-1.023-3.844     c-0.596-1.191-1.599-2.238-2.881-2.6c0.03,0.643,0.06,1.285,0.089,1.928"/>
      <path class="st1"
            d="M90.498,56.669c0.155-0.315,0.344-0.614,0.562-0.89c0.153-0.194,0.327-0.382,0.551-0.488     c0.45-0.214,0.99-0.053,1.421,0.196s0.817,0.585,1.286,0.753c0.133-0.458,0.258-0.983,0-1.384     c-0.097-0.15-0.238-0.265-0.374-0.382c-0.746-0.644-1.368-1.432-1.821-2.308c-0.996,0.534-1.522,1.637-1.984,2.668     c-0.111,0.247-0.221,0.494-0.332,0.741"/>
      <path class="st1"
            d="M83.557,48.488c0.103,0.471,0.297,1.036,0.772,1.119c0.175,0.031,0.352-0.015,0.528-0.043     c0.969-0.154,1.947,0.254,2.754,0.813c0.806,0.559,1.497,1.27,2.293,1.844c0.267,0.192,0.565,0.375,0.893,0.378     c0.329,0.003,0.68-0.245,0.671-0.573c-0.007-0.27-0.234-0.474-0.44-0.648c-1.078-0.91-2.07-1.923-2.957-3.02     c-0.28-0.347-0.557-0.714-0.671-1.145c-0.076-0.286-0.097-0.625-0.338-0.797c-0.318-0.227-0.75,0.011-1.064,0.243     c-0.797,0.591-1.593,1.182-2.39,1.773"/>
      <path class="st1"
            d="M92.006,51.925c0.224,0.354,0.455,0.703,0.694,1.048c0.047,0.068,0.105,0.142,0.187,0.149     c0.068,0.006,0.13-0.036,0.185-0.077c0.772-0.57,1.483-1.222,2.119-1.941c0.171-0.193,0.34-0.394,0.562-0.525     c0.231-0.137,0.502-0.186,0.767-0.233c0.475-0.085,0.95-0.17,1.425-0.254c0.081-0.015,0.175-0.039,0.207-0.115     c0.021-0.051,0.006-0.109-0.01-0.162c-0.346-1.152-1.026-2.202-1.936-2.99c-0.066-0.057-0.141-0.116-0.228-0.112     c-0.12,0.005-0.201,0.123-0.258,0.229c-0.317,0.585-0.57,1.211-0.977,1.737c-0.192,0.248-0.416,0.472-0.597,0.728     c-0.281,0.398-0.452,0.867-0.743,1.257c-0.364,0.486-0.89,0.819-1.405,1.142"/>
      <path class="st1"
            d="M86.627,45.077c1.094,0.479,2.308,0.588,3.497,0.691c0.412,0.036,0.826,0.071,1.238,0.03     c1.46-0.145,3.018-0.669,4.303-1.377c0.03,0.034,0.041,0.084,0.03,0.127c-0.12-0.651-0.191-1.425-0.312-2.076     c-0.374,0.031-0.74,0.15-1.061,0.344c-0.238,0.144-0.451,0.329-0.693,0.466c-0.714,0.402-1.585,0.341-2.403,0.387     c-0.536,0.03-1.07,0.11-1.606,0.087c-0.941-0.041-1.843-0.399-2.661-0.867c-0.001,0.731-0.002,1.462-0.004,2.193"/>
      <g>
				<path class="st1"
              d="M84.42,25.175c0.405-0.174,0.81-0.348,1.225-0.498c0.741-0.267,2.51-0.64,3.277-0.818      c2.986-0.691,4.903-0.691,7.58-0.791c1.355-0.051,2.926-0.428,3.934,0.479c0.322-0.631-0.436-1.268-1.1-1.516      c-1.971-0.735-4.119-0.799-6.221-0.854c-0.987-0.026-1.991-0.05-2.943,0.213c-0.524,0.145-1.024,0.375-1.557,0.479      c-0.641,0.126-1.302,0.066-1.955,0.086c-0.653,0.019-1.338,0.134-1.845,0.545c-0.507,0.412-0.757,1.196-0.399,1.742"/>
        <path class="st1"
              d="M84.42,25.175c0.405-0.174,0.81-0.348,1.225-0.498c0.741-0.267,2.51-0.64,3.277-0.818      c2.986-0.691,4.903-0.691,7.58-0.791c1.355-0.051,2.926-0.428,3.934,0.479c0.322-0.631-0.436-1.268-1.1-1.516      c-1.971-0.735-4.119-0.799-6.221-0.854c-0.987-0.026-1.991-0.05-2.943,0.213c-0.524,0.145-1.024,0.375-1.557,0.479      c-0.641,0.126-1.302,0.066-1.955,0.086c-0.653,0.019-1.338,0.134-1.845,0.545c-0.507,0.412-0.757,1.196-0.399,1.742"/>
			</g>
      <g>
				<path class="st1"
              d="M76.996,66.963c-2.061,0.224-3.765,1.647-5.327,3.011c-1.763,1.54-3.522,3.085-5.277,4.635      c-0.321,0.283-0.655,0.588-0.785,0.995c-0.259,0.812,0.377,1.611,0.958,2.235c3.22,3.455,6.2,7.132,8.914,10.997      c0.184,0.262,0.371,0.537,0.417,0.853c0.075,0.517-0.241,1.002-0.542,1.429c-0.556,0.79-1.113,1.58-1.669,2.37      c-0.11,0.157-0.226,0.334-0.201,0.523c0.037,0.28,0.379,0.431,0.655,0.37c0.275-0.061,0.493-0.266,0.692-0.465      c1.138-1.134,2.207-2.337,3.198-3.601c0.126-0.161,0.254-0.328,0.308-0.525c0.141-0.515-0.251-1.008-0.611-1.402      c-3.12-3.41-5.936-7.098-8.404-11.005c-0.135-0.214-0.275-0.448-0.259-0.701c0.013-0.204,0.125-0.387,0.24-0.556      c0.561-0.827,1.294-1.363,1.944-2.083c0.967-1.071,1.697-2.342,2.632-3.421c1.051-1.212,2.058-2.424,3.194-3.565"/>
        <path class="st1"
              d="M76.996,66.963c-2.061,0.224-3.765,1.647-5.327,3.011c-1.763,1.54-3.522,3.085-5.277,4.635      c-0.321,0.283-0.655,0.588-0.785,0.995c-0.259,0.812,0.377,1.611,0.958,2.235c3.22,3.455,6.2,7.132,8.914,10.997      c0.184,0.262,0.371,0.537,0.417,0.853c0.075,0.517-0.241,1.002-0.542,1.429c-0.556,0.79-1.113,1.58-1.669,2.37      c-0.11,0.157-0.226,0.334-0.201,0.523c0.037,0.28,0.379,0.431,0.655,0.37c0.275-0.061,0.493-0.266,0.692-0.465      c1.138-1.134,2.207-2.337,3.198-3.601c0.126-0.161,0.254-0.328,0.308-0.525c0.141-0.515-0.251-1.008-0.611-1.402      c-3.12-3.41-5.936-7.098-8.404-11.005c-0.135-0.214-0.275-0.448-0.259-0.701c0.013-0.204,0.125-0.387,0.24-0.556      c0.561-0.827,1.294-1.363,1.944-2.083c0.967-1.071,1.697-2.342,2.632-3.421c1.051-1.212,2.058-2.424,3.194-3.565"/>
			</g>
      <g>
				<path class="st1"
              d="M77.96,65.652c0.766,1.91,0.953,3.999,1.012,6.056c0.136,4.706-0.35,9.405-0.836,14.087      c-0.775-5.115-1.55-10.23-2.325-15.344c-0.094-0.623-0.188-1.27-0.011-1.875c0.322-1.101,1.444-1.785,1.915-2.831"/>
        <path class="st1"
              d="M77.96,65.652c0.766,1.91,0.953,3.999,1.012,6.056c0.136,4.706-0.35,9.405-0.836,14.087      c-0.775-5.115-1.55-10.23-2.325-15.344c-0.094-0.623-0.188-1.27-0.011-1.875c0.322-1.101,1.444-1.785,1.915-2.831"/>
			</g>
      <path class="st1"
            d="M108.082,56.92c-0.876,6.368-0.466,12.847-1.105,19.243c-0.44,4.401-1.374,8.736-2.306,13.06     c-0.544,2.525-1.089,5.05-1.633,7.575c1.447,0.143,2.917,0.059,4.339-0.246c0.282-0.061,0.577-0.138,0.78-0.343     c0.287-0.29,0.306-0.742,0.309-1.15c0.041-8,0.082-16,0.123-24c0.023-4.472,0.045-8.956-0.451-13.4"/>
      <g>
				<path class="st1"
              d="M81.352,50.421c1.921,3.345,4.627,6.237,7.838,8.375c0.238,0.158,0.483,0.317,0.663,0.539      c0.333,0.41,0.395,0.971,0.431,1.498c0.287,4.277-0.33,8.556-0.547,12.837s-0.002,8.719,1.827,12.595      c0.393-3.681,0.562-7.386,0.508-11.088C92,70.183,91.52,65.184,91.897,60.204c0.08-1.056,0.175-2.21-0.425-3.084      c-0.69-1.005-2.025-1.265-3.127-1.786c-1.705-0.807-2.971-2.368-3.732-4.094c-0.35-0.792-0.851-1.792-1.713-1.705      c-0.588,0.06-0.984,0.634-1.533,0.852"/>
        <path class="st1"
              d="M81.352,50.421c1.921,3.345,4.627,6.237,7.838,8.375c0.238,0.158,0.483,0.317,0.663,0.539      c0.333,0.41,0.395,0.971,0.431,1.498c0.287,4.277-0.33,8.556-0.547,12.837s-0.002,8.719,1.827,12.595      c0.393-3.681,0.562-7.386,0.508-11.088C92,70.183,91.52,65.184,91.897,60.204c0.08-1.056,0.175-2.21-0.425-3.084      c-0.69-1.005-2.025-1.265-3.127-1.786c-1.705-0.807-2.971-2.368-3.732-4.094c-0.35-0.792-0.851-1.792-1.713-1.705      c-0.588,0.06-0.984,0.634-1.533,0.852"/>
			</g>
      <path class="st1"
            d="M91.43,100.186c0.222-0.545,0.685-0.987,1.239-1.184c0.42-0.149,0.874-0.16,1.319-0.169     c0.401-0.008,0.824-0.012,1.175,0.184c0.203,0.113,0.365,0.285,0.524,0.454c0.095,0.101,0.189,0.201,0.284,0.302     c0.059,0.063,0.138,0.132,0.221,0.107c0.086-0.025,0.113-0.131,0.125-0.219c0.055-0.397,0.089-0.796,0.102-1.196     c0.004-0.131,0.003-0.274-0.075-0.38c-0.1-0.136-0.287-0.165-0.455-0.182c-1.314-0.132-2.634-0.205-3.954-0.218     c-0.172-0.002-0.369,0.009-0.474,0.145c-0.073,0.094-0.08,0.222-0.082,0.342c-0.013,0.599-0.004,1.198,0.024,1.796"/>
      <path class="st1"
            d="M96.62,99.033c2.542,0.432,5.093-0.498,7.654-0.801c0.469-0.056,0.95-0.093,1.38-0.286     c0.43-0.193,0.808-0.584,0.834-1.055c-0.466-0.278-1.05-0.278-1.581-0.168s-1.038,0.319-1.567,0.438     c-0.654,0.146-1.33,0.151-2,0.154c-1.004,0.006-2.008,0.012-3.012,0.017c-0.429,0.002-0.875,0.009-1.257,0.204     c-0.382,0.195-0.672,0.64-0.545,1.049"/>
      <path class="st1"
            d="M79.627,96.822c-0.176,0.285-0.017,0.681,0.254,0.877c0.272,0.196,0.62,0.244,0.952,0.286     c3.365,0.423,6.748,0.846,10.137,0.716c0.001-0.427,0.003-0.855,0.004-1.282c-3.847,0.158-7.631-1.018-11.479-1.151"/>
      <g>
				<path class="st1"
              d="M97.173,179.777c-0.151,1.211,0.393,2.485,1.373,3.213c0.254,0.189,0.553,0.348,0.869,0.334      s0.638,0.574,0.646,0.257c0.004-0.149-0.212-1.009,0.309-1.772c0.455-0.666,1.238-1.056,1.976-1.382      c1.428-0.63,3.076-0.408,4.603-0.082c3.034,0.648,5.978,1.658,8.895,2.714c0.4,0.145,2.244,0.872,2.667,0.831      c0.424-0.042,0.266-0.911,0.32-1.334c0.032-0.255-0.914-0.512-1.067-0.718c-0.42-0.567-1.136-0.82-1.817-1.005      c-2.991-0.812-6.172-0.9-9.06-2.023c-0.991-0.386-1.958-0.896-3.017-0.999c-0.858-0.084-1.715,0.107-2.573,0.186      c-1.332,0.124-2.674-0.018-4.012-0.005c-0.084,0.001-0.175,0.004-0.243,0.053c-0.1,0.072-0.117,0.212-0.122,0.334      c-0.018,0.441,0.001,0.884,0.057,1.323"/>
        <path class="st1"
              d="M97.173,179.777c-0.151,1.211,0.393,2.485,1.373,3.213c0.254,0.189,0.553,0.348,0.869,0.334      s0.638,0.574,0.646,0.257c0.004-0.149-0.212-1.009,0.309-1.772c0.455-0.666,1.238-1.056,1.976-1.382      c1.428-0.63,3.076-0.408,4.603-0.082c3.034,0.648,5.978,1.658,8.895,2.714c0.4,0.145,2.244,0.872,2.667,0.831      c0.424-0.042,0.266-0.911,0.32-1.334c0.032-0.255-0.914-0.512-1.067-0.718c-0.42-0.567-1.136-0.82-1.817-1.005      c-2.991-0.812-6.172-0.9-9.06-2.023c-0.991-0.386-1.958-0.896-3.017-0.999c-0.858-0.084-1.715,0.107-2.573,0.186      c-1.332,0.124-2.674-0.018-4.012-0.005c-0.084,0.001-0.175,0.004-0.243,0.053c-0.1,0.072-0.117,0.212-0.122,0.334      c-0.018,0.441,0.001,0.884,0.057,1.323"/>
			</g>
      <path class="st1"
            d="M72.588,181.518c0.8-0.039,1.412-0.686,2.062-1.154c1.203-0.866,2.786-1.182,4.23-0.845     s2.722,1.324,3.415,2.634c0.145,0.275,0.272,0.571,0.505,0.777c0.233,0.206,0.614,0.288,0.849,0.086     c0.243-0.209,0.214-0.588,0.156-0.903c-0.239-1.285-0.625-2.542-1.149-3.74c-0.1-0.229-0.216-0.468-0.43-0.598     c-0.171-0.104-0.379-0.12-0.578-0.134c-2.354-0.167-4.708-0.333-7.062-0.5c-0.094-0.007-0.194-0.012-0.279,0.03     c-0.096,0.048-0.153,0.147-0.205,0.24c-0.404,0.728-0.807,1.456-1.211,2.184c-0.252,0.455-0.51,0.927-0.558,1.446"/>
      <path class="st1"
            d="M79.97,177.52c2.684-9.457,4.566-19.14,5.619-28.914c0.555-5.151,0.881-10.325,1.443-15.475     c0.633-5.793,1.569-11.568,3.164-17.173c0.364-1.28,0.935-2.73,2.208-3.116c-0.141,3.111-0.496,6.208-0.851,9.302     c-0.404,3.522-0.808,7.043-1.212,10.565c-1.678,14.622-3.359,29.262-6.16,43.711c-0.054,0.28-0.116,0.573-0.303,0.788     c-0.24,0.276-0.63,0.358-0.992,0.404c-1.139,0.146-2.304,0.093-3.425-0.156"/>
      <path class="st1"
            d="M106.63,99.918c-0.325,4.68,0.519,9.365,0.484,14.056c-0.019,2.56-0.299,5.113-0.315,7.674     c-0.022,3.521,0.319,7.024,0.26,10.547c-0.057,3.386,0.149,6.828,0.217,10.221c0.046,2.297,0.155,4.594,0.108,6.891     c-0.078,3.838,0.378,7.546-0.01,11.364c-0.34,3.343-0.432,6.711-0.274,10.068c0.087,1.854,0.251,3.71,0.159,5.564     c-0.007,0.14-0.019,0.29-0.103,0.401c-0.095,0.126-0.26,0.174-0.413,0.215c-0.935,0.248-1.869,0.496-2.804,0.744     c-0.484,0.129-1.024-0.155-1.166-0.636c-1.066-3.61-0.646-7.469-0.266-11.214c1.812-17.828,2.526-35.895-0.13-53.617     c-0.209-1.396-0.459-2.84-1.257-4.004c-1.768-2.577-5.405-2.835-8.53-2.838c-4.455-0.004-8.91-0.008-13.366-0.012     c0.187-1.866,0.143-3.473,0.198-5.347c1.691,0.939,3.726,0.838,5.658,0.931c1.954,0.094,3.912,0.095,5.866,0.003     c0.052,0.234,0.104,0.468,0.157,0.703c1.785-0.057,3.569-0.114,5.354-0.171c-0.038-0.27-0.013-0.549,0.071-0.808     c0.717,0.137,1.449,0.191,2.178,0.159L106.63,99.918z"/>
      <g>
				<path class="st1"
              d="M94.594,60.774c1.064,8.411,0.813,16.988-0.74,25.323c-0.192,1.029-0.312,2.304,0.54,2.913      c0.397-1.089,1.696-1.58,2.279-2.582c0.385-0.662,0.412-1.465,0.428-2.231c0.162-7.495,0.282-15.235-2.541-22.18"/>
        <path class="st1"
              d="M94.594,60.774c1.064,8.411,0.813,16.988-0.74,25.323c-0.192,1.029-0.312,2.304,0.54,2.913      c0.397-1.089,1.696-1.58,2.279-2.582c0.385-0.662,0.412-1.465,0.428-2.231c0.162-7.495,0.282-15.235-2.541-22.18"/>
			</g>
      <g>
				<path class="st3"
              d="M75.977,68.297c0.526,5.929,2.802,18.321,2.751,28.161c4.363,0.337,20.216,2.757,29.665-0.44      c0,0,0.601-24.823,0.035-44.101"/>
        <path class="st3" d="M95.736,46.253c-0.076-3.309-0.112-0.667-0.189-3.975"/>
        <path class="st3" d="M86.858,43.339c0,2.962,0-0.048,0,2.914"/>
        <g>
					<path class="st3"
                d="M104.449,178.145c3.792,0.729,7.016,1.584,10.809,2.313c1.556,0.299,3.43,0.902,3.714,2.46       c0.193,1.058-0.529,2.119-1.471,2.638c-0.942,0.519-2.057,0.604-3.133,0.623c-4.288,0.072-8.538-0.752-12.717-1.715       c-1.096-0.253-2.22-0.529-3.136-1.181s-1.415-1.677-1.376-2.882l-0.002-2.531"/>
          <g>
						<g>
							<path class="st38" d="M106.959,178.891c-0.875,0.518-1.548,1.368-1.851,2.339"/>
              <path class="st38"
                    d="M109.084,179.253c-0.373,0.11-0.651,0.418-0.88,0.732c-0.327,0.447-0.598,0.934-0.807,1.447"/>
              <path class="st38" d="M110.995,179.692c-0.578,0.582-1.02,1.298-1.282,2.075"/>
						</g>
            <g>
							<path class="st3" d="M106.959,178.891c-0.875,0.518-1.548,1.368-1.851,2.339"/>
              <path class="st3"
                    d="M109.084,179.253c-0.373,0.11-0.651,0.418-0.88,0.732c-0.327,0.447-0.598,0.934-0.807,1.447"/>
              <path class="st3" d="M110.995,179.692c-0.578,0.582-1.02,1.298-1.282,2.075"/>
						</g>
					</g>
				</g>
        <path class="st3"
              d="M106.919,96.458c0.241,14.277,0.572,80.512,0.572,80.512c-3.476,1.715-9.593,1.192-11.511,0.665      c-0.174-11.527-1.151-52.086-2.601-64.954l-0.643,0.095c-0.902,9.492-2.8,21.133-4.02,33.397      c-1.036,10.411-3.426,22.675-4.716,31.2c-1.918,0.527-6.823,0.174-11.126-0.308c0,0,3.361-39.846,3.519-42.416      c0.778-12.656,3.55-29.851,3.218-38.111"/>
        <path class="st3"
              d="M80.481,30.414c0.067,1.414,0.224,2.824,0.468,4.218c0.268,1.529,0.649,3.058,1.389,4.423      c1.526,2.815,4.618,4.713,7.819,4.798c3.201,0.085,6.39-1.645,8.063-4.376c0.709-1.157,1.152-2.455,1.514-3.762      c1.196-4.316,1.562-8.86,1.072-13.311"/>
        <circle class="st6" cx="88.406" cy="27.249" r="0.588"/>
        <circle class="st6" cx="96.965" cy="27.249" r="0.588"/>
        <path class="st3"
              d="M92.717,31.847c0.356,0.917,0.715,1.936,0.377,2.86c-0.08,0.218-0.202,0.428-0.388,0.568      c-0.24,0.18-0.554,0.22-0.853,0.243c-0.718,0.054-1.441,0.038-2.156-0.048"/>
        <path class="st3"
              d="M108.513,88.611c1.221,4.575,10.49,7.847,20.806,7.847c0,0,0.575-2.939,1.236-7.455      c0,0-14.371-4.347-15.449-8.366c-1.879-7.004-1.752-22.132-4.48-26.46c-3.099-4.918-8.153-2.69-14.892-6.015"/>
        <path class="st3" d="M85.86,37.773c0.315,0.535,0.755,0.996,1.276,1.334c0.46,0.299,1.091,0.492,1.535,0.171"/>
        <path class="st11"
              d="M77.848,90.33c0,0,3.964,0.735,3.755,2.907c-0.155,1.612-2.298,2.002-3.391,2.096      c-0.443,0.038-0.884,0.021-1.32-0.064c-0.593-0.115-1.473-0.371-2.243-0.929L77.848,90.33z"/>
        <path class="st3"
              d="M79.311,30.162c0,0,1.709-0.06,2.918,1.685c0,0,2.372-4.882,1.965-9.242c0,0,10.173-2.674,17.557,0.291      c0,0,1.046-6.337-1.046-9.767c0,0-0.638,0.465-0.754,1.511c0,0-1.802-4.883-8.429-3.314s-13.023,6.431-13.663,10.105      c0,0-0.17,2.763-0.946,3.511c0,0,1.266-0.144,1.496-1.41C78.407,23.533,79.812,28.564,79.311,30.162z"/>
        <path class="st3"
              d="M89.542,55.573c0,0,1.378,1.503,2.437,2.227c0,0-0.001,22.6-0.279,28.158l2.834,3.39l2.668-3.279      c0,0,0.222-13.727-1.111-20.062s-2.056-8.225-2.056-8.225l0.962-2.505l-0.872-2.503l-2.145-0.857l-2.437,1.238V55.573z"/>
        <path class="st3"
              d="M86.858,48.529c-3.515,1.295-6.415,1.848-13.326,5.245c-4.282,2.105-12.057,14.755-13.756,19.056      c-1.482,3.753-0.278,6.805,1.717,9.706c2.028,2.949,7.082,7.966,12.735,12.308l4.142-5.151c0,0-6.558-8.609-9.574-12.804      c0,0,3.276-4.83,9.749-11.589"/>
        <path class="st3" d="M96.574,101.052c3.078-0.176,6.549-0.545,10.393-1.201"/>
        <path class="st3" d="M79.605,99.851c0,0,4.054,1.242,11.631,1.328"/>
        <path class="st3"
              d="M91.236,97.544v4.244c0,0,2.295,0.371,5.306-0.11l0.203-4.036C96.745,97.643,93.575,97.817,91.236,97.544z"/>
        <path class="st3"
              d="M74.165,177.204c0,0-3.916,6.46-1.292,7.824c2.624,1.364,12.685,2.416,11.197-3.002      c-1.006-3.664-1.591-4.434-1.591-4.434"/>
        <path class="st11"
              d="M89.199,56.088c-4.892-2.214-5.561-7.559-5.561-7.559s1.961-1.967,3.22-2.276c0,0,1.105,3.347,5.121,5.664      L89.199,56.088z"/>
        <path class="st11"
              d="M91.98,51.917c0,0,2.775-1.493,3.756-5.664c0,0,2.5,2.419,2.99,4.222c0,0-1.854,4.016-3.373,5.098      C95.352,55.573,92.277,53.092,91.98,51.917z"/>
        <path class="st11" d="M76.098,178.89c0,0,1.916,1.076,4.135,0.269"/>
        <path class="st11" d="M76.098,180.62c0,0,1.916,1.076,4.135,0.269"/>
        <path class="st3"
              d="M129.477,95.616c0,0,5.314,1.213,6.178,0.637c0.864-0.576,1.8-4.789,1.656-5.617      c-0.144-0.828-3.405-0.72-3.405-0.72s0.865-4.71-0.084-4.699c-1.332,0.016-1.717,4.843-1.717,4.843l-1.726,0.118"/>
			</g>
		</g>
	</g>
</g>
  <g id="Ebene_1">
</g>
</svg>
