<svg xmlns="http://www.w3.org/2000/svg" version="1.1" baseProfile="basic" id="Ebene_1" x="0px" y="0px" width="320px"
     height="350px" viewBox="0 0 320 350" xml:space="preserve">
<style type="text/css">
	.st0 {
    fill: #D0E2F3;
  }

  .st1 {
    fill: none;
    stroke: #004B8C;
    stroke-linecap: round;
    stroke-linejoin: round;
    stroke-miterlimit: 10;
  }

  .st2 {
    fill: #FFFFFF;
    stroke: #004B8C;
    stroke-miterlimit: 10;
  }

  .st3 {
    fill: none;
    stroke: #004B8C;
    stroke-linecap: round;
    stroke-miterlimit: 10;
  }

  .st4 {
    fill: none;
    stroke: #004B8C;
    stroke-linecap: round;
    stroke-linejoin: round;
  }

  .st5 {
    fill: #004B8C;
  }

  .st6 {
    fill: none;
    stroke: #004B8C;
    stroke-miterlimit: 10;
  }

  .st7 {
    fill: #FFFFFF;
    stroke: #004B8C;
    stroke-linecap: round;
    stroke-linejoin: round;
    stroke-miterlimit: 10;
  }

  .st8 {
    fill: none;
    stroke: #D7D7D7;
    stroke-linecap: round;
    stroke-linejoin: round;
    stroke-miterlimit: 10;
  }

  .st9 {
    fill: #404040;
  }
</style>
  <g id="Karte">
</g>
  <g id="Grafik">
	<g>
		<polygon class="st0" points="233.44,195.614 283.495,195.614 282.665,193.454 234.867,193.454   "/>
    <path class="st0"
          d="M282.774,193.366c-0.108,3.338-0.285,35.275-0.393,38.613c-0.005,0.161-0.002,0.343,0.115,0.453    c0.086,0.081,0.212,0.1,0.329,0.113c0.373,0.04-0.116-0.276,0.669-0.765c0.999-0.623,0.754-0.751,0.754-0.856    c0-2.206,0.136-1.404,0.141-1.557c0.108-3.277,0.194-30.421,0.118-33.698c-0.002-0.093-1.136-1.795-1.662-2.259"/>
    <path class="st1"
          d="M279.378,232.699h-41.036c-2.889,0-5.23-2.342-5.23-5.23v-28.986c0-2.889,2.342-5.23,5.23-5.23h41.036    c2.889,0,5.23,2.342,5.23,5.23v28.986C284.608,230.357,282.266,232.699,279.378,232.699z"/>
    <path class="st0"
          d="M263.986,217.764c-0.108,3.338-0.215,6.676-0.323,10.015c-0.005,0.161-0.002,0.343,0.115,0.453    c0.086,0.081,0.212,0.1,0.329,0.113c0.373,0.04,0.749,0.053,1.123,0.04c0.105-0.004,0.217-0.013,0.3-0.077    c0.121-0.094,0.136-0.267,0.141-0.42c0.108-3.277,0.124-6.556,0.048-9.834c-0.002-0.093-0.006-0.192-0.058-0.27    c-0.054-0.081-0.15-0.122-0.242-0.151c-0.451-0.141-0.961-0.075-1.362,0.175"/>
    <path class="st0"
          d="M263.441,203.324c-0.108,3.338-0.215,6.676-0.323,10.015c-0.005,0.161-0.002,0.343,0.115,0.453    c0.086,0.081,0.212,0.1,0.329,0.113c0.373,0.04,0.749,0.054,1.123,0.04c0.105-0.004,0.217-0.013,0.3-0.077    c0.121-0.094,0.136-0.267,0.141-0.42c0.108-3.277,0.124-6.556,0.048-9.834c-0.002-0.093-0.006-0.192-0.058-0.27    c-0.054-0.081-0.15-0.122-0.242-0.151c-0.451-0.141-0.961-0.075-1.362,0.175"/>
    <path class="st0"
          d="M279.987,203.324c-0.108,3.338-0.215,6.676-0.323,10.015c-0.005,0.161-0.002,0.343,0.115,0.453    c0.086,0.081,0.212,0.1,0.329,0.113c0.373,0.04,0.749,0.054,1.123,0.04c0.105-0.004,0.217-0.013,0.3-0.077    c0.121-0.094,0.136-0.267,0.141-0.42c0.108-3.277,0.124-6.556,0.048-9.834c-0.002-0.093-0.006-0.192-0.058-0.27    c-0.054-0.081-0.15-0.122-0.242-0.151c-0.451-0.141-0.961-0.075-1.362,0.175"/>
    <path class="st2"
          d="M242.017,196.524h-1.727c-0.287,0-0.521-0.235-0.521-0.521v-0.081c0-0.287,0.235-0.521,0.521-0.521h1.727    c0.287,0,0.521,0.235,0.521,0.521v0.081C242.538,196.289,242.303,196.524,242.017,196.524z"/>
    <line class="st3" x1="240.74" y1="191.407" x2="240.74" y2="195.962"/>
    <line class="st3" x1="241.566" y1="191.407" x2="241.566" y2="195.962"/>
    <path class="st2"
          d="M276.86,196.524h-1.727c-0.287,0-0.521-0.235-0.521-0.521v-0.081c0-0.287,0.235-0.521,0.521-0.521h1.727    c0.287,0,0.521,0.235,0.521,0.521v0.081C277.381,196.289,277.147,196.524,276.86,196.524z"/>
    <line class="st3" x1="275.583" y1="191.407" x2="275.583" y2="195.962"/>
    <line class="st3" x1="276.409" y1="191.407" x2="276.409" y2="195.962"/>
    <rect x="252.49" y="203.217" class="st1" width="12.531" height="10.635"/>
    <rect x="268.914" y="203.217" class="st1" width="12.531" height="10.635"/>
    <rect x="253.035" y="217.657" class="st1" width="12.531" height="10.635"/>
    <path class="st0"
          d="M279.764,217.764c-0.108,3.338-0.215,6.676-0.323,10.015c-0.005,0.161-0.002,0.343,0.115,0.453    c0.086,0.081,0.212,0.1,0.329,0.113c0.373,0.04,0.749,0.053,1.123,0.04c0.105-0.004,0.217-0.013,0.3-0.077    c0.121-0.094,0.136-0.267,0.141-0.42c0.108-3.277,0.124-6.556,0.048-9.834c-0.002-0.093-0.006-0.192-0.058-0.27    c-0.054-0.081-0.15-0.122-0.242-0.151c-0.451-0.141-0.961-0.075-1.362,0.175"/>
    <rect x="268.813" y="217.657" class="st1" width="12.531" height="10.635"/>
    <path class="st0"
          d="M247.44,217.764c-0.108,3.338-0.215,6.676-0.323,10.015c-0.005,0.161-0.002,0.343,0.115,0.453    c0.086,0.081,0.212,0.1,0.329,0.113c0.373,0.04,0.749,0.053,1.123,0.04c0.105-0.004,0.217-0.013,0.3-0.077    c0.121-0.094,0.136-0.267,0.141-0.42c0.108-3.277,0.124-6.556,0.048-9.834c-0.002-0.093-0.006-0.192-0.058-0.27    c-0.054-0.081-0.15-0.122-0.242-0.151c-0.451-0.141-0.961-0.075-1.362,0.175"/>
    <path class="st0"
          d="M246.895,203.324c-0.108,3.338-0.215,6.676-0.323,10.015c-0.005,0.161-0.002,0.343,0.115,0.453    c0.086,0.081,0.212,0.1,0.329,0.113c0.373,0.04,0.749,0.054,1.123,0.04c0.105-0.004,0.217-0.013,0.3-0.077    c0.121-0.094,0.136-0.267,0.141-0.42c0.108-3.277,0.124-6.556,0.048-9.834c-0.002-0.093-0.006-0.192-0.058-0.27    c-0.054-0.081-0.15-0.122-0.242-0.151c-0.451-0.141-0.961-0.075-1.362,0.175"/>
    <rect x="236.611" y="217.657" class="st1" width="12.531" height="10.635"/>
    <rect x="236.065" y="203.217" class="st1" width="12.531" height="10.635"/>
    <g>
			<path class="st4"
            d="M241.718,208.187h31.807c1.949,0,3.53,1.58,3.53,3.53v0.668c0,1.949-1.58,3.53-3.53,3.53h-28.428     c-1.95,0-3.53,1.58-3.53,3.53c0,1.949,1.58,3.53,3.53,3.53h30.874"/>
      <g>
				<polygon class="st5"
                 points="272.656,227.065 271.974,226.332 275.586,222.976 271.974,219.619 272.656,218.886       277.054,222.976     "/>
			</g>
		</g>
    <line class="st3" x1="284.533" y1="199.865" x2="233.259" y2="199.865"/>
	</g>
    <g>
		<polygon class="st0" points="129.602,195.614 179.656,195.614 178.826,193.454 131.029,193.454   "/>
      <path class="st0"
            d="M178.936,193.366c-0.108,3.338-0.285,35.275-0.393,38.613c-0.005,0.161-0.002,0.343,0.115,0.453    c0.086,0.081,0.212,0.1,0.329,0.113c0.373,0.04-0.116-0.276,0.669-0.765c0.999-0.623,0.754-0.751,0.754-0.856    c0-2.206,0.136-1.404,0.141-1.557c0.108-3.277,0.194-30.421,0.118-33.698c-0.002-0.093-1.136-1.795-1.662-2.259"/>
      <path class="st1"
            d="M175.539,232.699h-41.036c-2.889,0-5.23-2.342-5.23-5.23v-28.986c0-2.889,2.342-5.23,5.23-5.23h41.036    c2.889,0,5.23,2.342,5.23,5.23v28.986C180.769,230.357,178.428,232.699,175.539,232.699z"/>
      <path class="st0"
            d="M160.147,217.764c-0.108,3.338-0.215,6.676-0.323,10.015c-0.005,0.161-0.002,0.343,0.115,0.453    c0.086,0.081,0.212,0.1,0.329,0.113c0.373,0.04,0.749,0.053,1.123,0.04c0.105-0.004,0.217-0.013,0.3-0.077    c0.121-0.094,0.136-0.267,0.141-0.42c0.108-3.277,0.124-6.556,0.048-9.834c-0.002-0.093-0.006-0.192-0.058-0.27    c-0.054-0.081-0.15-0.122-0.242-0.151c-0.451-0.141-0.961-0.075-1.362,0.175"/>
      <path class="st0"
            d="M159.602,203.324c-0.108,3.338-0.215,6.676-0.323,10.015c-0.005,0.161-0.002,0.343,0.115,0.453    c0.086,0.081,0.212,0.1,0.329,0.113c0.373,0.04,0.749,0.054,1.123,0.04c0.105-0.004,0.217-0.013,0.3-0.077    c0.121-0.094,0.136-0.267,0.141-0.42c0.108-3.277,0.124-6.556,0.048-9.834c-0.002-0.093-0.006-0.192-0.058-0.27    c-0.054-0.081-0.15-0.122-0.242-0.151c-0.451-0.141-0.961-0.075-1.362,0.175"/>
      <path class="st0"
            d="M176.148,203.324c-0.108,3.338-0.215,6.676-0.323,10.015c-0.005,0.161-0.002,0.343,0.115,0.453    c0.086,0.081,0.212,0.1,0.329,0.113c0.373,0.04,0.749,0.054,1.123,0.04c0.105-0.004,0.217-0.013,0.3-0.077    c0.121-0.094,0.136-0.267,0.141-0.42c0.108-3.277,0.124-6.556,0.048-9.834c-0.002-0.093-0.006-0.192-0.058-0.27    c-0.054-0.081-0.15-0.122-0.242-0.151c-0.451-0.141-0.961-0.075-1.362,0.175"/>
      <path class="st2"
            d="M138.178,196.524h-1.727c-0.287,0-0.521-0.235-0.521-0.521v-0.081c0-0.287,0.235-0.521,0.521-0.521h1.727    c0.287,0,0.521,0.235,0.521,0.521v0.081C138.699,196.289,138.465,196.524,138.178,196.524z"/>
      <line class="st3" x1="136.901" y1="191.407" x2="136.901" y2="195.962"/>
      <line class="st3" x1="137.727" y1="191.407" x2="137.727" y2="195.962"/>
      <path class="st2"
            d="M173.021,196.524h-1.727c-0.287,0-0.521-0.235-0.521-0.521v-0.081c0-0.287,0.235-0.521,0.521-0.521h1.727    c0.287,0,0.521,0.235,0.521,0.521v0.081C173.543,196.289,173.308,196.524,173.021,196.524z"/>
      <line class="st3" x1="171.745" y1="191.407" x2="171.745" y2="195.962"/>
      <line class="st3" x1="172.571" y1="191.407" x2="172.571" y2="195.962"/>
      <rect x="148.651" y="203.217" class="st1" width="12.531" height="10.635"/>
      <rect x="165.076" y="203.217" class="st1" width="12.531" height="10.635"/>
      <rect x="149.196" y="217.657" class="st1" width="12.531" height="10.635"/>
      <path class="st0"
            d="M175.926,217.764c-0.108,3.338-0.215,6.676-0.323,10.015c-0.005,0.161-0.002,0.343,0.115,0.453    c0.086,0.081,0.212,0.1,0.329,0.113c0.373,0.04,0.749,0.053,1.123,0.04c0.105-0.004,0.217-0.013,0.3-0.077    c0.121-0.094,0.136-0.267,0.141-0.42c0.108-3.277,0.124-6.556,0.048-9.834c-0.002-0.093-0.006-0.192-0.058-0.27    c-0.054-0.081-0.15-0.122-0.242-0.151c-0.451-0.141-0.961-0.075-1.362,0.175"/>
      <rect x="164.975" y="217.657" class="st1" width="12.531" height="10.635"/>
      <path class="st0"
            d="M143.601,217.764c-0.108,3.338-0.215,6.676-0.323,10.015c-0.005,0.161-0.002,0.343,0.115,0.453    c0.086,0.081,0.212,0.1,0.329,0.113c0.373,0.04,0.749,0.053,1.123,0.04c0.105-0.004,0.217-0.013,0.3-0.077    c0.121-0.094,0.136-0.267,0.141-0.42c0.108-3.277,0.124-6.556,0.048-9.834c-0.002-0.093-0.006-0.192-0.058-0.27    c-0.054-0.081-0.15-0.122-0.242-0.151c-0.451-0.141-0.961-0.075-1.362,0.175"/>
      <path class="st0"
            d="M143.056,203.324c-0.108,3.338-0.215,6.676-0.323,10.015c-0.005,0.161-0.002,0.343,0.115,0.453    c0.086,0.081,0.212,0.1,0.329,0.113c0.373,0.04,0.749,0.054,1.123,0.04c0.105-0.004,0.217-0.013,0.3-0.077    c0.121-0.094,0.136-0.267,0.141-0.42c0.108-3.277,0.124-6.556,0.048-9.834c-0.002-0.093-0.006-0.192-0.058-0.27    c-0.054-0.081-0.15-0.122-0.242-0.151c-0.451-0.141-0.961-0.075-1.362,0.175"/>
      <rect x="132.772" y="217.657" class="st1" width="12.531" height="10.635"/>
      <rect x="132.227" y="203.217" class="st1" width="12.531" height="10.635"/>
      <g>
			<line class="st4" x1="137.879" y1="208.504" x2="155.222" y2="208.504"/>
        <g>
				<polygon class="st5"
                 points="151.908,212.594 151.226,211.862 154.838,208.505 151.226,205.148 151.908,204.415       156.306,208.505     "/>
			</g>
		</g>
      <line class="st3" x1="180.694" y1="199.865" x2="129.42" y2="199.865"/>
      <g>
			<line class="st4" x1="137.879" y1="222.975" x2="171.9" y2="222.975"/>
        <g>
				<polygon class="st5"
                 points="168.587,227.065 167.905,226.332 171.516,222.976 167.905,219.619 168.587,218.886       172.985,222.976     "/>
			</g>
		</g>
	</g>
    <g>
		<circle class="st2" cx="155.021" cy="57.248" r="19"/>
      <path class="st0"
            d="M163.01,49.568c6.867,6.86,5.768,16.526,0.548,24.487c4.917-2.667,9.026-7.611,9.75-12.084    s0.441-10.242-1.833-14.167c-2.623-4.527-8.314-8.015-13.417-9.25s-14.922,2.516-17.75,7.25    C146.482,43.539,156.375,42.939,163.01,49.568z"/>
      <circle class="st6" cx="155.021" cy="57.248" r="19"/>
      <polyline class="st1" points="144.3,54.604 154.729,63.807 167.808,50.471   "/>
	</g>
    <g>
		<g>
			<circle class="st2" cx="156.054" cy="282.497" r="19"/>
      <path class="st0"
            d="M164.198,274.636c6.867,6.86,5.054,17.178-0.167,25.139c4.917-2.667,9.586-8.083,10.31-12.556     s0.441-10.242-1.833-14.167c-2.623-4.527-8.314-8.015-13.417-9.25s-14.922,2.516-17.75,7.25     C147.514,268.788,157.562,268.008,164.198,274.636z"/>
      <circle class="st6" cx="156.054" cy="282.497" r="19"/>
		</g>
      <path class="st7"
            d="M161.932,292.648c-1.739,1.016-3.762,1.599-5.921,1.599c-6.489,0-11.75-5.261-11.75-11.75    s5.261-11.75,11.75-11.75s11.75,5.261,11.75,11.75"/>
      <polyline class="st1" points="162.832,279.584 167.931,283.567 171.846,278.416   "/>
	</g>
    <g>
		<line class="st6" x1="134.151" y1="126.906" x2="144.151" y2="126.906"/>
      <line class="st6" x1="174.327" y1="126.906" x2="184.327" y2="126.906"/>
      <g>
			<g>
				<path class="st0"
              d="M166.966,119.146c5.31,5.363,5.31,12.968,1.251,19.159c2.936-1.969,4.9-5.243,5.463-8.721      s0.043-7.146-1.725-10.198c-2.039-3.52-5.719-6.286-9.687-7.246s-9.623,0.602-12.654,3.163      C154.414,113.543,161.272,113.396,166.966,119.146z"/>
        <ellipse class="st6" cx="159.151" cy="126.931" rx="15" ry="14.923"/>
			</g>
        <g>
				<line class="st1" x1="154.334" y1="135.075" x2="164.065" y2="118.634"/>
          <ellipse class="st1" cx="153.564" cy="123.164" rx="3.119" ry="4.53"/>
          <ellipse class="st1" cx="164.738" cy="130.382" rx="3.119" ry="4.53"/>
			</g>
		</g>
      <g>
			<g>
				<path class="st0"
              d="M129.608,121.716c3.54,3.576,3.54,8.645,0.834,12.772c1.958-1.312,3.267-3.495,3.642-5.814      s0.028-4.764-1.15-6.799c-1.36-2.347-3.813-4.19-6.458-4.831c-2.645-0.64-6.416,0.401-8.436,2.109      C121.24,117.98,125.812,117.882,129.608,121.716z"/>
        <ellipse class="st6" cx="124.398" cy="126.906" rx="10" ry="9.949"/>
			</g>
        <g>
				<line class="st1" x1="121.187" y1="132.335" x2="127.673" y2="121.374"/>
          <ellipse class="st1" cx="120.673" cy="124.394" rx="2.079" ry="3.02"/>
          <ellipse class="st1" cx="128.122" cy="129.206" rx="2.079" ry="3.02"/>
			</g>
		</g>
      <g>
			<g>
				<path class="st0"
              d="M193.303,123.771c2.124,2.145,2.124,5.187,0.5,7.663c1.175-0.787,1.96-2.097,2.185-3.488      c0.225-1.391,0.017-2.858-0.69-4.079c-0.816-1.408-2.288-2.514-3.875-2.898s-3.849,0.241-5.062,1.265      C188.283,121.53,191.026,121.471,193.303,123.771z"/>
        <ellipse class="st6" cx="190.177" cy="126.885" rx="6" ry="5.969"/>
			</g>
        <g>
				<line class="st1" x1="188.251" y1="130.143" x2="192.143" y2="123.566"/>
          <ellipse class="st1" cx="187.943" cy="125.378" rx="1.248" ry="1.812"/>
          <ellipse class="st1" cx="192.412" cy="128.266" rx="1.248" ry="1.812"/>
			</g>
		</g>
	</g>
    <g>
		<g>
			<g>
				<path class="st0"
              d="M268.756,116.522c6.727,6.794,6.727,16.426,1.585,24.268c3.719-2.494,6.207-6.641,6.92-11.046      s0.054-9.051-2.186-12.917c-2.583-4.459-7.245-7.962-12.271-9.178s-12.189,0.762-16.028,4.007      C252.857,109.425,261.544,109.238,268.756,116.522z"/>
        <ellipse class="st6" cx="258.857" cy="126.383" rx="19" ry="18.903"/>
			</g>
		</g>
      <g>
			<line class="st1" x1="253.112" y1="136.093" x2="264.719" y2="116.48"/>
        <ellipse class="st1" cx="252.193" cy="121.884" rx="3.721" ry="5.403"/>
        <ellipse class="st1" cx="265.522" cy="130.494" rx="3.721" ry="5.403"/>
		</g>
	</g>
    <g>
		<g>
			<circle class="st2" cx="258.86" cy="57.248" r="19"/>
      <path class="st0"
            d="M266.849,49.568c6.867,6.86,5.768,16.526,0.548,24.487c4.917-2.667,9.026-7.611,9.75-12.084     s0.441-10.242-1.833-14.167c-2.623-4.527-8.314-8.015-13.417-9.25s-14.922,2.516-17.75,7.25     C250.32,43.539,260.214,42.939,266.849,49.568z"/>
      <circle class="st6" cx="258.86" cy="57.248" r="19"/>
		</g>
      <path class="st1" d="M249.978,45.888c6.119,7.389,12.239,14.778,18.358,22.167"/>
      <path class="st1" d="M249.978,68.055c6.119-7.389,12.239-14.778,18.358-22.167"/>
	</g>
    <line class="st8" x1="8.944" y1="29.69" x2="311.38" y2="29.69"/>
    <line class="st8" x1="8.944" y1="100.755" x2="310.745" y2="100.755"/>
    <line class="st8" x1="8.944" y1="183.821" x2="310.745" y2="183.821"/>
    <line class="st8" x1="8.944" y1="254.886" x2="310.745" y2="254.886"/>
    <line class="st8" x1="8.944" y1="341.952" x2="310.745" y2="341.952"/>
    <line class="st8" x1="207.563" y1="30.256" x2="207.563" y2="341.814"/>
    <line class="st8" x1="100.625" y1="30.256" x2="100.625" y2="341.814"/>
    <line class="st8" x1="104.431" y1="30.256" x2="104.431" y2="341.814"/>
    <g>
		<g>
			<circle class="st2" cx="259.471" cy="282.497" r="19"/>
      <path class="st0"
            d="M267.46,274.816c6.867,6.86,5.768,16.526,0.548,24.487c4.917-2.667,9.026-7.611,9.75-12.084     c0.724-4.473,0.441-10.242-1.833-14.167c-2.623-4.527-8.314-8.015-13.417-9.25s-14.922,2.516-17.75,7.25     C250.932,268.788,260.825,268.188,267.46,274.816z"/>
      <circle class="st6" cx="259.471" cy="282.497" r="19"/>
		</g>
      <line class="st1" x1="250.59" y1="271.136" x2="264.342" y2="287.803"/>
      <line class="st1" x1="250.59" y1="293.303" x2="268.948" y2="271.136"/>
      <g>
			<path class="st5"
            d="M268.021,289.159v-0.515c0-0.743,0.115-1.354,0.345-1.835c0.229-0.479,0.657-0.986,1.283-1.52     c0.869-0.73,1.417-1.28,1.644-1.648c0.227-0.369,0.34-0.813,0.34-1.335c0-0.647-0.209-1.148-0.628-1.501     c-0.418-0.353-1.02-0.528-1.806-0.528c-0.504,0-0.996,0.059-1.475,0.176c-0.479,0.118-1.028,0.332-1.647,0.644l-0.565-1.287     c1.207-0.629,2.468-0.943,3.784-0.943c1.22,0,2.168,0.299,2.845,0.896s1.016,1.438,1.016,2.525c0,0.464-0.062,0.872-0.188,1.225     c-0.124,0.353-0.308,0.686-0.551,1.001c-0.242,0.314-0.766,0.82-1.57,1.52c-0.646,0.547-1.071,1.001-1.279,1.363     c-0.208,0.361-0.312,0.845-0.312,1.448v0.314H268.021z M267.551,291.99c0-0.864,0.384-1.297,1.149-1.297     c0.371,0,0.656,0.111,0.857,0.334s0.302,0.543,0.302,0.963c0,0.406-0.102,0.723-0.307,0.948     c-0.204,0.225-0.488,0.338-0.853,0.338c-0.332,0-0.606-0.1-0.823-0.3C267.659,292.777,267.551,292.447,267.551,291.99z"/>
		</g>
	</g>
</g>
  <g id="Text">
	<g>
		<path class="st9" d="M123.527,22.212h-2.271v-8.818h-2.908v-1.89h8.086v1.89h-2.908L123.527,22.212L123.527,22.212z"/>
    <path class="st9"
          d="M133.107,22.212l-0.432-1.113h-0.059c-0.376,0.474-0.763,0.802-1.161,0.985s-0.917,0.274-1.557,0.274    c-0.786,0-1.405-0.225-1.856-0.674c-0.452-0.449-0.678-1.089-0.678-1.919c0-0.869,0.304-1.51,0.912-1.923    c0.607-0.412,1.524-0.641,2.75-0.685l1.421-0.044v-0.359c0-0.829-0.425-1.244-1.274-1.244c-0.654,0-1.423,0.197-2.307,0.593    l-0.74-1.509c0.942-0.493,1.987-0.74,3.135-0.74c1.099,0,1.941,0.24,2.527,0.719s0.879,1.206,0.879,2.182v5.457    C134.667,22.212,133.107,22.212,133.107,22.212z M132.448,18.418l-0.864,0.029c-0.649,0.02-1.133,0.137-1.45,0.352    s-0.476,0.542-0.476,0.981c0,0.63,0.361,0.945,1.084,0.945c0.518,0,0.931-0.149,1.242-0.447c0.31-0.298,0.465-0.693,0.465-1.187    v-0.673H132.448z"/>
    <path class="st9"
          d="M144.093,14.024v1.136l-1.282,0.329c0.234,0.366,0.352,0.776,0.352,1.23c0,0.879-0.307,1.563-0.919,2.055    c-0.613,0.49-1.464,0.735-2.553,0.735l-0.403-0.021l-0.33-0.037c-0.229,0.176-0.344,0.372-0.344,0.586    c0,0.322,0.41,0.484,1.23,0.484h1.392c0.898,0,1.583,0.192,2.054,0.578s0.707,0.952,0.707,1.699c0,0.957-0.399,1.699-1.197,2.227    c-0.799,0.527-1.945,0.791-3.439,0.791c-1.143,0-2.016-0.199-2.619-0.597s-0.904-0.956-0.904-1.674    c0-0.493,0.154-0.906,0.461-1.237c0.308-0.332,0.759-0.569,1.355-0.711c-0.229-0.098-0.43-0.258-0.601-0.479    c-0.171-0.223-0.256-0.458-0.256-0.707c0-0.312,0.09-0.572,0.271-0.78c0.181-0.207,0.442-0.411,0.784-0.611    c-0.43-0.186-0.771-0.483-1.022-0.894s-0.377-0.894-0.377-1.45c0-0.894,0.291-1.584,0.872-2.072s1.411-0.732,2.49-0.732    c0.229,0,0.501,0.021,0.817,0.062c0.314,0.042,0.516,0.072,0.604,0.092h2.857V14.024z M137.772,23.369    c0,0.308,0.147,0.55,0.443,0.726c0.295,0.176,0.709,0.264,1.241,0.264c0.801,0,1.428-0.11,1.882-0.33s0.681-0.52,0.681-0.9    c0-0.309-0.134-0.521-0.403-0.638s-0.684-0.176-1.245-0.176h-1.157c-0.41,0-0.753,0.097-1.029,0.289    C137.91,22.797,137.772,23.052,137.772,23.369z M138.585,16.704c0,0.444,0.101,0.796,0.304,1.055    c0.202,0.259,0.511,0.389,0.926,0.389c0.42,0,0.728-0.13,0.923-0.389s0.293-0.61,0.293-1.055c0-0.986-0.405-1.479-1.216-1.479    C138.996,15.225,138.585,15.718,138.585,16.704z"/>
    <path class="st9"
          d="M149.147,22.359c-1.318,0-2.349-0.363-3.091-1.092c-0.742-0.727-1.113-1.758-1.113-3.09    c0-1.372,0.343-2.434,1.029-3.183c0.686-0.75,1.634-1.124,2.845-1.124c1.157,0,2.058,0.329,2.703,0.988s0.967,1.57,0.967,2.732    v1.084h-5.281c0.024,0.635,0.212,1.13,0.564,1.486s0.845,0.535,1.479,0.535c0.493,0,0.959-0.052,1.399-0.154    s0.898-0.266,1.377-0.49v1.729c-0.391,0.195-0.808,0.34-1.252,0.436C150.329,22.311,149.787,22.359,149.147,22.359z     M148.832,15.459c-0.474,0-0.845,0.15-1.113,0.45c-0.269,0.301-0.422,0.727-0.461,1.278h3.135    c-0.01-0.552-0.154-0.978-0.432-1.278C149.682,15.61,149.306,15.459,148.832,15.459z"/>
    <path class="st9"
          d="M160.016,19.78c0,0.84-0.292,1.479-0.875,1.919c-0.584,0.439-1.457,0.659-2.619,0.659    c-0.596,0-1.104-0.04-1.523-0.121c-0.42-0.08-0.813-0.198-1.179-0.355v-1.846c0.415,0.196,0.883,0.359,1.402,0.491    c0.521,0.132,0.978,0.198,1.374,0.198c0.811,0,1.216-0.234,1.216-0.703c0-0.176-0.054-0.319-0.161-0.429s-0.293-0.234-0.557-0.374    c-0.264-0.139-0.615-0.301-1.055-0.486c-0.63-0.264-1.093-0.508-1.388-0.732s-0.51-0.482-0.645-0.773    c-0.134-0.29-0.201-0.648-0.201-1.072c0-0.728,0.282-1.291,0.846-1.688c0.564-0.398,1.364-0.597,2.399-0.597    c0.986,0,1.946,0.215,2.878,0.645l-0.674,1.611c-0.41-0.176-0.793-0.32-1.15-0.433s-0.72-0.169-1.091-0.169    c-0.659,0-0.989,0.179-0.989,0.535c0,0.2,0.106,0.373,0.319,0.52c0.212,0.146,0.677,0.364,1.395,0.652    c0.64,0.259,1.108,0.501,1.406,0.725c0.298,0.226,0.518,0.484,0.659,0.777S160.016,19.375,160.016,19.78z"/>
    <path class="st9"
          d="M168.886,14.024v1.136l-1.282,0.329c0.234,0.366,0.352,0.776,0.352,1.23c0,0.879-0.307,1.563-0.919,2.055    c-0.613,0.49-1.464,0.735-2.553,0.735l-0.403-0.021l-0.33-0.037c-0.229,0.176-0.344,0.372-0.344,0.586    c0,0.322,0.41,0.484,1.23,0.484h1.392c0.898,0,1.583,0.192,2.054,0.578s0.707,0.952,0.707,1.699c0,0.957-0.399,1.699-1.197,2.227    c-0.799,0.527-1.945,0.791-3.439,0.791c-1.143,0-2.016-0.199-2.619-0.597s-0.904-0.956-0.904-1.674    c0-0.493,0.154-0.906,0.461-1.237c0.308-0.332,0.759-0.569,1.355-0.711c-0.229-0.098-0.43-0.258-0.601-0.479    c-0.171-0.223-0.256-0.458-0.256-0.707c0-0.312,0.09-0.572,0.271-0.78c0.181-0.207,0.442-0.411,0.784-0.611    c-0.43-0.186-0.771-0.483-1.022-0.894s-0.377-0.894-0.377-1.45c0-0.894,0.291-1.584,0.872-2.072s1.411-0.732,2.49-0.732    c0.229,0,0.501,0.021,0.817,0.062c0.314,0.042,0.516,0.072,0.604,0.092h2.857V14.024z M162.565,23.369    c0,0.308,0.147,0.55,0.443,0.726c0.295,0.176,0.709,0.264,1.241,0.264c0.801,0,1.428-0.11,1.882-0.33s0.681-0.52,0.681-0.9    c0-0.309-0.134-0.521-0.403-0.638s-0.684-0.176-1.245-0.176h-1.157c-0.41,0-0.753,0.097-1.029,0.289    C162.703,22.797,162.565,23.052,162.565,23.369z M163.378,16.704c0,0.444,0.101,0.796,0.304,1.055    c0.202,0.259,0.511,0.389,0.926,0.389c0.42,0,0.728-0.13,0.923-0.389s0.293-0.61,0.293-1.055c0-0.986-0.405-1.479-1.216-1.479    C163.788,15.225,163.378,15.718,163.378,16.704z"/>
    <path class="st9"
          d="M173.939,22.359c-1.318,0-2.349-0.363-3.091-1.092c-0.742-0.727-1.113-1.758-1.113-3.09    c0-1.372,0.343-2.434,1.029-3.183c0.686-0.75,1.634-1.124,2.845-1.124c1.157,0,2.058,0.329,2.703,0.988s0.967,1.57,0.967,2.732    v1.084h-5.281c0.024,0.635,0.212,1.13,0.564,1.486s0.845,0.535,1.479,0.535c0.493,0,0.959-0.052,1.399-0.154    s0.898-0.266,1.377-0.49v1.729c-0.391,0.195-0.808,0.34-1.252,0.436C175.121,22.311,174.579,22.359,173.939,22.359z     M173.625,15.459c-0.474,0-0.845,0.15-1.113,0.45c-0.269,0.301-0.422,0.727-0.461,1.278h3.135    c-0.01-0.552-0.154-0.978-0.432-1.278C174.474,15.61,174.098,15.459,173.625,15.459z"/>
    <path class="st9" d="M181.33,22.212h-2.234V10.816h2.234V22.212z"/>
    <path class="st9"
          d="M186.267,22.359c-0.962,0-1.718-0.373-2.267-1.121c-0.55-0.746-0.824-1.781-0.824-3.105    c0-1.342,0.279-2.389,0.839-3.138c0.559-0.75,1.329-1.124,2.311-1.124c1.03,0,1.816,0.4,2.358,1.201h0.073    c-0.112-0.61-0.169-1.155-0.169-1.634v-2.622h2.241v11.396h-1.714l-0.432-1.062h-0.096    C188.08,21.956,187.307,22.359,186.267,22.359z M187.05,20.579c0.571,0,0.99-0.166,1.257-0.498    c0.266-0.332,0.411-0.896,0.436-1.692v-0.241c0-0.879-0.136-1.51-0.406-1.891c-0.271-0.381-0.712-0.57-1.322-0.57    c-0.498,0-0.886,0.211-1.161,0.633c-0.276,0.423-0.414,1.037-0.414,1.842c0,0.807,0.14,1.41,0.418,1.813    C186.135,20.377,186.532,20.579,187.05,20.579z"/>
	</g>
    <g>
		<path class="st9"
          d="M132.011,159.353l-2.641-6.957h1.13l1.498,4.126c0.338,0.965,0.538,1.591,0.597,1.879h0.051    c0.046-0.225,0.193-0.688,0.441-1.394c0.247-0.704,0.803-2.241,1.666-4.611h1.13l-2.641,6.957H132.011z"/>
      <path class="st9"
            d="M141.279,159.353l-0.209-0.99h-0.051c-0.347,0.436-0.693,0.731-1.038,0.886    c-0.345,0.154-0.776,0.231-1.292,0.231c-0.69,0-1.23-0.178-1.622-0.533c-0.391-0.355-0.587-0.861-0.587-1.518    c0-1.404,1.124-2.141,3.371-2.209l1.181-0.037v-0.432c0-0.547-0.118-0.949-0.352-1.21c-0.235-0.26-0.611-0.39-1.127-0.39    c-0.58,0-1.236,0.178-1.968,0.533l-0.324-0.807c0.343-0.187,0.718-0.332,1.126-0.438c0.409-0.106,0.818-0.159,1.229-0.159    c0.83,0,1.444,0.185,1.844,0.552c0.4,0.369,0.6,0.959,0.6,1.771v4.748h-0.781V159.353z M138.898,158.611    c0.656,0,1.171-0.181,1.545-0.54c0.375-0.359,0.562-0.863,0.562-1.511v-0.629l-1.054,0.045c-0.838,0.029-1.442,0.16-1.812,0.391    c-0.371,0.23-0.556,0.589-0.556,1.076c0,0.381,0.115,0.67,0.346,0.869C138.161,158.511,138.484,158.611,138.898,158.611z"/>
      <path class="st9"
            d="M147.404,152.269c0.309,0,0.586,0.025,0.832,0.076l-0.146,0.978c-0.288-0.063-0.542-0.095-0.762-0.095    c-0.563,0-1.044,0.229-1.444,0.686c-0.399,0.457-0.6,1.025-0.6,1.707v3.732h-1.054v-6.957h0.87l0.121,1.289h0.051    c0.258-0.453,0.569-0.803,0.933-1.048S146.968,152.269,147.404,152.269z"/>
      <path class="st9"
            d="M149.448,150.511c0-0.242,0.059-0.418,0.178-0.53s0.267-0.169,0.444-0.169c0.169,0,0.315,0.058,0.438,0.172    s0.184,0.29,0.184,0.527c0,0.236-0.062,0.413-0.184,0.529s-0.269,0.175-0.438,0.175c-0.178,0-0.326-0.059-0.444-0.175    S149.448,150.747,149.448,150.511z M150.591,159.353h-1.054v-6.957h1.054V159.353z"/>
      <path class="st9"
            d="M157.104,159.353l-0.209-0.99h-0.051c-0.347,0.436-0.693,0.731-1.038,0.886    c-0.345,0.154-0.776,0.231-1.292,0.231c-0.69,0-1.23-0.178-1.622-0.533c-0.391-0.355-0.587-0.861-0.587-1.518    c0-1.404,1.124-2.141,3.371-2.209l1.181-0.037v-0.432c0-0.547-0.118-0.949-0.352-1.21c-0.235-0.26-0.611-0.39-1.127-0.39    c-0.58,0-1.236,0.178-1.968,0.533l-0.324-0.807c0.343-0.187,0.718-0.332,1.126-0.438c0.409-0.106,0.818-0.159,1.229-0.159    c0.83,0,1.444,0.185,1.844,0.552c0.4,0.369,0.6,0.959,0.6,1.771v4.748h-0.781V159.353z M154.723,158.611    c0.656,0,1.171-0.181,1.545-0.54c0.375-0.359,0.562-0.863,0.562-1.511v-0.629l-1.054,0.045c-0.838,0.029-1.442,0.16-1.812,0.391    c-0.371,0.23-0.556,0.589-0.556,1.076c0,0.381,0.115,0.67,0.346,0.869C153.986,158.511,154.309,158.611,154.723,158.611z"/>
      <path class="st9"
            d="M163.292,152.281c0.914,0,1.624,0.312,2.13,0.937c0.505,0.624,0.758,1.508,0.758,2.65    s-0.255,2.029-0.765,2.662s-1.217,0.949-2.123,0.949c-0.453,0-0.866-0.084-1.241-0.251c-0.374-0.167-0.688-0.424-0.942-0.771    h-0.076l-0.222,0.895h-0.755v-9.877h1.054v2.399c0,0.537-0.017,1.02-0.051,1.447h0.051    C161.6,152.628,162.328,152.281,163.292,152.281z M163.14,153.163c-0.719,0-1.238,0.207-1.555,0.619    c-0.317,0.413-0.476,1.107-0.476,2.086c0,0.977,0.163,1.677,0.489,2.098s0.849,0.631,1.568,0.631c0.647,0,1.13-0.235,1.447-0.707    s0.476-1.15,0.476-2.035c0-0.905-0.159-1.58-0.476-2.024S163.805,153.163,163.14,153.163z"/>
      <path class="st9"
            d="M170.96,159.48c-1.028,0-1.84-0.313-2.434-0.939c-0.595-0.626-0.892-1.496-0.892-2.609    c0-1.121,0.276-2.012,0.829-2.672c0.552-0.66,1.293-0.99,2.225-0.99c0.872,0,1.562,0.287,2.069,0.86s0.762,1.329,0.762,2.269    v0.667h-4.792c0.021,0.816,0.228,1.437,0.619,1.86c0.392,0.423,0.943,0.635,1.654,0.635c0.749,0,1.49-0.157,2.222-0.471v0.939    c-0.373,0.161-0.725,0.276-1.057,0.347C171.831,159.445,171.43,159.48,170.96,159.48z M170.675,153.152    c-0.559,0-1.004,0.182-1.336,0.545c-0.333,0.364-0.528,0.868-0.587,1.512h3.637c0-0.665-0.148-1.174-0.444-1.527    S171.225,153.152,170.675,153.152z"/>
      <path class="st9" d="M176.369,159.353h-1.054v-9.877h1.054V159.353z"/>
      <path class="st9"
            d="M179.708,157.842l0.095,0.146c-0.11,0.424-0.269,0.916-0.476,1.477s-0.423,1.082-0.647,1.564h-0.793    c0.114-0.44,0.24-0.984,0.377-1.631c0.138-0.648,0.234-1.166,0.289-1.556H179.708z"/>
      <path class="st9"
            d="M116.031,175.48c-1.028,0-1.84-0.313-2.434-0.939c-0.595-0.626-0.892-1.496-0.892-2.609    c0-1.121,0.276-2.012,0.829-2.672c0.552-0.66,1.293-0.99,2.225-0.99c0.872,0,1.562,0.287,2.069,0.86s0.762,1.329,0.762,2.269    v0.667h-4.792c0.021,0.816,0.228,1.437,0.619,1.86c0.392,0.423,0.943,0.635,1.654,0.635c0.749,0,1.49-0.157,2.222-0.471v0.939    c-0.373,0.161-0.725,0.276-1.057,0.347C116.901,175.445,116.5,175.48,116.031,175.48z M115.745,169.152    c-0.559,0-1.004,0.182-1.336,0.545c-0.333,0.364-0.528,0.868-0.587,1.512h3.637c0-0.665-0.148-1.174-0.444-1.527    S116.295,169.152,115.745,169.152z"/>
      <path class="st9"
            d="M125.146,175.353v-4.5c0-0.567-0.129-0.99-0.387-1.27s-0.662-0.42-1.212-0.42    c-0.732,0-1.267,0.199-1.603,0.598c-0.337,0.397-0.505,1.049-0.505,1.955v3.637h-1.054v-9.877h1.054v2.99    c0,0.359-0.017,0.657-0.051,0.895h0.063c0.208-0.334,0.502-0.598,0.886-0.79c0.383-0.192,0.82-0.289,1.311-0.289    c0.851,0,1.488,0.202,1.914,0.606c0.425,0.404,0.638,1.046,0.638,1.926v4.539L125.146,175.353L125.146,175.353z"/>
      <path class="st9"
            d="M131.303,175.48c-1.028,0-1.84-0.313-2.434-0.939c-0.595-0.626-0.892-1.496-0.892-2.609    c0-1.121,0.276-2.012,0.829-2.672c0.552-0.66,1.293-0.99,2.225-0.99c0.872,0,1.562,0.287,2.069,0.86s0.762,1.329,0.762,2.269    v0.667h-4.792c0.021,0.816,0.228,1.437,0.619,1.86c0.392,0.423,0.943,0.635,1.654,0.635c0.749,0,1.49-0.157,2.222-0.471v0.939    c-0.373,0.161-0.725,0.276-1.057,0.347C132.174,175.445,131.773,175.48,131.303,175.48z M131.018,169.152    c-0.559,0-1.004,0.182-1.336,0.545c-0.333,0.364-0.528,0.868-0.587,1.512h3.637c0-0.665-0.148-1.174-0.444-1.527    S131.568,169.152,131.018,169.152z"/>
      <path class="st9"
            d="M138.832,168.269c0.309,0,0.586,0.025,0.832,0.076l-0.146,0.978c-0.288-0.063-0.542-0.095-0.762-0.095    c-0.563,0-1.044,0.229-1.444,0.686c-0.399,0.457-0.6,1.025-0.6,1.707v3.732h-1.054v-6.957h0.87l0.121,1.289h0.051    c0.258-0.453,0.569-0.803,0.933-1.048S138.396,168.269,138.832,168.269z"/>
      <path class="st9"
            d="M149.102,175.353v-4.5c0-0.567-0.129-0.99-0.387-1.27s-0.662-0.42-1.212-0.42c-0.728,0-1.261,0.197-1.6,0.591    s-0.508,1.043-0.508,1.948v3.65h-1.054v-6.957h0.857l0.171,0.952h0.051c0.216-0.343,0.519-0.608,0.908-0.797    s0.823-0.282,1.301-0.282c0.838,0,1.468,0.202,1.892,0.606s0.635,1.05,0.635,1.938v4.539h-1.054V175.353z"/>
      <path class="st9"
            d="M152.231,166.511c0-0.242,0.059-0.418,0.178-0.53s0.267-0.169,0.444-0.169c0.169,0,0.315,0.058,0.438,0.172    s0.184,0.29,0.184,0.527c0,0.236-0.062,0.413-0.184,0.529s-0.269,0.175-0.438,0.175c-0.178,0-0.326-0.059-0.444-0.175    S152.231,166.747,152.231,166.511z M153.374,175.353h-1.054v-6.957h1.054V175.353z"/>
      <path class="st9"
            d="M158.547,175.48c-1.028,0-1.84-0.313-2.434-0.939c-0.595-0.626-0.892-1.496-0.892-2.609    c0-1.121,0.276-2.012,0.829-2.672c0.552-0.66,1.293-0.99,2.225-0.99c0.872,0,1.562,0.287,2.069,0.86s0.762,1.329,0.762,2.269    v0.667h-4.792c0.021,0.816,0.228,1.437,0.619,1.86c0.392,0.423,0.943,0.635,1.654,0.635c0.749,0,1.49-0.157,2.222-0.471v0.939    c-0.373,0.161-0.725,0.276-1.057,0.347C159.418,175.445,159.017,175.48,158.547,175.48z M158.262,169.152    c-0.559,0-1.004,0.182-1.336,0.545c-0.333,0.364-0.528,0.868-0.587,1.512h3.637c0-0.665-0.148-1.174-0.444-1.527    S158.812,169.152,158.262,169.152z"/>
      <path class="st9"
            d="M167.637,174.419h-0.057c-0.487,0.707-1.214,1.061-2.184,1.061c-0.91,0-1.618-0.311-2.124-0.934    c-0.505-0.621-0.758-1.506-0.758-2.652c0-1.147,0.254-2.038,0.762-2.673s1.214-0.952,2.12-0.952c0.944,0,1.667,0.343,2.171,1.028    h0.083l-0.044-0.501l-0.025-0.489v-2.831h1.054v9.877h-0.857L167.637,174.419z M165.53,174.597c0.719,0,1.241-0.195,1.564-0.587    c0.324-0.392,0.486-1.022,0.486-1.895v-0.222c0-0.986-0.164-1.69-0.492-2.111s-0.852-0.631-1.571-0.631    c-0.618,0-1.091,0.239-1.419,0.72c-0.328,0.48-0.492,1.159-0.492,2.034c0,0.889,0.163,1.56,0.489,2.013    S164.899,174.597,165.53,174.597z"/>
      <path class="st9"
            d="M174.042,168.269c0.309,0,0.586,0.025,0.832,0.076l-0.146,0.978c-0.288-0.063-0.542-0.095-0.762-0.095    c-0.563,0-1.044,0.229-1.444,0.686c-0.399,0.457-0.6,1.025-0.6,1.707v3.732h-1.054v-6.957h0.87l0.121,1.289h0.051    c0.258-0.453,0.569-0.803,0.933-1.048S173.606,168.269,174.042,168.269z"/>
      <path class="st9"
            d="M176.086,166.511c0-0.242,0.059-0.418,0.178-0.53s0.267-0.169,0.444-0.169c0.169,0,0.315,0.058,0.438,0.172    s0.184,0.29,0.184,0.527c0,0.236-0.062,0.413-0.184,0.529s-0.269,0.175-0.438,0.175c-0.178,0-0.326-0.059-0.444-0.175    S176.086,166.747,176.086,166.511z M177.229,175.353h-1.054v-6.957h1.054V175.353z"/>
      <path class="st9"
            d="M185.156,168.396v0.666l-1.288,0.152c0.118,0.148,0.224,0.342,0.317,0.581s0.14,0.509,0.14,0.81    c0,0.682-0.233,1.225-0.698,1.631c-0.466,0.406-1.104,0.609-1.917,0.609c-0.208,0-0.402-0.017-0.584-0.051    c-0.449,0.237-0.673,0.536-0.673,0.896c0,0.19,0.078,0.331,0.235,0.422s0.425,0.137,0.806,0.137h1.231    c0.753,0,1.332,0.159,1.736,0.476c0.403,0.318,0.605,0.779,0.605,1.385c0,0.77-0.309,1.356-0.927,1.761    c-0.617,0.404-1.519,0.606-2.704,0.606c-0.91,0-1.611-0.169-2.104-0.508c-0.493-0.339-0.74-0.816-0.74-1.435    c0-0.423,0.135-0.789,0.406-1.099c0.271-0.309,0.652-0.518,1.143-0.628c-0.178-0.08-0.327-0.205-0.448-0.374    c-0.12-0.17-0.181-0.366-0.181-0.591c0-0.254,0.068-0.476,0.203-0.667c0.135-0.189,0.349-0.374,0.641-0.552    c-0.36-0.148-0.653-0.399-0.879-0.755c-0.226-0.355-0.339-0.762-0.339-1.219c0-0.762,0.229-1.35,0.686-1.762    c0.457-0.413,1.104-0.619,1.942-0.619c0.364,0,0.692,0.042,0.984,0.127h2.407V168.396z M179.609,176.521    c0,0.377,0.159,0.662,0.476,0.857c0.317,0.194,0.772,0.291,1.365,0.291c0.884,0,1.54-0.132,1.964-0.396    c0.426-0.265,0.638-0.623,0.638-1.076c0-0.376-0.116-0.638-0.349-0.783c-0.233-0.146-0.671-0.219-1.314-0.219h-1.263    c-0.478,0-0.851,0.113-1.117,0.342S179.609,176.093,179.609,176.521z M180.18,170.624c0,0.486,0.138,0.854,0.413,1.104    s0.658,0.375,1.149,0.375c1.028,0,1.542-0.499,1.542-1.498c0-1.045-0.521-1.568-1.562-1.568c-0.495,0-0.876,0.134-1.143,0.4    S180.18,170.099,180.18,170.624z"/>
      <path class="st9"
            d="M189.523,175.48c-1.028,0-1.84-0.313-2.434-0.939c-0.595-0.626-0.893-1.496-0.893-2.609    c0-1.121,0.276-2.012,0.829-2.672c0.552-0.66,1.293-0.99,2.225-0.99c0.871,0,1.562,0.287,2.069,0.86s0.762,1.329,0.762,2.269    v0.667h-4.793c0.021,0.816,0.228,1.437,0.619,1.86c0.392,0.423,0.942,0.635,1.653,0.635c0.749,0,1.49-0.157,2.222-0.471v0.939    c-0.372,0.161-0.725,0.276-1.057,0.347C190.395,175.445,189.993,175.48,189.523,175.48z M189.238,169.152    c-0.559,0-1.004,0.182-1.336,0.545c-0.333,0.364-0.528,0.868-0.588,1.512h3.638c0-0.665-0.148-1.174-0.444-1.527    C190.211,169.327,189.788,169.152,189.238,169.152z"/>
      <path class="st9"
            d="M197.052,168.269c0.31,0,0.586,0.025,0.832,0.076l-0.146,0.978c-0.287-0.063-0.541-0.095-0.762-0.095    c-0.562,0-1.044,0.229-1.444,0.686c-0.399,0.457-0.6,1.025-0.6,1.707v3.732h-1.054v-6.957h0.87l0.12,1.289h0.051    c0.259-0.453,0.569-0.803,0.934-1.048C196.216,168.392,196.616,168.269,197.052,168.269z"/>
	</g>
    <g>
		<path class="st9"
          d="M123.73,91.018c0,0.648-0.241,1.147-0.724,1.498c-0.482,0.352-1.16,0.527-2.031,0.527    c-0.922,0-1.642-0.146-2.158-0.438v-0.979c0.334,0.17,0.693,0.303,1.076,0.4c0.383,0.098,0.752,0.146,1.108,0.146    c0.55,0,0.973-0.088,1.27-0.264s0.444-0.443,0.444-0.803c0-0.271-0.118-0.503-0.352-0.695c-0.235-0.192-0.693-0.42-1.375-0.683    c-0.647-0.241-1.108-0.452-1.38-0.632c-0.273-0.18-0.477-0.384-0.609-0.612c-0.134-0.229-0.2-0.501-0.2-0.819    c0-0.566,0.23-1.014,0.692-1.342s1.094-0.492,1.898-0.492c0.749,0,1.481,0.152,2.196,0.457l-0.375,0.857    c-0.698-0.288-1.331-0.432-1.898-0.432c-0.5,0-0.876,0.078-1.13,0.234s-0.381,0.372-0.381,0.647c0,0.187,0.048,0.345,0.143,0.476    c0.096,0.132,0.249,0.257,0.46,0.375s0.618,0.29,1.219,0.514c0.825,0.301,1.383,0.604,1.672,0.908    C123.585,90.174,123.73,90.557,123.73,91.018z"/>
      <path class="st9"
            d="M128.383,93.043c-1.028,0-1.84-0.313-2.434-0.939c-0.595-0.626-0.892-1.496-0.892-2.609    c0-1.121,0.276-2.012,0.829-2.672c0.552-0.66,1.293-0.99,2.225-0.99c0.872,0,1.562,0.287,2.069,0.86s0.762,1.329,0.762,2.269    v0.667h-4.792c0.021,0.816,0.228,1.437,0.619,1.86c0.392,0.423,0.943,0.635,1.654,0.635c0.749,0,1.49-0.157,2.222-0.471v0.939    c-0.373,0.161-0.725,0.276-1.057,0.347C129.254,93.008,128.853,93.043,128.383,93.043z M128.098,86.715    c-0.559,0-1.004,0.182-1.336,0.545c-0.333,0.364-0.528,0.868-0.587,1.512h3.637c0-0.665-0.148-1.174-0.444-1.527    S128.648,86.715,128.098,86.715z"/>
      <path class="st9"
            d="M137.499,92.916v-4.5c0-0.567-0.129-0.99-0.387-1.27s-0.662-0.42-1.212-0.42    c-0.732,0-1.267,0.199-1.603,0.598c-0.337,0.397-0.505,1.049-0.505,1.955v3.637h-1.054v-9.877h1.054v2.99    c0,0.359-0.017,0.657-0.051,0.895h0.063c0.208-0.334,0.502-0.598,0.886-0.79c0.383-0.192,0.82-0.289,1.311-0.289    c0.851,0,1.488,0.202,1.914,0.606c0.425,0.404,0.638,1.046,0.638,1.926v4.539C138.553,92.916,137.499,92.916,137.499,92.916z"/>
      <path class="st9"
            d="M143.891,85.832c0.309,0,0.586,0.025,0.832,0.076l-0.146,0.978c-0.288-0.063-0.542-0.095-0.762-0.095    c-0.563,0-1.044,0.229-1.444,0.686c-0.399,0.457-0.6,1.025-0.6,1.707v3.732h-1.054v-6.957h0.87l0.121,1.289h0.051    c0.258-0.453,0.569-0.803,0.933-1.048S143.455,85.832,143.891,85.832z"/>
      <path class="st9"
            d="M152.536,86.778h-1.771v6.139h-1.054v-6.139h-1.244v-0.476l1.244-0.381v-0.388    c0-1.709,0.747-2.564,2.241-2.564c0.368,0,0.8,0.074,1.295,0.223l-0.273,0.844c-0.406-0.131-0.753-0.196-1.041-0.196    c-0.398,0-0.692,0.132-0.882,0.396s-0.286,0.688-0.286,1.272v0.451h1.771V86.778z M154.859,92.916h-1.054v-9.877h1.054V92.916z"/>
      <path class="st9"
            d="M160.033,93.043c-1.028,0-1.84-0.313-2.434-0.939c-0.595-0.626-0.892-1.496-0.892-2.609    c0-1.121,0.276-2.012,0.829-2.672c0.552-0.66,1.293-0.99,2.225-0.99c0.872,0,1.562,0.287,2.069,0.86s0.762,1.329,0.762,2.269    v0.667H157.8c0.021,0.816,0.228,1.437,0.619,1.86c0.392,0.423,0.943,0.635,1.654,0.635c0.749,0,1.49-0.157,2.222-0.471v0.939    c-0.373,0.161-0.725,0.276-1.057,0.347C160.903,93.008,160.502,93.043,160.033,93.043z M159.747,86.715    c-0.559,0-1.004,0.182-1.336,0.545c-0.333,0.364-0.528,0.868-0.587,1.512h3.637c0-0.665-0.148-1.174-0.444-1.527    S160.297,86.715,159.747,86.715z"/>
      <path class="st9"
            d="M166.063,89.356l-2.418-3.396h1.2l1.834,2.666l1.828-2.666h1.187l-2.418,3.396l2.545,3.561h-1.193    l-1.949-2.818l-1.968,2.818h-1.193L166.063,89.356z"/>
      <path class="st9"
            d="M171.109,84.074c0-0.242,0.059-0.418,0.178-0.53s0.267-0.169,0.444-0.169c0.169,0,0.315,0.058,0.438,0.172    s0.184,0.29,0.184,0.527c0,0.236-0.062,0.413-0.184,0.529s-0.269,0.175-0.438,0.175c-0.178,0-0.326-0.059-0.444-0.175    S171.109,84.311,171.109,84.074z M172.252,92.916h-1.054v-6.957h1.054V92.916z"/>
      <path class="st9"
            d="M177.724,85.845c0.914,0,1.624,0.312,2.13,0.937c0.505,0.624,0.758,1.508,0.758,2.65    s-0.255,2.029-0.765,2.662s-1.217,0.949-2.123,0.949c-0.453,0-0.866-0.084-1.241-0.251c-0.374-0.167-0.688-0.424-0.942-0.771    h-0.076l-0.222,0.895h-0.755v-9.877h1.054v2.399c0,0.537-0.017,1.02-0.051,1.447h0.051    C176.031,86.192,176.759,85.845,177.724,85.845z M177.571,86.727c-0.719,0-1.238,0.207-1.555,0.619    c-0.317,0.413-0.476,1.107-0.476,2.086c0,0.977,0.163,1.677,0.489,2.098s0.849,0.631,1.568,0.631c0.647,0,1.13-0.235,1.447-0.707    s0.476-1.15,0.476-2.035c0-0.905-0.159-1.58-0.476-2.024S178.236,86.727,177.571,86.727z"/>
      <path class="st9"
            d="M185.392,93.043c-1.028,0-1.84-0.313-2.435-0.939s-0.892-1.496-0.892-2.609c0-1.121,0.275-2.012,0.828-2.672    c0.552-0.66,1.294-0.99,2.225-0.99c0.872,0,1.562,0.287,2.069,0.86s0.762,1.329,0.762,2.269v0.667h-4.792    c0.021,0.816,0.228,1.437,0.618,1.86c0.392,0.423,0.943,0.635,1.654,0.635c0.749,0,1.489-0.157,2.222-0.471v0.939    c-0.373,0.161-0.725,0.276-1.058,0.347C186.262,93.008,185.861,93.043,185.392,93.043z M185.105,86.715    c-0.559,0-1.004,0.182-1.336,0.545c-0.332,0.364-0.528,0.868-0.587,1.512h3.637c0-0.665-0.147-1.174-0.444-1.527    C186.079,86.891,185.656,86.715,185.105,86.715z"/>
      <path class="st9" d="M190.8,92.916h-1.054v-9.877h1.054V92.916z"/>
	</g>
    <g>
		<path class="st9"
          d="M231.171,85.959v4.514c0,0.566,0.129,0.99,0.388,1.27c0.258,0.279,0.662,0.418,1.212,0.418    c0.729,0,1.26-0.198,1.597-0.596c0.336-0.398,0.505-1.048,0.505-1.949V85.96h1.054v6.957h-0.87l-0.152-0.934h-0.057    c-0.216,0.344-0.516,0.605-0.898,0.787c-0.383,0.183-0.82,0.273-1.311,0.273c-0.847,0-1.48-0.201-1.901-0.604    c-0.421-0.401-0.632-1.045-0.632-1.93v-4.551L231.171,85.959L231.171,85.959z"/>
      <path class="st9"
            d="M242.921,92.916v-4.5c0-0.567-0.129-0.99-0.388-1.27c-0.258-0.279-0.662-0.42-1.212-0.42    c-0.729,0-1.262,0.197-1.6,0.591c-0.339,0.394-0.508,1.043-0.508,1.948v3.65h-1.054v-6.957h0.856l0.172,0.952h0.051    c0.216-0.343,0.519-0.608,0.907-0.797c0.39-0.188,0.823-0.282,1.302-0.282c0.838,0,1.468,0.202,1.892,0.606    c0.423,0.404,0.635,1.05,0.635,1.938v4.539h-1.053V92.916z"/>
      <path class="st9"
            d="M249.274,86.778h-1.771v6.139h-1.054v-6.139h-1.244v-0.476l1.244-0.381v-0.388    c0-1.709,0.747-2.564,2.24-2.564c0.368,0,0.8,0.074,1.295,0.223l-0.272,0.844c-0.406-0.131-0.754-0.196-1.041-0.196    c-0.398,0-0.692,0.132-0.883,0.396s-0.285,0.688-0.285,1.272v0.451h1.771V86.778z M251.598,92.916h-1.054v-9.877h1.054V92.916z"/>
      <path class="st9"
            d="M256.771,93.043c-1.028,0-1.84-0.313-2.435-0.939s-0.892-1.496-0.892-2.609c0-1.121,0.275-2.012,0.828-2.672    c0.552-0.66,1.294-0.99,2.225-0.99c0.872,0,1.562,0.287,2.069,0.86s0.762,1.329,0.762,2.269v0.667h-4.792    c0.021,0.816,0.228,1.437,0.618,1.86c0.392,0.423,0.943,0.635,1.654,0.635c0.749,0,1.489-0.157,2.222-0.471v0.939    c-0.373,0.161-0.725,0.276-1.058,0.347C257.642,93.008,257.241,93.043,256.771,93.043z M256.485,86.715    c-0.559,0-1.004,0.182-1.336,0.545c-0.332,0.364-0.528,0.868-0.587,1.512h3.637c0-0.665-0.147-1.174-0.444-1.527    C257.459,86.891,257.036,86.715,256.485,86.715z"/>
      <path class="st9"
            d="M262.802,89.356l-2.419-3.396h1.2l1.834,2.666l1.828-2.666h1.188l-2.419,3.396l2.546,3.561h-1.193    l-1.949-2.818l-1.968,2.818h-1.193L262.802,89.356z"/>
      <path class="st9"
            d="M267.848,84.074c0-0.242,0.06-0.418,0.178-0.53c0.119-0.112,0.267-0.169,0.444-0.169    c0.17,0,0.315,0.058,0.438,0.172c0.122,0.114,0.184,0.29,0.184,0.527c0,0.236-0.062,0.413-0.184,0.529    c-0.123,0.116-0.269,0.175-0.438,0.175c-0.178,0-0.325-0.059-0.444-0.175C267.907,84.487,267.848,84.311,267.848,84.074z     M268.99,92.916h-1.054v-6.957h1.054V92.916z"/>
      <path class="st9"
            d="M274.462,85.845c0.914,0,1.624,0.312,2.13,0.937s0.759,1.508,0.759,2.65s-0.255,2.029-0.766,2.662    c-0.51,0.633-1.217,0.949-2.123,0.949c-0.452,0-0.866-0.084-1.241-0.251c-0.374-0.167-0.688-0.424-0.942-0.771h-0.076    l-0.222,0.895h-0.756v-9.877h1.054v2.399c0,0.537-0.017,1.02-0.051,1.447h0.051C272.77,86.192,273.497,85.845,274.462,85.845z     M274.31,86.727c-0.719,0-1.237,0.207-1.555,0.619c-0.317,0.413-0.477,1.107-0.477,2.086c0,0.977,0.163,1.677,0.489,2.098    c0.325,0.421,0.849,0.631,1.567,0.631c0.647,0,1.13-0.235,1.447-0.707s0.477-1.15,0.477-2.035c0-0.905-0.159-1.58-0.477-2.024    S274.975,86.727,274.31,86.727z"/>
      <path class="st9"
            d="M282.13,93.043c-1.028,0-1.84-0.313-2.434-0.939c-0.595-0.626-0.893-1.496-0.893-2.609    c0-1.121,0.276-2.012,0.829-2.672c0.552-0.66,1.293-0.99,2.225-0.99c0.871,0,1.562,0.287,2.069,0.86s0.762,1.329,0.762,2.269    v0.667h-4.793c0.021,0.816,0.228,1.437,0.619,1.86c0.392,0.423,0.942,0.635,1.653,0.635c0.749,0,1.49-0.157,2.222-0.471v0.939    c-0.372,0.161-0.725,0.276-1.057,0.347C283.001,93.008,282.6,93.043,282.13,93.043z M281.845,86.715    c-0.559,0-1.004,0.182-1.336,0.545c-0.333,0.364-0.528,0.868-0.588,1.512h3.638c0-0.665-0.148-1.174-0.444-1.527    C282.817,86.891,282.395,86.715,281.845,86.715z"/>
      <path class="st9" d="M287.538,92.916h-1.054v-9.877h1.054V92.916z"/>
	</g>
    <g>
		<path class="st9"
          d="M133.604,249.022l-2.641-6.957h1.13l1.498,4.126c0.338,0.965,0.538,1.591,0.597,1.879h0.051    c0.046-0.225,0.193-0.688,0.441-1.394c0.247-0.704,0.803-2.241,1.666-4.611h1.13l-2.641,6.957H133.604z"/>
      <path class="st9"
            d="M142.872,249.022l-0.209-0.99h-0.051c-0.347,0.436-0.693,0.731-1.038,0.886    c-0.345,0.154-0.776,0.231-1.292,0.231c-0.69,0-1.23-0.178-1.622-0.533c-0.391-0.355-0.587-0.861-0.587-1.518    c0-1.404,1.124-2.141,3.371-2.209l1.181-0.037v-0.432c0-0.547-0.118-0.949-0.352-1.21c-0.235-0.26-0.611-0.39-1.127-0.39    c-0.58,0-1.236,0.178-1.968,0.533l-0.324-0.807c0.343-0.187,0.718-0.332,1.126-0.438c0.409-0.106,0.818-0.159,1.229-0.159    c0.83,0,1.444,0.185,1.844,0.552c0.4,0.369,0.6,0.959,0.6,1.771v4.748h-0.781V249.022z M140.491,248.279    c0.656,0,1.171-0.181,1.545-0.54c0.375-0.359,0.562-0.863,0.562-1.511V245.6l-1.054,0.045c-0.838,0.029-1.442,0.16-1.812,0.391    c-0.371,0.23-0.556,0.589-0.556,1.076c0,0.381,0.115,0.67,0.346,0.869C139.754,248.18,140.077,248.279,140.491,248.279z"/>
      <path class="st9"
            d="M148.997,241.938c0.309,0,0.586,0.025,0.832,0.076l-0.146,0.978c-0.288-0.063-0.542-0.095-0.762-0.095    c-0.563,0-1.044,0.229-1.444,0.686c-0.399,0.457-0.6,1.025-0.6,1.707v3.732h-1.054v-6.957h0.87l0.121,1.289h0.051    c0.258-0.453,0.569-0.803,0.933-1.048S148.561,241.938,148.997,241.938z"/>
      <path class="st9"
            d="M151.041,240.18c0-0.242,0.059-0.418,0.178-0.53s0.267-0.169,0.444-0.169c0.169,0,0.315,0.058,0.438,0.172    s0.184,0.29,0.184,0.527c0,0.236-0.062,0.413-0.184,0.529s-0.269,0.175-0.438,0.175c-0.178,0-0.326-0.059-0.444-0.175    S151.041,240.416,151.041,240.18z M152.184,249.022h-1.054v-6.957h1.054V249.022z"/>
      <path class="st9"
            d="M158.696,249.022l-0.209-0.99h-0.051c-0.347,0.436-0.693,0.731-1.038,0.886    c-0.345,0.154-0.776,0.231-1.292,0.231c-0.69,0-1.23-0.178-1.622-0.533c-0.391-0.355-0.587-0.861-0.587-1.518    c0-1.404,1.124-2.141,3.371-2.209l1.181-0.037v-0.432c0-0.547-0.118-0.949-0.352-1.21c-0.235-0.26-0.611-0.39-1.127-0.39    c-0.58,0-1.236,0.178-1.968,0.533l-0.324-0.807c0.343-0.187,0.718-0.332,1.126-0.438c0.409-0.106,0.818-0.159,1.229-0.159    c0.83,0,1.444,0.185,1.844,0.552c0.4,0.369,0.6,0.959,0.6,1.771v4.748h-0.781V249.022z M156.316,248.279    c0.656,0,1.171-0.181,1.545-0.54c0.375-0.359,0.562-0.863,0.562-1.511V245.6l-1.054,0.045c-0.838,0.029-1.442,0.16-1.812,0.391    c-0.371,0.23-0.556,0.589-0.556,1.076c0,0.381,0.115,0.67,0.346,0.869C155.579,248.18,155.901,248.279,156.316,248.279z"/>
      <path class="st9"
            d="M164.885,241.95c0.914,0,1.624,0.312,2.13,0.937c0.505,0.624,0.758,1.508,0.758,2.65    s-0.255,2.029-0.765,2.662s-1.217,0.949-2.123,0.949c-0.453,0-0.866-0.084-1.241-0.251c-0.374-0.167-0.688-0.424-0.942-0.771    h-0.076l-0.222,0.895h-0.755v-9.877h1.054v2.399c0,0.537-0.017,1.02-0.051,1.447h0.051    C163.192,242.297,163.92,241.95,164.885,241.95z M164.733,242.832c-0.719,0-1.238,0.207-1.555,0.619    c-0.317,0.413-0.476,1.107-0.476,2.086c0,0.977,0.163,1.677,0.489,2.098s0.849,0.631,1.568,0.631c0.647,0,1.13-0.235,1.447-0.707    s0.476-1.15,0.476-2.035c0-0.905-0.159-1.58-0.476-2.024S165.397,242.832,164.733,242.832z"/>
      <path class="st9"
            d="M172.553,249.149c-1.028,0-1.84-0.313-2.434-0.939c-0.595-0.626-0.892-1.496-0.892-2.609    c0-1.121,0.276-2.012,0.829-2.672c0.552-0.66,1.293-0.99,2.225-0.99c0.872,0,1.562,0.287,2.069,0.86s0.762,1.329,0.762,2.269    v0.667h-4.792c0.021,0.816,0.228,1.437,0.619,1.86c0.392,0.423,0.943,0.635,1.654,0.635c0.749,0,1.49-0.157,2.222-0.471v0.939    c-0.373,0.161-0.725,0.276-1.057,0.347C173.424,249.113,173.023,249.149,172.553,249.149z M172.268,242.82    c-0.559,0-1.004,0.182-1.336,0.545c-0.333,0.364-0.528,0.868-0.587,1.512h3.637c0-0.665-0.148-1.174-0.444-1.527    S172.818,242.82,172.268,242.82z"/>
      <path class="st9" d="M177.961,249.022h-1.054v-9.877h1.054V249.022z"/>
	</g>
    <g>
		<path class="st9"
          d="M251.868,242.883h-1.771v6.139h-1.054v-6.139h-1.244v-0.476l1.244-0.381v-0.388    c0-1.709,0.747-2.564,2.241-2.564c0.368,0,0.8,0.074,1.295,0.223l-0.273,0.844c-0.406-0.131-0.753-0.196-1.041-0.196    c-0.397,0-0.691,0.132-0.882,0.396s-0.286,0.688-0.286,1.272v0.451h1.771V242.883z"/>
      <path class="st9"
            d="M256.076,249.149c-1.028,0-1.84-0.313-2.434-0.939c-0.595-0.626-0.893-1.496-0.893-2.609    c0-1.121,0.276-2.012,0.829-2.672c0.552-0.66,1.293-0.99,2.225-0.99c0.871,0,1.562,0.287,2.069,0.86s0.762,1.329,0.762,2.269    v0.667h-4.793c0.021,0.816,0.228,1.437,0.619,1.86c0.392,0.423,0.942,0.635,1.653,0.635c0.749,0,1.49-0.157,2.222-0.471v0.939    c-0.372,0.161-0.725,0.276-1.057,0.347C256.947,249.113,256.546,249.149,256.076,249.149z M255.791,242.82    c-0.559,0-1.004,0.182-1.336,0.545c-0.333,0.364-0.528,0.868-0.588,1.512h3.638c0-0.665-0.148-1.174-0.444-1.527    C256.764,242.996,256.341,242.82,255.791,242.82z"/>
      <path class="st9"
            d="M264.919,247.123c0,0.648-0.241,1.147-0.724,1.498c-0.482,0.352-1.16,0.527-2.031,0.527    c-0.923,0-1.643-0.146-2.158-0.438v-0.979c0.334,0.17,0.692,0.303,1.075,0.4c0.384,0.098,0.753,0.146,1.108,0.146    c0.55,0,0.973-0.088,1.27-0.264c0.296-0.176,0.444-0.443,0.444-0.803c0-0.271-0.118-0.503-0.353-0.695s-0.693-0.42-1.374-0.683    c-0.647-0.241-1.108-0.452-1.381-0.632c-0.273-0.18-0.477-0.384-0.609-0.612c-0.134-0.229-0.2-0.501-0.2-0.819    c0-0.566,0.23-1.014,0.692-1.342c0.461-0.328,1.094-0.492,1.897-0.492c0.749,0,1.481,0.152,2.196,0.457l-0.374,0.857    c-0.698-0.288-1.331-0.432-1.898-0.432c-0.499,0-0.876,0.078-1.13,0.234s-0.381,0.372-0.381,0.647    c0,0.187,0.048,0.345,0.143,0.476c0.096,0.132,0.249,0.257,0.461,0.375c0.211,0.118,0.617,0.29,1.219,0.514    c0.825,0.301,1.383,0.604,1.672,0.908C264.773,246.279,264.919,246.662,264.919,247.123z"/>
      <path class="st9"
            d="M268.88,248.279c0.186,0,0.366-0.015,0.539-0.042c0.174-0.027,0.312-0.056,0.413-0.085v0.806    c-0.114,0.055-0.282,0.101-0.505,0.137c-0.222,0.036-0.422,0.054-0.6,0.054c-1.346,0-2.019-0.709-2.019-2.127v-4.139h-0.997    v-0.508l0.997-0.438l0.444-1.485h0.609v1.612h2.019v0.818h-2.019v4.095c0,0.419,0.1,0.74,0.298,0.965    C268.26,248.167,268.532,248.279,268.88,248.279z"/>
	</g>
    <g>
		<path class="st9"
          d="M130.479,322.55c-0.402,0-0.728-0.053-0.978-0.158v-0.857c0.292,0.085,0.58,0.127,0.863,0.127    c0.33,0,0.572-0.09,0.727-0.27c0.154-0.18,0.231-0.454,0.231-0.822v-8.1h1.054v8.023    C132.377,321.864,131.744,322.55,130.479,322.55z M131.234,310.585c0-0.242,0.059-0.418,0.178-0.53s0.267-0.169,0.444-0.169    c0.169,0,0.315,0.058,0.438,0.172s0.184,0.29,0.184,0.527c0,0.236-0.062,0.413-0.184,0.529s-0.269,0.175-0.438,0.175    c-0.178,0-0.326-0.059-0.444-0.175S131.234,310.821,131.234,310.585z"/>
      <path class="st9"
            d="M137.55,319.554c-1.028,0-1.84-0.313-2.434-0.939c-0.595-0.626-0.892-1.496-0.892-2.609    c0-1.121,0.276-2.012,0.829-2.672c0.552-0.66,1.293-0.99,2.225-0.99c0.872,0,1.562,0.287,2.069,0.86s0.762,1.329,0.762,2.269    v0.667h-4.792c0.021,0.816,0.228,1.437,0.619,1.86c0.392,0.423,0.943,0.635,1.654,0.635c0.749,0,1.49-0.157,2.222-0.471v0.939    c-0.373,0.161-0.725,0.276-1.057,0.347C138.421,319.519,138.02,319.554,137.55,319.554z M137.265,313.226    c-0.559,0-1.004,0.182-1.336,0.545c-0.333,0.364-0.528,0.868-0.587,1.512h3.637c0-0.665-0.148-1.174-0.444-1.527    S137.815,313.226,137.265,313.226z"/>
      <path class="st9"
            d="M146.64,318.493h-0.057c-0.487,0.707-1.214,1.061-2.184,1.061c-0.91,0-1.618-0.311-2.124-0.934    c-0.505-0.621-0.758-1.506-0.758-2.652c0-1.147,0.254-2.038,0.762-2.673s1.214-0.952,2.12-0.952c0.944,0,1.667,0.343,2.171,1.028    h0.083l-0.044-0.501l-0.025-0.489v-2.831h1.054v9.877h-0.857L146.64,318.493z M144.533,318.671c0.719,0,1.241-0.195,1.564-0.587    c0.324-0.392,0.486-1.022,0.486-1.895v-0.222c0-0.986-0.164-1.69-0.492-2.111s-0.852-0.631-1.571-0.631    c-0.618,0-1.091,0.239-1.419,0.72c-0.328,0.48-0.492,1.159-0.492,2.034c0,0.889,0.163,1.56,0.489,2.013    S143.902,318.671,144.533,318.671z"/>
      <path class="st9"
            d="M152.81,319.554c-1.028,0-1.84-0.313-2.434-0.939c-0.595-0.626-0.892-1.496-0.892-2.609    c0-1.121,0.276-2.012,0.829-2.672c0.552-0.66,1.293-0.99,2.225-0.99c0.872,0,1.562,0.287,2.069,0.86s0.762,1.329,0.762,2.269    v0.667h-4.792c0.021,0.816,0.228,1.437,0.619,1.86c0.392,0.423,0.943,0.635,1.654,0.635c0.749,0,1.49-0.157,2.222-0.471v0.939    c-0.373,0.161-0.725,0.276-1.057,0.347C153.681,319.519,153.28,319.554,152.81,319.554z M152.524,313.226    c-0.559,0-1.004,0.182-1.336,0.545c-0.333,0.364-0.528,0.868-0.587,1.512h3.637c0-0.665-0.148-1.174-0.444-1.527    S153.075,313.226,152.524,313.226z"/>
      <path class="st9"
            d="M160.338,312.343c0.309,0,0.586,0.025,0.832,0.076l-0.146,0.978c-0.288-0.063-0.542-0.095-0.762-0.095    c-0.563,0-1.044,0.229-1.444,0.686c-0.399,0.457-0.6,1.025-0.6,1.707v3.732h-1.054v-6.957h0.87l0.121,1.289h0.051    c0.258-0.453,0.569-0.803,0.933-1.048S159.902,312.343,160.338,312.343z"/>
      <path class="st9"
            d="M166.921,319.427h-5.046v-0.717l3.796-5.422h-3.561v-0.818h4.716v0.818l-3.745,5.32h3.84V319.427z"/>
      <path class="st9"
            d="M171.491,319.554c-1.028,0-1.84-0.313-2.434-0.939c-0.595-0.626-0.892-1.496-0.892-2.609    c0-1.121,0.276-2.012,0.829-2.672c0.552-0.66,1.293-0.99,2.225-0.99c0.872,0,1.562,0.287,2.069,0.86s0.762,1.329,0.762,2.269    v0.667h-4.792c0.021,0.816,0.228,1.437,0.619,1.86c0.392,0.423,0.943,0.635,1.654,0.635c0.749,0,1.49-0.157,2.222-0.471v0.939    c-0.373,0.161-0.725,0.276-1.057,0.347C172.362,319.519,171.961,319.554,171.491,319.554z M171.206,313.226    c-0.559,0-1.004,0.182-1.336,0.545c-0.333,0.364-0.528,0.868-0.587,1.512h3.637c0-0.665-0.148-1.174-0.444-1.527    S171.756,313.226,171.206,313.226z"/>
      <path class="st9"
            d="M175.757,310.585c0-0.242,0.059-0.418,0.178-0.53s0.267-0.169,0.444-0.169c0.169,0,0.315,0.058,0.438,0.172    s0.184,0.29,0.184,0.527c0,0.236-0.062,0.413-0.184,0.529s-0.269,0.175-0.438,0.175c-0.178,0-0.326-0.059-0.444-0.175    S175.757,310.821,175.757,310.585z M176.899,319.427h-1.054v-6.957h1.054V319.427z"/>
      <path class="st9"
            d="M181.381,318.685c0.186,0,0.366-0.015,0.54-0.042s0.311-0.056,0.413-0.085v0.806    c-0.114,0.055-0.282,0.101-0.505,0.137c-0.222,0.036-0.422,0.054-0.6,0.054c-1.346,0-2.019-0.709-2.019-2.127v-4.139h-0.997    v-0.508l0.997-0.438l0.444-1.485h0.609v1.612h2.019v0.818h-2.019v4.095c0,0.419,0.1,0.74,0.298,0.965    S181.034,318.685,181.381,318.685z"/>
	</g>
    <g>
		<path class="st9"
          d="M245.005,312.47v4.514c0,0.566,0.129,0.99,0.387,1.27c0.259,0.279,0.662,0.418,1.213,0.418    c0.728,0,1.26-0.198,1.597-0.596c0.336-0.398,0.504-1.048,0.504-1.949v-3.656h1.054v6.957h-0.869l-0.152-0.934h-0.058    c-0.216,0.344-0.515,0.605-0.897,0.787c-0.384,0.183-0.82,0.273-1.312,0.273c-0.846,0-1.479-0.201-1.9-0.604    c-0.422-0.401-0.632-1.045-0.632-1.93v-4.551h1.065V312.47z"/>
      <path class="st9"
            d="M256.754,319.427v-4.5c0-0.567-0.129-0.99-0.387-1.27c-0.259-0.279-0.662-0.42-1.213-0.42    c-0.728,0-1.261,0.197-1.6,0.591c-0.338,0.394-0.508,1.043-0.508,1.948v3.65h-1.054v-6.957h0.857l0.171,0.952h0.051    c0.216-0.343,0.519-0.608,0.908-0.797c0.389-0.188,0.823-0.282,1.301-0.282c0.838,0,1.469,0.202,1.892,0.606    c0.424,0.404,0.635,1.05,0.635,1.938v4.539h-1.053V319.427z"/>
      <path class="st9"
            d="M262.22,318.685c0.186,0,0.366-0.015,0.539-0.042c0.174-0.027,0.312-0.056,0.413-0.085v0.806    c-0.114,0.055-0.282,0.101-0.505,0.137c-0.222,0.036-0.422,0.054-0.6,0.054c-1.346,0-2.019-0.709-2.019-2.127v-4.139h-0.997    v-0.508l0.997-0.438l0.444-1.485h0.609v1.612h2.019v0.818h-2.019v4.095c0,0.419,0.1,0.74,0.298,0.965    C261.6,318.572,261.872,318.685,262.22,318.685z"/>
      <path class="st9"
            d="M267.501,319.554c-1.028,0-1.84-0.313-2.435-0.939s-0.892-1.496-0.892-2.609c0-1.121,0.275-2.012,0.828-2.672    c0.552-0.66,1.294-0.99,2.225-0.99c0.872,0,1.562,0.287,2.069,0.86s0.762,1.329,0.762,2.269v0.667h-4.792    c0.021,0.816,0.228,1.437,0.618,1.86c0.392,0.423,0.943,0.635,1.654,0.635c0.749,0,1.489-0.157,2.222-0.471v0.939    c-0.373,0.161-0.725,0.276-1.058,0.347C268.371,319.519,267.971,319.554,267.501,319.554z M267.215,313.226    c-0.559,0-1.004,0.182-1.336,0.545c-0.332,0.364-0.528,0.868-0.587,1.512h3.637c0-0.665-0.147-1.174-0.444-1.527    C268.188,313.402,267.766,313.226,267.215,313.226z"/>
      <path class="st9"
            d="M275.029,312.343c0.309,0,0.586,0.025,0.831,0.076l-0.146,0.978c-0.288-0.063-0.542-0.095-0.762-0.095    c-0.563,0-1.044,0.229-1.444,0.686c-0.399,0.457-0.6,1.025-0.6,1.707v3.732h-1.054v-6.957h0.869l0.121,1.289h0.051    c0.258-0.453,0.569-0.803,0.933-1.048C274.193,312.466,274.593,312.343,275.029,312.343z"/>
      <path class="st9"
            d="M232.357,326.147v6.005c0,1.058-0.319,1.89-0.959,2.494c-0.639,0.605-1.517,0.908-2.634,0.908    s-1.981-0.305-2.594-0.914c-0.611-0.609-0.917-1.447-0.917-2.514v-5.979h1.079v6.056c0,0.774,0.212,1.369,0.635,1.783    c0.424,0.415,1.046,0.623,1.866,0.623c0.783,0,1.386-0.209,1.81-0.626c0.423-0.417,0.635-1.015,0.635-1.793v-6.043    L232.357,326.147L232.357,326.147z"/>
      <path class="st9"
            d="M243.522,335.427v-4.525c0-0.555-0.118-0.971-0.355-1.248c-0.236-0.277-0.604-0.416-1.104-0.416    c-0.655,0-1.141,0.188-1.453,0.565c-0.313,0.377-0.47,0.956-0.47,1.739v3.885h-1.054v-4.525c0-0.555-0.119-0.971-0.355-1.248    c-0.237-0.277-0.607-0.416-1.111-0.416c-0.66,0-1.144,0.198-1.45,0.594s-0.46,1.045-0.46,1.945v3.65h-1.054v-6.957h0.856    l0.172,0.952h0.051c0.198-0.339,0.479-0.603,0.841-0.794c0.362-0.189,0.767-0.285,1.216-0.285c1.087,0,1.798,0.394,2.133,1.181    h0.051c0.207-0.364,0.508-0.651,0.901-0.863s0.842-0.317,1.346-0.317c0.787,0,1.376,0.202,1.768,0.606s0.587,1.05,0.587,1.938    v4.539L243.522,335.427L243.522,335.427z"/>
      <path class="st9"
            d="M251.235,333.528c0,0.648-0.241,1.147-0.724,1.498c-0.482,0.352-1.16,0.527-2.031,0.527    c-0.923,0-1.643-0.146-2.158-0.438v-0.979c0.334,0.17,0.692,0.303,1.075,0.4c0.384,0.098,0.753,0.146,1.108,0.146    c0.55,0,0.973-0.088,1.27-0.264c0.296-0.176,0.444-0.443,0.444-0.803c0-0.271-0.118-0.503-0.353-0.695    c-0.235-0.192-0.693-0.42-1.374-0.683c-0.647-0.241-1.108-0.452-1.381-0.632s-0.477-0.384-0.609-0.612    c-0.134-0.229-0.2-0.501-0.2-0.819c0-0.566,0.23-1.014,0.692-1.342c0.461-0.328,1.094-0.492,1.897-0.492    c0.749,0,1.481,0.152,2.196,0.457l-0.374,0.857c-0.698-0.288-1.331-0.432-1.898-0.432c-0.499,0-0.876,0.078-1.13,0.234    s-0.381,0.372-0.381,0.647c0,0.187,0.048,0.345,0.143,0.476c0.096,0.132,0.249,0.257,0.461,0.375    c0.211,0.118,0.617,0.29,1.219,0.514c0.825,0.301,1.383,0.604,1.672,0.908C251.09,332.685,251.235,333.068,251.235,333.528z"/>
      <path class="st9"
            d="M255.196,334.685c0.186,0,0.366-0.015,0.539-0.042c0.174-0.027,0.312-0.056,0.413-0.085v0.806    c-0.114,0.055-0.282,0.101-0.505,0.137c-0.222,0.036-0.422,0.054-0.6,0.054c-1.346,0-2.019-0.709-2.019-2.127v-4.139h-0.997    v-0.508l0.997-0.438l0.444-1.485h0.609v1.612h2.019v0.818h-2.019v4.095c0,0.419,0.1,0.74,0.298,0.965    C254.576,334.572,254.849,334.685,255.196,334.685z"/>
      <path class="st9"
            d="M261.816,335.427l-0.209-0.99h-0.051c-0.348,0.436-0.693,0.731-1.038,0.886s-0.775,0.231-1.292,0.231    c-0.689,0-1.23-0.178-1.622-0.533c-0.391-0.355-0.587-0.861-0.587-1.518c0-1.404,1.124-2.141,3.371-2.209l1.181-0.037v-0.432    c0-0.547-0.118-0.949-0.353-1.21c-0.235-0.26-0.61-0.39-1.127-0.39c-0.579,0-1.235,0.178-1.968,0.533l-0.323-0.807    c0.343-0.187,0.718-0.332,1.126-0.438c0.409-0.106,0.818-0.159,1.229-0.159c0.83,0,1.444,0.185,1.844,0.552    c0.4,0.369,0.601,0.959,0.601,1.771v4.748h-0.782V335.427z M259.437,334.685c0.655,0,1.171-0.181,1.545-0.54    c0.375-0.359,0.562-0.863,0.562-1.511v-0.629l-1.054,0.045c-0.838,0.029-1.442,0.16-1.812,0.391s-0.556,0.589-0.556,1.076    c0,0.381,0.115,0.67,0.346,0.869C258.699,334.585,259.021,334.685,259.437,334.685z M258.192,326.585    c0-0.221,0.056-0.379,0.168-0.477s0.246-0.146,0.403-0.146c0.16,0,0.299,0.049,0.415,0.146c0.117,0.098,0.175,0.256,0.175,0.477    c0,0.211-0.058,0.369-0.175,0.473c-0.116,0.104-0.255,0.155-0.415,0.155c-0.157,0-0.291-0.052-0.403-0.155    S258.192,326.796,258.192,326.585z M260.61,326.585c0-0.221,0.057-0.379,0.168-0.477c0.112-0.098,0.247-0.146,0.403-0.146    c0.157,0,0.293,0.049,0.409,0.146c0.117,0.098,0.175,0.256,0.175,0.477c0,0.211-0.058,0.369-0.175,0.473    c-0.116,0.104-0.252,0.155-0.409,0.155c-0.156,0-0.291-0.052-0.403-0.155C260.667,326.954,260.61,326.796,260.61,326.585z"/>
      <path class="st9"
            d="M269.529,335.427v-4.5c0-0.567-0.129-0.99-0.388-1.27c-0.258-0.279-0.662-0.42-1.212-0.42    c-0.729,0-1.262,0.197-1.6,0.591c-0.339,0.394-0.508,1.043-0.508,1.948v3.65h-1.054v-6.957h0.856l0.172,0.952h0.051    c0.216-0.343,0.519-0.608,0.907-0.797c0.39-0.188,0.823-0.282,1.302-0.282c0.838,0,1.468,0.202,1.892,0.606    c0.423,0.404,0.635,1.05,0.635,1.938v4.539h-1.053V335.427z"/>
      <path class="st9"
            d="M277.482,334.493h-0.057c-0.487,0.707-1.215,1.061-2.184,1.061c-0.91,0-1.618-0.311-2.124-0.934    c-0.505-0.621-0.758-1.506-0.758-2.652c0-1.147,0.254-2.038,0.762-2.673s1.214-0.952,2.12-0.952c0.943,0,1.667,0.343,2.171,1.028    h0.082l-0.044-0.501l-0.025-0.489v-2.831h1.054v9.877h-0.857L277.482,334.493z M275.375,334.671c0.72,0,1.241-0.195,1.564-0.587    c0.324-0.392,0.486-1.022,0.486-1.895v-0.222c0-0.986-0.164-1.69-0.492-2.111s-0.852-0.631-1.571-0.631    c-0.617,0-1.091,0.239-1.419,0.72c-0.327,0.48-0.491,1.159-0.491,2.034c0,0.889,0.163,1.56,0.488,2.013    C274.267,334.445,274.745,334.671,275.375,334.671z"/>
      <path class="st9"
            d="M283.652,335.554c-1.028,0-1.84-0.313-2.434-0.939c-0.595-0.626-0.893-1.496-0.893-2.609    c0-1.121,0.276-2.012,0.829-2.672c0.552-0.66,1.293-0.99,2.225-0.99c0.871,0,1.562,0.287,2.069,0.86s0.762,1.329,0.762,2.269    v0.667h-4.793c0.021,0.816,0.228,1.437,0.619,1.86c0.392,0.423,0.942,0.635,1.653,0.635c0.749,0,1.49-0.157,2.222-0.471v0.939    c-0.372,0.161-0.725,0.276-1.057,0.347C284.523,335.519,284.122,335.554,283.652,335.554z M283.367,329.226    c-0.559,0-1.004,0.182-1.336,0.545c-0.333,0.364-0.528,0.868-0.588,1.512h3.638c0-0.665-0.148-1.174-0.444-1.527    C284.34,329.402,283.917,329.226,283.367,329.226z"/>
      <path class="st9"
            d="M292.768,335.427v-4.5c0-0.567-0.129-0.99-0.387-1.27c-0.259-0.279-0.662-0.42-1.213-0.42    c-0.728,0-1.261,0.197-1.6,0.591c-0.338,0.394-0.508,1.043-0.508,1.948v3.65h-1.054v-6.957h0.857l0.171,0.952h0.051    c0.216-0.343,0.519-0.608,0.908-0.797c0.389-0.188,0.823-0.282,1.301-0.282c0.838,0,1.469,0.202,1.892,0.606    c0.424,0.404,0.635,1.05,0.635,1.938v4.539h-1.053V335.427z"/>
	</g>
    <g>
		<path class="st9"
          d="M250.274,153.213h-1.771v6.139h-1.054v-6.139h-1.244v-0.476l1.244-0.381v-0.388    c0-1.709,0.747-2.564,2.24-2.564c0.368,0,0.8,0.074,1.295,0.223l-0.272,0.844c-0.406-0.131-0.754-0.196-1.041-0.196    c-0.398,0-0.692,0.132-0.883,0.396s-0.285,0.688-0.285,1.272v0.451h1.771V153.213z"/>
      <path class="st9"
            d="M254.483,159.479c-1.028,0-1.84-0.313-2.435-0.939s-0.892-1.496-0.892-2.609c0-1.121,0.275-2.012,0.828-2.672    c0.552-0.66,1.294-0.99,2.225-0.99c0.872,0,1.562,0.287,2.069,0.86c0.507,0.573,0.762,1.329,0.762,2.269v0.667h-4.792    c0.021,0.816,0.228,1.437,0.618,1.86c0.392,0.423,0.943,0.635,1.654,0.635c0.749,0,1.489-0.157,2.222-0.471v0.939    c-0.373,0.161-0.725,0.276-1.058,0.347C255.354,159.444,254.953,159.479,254.483,159.479z M254.197,153.151    c-0.559,0-1.004,0.182-1.336,0.545c-0.332,0.364-0.528,0.868-0.587,1.512h3.637c0-0.665-0.147-1.174-0.444-1.527    C255.171,153.326,254.748,153.151,254.197,153.151z"/>
      <path class="st9"
            d="M263.325,157.453c0,0.648-0.241,1.147-0.724,1.498c-0.482,0.352-1.159,0.527-2.031,0.527    c-0.922,0-1.642-0.146-2.158-0.438v-0.979c0.335,0.17,0.693,0.303,1.076,0.4s0.752,0.146,1.107,0.146    c0.551,0,0.974-0.088,1.27-0.264c0.297-0.176,0.444-0.443,0.444-0.803c0-0.271-0.117-0.503-0.352-0.695s-0.693-0.42-1.375-0.683    c-0.647-0.241-1.107-0.452-1.38-0.632c-0.273-0.18-0.477-0.384-0.609-0.612c-0.134-0.229-0.2-0.501-0.2-0.819    c0-0.566,0.23-1.014,0.691-1.342c0.462-0.328,1.094-0.492,1.898-0.492c0.749,0,1.48,0.152,2.196,0.457l-0.375,0.857    c-0.698-0.288-1.331-0.432-1.897-0.432c-0.5,0-0.876,0.078-1.13,0.234s-0.381,0.372-0.381,0.647c0,0.187,0.048,0.345,0.143,0.476    c0.096,0.132,0.249,0.257,0.46,0.375c0.212,0.118,0.618,0.29,1.219,0.514c0.825,0.301,1.383,0.604,1.673,0.908    S263.325,156.992,263.325,157.453z"/>
      <path class="st9"
            d="M267.286,158.61c0.187,0,0.366-0.015,0.54-0.042c0.173-0.027,0.311-0.056,0.412-0.085v0.806    c-0.114,0.055-0.282,0.101-0.505,0.137c-0.222,0.036-0.422,0.054-0.6,0.054c-1.346,0-2.019-0.709-2.019-2.127v-4.139h-0.996    v-0.508l0.996-0.438l0.444-1.485h0.609v1.612h2.019v0.818h-2.019v4.095c0,0.419,0.1,0.74,0.299,0.965    C266.666,158.497,266.939,158.61,267.286,158.61z"/>
      <path class="st9"
            d="M270.733,157.841l0.095,0.146c-0.109,0.424-0.269,0.916-0.476,1.477c-0.208,0.561-0.424,1.082-0.647,1.564    h-0.794c0.114-0.44,0.24-0.984,0.378-1.631c0.138-0.648,0.233-1.166,0.289-1.556H270.733z"/>
      <path class="st9"
            d="M229.086,175.479c-1.028,0-1.84-0.313-2.435-0.939s-0.892-1.496-0.892-2.609c0-1.121,0.275-2.012,0.828-2.672    c0.552-0.66,1.294-0.99,2.225-0.99c0.872,0,1.562,0.287,2.069,0.86s0.762,1.329,0.762,2.269v0.667h-4.792    c0.021,0.816,0.228,1.437,0.618,1.86c0.392,0.423,0.943,0.635,1.654,0.635c0.749,0,1.489-0.157,2.222-0.471v0.939    c-0.373,0.161-0.725,0.276-1.058,0.347C229.956,175.444,229.556,175.479,229.086,175.479z M228.8,169.151    c-0.559,0-1.004,0.182-1.336,0.545c-0.332,0.364-0.528,0.868-0.587,1.512h3.637c0-0.665-0.147-1.174-0.444-1.527    C229.773,169.326,229.351,169.151,228.8,169.151z"/>
      <path class="st9"
            d="M238.201,175.352v-4.5c0-0.567-0.129-0.99-0.388-1.27c-0.258-0.279-0.662-0.42-1.212-0.42    c-0.732,0-1.267,0.199-1.603,0.598c-0.337,0.397-0.505,1.049-0.505,1.955v3.637h-1.054v-9.877h1.054v2.99    c0,0.359-0.018,0.657-0.051,0.895h0.063c0.207-0.334,0.502-0.598,0.886-0.79c0.383-0.192,0.819-0.289,1.311-0.289    c0.851,0,1.488,0.202,1.914,0.606c0.425,0.404,0.638,1.046,0.638,1.926v4.539L238.201,175.352L238.201,175.352z"/>
      <path class="st9"
            d="M244.358,175.479c-1.028,0-1.84-0.313-2.435-0.939s-0.892-1.496-0.892-2.609c0-1.121,0.275-2.012,0.828-2.672    c0.552-0.66,1.294-0.99,2.225-0.99c0.872,0,1.562,0.287,2.069,0.86s0.762,1.329,0.762,2.269v0.667h-4.792    c0.021,0.816,0.228,1.437,0.618,1.86c0.392,0.423,0.943,0.635,1.654,0.635c0.749,0,1.489-0.157,2.222-0.471v0.939    c-0.373,0.161-0.725,0.276-1.058,0.347C245.229,175.444,244.828,175.479,244.358,175.479z M244.072,169.151    c-0.559,0-1.004,0.182-1.336,0.545c-0.332,0.364-0.528,0.868-0.587,1.512h3.637c0-0.665-0.147-1.174-0.444-1.527    C245.046,169.326,244.623,169.151,244.072,169.151z"/>
      <path class="st9"
            d="M251.887,168.268c0.309,0,0.586,0.025,0.831,0.076l-0.146,0.978c-0.288-0.063-0.542-0.095-0.762-0.095    c-0.563,0-1.044,0.229-1.444,0.686c-0.399,0.457-0.6,1.025-0.6,1.707v3.732h-1.054v-6.957h0.869l0.121,1.289h0.051    c0.258-0.453,0.569-0.803,0.933-1.048C251.051,168.391,251.45,168.268,251.887,168.268z"/>
      <path class="st9"
            d="M262.157,175.352v-4.5c0-0.567-0.129-0.99-0.388-1.27c-0.258-0.279-0.662-0.42-1.212-0.42    c-0.732,0-1.267,0.199-1.603,0.598c-0.337,0.397-0.505,1.049-0.505,1.955v3.637h-1.054v-9.877h1.054v2.99    c0,0.359-0.018,0.657-0.051,0.895h0.063c0.207-0.334,0.502-0.598,0.886-0.79c0.383-0.192,0.819-0.289,1.311-0.289    c0.851,0,1.488,0.202,1.914,0.606c0.425,0.404,0.638,1.046,0.638,1.926v4.539L262.157,175.352L262.157,175.352z"/>
      <path class="st9"
            d="M271.38,171.867c0,1.134-0.285,2.02-0.856,2.656s-1.36,0.955-2.368,0.955c-0.622,0-1.174-0.146-1.656-0.438    c-0.482-0.293-0.855-0.711-1.117-1.258c-0.263-0.545-0.394-1.185-0.394-1.916c0-1.135,0.283-2.018,0.851-2.65    c0.566-0.633,1.354-0.949,2.361-0.949c0.973,0,1.746,0.324,2.319,0.971C271.094,169.887,271.38,170.762,271.38,171.867z     M266.08,171.867c0,0.889,0.178,1.565,0.533,2.031c0.355,0.465,0.878,0.697,1.567,0.697c0.69,0,1.214-0.231,1.571-0.694    c0.357-0.464,0.536-1.142,0.536-2.034c0-0.885-0.179-1.557-0.536-2.016s-0.886-0.689-1.584-0.689c-0.689,0-1.21,0.227-1.562,0.68    C266.256,170.295,266.08,170.97,266.08,171.867z M266.391,166.51c0-0.221,0.057-0.379,0.168-0.477    c0.112-0.098,0.247-0.146,0.403-0.146c0.161,0,0.3,0.049,0.416,0.146s0.175,0.256,0.175,0.477c0,0.211-0.059,0.369-0.175,0.473    s-0.255,0.155-0.416,0.155c-0.156,0-0.291-0.052-0.403-0.155C266.447,166.879,266.391,166.721,266.391,166.51z M268.81,166.51    c0-0.221,0.056-0.379,0.168-0.477s0.246-0.146,0.403-0.146c0.156,0,0.293,0.049,0.409,0.146s0.175,0.256,0.175,0.477    c0,0.211-0.059,0.369-0.175,0.473s-0.253,0.155-0.409,0.155c-0.157,0-0.291-0.052-0.403-0.155S268.81,166.721,268.81,166.51z"/>
      <path class="st9"
            d="M277.988,175.352v-4.5c0-0.567-0.129-0.99-0.388-1.27c-0.258-0.279-0.662-0.42-1.212-0.42    c-0.732,0-1.267,0.199-1.603,0.598c-0.337,0.397-0.505,1.049-0.505,1.955v3.637h-1.054v-9.877h1.054v2.99    c0,0.359-0.018,0.657-0.051,0.895h0.063c0.207-0.334,0.502-0.598,0.886-0.79c0.383-0.192,0.819-0.289,1.311-0.289    c0.851,0,1.488,0.202,1.914,0.606c0.425,0.404,0.638,1.046,0.638,1.926v4.539L277.988,175.352L277.988,175.352z"/>
      <path class="st9"
            d="M284.146,175.479c-1.028,0-1.84-0.313-2.435-0.939s-0.892-1.496-0.892-2.609c0-1.121,0.275-2.012,0.828-2.672    c0.552-0.66,1.294-0.99,2.225-0.99c0.872,0,1.562,0.287,2.069,0.86s0.762,1.329,0.762,2.269v0.667h-4.792    c0.021,0.816,0.228,1.437,0.618,1.86c0.392,0.423,0.943,0.635,1.654,0.635c0.749,0,1.489-0.157,2.222-0.471v0.939    c-0.373,0.161-0.725,0.276-1.058,0.347C285.016,175.444,284.615,175.479,284.146,175.479z M283.859,169.151    c-0.559,0-1.004,0.182-1.336,0.545c-0.332,0.364-0.528,0.868-0.587,1.512h3.637c0-0.665-0.147-1.174-0.444-1.527    C284.833,169.326,284.41,169.151,283.859,169.151z"/>
      <path class="st9"
            d="M291.674,168.268c0.309,0,0.586,0.025,0.831,0.076l-0.146,0.978c-0.288-0.063-0.542-0.095-0.762-0.095    c-0.563,0-1.044,0.229-1.444,0.686c-0.399,0.457-0.6,1.025-0.6,1.707v3.732H288.5v-6.957h0.869l0.121,1.289h0.051    c0.258-0.453,0.569-0.803,0.933-1.048C290.838,168.391,291.237,168.268,291.674,168.268z"/>
	</g>
    <g>
		<path class="st9" d="M22.646,68.887H20.71v-9.279h5.319v1.611h-3.383v2.393h3.148v1.607h-3.148V68.887z"/>
      <path class="st9" d="M29.628,68.887h-1.936V59.01h1.936V68.887z"/>
      <path class="st9"
            d="M34.872,69.014c-1.143,0-2.036-0.314-2.679-0.945s-0.965-1.523-0.965-2.68c0-1.188,0.297-2.107,0.892-2.758    c0.595-0.648,1.417-0.975,2.466-0.975c1.003,0,1.784,0.287,2.342,0.857c0.559,0.572,0.838,1.361,0.838,2.367v0.939h-4.577    c0.021,0.551,0.184,0.98,0.489,1.289s0.732,0.463,1.282,0.463c0.427,0,0.832-0.043,1.212-0.133    c0.381-0.088,0.779-0.23,1.193-0.426v1.498c-0.338,0.17-0.7,0.297-1.085,0.379S35.426,69.014,34.872,69.014z M34.599,63.035    c-0.411,0-0.732,0.129-0.965,0.391c-0.233,0.26-0.366,0.629-0.4,1.107h2.717c-0.008-0.479-0.133-0.848-0.375-1.107    C35.335,63.164,35.009,63.035,34.599,63.035z"/>
      <path class="st9"
            d="M40.794,65.262l-2.285-3.471h2.196l1.377,2.26l1.39-2.26h2.196l-2.311,3.471l2.418,3.625h-2.203l-1.492-2.432    l-1.498,2.432h-2.196L40.794,65.262z"/>
      <path class="st9"
            d="M46.773,59.955c0-0.629,0.351-0.945,1.054-0.945s1.054,0.316,1.054,0.945c0,0.301-0.088,0.535-0.263,0.703    c-0.176,0.166-0.439,0.25-0.791,0.25C47.125,60.908,46.773,60.59,46.773,59.955z M48.792,68.887h-1.936v-7.096h1.936V68.887z"/>
      <path class="st9"
            d="M54.771,61.656c0.838,0,1.494,0.328,1.968,0.982c0.474,0.652,0.711,1.549,0.711,2.688    c0,1.172-0.244,2.08-0.733,2.723c-0.488,0.645-1.154,0.965-1.996,0.965c-0.833,0-1.487-0.303-1.961-0.908h-0.133l-0.324,0.781    h-1.479V59.01h1.936v2.299c0,0.291-0.025,0.76-0.076,1.402h0.076C53.212,62.008,53.883,61.656,54.771,61.656z M54.149,63.205    c-0.478,0-0.827,0.148-1.047,0.441c-0.22,0.295-0.334,0.781-0.343,1.457v0.209c0,0.762,0.113,1.309,0.339,1.639    c0.227,0.33,0.585,0.494,1.076,0.494c0.398,0,0.714-0.182,0.949-0.549c0.234-0.365,0.352-0.898,0.352-1.596    c0-0.699-0.119-1.223-0.355-1.57C54.884,63.381,54.56,63.205,54.149,63.205z"/>
      <path class="st9"
            d="M58.967,59.955c0-0.629,0.351-0.945,1.054-0.945s1.054,0.316,1.054,0.945c0,0.301-0.088,0.535-0.263,0.703    c-0.176,0.166-0.439,0.25-0.791,0.25C59.318,60.908,58.967,60.59,58.967,59.955z M60.986,68.887H59.05v-7.096h1.936V68.887z"/>
      <path class="st9" d="M64.953,68.887h-1.936V59.01h1.936V68.887z"/>
      <path class="st9"
            d="M69.974,67.471c0.338,0,0.745-0.072,1.219-0.221v1.439c-0.482,0.217-1.075,0.324-1.777,0.324    c-0.774,0-1.338-0.195-1.692-0.586c-0.353-0.393-0.53-0.979-0.53-1.762v-3.422h-0.927v-0.818l1.066-0.648l0.559-1.498h1.238v1.512    h1.987v1.453H69.13v3.422c0,0.275,0.077,0.479,0.231,0.609C69.516,67.406,69.72,67.471,69.974,67.471z"/>
      <path class="st9"
            d="M77.134,68.887l-0.375-0.965h-0.051c-0.326,0.41-0.661,0.695-1.006,0.854    c-0.345,0.16-0.794,0.238-1.349,0.238c-0.681,0-1.218-0.193-1.609-0.584c-0.391-0.389-0.587-0.943-0.587-1.662    c0-0.754,0.264-1.309,0.79-1.666c0.527-0.357,1.322-0.557,2.384-0.594l1.231-0.039v-0.311c0-0.719-0.368-1.08-1.104-1.08    c-0.567,0-1.233,0.172-2,0.516l-0.641-1.309c0.817-0.428,1.722-0.641,2.717-0.641c0.952,0,1.682,0.207,2.19,0.621    c0.508,0.416,0.762,1.047,0.762,1.893v4.729C78.486,68.887,77.134,68.887,77.134,68.887z M73.421,59.969    c0-0.275,0.08-0.486,0.238-0.635c0.159-0.148,0.374-0.223,0.645-0.223c0.279,0,0.498,0.078,0.657,0.234    c0.158,0.158,0.238,0.365,0.238,0.623c0,0.254-0.081,0.459-0.241,0.613s-0.379,0.23-0.654,0.23c-0.271,0-0.485-0.074-0.645-0.223    C73.5,60.444,73.421,60.235,73.421,59.969z M76.563,65.6l-0.749,0.025c-0.563,0.016-0.982,0.117-1.257,0.305    c-0.275,0.186-0.413,0.469-0.413,0.85c0,0.547,0.313,0.818,0.939,0.818c0.449,0,0.807-0.129,1.076-0.387s0.403-0.6,0.403-1.027    L76.563,65.6L76.563,65.6z M75.979,59.969c0-0.297,0.086-0.514,0.257-0.65c0.172-0.139,0.384-0.207,0.638-0.207    c0.275,0,0.494,0.076,0.657,0.229c0.163,0.152,0.245,0.361,0.245,0.629c0,0.258-0.083,0.463-0.248,0.615s-0.383,0.229-0.654,0.229    c-0.254,0-0.466-0.068-0.638-0.205C76.065,60.469,75.979,60.256,75.979,59.969z"/>
      <path class="st9"
            d="M83.469,67.471c0.338,0,0.745-0.072,1.219-0.221v1.439c-0.482,0.217-1.075,0.324-1.777,0.324    c-0.774,0-1.338-0.195-1.692-0.586c-0.353-0.393-0.53-0.979-0.53-1.762v-3.422h-0.927v-0.818l1.066-0.648l0.559-1.498h1.238v1.512    h1.987v1.453h-1.987v3.422c0,0.275,0.077,0.479,0.231,0.609C83.011,67.406,83.215,67.471,83.469,67.471z"/>
	</g>
    <g>
		<path class="st9"
          d="M26.759,139.952h-6.906v-1.275l4.45-6.38h-4.329v-1.625h6.665v1.27l-4.443,6.386h4.564L26.759,139.952    L26.759,139.952z"/>
      <path class="st9"
            d="M28.003,131.021c0-0.63,0.351-0.945,1.054-0.945s1.054,0.315,1.054,0.945c0,0.301-0.088,0.535-0.263,0.702    c-0.176,0.167-0.439,0.251-0.791,0.251C28.354,131.974,28.003,131.655,28.003,131.021z M30.022,139.952h-1.936v-7.097h1.936    V139.952z"/>
      <path class="st9"
            d="M38.604,139.952h-1.936v-4.145c0-0.513-0.091-0.896-0.273-1.152s-0.472-0.385-0.87-0.385    c-0.542,0-0.933,0.182-1.174,0.543c-0.241,0.362-0.362,0.962-0.362,1.8v3.339h-1.936v-7.097h1.479l0.26,0.907H33.9    c0.216-0.342,0.513-0.602,0.892-0.777c0.378-0.176,0.809-0.264,1.292-0.264c0.825,0,1.452,0.224,1.879,0.67    s0.641,1.091,0.641,1.934V139.952z"/>
      <path class="st9"
            d="M45.548,137.845c0,0.728-0.253,1.282-0.759,1.663c-0.505,0.381-1.262,0.571-2.269,0.571    c-0.516,0-0.957-0.035-1.32-0.104c-0.364-0.07-0.705-0.173-1.022-0.308v-1.6c0.36,0.169,0.765,0.311,1.216,0.425    c0.45,0.114,0.847,0.171,1.19,0.171c0.703,0,1.054-0.203,1.054-0.609c0-0.152-0.046-0.275-0.14-0.371    c-0.093-0.095-0.254-0.203-0.482-0.323c-0.229-0.121-0.533-0.262-0.914-0.423c-0.546-0.229-0.947-0.439-1.203-0.635    c-0.256-0.194-0.442-0.417-0.559-0.669c-0.117-0.252-0.175-0.562-0.175-0.931c0-0.63,0.244-1.118,0.733-1.463    c0.488-0.345,1.182-0.518,2.079-0.518c0.855,0,1.687,0.187,2.495,0.559l-0.584,1.396c-0.355-0.152-0.688-0.276-0.997-0.374    s-0.624-0.146-0.946-0.146c-0.571,0-0.857,0.154-0.857,0.463c0,0.174,0.092,0.324,0.276,0.451    c0.185,0.127,0.587,0.314,1.209,0.564c0.554,0.225,0.96,0.434,1.219,0.629c0.258,0.194,0.449,0.418,0.571,0.672    S45.548,137.493,45.548,137.845z"/>
      <path class="st9"
            d="M50.271,140.079c-1.143,0-2.036-0.315-2.679-0.945c-0.643-0.631-0.965-1.523-0.965-2.68    c0-1.188,0.297-2.108,0.892-2.758c0.595-0.649,1.417-0.975,2.466-0.975c1.003,0,1.784,0.286,2.342,0.857s0.838,1.36,0.838,2.367    v0.939h-4.577c0.021,0.551,0.184,0.98,0.489,1.289s0.732,0.463,1.282,0.463c0.427,0,0.832-0.044,1.212-0.133    s0.779-0.23,1.193-0.426v1.498c-0.338,0.17-0.7,0.296-1.085,0.378C51.295,140.038,50.825,140.079,50.271,140.079z M49.998,134.1    c-0.411,0-0.732,0.13-0.965,0.391c-0.233,0.26-0.366,0.629-0.4,1.107h2.717c-0.008-0.479-0.133-0.848-0.375-1.107    C50.734,134.23,50.409,134.1,49.998,134.1z"/>
      <path class="st9"
            d="M61.291,139.952h-1.936v-4.145c0-0.513-0.091-0.896-0.273-1.152s-0.472-0.385-0.87-0.385    c-0.542,0-0.933,0.182-1.174,0.543c-0.241,0.362-0.362,0.962-0.362,1.8v3.339H54.74v-7.097h1.479l0.26,0.907h0.108    c0.216-0.342,0.513-0.602,0.892-0.777c0.378-0.176,0.809-0.264,1.292-0.264c0.825,0,1.452,0.224,1.879,0.67    s0.641,1.091,0.641,1.934V139.952z"/>
	</g>
    <g>
		<path class="st9" d="M20.71,223.019v-9.28h1.968v7.655h3.764v1.625H20.71z"/>
      <path class="st9"
            d="M32.409,223.019l-0.375-0.965h-0.051c-0.326,0.41-0.661,0.695-1.006,0.854    c-0.345,0.159-0.794,0.238-1.349,0.238c-0.681,0-1.218-0.194-1.609-0.584c-0.391-0.39-0.587-0.943-0.587-1.663    c0-0.753,0.264-1.309,0.79-1.666c0.527-0.357,1.322-0.556,2.384-0.594l1.231-0.038v-0.311c0-0.72-0.368-1.08-1.104-1.08    c-0.567,0-1.233,0.172-2,0.515l-0.641-1.308c0.817-0.428,1.722-0.641,2.717-0.641c0.952,0,1.682,0.207,2.19,0.621    c0.508,0.415,0.762,1.046,0.762,1.893v4.729L32.409,223.019L32.409,223.019z M31.837,219.731l-0.749,0.025    c-0.563,0.017-0.982,0.118-1.257,0.305s-0.413,0.47-0.413,0.851c0,0.546,0.313,0.818,0.939,0.818c0.449,0,0.807-0.129,1.076-0.387    c0.269-0.258,0.403-0.601,0.403-1.028v-0.584H31.837z"/>
      <path class="st9"
            d="M40.781,223.019l-0.26-0.908h-0.102c-0.208,0.33-0.501,0.586-0.882,0.766s-0.814,0.27-1.301,0.27    c-0.833,0-1.462-0.224-1.885-0.67s-0.635-1.088-0.635-1.926v-4.628h1.936v4.146c0,0.512,0.091,0.896,0.273,1.151    s0.472,0.384,0.87,0.384c0.542,0,0.933-0.181,1.174-0.542c0.241-0.362,0.362-0.962,0.362-1.8v-3.339h1.936v7.097L40.781,223.019    L40.781,223.019z"/>
      <path class="st9"
            d="M48.221,217.376h-1.676v5.643h-1.936v-5.643h-1.066v-0.934l1.066-0.521V215.4    c0-0.809,0.199-1.398,0.597-1.771c0.398-0.372,1.035-0.559,1.911-0.559c0.668,0,1.263,0.1,1.784,0.299l-0.495,1.422    c-0.389-0.123-0.749-0.184-1.079-0.184c-0.275,0-0.474,0.081-0.597,0.244s-0.184,0.371-0.184,0.625v0.444h1.676v1.456H48.221z"/>
      <path class="st9"
            d="M54.27,223.019h-5.605v-1.143l3.288-4.475h-3.091v-1.479h5.294v1.257l-3.199,4.361h3.313V223.019z"/>
      <path class="st9"
            d="M58.885,223.146c-1.143,0-2.036-0.315-2.679-0.945c-0.643-0.631-0.965-1.523-0.965-2.68    c0-1.188,0.297-2.108,0.892-2.758c0.595-0.649,1.417-0.975,2.466-0.975c1.003,0,1.784,0.286,2.342,0.857s0.838,1.36,0.838,2.367    v0.939h-4.577c0.021,0.551,0.184,0.98,0.489,1.289s0.732,0.463,1.282,0.463c0.427,0,0.832-0.044,1.212-0.133    s0.779-0.23,1.193-0.426v1.498c-0.338,0.17-0.7,0.296-1.085,0.378C59.909,223.105,59.439,223.146,58.885,223.146z M58.612,217.166    c-0.411,0-0.732,0.13-0.965,0.391c-0.233,0.26-0.366,0.629-0.4,1.107h2.717c-0.008-0.479-0.133-0.848-0.375-1.107    C59.348,217.296,59.022,217.166,58.612,217.166z"/>
      <path class="st9"
            d="M63.271,214.087c0-0.63,0.351-0.945,1.054-0.945s1.054,0.315,1.054,0.945c0,0.301-0.088,0.535-0.263,0.702    c-0.176,0.167-0.439,0.251-0.791,0.251C63.622,215.04,63.271,214.722,63.271,214.087z M65.29,223.019h-1.936v-7.097h1.936V223.019    z"/>
      <path class="st9"
            d="M70.311,221.603c0.338,0,0.745-0.073,1.219-0.222v1.44c-0.482,0.217-1.075,0.324-1.777,0.324    c-0.774,0-1.338-0.195-1.692-0.587c-0.353-0.392-0.53-0.979-0.53-1.762v-3.421h-0.927v-0.819l1.066-0.647l0.559-1.498h1.238v1.511    h1.987v1.454h-1.987v3.421c0,0.275,0.077,0.479,0.231,0.609C69.853,221.537,70.057,221.603,70.311,221.603z"/>
	</g>
    <g>
		<path class="st9"
          d="M28.175,302.016H25.94l-2.431-3.91l-0.832,0.596v3.314H20.71v-9.281h1.968v4.248l0.774-1.092l2.514-3.156    h2.184l-3.237,4.107L28.175,302.016z"/>
      <path class="st9"
            d="M34.218,302.016l-0.26-0.908h-0.102c-0.208,0.33-0.501,0.586-0.882,0.766s-0.814,0.27-1.301,0.27    c-0.833,0-1.462-0.225-1.885-0.67c-0.423-0.447-0.635-1.088-0.635-1.926v-4.629h1.936v4.146c0,0.512,0.091,0.895,0.273,1.15    s0.472,0.385,0.87,0.385c0.542,0,0.933-0.182,1.174-0.543s0.362-0.961,0.362-1.799v-3.34h1.936v7.098L34.218,302.016    L34.218,302.016z M30.244,293.098c0-0.275,0.079-0.488,0.238-0.635c0.158-0.148,0.373-0.223,0.644-0.223    c0.279,0,0.499,0.078,0.657,0.234c0.159,0.156,0.238,0.363,0.238,0.623c0,0.254-0.081,0.457-0.241,0.611s-0.379,0.232-0.654,0.232    c-0.271,0-0.486-0.074-0.644-0.223C30.323,293.57,30.244,293.363,30.244,293.098z M32.802,293.098    c0-0.297,0.085-0.514,0.257-0.652c0.171-0.137,0.384-0.205,0.638-0.205c0.275,0,0.494,0.076,0.657,0.229    c0.163,0.152,0.244,0.361,0.244,0.629c0,0.258-0.083,0.463-0.248,0.615s-0.383,0.229-0.654,0.229    c-0.254,0-0.467-0.068-0.638-0.207C32.888,293.598,32.802,293.385,32.802,293.098z"/>
      <path class="st9"
            d="M44.285,302.016h-1.936v-4.145c0-0.514-0.091-0.896-0.273-1.152s-0.472-0.385-0.87-0.385    c-0.542,0-0.933,0.182-1.174,0.543s-0.362,0.961-0.362,1.799v3.34h-1.936v-7.098h1.479l0.26,0.908h0.108    c0.216-0.342,0.513-0.602,0.892-0.777c0.378-0.176,0.809-0.264,1.292-0.264c0.825,0,1.452,0.223,1.879,0.67    c0.427,0.445,0.641,1.09,0.641,1.934V302.016z"/>
      <path class="st9"
            d="M48.525,302.143c-0.833,0-1.488-0.324-1.965-0.971c-0.476-0.648-0.714-1.545-0.714-2.691    c0-1.164,0.242-2.072,0.727-2.721c0.485-0.65,1.152-0.975,2.003-0.975c0.893,0,1.574,0.348,2.044,1.041h0.063    c-0.097-0.529-0.146-1-0.146-1.416v-2.271h1.942v9.877h-1.485l-0.375-0.92h-0.083C50.098,301.793,49.427,302.143,48.525,302.143z     M49.205,300.6c0.495,0,0.858-0.145,1.088-0.432c0.231-0.287,0.357-0.777,0.378-1.467v-0.209c0-0.762-0.117-1.307-0.353-1.637    c-0.234-0.33-0.617-0.496-1.146-0.496c-0.432,0-0.767,0.184-1.006,0.549c-0.239,0.367-0.359,0.898-0.359,1.598    c0,0.697,0.121,1.221,0.362,1.57S48.756,300.6,49.205,300.6z"/>
      <path class="st9"
            d="M54.422,293.084c0-0.631,0.351-0.945,1.054-0.945s1.054,0.314,1.054,0.945c0,0.301-0.088,0.535-0.263,0.701    c-0.176,0.168-0.439,0.252-0.791,0.252C54.773,294.037,54.422,293.719,54.422,293.084z M56.441,302.016h-1.936v-7.098h1.936    V302.016z"/>
      <path class="st9"
            d="M64.648,294.918v0.984l-1.111,0.285c0.203,0.318,0.305,0.674,0.305,1.066c0,0.762-0.266,1.355-0.797,1.781    c-0.531,0.426-1.268,0.639-2.212,0.639l-0.349-0.02l-0.286-0.031c-0.199,0.152-0.298,0.32-0.298,0.508    c0,0.279,0.355,0.418,1.066,0.418h1.206c0.779,0,1.372,0.168,1.781,0.502c0.408,0.334,0.612,0.824,0.612,1.473    c0,0.828-0.346,1.473-1.038,1.93c-0.691,0.457-1.685,0.686-2.98,0.686c-0.99,0-1.747-0.174-2.269-0.518    c-0.523-0.346-0.784-0.828-0.784-1.451c0-0.428,0.133-0.785,0.4-1.072s0.658-0.492,1.174-0.615    c-0.199-0.086-0.373-0.225-0.521-0.416c-0.148-0.193-0.222-0.396-0.222-0.613c0-0.27,0.078-0.496,0.235-0.676    s0.383-0.355,0.679-0.529c-0.373-0.162-0.667-0.42-0.885-0.775c-0.218-0.355-0.327-0.773-0.327-1.256    c0-0.775,0.252-1.373,0.755-1.797s1.223-0.635,2.158-0.635c0.199,0,0.435,0.018,0.708,0.055c0.273,0.035,0.448,0.062,0.524,0.078    h2.476V294.918z M59.17,303.018c0,0.268,0.128,0.477,0.384,0.629s0.615,0.229,1.076,0.229c0.694,0,1.238-0.096,1.631-0.285    c0.394-0.191,0.59-0.451,0.59-0.781c0-0.266-0.116-0.451-0.349-0.553s-0.592-0.152-1.079-0.152H60.42    c-0.355,0-0.653,0.084-0.892,0.252C59.29,302.522,59.17,302.742,59.17,303.018z M59.875,297.242c0,0.385,0.088,0.689,0.263,0.914    c0.176,0.225,0.443,0.336,0.803,0.336c0.364,0,0.63-0.111,0.8-0.336s0.254-0.529,0.254-0.914c0-0.855-0.351-1.283-1.054-1.283    C60.23,295.959,59.875,296.387,59.875,297.242z"/>
      <path class="st9"
            d="M70.844,302.016l-0.26-0.908h-0.102c-0.208,0.33-0.501,0.586-0.882,0.766s-0.814,0.27-1.301,0.27    c-0.833,0-1.462-0.225-1.885-0.67c-0.423-0.447-0.635-1.088-0.635-1.926v-4.629h1.936v4.146c0,0.512,0.091,0.895,0.273,1.15    s0.472,0.385,0.87,0.385c0.542,0,0.933-0.182,1.174-0.543s0.362-0.961,0.362-1.799v-3.34h1.936v7.098L70.844,302.016    L70.844,302.016z"/>
      <path class="st9"
            d="M80.911,302.016h-1.936v-4.145c0-0.514-0.091-0.896-0.273-1.152s-0.472-0.385-0.87-0.385    c-0.542,0-0.933,0.182-1.174,0.543s-0.362,0.961-0.362,1.799v3.34H74.36v-7.098h1.479l0.26,0.908h0.108    c0.216-0.342,0.513-0.602,0.892-0.777c0.378-0.176,0.809-0.264,1.292-0.264c0.825,0,1.452,0.223,1.879,0.67    c0.427,0.445,0.641,1.09,0.641,1.934C80.911,297.389,80.911,302.016,80.911,302.016z"/>
      <path class="st9"
            d="M89.081,294.918v0.984l-1.111,0.285c0.203,0.318,0.305,0.674,0.305,1.066c0,0.762-0.266,1.355-0.797,1.781    s-1.268,0.639-2.212,0.639l-0.349-0.02l-0.286-0.031c-0.199,0.152-0.298,0.32-0.298,0.508c0,0.279,0.355,0.418,1.066,0.418h1.206    c0.779,0,1.372,0.168,1.781,0.502c0.408,0.334,0.612,0.824,0.612,1.473c0,0.828-0.346,1.473-1.038,1.93    c-0.691,0.457-1.685,0.686-2.98,0.686c-0.99,0-1.747-0.174-2.269-0.518c-0.523-0.346-0.784-0.828-0.784-1.451    c0-0.428,0.133-0.785,0.4-1.072s0.658-0.492,1.174-0.615c-0.199-0.086-0.373-0.225-0.521-0.416    c-0.148-0.193-0.222-0.396-0.222-0.613c0-0.27,0.078-0.496,0.235-0.676s0.383-0.355,0.679-0.529    c-0.373-0.162-0.667-0.42-0.885-0.775c-0.218-0.355-0.327-0.773-0.327-1.256c0-0.775,0.252-1.373,0.755-1.797    s1.223-0.635,2.158-0.635c0.199,0,0.435,0.018,0.708,0.055c0.273,0.035,0.448,0.062,0.524,0.078h2.476V294.918z M83.603,303.018    c0,0.268,0.128,0.477,0.384,0.629c0.256,0.152,0.615,0.229,1.076,0.229c0.694,0,1.238-0.096,1.631-0.285    c0.394-0.191,0.59-0.451,0.59-0.781c0-0.266-0.116-0.451-0.349-0.553s-0.592-0.152-1.079-0.152h-1.003    c-0.355,0-0.653,0.084-0.892,0.252C83.722,302.522,83.603,302.742,83.603,303.018z M84.307,297.242    c0,0.385,0.088,0.689,0.263,0.914c0.176,0.225,0.443,0.336,0.803,0.336c0.364,0,0.63-0.111,0.8-0.336s0.254-0.529,0.254-0.914    c0-0.855-0.351-1.283-1.054-1.283C84.663,295.959,84.307,296.387,84.307,297.242z"/>
	</g>
    <g>
		<path class="st9"
          d="M230.979,22.212h-2.233V11.504h6.138v1.86h-3.904v2.762h3.633v1.853h-3.633L230.979,22.212L230.979,22.212z"/>
      <path class="st9"
            d="M240.508,22.359c-1.318,0-2.349-0.363-3.091-1.092c-0.742-0.727-1.113-1.758-1.113-3.09    c0-1.372,0.343-2.434,1.029-3.183c0.686-0.75,1.634-1.124,2.845-1.124c1.157,0,2.059,0.329,2.703,0.988s0.967,1.57,0.967,2.732    v1.084h-5.281c0.024,0.635,0.213,1.13,0.564,1.486s0.845,0.535,1.479,0.535c0.493,0,0.959-0.052,1.398-0.154    s0.898-0.266,1.377-0.49v1.729c-0.391,0.195-0.808,0.34-1.252,0.436C241.689,22.311,241.147,22.359,240.508,22.359z     M240.192,15.459c-0.474,0-0.845,0.15-1.113,0.45c-0.269,0.301-0.422,0.727-0.461,1.278h3.135    c-0.01-0.552-0.154-0.978-0.433-1.278C241.042,15.61,240.666,15.459,240.192,15.459z"/>
      <path class="st9"
            d="M251.377,19.78c0,0.84-0.292,1.479-0.875,1.919c-0.584,0.439-1.457,0.659-2.619,0.659    c-0.596,0-1.104-0.04-1.523-0.121c-0.42-0.08-0.812-0.198-1.179-0.355v-1.846c0.415,0.196,0.883,0.359,1.402,0.491    c0.521,0.132,0.978,0.198,1.373,0.198c0.811,0,1.216-0.234,1.216-0.703c0-0.176-0.054-0.319-0.161-0.429s-0.293-0.234-0.557-0.374    c-0.264-0.139-0.615-0.301-1.055-0.486c-0.63-0.264-1.093-0.508-1.388-0.732c-0.296-0.225-0.511-0.482-0.645-0.773    c-0.135-0.29-0.201-0.648-0.201-1.072c0-0.728,0.282-1.291,0.846-1.688c0.564-0.398,1.363-0.597,2.398-0.597    c0.986,0,1.946,0.215,2.879,0.645l-0.674,1.611c-0.41-0.176-0.794-0.32-1.15-0.433s-0.72-0.169-1.091-0.169    c-0.659,0-0.989,0.179-0.989,0.535c0,0.2,0.106,0.373,0.319,0.52c0.212,0.146,0.677,0.364,1.395,0.652    c0.64,0.259,1.108,0.501,1.406,0.725c0.298,0.226,0.518,0.484,0.659,0.777S251.377,19.375,251.377,19.78z"/>
      <path class="st9"
            d="M256.569,20.579c0.391,0,0.859-0.086,1.406-0.257v1.663c-0.557,0.248-1.24,0.373-2.051,0.373    c-0.894,0-1.544-0.226-1.951-0.678c-0.408-0.451-0.612-1.129-0.612-2.032V15.7h-1.069v-0.944l1.23-0.747l0.645-1.729h1.429v1.743    h2.292V15.7h-2.292v3.948c0,0.317,0.089,0.552,0.268,0.703C256.041,20.503,256.276,20.579,256.569,20.579z"/>
      <path class="st9"
            d="M266.758,14.024v1.136l-1.282,0.329c0.234,0.366,0.352,0.776,0.352,1.23c0,0.879-0.307,1.563-0.919,2.055    c-0.613,0.49-1.464,0.735-2.553,0.735l-0.402-0.021l-0.33-0.037c-0.229,0.176-0.344,0.372-0.344,0.586    c0,0.322,0.41,0.484,1.23,0.484h1.392c0.898,0,1.583,0.192,2.054,0.578c0.472,0.386,0.707,0.952,0.707,1.699    c0,0.957-0.399,1.699-1.197,2.227c-0.799,0.527-1.944,0.791-3.438,0.791c-1.143,0-2.016-0.199-2.619-0.597    s-0.904-0.956-0.904-1.674c0-0.493,0.154-0.906,0.462-1.237c0.308-0.332,0.759-0.569,1.354-0.711    c-0.229-0.098-0.43-0.258-0.601-0.479c-0.171-0.223-0.256-0.458-0.256-0.707c0-0.312,0.09-0.572,0.271-0.78    c0.181-0.207,0.442-0.411,0.784-0.611c-0.43-0.186-0.771-0.483-1.022-0.894c-0.251-0.41-0.377-0.894-0.377-1.45    c0-0.894,0.291-1.584,0.872-2.072s1.411-0.732,2.49-0.732c0.229,0,0.501,0.021,0.816,0.062c0.314,0.042,0.517,0.072,0.604,0.092    h2.856V14.024z M260.437,23.369c0,0.308,0.147,0.55,0.443,0.726c0.295,0.176,0.709,0.264,1.241,0.264    c0.801,0,1.429-0.11,1.883-0.33s0.681-0.52,0.681-0.9c0-0.309-0.134-0.521-0.402-0.638s-0.684-0.176-1.245-0.176h-1.157    c-0.41,0-0.754,0.097-1.029,0.289C260.574,22.797,260.437,23.052,260.437,23.369z M261.25,16.704c0,0.444,0.101,0.796,0.304,1.055    c0.202,0.259,0.512,0.389,0.927,0.389c0.42,0,0.728-0.13,0.923-0.389s0.293-0.61,0.293-1.055c0-0.986-0.405-1.479-1.216-1.479    C261.66,15.225,261.25,15.718,261.25,16.704z"/>
      <path class="st9"
            d="M271.812,22.359c-1.318,0-2.349-0.363-3.091-1.092c-0.742-0.727-1.113-1.758-1.113-3.09    c0-1.372,0.343-2.434,1.029-3.183c0.686-0.75,1.634-1.124,2.845-1.124c1.157,0,2.059,0.329,2.703,0.988s0.967,1.57,0.967,2.732    v1.084h-5.281c0.024,0.635,0.213,1.13,0.564,1.486s0.845,0.535,1.479,0.535c0.493,0,0.959-0.052,1.398-0.154    s0.898-0.266,1.377-0.49v1.729c-0.391,0.195-0.808,0.34-1.252,0.436C272.993,22.311,272.451,22.359,271.812,22.359z     M271.496,15.459c-0.474,0-0.845,0.15-1.113,0.45c-0.269,0.301-0.422,0.727-0.461,1.278h3.135    c-0.01-0.552-0.154-0.978-0.433-1.278C272.346,15.61,271.97,15.459,271.496,15.459z"/>
      <path class="st9" d="M279.201,22.212h-2.233V10.816h2.233V22.212z"/>
      <path class="st9"
            d="M284.138,22.359c-0.962,0-1.718-0.373-2.267-1.121c-0.55-0.746-0.824-1.781-0.824-3.105    c0-1.342,0.279-2.389,0.839-3.138c0.559-0.75,1.329-1.124,2.311-1.124c1.03,0,1.816,0.4,2.358,1.201h0.073    c-0.112-0.61-0.168-1.155-0.168-1.634v-2.622h2.241v11.396h-1.714l-0.433-1.062h-0.095    C285.952,21.956,285.178,22.359,284.138,22.359z M284.922,20.579c0.571,0,0.989-0.166,1.256-0.498    c0.266-0.332,0.411-0.896,0.436-1.692v-0.241c0-0.879-0.136-1.51-0.406-1.891c-0.271-0.381-0.712-0.57-1.322-0.57    c-0.498,0-0.885,0.211-1.161,0.633c-0.275,0.423-0.413,1.037-0.413,1.842c0,0.807,0.139,1.41,0.417,1.813    C284.006,20.377,284.404,20.579,284.922,20.579z"/>
	</g>
    <line class="st8" x1="8.944" y1="29.69" x2="8.944" y2="341.952"/>
    <line class="st8" x1="310.745" y1="29.69" x2="310.745" y2="341.952"/>
</g>
  <g id="Logo">
</g>
</svg>
