<svg xmlns="http://www.w3.org/2000/svg" version="1.1" baseProfile="basic" x="0px" y="0px" width="750px" height="440px"
     viewBox="0 0 750 440" xml:space="preserve">
<style type="text/css">
	.st0 {
    fill: none;
  }

  .st1 {
    fill: #F3F7FC;
  }

  .st2 {
    fill: #A1C4E7;
  }

  .st3 {
    fill: #E8F0F9;
  }

  .st4 {
    fill: none;
    stroke: #F3F7FC;
    stroke-width: 0;
    stroke-linecap: round;
    stroke-linejoin: round;
  }

  .st5 {
    fill: #FFFFFF;
  }

  .st6 {
    fill: none;
    stroke: #D7D7D7;
    stroke-width: 0.5;
    stroke-linecap: round;
    stroke-linejoin: round;
    stroke-miterlimit: 10;
  }

  .st7 {
    fill: #D0E2F3;
  }

  .st8 {
    fill: none;
    stroke: #004B8C;
    stroke-linecap: round;
    stroke-linejoin: round;
    stroke-miterlimit: 10;
  }

  .st9 {
    fill: #FFFFFF;
    stroke: #004B8C;
    stroke-miterlimit: 10;
  }

  .st10 {
    fill: none;
    stroke: #004B8C;
    stroke-linecap: round;
    stroke-miterlimit: 10;
  }

  .st11 {
    fill: none;
    stroke: #004B8C;
    stroke-linecap: round;
    stroke-linejoin: round;
  }

  .st12 {
    fill: #004B8C;
  }

  .st13 {
    fill: none;
    stroke: #004B8C;
    stroke-miterlimit: 10;
  }

  .st14 {
    fill: #FFFFFF;
    stroke: #004B8C;
    stroke-linecap: round;
    stroke-linejoin: round;
    stroke-miterlimit: 10;
  }

  .st15 {
    fill: #E6411A;
  }

  .st16 {
    fill: none;
    stroke: #003554;
    stroke-linecap: round;
    stroke-linejoin: round;
    stroke-miterlimit: 10;
  }

  .st17 {
    fill-rule: evenodd;
    clip-rule: evenodd;
    fill: #FFFFFF;
    stroke: #004B8C;
    stroke-miterlimit: 10;
  }

  .st18 {
    fill-rule: evenodd;
    clip-rule: evenodd;
    fill: none;
    stroke: #004B8C;
    stroke-miterlimit: 10;
  }

  .st19 {
    fill: #003554;
  }

  .st20 {
    fill: none;
    stroke: #D7D7D7;
    stroke-linecap: round;
    stroke-linejoin: round;
    stroke-miterlimit: 10;
  }

  .st21 {
    fill: none;
    stroke: #004B8C;
    stroke-linecap: round;
    stroke-linejoin: round;
    stroke-miterlimit: 10;
    stroke-dasharray: 2, 4;
  }

  .st22 {
    fill: #EEEEEE;
  }

  .st23 {
    fill: #FBDD32;
  }

  .st24 {
    fill: none;
    stroke: #404040;
    stroke-miterlimit: 10;
  }

  .st25 {
    opacity: 0.4;
    fill: url(#SVGID_1_);
  }

  .st26 {
    opacity: 0.4;
    fill: url(#SVGID_2_);
  }

  .st27 {
    opacity: 0.4;
    fill: url(#SVGID_3_);
  }

  .st28 {
    opacity: 0.4;
    fill: url(#SVGID_4_);
  }

  .st29 {
    opacity: 0.4;
    fill: url(#SVGID_5_);
  }

  .st30 {
    fill: none;
    stroke: #D7D7D7;
    stroke-linecap: round;
    stroke-miterlimit: 10;
  }

  .st31 {
    fill: none;
    stroke: #404040;
    stroke-linecap: round;
    stroke-linejoin: round;
    stroke-miterlimit: 10;
  }

  .st32 {
    fill: #D0E2F3;
    stroke: #004B8C;
    stroke-linecap: round;
    stroke-linejoin: round;
    stroke-miterlimit: 10;
  }

  .st33 {
    fill: #004B8C;
    stroke: #004B8C;
    stroke-linecap: round;
    stroke-linejoin: round;
    stroke-miterlimit: 10;
  }

  .st34 {
    fill: #F3F3F3;
  }

  .st35 {
    fill: #3A8DFF;
  }

  .st36 {
    fill: none;
    stroke: #E6411A;
    stroke-linecap: round;
    stroke-linejoin: round;
    stroke-miterlimit: 10;
  }

  .st37 {
    fill: none;
    stroke: #3A8DFF;
    stroke-linecap: round;
    stroke-linejoin: round;
    stroke-miterlimit: 10;
  }

  .st38 {
    fill: none;
    stroke: #BFCCD4;
    stroke-linecap: round;
    stroke-miterlimit: 10;
  }

  .st39 {
    fill: #3A8DFF;
    stroke: #004B8C;
    stroke-linecap: round;
    stroke-linejoin: round;
    stroke-miterlimit: 10;
  }

  .st40 {
    opacity: 0.2;
    fill: #156CC4;
  }

  .st41 {
    fill: #404040;
  }

  .st42 {
    fill: #929292;
  }
</style>
  <g id="Karte">
</g>
  <g id="Grafik">
	<line class="st6" x1="262.457" y1="112.929" x2="262.457" y2="231.588"/>
    <line class="st6" x1="329.213" y1="112.929" x2="329.213" y2="231.588"/>
    <line class="st6" x1="195.339" y1="121.843" x2="195.339" y2="231.588"/>
    <line class="st6" x1="395.969" y1="112.929" x2="395.969" y2="231.588"/>
    <line class="st6" x1="462.724" y1="112.929" x2="462.724" y2="231.588"/>
    <line class="st6" x1="529.48" y1="112.929" x2="529.48" y2="231.588"/>
    <line class="st6" x1="262.457" y1="306.062" x2="262.457" y2="433.305"/>
    <line class="st6" x1="329.213" y1="306.062" x2="329.213" y2="433.305"/>
    <line class="st6" x1="195.339" y1="329.442" x2="195.339" y2="433.305"/>
    <line class="st6" x1="395.969" y1="306.062" x2="395.969" y2="433.305"/>
    <line class="st6" x1="462.724" y1="306.062" x2="462.724" y2="433.305"/>
    <line class="st6" x1="529.48" y1="306.062" x2="529.48" y2="433.305"/>
    <g>
		<line class="st8" x1="302.858" y1="36.862" x2="275.365" y2="36.816"/>
      <polyline class="st8" points="298.562,41.088 302.858,36.862 298.576,32.623   "/>
	</g>
    <g>
		<line class="st8" x1="373.163" y1="215.707" x2="217.089" y2="215.66"/>
      <polyline class="st8" points="368.867,219.933 373.163,215.707 368.881,211.468   "/>
	</g>
    <g>
		<line class="st8" x1="307.163" y1="180.545" x2="217.089" y2="180.499"/>
      <polyline class="st8" points="302.867,184.771 307.163,180.545 302.881,176.306   "/>
	</g>
    <g>
		<line class="st8" x1="241.266" y1="145.384" x2="217.089" y2="145.338"/>
      <polyline class="st8" points="236.971,149.61 241.266,145.384 236.984,141.145   "/>
	</g>
    <g>
		<line class="st8" x1="548.395" y1="215.66" x2="421.764" y2="215.66"/>
	</g>
    <g>
		<line class="st8" x1="505.836" y1="180.545" x2="355.156" y2="180.499"/>
      <polyline class="st8" points="501.54,184.771 505.836,180.545 501.554,176.306   "/>
	</g>
    <g>
		<line class="st8" x1="438.273" y1="145.384" x2="288.548" y2="145.338"/>
      <polyline class="st8" points="433.977,149.61 438.273,145.384 433.991,141.145   "/>
	</g>
    <g>
		<line class="st8" x1="372.658" y1="373.674" x2="217.089" y2="373.628"/>
      <polyline class="st8" points="368.363,377.9 372.658,373.674 368.376,369.435   "/>
	</g>
    <line class="st21" x1="418.277" y1="372.963" x2="560.559" y2="372.963"/>
    <line class="st21" x1="547.762" y1="215.66" x2="560.559" y2="215.66"/>
    <line class="st21" x1="546.344" y1="180.539" x2="560.559" y2="180.539"/>
    <line class="st21" x1="479.728" y1="145.377" x2="560.559" y2="145.377"/>
    <g>
		<rect x="244.389" y="127.796" class="st22" width="38.56" height="35.161"/>
      <rect x="244.389" y="125.127" class="st23" width="38.56" height="2.67"/>
      <line class="st24" x1="244.389" y1="127.796" x2="282.948" y2="127.796"/>
      <line class="st24" x1="244.389" y1="125.125" x2="282.948" y2="125.125"/>
	</g>
    <g>
		<rect x="443.617" y="124.641" class="st23" width="38.56" height="3.151"/>
      <line class="st24" x1="443.617" y1="124.638" x2="482.176" y2="124.638"/>
      <polygon class="st22"
               points="443.617,127.796 443.617,131.744 443.617,162.958 482.176,162.958 482.176,131.744 482.176,127.796       "/>
      <line class="st24" x1="443.617" y1="127.795" x2="482.176" y2="127.795"/>
	</g>
    <g>
		<rect x="310.765" y="162.958" class="st22" width="38.56" height="35.161"/>
      <rect x="310.765" y="160.064" class="st23" width="38.56" height="2.894"/>
      <line class="st24" x1="310.765" y1="160.064" x2="349.324" y2="160.064"/>
      <line class="st24" x1="310.765" y1="162.958" x2="349.324" y2="162.958"/>
	</g>
    <g>
		<rect x="377.141" y="198.119" class="st22" width="38.56" height="35.161"/>
      <rect x="377.141" y="194.831" class="st23" width="38.56" height="3.288"/>
      <line class="st24" x1="377.141" y1="194.831" x2="415.7" y2="194.831"/>
      <line class="st24" x1="377.141" y1="198.119" x2="415.7" y2="198.119"/>
	</g>
    <g>
		<rect x="510.322" y="159.627" class="st23" width="38.56" height="3.33"/>
      <line class="st24" x1="510.322" y1="159.627" x2="548.881" y2="159.627"/>
      <polygon class="st22"
               points="510.322,162.958 510.322,167.197 510.322,198.119 548.881,198.119 548.881,167.197 548.881,162.958       "/>
      <line class="st24" x1="510.322" y1="162.958" x2="548.881" y2="162.958"/>
	</g>
    <g>
		<rect x="376.206" y="33.48" class="st23" width="38.56" height="7.95"/>
      <line class="st24" x1="376.206" y1="33.48" x2="414.766" y2="33.48"/>
	</g>
    <rect x="176.059" y="198.119" class="st22" width="38.56" height="35.161"/>
    <rect x="176.059" y="162.958" class="st22" width="38.56" height="35.161"/>
    <rect x="176.059" y="127.796" class="st22" width="38.56" height="35.161"/>
    <line class="st24" x1="176.059" y1="127.796" x2="214.618" y2="127.796"/>
    <line class="st24" x1="176.059" y1="162.958" x2="214.618" y2="162.958"/>
    <line class="st24" x1="176.059" y1="198.119" x2="214.618" y2="198.119"/>
    <g>
		<rect x="176.059" y="328.406" class="st22" width="38.56" height="105.572"/>
      <line class="st24" x1="176.059" y1="328.406" x2="214.618" y2="328.406"/>
	</g>
    <g>
		<rect x="376.206" y="320.99" class="st23" width="38.56" height="7.365"/>
      <line class="st24" x1="376.206" y1="320.99" x2="414.766" y2="320.99"/>
      <rect x="376.206" y="328.406" class="st22" width="38.56" height="105.572"/>
      <line class="st24" x1="376.206" y1="328.406" x2="414.766" y2="328.406"/>
	</g>
    <rect x="223.52" y="366.674" class="st5" width="96.932" height="14.526"/>
    <rect x="223.52" y="207.88" class="st5" width="97.782" height="14.526"/>
    <rect x="223.52" y="172.703" class="st5" width="45.276" height="14.526"/>
    <rect x="223.52" y="137.53" class="st5" width="8.994" height="14.526"/>
</g>
  <g id="Text">
	<g>
		<path class="st41"
          d="M171.512,51.949c0,3.631-1.405,5.446-4.215,5.446c-0.491,0-0.88-0.042-1.168-0.127V56.36    c0.338,0.11,0.724,0.166,1.155,0.166c1.016,0,1.783-0.314,2.301-0.943c0.518-0.628,0.801-1.592,0.847-2.891h-0.076    c-0.233,0.351-0.542,0.618-0.927,0.803c-0.385,0.184-0.819,0.275-1.301,0.275c-0.821,0-1.473-0.245-1.955-0.736    c-0.482-0.49-0.724-1.176-0.724-2.057c0-0.965,0.27-1.727,0.81-2.285c0.539-0.559,1.249-0.838,2.129-0.838    c0.63,0,1.182,0.162,1.654,0.486c0.472,0.323,0.834,0.795,1.088,1.415S171.512,51.107,171.512,51.949z M168.389,48.756    c-0.605,0-1.073,0.194-1.403,0.584c-0.33,0.389-0.495,0.931-0.495,1.625c0,0.609,0.152,1.088,0.457,1.438    c0.305,0.349,0.768,0.523,1.39,0.523c0.385,0,0.74-0.078,1.063-0.234c0.324-0.157,0.579-0.371,0.765-0.642    s0.279-0.555,0.279-0.851c0-0.444-0.087-0.854-0.26-1.231s-0.416-0.673-0.727-0.889C169.147,48.864,168.791,48.756,168.389,48.756    z"/>
    <path class="st41"
          d="M173.175,56.595c0-0.283,0.064-0.498,0.193-0.645c0.129-0.146,0.314-0.219,0.556-0.219    c0.246,0,0.437,0.073,0.574,0.219c0.138,0.146,0.207,0.361,0.207,0.645c0,0.275-0.07,0.486-0.209,0.635s-0.33,0.222-0.571,0.222    c-0.216,0-0.395-0.066-0.536-0.199C173.246,57.118,173.175,56.9,173.175,56.595z"/>
    <path class="st41"
          d="M182.455,52.616c0,1.604-0.253,2.801-0.758,3.592c-0.506,0.792-1.279,1.188-2.32,1.188    c-0.999,0-1.758-0.405-2.279-1.216s-0.781-1.998-0.781-3.563c0-1.617,0.252-2.816,0.755-3.6s1.271-1.174,2.304-1.174    c1.007,0,1.772,0.408,2.295,1.225C182.194,49.883,182.455,51.067,182.455,52.616z M177.383,52.616c0,1.35,0.159,2.332,0.476,2.948    c0.317,0.615,0.823,0.923,1.517,0.923c0.703,0,1.211-0.312,1.526-0.936c0.315-0.624,0.473-1.604,0.473-2.936    c0-1.334-0.158-2.31-0.473-2.93c-0.315-0.62-0.824-0.93-1.526-0.93c-0.694,0-1.2,0.306-1.517,0.917S177.383,51.265,177.383,52.616    z"/>
    <path class="st41"
          d="M189.888,52.616c0,1.604-0.253,2.801-0.758,3.592c-0.506,0.792-1.279,1.188-2.32,1.188    c-0.999,0-1.758-0.405-2.279-1.216s-0.781-1.998-0.781-3.563c0-1.617,0.252-2.816,0.755-3.6s1.271-1.174,2.304-1.174    c1.007,0,1.772,0.408,2.295,1.225C189.627,49.883,189.888,51.067,189.888,52.616z M184.816,52.616c0,1.35,0.159,2.332,0.476,2.948    c0.317,0.615,0.823,0.923,1.517,0.923c0.703,0,1.211-0.312,1.526-0.936c0.315-0.624,0.473-1.604,0.473-2.936    c0-1.334-0.158-2.31-0.473-2.93c-0.315-0.62-0.824-0.93-1.526-0.93c-0.694,0-1.2,0.306-1.517,0.917S184.816,51.265,184.816,52.616    z"/>
    <path class="st41"
          d="M197.321,52.616c0,1.604-0.253,2.801-0.758,3.592c-0.506,0.792-1.279,1.188-2.32,1.188    c-0.999,0-1.758-0.405-2.279-1.216s-0.781-1.998-0.781-3.563c0-1.617,0.252-2.816,0.755-3.6s1.271-1.174,2.304-1.174    c1.007,0,1.772,0.408,2.295,1.225C197.06,49.883,197.321,51.067,197.321,52.616z M192.25,52.616c0,1.35,0.159,2.332,0.476,2.948    c0.317,0.615,0.823,0.923,1.517,0.923c0.703,0,1.211-0.312,1.526-0.936c0.315-0.624,0.473-1.604,0.473-2.936    c0-1.334-0.158-2.31-0.473-2.93c-0.315-0.62-0.824-0.93-1.526-0.93c-0.694,0-1.2,0.306-1.517,0.917S192.25,51.265,192.25,52.616z"/>
    <path class="st41" d="M207.795,57.268h-5.173v-9.28h5.173v0.958h-4.094v2.99h3.847v0.952h-3.847v3.415h4.094V57.268z"/>
    <path class="st41"
          d="M216.859,47.988v6.005c0,1.058-0.319,1.89-0.958,2.494c-0.639,0.605-1.517,0.908-2.634,0.908    s-1.981-0.305-2.593-0.914c-0.611-0.609-0.917-1.447-0.917-2.514v-5.979h1.079v6.056c0,0.774,0.211,1.369,0.635,1.783    c0.423,0.415,1.045,0.623,1.866,0.623c0.783,0,1.386-0.209,1.809-0.626s0.635-1.015,0.635-1.793v-6.043H216.859z"/>
    <path class="st41"
          d="M220.395,53.408v3.859h-1.079v-9.28h2.545c1.138,0,1.979,0.218,2.523,0.653    c0.543,0.437,0.815,1.092,0.815,1.969c0,1.227-0.622,2.057-1.866,2.488l2.52,4.17h-1.276l-2.247-3.859H220.395z M220.395,52.482    h1.479c0.762,0,1.32-0.151,1.676-0.454s0.533-0.756,0.533-1.361c0-0.613-0.181-1.056-0.543-1.326    c-0.361-0.271-0.942-0.406-1.742-0.406h-1.403V52.482z"/>
    <path class="st41"
          d="M155.988,73.268l-0.673-2.209h-3.383l-0.673,2.209h-2.12l3.275-9.318h2.406l3.288,9.318H155.988z     M154.846,69.408c-0.622-2.002-0.972-3.134-1.05-3.396c-0.079-0.262-0.135-0.469-0.168-0.621c-0.14,0.541-0.54,1.881-1.2,4.018    H154.846z"/>
    <path class="st41"
          d="M165.675,73.268h-1.936v-4.145c0-0.513-0.091-0.896-0.273-1.152s-0.472-0.385-0.87-0.385    c-0.542,0-0.933,0.182-1.174,0.543c-0.241,0.362-0.362,0.962-0.362,1.8v3.339h-1.936v-7.097h1.479l0.26,0.907h0.108    c0.216-0.342,0.513-0.602,0.892-0.777c0.378-0.176,0.809-0.264,1.292-0.264c0.825,0,1.452,0.224,1.879,0.67    s0.641,1.091,0.641,1.934V73.268z"/>
    <path class="st41" d="M169.604,73.268h-1.936v-9.877h1.936V73.268z"/>
    <path class="st41"
          d="M176.142,73.268l-0.375-0.965h-0.051c-0.326,0.41-0.661,0.695-1.006,0.854    c-0.345,0.159-0.794,0.238-1.349,0.238c-0.681,0-1.218-0.194-1.609-0.584c-0.391-0.39-0.587-0.943-0.587-1.663    c0-0.753,0.264-1.309,0.79-1.666c0.527-0.357,1.322-0.556,2.384-0.594l1.231-0.038v-0.311c0-0.72-0.368-1.08-1.104-1.08    c-0.567,0-1.233,0.172-2,0.515l-0.641-1.308c0.817-0.428,1.722-0.641,2.717-0.641c0.952,0,1.682,0.207,2.19,0.621    c0.508,0.415,0.762,1.046,0.762,1.893v4.729H176.142z M175.571,69.98l-0.749,0.025c-0.563,0.017-0.982,0.118-1.257,0.305    s-0.413,0.47-0.413,0.851c0,0.546,0.313,0.818,0.939,0.818c0.449,0,0.807-0.129,1.076-0.387c0.269-0.258,0.403-0.601,0.403-1.028    V69.98z"/>
    <path class="st41"
          d="M185.664,66.171v0.983l-1.111,0.286c0.203,0.317,0.305,0.673,0.305,1.066c0,0.762-0.266,1.355-0.797,1.78    c-0.531,0.426-1.268,0.639-2.212,0.639l-0.349-0.02l-0.286-0.031c-0.199,0.152-0.298,0.321-0.298,0.508    c0,0.279,0.355,0.418,1.066,0.418h1.206c0.779,0,1.372,0.168,1.781,0.502c0.408,0.334,0.612,0.825,0.612,1.473    c0,0.829-0.346,1.473-1.038,1.93c-0.691,0.457-1.685,0.686-2.98,0.686c-0.99,0-1.747-0.173-2.269-0.518    c-0.523-0.345-0.784-0.828-0.784-1.45c0-0.428,0.133-0.785,0.4-1.073c0.267-0.287,0.658-0.492,1.174-0.615    c-0.199-0.085-0.373-0.224-0.521-0.416s-0.222-0.396-0.222-0.612c0-0.271,0.078-0.496,0.235-0.676s0.383-0.356,0.679-0.53    c-0.373-0.161-0.667-0.419-0.885-0.774c-0.218-0.355-0.327-0.774-0.327-1.257c0-0.774,0.252-1.373,0.755-1.797    c0.503-0.423,1.223-0.635,2.158-0.635c0.199,0,0.435,0.019,0.708,0.055c0.273,0.036,0.448,0.062,0.524,0.079H185.664z     M180.186,74.271c0,0.267,0.128,0.476,0.384,0.628c0.256,0.152,0.615,0.229,1.076,0.229c0.694,0,1.238-0.095,1.631-0.285    s0.59-0.451,0.59-0.781c0-0.266-0.116-0.45-0.349-0.552s-0.592-0.152-1.079-0.152h-1.003c-0.355,0-0.653,0.084-0.892,0.251    C180.305,73.775,180.186,73.995,180.186,74.271z M180.89,68.494c0,0.385,0.088,0.689,0.263,0.914    c0.176,0.225,0.443,0.336,0.803,0.336c0.364,0,0.63-0.111,0.8-0.336s0.254-0.529,0.254-0.914c0-0.854-0.351-1.282-1.054-1.282    C181.246,67.212,180.89,67.64,180.89,68.494z"/>
    <path class="st41"
          d="M190.043,73.395c-1.143,0-2.036-0.315-2.679-0.945c-0.643-0.631-0.965-1.523-0.965-2.68    c0-1.188,0.297-2.108,0.892-2.758c0.595-0.649,1.417-0.975,2.466-0.975c1.003,0,1.784,0.286,2.342,0.857s0.838,1.36,0.838,2.367    v0.939h-4.577c0.021,0.551,0.184,0.98,0.489,1.289s0.732,0.463,1.282,0.463c0.427,0,0.832-0.044,1.212-0.133    s0.779-0.23,1.193-0.426v1.498c-0.338,0.17-0.7,0.296-1.085,0.378C191.067,73.354,190.598,73.395,190.043,73.395z M189.771,67.415    c-0.411,0-0.732,0.13-0.965,0.391c-0.233,0.26-0.366,0.629-0.4,1.107h2.717c-0.008-0.479-0.133-0.848-0.375-1.107    C190.507,67.545,190.181,67.415,189.771,67.415z"/>
    <path class="st41"
          d="M199.463,71.16c0,0.728-0.253,1.282-0.759,1.663c-0.505,0.381-1.262,0.571-2.269,0.571    c-0.516,0-0.957-0.035-1.32-0.104c-0.364-0.07-0.705-0.173-1.022-0.308v-1.6c0.36,0.169,0.765,0.311,1.216,0.425    c0.45,0.114,0.847,0.171,1.19,0.171c0.703,0,1.054-0.203,1.054-0.609c0-0.152-0.046-0.275-0.14-0.371    c-0.093-0.095-0.254-0.203-0.482-0.323c-0.229-0.121-0.533-0.262-0.914-0.423c-0.546-0.229-0.947-0.439-1.203-0.635    c-0.256-0.194-0.442-0.417-0.559-0.669c-0.117-0.252-0.175-0.562-0.175-0.931c0-0.63,0.244-1.118,0.733-1.463    c0.488-0.345,1.182-0.518,2.079-0.518c0.855,0,1.687,0.187,2.495,0.559l-0.584,1.396c-0.355-0.152-0.688-0.276-0.997-0.374    s-0.624-0.146-0.946-0.146c-0.571,0-0.857,0.154-0.857,0.463c0,0.174,0.092,0.324,0.276,0.451    c0.185,0.127,0.587,0.314,1.209,0.564c0.554,0.225,0.96,0.434,1.219,0.629c0.258,0.194,0.449,0.418,0.571,0.672    S199.463,70.809,199.463,71.16z"/>
    <path class="st41"
          d="M206.001,73.268l-0.26-0.908h-0.102c-0.208,0.33-0.501,0.586-0.882,0.766s-0.814,0.27-1.301,0.27    c-0.833,0-1.462-0.224-1.885-0.67s-0.635-1.088-0.635-1.926v-4.628h1.936v4.146c0,0.512,0.091,0.896,0.273,1.151    s0.472,0.384,0.87,0.384c0.542,0,0.933-0.181,1.174-0.542c0.241-0.362,0.362-0.962,0.362-1.8v-3.339h1.936v7.097H206.001z"/>
    <path class="st41"
          d="M215.872,73.268h-1.936v-4.145c0-0.513-0.086-0.896-0.257-1.152c-0.172-0.256-0.441-0.385-0.81-0.385    c-0.495,0-0.855,0.183-1.079,0.547c-0.224,0.363-0.336,0.962-0.336,1.796v3.339h-1.936v-7.097h1.479l0.26,0.907h0.108    c0.19-0.325,0.465-0.58,0.825-0.765c0.36-0.184,0.772-0.276,1.238-0.276c1.062,0,1.782,0.348,2.158,1.041h0.171    c0.19-0.33,0.471-0.586,0.841-0.768c0.37-0.182,0.788-0.273,1.253-0.273c0.804,0,1.413,0.207,1.825,0.619    c0.413,0.413,0.619,1.074,0.619,1.984v4.627h-1.942v-4.145c0-0.513-0.086-0.896-0.257-1.152c-0.172-0.256-0.441-0.385-0.81-0.385    c-0.474,0-0.828,0.17-1.063,0.508c-0.234,0.339-0.352,0.877-0.352,1.613V73.268z"/>
    <path class="st41"
          d="M228.637,73.268h-1.936v-4.145c0-0.513-0.086-0.896-0.257-1.152c-0.172-0.256-0.441-0.385-0.81-0.385    c-0.495,0-0.855,0.183-1.079,0.547c-0.224,0.363-0.336,0.962-0.336,1.796v3.339h-1.936v-7.097h1.479l0.26,0.907h0.108    c0.19-0.325,0.465-0.58,0.825-0.765c0.36-0.184,0.772-0.276,1.238-0.276c1.062,0,1.782,0.348,2.158,1.041h0.171    c0.19-0.33,0.471-0.586,0.841-0.768c0.37-0.182,0.788-0.273,1.253-0.273c0.804,0,1.413,0.207,1.825,0.619    c0.413,0.413,0.619,1.074,0.619,1.984v4.627h-1.942v-4.145c0-0.513-0.086-0.896-0.257-1.152c-0.172-0.256-0.441-0.385-0.81-0.385    c-0.474,0-0.828,0.17-1.063,0.508c-0.234,0.339-0.352,0.877-0.352,1.613V73.268z"/>
    <path class="st41"
          d="M238.26,73.395c-1.143,0-2.036-0.315-2.679-0.945c-0.643-0.631-0.965-1.523-0.965-2.68    c0-1.188,0.297-2.108,0.892-2.758c0.595-0.649,1.417-0.975,2.466-0.975c1.003,0,1.784,0.286,2.342,0.857s0.838,1.36,0.838,2.367    v0.939h-4.577c0.021,0.551,0.184,0.98,0.489,1.289s0.732,0.463,1.282,0.463c0.427,0,0.832-0.044,1.212-0.133    s0.779-0.23,1.193-0.426v1.498c-0.338,0.17-0.7,0.296-1.085,0.378C239.284,73.354,238.814,73.395,238.26,73.395z M237.987,67.415    c-0.411,0-0.732,0.13-0.965,0.391c-0.233,0.26-0.366,0.629-0.4,1.107h2.717c-0.008-0.479-0.133-0.848-0.375-1.107    C238.724,67.545,238.398,67.415,237.987,67.415z"/>
    <path class="st41"
          d="M151.503,80.426c0-0.242,0.059-0.418,0.178-0.53s0.267-0.169,0.444-0.169c0.169,0,0.315,0.058,0.438,0.172    s0.184,0.29,0.184,0.527c0,0.236-0.062,0.413-0.184,0.529s-0.269,0.175-0.438,0.175c-0.178,0-0.326-0.059-0.444-0.175    S151.503,80.662,151.503,80.426z M152.646,89.268h-1.054v-6.957h1.054V89.268z"/>
    <path class="st41"
          d="M159.641,89.268v-4.5c0-0.567-0.129-0.99-0.387-1.27s-0.662-0.42-1.212-0.42c-0.728,0-1.261,0.197-1.6,0.591    s-0.508,1.043-0.508,1.948v3.65h-1.054v-6.957h0.857l0.171,0.952h0.051c0.216-0.343,0.519-0.608,0.908-0.797    s0.823-0.282,1.301-0.282c0.838,0,1.468,0.202,1.892,0.606s0.635,1.05,0.635,1.938v4.539H159.641z"/>
    <path class="st41"
          d="M165.392,92.391c-0.402,0-0.728-0.053-0.978-0.158v-0.857c0.292,0.085,0.58,0.127,0.863,0.127    c0.33,0,0.572-0.09,0.727-0.27c0.154-0.18,0.231-0.454,0.231-0.822v-8.1h1.054v8.023C167.29,91.705,166.657,92.391,165.392,92.391    z M166.147,80.426c0-0.242,0.059-0.418,0.178-0.53s0.267-0.169,0.444-0.169c0.169,0,0.315,0.058,0.438,0.172    s0.184,0.29,0.184,0.527c0,0.236-0.062,0.413-0.184,0.529s-0.269,0.175-0.438,0.175c-0.178,0-0.326-0.059-0.444-0.175    S166.147,80.662,166.147,80.426z"/>
    <path class="st41"
          d="M172.463,89.395c-1.028,0-1.84-0.313-2.434-0.939c-0.595-0.626-0.892-1.496-0.892-2.609    c0-1.121,0.276-2.012,0.829-2.672c0.552-0.66,1.293-0.99,2.225-0.99c0.872,0,1.562,0.287,2.069,0.86s0.762,1.329,0.762,2.269    v0.667h-4.792c0.021,0.816,0.228,1.437,0.619,1.86c0.392,0.423,0.943,0.635,1.654,0.635c0.749,0,1.49-0.157,2.222-0.471v0.939    c-0.373,0.161-0.725,0.276-1.057,0.347C173.334,89.36,172.933,89.395,172.463,89.395z M172.178,83.067    c-0.559,0-1.004,0.182-1.336,0.545c-0.333,0.364-0.528,0.868-0.587,1.512h3.637c0-0.665-0.148-1.174-0.444-1.527    S172.728,83.067,172.178,83.067z"/>
    <path class="st41"
          d="M185.463,82.171c0,0.593-0.166,1.077-0.498,1.454c-0.333,0.376-0.803,0.628-1.413,0.755v0.051    c0.745,0.093,1.297,0.33,1.657,0.711s0.54,0.88,0.54,1.498c0,0.885-0.307,1.564-0.92,2.041c-0.614,0.476-1.485,0.714-2.615,0.714    c-0.491,0-0.94-0.037-1.349-0.111c-0.409-0.074-0.805-0.204-1.19-0.391v-1.002c0.402,0.198,0.831,0.35,1.285,0.453    c0.455,0.104,0.886,0.156,1.292,0.156c1.604,0,2.406-0.629,2.406-1.886c0-1.126-0.884-1.688-2.653-1.688h-0.914v-0.908h0.927    c0.724,0,1.297-0.159,1.72-0.479s0.635-0.763,0.635-1.33c0-0.453-0.155-0.809-0.467-1.066c-0.311-0.258-0.733-0.387-1.266-0.387    c-0.406,0-0.789,0.055-1.149,0.164c-0.36,0.11-0.77,0.313-1.231,0.609l-0.533-0.711c0.381-0.3,0.82-0.536,1.317-0.707    c0.497-0.172,1.021-0.258,1.571-0.258c0.901,0,1.602,0.207,2.101,0.619C185.214,80.886,185.463,81.451,185.463,82.171z"/>
    <path class="st41"
          d="M187.476,88.595c0-0.283,0.064-0.498,0.193-0.645c0.129-0.146,0.314-0.219,0.556-0.219    c0.246,0,0.437,0.073,0.574,0.219c0.138,0.146,0.207,0.361,0.207,0.645c0,0.275-0.07,0.486-0.209,0.635s-0.33,0.222-0.571,0.222    c-0.216,0-0.395-0.066-0.536-0.199C187.546,89.118,187.476,88.9,187.476,88.595z"/>
    <path class="st41"
          d="M196.756,84.616c0,1.604-0.253,2.801-0.758,3.592c-0.506,0.792-1.279,1.188-2.32,1.188    c-0.999,0-1.758-0.405-2.279-1.216s-0.781-1.998-0.781-3.563c0-1.617,0.252-2.816,0.755-3.6s1.271-1.174,2.304-1.174    c1.007,0,1.772,0.408,2.295,1.225C196.495,81.883,196.756,83.067,196.756,84.616z M191.684,84.616c0,1.35,0.159,2.332,0.476,2.948    c0.317,0.615,0.823,0.923,1.517,0.923c0.703,0,1.211-0.312,1.526-0.936c0.315-0.624,0.473-1.604,0.473-2.936    c0-1.334-0.158-2.31-0.473-2.93c-0.315-0.62-0.824-0.93-1.526-0.93c-0.694,0-1.2,0.306-1.517,0.917S191.684,83.265,191.684,84.616    z"/>
    <path class="st41"
          d="M204.189,84.616c0,1.604-0.253,2.801-0.758,3.592c-0.506,0.792-1.279,1.188-2.32,1.188    c-0.999,0-1.758-0.405-2.279-1.216s-0.781-1.998-0.781-3.563c0-1.617,0.252-2.816,0.755-3.6s1.271-1.174,2.304-1.174    c1.007,0,1.772,0.408,2.295,1.225C203.928,81.883,204.189,83.067,204.189,84.616z M199.117,84.616c0,1.35,0.159,2.332,0.476,2.948    c0.317,0.615,0.823,0.923,1.517,0.923c0.703,0,1.211-0.312,1.526-0.936c0.315-0.624,0.473-1.604,0.473-2.936    c0-1.334-0.158-2.31-0.473-2.93c-0.315-0.62-0.824-0.93-1.526-0.93c-0.694,0-1.2,0.306-1.517,0.917S199.117,83.265,199.117,84.616    z"/>
    <path class="st41"
          d="M211.622,84.616c0,1.604-0.253,2.801-0.758,3.592c-0.506,0.792-1.279,1.188-2.32,1.188    c-0.999,0-1.758-0.405-2.279-1.216s-0.781-1.998-0.781-3.563c0-1.617,0.252-2.816,0.755-3.6s1.271-1.174,2.304-1.174    c1.007,0,1.772,0.408,2.295,1.225C211.361,81.883,211.622,83.067,211.622,84.616z M206.55,84.616c0,1.35,0.159,2.332,0.476,2.948    c0.317,0.615,0.823,0.923,1.517,0.923c0.703,0,1.211-0.312,1.526-0.936c0.315-0.624,0.473-1.604,0.473-2.936    c0-1.334-0.158-2.31-0.473-2.93c-0.315-0.62-0.824-0.93-1.526-0.93c-0.694,0-1.2,0.306-1.517,0.917S206.55,83.265,206.55,84.616z"/>
    <path class="st41" d="M222.096,89.268h-5.173v-9.28h5.173v0.958h-4.094v2.99h3.847v0.952h-3.847v3.415h4.094V89.268z"/>
    <path class="st41"
          d="M231.16,79.988v6.005c0,1.058-0.319,1.89-0.958,2.494c-0.639,0.605-1.517,0.908-2.634,0.908    s-1.981-0.305-2.593-0.914c-0.611-0.609-0.917-1.447-0.917-2.514v-5.979h1.079v6.056c0,0.774,0.211,1.369,0.635,1.783    c0.423,0.415,1.045,0.623,1.866,0.623c0.783,0,1.386-0.209,1.809-0.626s0.635-1.015,0.635-1.793v-6.043H231.16z"/>
    <path class="st41"
          d="M234.696,85.408v3.859h-1.079v-9.28h2.545c1.138,0,1.979,0.218,2.523,0.653    c0.543,0.437,0.815,1.092,0.815,1.969c0,1.227-0.622,2.057-1.866,2.488l2.52,4.17h-1.276l-2.247-3.859H234.696z M234.696,84.482    h1.479c0.762,0,1.32-0.151,1.676-0.454s0.533-0.756,0.533-1.361c0-0.613-0.181-1.056-0.543-1.326    c-0.361-0.271-0.942-0.406-1.742-0.406h-1.403V84.482z"/>
    <path class="st41"
          d="M169.861,105.268l-0.26-0.908h-0.102c-0.208,0.33-0.501,0.586-0.882,0.766s-0.814,0.27-1.301,0.27    c-0.833,0-1.462-0.224-1.885-0.67s-0.635-1.088-0.635-1.926v-4.628h1.936v4.146c0,0.512,0.091,0.896,0.273,1.151    s0.472,0.384,0.87,0.384c0.542,0,0.933-0.181,1.174-0.542c0.241-0.362,0.362-0.962,0.362-1.8v-3.339h1.936v7.097H169.861z"/>
    <path class="st41"
          d="M179.928,105.268h-1.936v-4.145c0-0.513-0.091-0.896-0.273-1.152s-0.472-0.385-0.87-0.385    c-0.542,0-0.933,0.182-1.174,0.543c-0.241,0.362-0.362,0.962-0.362,1.8v3.339h-1.936v-7.097h1.479l0.26,0.907h0.108    c0.216-0.342,0.513-0.602,0.892-0.777c0.378-0.176,0.809-0.264,1.292-0.264c0.825,0,1.452,0.224,1.879,0.67    s0.641,1.091,0.641,1.934V105.268z"/>
    <path class="st41"
          d="M184.911,103.852c0.338,0,0.745-0.073,1.219-0.222v1.44c-0.482,0.217-1.075,0.324-1.777,0.324    c-0.774,0-1.338-0.195-1.692-0.587c-0.353-0.392-0.53-0.979-0.53-1.762v-3.421h-0.927v-0.819l1.066-0.647l0.559-1.498h1.238v1.511    h1.987v1.454h-1.987v3.421c0,0.275,0.077,0.479,0.231,0.609C184.453,103.786,184.657,103.852,184.911,103.852z"/>
    <path class="st41"
          d="M190.776,105.395c-1.143,0-2.036-0.315-2.679-0.945c-0.643-0.631-0.965-1.523-0.965-2.68    c0-1.188,0.297-2.108,0.892-2.758c0.595-0.649,1.417-0.975,2.466-0.975c1.003,0,1.784,0.286,2.342,0.857s0.838,1.36,0.838,2.367    v0.939h-4.577c0.021,0.551,0.184,0.98,0.489,1.289s0.732,0.463,1.282,0.463c0.427,0,0.832-0.044,1.212-0.133    s0.779-0.23,1.193-0.426v1.498c-0.338,0.17-0.7,0.296-1.085,0.378C191.8,105.354,191.331,105.395,190.776,105.395z     M190.503,99.415c-0.411,0-0.732,0.13-0.965,0.391c-0.233,0.26-0.366,0.629-0.4,1.107h2.717c-0.008-0.479-0.133-0.848-0.375-1.107    C191.24,99.545,190.914,99.415,190.503,99.415z"/>
    <path class="st41"
          d="M199.206,98.037c0.262,0,0.48,0.02,0.654,0.058l-0.146,1.815c-0.157-0.042-0.347-0.063-0.571-0.063    c-0.618,0-1.099,0.159-1.444,0.476c-0.345,0.318-0.517,0.762-0.517,1.334v3.611h-1.936v-7.097h1.466l0.286,1.193h0.095    c0.22-0.397,0.517-0.719,0.892-0.962C198.358,98.159,198.766,98.037,199.206,98.037z"/>
    <path class="st41"
          d="M204.138,103.852c0.338,0,0.745-0.073,1.219-0.222v1.44c-0.482,0.217-1.075,0.324-1.777,0.324    c-0.774,0-1.338-0.195-1.692-0.587c-0.353-0.392-0.53-0.979-0.53-1.762v-3.421h-0.927v-0.819l1.066-0.647l0.559-1.498h1.238v1.511    h1.987v1.454h-1.987v3.421c0,0.275,0.077,0.479,0.231,0.609C203.68,103.786,203.884,103.852,204.138,103.852z"/>
    <path class="st41"
          d="M210.003,105.395c-1.143,0-2.036-0.315-2.679-0.945c-0.643-0.631-0.965-1.523-0.965-2.68    c0-1.188,0.297-2.108,0.892-2.758c0.595-0.649,1.417-0.975,2.466-0.975c1.003,0,1.784,0.286,2.342,0.857s0.838,1.36,0.838,2.367    v0.939h-4.577c0.021,0.551,0.184,0.98,0.489,1.289s0.732,0.463,1.282,0.463c0.427,0,0.832-0.044,1.212-0.133    s0.779-0.23,1.193-0.426v1.498c-0.338,0.17-0.7,0.296-1.085,0.378C211.027,105.354,210.558,105.395,210.003,105.395z     M209.73,99.415c-0.411,0-0.732,0.13-0.965,0.391c-0.233,0.26-0.366,0.629-0.4,1.107h2.717c-0.008-0.479-0.133-0.848-0.375-1.107    C210.467,99.545,210.141,99.415,209.73,99.415z"/>
    <path class="st41"
          d="M214.39,96.336c0-0.63,0.351-0.945,1.054-0.945s1.054,0.315,1.054,0.945c0,0.301-0.088,0.535-0.263,0.702    c-0.176,0.167-0.439,0.251-0.791,0.251C214.741,97.289,214.39,96.971,214.39,96.336z M216.408,105.268h-1.936v-7.097h1.936    V105.268z"/>
    <path class="st41" d="M220.375,105.268h-1.936v-9.877h1.936V105.268z"/>
    <path class="st41"
          d="M225.396,103.852c0.338,0,0.745-0.073,1.219-0.222v1.44c-0.482,0.217-1.075,0.324-1.777,0.324    c-0.774,0-1.338-0.195-1.692-0.587c-0.353-0.392-0.53-0.979-0.53-1.762v-3.421h-0.927v-0.819l1.066-0.647l0.559-1.498h1.238v1.511    h1.987v1.454h-1.987v3.421c0,0.275,0.077,0.479,0.231,0.609C224.938,103.786,225.143,103.852,225.396,103.852z"/>
	</g>
    <g>
		<path class="st12" d="M310.205,41.556v-9.28h1.079v8.303h4.094v0.978H310.205z"/>
      <path class="st12"
            d="M321.072,41.556l-0.209-0.99h-0.051c-0.347,0.436-0.693,0.731-1.038,0.886    c-0.345,0.154-0.776,0.231-1.292,0.231c-0.69,0-1.23-0.178-1.622-0.533c-0.391-0.355-0.587-0.861-0.587-1.518    c0-1.404,1.124-2.141,3.371-2.209l1.181-0.037v-0.432c0-0.547-0.118-0.949-0.352-1.21c-0.235-0.26-0.611-0.39-1.127-0.39    c-0.58,0-1.236,0.178-1.968,0.533l-0.324-0.807c0.343-0.187,0.718-0.332,1.126-0.438c0.409-0.106,0.818-0.159,1.229-0.159    c0.83,0,1.444,0.185,1.844,0.552c0.4,0.369,0.6,0.959,0.6,1.771v4.748H321.072z M318.691,40.814c0.656,0,1.171-0.181,1.545-0.54    c0.375-0.359,0.562-0.863,0.562-1.511v-0.629l-1.054,0.045c-0.838,0.029-1.442,0.16-1.812,0.391    c-0.371,0.23-0.556,0.589-0.556,1.076c0,0.381,0.115,0.67,0.346,0.869C317.954,40.714,318.277,40.814,318.691,40.814z"/>
      <path class="st12"
            d="M325.014,34.599v4.514c0,0.566,0.129,0.99,0.387,1.27s0.662,0.418,1.212,0.418    c0.728,0,1.26-0.198,1.597-0.596c0.336-0.398,0.504-1.048,0.504-1.949v-3.656h1.054v6.957h-0.87l-0.152-0.934h-0.057    c-0.216,0.344-0.515,0.605-0.898,0.787c-0.383,0.183-0.82,0.273-1.311,0.273c-0.846,0-1.48-0.201-1.901-0.604    c-0.421-0.401-0.632-1.045-0.632-1.93v-4.551H325.014z"/>
      <path class="st12"
            d="M335.138,35.417h-1.771v6.139h-1.054v-6.139h-1.244v-0.476l1.244-0.381v-0.388    c0-1.709,0.747-2.564,2.241-2.564c0.368,0,0.8,0.074,1.295,0.223l-0.273,0.844c-0.406-0.131-0.753-0.196-1.041-0.196    c-0.398,0-0.692,0.132-0.882,0.396s-0.286,0.688-0.286,1.272v0.451h1.771V35.417z"/>
      <path class="st12"
            d="M340.857,41.556h-5.046v-0.717l3.796-5.422h-3.561v-0.818h4.716v0.818l-3.745,5.32h3.84V41.556z"/>
      <path class="st12"
            d="M345.428,41.683c-1.028,0-1.84-0.313-2.434-0.939c-0.595-0.626-0.892-1.496-0.892-2.609    c0-1.121,0.276-2.012,0.829-2.672c0.552-0.66,1.293-0.99,2.225-0.99c0.872,0,1.562,0.287,2.069,0.86s0.762,1.329,0.762,2.269    v0.667h-4.792c0.021,0.816,0.228,1.437,0.619,1.86c0.392,0.423,0.943,0.635,1.654,0.635c0.749,0,1.49-0.157,2.222-0.471v0.939    c-0.373,0.161-0.725,0.276-1.057,0.347C346.298,41.648,345.897,41.683,345.428,41.683z M345.142,35.355    c-0.559,0-1.004,0.182-1.336,0.545c-0.333,0.364-0.528,0.868-0.587,1.512h3.637c0-0.665-0.148-1.174-0.444-1.527    S345.692,35.355,345.142,35.355z"/>
      <path class="st12"
            d="M349.693,32.714c0-0.242,0.059-0.418,0.178-0.53s0.267-0.169,0.444-0.169c0.169,0,0.315,0.058,0.438,0.172    s0.184,0.29,0.184,0.527c0,0.236-0.062,0.413-0.184,0.529s-0.269,0.175-0.438,0.175c-0.178,0-0.326-0.059-0.444-0.175    S349.693,32.95,349.693,32.714z M350.836,41.556h-1.054v-6.957h1.054V41.556z"/>
      <path class="st12"
            d="M355.317,40.814c0.186,0,0.366-0.015,0.54-0.042s0.311-0.056,0.413-0.085v0.806    c-0.114,0.055-0.282,0.101-0.505,0.137c-0.222,0.036-0.422,0.054-0.6,0.054c-1.346,0-2.019-0.709-2.019-2.127v-4.139h-0.997    v-0.508l0.997-0.438l0.444-1.485h0.609v1.612h2.019v0.818H354.2v4.095c0,0.419,0.1,0.74,0.298,0.965S354.97,40.814,355.317,40.814    z"/>
	</g>
    <g>
		<path class="st41"
          d="M429.762,41.557h-6.38v-0.844l4.926-7.465h-4.773v-0.972h6.088v0.845l-4.926,7.458h5.065V41.557z"/>
      <path class="st41"
            d="M431.311,32.715c0-0.242,0.059-0.418,0.178-0.53c0.118-0.112,0.267-0.169,0.444-0.169    c0.169,0,0.315,0.058,0.438,0.172c0.123,0.114,0.185,0.29,0.185,0.527c0,0.236-0.062,0.413-0.185,0.529    c-0.122,0.116-0.269,0.175-0.438,0.175c-0.178,0-0.326-0.059-0.444-0.175C431.369,33.128,431.311,32.951,431.311,32.715z     M432.453,41.557h-1.054V34.6h1.054V41.557z"/>
      <path class="st41"
            d="M439.448,41.557v-4.5c0-0.567-0.129-0.99-0.388-1.27c-0.258-0.279-0.662-0.42-1.212-0.42    c-0.729,0-1.262,0.197-1.6,0.591c-0.339,0.394-0.508,1.043-0.508,1.948v3.65h-1.054V34.6h0.856l0.172,0.952h0.051    c0.216-0.343,0.519-0.608,0.907-0.797c0.39-0.188,0.823-0.282,1.302-0.282c0.838,0,1.468,0.202,1.892,0.606    c0.423,0.404,0.635,1.05,0.635,1.938v4.539H439.448z"/>
      <path class="st41"
            d="M447.154,39.658c0,0.648-0.241,1.147-0.724,1.498c-0.482,0.352-1.16,0.527-2.031,0.527    c-0.923,0-1.643-0.146-2.158-0.438v-0.979c0.334,0.17,0.692,0.303,1.075,0.4c0.384,0.098,0.753,0.146,1.108,0.146    c0.55,0,0.973-0.088,1.27-0.264c0.296-0.176,0.444-0.443,0.444-0.803c0-0.271-0.118-0.503-0.353-0.695    c-0.235-0.192-0.693-0.42-1.374-0.683c-0.647-0.241-1.108-0.452-1.381-0.632c-0.273-0.18-0.477-0.384-0.609-0.612    c-0.134-0.229-0.2-0.501-0.2-0.819c0-0.566,0.23-1.014,0.692-1.342c0.461-0.328,1.094-0.492,1.897-0.492    c0.749,0,1.481,0.152,2.196,0.457l-0.374,0.857c-0.698-0.288-1.331-0.432-1.898-0.432c-0.499,0-0.876,0.078-1.13,0.234    s-0.381,0.372-0.381,0.647c0,0.187,0.048,0.345,0.143,0.476c0.096,0.132,0.249,0.257,0.461,0.375    c0.211,0.118,0.617,0.29,1.219,0.514c0.825,0.301,1.383,0.604,1.672,0.908C447.009,38.815,447.154,39.198,447.154,39.658z"/>
      <path class="st41"
            d="M451.807,41.684c-1.028,0-1.84-0.313-2.434-0.939c-0.595-0.626-0.893-1.496-0.893-2.609    c0-1.121,0.276-2.012,0.829-2.672c0.552-0.66,1.293-0.99,2.225-0.99c0.871,0,1.562,0.287,2.069,0.86s0.762,1.329,0.762,2.269    v0.667h-4.793c0.021,0.816,0.228,1.437,0.619,1.86c0.392,0.423,0.942,0.635,1.653,0.635c0.749,0,1.49-0.157,2.222-0.471v0.939    c-0.372,0.161-0.725,0.276-1.057,0.347C452.678,41.649,452.276,41.684,451.807,41.684z M451.521,35.356    c-0.559,0-1.004,0.182-1.336,0.545c-0.333,0.364-0.528,0.868-0.588,1.512h3.638c0-0.665-0.148-1.174-0.444-1.527    C452.494,35.532,452.071,35.356,451.521,35.356z"/>
      <path class="st41"
            d="M460.922,41.557v-4.5c0-0.567-0.129-0.99-0.387-1.27c-0.259-0.279-0.662-0.42-1.213-0.42    c-0.728,0-1.261,0.197-1.6,0.591c-0.338,0.394-0.508,1.043-0.508,1.948v3.65h-1.054V34.6h0.857l0.171,0.952h0.051    c0.216-0.343,0.519-0.608,0.908-0.797c0.389-0.188,0.823-0.282,1.301-0.282c0.838,0,1.469,0.202,1.892,0.606    c0.424,0.404,0.635,1.05,0.635,1.938v4.539H460.922z"/>
	</g>
    <g>
		<path class="st41" d="M314.878,18.42h-2.271V9.602H309.7v-1.89h8.086v1.89h-2.908V18.42z"/>
      <path class="st41"
            d="M323.829,10.078c0.303,0,0.554,0.021,0.754,0.065l-0.168,2.095c-0.181-0.049-0.4-0.073-0.659-0.073    c-0.713,0-1.269,0.183-1.666,0.55c-0.398,0.365-0.597,0.879-0.597,1.537v4.168h-2.234v-8.188h1.692l0.33,1.377h0.11    c0.254-0.459,0.597-0.829,1.029-1.109C322.851,10.218,323.321,10.078,323.829,10.078z"/>
      <path class="st41"
            d="M329.776,18.567c-1.318,0-2.349-0.363-3.091-1.092c-0.742-0.727-1.113-1.758-1.113-3.09    c0-1.372,0.343-2.434,1.029-3.183c0.686-0.75,1.634-1.124,2.845-1.124c1.157,0,2.058,0.329,2.703,0.988s0.967,1.57,0.967,2.732    v1.084h-5.281c0.024,0.635,0.212,1.13,0.564,1.486s0.845,0.535,1.479,0.535c0.493,0,0.959-0.052,1.399-0.154    s0.898-0.266,1.377-0.49v1.729c-0.391,0.195-0.808,0.34-1.252,0.436C330.958,18.519,330.416,18.567,329.776,18.567z     M329.461,11.667c-0.474,0-0.845,0.15-1.113,0.45c-0.269,0.301-0.422,0.727-0.461,1.278h3.135    c-0.01-0.552-0.154-0.978-0.432-1.278C330.311,11.818,329.935,11.667,329.461,11.667z"/>
      <path class="st41"
            d="M339.429,18.567c-0.962,0-1.716-0.349-2.263-1.047h-0.117c0.078,0.684,0.117,1.078,0.117,1.186v3.318h-2.234    V10.232h1.816l0.315,1.062h0.103c0.522-0.81,1.296-1.215,2.322-1.215c0.967,0,1.724,0.373,2.271,1.12s0.82,1.785,0.82,3.112    c0,0.875-0.128,1.634-0.385,2.278c-0.256,0.645-0.621,1.136-1.095,1.472C340.625,18.399,340.069,18.567,339.429,18.567z     M338.77,11.866c-0.552,0-0.955,0.169-1.208,0.509c-0.254,0.339-0.386,0.899-0.396,1.681v0.242c0,0.879,0.13,1.508,0.392,1.889    c0.261,0.381,0.675,0.572,1.241,0.572c1.001,0,1.501-0.825,1.501-2.477c0-0.805-0.124-1.409-0.37-1.812    C339.684,12.067,339.297,11.866,338.77,11.866z"/>
      <path class="st41"
            d="M348.921,18.567c-0.962,0-1.716-0.349-2.263-1.047h-0.117c0.078,0.684,0.117,1.078,0.117,1.186v3.318h-2.234    V10.232h1.816l0.315,1.062h0.103c0.522-0.81,1.296-1.215,2.322-1.215c0.967,0,1.724,0.373,2.271,1.12s0.82,1.785,0.82,3.112    c0,0.875-0.128,1.634-0.385,2.278c-0.256,0.645-0.621,1.136-1.095,1.472C350.118,18.399,349.561,18.567,348.921,18.567z     M348.262,11.866c-0.552,0-0.955,0.169-1.208,0.509c-0.254,0.339-0.386,0.899-0.396,1.681v0.242c0,0.879,0.13,1.508,0.392,1.889    c0.261,0.381,0.675,0.572,1.241,0.572c1.001,0,1.501-0.825,1.501-2.477c0-0.805-0.124-1.409-0.37-1.812    C349.176,12.067,348.79,11.866,348.262,11.866z"/>
      <path class="st41"
            d="M357.623,18.567c-1.318,0-2.349-0.363-3.091-1.092c-0.742-0.727-1.113-1.758-1.113-3.09    c0-1.372,0.343-2.434,1.029-3.183c0.686-0.75,1.634-1.124,2.845-1.124c1.157,0,2.058,0.329,2.703,0.988s0.967,1.57,0.967,2.732    v1.084h-5.281c0.024,0.635,0.212,1.13,0.564,1.486s0.845,0.535,1.479,0.535c0.493,0,0.959-0.052,1.399-0.154    s0.898-0.266,1.377-0.49v1.729c-0.391,0.195-0.808,0.34-1.252,0.436C358.804,18.519,358.262,18.567,357.623,18.567z     M357.308,11.667c-0.474,0-0.845,0.15-1.113,0.45c-0.269,0.301-0.422,0.727-0.461,1.278h3.135    c-0.01-0.552-0.154-0.978-0.432-1.278C358.157,11.818,357.781,11.667,357.308,11.667z"/>
      <path class="st41"
            d="M370.337,18.42h-2.234v-4.783c0-0.59-0.105-1.033-0.315-1.329c-0.21-0.295-0.544-0.442-1.003-0.442    c-0.625,0-1.077,0.208-1.355,0.626c-0.278,0.417-0.417,1.109-0.417,2.076v3.853h-2.234v-8.188h1.707l0.3,1.048h0.125    c0.249-0.396,0.592-0.695,1.029-0.897c0.437-0.203,0.934-0.304,1.491-0.304c0.952,0,1.675,0.257,2.168,0.772    c0.493,0.515,0.74,1.259,0.74,2.229V18.42z"/>
      <path class="st41"
            d="M378.35,15.989c0,0.84-0.292,1.479-0.875,1.919c-0.584,0.439-1.457,0.659-2.619,0.659    c-0.596,0-1.104-0.04-1.523-0.121c-0.42-0.08-0.813-0.198-1.179-0.355v-1.846c0.415,0.196,0.883,0.359,1.402,0.491    c0.521,0.132,0.978,0.198,1.374,0.198c0.811,0,1.216-0.234,1.216-0.703c0-0.176-0.054-0.319-0.161-0.429    c-0.107-0.11-0.293-0.234-0.557-0.374c-0.264-0.139-0.615-0.301-1.055-0.486c-0.63-0.264-1.093-0.508-1.388-0.732    s-0.51-0.482-0.645-0.773c-0.134-0.29-0.201-0.648-0.201-1.072c0-0.728,0.282-1.291,0.846-1.688    c0.564-0.398,1.364-0.597,2.399-0.597c0.986,0,1.946,0.215,2.878,0.645l-0.674,1.611c-0.41-0.176-0.793-0.32-1.15-0.433    s-0.72-0.169-1.091-0.169c-0.659,0-0.989,0.179-0.989,0.535c0,0.2,0.106,0.373,0.319,0.52c0.212,0.146,0.677,0.364,1.395,0.652    c0.64,0.259,1.108,0.501,1.406,0.725c0.298,0.226,0.518,0.484,0.659,0.777S378.35,15.583,378.35,15.989z"/>
      <path class="st41"
            d="M383.543,16.787c0.391,0,0.859-0.086,1.406-0.257v1.663c-0.557,0.248-1.24,0.373-2.051,0.373    c-0.894,0-1.544-0.226-1.952-0.678c-0.408-0.451-0.612-1.129-0.612-2.032v-3.948h-1.069v-0.944l1.23-0.747l0.645-1.729h1.428    v1.743h2.292v1.677h-2.292v3.948c0,0.317,0.089,0.552,0.268,0.703C383.014,16.711,383.25,16.787,383.543,16.787z"/>
      <path class="st41"
            d="M391.175,10.078c0.303,0,0.554,0.021,0.754,0.065l-0.168,2.095c-0.181-0.049-0.4-0.073-0.659-0.073    c-0.713,0-1.269,0.183-1.666,0.55c-0.398,0.365-0.597,0.879-0.597,1.537v4.168h-2.234v-8.188h1.692l0.33,1.377h0.11    c0.254-0.459,0.597-0.829,1.029-1.109C390.197,10.218,390.667,10.078,391.175,10.078z"/>
      <path class="st41"
            d="M398.616,18.42l-0.432-1.113h-0.059c-0.376,0.474-0.764,0.802-1.161,0.985    c-0.398,0.183-0.917,0.274-1.557,0.274c-0.786,0-1.405-0.225-1.856-0.674c-0.452-0.449-0.678-1.089-0.678-1.919    c0-0.869,0.304-1.51,0.912-1.923c0.607-0.412,1.524-0.641,2.75-0.685l1.421-0.044v-0.359c0-0.829-0.425-1.244-1.274-1.244    c-0.654,0-1.423,0.197-2.307,0.593l-0.74-1.509c0.942-0.493,1.987-0.74,3.135-0.74c1.099,0,1.941,0.24,2.527,0.719    s0.879,1.206,0.879,2.182v5.457H398.616z M397.957,14.626l-0.864,0.029c-0.649,0.02-1.133,0.137-1.45,0.352    s-0.476,0.542-0.476,0.981c0,0.63,0.361,0.945,1.084,0.945c0.518,0,0.931-0.149,1.242-0.447c0.31-0.298,0.465-0.693,0.465-1.187    V14.626z"/>
      <path class="st41"
            d="M405.926,16.787c0.391,0,0.859-0.086,1.406-0.257v1.663c-0.557,0.248-1.24,0.373-2.051,0.373    c-0.893,0-1.544-0.226-1.951-0.678c-0.408-0.451-0.611-1.129-0.611-2.032v-3.948h-1.07v-0.944l1.23-0.747l0.645-1.729h1.429v1.743    h2.292v1.677h-2.292v3.948c0,0.317,0.089,0.552,0.268,0.703C405.397,16.711,405.633,16.787,405.926,16.787z"/>
      <path class="st41"
            d="M412.694,18.567c-1.318,0-2.349-0.363-3.091-1.092c-0.742-0.727-1.113-1.758-1.113-3.09    c0-1.372,0.343-2.434,1.029-3.183c0.686-0.75,1.634-1.124,2.846-1.124c1.156,0,2.058,0.329,2.702,0.988s0.967,1.57,0.967,2.732    v1.084h-5.28c0.023,0.635,0.212,1.13,0.563,1.486s0.845,0.535,1.479,0.535c0.493,0,0.959-0.052,1.398-0.154    s0.898-0.266,1.377-0.49v1.729c-0.391,0.195-0.808,0.34-1.252,0.436C413.876,18.519,413.334,18.567,412.694,18.567z     M412.379,11.667c-0.474,0-0.845,0.15-1.113,0.45c-0.269,0.301-0.422,0.727-0.461,1.278h3.135    c-0.01-0.552-0.154-0.978-0.432-1.278C413.229,11.818,412.853,11.667,412.379,11.667z"/>
      <path class="st41"
            d="M424.977,10.232v1.136l-1.282,0.329c0.234,0.366,0.352,0.776,0.352,1.23c0,0.879-0.307,1.563-0.919,2.055    c-0.613,0.49-1.464,0.735-2.553,0.735l-0.402-0.021l-0.33-0.037c-0.229,0.176-0.344,0.372-0.344,0.586    c0,0.322,0.41,0.484,1.23,0.484h1.391c0.898,0,1.584,0.192,2.055,0.578c0.472,0.386,0.707,0.952,0.707,1.699    c0,0.957-0.399,1.699-1.197,2.227c-0.799,0.527-1.945,0.791-3.439,0.791c-1.143,0-2.015-0.199-2.618-0.597    c-0.603-0.398-0.904-0.956-0.904-1.674c0-0.493,0.153-0.906,0.462-1.237c0.307-0.332,0.759-0.569,1.354-0.711    c-0.229-0.098-0.43-0.258-0.601-0.479c-0.171-0.223-0.256-0.458-0.256-0.707c0-0.312,0.09-0.572,0.271-0.78    c0.181-0.207,0.441-0.411,0.784-0.611c-0.431-0.186-0.771-0.483-1.022-0.894c-0.251-0.41-0.377-0.894-0.377-1.45    c0-0.894,0.29-1.584,0.872-2.072c0.58-0.488,1.41-0.732,2.49-0.732c0.229,0,0.501,0.021,0.816,0.062    c0.314,0.042,0.516,0.072,0.604,0.092H424.977z M418.655,19.577c0,0.308,0.147,0.55,0.443,0.726    c0.295,0.176,0.709,0.264,1.241,0.264c0.801,0,1.428-0.11,1.883-0.33c0.453-0.22,0.681-0.52,0.681-0.9    c0-0.309-0.135-0.521-0.403-0.638s-0.684-0.176-1.244-0.176h-1.158c-0.41,0-0.753,0.097-1.028,0.289    C418.793,19.005,418.655,19.26,418.655,19.577z M419.469,12.912c0,0.444,0.101,0.796,0.304,1.055    c0.202,0.259,0.511,0.389,0.927,0.389c0.419,0,0.727-0.13,0.922-0.389s0.293-0.61,0.293-1.055c0-0.986-0.405-1.479-1.215-1.479    C419.879,11.433,419.469,11.926,419.469,12.912z"/>
      <path class="st41"
            d="M426.229,8.116c0-0.728,0.405-1.092,1.217-1.092c0.81,0,1.215,0.364,1.215,1.092    c0,0.347-0.101,0.616-0.304,0.809c-0.202,0.193-0.507,0.289-0.911,0.289C426.634,9.213,426.229,8.848,426.229,8.116z     M428.559,18.42h-2.234v-8.188h2.234V18.42z"/>
      <path class="st41"
            d="M434.608,18.567c-1.318,0-2.349-0.363-3.091-1.092c-0.742-0.727-1.113-1.758-1.113-3.09    c0-1.372,0.343-2.434,1.029-3.183c0.686-0.75,1.634-1.124,2.846-1.124c1.156,0,2.058,0.329,2.702,0.988s0.967,1.57,0.967,2.732    v1.084h-5.28c0.023,0.635,0.212,1.13,0.563,1.486s0.845,0.535,1.479,0.535c0.493,0,0.959-0.052,1.398-0.154    s0.898-0.266,1.377-0.49v1.729c-0.391,0.195-0.808,0.34-1.252,0.436C435.79,18.519,435.248,18.567,434.608,18.567z     M434.293,11.667c-0.474,0-0.845,0.15-1.113,0.45c-0.269,0.301-0.422,0.727-0.461,1.278h3.135    c-0.01-0.552-0.154-0.978-0.432-1.278C435.143,11.818,434.767,11.667,434.293,11.667z"/>
	</g>
    <line class="st24" x1="195.352" y1="125.033" x2="195.352" y2="110.435"/>
    <line class="st24" x1="195.352" y1="325.663" x2="195.352" y2="311.065"/>
    <g>
		<path class="st42"
          d="M262.892,105.554h-1.028v-6.615c0-0.55,0.017-1.07,0.051-1.561c-0.089,0.088-0.188,0.182-0.298,0.279    c-0.11,0.097-0.614,0.51-1.511,1.237l-0.559-0.724l2.457-1.898h0.889V105.554z"/>
      <path class="st42"
            d="M269.087,107.997c-0.398,0-0.711-0.057-0.939-0.172v-0.92c0.3,0.084,0.614,0.127,0.939,0.127    c0.419,0,0.737-0.127,0.955-0.381c0.218-0.254,0.327-0.62,0.327-1.098v-9.281h1.079v9.191c0,0.805-0.203,1.428-0.609,1.869    C270.433,107.777,269.849,107.997,269.087,107.997z"/>
      <path class="st42"
            d="M278.031,105.554l-0.209-0.99h-0.051c-0.347,0.436-0.693,0.73-1.038,0.885    c-0.345,0.154-0.776,0.232-1.292,0.232c-0.69,0-1.23-0.178-1.622-0.533c-0.391-0.355-0.587-0.861-0.587-1.518    c0-1.404,1.124-2.141,3.371-2.209l1.181-0.038v-0.432c0-0.546-0.118-0.948-0.352-1.21c-0.235-0.26-0.611-0.39-1.127-0.39    c-0.58,0-1.236,0.178-1.968,0.533l-0.324-0.806c0.343-0.187,0.718-0.332,1.126-0.438c0.409-0.106,0.818-0.159,1.229-0.159    c0.83,0,1.444,0.185,1.844,0.553c0.4,0.368,0.6,0.959,0.6,1.771v4.748H278.031z M275.65,104.811c0.656,0,1.171-0.18,1.545-0.54    c0.375-0.359,0.562-0.863,0.562-1.51v-0.629l-1.054,0.045c-0.838,0.029-1.442,0.159-1.812,0.391    c-0.371,0.23-0.556,0.588-0.556,1.075c0,0.381,0.115,0.671,0.346,0.87C274.913,104.711,275.236,104.811,275.65,104.811z"/>
      <path class="st42"
            d="M285.743,105.554v-4.501c0-0.567-0.129-0.99-0.387-1.27s-0.662-0.419-1.212-0.419    c-0.732,0-1.267,0.199-1.603,0.597c-0.337,0.397-0.505,1.05-0.505,1.955v3.638h-1.054v-9.877h1.054v2.989    c0,0.36-0.017,0.658-0.051,0.896h0.063c0.208-0.335,0.502-0.598,0.886-0.791c0.383-0.192,0.82-0.289,1.311-0.289    c0.851,0,1.488,0.203,1.914,0.607c0.425,0.403,0.638,1.045,0.638,1.926v4.539H285.743z"/>
      <path class="st42"
            d="M292.135,98.47c0.309,0,0.586,0.025,0.832,0.076l-0.146,0.977c-0.288-0.062-0.542-0.095-0.762-0.095    c-0.563,0-1.044,0.229-1.444,0.686c-0.399,0.457-0.6,1.026-0.6,1.708v3.732h-1.054v-6.957h0.87l0.121,1.288h0.051    c0.258-0.452,0.569-0.802,0.933-1.048C291.299,98.592,291.699,98.47,292.135,98.47z"/>
	</g>
    <g>
		<path class="st42"
          d="M332.231,105.554h-6.1v-0.908l2.444-2.457c0.745-0.753,1.236-1.29,1.473-1.611    c0.237-0.322,0.415-0.635,0.533-0.939s0.178-0.633,0.178-0.984c0-0.495-0.15-0.888-0.451-1.178c-0.3-0.289-0.717-0.435-1.25-0.435    c-0.385,0-0.75,0.063-1.095,0.19c-0.345,0.127-0.729,0.357-1.152,0.691l-0.559-0.717c0.855-0.711,1.786-1.066,2.793-1.066    c0.872,0,1.555,0.223,2.05,0.67c0.495,0.446,0.743,1.046,0.743,1.799c0,0.589-0.165,1.17-0.495,1.746s-0.948,1.303-1.854,2.184    l-2.031,1.986v0.051h4.773V105.554z"/>
	</g>
    <g>
		<path class="st42"
          d="M398.638,98.456c0,0.593-0.166,1.078-0.498,1.454s-0.803,0.628-1.413,0.755v0.051    c0.745,0.094,1.297,0.33,1.657,0.711c0.36,0.381,0.54,0.881,0.54,1.498c0,0.885-0.307,1.564-0.921,2.041    c-0.613,0.477-1.485,0.715-2.615,0.715c-0.491,0-0.94-0.037-1.349-0.111c-0.409-0.074-0.805-0.205-1.19-0.391v-1.003    c0.402,0.198,0.831,0.351,1.285,0.454c0.455,0.104,0.886,0.155,1.292,0.155c1.604,0,2.406-0.628,2.406-1.886    c0-1.125-0.885-1.688-2.654-1.688h-0.914v-0.908h0.927c0.724,0,1.297-0.16,1.72-0.479c0.424-0.32,0.635-0.764,0.635-1.33    c0-0.453-0.155-0.809-0.467-1.066c-0.311-0.259-0.733-0.388-1.266-0.388c-0.406,0-0.789,0.056-1.149,0.165    s-0.77,0.312-1.231,0.609l-0.533-0.711c0.381-0.301,0.82-0.537,1.317-0.707c0.497-0.172,1.021-0.258,1.571-0.258    c0.901,0,1.602,0.207,2.101,0.619C398.389,97.171,398.638,97.738,398.638,98.456z"/>
	</g>
    <g>
		<path class="st42"
          d="M466.181,103.421h-1.377v2.133h-1.01v-2.133h-4.513V102.5l4.405-6.278h1.117v6.24h1.377V103.421z     M463.794,102.462v-3.085c0-0.604,0.021-1.288,0.063-2.05h-0.051c-0.203,0.406-0.394,0.742-0.571,1.009l-2.9,4.126H463.794z"/>
	</g>
    <g>
		<path class="st42"
          d="M529.3,99.885c0.978,0,1.746,0.242,2.307,0.728c0.562,0.484,0.842,1.146,0.842,1.989    c0,0.96-0.306,1.714-0.918,2.26c-0.611,0.546-1.454,0.819-2.529,0.819c-1.045,0-1.843-0.168-2.393-0.502v-1.016    c0.296,0.19,0.664,0.34,1.104,0.447c0.439,0.107,0.874,0.162,1.301,0.162c0.745,0,1.323-0.176,1.736-0.527    c0.412-0.351,0.619-0.858,0.619-1.523c0-1.295-0.794-1.941-2.381-1.941c-0.401,0-0.939,0.061-1.612,0.184l-0.546-0.35l0.35-4.342    h4.614v0.972h-3.713l-0.235,2.786C528.333,99.934,528.817,99.885,529.3,99.885z"/>
	</g>
    <g>
		<path class="st12"
          d="M231.263,371.317c0,0.593-0.166,1.077-0.498,1.454c-0.333,0.376-0.803,0.628-1.413,0.755v0.051    c0.745,0.093,1.297,0.33,1.657,0.711s0.54,0.88,0.54,1.498c0,0.885-0.307,1.564-0.92,2.041c-0.614,0.476-1.485,0.714-2.615,0.714    c-0.491,0-0.94-0.037-1.349-0.111c-0.409-0.074-0.805-0.204-1.19-0.391v-1.002c0.402,0.198,0.831,0.35,1.285,0.453    c0.455,0.104,0.886,0.156,1.292,0.156c1.604,0,2.406-0.629,2.406-1.886c0-1.126-0.884-1.688-2.653-1.688h-0.914v-0.908h0.927    c0.724,0,1.297-0.159,1.72-0.479s0.635-0.763,0.635-1.33c0-0.453-0.155-0.809-0.467-1.066c-0.311-0.258-0.733-0.387-1.266-0.387    c-0.406,0-0.789,0.055-1.149,0.164c-0.36,0.11-0.77,0.313-1.231,0.609l-0.533-0.711c0.381-0.3,0.82-0.536,1.317-0.707    c0.497-0.172,1.021-0.258,1.571-0.258c0.901,0,1.602,0.207,2.101,0.619C231.014,370.032,231.263,370.597,231.263,371.317z"/>
      <path class="st12"
            d="M235.611,380.857c-0.398,0-0.711-0.057-0.939-0.171v-0.921c0.3,0.085,0.614,0.127,0.939,0.127    c0.419,0,0.737-0.127,0.955-0.381c0.218-0.254,0.327-0.619,0.327-1.098v-9.28h1.079v9.191c0,0.804-0.203,1.427-0.609,1.869    S236.373,380.857,235.611,380.857z"/>
      <path class="st12"
            d="M244.555,378.413l-0.209-0.99h-0.051c-0.347,0.436-0.693,0.731-1.038,0.886    c-0.345,0.154-0.776,0.231-1.292,0.231c-0.69,0-1.23-0.178-1.622-0.533c-0.391-0.355-0.587-0.861-0.587-1.518    c0-1.404,1.124-2.141,3.371-2.209l1.181-0.037v-0.432c0-0.547-0.118-0.949-0.352-1.21c-0.235-0.26-0.611-0.39-1.127-0.39    c-0.58,0-1.236,0.178-1.968,0.533l-0.324-0.807c0.343-0.187,0.718-0.332,1.126-0.438c0.409-0.106,0.818-0.159,1.229-0.159    c0.83,0,1.444,0.185,1.844,0.552c0.4,0.369,0.6,0.959,0.6,1.771v4.748H244.555z M242.175,377.671c0.656,0,1.171-0.181,1.545-0.54    c0.375-0.359,0.562-0.863,0.562-1.511v-0.629l-1.054,0.045c-0.838,0.029-1.442,0.16-1.812,0.391    c-0.371,0.23-0.556,0.589-0.556,1.076c0,0.381,0.115,0.67,0.346,0.869C241.438,377.572,241.76,377.671,242.175,377.671z"/>
      <path class="st12"
            d="M252.268,378.413v-4.5c0-0.567-0.129-0.99-0.387-1.27s-0.662-0.42-1.212-0.42    c-0.732,0-1.267,0.199-1.603,0.598c-0.337,0.397-0.505,1.049-0.505,1.955v3.637h-1.054v-9.877h1.054v2.99    c0,0.359-0.017,0.657-0.051,0.895h0.063c0.208-0.334,0.502-0.598,0.886-0.79c0.383-0.192,0.82-0.289,1.311-0.289    c0.851,0,1.488,0.202,1.914,0.606c0.425,0.404,0.638,1.046,0.638,1.926v4.539H252.268z"/>
      <path class="st12"
            d="M258.66,371.329c0.309,0,0.586,0.025,0.832,0.076l-0.146,0.978c-0.288-0.063-0.542-0.095-0.762-0.095    c-0.563,0-1.044,0.229-1.444,0.686c-0.399,0.457-0.6,1.025-0.6,1.707v3.732h-1.054v-6.957h0.87l0.121,1.289h0.051    c0.258-0.453,0.569-0.803,0.933-1.048S258.224,371.329,258.66,371.329z"/>
      <path class="st12"
            d="M263.731,378.54c-1.028,0-1.84-0.313-2.434-0.939c-0.595-0.626-0.892-1.496-0.892-2.609    c0-1.121,0.276-2.012,0.829-2.672c0.552-0.66,1.293-0.99,2.225-0.99c0.872,0,1.562,0.287,2.069,0.86s0.762,1.329,0.762,2.269    v0.667h-4.792c0.021,0.816,0.228,1.437,0.619,1.86c0.392,0.423,0.943,0.635,1.654,0.635c0.749,0,1.49-0.157,2.222-0.471v0.939    c-0.373,0.161-0.725,0.276-1.057,0.347C264.602,378.505,264.201,378.54,263.731,378.54z M263.446,372.212    c-0.559,0-1.004,0.182-1.336,0.545c-0.333,0.364-0.528,0.868-0.587,1.512h3.637c0-0.665-0.148-1.174-0.444-1.527    S263.996,372.212,263.446,372.212z"/>
      <path class="st12" d="M271.622,378.413v-9.28h1.079v8.303h4.094v0.978H271.622z"/>
      <path class="st12"
            d="M282.489,378.413l-0.209-0.99h-0.051c-0.347,0.436-0.693,0.731-1.038,0.886    c-0.345,0.154-0.776,0.231-1.292,0.231c-0.69,0-1.23-0.178-1.622-0.533c-0.391-0.355-0.587-0.861-0.587-1.518    c0-1.404,1.124-2.141,3.371-2.209l1.181-0.037v-0.432c0-0.547-0.118-0.949-0.352-1.21c-0.235-0.26-0.611-0.39-1.127-0.39    c-0.58,0-1.236,0.178-1.968,0.533l-0.324-0.807c0.343-0.187,0.718-0.332,1.126-0.438c0.409-0.106,0.818-0.159,1.229-0.159    c0.83,0,1.444,0.185,1.844,0.552c0.4,0.369,0.6,0.959,0.6,1.771v4.748H282.489z M280.108,377.671c0.656,0,1.171-0.181,1.545-0.54    c0.375-0.359,0.562-0.863,0.562-1.511v-0.629l-1.054,0.045c-0.838,0.029-1.442,0.16-1.812,0.391    c-0.371,0.23-0.556,0.589-0.556,1.076c0,0.381,0.115,0.67,0.346,0.869C279.371,377.572,279.694,377.671,280.108,377.671z"/>
      <path class="st12"
            d="M286.431,371.456v4.514c0,0.566,0.129,0.99,0.387,1.27s0.662,0.418,1.212,0.418    c0.728,0,1.26-0.198,1.597-0.596c0.336-0.398,0.504-1.048,0.504-1.949v-3.656h1.054v6.957h-0.87l-0.152-0.934h-0.057    c-0.216,0.344-0.515,0.605-0.898,0.787c-0.383,0.183-0.82,0.273-1.311,0.273c-0.846,0-1.48-0.201-1.901-0.604    c-0.421-0.401-0.632-1.045-0.632-1.93v-4.551H286.431z"/>
      <path class="st12"
            d="M296.555,372.275h-1.771v6.139h-1.054v-6.139h-1.244v-0.476l1.244-0.381v-0.388    c0-1.709,0.747-2.564,2.241-2.564c0.368,0,0.8,0.074,1.295,0.223l-0.273,0.844c-0.406-0.131-0.753-0.196-1.041-0.196    c-0.398,0-0.692,0.132-0.882,0.396s-0.286,0.688-0.286,1.272v0.451h1.771V372.275z"/>
      <path class="st12"
            d="M302.274,378.413h-5.046v-0.717l3.796-5.422h-3.561v-0.818h4.716v0.818l-3.745,5.32h3.84V378.413z"/>
      <path class="st12"
            d="M306.845,378.54c-1.028,0-1.84-0.313-2.434-0.939c-0.595-0.626-0.892-1.496-0.892-2.609    c0-1.121,0.276-2.012,0.829-2.672c0.552-0.66,1.293-0.99,2.225-0.99c0.872,0,1.562,0.287,2.069,0.86s0.762,1.329,0.762,2.269    v0.667h-4.792c0.021,0.816,0.228,1.437,0.619,1.86c0.392,0.423,0.943,0.635,1.654,0.635c0.749,0,1.49-0.157,2.222-0.471v0.939    c-0.373,0.161-0.725,0.276-1.057,0.347C307.715,378.505,307.314,378.54,306.845,378.54z M306.559,372.212    c-0.559,0-1.004,0.182-1.336,0.545c-0.333,0.364-0.528,0.868-0.587,1.512h3.637c0-0.665-0.148-1.174-0.444-1.527    S307.109,372.212,306.559,372.212z"/>
      <path class="st12"
            d="M311.11,369.572c0-0.242,0.059-0.418,0.178-0.53s0.267-0.169,0.444-0.169c0.169,0,0.315,0.058,0.438,0.172    s0.184,0.29,0.184,0.527c0,0.236-0.062,0.413-0.184,0.529s-0.269,0.175-0.438,0.175c-0.178,0-0.326-0.059-0.444-0.175    S311.11,369.808,311.11,369.572z M312.253,378.413h-1.054v-6.957h1.054V378.413z"/>
      <path class="st12"
            d="M316.734,377.671c0.186,0,0.366-0.015,0.54-0.042c0.174-0.027,0.311-0.056,0.412-0.085v0.806    c-0.113,0.055-0.281,0.101-0.504,0.137c-0.222,0.036-0.422,0.054-0.6,0.054c-1.346,0-2.019-0.709-2.019-2.127v-4.139h-0.997    v-0.508l0.997-0.438l0.444-1.485h0.609v1.612h2.018v0.818h-2.018v4.095c0,0.419,0.1,0.74,0.298,0.965    S316.387,377.671,316.734,377.671z"/>
	</g>
    <g>
		<path class="st12"
          d="M231.263,212.522c0,0.593-0.166,1.077-0.498,1.454c-0.333,0.376-0.803,0.628-1.413,0.755v0.051    c0.745,0.093,1.297,0.33,1.657,0.711s0.54,0.88,0.54,1.498c0,0.885-0.307,1.564-0.92,2.041c-0.614,0.476-1.485,0.714-2.615,0.714    c-0.491,0-0.94-0.037-1.349-0.111c-0.409-0.074-0.805-0.204-1.19-0.391v-1.002c0.402,0.198,0.831,0.35,1.285,0.453    c0.455,0.104,0.886,0.156,1.292,0.156c1.604,0,2.406-0.629,2.406-1.886c0-1.126-0.884-1.688-2.653-1.688h-0.914v-0.908h0.927    c0.724,0,1.297-0.159,1.72-0.479s0.635-0.763,0.635-1.33c0-0.453-0.155-0.809-0.467-1.066c-0.311-0.258-0.733-0.387-1.266-0.387    c-0.406,0-0.789,0.055-1.149,0.164c-0.36,0.11-0.77,0.313-1.231,0.609l-0.533-0.711c0.381-0.3,0.82-0.536,1.317-0.707    c0.497-0.172,1.021-0.258,1.571-0.258c0.901,0,1.602,0.207,2.101,0.619C231.014,211.237,231.263,211.802,231.263,212.522z"/>
      <path class="st12"
            d="M235.611,222.062c-0.398,0-0.711-0.057-0.939-0.171v-0.921c0.3,0.085,0.614,0.127,0.939,0.127    c0.419,0,0.737-0.127,0.955-0.381c0.218-0.254,0.327-0.619,0.327-1.098v-9.28h1.079v9.191c0,0.804-0.203,1.427-0.609,1.869    S236.373,222.062,235.611,222.062z"/>
      <path class="st12"
            d="M244.555,219.618l-0.209-0.99h-0.051c-0.347,0.436-0.693,0.731-1.038,0.886    c-0.345,0.154-0.776,0.231-1.292,0.231c-0.69,0-1.23-0.178-1.622-0.533c-0.391-0.355-0.587-0.861-0.587-1.518    c0-1.404,1.124-2.141,3.371-2.209l1.181-0.037v-0.432c0-0.547-0.118-0.949-0.352-1.21c-0.235-0.26-0.611-0.39-1.127-0.39    c-0.58,0-1.236,0.178-1.968,0.533l-0.324-0.807c0.343-0.187,0.718-0.332,1.126-0.438c0.409-0.106,0.818-0.159,1.229-0.159    c0.83,0,1.444,0.185,1.844,0.552c0.4,0.369,0.6,0.959,0.6,1.771v4.748H244.555z M242.175,218.876c0.656,0,1.171-0.181,1.545-0.54    c0.375-0.359,0.562-0.863,0.562-1.511v-0.629l-1.054,0.045c-0.838,0.029-1.442,0.16-1.812,0.391    c-0.371,0.23-0.556,0.589-0.556,1.076c0,0.381,0.115,0.67,0.346,0.869C241.438,218.777,241.76,218.876,242.175,218.876z"/>
      <path class="st12"
            d="M252.268,219.618v-4.5c0-0.567-0.129-0.99-0.387-1.27s-0.662-0.42-1.212-0.42    c-0.732,0-1.267,0.199-1.603,0.598c-0.337,0.397-0.505,1.049-0.505,1.955v3.637h-1.054v-9.877h1.054v2.99    c0,0.359-0.017,0.657-0.051,0.895h0.063c0.208-0.334,0.502-0.598,0.886-0.79c0.383-0.192,0.82-0.289,1.311-0.289    c0.851,0,1.488,0.202,1.914,0.606c0.425,0.404,0.638,1.046,0.638,1.926v4.539H252.268z"/>
      <path class="st12"
            d="M258.66,212.534c0.309,0,0.586,0.025,0.832,0.076l-0.146,0.978c-0.288-0.063-0.542-0.095-0.762-0.095    c-0.563,0-1.044,0.229-1.444,0.686c-0.399,0.457-0.6,1.025-0.6,1.707v3.732h-1.054v-6.957h0.87l0.121,1.289h0.051    c0.258-0.453,0.569-0.803,0.933-1.048S258.224,212.534,258.66,212.534z"/>
      <path class="st12"
            d="M263.731,219.745c-1.028,0-1.84-0.313-2.434-0.939c-0.595-0.626-0.892-1.496-0.892-2.609    c0-1.121,0.276-2.012,0.829-2.672c0.552-0.66,1.293-0.99,2.225-0.99c0.872,0,1.562,0.287,2.069,0.86s0.762,1.329,0.762,2.269    v0.667h-4.792c0.021,0.816,0.228,1.437,0.619,1.86c0.392,0.423,0.943,0.635,1.654,0.635c0.749,0,1.49-0.157,2.222-0.471v0.939    c-0.373,0.161-0.725,0.276-1.057,0.347C264.602,219.71,264.201,219.745,263.731,219.745z M263.446,213.417    c-0.559,0-1.004,0.182-1.336,0.545c-0.333,0.364-0.528,0.868-0.587,1.512h3.637c0-0.665-0.148-1.174-0.444-1.527    S263.996,213.417,263.446,213.417z"/>
      <path class="st12" d="M271.622,219.618v-9.28h1.079v8.303h4.094v0.978H271.622z"/>
      <path class="st12"
            d="M282.489,219.618l-0.209-0.99h-0.051c-0.347,0.436-0.693,0.731-1.038,0.886    c-0.345,0.154-0.776,0.231-1.292,0.231c-0.69,0-1.23-0.178-1.622-0.533c-0.391-0.355-0.587-0.861-0.587-1.518    c0-1.404,1.124-2.141,3.371-2.209l1.181-0.037v-0.432c0-0.547-0.118-0.949-0.352-1.21c-0.235-0.26-0.611-0.39-1.127-0.39    c-0.58,0-1.236,0.178-1.968,0.533l-0.324-0.807c0.343-0.187,0.718-0.332,1.126-0.438c0.409-0.106,0.818-0.159,1.229-0.159    c0.83,0,1.444,0.185,1.844,0.552c0.4,0.369,0.6,0.959,0.6,1.771v4.748H282.489z M280.108,218.876c0.656,0,1.171-0.181,1.545-0.54    c0.375-0.359,0.562-0.863,0.562-1.511v-0.629l-1.054,0.045c-0.838,0.029-1.442,0.16-1.812,0.391    c-0.371,0.23-0.556,0.589-0.556,1.076c0,0.381,0.115,0.67,0.346,0.869C279.371,218.777,279.694,218.876,280.108,218.876z"/>
      <path class="st12"
            d="M286.431,212.661v4.514c0,0.566,0.129,0.99,0.387,1.27s0.662,0.418,1.212,0.418    c0.728,0,1.26-0.198,1.597-0.596c0.336-0.398,0.504-1.048,0.504-1.949v-3.656h1.054v6.957h-0.87l-0.152-0.934h-0.057    c-0.216,0.344-0.515,0.605-0.898,0.787c-0.383,0.183-0.82,0.273-1.311,0.273c-0.846,0-1.48-0.201-1.901-0.604    c-0.421-0.401-0.632-1.045-0.632-1.93v-4.551H286.431z"/>
      <path class="st12"
            d="M296.555,213.48h-1.771v6.139h-1.054v-6.139h-1.244v-0.476l1.244-0.381v-0.388    c0-1.709,0.747-2.564,2.241-2.564c0.368,0,0.8,0.074,1.295,0.223l-0.273,0.844c-0.406-0.131-0.753-0.196-1.041-0.196    c-0.398,0-0.692,0.132-0.882,0.396s-0.286,0.688-0.286,1.272v0.451h1.771V213.48z"/>
      <path class="st12"
            d="M302.274,219.618h-5.046v-0.717l3.796-5.422h-3.561v-0.818h4.716v0.818l-3.745,5.32h3.84V219.618z"/>
      <path class="st12"
            d="M306.845,219.745c-1.028,0-1.84-0.313-2.434-0.939c-0.595-0.626-0.892-1.496-0.892-2.609    c0-1.121,0.276-2.012,0.829-2.672c0.552-0.66,1.293-0.99,2.225-0.99c0.872,0,1.562,0.287,2.069,0.86s0.762,1.329,0.762,2.269    v0.667h-4.792c0.021,0.816,0.228,1.437,0.619,1.86c0.392,0.423,0.943,0.635,1.654,0.635c0.749,0,1.49-0.157,2.222-0.471v0.939    c-0.373,0.161-0.725,0.276-1.057,0.347C307.715,219.71,307.314,219.745,306.845,219.745z M306.559,213.417    c-0.559,0-1.004,0.182-1.336,0.545c-0.333,0.364-0.528,0.868-0.587,1.512h3.637c0-0.665-0.148-1.174-0.444-1.527    S307.109,213.417,306.559,213.417z"/>
      <path class="st12"
            d="M311.11,210.777c0-0.242,0.059-0.418,0.178-0.53s0.267-0.169,0.444-0.169c0.169,0,0.315,0.058,0.438,0.172    s0.184,0.29,0.184,0.527c0,0.236-0.062,0.413-0.184,0.529s-0.269,0.175-0.438,0.175c-0.178,0-0.326-0.059-0.444-0.175    S311.11,211.013,311.11,210.777z M312.253,219.618h-1.054v-6.957h1.054V219.618z"/>
      <path class="st12"
            d="M316.734,218.876c0.186,0,0.366-0.015,0.54-0.042c0.174-0.027,0.311-0.056,0.412-0.085v0.806    c-0.113,0.055-0.281,0.101-0.504,0.137c-0.222,0.036-0.422,0.054-0.6,0.054c-1.346,0-2.019-0.709-2.019-2.127v-4.139h-0.997    v-0.508l0.997-0.438l0.444-1.485h0.609v1.612h2.018v0.818h-2.018v4.095c0,0.419,0.1,0.74,0.298,0.965    S316.387,218.876,316.734,218.876z"/>
	</g>
    <g>
		<path class="st12"
          d="M231.612,184.443h-6.1v-0.908l2.444-2.456c0.745-0.753,1.236-1.291,1.473-1.612s0.415-0.635,0.533-0.939    s0.178-0.633,0.178-0.984c0-0.494-0.15-0.887-0.451-1.177s-0.717-0.435-1.25-0.435c-0.385,0-0.75,0.062-1.095,0.189    c-0.345,0.127-0.729,0.358-1.152,0.692l-0.559-0.718c0.855-0.711,1.786-1.066,2.793-1.066c0.872,0,1.555,0.224,2.05,0.67    s0.743,1.047,0.743,1.8c0,0.588-0.165,1.17-0.495,1.745c-0.33,0.576-0.948,1.304-1.854,2.184l-2.031,1.987v0.051h4.773V184.443z"/>
      <path class="st12"
            d="M235.611,186.886c-0.398,0-0.711-0.057-0.939-0.171v-0.921c0.3,0.085,0.614,0.127,0.939,0.127    c0.419,0,0.737-0.127,0.955-0.381c0.218-0.254,0.327-0.619,0.327-1.098v-9.28h1.079v9.191c0,0.804-0.203,1.427-0.609,1.869    S236.373,186.886,235.611,186.886z"/>
      <path class="st12"
            d="M244.555,184.443l-0.209-0.99h-0.051c-0.347,0.436-0.693,0.731-1.038,0.886    c-0.345,0.154-0.776,0.231-1.292,0.231c-0.69,0-1.23-0.178-1.622-0.533c-0.391-0.355-0.587-0.861-0.587-1.518    c0-1.404,1.124-2.141,3.371-2.209l1.181-0.037v-0.432c0-0.547-0.118-0.949-0.352-1.21c-0.235-0.26-0.611-0.39-1.127-0.39    c-0.58,0-1.236,0.178-1.968,0.533l-0.324-0.807c0.343-0.187,0.718-0.332,1.126-0.438c0.409-0.106,0.818-0.159,1.229-0.159    c0.83,0,1.444,0.185,1.844,0.552c0.4,0.369,0.6,0.959,0.6,1.771v4.748H244.555z M242.175,183.7c0.656,0,1.171-0.181,1.545-0.54    c0.375-0.359,0.562-0.863,0.562-1.511v-0.629l-1.054,0.045c-0.838,0.029-1.442,0.16-1.812,0.391    c-0.371,0.23-0.556,0.589-0.556,1.076c0,0.381,0.115,0.67,0.346,0.869C241.438,183.601,241.76,183.7,242.175,183.7z"/>
      <path class="st12"
            d="M252.268,184.443v-4.5c0-0.567-0.129-0.99-0.387-1.27s-0.662-0.42-1.212-0.42    c-0.732,0-1.267,0.199-1.603,0.598c-0.337,0.397-0.505,1.049-0.505,1.955v3.637h-1.054v-9.877h1.054v2.99    c0,0.359-0.017,0.657-0.051,0.895h0.063c0.208-0.334,0.502-0.598,0.886-0.79c0.383-0.192,0.82-0.289,1.311-0.289    c0.851,0,1.488,0.202,1.914,0.606c0.425,0.404,0.638,1.046,0.638,1.926v4.539H252.268z"/>
      <path class="st12"
            d="M258.66,177.359c0.309,0,0.586,0.025,0.832,0.076l-0.146,0.978c-0.288-0.063-0.542-0.095-0.762-0.095    c-0.563,0-1.044,0.229-1.444,0.686c-0.399,0.457-0.6,1.025-0.6,1.707v3.732h-1.054v-6.957h0.87l0.121,1.289h0.051    c0.258-0.453,0.569-0.803,0.933-1.048S258.224,177.359,258.66,177.359z"/>
      <path class="st12"
            d="M263.731,184.57c-1.028,0-1.84-0.313-2.434-0.939c-0.595-0.626-0.892-1.496-0.892-2.609    c0-1.121,0.276-2.012,0.829-2.672c0.552-0.66,1.293-0.99,2.225-0.99c0.872,0,1.562,0.287,2.069,0.86s0.762,1.329,0.762,2.269    v0.667h-4.792c0.021,0.816,0.228,1.437,0.619,1.86c0.392,0.423,0.943,0.635,1.654,0.635c0.749,0,1.49-0.157,2.222-0.471v0.939    c-0.373,0.161-0.725,0.276-1.057,0.347C264.602,184.534,264.201,184.57,263.731,184.57z M263.446,178.241    c-0.559,0-1.004,0.182-1.336,0.545c-0.333,0.364-0.528,0.868-0.587,1.512h3.637c0-0.665-0.148-1.174-0.444-1.527    S263.996,178.241,263.446,178.241z"/>
	</g>
    <g>
		<path class="st12"
          d="M229.416,149.269h-1.028v-6.614c0-0.55,0.017-1.07,0.051-1.562c-0.089,0.089-0.188,0.182-0.298,0.279    s-0.614,0.51-1.511,1.238l-0.559-0.725l2.457-1.897h0.889V149.269z"/>
	</g>
    <g>
		<path class="st41"
          d="M172.078,281.462c0,3.631-1.404,5.446-4.215,5.446c-0.49,0-0.88-0.042-1.168-0.127v-0.908    c0.339,0.11,0.724,0.166,1.155,0.166c1.016,0,1.783-0.314,2.302-0.943c0.518-0.628,0.801-1.592,0.847-2.891h-0.076    c-0.232,0.351-0.541,0.618-0.927,0.803c-0.385,0.184-0.818,0.275-1.301,0.275c-0.821,0-1.473-0.245-1.955-0.736    c-0.482-0.49-0.724-1.176-0.724-2.057c0-0.965,0.27-1.727,0.81-2.285c0.539-0.559,1.249-0.838,2.129-0.838    c0.631,0,1.182,0.162,1.654,0.486c0.472,0.323,0.834,0.795,1.088,1.415S172.078,280.62,172.078,281.462z M168.955,278.27    c-0.604,0-1.072,0.194-1.402,0.584c-0.33,0.389-0.495,0.931-0.495,1.625c0,0.609,0.152,1.088,0.457,1.438    c0.305,0.349,0.768,0.523,1.39,0.523c0.386,0,0.74-0.078,1.063-0.234c0.324-0.157,0.579-0.371,0.765-0.642    c0.187-0.271,0.279-0.555,0.279-0.851c0-0.444-0.087-0.854-0.26-1.231c-0.174-0.377-0.416-0.673-0.727-0.889    C169.714,278.377,169.357,278.27,168.955,278.27z"/>
      <path class="st41"
            d="M173.741,286.109c0-0.283,0.064-0.498,0.193-0.645c0.13-0.146,0.314-0.219,0.556-0.219    c0.246,0,0.438,0.073,0.574,0.219c0.138,0.146,0.207,0.361,0.207,0.645c0,0.275-0.07,0.486-0.21,0.635s-0.33,0.222-0.571,0.222    c-0.216,0-0.395-0.066-0.536-0.199C173.812,286.632,173.741,286.413,173.741,286.109z"/>
      <path class="st41"
            d="M183.021,282.129c0,1.604-0.253,2.801-0.758,3.592c-0.506,0.792-1.279,1.188-2.32,1.188    c-0.999,0-1.759-0.405-2.279-1.216s-0.78-1.998-0.78-3.563c0-1.617,0.252-2.816,0.755-3.6c0.504-0.783,1.271-1.174,2.305-1.174    c1.007,0,1.771,0.408,2.295,1.225C182.761,279.397,183.021,280.58,183.021,282.129z M177.95,282.129    c0,1.35,0.158,2.332,0.476,2.948c0.317,0.615,0.823,0.923,1.518,0.923c0.702,0,1.211-0.312,1.526-0.936s0.473-1.604,0.473-2.936    c0-1.334-0.157-2.31-0.473-2.93s-0.824-0.93-1.526-0.93c-0.694,0-1.2,0.306-1.518,0.917S177.95,280.779,177.95,282.129z"/>
      <path class="st41"
            d="M190.455,282.129c0,1.604-0.253,2.801-0.759,3.592c-0.506,0.792-1.279,1.188-2.32,1.188    c-0.998,0-1.758-0.405-2.278-1.216s-0.781-1.998-0.781-3.563c0-1.617,0.252-2.816,0.756-3.6c0.503-0.783,1.271-1.174,2.304-1.174    c1.008,0,1.772,0.408,2.295,1.225S190.455,280.58,190.455,282.129z M185.383,282.129c0,1.35,0.159,2.332,0.477,2.948    c0.317,0.615,0.823,0.923,1.517,0.923c0.703,0,1.212-0.312,1.526-0.936c0.315-0.624,0.474-1.604,0.474-2.936    c0-1.334-0.158-2.31-0.474-2.93c-0.314-0.62-0.823-0.93-1.526-0.93c-0.693,0-1.199,0.306-1.517,0.917    S185.383,280.779,185.383,282.129z"/>
      <path class="st41"
            d="M197.888,282.129c0,1.604-0.253,2.801-0.758,3.592c-0.506,0.792-1.279,1.188-2.32,1.188    c-0.999,0-1.759-0.405-2.279-1.216s-0.78-1.998-0.78-3.563c0-1.617,0.252-2.816,0.755-3.6c0.504-0.783,1.271-1.174,2.305-1.174    c1.007,0,1.771,0.408,2.295,1.225C197.627,279.397,197.888,280.58,197.888,282.129z M192.816,282.129    c0,1.35,0.158,2.332,0.476,2.948c0.317,0.615,0.823,0.923,1.518,0.923c0.702,0,1.211-0.312,1.526-0.936s0.473-1.604,0.473-2.936    c0-1.334-0.157-2.31-0.473-2.93s-0.824-0.93-1.526-0.93c-0.694,0-1.2,0.306-1.518,0.917S192.816,280.779,192.816,282.129z"/>
      <path class="st41"
            d="M208.361,286.782h-5.173v-9.28h5.173v0.958h-4.094v2.99h3.847v0.952h-3.847v3.415h4.094V286.782z"/>
      <path class="st41"
            d="M217.426,277.501v6.005c0,1.058-0.319,1.89-0.958,2.494c-0.64,0.605-1.518,0.908-2.635,0.908    s-1.981-0.305-2.593-0.914s-0.917-1.447-0.917-2.514v-5.979h1.079v6.056c0,0.774,0.211,1.369,0.635,1.783    c0.423,0.415,1.045,0.623,1.866,0.623c0.782,0,1.386-0.209,1.809-0.626c0.424-0.417,0.635-1.015,0.635-1.793v-6.043H217.426z"/>
      <path class="st41"
            d="M220.962,282.922v3.859h-1.079v-9.28h2.545c1.139,0,1.979,0.218,2.523,0.653    c0.544,0.437,0.815,1.092,0.815,1.969c0,1.227-0.622,2.057-1.866,2.488l2.521,4.17h-1.276l-2.247-3.859H220.962z M220.962,281.995    h1.479c0.762,0,1.32-0.151,1.676-0.454s0.533-0.756,0.533-1.361c0-0.613-0.181-1.056-0.543-1.326    c-0.361-0.271-0.942-0.406-1.742-0.406h-1.402V281.995z"/>
      <path class="st41"
            d="M156.555,302.782l-0.673-2.209h-3.383l-0.673,2.209h-2.12l3.275-9.318h2.405l3.288,9.318H156.555z     M155.412,298.922c-0.622-2.002-0.972-3.134-1.05-3.396c-0.079-0.262-0.135-0.469-0.169-0.621    c-0.14,0.541-0.539,1.881-1.199,4.018H155.412z"/>
      <path class="st41"
            d="M166.241,302.782h-1.936v-4.145c0-0.513-0.091-0.896-0.273-1.152c-0.182-0.256-0.472-0.385-0.869-0.385    c-0.542,0-0.934,0.182-1.175,0.543c-0.241,0.362-0.361,0.962-0.361,1.8v3.339h-1.937v-7.097h1.479l0.26,0.907h0.108    c0.216-0.342,0.513-0.602,0.892-0.777s0.81-0.264,1.292-0.264c0.825,0,1.451,0.224,1.879,0.67    c0.427,0.446,0.641,1.091,0.641,1.934V302.782z"/>
      <path class="st41" d="M170.171,302.782h-1.937v-9.877h1.937V302.782z"/>
      <path class="st41"
            d="M176.709,302.782l-0.375-0.965h-0.051c-0.325,0.41-0.661,0.695-1.006,0.854    c-0.345,0.159-0.795,0.238-1.349,0.238c-0.682,0-1.218-0.194-1.609-0.584s-0.587-0.943-0.587-1.663    c0-0.753,0.264-1.309,0.79-1.666c0.527-0.357,1.321-0.556,2.384-0.594l1.231-0.038v-0.311c0-0.72-0.368-1.08-1.104-1.08    c-0.567,0-1.233,0.172-2,0.515l-0.641-1.308c0.816-0.428,1.722-0.641,2.717-0.641c0.952,0,1.682,0.207,2.189,0.621    c0.508,0.415,0.762,1.046,0.762,1.893v4.729H176.709z M176.138,299.493l-0.749,0.025c-0.563,0.017-0.982,0.118-1.257,0.305    c-0.275,0.187-0.413,0.47-0.413,0.851c0,0.546,0.313,0.818,0.939,0.818c0.449,0,0.808-0.129,1.076-0.387s0.403-0.601,0.403-1.028    V299.493z"/>
      <path class="st41"
            d="M186.23,295.685v0.983l-1.111,0.286c0.203,0.317,0.305,0.673,0.305,1.066c0,0.762-0.266,1.355-0.797,1.78    c-0.53,0.426-1.268,0.639-2.212,0.639l-0.349-0.02l-0.286-0.031c-0.198,0.152-0.298,0.321-0.298,0.508    c0,0.279,0.355,0.418,1.066,0.418h1.206c0.778,0,1.372,0.168,1.78,0.502s0.612,0.825,0.612,1.473c0,0.829-0.346,1.473-1.038,1.93    c-0.691,0.457-1.685,0.686-2.979,0.686c-0.99,0-1.747-0.173-2.27-0.518s-0.784-0.828-0.784-1.45c0-0.428,0.134-0.785,0.4-1.073    c0.267-0.287,0.658-0.492,1.174-0.615c-0.198-0.085-0.372-0.224-0.521-0.416c-0.147-0.192-0.222-0.396-0.222-0.612    c0-0.271,0.078-0.496,0.234-0.676c0.157-0.18,0.383-0.356,0.68-0.53c-0.373-0.161-0.668-0.419-0.886-0.774    s-0.327-0.774-0.327-1.257c0-0.774,0.252-1.373,0.756-1.797c0.503-0.423,1.223-0.635,2.158-0.635c0.198,0,0.435,0.019,0.707,0.055    c0.273,0.036,0.448,0.062,0.524,0.079H186.23z M180.752,303.784c0,0.267,0.128,0.476,0.384,0.628    c0.257,0.152,0.615,0.229,1.076,0.229c0.694,0,1.238-0.095,1.632-0.285s0.59-0.451,0.59-0.781c0-0.266-0.116-0.45-0.349-0.552    c-0.233-0.102-0.593-0.152-1.079-0.152h-1.003c-0.355,0-0.653,0.084-0.893,0.251C180.872,303.288,180.752,303.509,180.752,303.784    z M181.457,298.008c0,0.385,0.088,0.689,0.263,0.914c0.176,0.225,0.443,0.336,0.804,0.336c0.363,0,0.63-0.111,0.8-0.336    c0.169-0.225,0.254-0.529,0.254-0.914c0-0.854-0.352-1.282-1.054-1.282C181.812,296.726,181.457,297.154,181.457,298.008z"/>
      <path class="st41"
            d="M190.61,302.908c-1.143,0-2.036-0.315-2.679-0.945c-0.644-0.631-0.965-1.523-0.965-2.68    c0-1.188,0.297-2.108,0.892-2.758s1.417-0.975,2.466-0.975c1.003,0,1.784,0.286,2.343,0.857s0.838,1.36,0.838,2.367v0.939h-4.577    c0.021,0.551,0.185,0.98,0.489,1.289s0.731,0.463,1.282,0.463c0.427,0,0.831-0.044,1.212-0.133s0.779-0.23,1.193-0.426v1.498    c-0.338,0.17-0.7,0.296-1.085,0.378C191.634,302.867,191.164,302.908,190.61,302.908z M190.337,296.929    c-0.41,0-0.731,0.13-0.965,0.391c-0.232,0.26-0.366,0.629-0.399,1.107h2.717c-0.009-0.479-0.134-0.848-0.375-1.107    C191.073,297.059,190.748,296.929,190.337,296.929z"/>
      <path class="st41"
            d="M200.03,300.674c0,0.728-0.253,1.282-0.759,1.663s-1.262,0.571-2.27,0.571c-0.516,0-0.956-0.035-1.32-0.104    c-0.363-0.07-0.704-0.173-1.021-0.308v-1.6c0.359,0.169,0.765,0.311,1.216,0.425c0.45,0.114,0.847,0.171,1.189,0.171    c0.703,0,1.054-0.203,1.054-0.609c0-0.152-0.046-0.275-0.14-0.371c-0.093-0.095-0.254-0.203-0.482-0.323    c-0.229-0.121-0.533-0.262-0.914-0.423c-0.546-0.229-0.946-0.439-1.202-0.635c-0.257-0.194-0.442-0.417-0.559-0.669    c-0.117-0.252-0.175-0.562-0.175-0.931c0-0.63,0.244-1.118,0.733-1.463c0.488-0.345,1.182-0.518,2.078-0.518    c0.855,0,1.687,0.187,2.495,0.559l-0.584,1.396c-0.355-0.152-0.688-0.276-0.997-0.374c-0.309-0.098-0.624-0.146-0.945-0.146    c-0.571,0-0.857,0.154-0.857,0.463c0,0.174,0.093,0.324,0.276,0.451c0.185,0.127,0.587,0.314,1.209,0.564    c0.555,0.225,0.961,0.434,1.219,0.629c0.259,0.194,0.449,0.418,0.571,0.672C199.969,300.02,200.03,300.323,200.03,300.674z"/>
      <path class="st41"
            d="M206.568,302.782l-0.261-0.908h-0.102c-0.207,0.33-0.501,0.586-0.882,0.766s-0.814,0.27-1.302,0.27    c-0.833,0-1.462-0.224-1.885-0.67c-0.424-0.446-0.635-1.088-0.635-1.926v-4.628h1.936v4.146c0,0.512,0.091,0.896,0.273,1.151    c0.182,0.256,0.472,0.384,0.869,0.384c0.542,0,0.934-0.181,1.175-0.542c0.241-0.362,0.361-0.962,0.361-1.8v-3.339h1.937v7.097    H206.568z"/>
      <path class="st41"
            d="M216.438,302.782h-1.936v-4.145c0-0.513-0.086-0.896-0.257-1.152c-0.172-0.256-0.441-0.385-0.81-0.385    c-0.495,0-0.855,0.183-1.079,0.547c-0.225,0.363-0.337,0.962-0.337,1.796v3.339h-1.936v-7.097h1.479l0.261,0.907h0.107    c0.19-0.325,0.466-0.58,0.825-0.765c0.36-0.184,0.772-0.276,1.238-0.276c1.062,0,1.781,0.348,2.158,1.041h0.171    c0.19-0.33,0.471-0.586,0.842-0.768c0.37-0.182,0.788-0.273,1.253-0.273c0.805,0,1.413,0.207,1.825,0.619    c0.413,0.413,0.619,1.074,0.619,1.984v4.627h-1.942v-4.145c0-0.513-0.086-0.896-0.257-1.152c-0.172-0.256-0.441-0.385-0.81-0.385    c-0.475,0-0.828,0.17-1.063,0.508c-0.234,0.339-0.353,0.877-0.353,1.613V302.782z"/>
      <path class="st41"
            d="M229.204,302.782h-1.937v-4.145c0-0.513-0.086-0.896-0.257-1.152c-0.172-0.256-0.441-0.385-0.81-0.385    c-0.495,0-0.854,0.183-1.079,0.547c-0.224,0.363-0.336,0.962-0.336,1.796v3.339h-1.937v-7.097h1.479l0.26,0.907h0.108    c0.19-0.325,0.465-0.58,0.825-0.765c0.359-0.184,0.772-0.276,1.237-0.276c1.062,0,1.782,0.348,2.158,1.041h0.172    c0.19-0.33,0.471-0.586,0.841-0.768s0.788-0.273,1.254-0.273c0.804,0,1.412,0.207,1.824,0.619    c0.413,0.413,0.619,1.074,0.619,1.984v4.627h-1.942v-4.145c0-0.513-0.086-0.896-0.257-1.152c-0.172-0.256-0.441-0.385-0.81-0.385    c-0.474,0-0.828,0.17-1.063,0.508c-0.234,0.339-0.352,0.877-0.352,1.613V302.782z"/>
      <path class="st41"
            d="M238.827,302.908c-1.143,0-2.036-0.315-2.679-0.945c-0.644-0.631-0.965-1.523-0.965-2.68    c0-1.188,0.297-2.108,0.892-2.758s1.417-0.975,2.466-0.975c1.003,0,1.784,0.286,2.343,0.857s0.838,1.36,0.838,2.367v0.939h-4.577    c0.021,0.551,0.185,0.98,0.489,1.289s0.731,0.463,1.282,0.463c0.427,0,0.831-0.044,1.212-0.133s0.779-0.23,1.193-0.426v1.498    c-0.338,0.17-0.7,0.296-1.085,0.378C239.851,302.867,239.381,302.908,238.827,302.908z M238.554,296.929    c-0.41,0-0.731,0.13-0.965,0.391c-0.232,0.26-0.366,0.629-0.399,1.107h2.717c-0.009-0.479-0.134-0.848-0.375-1.107    C239.29,297.059,238.965,296.929,238.554,296.929z"/>
	</g>
    <g>
		<path class="st41"
          d="M268.882,265.833l-0.776-2.549h-3.904l-0.776,2.549h-2.446l3.779-10.752h2.776l3.794,10.752H268.882z     M267.564,261.38c-0.718-2.311-1.122-3.615-1.212-3.918s-0.155-0.543-0.194-0.719c-0.161,0.625-0.623,2.17-1.384,4.637H267.564z"/>
      <path class="st41"
            d="M280.059,265.833h-2.234v-4.783c0-0.59-0.105-1.033-0.315-1.33c-0.21-0.295-0.544-0.441-1.003-0.441    c-0.625,0-1.077,0.207-1.355,0.625s-0.417,1.109-0.417,2.076v3.854H272.5v-8.189h1.707l0.3,1.049h0.125    c0.249-0.396,0.592-0.695,1.029-0.898s0.934-0.303,1.491-0.303c0.952,0,1.675,0.256,2.168,0.771s0.74,1.26,0.74,2.23V265.833z"/>
      <path class="st41" d="M284.593,265.833h-2.234v-11.396h2.234V265.833z"/>
      <path class="st41"
            d="M292.137,265.833l-0.432-1.113h-0.059c-0.376,0.473-0.763,0.801-1.161,0.984    c-0.398,0.184-0.917,0.275-1.557,0.275c-0.786,0-1.405-0.225-1.856-0.674c-0.452-0.449-0.678-1.09-0.678-1.92    c0-0.869,0.304-1.51,0.912-1.922c0.607-0.412,1.524-0.641,2.75-0.686l1.421-0.043v-0.359c0-0.83-0.425-1.244-1.274-1.244    c-0.654,0-1.423,0.197-2.307,0.592l-0.74-1.508c0.942-0.494,1.987-0.74,3.135-0.74c1.099,0,1.941,0.24,2.527,0.719    s0.879,1.205,0.879,2.182v5.457H292.137z M291.478,262.038l-0.864,0.029c-0.649,0.02-1.133,0.137-1.45,0.352    s-0.476,0.543-0.476,0.982c0,0.629,0.361,0.945,1.084,0.945c0.518,0,0.931-0.15,1.242-0.447c0.31-0.299,0.465-0.693,0.465-1.188    V262.038z"/>
      <path class="st41"
            d="M303.123,257.644v1.137l-1.282,0.328c0.234,0.367,0.352,0.777,0.352,1.23c0,0.879-0.307,1.564-0.919,2.055    c-0.613,0.49-1.464,0.736-2.553,0.736l-0.403-0.021l-0.33-0.037c-0.229,0.176-0.344,0.371-0.344,0.586    c0,0.322,0.41,0.484,1.23,0.484h1.392c0.898,0,1.583,0.191,2.054,0.578c0.471,0.385,0.707,0.951,0.707,1.699    c0,0.957-0.399,1.699-1.197,2.227c-0.799,0.527-1.945,0.791-3.439,0.791c-1.143,0-2.016-0.199-2.619-0.598    s-0.904-0.955-0.904-1.674c0-0.492,0.154-0.906,0.461-1.236c0.308-0.332,0.759-0.57,1.355-0.711    c-0.229-0.098-0.43-0.258-0.601-0.48s-0.256-0.457-0.256-0.707c0-0.312,0.09-0.572,0.271-0.779s0.442-0.412,0.784-0.611    c-0.43-0.186-0.771-0.484-1.022-0.895s-0.377-0.893-0.377-1.449c0-0.895,0.291-1.584,0.872-2.072s1.411-0.732,2.49-0.732    c0.229,0,0.501,0.02,0.817,0.061c0.314,0.043,0.516,0.072,0.604,0.092H303.123z M296.802,266.99c0,0.309,0.147,0.551,0.443,0.727    c0.295,0.176,0.709,0.264,1.241,0.264c0.801,0,1.428-0.111,1.882-0.33c0.454-0.221,0.681-0.52,0.681-0.9    c0-0.309-0.134-0.521-0.403-0.639s-0.684-0.176-1.245-0.176h-1.157c-0.41,0-0.753,0.098-1.029,0.289    C296.94,266.417,296.802,266.673,296.802,266.99z M297.615,260.325c0,0.443,0.101,0.795,0.304,1.055    c0.202,0.258,0.511,0.389,0.926,0.389c0.42,0,0.728-0.131,0.923-0.389c0.195-0.26,0.293-0.611,0.293-1.055    c0-0.986-0.405-1.48-1.216-1.48C298.025,258.845,297.615,259.339,297.615,260.325z"/>
      <path class="st41"
            d="M308.177,265.98c-1.318,0-2.349-0.363-3.091-1.092c-0.742-0.727-1.113-1.758-1.113-3.09    c0-1.373,0.343-2.434,1.029-3.184c0.686-0.75,1.634-1.123,2.845-1.123c1.157,0,2.058,0.328,2.703,0.988    c0.645,0.658,0.967,1.57,0.967,2.732v1.084h-5.281c0.024,0.635,0.212,1.129,0.564,1.486c0.352,0.355,0.845,0.535,1.479,0.535    c0.493,0,0.959-0.053,1.399-0.154c0.439-0.104,0.898-0.266,1.377-0.49v1.729c-0.391,0.195-0.808,0.34-1.252,0.436    C309.358,265.931,308.816,265.98,308.177,265.98z M307.862,259.079c-0.474,0-0.845,0.15-1.113,0.451s-0.422,0.727-0.461,1.277    h3.135c-0.01-0.551-0.154-0.977-0.432-1.277S308.335,259.079,307.862,259.079z"/>
      <path class="st41"
            d="M324.671,261.724c0,1.334-0.352,2.375-1.055,3.127s-1.682,1.129-2.937,1.129    c-0.786,0-1.479-0.172-2.08-0.518c-0.601-0.344-1.062-0.838-1.384-1.482s-0.483-1.396-0.483-2.256    c0-1.338,0.349-2.377,1.047-3.119s1.68-1.113,2.944-1.113c0.786,0,1.479,0.17,2.08,0.512s1.062,0.832,1.384,1.473    C324.51,260.115,324.671,260.865,324.671,261.724z M319.009,261.724c0,0.811,0.133,1.424,0.399,1.838    c0.266,0.416,0.7,0.623,1.3,0.623c0.596,0,1.024-0.207,1.286-0.619c0.261-0.412,0.392-1.025,0.392-1.842    c0-0.811-0.132-1.418-0.396-1.824c-0.264-0.404-0.696-0.607-1.296-0.607c-0.596,0-1.025,0.201-1.289,0.604    C319.141,260.3,319.009,260.909,319.009,261.724z"/>
      <path class="st41"
            d="M334.075,265.833h-2.234v-4.783c0-1.182-0.439-1.771-1.318-1.771c-0.625,0-1.077,0.211-1.355,0.637    c-0.278,0.424-0.417,1.113-0.417,2.064v3.854h-2.234v-11.396h2.234v2.322c0,0.18-0.017,0.605-0.051,1.273l-0.051,0.66h0.117    c0.498-0.801,1.289-1.201,2.373-1.201c0.962,0,1.692,0.258,2.19,0.775s0.747,1.26,0.747,2.227V265.833z"/>
      <path class="st41"
            d="M343.934,265.833H341.7v-4.783c0-0.59-0.105-1.033-0.315-1.33c-0.21-0.295-0.544-0.441-1.003-0.441    c-0.625,0-1.077,0.207-1.355,0.625s-0.417,1.109-0.417,2.076v3.854h-2.234v-8.189h1.707l0.3,1.049h0.125    c0.249-0.396,0.592-0.695,1.029-0.898s0.934-0.303,1.491-0.303c0.952,0,1.675,0.256,2.168,0.771s0.74,1.26,0.74,2.23V265.833z"/>
      <path class="st41"
            d="M349.939,265.98c-1.318,0-2.349-0.363-3.091-1.092c-0.742-0.727-1.113-1.758-1.113-3.09    c0-1.373,0.343-2.434,1.029-3.184c0.686-0.75,1.634-1.123,2.845-1.123c1.157,0,2.058,0.328,2.703,0.988    c0.645,0.658,0.967,1.57,0.967,2.732v1.084h-5.281c0.024,0.635,0.212,1.129,0.564,1.486c0.352,0.355,0.845,0.535,1.479,0.535    c0.493,0,0.959-0.053,1.399-0.154c0.439-0.104,0.898-0.266,1.377-0.49v1.729c-0.391,0.195-0.808,0.34-1.252,0.436    C351.121,265.931,350.579,265.98,349.939,265.98z M349.625,259.079c-0.474,0-0.845,0.15-1.113,0.451s-0.422,0.727-0.461,1.277    h3.135c-0.01-0.551-0.154-0.977-0.432-1.277S350.098,259.079,349.625,259.079z"/>
      <path class="st41" d="M363.299,265.833h-2.271v-8.818h-2.907v-1.891h8.086v1.891h-2.908V265.833z"/>
      <path class="st41"
            d="M372.249,257.491c0.303,0,0.554,0.021,0.754,0.064l-0.168,2.096c-0.181-0.049-0.4-0.074-0.659-0.074    c-0.713,0-1.269,0.184-1.666,0.551c-0.398,0.365-0.597,0.879-0.597,1.537v4.168h-2.234v-8.189h1.691l0.33,1.377h0.109    c0.254-0.459,0.598-0.828,1.029-1.109C371.271,257.63,371.741,257.491,372.249,257.491z"/>
      <path class="st41"
            d="M378.196,265.98c-1.318,0-2.349-0.363-3.091-1.092c-0.742-0.727-1.113-1.758-1.113-3.09    c0-1.373,0.343-2.434,1.029-3.184c0.686-0.75,1.634-1.123,2.846-1.123c1.156,0,2.058,0.328,2.702,0.988    c0.645,0.658,0.967,1.57,0.967,2.732v1.084h-5.28c0.023,0.635,0.212,1.129,0.563,1.486c0.352,0.355,0.845,0.535,1.479,0.535    c0.493,0,0.959-0.053,1.398-0.154c0.439-0.104,0.898-0.266,1.377-0.49v1.729c-0.391,0.195-0.808,0.34-1.252,0.436    C379.378,265.931,378.836,265.98,378.196,265.98z M377.881,259.079c-0.474,0-0.845,0.15-1.113,0.451s-0.422,0.727-0.461,1.277    h3.135c-0.01-0.551-0.154-0.977-0.432-1.277C378.73,259.23,378.354,259.079,377.881,259.079z"/>
      <path class="st41"
            d="M387.85,265.98c-0.962,0-1.717-0.35-2.263-1.047h-0.117c0.077,0.684,0.117,1.078,0.117,1.186v3.318h-2.234    v-11.793h1.816l0.314,1.062h0.104c0.521-0.811,1.296-1.215,2.321-1.215c0.967,0,1.724,0.373,2.271,1.119    c0.547,0.748,0.82,1.785,0.82,3.113c0,0.875-0.128,1.633-0.385,2.277c-0.256,0.645-0.621,1.137-1.095,1.473    C389.046,265.812,388.489,265.98,387.85,265.98z M387.19,259.279c-0.552,0-0.955,0.168-1.209,0.508s-0.386,0.9-0.395,1.682v0.242    c0,0.879,0.13,1.508,0.392,1.889c0.261,0.381,0.675,0.572,1.241,0.572c1.001,0,1.502-0.826,1.502-2.477    c0-0.805-0.124-1.41-0.37-1.812C388.104,259.48,387.718,259.279,387.19,259.279z"/>
      <path class="st41"
            d="M397.342,265.98c-0.962,0-1.717-0.35-2.263-1.047h-0.117c0.077,0.684,0.117,1.078,0.117,1.186v3.318h-2.234    v-11.793h1.816l0.314,1.062h0.104c0.521-0.811,1.296-1.215,2.321-1.215c0.967,0,1.724,0.373,2.271,1.119    c0.547,0.748,0.82,1.785,0.82,3.113c0,0.875-0.128,1.633-0.385,2.277c-0.256,0.645-0.621,1.137-1.095,1.473    C398.538,265.812,397.981,265.98,397.342,265.98z M396.683,259.279c-0.552,0-0.955,0.168-1.209,0.508s-0.386,0.9-0.395,1.682    v0.242c0,0.879,0.13,1.508,0.392,1.889c0.261,0.381,0.675,0.572,1.241,0.572c1.001,0,1.502-0.826,1.502-2.477    c0-0.805-0.124-1.41-0.37-1.812C397.597,259.48,397.21,259.279,396.683,259.279z"/>
      <path class="st41"
            d="M406.043,265.98c-1.318,0-2.349-0.363-3.091-1.092c-0.742-0.727-1.113-1.758-1.113-3.09    c0-1.373,0.343-2.434,1.029-3.184c0.686-0.75,1.634-1.123,2.846-1.123c1.156,0,2.058,0.328,2.702,0.988    c0.645,0.658,0.967,1.57,0.967,2.732v1.084h-5.28c0.023,0.635,0.212,1.129,0.563,1.486c0.352,0.355,0.845,0.535,1.479,0.535    c0.493,0,0.959-0.053,1.398-0.154c0.439-0.104,0.898-0.266,1.377-0.49v1.729c-0.391,0.195-0.808,0.34-1.252,0.436    C407.225,265.931,406.683,265.98,406.043,265.98z M405.728,259.079c-0.474,0-0.845,0.15-1.113,0.451s-0.422,0.727-0.461,1.277    h3.135c-0.01-0.551-0.154-0.977-0.432-1.277C406.577,259.23,406.201,259.079,405.728,259.079z"/>
      <path class="st41"
            d="M418.758,265.833h-2.234v-4.783c0-0.59-0.104-1.033-0.314-1.33c-0.21-0.295-0.545-0.441-1.004-0.441    c-0.625,0-1.076,0.207-1.354,0.625s-0.417,1.109-0.417,2.076v3.854h-2.234v-8.189h1.707l0.3,1.049h0.124    c0.25-0.396,0.593-0.695,1.029-0.898c0.438-0.203,0.934-0.303,1.49-0.303c0.953,0,1.675,0.256,2.168,0.771s0.74,1.26,0.74,2.23    V265.833z"/>
      <path class="st41"
            d="M426.771,263.402c0,0.84-0.292,1.479-0.875,1.918c-0.584,0.439-1.457,0.66-2.619,0.66    c-0.596,0-1.104-0.041-1.523-0.121s-0.812-0.199-1.179-0.355v-1.846c0.415,0.195,0.883,0.359,1.402,0.49    c0.521,0.133,0.978,0.199,1.374,0.199c0.81,0,1.215-0.234,1.215-0.703c0-0.176-0.054-0.32-0.16-0.43    c-0.108-0.109-0.293-0.234-0.557-0.373s-0.615-0.301-1.055-0.486c-0.631-0.264-1.093-0.508-1.389-0.732    c-0.295-0.225-0.51-0.482-0.645-0.773c-0.134-0.291-0.201-0.648-0.201-1.072c0-0.729,0.282-1.291,0.846-1.689    c0.564-0.398,1.363-0.596,2.398-0.596c0.986,0,1.946,0.215,2.879,0.645l-0.674,1.611c-0.41-0.176-0.794-0.32-1.15-0.434    c-0.356-0.111-0.72-0.168-1.091-0.168c-0.659,0-0.989,0.178-0.989,0.535c0,0.199,0.106,0.373,0.319,0.52    c0.212,0.146,0.677,0.363,1.396,0.652c0.639,0.258,1.107,0.5,1.406,0.725c0.297,0.225,0.517,0.484,0.658,0.777    S426.771,262.995,426.771,263.402z"/>
      <path class="st41"
            d="M431.963,264.2c0.391,0,0.859-0.086,1.406-0.258v1.664c-0.557,0.248-1.24,0.373-2.051,0.373    c-0.893,0-1.544-0.227-1.951-0.678c-0.408-0.451-0.611-1.129-0.611-2.033v-3.947h-1.07v-0.945l1.23-0.746l0.645-1.729h1.429v1.742    h2.292v1.678h-2.292v3.947c0,0.318,0.089,0.553,0.268,0.703C431.435,264.124,431.67,264.2,431.963,264.2z"/>
      <path class="st41"
            d="M439.595,257.491c0.303,0,0.554,0.021,0.754,0.064l-0.168,2.096c-0.181-0.049-0.4-0.074-0.659-0.074    c-0.713,0-1.269,0.184-1.666,0.551c-0.398,0.365-0.597,0.879-0.597,1.537v4.168h-2.234v-8.189h1.691l0.33,1.377h0.109    c0.254-0.459,0.598-0.828,1.029-1.109C438.617,257.63,439.087,257.491,439.595,257.491z"/>
      <path class="st41"
            d="M447.037,265.833l-0.433-1.113h-0.059c-0.376,0.473-0.763,0.801-1.16,0.984    c-0.398,0.184-0.917,0.275-1.557,0.275c-0.786,0-1.405-0.225-1.856-0.674c-0.452-0.449-0.678-1.09-0.678-1.92    c0-0.869,0.304-1.51,0.912-1.922c0.607-0.412,1.524-0.641,2.75-0.686l1.421-0.043v-0.359c0-0.83-0.425-1.244-1.274-1.244    c-0.654,0-1.424,0.197-2.308,0.592l-0.739-1.508c0.942-0.494,1.987-0.74,3.135-0.74c1.099,0,1.94,0.24,2.526,0.719    s0.879,1.205,0.879,2.182v5.457H447.037z M446.378,262.038l-0.864,0.029c-0.649,0.02-1.133,0.137-1.45,0.352    s-0.477,0.543-0.477,0.982c0,0.629,0.361,0.945,1.084,0.945c0.518,0,0.932-0.15,1.242-0.447c0.31-0.299,0.465-0.693,0.465-1.188    V262.038z"/>
      <path class="st41"
            d="M454.346,264.2c0.391,0,0.859-0.086,1.406-0.258v1.664c-0.557,0.248-1.24,0.373-2.051,0.373    c-0.893,0-1.544-0.227-1.951-0.678c-0.408-0.451-0.611-1.129-0.611-2.033v-3.947h-1.07v-0.945l1.23-0.746l0.645-1.729h1.429v1.742    h2.292v1.678h-2.292v3.947c0,0.318,0.089,0.553,0.268,0.703C453.817,264.124,454.053,264.2,454.346,264.2z"/>
      <path class="st41"
            d="M461.113,265.98c-1.318,0-2.349-0.363-3.091-1.092c-0.742-0.727-1.113-1.758-1.113-3.09    c0-1.373,0.343-2.434,1.029-3.184c0.686-0.75,1.634-1.123,2.846-1.123c1.156,0,2.058,0.328,2.702,0.988    c0.645,0.658,0.967,1.57,0.967,2.732v1.084h-5.28c0.023,0.635,0.212,1.129,0.563,1.486c0.352,0.355,0.845,0.535,1.479,0.535    c0.493,0,0.959-0.053,1.398-0.154c0.439-0.104,0.898-0.266,1.377-0.49v1.729c-0.391,0.195-0.808,0.34-1.252,0.436    C462.295,265.931,461.753,265.98,461.113,265.98z M460.798,259.079c-0.474,0-0.845,0.15-1.113,0.451s-0.422,0.727-0.461,1.277    h3.135c-0.01-0.551-0.154-0.977-0.432-1.277C461.647,259.23,461.271,259.079,460.798,259.079z"/>
      <path class="st41"
            d="M473.397,257.644v1.137l-1.282,0.328c0.234,0.367,0.352,0.777,0.352,1.23c0,0.879-0.307,1.564-0.919,2.055    c-0.613,0.49-1.464,0.736-2.553,0.736l-0.402-0.021l-0.33-0.037c-0.229,0.176-0.344,0.371-0.344,0.586    c0,0.322,0.41,0.484,1.23,0.484h1.391c0.898,0,1.584,0.191,2.055,0.578c0.472,0.385,0.707,0.951,0.707,1.699    c0,0.957-0.399,1.699-1.197,2.227c-0.799,0.527-1.945,0.791-3.439,0.791c-1.143,0-2.015-0.199-2.618-0.598    c-0.603-0.398-0.904-0.955-0.904-1.674c0-0.492,0.153-0.906,0.462-1.236c0.307-0.332,0.759-0.57,1.354-0.711    c-0.229-0.098-0.43-0.258-0.601-0.48s-0.256-0.457-0.256-0.707c0-0.312,0.09-0.572,0.271-0.779s0.441-0.412,0.784-0.611    c-0.431-0.186-0.771-0.484-1.022-0.895c-0.251-0.41-0.377-0.893-0.377-1.449c0-0.895,0.29-1.584,0.872-2.072    c0.58-0.488,1.41-0.732,2.49-0.732c0.229,0,0.501,0.02,0.816,0.061c0.314,0.043,0.516,0.072,0.604,0.092H473.397z M467.076,266.99    c0,0.309,0.147,0.551,0.443,0.727c0.295,0.176,0.709,0.264,1.241,0.264c0.801,0,1.428-0.111,1.883-0.33    c0.453-0.221,0.681-0.52,0.681-0.9c0-0.309-0.135-0.521-0.403-0.639s-0.684-0.176-1.244-0.176h-1.158    c-0.41,0-0.753,0.098-1.028,0.289C467.214,266.417,467.076,266.673,467.076,266.99z M467.89,260.325    c0,0.443,0.101,0.795,0.304,1.055c0.202,0.258,0.511,0.389,0.927,0.389c0.419,0,0.727-0.131,0.922-0.389    c0.195-0.26,0.293-0.611,0.293-1.055c0-0.986-0.405-1.48-1.215-1.48C468.3,258.845,467.89,259.339,467.89,260.325z"/>
      <path class="st41"
            d="M474.648,255.529c0-0.729,0.405-1.092,1.217-1.092c0.81,0,1.215,0.363,1.215,1.092    c0,0.346-0.101,0.615-0.304,0.809c-0.202,0.193-0.507,0.289-0.911,0.289C475.054,256.626,474.648,256.261,474.648,255.529z     M476.979,265.833h-2.234v-8.189h2.234V265.833z"/>
      <path class="st41"
            d="M483.027,265.98c-1.318,0-2.349-0.363-3.091-1.092c-0.742-0.727-1.113-1.758-1.113-3.09    c0-1.373,0.343-2.434,1.029-3.184c0.686-0.75,1.634-1.123,2.846-1.123c1.156,0,2.058,0.328,2.702,0.988    c0.645,0.658,0.967,1.57,0.967,2.732v1.084h-5.28c0.023,0.635,0.212,1.129,0.563,1.486c0.352,0.355,0.845,0.535,1.479,0.535    c0.493,0,0.959-0.053,1.398-0.154c0.439-0.104,0.898-0.266,1.377-0.49v1.729c-0.391,0.195-0.808,0.34-1.252,0.436    C484.209,265.931,483.667,265.98,483.027,265.98z M482.712,259.079c-0.474,0-0.845,0.15-1.113,0.451s-0.422,0.727-0.461,1.277    h3.135c-0.01-0.551-0.154-0.977-0.432-1.277C483.562,259.23,483.186,259.079,482.712,259.079z"/>
	</g>
</g>
  <g id="Logo">
</g>
</svg>
