<svg xmlns="http://www.w3.org/2000/svg" version="1.1" x="0px" y="0px" width="750px" height="350px" viewBox="0 0 750 350"
     style="enable-background:new 0 0 750 350;" xml:space="preserve">
<style type="text/css">
	.st0 {
    clip-path: url(#SVGID_2_);
  }

  .st1 {
    fill: #F3F7FC;
    stroke: #A1C4E7;
    stroke-linecap: round;
    stroke-linejoin: round;
    stroke-miterlimit: 10;
  }

  .st2 {
    fill: #E8F0F9;
    stroke: #A1C4E7;
    stroke-linecap: round;
    stroke-linejoin: round;
    stroke-miterlimit: 10;
  }

  .st3 {
    fill: #F3F7FC;
    stroke: #A1C4E7;
    stroke-linecap: round;
    stroke-linejoin: round;
    stroke-miterlimit: 10;
    stroke-dasharray: 0, 2;
  }

  .st4 {
    fill: #FFFFFF;
  }

  .st5 {
    fill: #E8F0F9;
  }

  .st6 {
    clip-path: url(#SVGID_4_);
  }

  .st7 {
    fill: #D0E2F3;
  }

  .st8 {
    fill: none;
    stroke: #D7D7D7;
    stroke-width: 0.5;
    stroke-linecap: round;
    stroke-linejoin: round;
    stroke-miterlimit: 10;
  }

  .st9 {
    fill: none;
    stroke: #004B8C;
    stroke-linecap: round;
    stroke-linejoin: round;
    stroke-miterlimit: 10;
  }

  .st10 {
    fill: #FFFFFF;
    stroke: #004B8C;
    stroke-miterlimit: 10;
  }

  .st11 {
    fill: none;
    stroke: #004B8C;
    stroke-linecap: round;
    stroke-miterlimit: 10;
  }

  .st12 {
    fill: none;
    stroke: #004B8C;
    stroke-linecap: round;
    stroke-linejoin: round;
  }

  .st13 {
    fill: #004B8C;
  }

  .st14 {
    fill: none;
    stroke: #004B8C;
    stroke-miterlimit: 10;
  }

  .st15 {
    fill: #FFFFFF;
    stroke: #004B8C;
    stroke-linecap: round;
    stroke-linejoin: round;
    stroke-miterlimit: 10;
  }

  .st16 {
    fill: #E6411A;
  }

  .st17 {
    fill: none;
    stroke: #003554;
    stroke-linecap: round;
    stroke-linejoin: round;
    stroke-miterlimit: 10;
  }

  .st18 {
    fill-rule: evenodd;
    clip-rule: evenodd;
    fill: #FFFFFF;
    stroke: #004B8C;
    stroke-miterlimit: 10;
  }

  .st19 {
    fill-rule: evenodd;
    clip-rule: evenodd;
    fill: none;
    stroke: #004B8C;
    stroke-miterlimit: 10;
  }

  .st20 {
    fill: #003554;
  }

  .st21 {
    fill: none;
    stroke: #404040;
    stroke-linecap: round;
    stroke-linejoin: round;
    stroke-miterlimit: 10;
  }

  .st22 {
    fill: none;
    stroke: #D7D7D7;
    stroke-linecap: round;
    stroke-linejoin: round;
    stroke-miterlimit: 10;
  }

  .st23 {
    fill: none;
    stroke: #404040;
    stroke-linecap: round;
    stroke-linejoin: round;
    stroke-miterlimit: 10;
    stroke-dasharray: 2, 4;
  }

  .st24 {
    fill: #EEEEEE;
  }

  .st25 {
    fill: #FBDD32;
  }

  .st26 {
    fill: none;
    stroke: #404040;
    stroke-miterlimit: 10;
  }

  .st27 {
    opacity: 0.4;
    fill: url(#SVGID_5_);
  }

  .st28 {
    opacity: 0.4;
    fill: url(#SVGID_6_);
  }

  .st29 {
    opacity: 0.4;
    fill: url(#SVGID_7_);
  }

  .st30 {
    opacity: 0.4;
    fill: url(#SVGID_8_);
  }

  .st31 {
    opacity: 0.4;
    fill: url(#SVGID_9_);
  }

  .st32 {
    fill: none;
    stroke: #D7D7D7;
    stroke-linecap: round;
    stroke-miterlimit: 10;
  }

  .st33 {
    fill: #D0E2F3;
    stroke: #004B8C;
    stroke-linecap: round;
    stroke-linejoin: round;
    stroke-miterlimit: 10;
  }

  .st34 {
    fill: #004B8C;
    stroke: #004B8C;
    stroke-linecap: round;
    stroke-linejoin: round;
    stroke-miterlimit: 10;
  }

  .st35 {
    fill: #F3F3F3;
  }

  .st36 {
    fill: #3A8DFF;
  }

  .st37 {
    fill: none;
    stroke: #E6411A;
    stroke-linecap: round;
    stroke-linejoin: round;
    stroke-miterlimit: 10;
  }

  .st38 {
    fill: none;
    stroke: #3A8DFF;
    stroke-linecap: round;
    stroke-linejoin: round;
    stroke-miterlimit: 10;
  }

  .st39 {
    fill: none;
    stroke: #BFCCD4;
    stroke-linecap: round;
    stroke-miterlimit: 10;
  }

  .st40 {
    fill: #3A8DFF;
    stroke: #004B8C;
    stroke-linecap: round;
    stroke-linejoin: round;
    stroke-miterlimit: 10;
  }

  .st41 {
    opacity: 0.2;
    fill: #156CC4;
  }

  .st42 {
    fill: #404040;
  }

  .st43 {
    fill: #929292;
  }

  .st44 {
    fill: none;
  }
</style>
  <g id="Karte">
</g>
  <g id="Grafik">
	<g>
		<polygon class="st7" points="465.44,195.614 515.495,195.614 514.665,193.454 466.867,193.454   "/>
    <path class="st7"
          d="M514.774,193.366c-0.108,3.338-0.285,35.275-0.393,38.613c-0.005,0.161-0.002,0.343,0.115,0.453    c0.086,0.081,0.212,0.1,0.329,0.113c0.373,0.04-0.116-0.276,0.669-0.765c0.999-0.623,0.754-0.751,0.754-0.856    c0-2.206,0.136-1.404,0.141-1.557c0.108-3.277,0.194-30.421,0.118-33.698c-0.002-0.093-1.136-1.795-1.662-2.259"/>
    <path class="st9"
          d="M511.378,232.699h-41.036c-2.889,0-5.23-2.342-5.23-5.23v-28.986c0-2.889,2.342-5.23,5.23-5.23h41.036    c2.889,0,5.23,2.342,5.23,5.23v28.986C516.608,230.357,514.266,232.699,511.378,232.699z"/>
    <path class="st7"
          d="M495.986,217.764c-0.108,3.338-0.215,6.676-0.323,10.015c-0.005,0.161-0.002,0.343,0.115,0.453    c0.086,0.081,0.212,0.1,0.329,0.113c0.373,0.04,0.749,0.053,1.123,0.04c0.105-0.004,0.217-0.013,0.3-0.077    c0.121-0.094,0.136-0.267,0.141-0.42c0.108-3.277,0.124-6.556,0.048-9.834c-0.002-0.093-0.006-0.192-0.058-0.27    c-0.054-0.081-0.15-0.122-0.242-0.151c-0.451-0.141-0.961-0.075-1.362,0.175"/>
    <path class="st7"
          d="M495.441,203.324c-0.108,3.338-0.215,6.676-0.323,10.015c-0.005,0.161-0.002,0.343,0.115,0.453    c0.086,0.081,0.212,0.1,0.329,0.113c0.373,0.04,0.749,0.054,1.123,0.04c0.105-0.004,0.217-0.013,0.3-0.077    c0.121-0.094,0.136-0.267,0.141-0.42c0.108-3.277,0.124-6.556,0.048-9.834c-0.002-0.093-0.006-0.192-0.058-0.27    c-0.054-0.081-0.15-0.122-0.242-0.151c-0.451-0.141-0.961-0.075-1.362,0.175"/>
    <path class="st7"
          d="M511.987,203.324c-0.108,3.338-0.215,6.676-0.323,10.015c-0.005,0.161-0.002,0.343,0.115,0.453    c0.086,0.081,0.212,0.1,0.329,0.113c0.373,0.04,0.748,0.054,1.123,0.04c0.105-0.004,0.217-0.013,0.3-0.077    c0.121-0.094,0.136-0.267,0.141-0.42c0.108-3.277,0.124-6.556,0.048-9.834c-0.002-0.093-0.006-0.192-0.058-0.27    c-0.054-0.081-0.15-0.122-0.242-0.151c-0.451-0.141-0.961-0.075-1.362,0.175"/>
    <path class="st10"
          d="M474.017,196.524h-1.727c-0.287,0-0.521-0.235-0.521-0.521v-0.081c0-0.287,0.235-0.521,0.521-0.521h1.727    c0.287,0,0.521,0.235,0.521,0.521v0.081C474.538,196.289,474.303,196.524,474.017,196.524z"/>
    <line class="st11" x1="472.74" y1="191.407" x2="472.74" y2="195.962"/>
    <line class="st11" x1="473.566" y1="191.407" x2="473.566" y2="195.962"/>
    <path class="st10"
          d="M508.86,196.524h-1.727c-0.287,0-0.521-0.235-0.521-0.521v-0.081c0-0.287,0.235-0.521,0.521-0.521h1.727    c0.287,0,0.521,0.235,0.521,0.521v0.081C509.381,196.289,509.147,196.524,508.86,196.524z"/>
    <line class="st11" x1="507.583" y1="191.407" x2="507.583" y2="195.962"/>
    <line class="st11" x1="508.409" y1="191.407" x2="508.409" y2="195.962"/>
    <rect x="484.49" y="203.217" class="st9" width="12.531" height="10.635"/>
    <rect x="500.914" y="203.217" class="st9" width="12.531" height="10.635"/>
    <rect x="485.035" y="217.657" class="st9" width="12.531" height="10.635"/>
    <path class="st7"
          d="M511.764,217.764c-0.108,3.338-0.215,6.676-0.323,10.015c-0.005,0.161-0.002,0.343,0.115,0.453    c0.086,0.081,0.212,0.1,0.329,0.113c0.373,0.04,0.749,0.053,1.123,0.04c0.105-0.004,0.217-0.013,0.3-0.077    c0.121-0.094,0.136-0.267,0.141-0.42c0.108-3.277,0.124-6.556,0.048-9.834c-0.002-0.093-0.006-0.192-0.058-0.27    c-0.054-0.081-0.15-0.122-0.242-0.151c-0.451-0.141-0.961-0.075-1.362,0.175"/>
    <rect x="500.813" y="217.657" class="st9" width="12.531" height="10.635"/>
    <path class="st7"
          d="M479.44,217.764c-0.108,3.338-0.215,6.676-0.323,10.015c-0.005,0.161-0.002,0.343,0.115,0.453    c0.086,0.081,0.212,0.1,0.329,0.113c0.373,0.04,0.749,0.053,1.123,0.04c0.105-0.004,0.217-0.013,0.3-0.077    c0.121-0.094,0.136-0.267,0.141-0.42c0.108-3.277,0.124-6.556,0.048-9.834c-0.002-0.093-0.006-0.192-0.058-0.27    c-0.054-0.081-0.15-0.122-0.242-0.151c-0.451-0.141-0.961-0.075-1.362,0.175"/>
    <path class="st7"
          d="M478.895,203.324c-0.108,3.338-0.215,6.676-0.323,10.015c-0.005,0.161-0.002,0.343,0.115,0.453    c0.086,0.081,0.212,0.1,0.329,0.113c0.373,0.04,0.749,0.054,1.123,0.04c0.105-0.004,0.217-0.013,0.3-0.077    c0.121-0.094,0.136-0.267,0.141-0.42c0.108-3.277,0.124-6.556,0.048-9.834c-0.002-0.093-0.006-0.192-0.058-0.27    c-0.054-0.081-0.15-0.122-0.242-0.151c-0.451-0.141-0.961-0.075-1.362,0.175"/>
    <rect x="468.611" y="217.657" class="st9" width="12.531" height="10.635"/>
    <rect x="468.065" y="203.217" class="st9" width="12.531" height="10.635"/>
    <g>
			<g>
				<path class="st12"
              d="M473.718,208.187h31.807c1.949,0,3.53,1.58,3.53,3.53v0.668c0,1.949-1.58,3.53-3.53,3.53h-28.428      c-1.95,0-3.53,1.58-3.53,3.53c0,1.949,1.58,3.53,3.53,3.53h30.874"/>
        <g>
					<polygon class="st13"
                   points="504.656,227.065 503.974,226.332 507.586,222.976 503.974,219.619 504.656,218.886        509.054,222.976      "/>
				</g>
			</g>
		</g>
    <line class="st11" x1="516.533" y1="199.865" x2="465.259" y2="199.865"/>
	</g>
    <g>
		<polygon class="st7" points="301.602,195.614 351.656,195.614 350.826,193.454 303.029,193.454   "/>
      <path class="st7"
            d="M350.936,193.366c-0.108,3.338-0.285,35.275-0.393,38.613c-0.005,0.161-0.002,0.343,0.115,0.453    c0.086,0.081,0.212,0.1,0.329,0.113c0.373,0.04-0.116-0.276,0.669-0.765c0.999-0.623,0.754-0.751,0.754-0.856    c0-2.206,0.136-1.404,0.141-1.557c0.108-3.277,0.194-30.421,0.118-33.698c-0.002-0.093-1.136-1.795-1.662-2.259"/>
      <path class="st9"
            d="M347.539,232.699h-41.036c-2.889,0-5.23-2.342-5.23-5.23v-28.986c0-2.889,2.342-5.23,5.23-5.23h41.036    c2.889,0,5.23,2.342,5.23,5.23v28.986C352.769,230.357,350.428,232.699,347.539,232.699z"/>
      <path class="st7"
            d="M332.147,217.764c-0.108,3.338-0.215,6.676-0.323,10.015c-0.005,0.161-0.002,0.343,0.115,0.453    c0.086,0.081,0.212,0.1,0.329,0.113c0.373,0.04,0.749,0.053,1.123,0.04c0.105-0.004,0.217-0.013,0.3-0.077    c0.121-0.094,0.136-0.267,0.141-0.42c0.108-3.277,0.124-6.556,0.048-9.834c-0.002-0.093-0.006-0.192-0.058-0.27    c-0.054-0.081-0.15-0.122-0.242-0.151c-0.451-0.141-0.961-0.075-1.362,0.175"/>
      <path class="st7"
            d="M331.602,203.324c-0.108,3.338-0.215,6.676-0.323,10.015c-0.005,0.161-0.002,0.343,0.115,0.453    c0.086,0.081,0.212,0.1,0.329,0.113c0.373,0.04,0.749,0.054,1.123,0.04c0.105-0.004,0.217-0.013,0.3-0.077    c0.121-0.094,0.136-0.267,0.141-0.42c0.108-3.277,0.124-6.556,0.048-9.834c-0.002-0.093-0.006-0.192-0.058-0.27    c-0.054-0.081-0.15-0.122-0.242-0.151c-0.451-0.141-0.961-0.075-1.362,0.175"/>
      <path class="st7"
            d="M348.148,203.324c-0.108,3.338-0.215,6.676-0.323,10.015c-0.005,0.161-0.002,0.343,0.115,0.453    c0.086,0.081,0.212,0.1,0.329,0.113c0.373,0.04,0.749,0.054,1.123,0.04c0.105-0.004,0.217-0.013,0.3-0.077    c0.121-0.094,0.136-0.267,0.141-0.42c0.108-3.277,0.124-6.556,0.048-9.834c-0.002-0.093-0.006-0.192-0.058-0.27    c-0.054-0.081-0.15-0.122-0.242-0.151c-0.451-0.141-0.961-0.075-1.362,0.175"/>
      <path class="st10"
            d="M310.178,196.524h-1.727c-0.287,0-0.521-0.235-0.521-0.521v-0.081c0-0.287,0.235-0.521,0.521-0.521h1.727    c0.287,0,0.521,0.235,0.521,0.521v0.081C310.699,196.289,310.465,196.524,310.178,196.524z"/>
      <line class="st11" x1="308.901" y1="191.407" x2="308.901" y2="195.962"/>
      <line class="st11" x1="309.727" y1="191.407" x2="309.727" y2="195.962"/>
      <path class="st10"
            d="M345.021,196.524h-1.727c-0.287,0-0.521-0.235-0.521-0.521v-0.081c0-0.287,0.235-0.521,0.521-0.521h1.727    c0.287,0,0.521,0.235,0.521,0.521v0.081C345.543,196.289,345.308,196.524,345.021,196.524z"/>
      <line class="st11" x1="343.745" y1="191.407" x2="343.745" y2="195.962"/>
      <line class="st11" x1="344.571" y1="191.407" x2="344.571" y2="195.962"/>
      <rect x="320.651" y="203.217" class="st9" width="12.531" height="10.635"/>
      <rect x="337.076" y="203.217" class="st9" width="12.531" height="10.635"/>
      <rect x="321.196" y="217.657" class="st9" width="12.531" height="10.635"/>
      <path class="st7"
            d="M347.926,217.764c-0.108,3.338-0.215,6.676-0.323,10.015c-0.005,0.161-0.002,0.343,0.115,0.453    c0.086,0.081,0.212,0.1,0.329,0.113c0.373,0.04,0.749,0.053,1.123,0.04c0.105-0.004,0.217-0.013,0.3-0.077    c0.121-0.094,0.136-0.267,0.141-0.42c0.108-3.277,0.124-6.556,0.048-9.834c-0.002-0.093-0.006-0.192-0.058-0.27    c-0.054-0.081-0.15-0.122-0.242-0.151c-0.451-0.141-0.961-0.075-1.362,0.175"/>
      <rect x="336.975" y="217.657" class="st9" width="12.531" height="10.635"/>
      <path class="st7"
            d="M315.601,217.764c-0.108,3.338-0.215,6.676-0.323,10.015c-0.005,0.161-0.002,0.343,0.115,0.453    c0.086,0.081,0.212,0.1,0.329,0.113c0.373,0.04,0.749,0.053,1.123,0.04c0.105-0.004,0.217-0.013,0.3-0.077    c0.121-0.094,0.136-0.267,0.141-0.42c0.108-3.277,0.124-6.556,0.048-9.834c-0.002-0.093-0.006-0.192-0.058-0.27    c-0.054-0.081-0.15-0.122-0.242-0.151c-0.451-0.141-0.961-0.075-1.362,0.175"/>
      <path class="st7"
            d="M315.056,203.324c-0.108,3.338-0.215,6.676-0.323,10.015c-0.005,0.161-0.002,0.343,0.115,0.453    c0.086,0.081,0.212,0.1,0.329,0.113c0.373,0.04,0.749,0.054,1.123,0.04c0.105-0.004,0.217-0.013,0.3-0.077    c0.121-0.094,0.136-0.267,0.141-0.42c0.108-3.277,0.124-6.556,0.048-9.834c-0.002-0.093-0.006-0.192-0.058-0.27    c-0.054-0.081-0.15-0.122-0.242-0.151c-0.451-0.141-0.961-0.075-1.362,0.175"/>
      <rect x="304.772" y="217.657" class="st9" width="12.531" height="10.635"/>
      <rect x="304.227" y="203.217" class="st9" width="12.531" height="10.635"/>
      <g>
			<g>
				<line class="st12" x1="309.879" y1="208.504" x2="327.222" y2="208.504"/>
        <g>
					<polygon class="st13"
                   points="323.908,212.594 323.226,211.862 326.838,208.505 323.226,205.148 323.908,204.415        328.306,208.505      "/>
				</g>
			</g>
		</g>
      <line class="st11" x1="352.694" y1="199.865" x2="301.42" y2="199.865"/>
      <g>
			<g>
				<line class="st12" x1="309.879" y1="222.975" x2="343.9" y2="222.975"/>
        <g>
					<polygon class="st13"
                   points="340.587,227.065 339.905,226.332 343.516,222.976 339.905,219.619 340.587,218.886        344.985,222.976      "/>
				</g>
			</g>
		</g>
	</g>
    <g>
		<circle class="st10" cx="327.021" cy="69.248" r="19"/>
      <path class="st7"
            d="M335.01,61.568c6.867,6.86,5.768,16.526,0.548,24.487c4.917-2.667,9.026-7.611,9.75-12.084    c0.724-4.473,0.441-10.242-1.833-14.167c-2.623-4.527-8.314-8.015-13.417-9.25c-5.103-1.235-14.922,2.516-17.75,7.25    C318.482,55.539,328.375,54.939,335.01,61.568z"/>
      <circle class="st14" cx="327.021" cy="69.248" r="19"/>
      <polyline class="st9" points="316.3,66.604 326.729,75.807 339.808,62.471   "/>
	</g>
    <g>
		<g>
			<circle class="st10" cx="327.021" cy="282.497" r="19"/>
      <path class="st7"
            d="M335.165,274.636c6.867,6.86,5.054,17.178-0.167,25.139c4.917-2.667,9.586-8.083,10.31-12.556     c0.724-4.473,0.441-10.242-1.833-14.167c-2.623-4.527-8.314-8.015-13.417-9.25c-5.103-1.235-14.922,2.516-17.75,7.25     C318.482,268.788,328.529,268.008,335.165,274.636z"/>
      <circle class="st14" cx="327.021" cy="282.497" r="19"/>
		</g>
      <path class="st15"
            d="M332.899,292.648c-1.739,1.016-3.762,1.599-5.921,1.599c-6.489,0-11.75-5.261-11.75-11.75    s5.261-11.75,11.75-11.75s11.75,5.261,11.75,11.75"/>
      <polyline class="st9" points="333.799,279.584 338.898,283.567 342.813,278.416   "/>
	</g>
    <g>
		<line class="st14" x1="306.151" y1="139.906" x2="316.151" y2="139.906"/>
      <line class="st14" x1="346.327" y1="139.906" x2="356.327" y2="139.906"/>
      <g>
			<g>
				<path class="st7"
              d="M338.966,132.146c5.31,5.363,5.31,12.968,1.251,19.159c2.936-1.969,4.9-5.243,5.463-8.721      c0.563-3.478,0.043-7.146-1.725-10.198c-2.039-3.52-5.719-6.286-9.687-7.246c-3.968-0.96-9.623,0.602-12.654,3.163      C326.414,126.543,333.272,126.396,338.966,132.146z"/>
        <ellipse class="st14" cx="331.151" cy="139.931" rx="15" ry="14.923"/>
			</g>
        <g>
				<line class="st9" x1="326.334" y1="148.075" x2="336.065" y2="131.634"/>
          <ellipse class="st9" cx="325.564" cy="136.164" rx="3.119" ry="4.53"/>
          <ellipse class="st9" cx="336.738" cy="143.382" rx="3.119" ry="4.53"/>
			</g>
		</g>
      <g>
			<g>
				<path class="st7"
              d="M301.608,134.716c3.54,3.576,3.54,8.645,0.834,12.772c1.958-1.312,3.267-3.495,3.642-5.814      c0.375-2.319,0.028-4.764-1.15-6.799c-1.36-2.347-3.813-4.19-6.458-4.831c-2.645-0.64-6.416,0.401-8.436,2.109      C293.24,130.98,297.812,130.882,301.608,134.716z"/>
        <ellipse class="st14" cx="296.398" cy="139.906" rx="10" ry="9.949"/>
			</g>
        <g>
				<line class="st9" x1="293.187" y1="145.335" x2="299.673" y2="134.374"/>
          <ellipse class="st9" cx="292.673" cy="137.394" rx="2.079" ry="3.02"/>
          <ellipse class="st9" cx="300.122" cy="142.206" rx="2.079" ry="3.02"/>
			</g>
		</g>
      <g>
			<g>
				<path class="st7"
              d="M365.303,136.771c2.124,2.145,2.124,5.187,0.5,7.663c1.175-0.787,1.96-2.097,2.185-3.488      s0.017-2.858-0.69-4.079c-0.816-1.408-2.288-2.514-3.875-2.898s-3.849,0.241-5.062,1.265      C360.283,134.53,363.026,134.471,365.303,136.771z"/>
        <ellipse class="st14" cx="362.177" cy="139.885" rx="6" ry="5.969"/>
			</g>
        <g>
				<line class="st9" x1="360.251" y1="143.143" x2="364.143" y2="136.566"/>
          <ellipse class="st9" cx="359.943" cy="138.378" rx="1.248" ry="1.812"/>
          <ellipse class="st9" cx="364.412" cy="141.266" rx="1.248" ry="1.812"/>
			</g>
		</g>
	</g>
    <g>
		<g>
			<g>
				<path class="st7"
              d="M500.756,129.522c6.727,6.794,6.727,16.426,1.585,24.268c3.719-2.494,6.207-6.641,6.92-11.046      s0.054-9.051-2.186-12.917c-2.583-4.459-7.245-7.962-12.271-9.178c-5.026-1.216-12.189,0.762-16.028,4.007      C484.857,122.425,493.544,122.238,500.756,129.522z"/>
        <ellipse class="st14" cx="490.857" cy="139.383" rx="19" ry="18.903"/>
			</g>
		</g>
      <g>
			<line class="st9" x1="485.112" y1="149.093" x2="496.719" y2="129.48"/>
        <ellipse class="st9" cx="484.193" cy="134.884" rx="3.721" ry="5.403"/>
        <ellipse class="st9" cx="497.522" cy="143.494" rx="3.721" ry="5.403"/>
		</g>
	</g>
    <g>
		<g>
			<circle class="st10" cx="490.86" cy="69.248" r="19"/>
      <path class="st7"
            d="M498.849,61.568c6.867,6.86,5.768,16.526,0.548,24.487c4.917-2.667,9.026-7.611,9.75-12.084     c0.724-4.473,0.441-10.242-1.833-14.167c-2.623-4.527-8.314-8.015-13.417-9.25s-14.922,2.516-17.75,7.25     C482.32,55.539,492.214,54.939,498.849,61.568z"/>
      <circle class="st14" cx="490.86" cy="69.248" r="19"/>
		</g>
      <path class="st9" d="M481.978,57.888c6.119,7.389,12.239,14.778,18.358,22.167"/>
      <path class="st9" d="M481.978,80.055c6.119-7.389,12.239-14.778,18.358-22.167"/>
	</g>
    <line class="st22" x1="150.944" y1="41.69" x2="573.38" y2="41.69"/>
    <line class="st22" x1="150.944" y1="112.755" x2="572.745" y2="112.755"/>
    <line class="st22" x1="150.944" y1="183.821" x2="572.745" y2="183.821"/>
    <line class="st22" x1="150.944" y1="254.886" x2="572.745" y2="254.886"/>
    <line class="st22" x1="150.944" y1="325.952" x2="572.745" y2="325.952"/>
    <line class="st22" x1="409.563" y1="42.256" x2="409.563" y2="325.814"/>
    <line class="st22" x1="242.625" y1="42.256" x2="242.625" y2="325.814"/>
    <line class="st22" x1="246.431" y1="42.256" x2="246.431" y2="325.814"/>
    <g>
		<g>
			<circle class="st10" cx="490.86" cy="282.497" r="19"/>
      <path class="st7"
            d="M498.849,274.816c6.867,6.86,5.768,16.526,0.548,24.487c4.917-2.667,9.026-7.611,9.75-12.084     c0.724-4.473,0.441-10.242-1.833-14.167c-2.623-4.527-8.314-8.015-13.417-9.25s-14.922,2.516-17.75,7.25     C482.32,268.788,492.214,268.188,498.849,274.816z"/>
      <circle class="st14" cx="490.86" cy="282.497" r="19"/>
		</g>
      <line class="st9" x1="481.978" y1="271.136" x2="495.73" y2="287.803"/>
      <line class="st9" x1="481.978" y1="293.303" x2="500.336" y2="271.136"/>
      <g>
			<path class="st13"
            d="M499.409,289.159v-0.515c0-0.743,0.115-1.354,0.345-1.835c0.229-0.479,0.657-0.986,1.283-1.52     c0.869-0.73,1.417-1.28,1.644-1.648c0.227-0.369,0.34-0.813,0.34-1.335c0-0.647-0.209-1.148-0.628-1.501     c-0.418-0.353-1.02-0.528-1.806-0.528c-0.504,0-0.996,0.059-1.475,0.176c-0.479,0.118-1.028,0.332-1.647,0.644l-0.565-1.287     c1.207-0.629,2.468-0.943,3.784-0.943c1.22,0,2.168,0.299,2.845,0.896c0.677,0.597,1.016,1.438,1.016,2.525     c0,0.464-0.062,0.872-0.188,1.225c-0.124,0.353-0.308,0.686-0.551,1.001c-0.242,0.314-0.766,0.82-1.57,1.52     c-0.646,0.547-1.071,1.001-1.279,1.363c-0.208,0.361-0.312,0.845-0.312,1.448v0.314H499.409z M498.939,291.99     c0-0.864,0.384-1.297,1.149-1.297c0.371,0,0.656,0.111,0.857,0.334s0.302,0.543,0.302,0.963c0,0.406-0.102,0.723-0.307,0.948     c-0.204,0.225-0.488,0.338-0.853,0.338c-0.332,0-0.606-0.1-0.823-0.3C499.048,292.777,498.939,292.447,498.939,291.99z"/>
		</g>
	</g>
</g>
  <g id="Text">
	<g>
		<path class="st42" d="M295.527,34.212h-2.271v-8.818h-2.908v-1.89h8.086v1.89h-2.908V34.212z"/>
    <path class="st42"
          d="M305.107,34.212l-0.432-1.113h-0.059c-0.376,0.474-0.763,0.802-1.161,0.985    c-0.398,0.183-0.917,0.274-1.557,0.274c-0.786,0-1.405-0.225-1.856-0.674c-0.452-0.449-0.678-1.089-0.678-1.919    c0-0.869,0.304-1.51,0.912-1.923c0.607-0.412,1.524-0.641,2.75-0.685l1.421-0.044v-0.359c0-0.829-0.425-1.244-1.274-1.244    c-0.654,0-1.423,0.197-2.307,0.593l-0.74-1.509c0.942-0.493,1.987-0.74,3.135-0.74c1.099,0,1.941,0.24,2.527,0.719    s0.879,1.206,0.879,2.182v5.457H305.107z M304.448,30.418l-0.864,0.029c-0.649,0.02-1.133,0.137-1.45,0.352    s-0.476,0.542-0.476,0.981c0,0.63,0.361,0.945,1.084,0.945c0.518,0,0.931-0.149,1.242-0.447c0.31-0.298,0.465-0.693,0.465-1.187    V30.418z"/>
    <path class="st42"
          d="M316.093,26.024v1.136l-1.282,0.329c0.234,0.366,0.352,0.776,0.352,1.23c0,0.879-0.307,1.563-0.919,2.055    c-0.613,0.49-1.464,0.735-2.553,0.735l-0.403-0.021l-0.33-0.037c-0.229,0.176-0.344,0.372-0.344,0.586    c0,0.322,0.41,0.484,1.23,0.484h1.392c0.898,0,1.583,0.192,2.054,0.578s0.707,0.952,0.707,1.699c0,0.957-0.399,1.699-1.197,2.227    c-0.799,0.527-1.945,0.791-3.439,0.791c-1.143,0-2.016-0.199-2.619-0.597c-0.603-0.398-0.904-0.956-0.904-1.674    c0-0.493,0.154-0.906,0.461-1.237c0.308-0.332,0.759-0.569,1.355-0.711c-0.229-0.098-0.43-0.258-0.601-0.479    c-0.171-0.223-0.256-0.458-0.256-0.707c0-0.312,0.09-0.572,0.271-0.78c0.181-0.207,0.442-0.411,0.784-0.611    c-0.43-0.186-0.771-0.483-1.022-0.894s-0.377-0.894-0.377-1.45c0-0.894,0.291-1.584,0.872-2.072s1.411-0.732,2.49-0.732    c0.229,0,0.501,0.021,0.817,0.062c0.314,0.042,0.516,0.072,0.604,0.092H316.093z M309.772,35.369c0,0.308,0.147,0.55,0.443,0.726    c0.295,0.176,0.709,0.264,1.241,0.264c0.801,0,1.428-0.11,1.882-0.33s0.681-0.52,0.681-0.9c0-0.309-0.134-0.521-0.403-0.638    s-0.684-0.176-1.245-0.176h-1.157c-0.41,0-0.753,0.097-1.029,0.289C309.91,34.797,309.772,35.052,309.772,35.369z M310.585,28.704    c0,0.444,0.101,0.796,0.304,1.055c0.202,0.259,0.511,0.389,0.926,0.389c0.42,0,0.728-0.13,0.923-0.389s0.293-0.61,0.293-1.055    c0-0.986-0.405-1.479-1.216-1.479C310.996,27.225,310.585,27.718,310.585,28.704z"/>
    <path class="st42"
          d="M321.147,34.359c-1.318,0-2.349-0.363-3.091-1.092c-0.742-0.727-1.113-1.758-1.113-3.09    c0-1.372,0.343-2.434,1.029-3.183c0.686-0.75,1.634-1.124,2.845-1.124c1.157,0,2.058,0.329,2.703,0.988s0.967,1.57,0.967,2.732    v1.084h-5.281c0.024,0.635,0.212,1.13,0.564,1.486c0.352,0.356,0.845,0.535,1.479,0.535c0.493,0,0.959-0.052,1.399-0.154    s0.898-0.266,1.377-0.49v1.729c-0.391,0.195-0.808,0.34-1.252,0.436C322.329,34.311,321.787,34.359,321.147,34.359z     M320.832,27.459c-0.474,0-0.845,0.15-1.113,0.45c-0.269,0.301-0.422,0.727-0.461,1.278h3.135    c-0.01-0.552-0.154-0.978-0.432-1.278C321.682,27.61,321.306,27.459,320.832,27.459z"/>
    <path class="st42"
          d="M332.016,31.78c0,0.84-0.292,1.479-0.875,1.919c-0.584,0.439-1.457,0.659-2.619,0.659    c-0.596,0-1.104-0.04-1.523-0.121c-0.42-0.08-0.813-0.198-1.179-0.355v-1.846c0.415,0.196,0.883,0.359,1.402,0.491    c0.521,0.132,0.978,0.198,1.374,0.198c0.811,0,1.216-0.234,1.216-0.703c0-0.176-0.054-0.319-0.161-0.429    c-0.107-0.11-0.293-0.234-0.557-0.374c-0.264-0.139-0.615-0.301-1.055-0.486c-0.63-0.264-1.093-0.508-1.388-0.732    s-0.51-0.482-0.645-0.773c-0.134-0.29-0.201-0.648-0.201-1.072c0-0.728,0.282-1.291,0.846-1.688    c0.564-0.398,1.364-0.597,2.399-0.597c0.986,0,1.946,0.215,2.878,0.645l-0.674,1.611c-0.41-0.176-0.793-0.32-1.15-0.433    s-0.72-0.169-1.091-0.169c-0.659,0-0.989,0.179-0.989,0.535c0,0.2,0.106,0.373,0.319,0.52c0.212,0.146,0.677,0.364,1.395,0.652    c0.64,0.259,1.108,0.501,1.406,0.725c0.298,0.226,0.518,0.484,0.659,0.777S332.016,31.375,332.016,31.78z"/>
    <path class="st42"
          d="M340.886,26.024v1.136l-1.282,0.329c0.234,0.366,0.352,0.776,0.352,1.23c0,0.879-0.307,1.563-0.919,2.055    c-0.613,0.49-1.464,0.735-2.553,0.735l-0.403-0.021l-0.33-0.037c-0.229,0.176-0.344,0.372-0.344,0.586    c0,0.322,0.41,0.484,1.23,0.484h1.392c0.898,0,1.583,0.192,2.054,0.578s0.707,0.952,0.707,1.699c0,0.957-0.399,1.699-1.197,2.227    c-0.799,0.527-1.945,0.791-3.439,0.791c-1.143,0-2.016-0.199-2.619-0.597c-0.603-0.398-0.904-0.956-0.904-1.674    c0-0.493,0.154-0.906,0.461-1.237c0.308-0.332,0.759-0.569,1.355-0.711c-0.229-0.098-0.43-0.258-0.601-0.479    c-0.171-0.223-0.256-0.458-0.256-0.707c0-0.312,0.09-0.572,0.271-0.78c0.181-0.207,0.442-0.411,0.784-0.611    c-0.43-0.186-0.771-0.483-1.022-0.894s-0.377-0.894-0.377-1.45c0-0.894,0.291-1.584,0.872-2.072s1.411-0.732,2.49-0.732    c0.229,0,0.501,0.021,0.817,0.062c0.314,0.042,0.516,0.072,0.604,0.092H340.886z M334.565,35.369c0,0.308,0.147,0.55,0.443,0.726    c0.295,0.176,0.709,0.264,1.241,0.264c0.801,0,1.428-0.11,1.882-0.33s0.681-0.52,0.681-0.9c0-0.309-0.134-0.521-0.403-0.638    s-0.684-0.176-1.245-0.176h-1.157c-0.41,0-0.753,0.097-1.029,0.289C334.703,34.797,334.565,35.052,334.565,35.369z     M335.378,28.704c0,0.444,0.101,0.796,0.304,1.055c0.202,0.259,0.511,0.389,0.926,0.389c0.42,0,0.728-0.13,0.923-0.389    s0.293-0.61,0.293-1.055c0-0.986-0.405-1.479-1.216-1.479C335.788,27.225,335.378,27.718,335.378,28.704z"/>
    <path class="st42"
          d="M345.939,34.359c-1.318,0-2.349-0.363-3.091-1.092c-0.742-0.727-1.113-1.758-1.113-3.09    c0-1.372,0.343-2.434,1.029-3.183c0.686-0.75,1.634-1.124,2.845-1.124c1.157,0,2.058,0.329,2.703,0.988s0.967,1.57,0.967,2.732    v1.084h-5.281c0.024,0.635,0.212,1.13,0.564,1.486c0.352,0.356,0.845,0.535,1.479,0.535c0.493,0,0.959-0.052,1.399-0.154    s0.898-0.266,1.377-0.49v1.729c-0.391,0.195-0.808,0.34-1.252,0.436C347.121,34.311,346.579,34.359,345.939,34.359z     M345.625,27.459c-0.474,0-0.845,0.15-1.113,0.45c-0.269,0.301-0.422,0.727-0.461,1.278h3.135    c-0.01-0.552-0.154-0.978-0.432-1.278C346.474,27.61,346.098,27.459,345.625,27.459z"/>
    <path class="st42" d="M353.33,34.212h-2.234V22.816h2.234V34.212z"/>
    <path class="st42"
          d="M358.266,34.359c-0.962,0-1.718-0.373-2.267-1.121c-0.55-0.746-0.824-1.781-0.824-3.105    c0-1.342,0.279-2.389,0.839-3.138c0.559-0.75,1.329-1.124,2.311-1.124c1.03,0,1.816,0.4,2.358,1.201h0.073    c-0.112-0.61-0.168-1.155-0.168-1.634v-2.622h2.241v11.396h-1.714l-0.432-1.062h-0.095    C360.08,33.956,359.306,34.359,358.266,34.359z M359.05,32.579c0.571,0,0.99-0.166,1.256-0.498    c0.266-0.332,0.411-0.896,0.436-1.692v-0.241c0-0.879-0.136-1.51-0.406-1.891c-0.271-0.381-0.712-0.57-1.322-0.57    c-0.498,0-0.885,0.211-1.161,0.633c-0.276,0.423-0.414,1.037-0.414,1.842c0,0.807,0.139,1.41,0.417,1.813    C358.134,32.377,358.532,32.579,359.05,32.579z"/>
	</g>
    <g>
		<path class="st42"
          d="M259.276,176.353l-2.641-6.957h1.13l1.498,4.126c0.338,0.965,0.538,1.591,0.597,1.879h0.051    c0.046-0.225,0.193-0.688,0.441-1.394c0.247-0.704,0.803-2.241,1.666-4.611h1.13l-2.641,6.957H259.276z"/>
      <path class="st42"
            d="M268.543,176.353l-0.209-0.99h-0.051c-0.347,0.436-0.693,0.731-1.038,0.886    c-0.345,0.154-0.776,0.231-1.292,0.231c-0.69,0-1.23-0.178-1.622-0.533c-0.391-0.355-0.587-0.861-0.587-1.518    c0-1.404,1.124-2.141,3.371-2.209l1.181-0.037v-0.432c0-0.547-0.118-0.949-0.352-1.21c-0.235-0.26-0.611-0.39-1.127-0.39    c-0.58,0-1.236,0.178-1.968,0.533l-0.324-0.807c0.343-0.187,0.718-0.332,1.126-0.438c0.409-0.106,0.818-0.159,1.229-0.159    c0.83,0,1.444,0.185,1.844,0.552c0.4,0.369,0.6,0.959,0.6,1.771v4.748H268.543z M266.163,175.61c0.656,0,1.171-0.181,1.545-0.54    c0.375-0.359,0.562-0.863,0.562-1.511v-0.629l-1.054,0.045c-0.838,0.029-1.442,0.16-1.812,0.391    c-0.371,0.23-0.556,0.589-0.556,1.076c0,0.381,0.115,0.67,0.346,0.869C265.426,175.511,265.749,175.61,266.163,175.61z"/>
      <path class="st42"
            d="M274.669,169.269c0.309,0,0.586,0.025,0.832,0.076l-0.146,0.978c-0.288-0.063-0.542-0.095-0.762-0.095    c-0.563,0-1.044,0.229-1.444,0.686c-0.399,0.457-0.6,1.025-0.6,1.707v3.732h-1.054v-6.957h0.87l0.121,1.289h0.051    c0.258-0.453,0.569-0.803,0.933-1.048S274.233,169.269,274.669,169.269z"/>
      <path class="st42"
            d="M276.713,167.511c0-0.242,0.059-0.418,0.178-0.53s0.267-0.169,0.444-0.169c0.169,0,0.315,0.058,0.438,0.172    s0.184,0.29,0.184,0.527c0,0.236-0.062,0.413-0.184,0.529s-0.269,0.175-0.438,0.175c-0.178,0-0.326-0.059-0.444-0.175    S276.713,167.747,276.713,167.511z M277.855,176.353h-1.054v-6.957h1.054V176.353z"/>
      <path class="st42"
            d="M284.368,176.353l-0.209-0.99h-0.051c-0.347,0.436-0.693,0.731-1.038,0.886    c-0.345,0.154-0.776,0.231-1.292,0.231c-0.69,0-1.23-0.178-1.622-0.533c-0.391-0.355-0.587-0.861-0.587-1.518    c0-1.404,1.124-2.141,3.371-2.209l1.181-0.037v-0.432c0-0.547-0.118-0.949-0.352-1.21c-0.235-0.26-0.611-0.39-1.127-0.39    c-0.58,0-1.236,0.178-1.968,0.533l-0.324-0.807c0.343-0.187,0.718-0.332,1.126-0.438c0.409-0.106,0.818-0.159,1.229-0.159    c0.83,0,1.444,0.185,1.844,0.552c0.4,0.369,0.6,0.959,0.6,1.771v4.748H284.368z M281.988,175.61c0.656,0,1.171-0.181,1.545-0.54    c0.375-0.359,0.562-0.863,0.562-1.511v-0.629l-1.054,0.045c-0.838,0.029-1.442,0.16-1.812,0.391    c-0.371,0.23-0.556,0.589-0.556,1.076c0,0.381,0.115,0.67,0.346,0.869C281.25,175.511,281.573,175.61,281.988,175.61z"/>
      <path class="st42"
            d="M290.557,169.281c0.914,0,1.624,0.312,2.13,0.937c0.505,0.624,0.758,1.508,0.758,2.65    s-0.255,2.029-0.765,2.662c-0.51,0.633-1.217,0.949-2.123,0.949c-0.453,0-0.866-0.084-1.241-0.251    c-0.374-0.167-0.688-0.424-0.942-0.771h-0.076l-0.222,0.895h-0.755v-9.877h1.054v2.399c0,0.537-0.017,1.02-0.051,1.447h0.051    C288.864,169.628,289.592,169.281,290.557,169.281z M290.405,170.163c-0.719,0-1.238,0.207-1.555,0.619    c-0.317,0.413-0.476,1.107-0.476,2.086c0,0.977,0.163,1.677,0.489,2.098s0.849,0.631,1.568,0.631c0.647,0,1.13-0.235,1.447-0.707    s0.476-1.15,0.476-2.035c0-0.905-0.159-1.58-0.476-2.024S291.069,170.163,290.405,170.163z"/>
      <path class="st42"
            d="M298.225,176.48c-1.028,0-1.84-0.313-2.434-0.939c-0.595-0.626-0.892-1.496-0.892-2.609    c0-1.121,0.276-2.012,0.829-2.672c0.552-0.66,1.293-0.99,2.225-0.99c0.872,0,1.562,0.287,2.069,0.86s0.762,1.329,0.762,2.269    v0.667h-4.792c0.021,0.816,0.228,1.437,0.619,1.86c0.392,0.423,0.943,0.635,1.654,0.635c0.749,0,1.49-0.157,2.222-0.471v0.939    c-0.373,0.161-0.725,0.276-1.057,0.347C299.096,176.444,298.695,176.48,298.225,176.48z M297.939,170.152    c-0.559,0-1.004,0.182-1.336,0.545c-0.333,0.364-0.528,0.868-0.587,1.512h3.637c0-0.665-0.148-1.174-0.444-1.527    S298.49,170.152,297.939,170.152z"/>
      <path class="st42" d="M303.633,176.353h-1.054v-9.877h1.054V176.353z"/>
      <path class="st42"
            d="M306.972,174.842l0.095,0.146c-0.11,0.424-0.269,0.916-0.476,1.477s-0.423,1.082-0.647,1.564h-0.793    c0.114-0.44,0.24-0.984,0.377-1.631c0.138-0.648,0.234-1.166,0.289-1.556H306.972z"/>
      <path class="st42"
            d="M315.37,176.48c-1.028,0-1.84-0.313-2.434-0.939c-0.595-0.626-0.892-1.496-0.892-2.609    c0-1.121,0.276-2.012,0.829-2.672c0.552-0.66,1.293-0.99,2.225-0.99c0.872,0,1.562,0.287,2.069,0.86s0.762,1.329,0.762,2.269    v0.667h-4.792c0.021,0.816,0.228,1.437,0.619,1.86c0.392,0.423,0.943,0.635,1.654,0.635c0.749,0,1.49-0.157,2.222-0.471v0.939    c-0.373,0.161-0.725,0.276-1.057,0.347C316.241,176.444,315.84,176.48,315.37,176.48z M315.084,170.152    c-0.559,0-1.004,0.182-1.336,0.545c-0.333,0.364-0.528,0.868-0.587,1.512h3.637c0-0.665-0.148-1.174-0.444-1.527    S315.635,170.152,315.084,170.152z"/>
      <path class="st42"
            d="M324.485,176.353v-4.5c0-0.567-0.129-0.99-0.387-1.27s-0.662-0.42-1.212-0.42    c-0.732,0-1.267,0.199-1.603,0.598c-0.337,0.397-0.505,1.049-0.505,1.955v3.637h-1.054v-9.877h1.054v2.99    c0,0.359-0.017,0.657-0.051,0.895h0.063c0.208-0.334,0.502-0.598,0.886-0.79c0.383-0.192,0.82-0.289,1.311-0.289    c0.851,0,1.488,0.202,1.914,0.606c0.425,0.404,0.638,1.046,0.638,1.926v4.539H324.485z"/>
      <path class="st42"
            d="M330.643,176.48c-1.028,0-1.84-0.313-2.434-0.939c-0.595-0.626-0.892-1.496-0.892-2.609    c0-1.121,0.276-2.012,0.829-2.672c0.552-0.66,1.293-0.99,2.225-0.99c0.872,0,1.562,0.287,2.069,0.86s0.762,1.329,0.762,2.269    v0.667h-4.792c0.021,0.816,0.228,1.437,0.619,1.86c0.392,0.423,0.943,0.635,1.654,0.635c0.749,0,1.49-0.157,2.222-0.471v0.939    c-0.373,0.161-0.725,0.276-1.057,0.347C331.513,176.444,331.112,176.48,330.643,176.48z M330.357,170.152    c-0.559,0-1.004,0.182-1.336,0.545c-0.333,0.364-0.528,0.868-0.587,1.512h3.637c0-0.665-0.148-1.174-0.444-1.527    S330.907,170.152,330.357,170.152z"/>
      <path class="st42"
            d="M338.171,169.269c0.309,0,0.586,0.025,0.832,0.076l-0.146,0.978c-0.288-0.063-0.542-0.095-0.762-0.095    c-0.563,0-1.044,0.229-1.444,0.686c-0.399,0.457-0.6,1.025-0.6,1.707v3.732h-1.054v-6.957h0.87l0.121,1.289h0.051    c0.258-0.453,0.569-0.803,0.933-1.048S337.735,169.269,338.171,169.269z"/>
      <path class="st42"
            d="M348.441,176.353v-4.5c0-0.567-0.129-0.99-0.387-1.27s-0.662-0.42-1.212-0.42    c-0.728,0-1.261,0.197-1.6,0.591s-0.508,1.043-0.508,1.948v3.65h-1.054v-6.957h0.857l0.171,0.952h0.051    c0.216-0.343,0.519-0.608,0.908-0.797s0.823-0.282,1.301-0.282c0.838,0,1.468,0.202,1.892,0.606s0.635,1.05,0.635,1.938v4.539    H348.441z"/>
      <path class="st42"
            d="M351.571,167.511c0-0.242,0.059-0.418,0.178-0.53s0.267-0.169,0.444-0.169c0.169,0,0.315,0.058,0.438,0.172    s0.184,0.29,0.184,0.527c0,0.236-0.062,0.413-0.184,0.529s-0.269,0.175-0.438,0.175c-0.178,0-0.326-0.059-0.444-0.175    S351.571,167.747,351.571,167.511z M352.713,176.353h-1.054v-6.957h1.054V176.353z"/>
      <path class="st42"
            d="M357.887,176.48c-1.028,0-1.84-0.313-2.434-0.939c-0.595-0.626-0.892-1.496-0.892-2.609    c0-1.121,0.276-2.012,0.829-2.672c0.552-0.66,1.293-0.99,2.225-0.99c0.872,0,1.562,0.287,2.069,0.86s0.762,1.329,0.762,2.269    v0.667h-4.792c0.021,0.816,0.228,1.437,0.619,1.86c0.392,0.423,0.943,0.635,1.654,0.635c0.749,0,1.49-0.157,2.222-0.471v0.939    c-0.373,0.161-0.725,0.276-1.057,0.347C358.757,176.444,358.356,176.48,357.887,176.48z M357.601,170.152    c-0.559,0-1.004,0.182-1.336,0.545c-0.333,0.364-0.528,0.868-0.587,1.512h3.637c0-0.665-0.148-1.174-0.444-1.527    S358.151,170.152,357.601,170.152z"/>
      <path class="st42"
            d="M366.977,175.419h-0.057c-0.487,0.707-1.214,1.061-2.184,1.061c-0.91,0-1.618-0.311-2.124-0.934    c-0.505-0.621-0.758-1.506-0.758-2.652c0-1.147,0.254-2.038,0.762-2.673s1.214-0.952,2.12-0.952c0.944,0,1.667,0.343,2.171,1.028    h0.083l-0.044-0.501l-0.025-0.489v-2.831h1.054v9.877h-0.857L366.977,175.419z M364.869,175.597c0.719,0,1.241-0.195,1.564-0.587    c0.324-0.392,0.486-1.022,0.486-1.895v-0.222c0-0.986-0.164-1.69-0.492-2.111c-0.328-0.421-0.852-0.631-1.571-0.631    c-0.618,0-1.091,0.239-1.419,0.72c-0.328,0.48-0.492,1.159-0.492,2.034c0,0.889,0.163,1.56,0.489,2.013    S364.239,175.597,364.869,175.597z"/>
      <path class="st42"
            d="M373.381,169.269c0.309,0,0.586,0.025,0.832,0.076l-0.146,0.978c-0.288-0.063-0.542-0.095-0.762-0.095    c-0.563,0-1.044,0.229-1.444,0.686c-0.399,0.457-0.6,1.025-0.6,1.707v3.732h-1.054v-6.957h0.87l0.121,1.289h0.051    c0.258-0.453,0.569-0.803,0.933-1.048S372.945,169.269,373.381,169.269z"/>
      <path class="st42"
            d="M375.425,167.511c0-0.242,0.059-0.418,0.178-0.53s0.267-0.169,0.444-0.169c0.169,0,0.315,0.058,0.438,0.172    s0.184,0.29,0.184,0.527c0,0.236-0.062,0.413-0.184,0.529s-0.269,0.175-0.438,0.175c-0.178,0-0.326-0.059-0.444-0.175    S375.425,167.747,375.425,167.511z M376.568,176.353h-1.054v-6.957h1.054V176.353z"/>
      <path class="st42"
            d="M384.496,169.396v0.666l-1.289,0.152c0.119,0.148,0.224,0.342,0.317,0.581s0.14,0.509,0.14,0.81    c0,0.682-0.233,1.225-0.698,1.631s-1.104,0.609-1.917,0.609c-0.208,0-0.402-0.017-0.584-0.051    c-0.449,0.237-0.673,0.536-0.673,0.896c0,0.19,0.078,0.331,0.235,0.422s0.425,0.137,0.806,0.137h1.231    c0.753,0,1.332,0.159,1.736,0.476c0.404,0.318,0.606,0.779,0.606,1.385c0,0.77-0.309,1.356-0.927,1.761s-1.519,0.606-2.704,0.606    c-0.91,0-1.611-0.169-2.104-0.508c-0.493-0.339-0.74-0.816-0.74-1.435c0-0.423,0.135-0.789,0.406-1.099    c0.271-0.309,0.652-0.518,1.143-0.628c-0.178-0.08-0.327-0.205-0.448-0.374c-0.12-0.17-0.181-0.366-0.181-0.591    c0-0.254,0.068-0.476,0.203-0.667c0.135-0.189,0.349-0.374,0.641-0.552c-0.36-0.148-0.653-0.399-0.879-0.755    c-0.226-0.355-0.339-0.762-0.339-1.219c0-0.762,0.229-1.35,0.686-1.762c0.457-0.413,1.104-0.619,1.942-0.619    c0.364,0,0.692,0.042,0.984,0.127H384.496z M378.948,177.521c0,0.377,0.159,0.662,0.476,0.857    c0.317,0.194,0.772,0.291,1.365,0.291c0.884,0,1.54-0.132,1.964-0.396c0.426-0.265,0.638-0.623,0.638-1.076    c0-0.376-0.116-0.638-0.349-0.783c-0.233-0.146-0.671-0.219-1.314-0.219h-1.263c-0.478,0-0.851,0.113-1.117,0.342    S378.948,177.093,378.948,177.521z M379.52,171.624c0,0.486,0.138,0.854,0.413,1.104c0.275,0.25,0.658,0.375,1.149,0.375    c1.028,0,1.542-0.499,1.542-1.498c0-1.045-0.521-1.568-1.562-1.568c-0.495,0-0.876,0.134-1.143,0.4S379.52,171.099,379.52,171.624    z"/>
      <path class="st42"
            d="M388.863,176.48c-1.028,0-1.84-0.313-2.434-0.939c-0.595-0.626-0.892-1.496-0.892-2.609    c0-1.121,0.276-2.012,0.829-2.672c0.552-0.66,1.293-0.99,2.225-0.99c0.872,0,1.562,0.287,2.069,0.86s0.762,1.329,0.762,2.269    v0.667h-4.792c0.021,0.816,0.228,1.437,0.619,1.86c0.392,0.423,0.943,0.635,1.654,0.635c0.749,0,1.49-0.157,2.222-0.471v0.939    c-0.373,0.161-0.725,0.276-1.057,0.347C389.734,176.444,389.333,176.48,388.863,176.48z M388.578,170.152    c-0.559,0-1.004,0.182-1.336,0.545c-0.333,0.364-0.528,0.868-0.587,1.512h3.637c0-0.665-0.148-1.174-0.444-1.527    S389.128,170.152,388.578,170.152z"/>
      <path class="st42"
            d="M396.392,169.269c0.309,0,0.586,0.025,0.831,0.076l-0.146,0.978c-0.288-0.063-0.542-0.095-0.762-0.095    c-0.563,0-1.044,0.229-1.444,0.686c-0.399,0.457-0.6,1.025-0.6,1.707v3.732h-1.054v-6.957h0.87l0.121,1.289h0.051    c0.258-0.453,0.569-0.803,0.933-1.048S395.956,169.269,396.392,169.269z"/>
	</g>
    <g>
		<path class="st42"
          d="M295.73,103.019c0,0.648-0.241,1.147-0.724,1.498c-0.482,0.352-1.16,0.527-2.031,0.527    c-0.922,0-1.642-0.146-2.158-0.438v-0.979c0.334,0.17,0.693,0.303,1.076,0.4c0.383,0.098,0.752,0.146,1.108,0.146    c0.55,0,0.973-0.088,1.27-0.264s0.444-0.443,0.444-0.803c0-0.271-0.118-0.503-0.352-0.695c-0.235-0.192-0.693-0.42-1.375-0.683    c-0.647-0.241-1.108-0.452-1.38-0.632c-0.273-0.18-0.477-0.384-0.609-0.612c-0.134-0.229-0.2-0.501-0.2-0.819    c0-0.566,0.23-1.014,0.692-1.342s1.094-0.492,1.898-0.492c0.749,0,1.481,0.152,2.196,0.457l-0.375,0.857    c-0.698-0.288-1.331-0.432-1.898-0.432c-0.5,0-0.876,0.078-1.13,0.234s-0.381,0.372-0.381,0.647c0,0.187,0.048,0.345,0.143,0.476    c0.096,0.132,0.249,0.257,0.46,0.375s0.618,0.29,1.219,0.514c0.825,0.301,1.383,0.604,1.672,0.908    C295.585,102.175,295.73,102.558,295.73,103.019z"/>
      <path class="st42"
            d="M300.383,105.044c-1.028,0-1.84-0.313-2.434-0.939c-0.595-0.626-0.892-1.496-0.892-2.609    c0-1.121,0.276-2.012,0.829-2.672c0.552-0.66,1.293-0.99,2.225-0.99c0.872,0,1.562,0.287,2.069,0.86s0.762,1.329,0.762,2.269    v0.667h-4.792c0.021,0.816,0.228,1.437,0.619,1.86c0.392,0.423,0.943,0.635,1.654,0.635c0.749,0,1.49-0.157,2.222-0.471v0.939    c-0.373,0.161-0.725,0.276-1.057,0.347C301.254,105.009,300.853,105.044,300.383,105.044z M300.098,98.716    c-0.559,0-1.004,0.182-1.336,0.545c-0.333,0.364-0.528,0.868-0.587,1.512h3.637c0-0.665-0.148-1.174-0.444-1.527    S300.648,98.716,300.098,98.716z"/>
      <path class="st42"
            d="M309.499,104.917v-4.5c0-0.567-0.129-0.99-0.387-1.27s-0.662-0.42-1.212-0.42    c-0.732,0-1.267,0.199-1.603,0.598c-0.337,0.397-0.505,1.049-0.505,1.955v3.637h-1.054V95.04h1.054v2.99    c0,0.359-0.017,0.657-0.051,0.895h0.063c0.208-0.334,0.502-0.598,0.886-0.79c0.383-0.192,0.82-0.289,1.311-0.289    c0.851,0,1.488,0.202,1.914,0.606c0.425,0.404,0.638,1.046,0.638,1.926v4.539H309.499z"/>
      <path class="st42"
            d="M315.891,97.833c0.309,0,0.586,0.025,0.832,0.076l-0.146,0.978c-0.288-0.063-0.542-0.095-0.762-0.095    c-0.563,0-1.044,0.229-1.444,0.686c-0.399,0.457-0.6,1.025-0.6,1.707v3.732h-1.054V97.96h0.87l0.121,1.289h0.051    c0.258-0.453,0.569-0.803,0.933-1.048S315.455,97.833,315.891,97.833z"/>
      <path class="st42"
            d="M324.536,98.778h-1.771v6.139h-1.054v-6.139h-1.244v-0.476l1.244-0.381v-0.388    c0-1.709,0.747-2.564,2.241-2.564c0.368,0,0.8,0.074,1.295,0.223l-0.273,0.844c-0.406-0.131-0.753-0.196-1.041-0.196    c-0.398,0-0.692,0.132-0.882,0.396s-0.286,0.688-0.286,1.272v0.451h1.771V98.778z M326.859,104.917h-1.054V95.04h1.054V104.917z"/>
      <path class="st42"
            d="M332.033,105.044c-1.028,0-1.84-0.313-2.434-0.939c-0.595-0.626-0.892-1.496-0.892-2.609    c0-1.121,0.276-2.012,0.829-2.672c0.552-0.66,1.293-0.99,2.225-0.99c0.872,0,1.562,0.287,2.069,0.86s0.762,1.329,0.762,2.269    v0.667h-4.792c0.021,0.816,0.228,1.437,0.619,1.86c0.392,0.423,0.943,0.635,1.654,0.635c0.749,0,1.49-0.157,2.222-0.471v0.939    c-0.373,0.161-0.725,0.276-1.057,0.347C332.903,105.009,332.502,105.044,332.033,105.044z M331.747,98.716    c-0.559,0-1.004,0.182-1.336,0.545c-0.333,0.364-0.528,0.868-0.587,1.512h3.637c0-0.665-0.148-1.174-0.444-1.527    S332.297,98.716,331.747,98.716z"/>
      <path class="st42"
            d="M338.063,101.357l-2.418-3.396h1.2l1.834,2.666l1.828-2.666h1.187l-2.418,3.396l2.545,3.561h-1.193    l-1.949-2.818l-1.968,2.818h-1.193L338.063,101.357z"/>
      <path class="st42"
            d="M343.109,96.075c0-0.242,0.059-0.418,0.178-0.53s0.267-0.169,0.444-0.169c0.169,0,0.315,0.058,0.438,0.172    s0.184,0.29,0.184,0.527c0,0.236-0.062,0.413-0.184,0.529s-0.269,0.175-0.438,0.175c-0.178,0-0.326-0.059-0.444-0.175    S343.109,96.312,343.109,96.075z M344.252,104.917h-1.054V97.96h1.054V104.917z"/>
      <path class="st42"
            d="M349.724,97.846c0.914,0,1.624,0.312,2.13,0.937c0.505,0.624,0.758,1.508,0.758,2.65    s-0.255,2.029-0.765,2.662c-0.51,0.633-1.217,0.949-2.123,0.949c-0.453,0-0.866-0.084-1.241-0.251    c-0.374-0.167-0.688-0.424-0.942-0.771h-0.076l-0.222,0.895h-0.755V95.04h1.054v2.399c0,0.537-0.017,1.02-0.051,1.447h0.051    C348.031,98.193,348.759,97.846,349.724,97.846z M349.571,98.728c-0.719,0-1.238,0.207-1.555,0.619    c-0.317,0.413-0.476,1.107-0.476,2.086c0,0.977,0.163,1.677,0.489,2.098s0.849,0.631,1.568,0.631c0.647,0,1.13-0.235,1.447-0.707    s0.476-1.15,0.476-2.035c0-0.905-0.159-1.58-0.476-2.024S350.236,98.728,349.571,98.728z"/>
      <path class="st42"
            d="M357.392,105.044c-1.028,0-1.84-0.313-2.434-0.939c-0.595-0.626-0.892-1.496-0.892-2.609    c0-1.121,0.276-2.012,0.829-2.672c0.552-0.66,1.293-0.99,2.225-0.99c0.872,0,1.562,0.287,2.069,0.86s0.762,1.329,0.762,2.269    v0.667h-4.792c0.021,0.816,0.228,1.437,0.619,1.86c0.392,0.423,0.943,0.635,1.654,0.635c0.749,0,1.49-0.157,2.222-0.471v0.939    c-0.373,0.161-0.725,0.276-1.057,0.347C358.262,105.009,357.861,105.044,357.392,105.044z M357.106,98.716    c-0.559,0-1.004,0.182-1.336,0.545c-0.333,0.364-0.528,0.868-0.587,1.512h3.637c0-0.665-0.148-1.174-0.444-1.527    S357.656,98.716,357.106,98.716z"/>
      <path class="st42" d="M362.8,104.917h-1.054V95.04h1.054V104.917z"/>
	</g>
    <g>
		<path class="st42"
          d="M463.171,97.96v4.514c0,0.566,0.129,0.99,0.388,1.27c0.258,0.279,0.662,0.418,1.212,0.418    c0.729,0,1.26-0.198,1.597-0.596c0.336-0.398,0.505-1.048,0.505-1.949V97.96h1.054v6.957h-0.87l-0.152-0.934h-0.057    c-0.216,0.344-0.516,0.605-0.898,0.787c-0.383,0.183-0.82,0.273-1.311,0.273c-0.847,0-1.48-0.201-1.901-0.604    c-0.421-0.401-0.632-1.045-0.632-1.93V97.96H463.171z"/>
      <path class="st42"
            d="M474.921,104.917v-4.5c0-0.567-0.129-0.99-0.388-1.27c-0.258-0.279-0.662-0.42-1.212-0.42    c-0.729,0-1.262,0.197-1.6,0.591c-0.339,0.394-0.508,1.043-0.508,1.948v3.65h-1.054V97.96h0.856l0.172,0.952h0.051    c0.216-0.343,0.519-0.608,0.907-0.797c0.39-0.188,0.823-0.282,1.302-0.282c0.838,0,1.468,0.202,1.892,0.606    c0.423,0.404,0.635,1.05,0.635,1.938v4.539H474.921z"/>
      <path class="st42"
            d="M481.274,98.778h-1.771v6.139h-1.054v-6.139h-1.244v-0.476l1.244-0.381v-0.388    c0-1.709,0.747-2.564,2.24-2.564c0.368,0,0.8,0.074,1.295,0.223l-0.272,0.844c-0.406-0.131-0.754-0.196-1.041-0.196    c-0.398,0-0.692,0.132-0.883,0.396s-0.285,0.688-0.285,1.272v0.451h1.771V98.778z M483.598,104.917h-1.054V95.04h1.054V104.917z"/>
      <path class="st42"
            d="M488.771,105.044c-1.028,0-1.84-0.313-2.435-0.939s-0.892-1.496-0.892-2.609    c0-1.121,0.275-2.012,0.828-2.672c0.552-0.66,1.294-0.99,2.225-0.99c0.872,0,1.562,0.287,2.069,0.86s0.762,1.329,0.762,2.269    v0.667h-4.792c0.021,0.816,0.228,1.437,0.618,1.86c0.392,0.423,0.943,0.635,1.654,0.635c0.749,0,1.489-0.157,2.222-0.471v0.939    c-0.373,0.161-0.725,0.276-1.058,0.347C489.642,105.009,489.241,105.044,488.771,105.044z M488.485,98.716    c-0.559,0-1.004,0.182-1.336,0.545c-0.332,0.364-0.528,0.868-0.587,1.512h3.637c0-0.665-0.147-1.174-0.444-1.527    C489.459,98.892,489.036,98.716,488.485,98.716z"/>
      <path class="st42"
            d="M494.802,101.357l-2.419-3.396h1.2l1.834,2.666l1.828-2.666h1.188l-2.419,3.396l2.546,3.561h-1.193    l-1.949-2.818l-1.968,2.818h-1.193L494.802,101.357z"/>
      <path class="st42"
            d="M499.848,96.075c0-0.242,0.06-0.418,0.178-0.53c0.119-0.112,0.267-0.169,0.444-0.169    c0.17,0,0.315,0.058,0.438,0.172c0.122,0.114,0.184,0.29,0.184,0.527c0,0.236-0.062,0.413-0.184,0.529    c-0.123,0.116-0.269,0.175-0.438,0.175c-0.178,0-0.325-0.059-0.444-0.175C499.907,96.488,499.848,96.312,499.848,96.075z     M500.99,104.917h-1.054V97.96h1.054V104.917z"/>
      <path class="st42"
            d="M506.462,97.846c0.914,0,1.624,0.312,2.13,0.937s0.759,1.508,0.759,2.65s-0.255,2.029-0.766,2.662    c-0.51,0.633-1.217,0.949-2.123,0.949c-0.452,0-0.866-0.084-1.241-0.251c-0.374-0.167-0.688-0.424-0.942-0.771h-0.076    l-0.222,0.895h-0.756V95.04h1.054v2.399c0,0.537-0.017,1.02-0.051,1.447h0.051C504.77,98.193,505.497,97.846,506.462,97.846z     M506.31,98.728c-0.719,0-1.237,0.207-1.555,0.619c-0.317,0.413-0.477,1.107-0.477,2.086c0,0.977,0.163,1.677,0.489,2.098    c0.325,0.421,0.849,0.631,1.567,0.631c0.647,0,1.13-0.235,1.447-0.707s0.477-1.15,0.477-2.035c0-0.905-0.159-1.58-0.477-2.024    S506.975,98.728,506.31,98.728z"/>
      <path class="st42"
            d="M514.13,105.044c-1.028,0-1.84-0.313-2.434-0.939c-0.595-0.626-0.893-1.496-0.893-2.609    c0-1.121,0.276-2.012,0.829-2.672c0.552-0.66,1.293-0.99,2.225-0.99c0.871,0,1.562,0.287,2.069,0.86s0.762,1.329,0.762,2.269    v0.667h-4.793c0.021,0.816,0.228,1.437,0.619,1.86c0.392,0.423,0.942,0.635,1.653,0.635c0.749,0,1.49-0.157,2.222-0.471v0.939    c-0.372,0.161-0.725,0.276-1.057,0.347C515.001,105.009,514.6,105.044,514.13,105.044z M513.845,98.716    c-0.559,0-1.004,0.182-1.336,0.545c-0.333,0.364-0.528,0.868-0.588,1.512h3.638c0-0.665-0.148-1.174-0.444-1.527    C514.817,98.892,514.395,98.716,513.845,98.716z"/>
      <path class="st42" d="M519.538,104.917h-1.054V95.04h1.054V104.917z"/>
	</g>
    <g>
		<path class="st42"
          d="M305.604,249.023l-2.641-6.957h1.13l1.498,4.125c0.338,0.965,0.538,1.592,0.597,1.879h0.051    c0.046-0.225,0.193-0.688,0.441-1.393c0.247-0.705,0.803-2.242,1.666-4.611h1.13l-2.641,6.957H305.604z"/>
      <path class="st42"
            d="M314.872,249.023l-0.209-0.99h-0.051c-0.347,0.436-0.693,0.73-1.038,0.885    c-0.345,0.154-0.776,0.232-1.292,0.232c-0.69,0-1.23-0.178-1.622-0.533c-0.391-0.355-0.587-0.861-0.587-1.518    c0-1.404,1.124-2.141,3.371-2.209l1.181-0.037v-0.432c0-0.547-0.118-0.949-0.352-1.211c-0.235-0.26-0.611-0.389-1.127-0.389    c-0.58,0-1.236,0.178-1.968,0.533l-0.324-0.807c0.343-0.188,0.718-0.332,1.126-0.438c0.409-0.107,0.818-0.16,1.229-0.16    c0.83,0,1.444,0.186,1.844,0.553c0.4,0.369,0.6,0.959,0.6,1.771v4.748H314.872z M312.491,248.28c0.656,0,1.171-0.182,1.545-0.541    c0.375-0.359,0.562-0.863,0.562-1.51v-0.629l-1.054,0.045c-0.838,0.029-1.442,0.16-1.812,0.391    c-0.371,0.23-0.556,0.588-0.556,1.076c0,0.381,0.115,0.67,0.346,0.869C311.754,248.181,312.077,248.28,312.491,248.28z"/>
      <path class="st42"
            d="M320.997,241.939c0.309,0,0.586,0.025,0.832,0.076l-0.146,0.977c-0.288-0.062-0.542-0.094-0.762-0.094    c-0.563,0-1.044,0.229-1.444,0.686c-0.399,0.457-0.6,1.025-0.6,1.707v3.732h-1.054v-6.957h0.87l0.121,1.289h0.051    c0.258-0.453,0.569-0.803,0.933-1.049C320.161,242.062,320.561,241.939,320.997,241.939z"/>
      <path class="st42"
            d="M323.041,240.181c0-0.242,0.059-0.418,0.178-0.531c0.119-0.111,0.267-0.168,0.444-0.168    c0.169,0,0.315,0.057,0.438,0.172c0.123,0.113,0.184,0.289,0.184,0.527c0,0.236-0.062,0.412-0.184,0.529    c-0.123,0.115-0.269,0.174-0.438,0.174c-0.178,0-0.326-0.059-0.444-0.174C323.1,240.593,323.041,240.417,323.041,240.181z     M324.184,249.023h-1.054v-6.957h1.054V249.023z"/>
      <path class="st42"
            d="M330.696,249.023l-0.209-0.99h-0.051c-0.347,0.436-0.693,0.73-1.038,0.885    c-0.345,0.154-0.776,0.232-1.292,0.232c-0.69,0-1.23-0.178-1.622-0.533c-0.391-0.355-0.587-0.861-0.587-1.518    c0-1.404,1.124-2.141,3.371-2.209l1.181-0.037v-0.432c0-0.547-0.118-0.949-0.352-1.211c-0.235-0.26-0.611-0.389-1.127-0.389    c-0.58,0-1.236,0.178-1.968,0.533l-0.324-0.807c0.343-0.188,0.718-0.332,1.126-0.438c0.409-0.107,0.818-0.16,1.229-0.16    c0.83,0,1.444,0.186,1.844,0.553c0.4,0.369,0.6,0.959,0.6,1.771v4.748H330.696z M328.316,248.28c0.656,0,1.171-0.182,1.545-0.541    c0.375-0.359,0.562-0.863,0.562-1.51v-0.629l-1.054,0.045c-0.838,0.029-1.442,0.16-1.812,0.391    c-0.371,0.23-0.556,0.588-0.556,1.076c0,0.381,0.115,0.67,0.346,0.869C327.579,248.181,327.901,248.28,328.316,248.28z"/>
      <path class="st42"
            d="M336.885,241.95c0.914,0,1.624,0.312,2.13,0.938c0.505,0.623,0.758,1.508,0.758,2.65    s-0.255,2.029-0.765,2.662c-0.51,0.633-1.217,0.949-2.123,0.949c-0.453,0-0.866-0.084-1.241-0.252    c-0.374-0.166-0.688-0.424-0.942-0.77h-0.076l-0.222,0.895h-0.755v-9.877h1.054v2.398c0,0.537-0.017,1.02-0.051,1.447h0.051    C335.192,242.298,335.92,241.95,336.885,241.95z M336.733,242.833c-0.719,0-1.238,0.207-1.555,0.619s-0.476,1.107-0.476,2.086    c0,0.977,0.163,1.676,0.489,2.098c0.326,0.42,0.849,0.631,1.568,0.631c0.647,0,1.13-0.236,1.447-0.707    c0.317-0.473,0.476-1.15,0.476-2.035c0-0.906-0.159-1.58-0.476-2.025C337.888,243.056,337.397,242.833,336.733,242.833z"/>
      <path class="st42"
            d="M344.553,249.15c-1.028,0-1.84-0.314-2.434-0.939c-0.595-0.627-0.892-1.496-0.892-2.609    c0-1.121,0.276-2.012,0.829-2.672c0.552-0.66,1.293-0.99,2.225-0.99c0.872,0,1.562,0.287,2.069,0.859    c0.508,0.574,0.762,1.33,0.762,2.27v0.666h-4.792c0.021,0.816,0.228,1.438,0.619,1.861c0.392,0.422,0.943,0.635,1.654,0.635    c0.749,0,1.49-0.158,2.222-0.471v0.939c-0.373,0.16-0.725,0.275-1.057,0.346C345.424,249.114,345.023,249.15,344.553,249.15z     M344.268,242.821c-0.559,0-1.004,0.182-1.336,0.545c-0.333,0.363-0.528,0.867-0.587,1.512h3.637c0-0.666-0.148-1.174-0.444-1.527    S344.818,242.821,344.268,242.821z"/>
      <path class="st42" d="M349.961,249.023h-1.054v-9.877h1.054V249.023z"/>
	</g>
    <g>
		<path class="st42"
          d="M483.868,242.884h-1.771v6.139h-1.054v-6.139h-1.244v-0.476l1.244-0.381v-0.388    c0-1.709,0.747-2.564,2.241-2.564c0.368,0,0.8,0.074,1.295,0.223l-0.273,0.844c-0.406-0.131-0.753-0.196-1.041-0.196    c-0.397,0-0.691,0.132-0.882,0.396s-0.286,0.688-0.286,1.272v0.451h1.771V242.884z"/>
      <path class="st42"
            d="M488.076,249.15c-1.028,0-1.84-0.313-2.434-0.939c-0.595-0.626-0.893-1.496-0.893-2.609    c0-1.121,0.276-2.012,0.829-2.672c0.552-0.66,1.293-0.99,2.225-0.99c0.871,0,1.562,0.287,2.069,0.86s0.762,1.329,0.762,2.269    v0.667h-4.793c0.021,0.816,0.228,1.437,0.619,1.86c0.392,0.423,0.942,0.635,1.653,0.635c0.749,0,1.49-0.157,2.222-0.471v0.939    c-0.372,0.161-0.725,0.276-1.057,0.347C488.947,249.114,488.546,249.15,488.076,249.15z M487.791,242.821    c-0.559,0-1.004,0.182-1.336,0.545c-0.333,0.364-0.528,0.868-0.588,1.512h3.638c0-0.665-0.148-1.174-0.444-1.527    C488.764,242.997,488.341,242.821,487.791,242.821z"/>
      <path class="st42"
            d="M496.919,247.124c0,0.648-0.241,1.147-0.724,1.498c-0.482,0.352-1.16,0.527-2.031,0.527    c-0.923,0-1.643-0.146-2.158-0.438v-0.979c0.334,0.17,0.692,0.303,1.075,0.4c0.384,0.098,0.753,0.146,1.108,0.146    c0.55,0,0.973-0.088,1.27-0.264c0.296-0.176,0.444-0.443,0.444-0.803c0-0.271-0.118-0.503-0.353-0.695    c-0.235-0.192-0.693-0.42-1.374-0.683c-0.647-0.241-1.108-0.452-1.381-0.632c-0.273-0.18-0.477-0.384-0.609-0.612    c-0.134-0.229-0.2-0.501-0.2-0.819c0-0.566,0.23-1.014,0.692-1.342c0.461-0.328,1.094-0.492,1.897-0.492    c0.749,0,1.481,0.152,2.196,0.457l-0.374,0.857c-0.698-0.288-1.331-0.432-1.898-0.432c-0.499,0-0.876,0.078-1.13,0.234    s-0.381,0.372-0.381,0.647c0,0.187,0.048,0.345,0.143,0.476c0.096,0.132,0.249,0.257,0.461,0.375    c0.211,0.118,0.617,0.29,1.219,0.514c0.825,0.301,1.383,0.604,1.672,0.908C496.773,246.28,496.919,246.663,496.919,247.124z"/>
      <path class="st42"
            d="M500.88,248.28c0.186,0,0.366-0.015,0.539-0.042c0.174-0.027,0.312-0.056,0.413-0.085v0.806    c-0.114,0.055-0.282,0.101-0.505,0.137c-0.222,0.036-0.422,0.054-0.6,0.054c-1.346,0-2.019-0.709-2.019-2.127v-4.139h-0.997    v-0.508l0.997-0.438l0.444-1.485h0.609v1.612h2.019v0.818h-2.019v4.095c0,0.419,0.1,0.74,0.298,0.965    C500.26,248.168,500.532,248.28,500.88,248.28z"/>
	</g>
    <g>
		<path class="st42"
          d="M301.446,322.551c-0.402,0-0.728-0.053-0.978-0.158v-0.857c0.292,0.085,0.58,0.127,0.863,0.127    c0.33,0,0.572-0.09,0.727-0.27c0.154-0.18,0.231-0.454,0.231-0.822v-8.1h1.054v8.023    C303.344,321.865,302.711,322.551,301.446,322.551z M302.201,310.586c0-0.242,0.059-0.418,0.178-0.53s0.267-0.169,0.444-0.169    c0.169,0,0.315,0.058,0.438,0.172s0.184,0.29,0.184,0.527c0,0.236-0.062,0.413-0.184,0.529s-0.269,0.175-0.438,0.175    c-0.178,0-0.326-0.059-0.444-0.175S302.201,310.822,302.201,310.586z"/>
      <path class="st42"
            d="M308.517,319.555c-1.028,0-1.84-0.313-2.434-0.939c-0.595-0.626-0.892-1.496-0.892-2.609    c0-1.121,0.276-2.012,0.829-2.672c0.552-0.66,1.293-0.99,2.225-0.99c0.872,0,1.562,0.287,2.069,0.86s0.762,1.329,0.762,2.269    v0.667h-4.792c0.021,0.816,0.228,1.437,0.619,1.86c0.392,0.423,0.943,0.635,1.654,0.635c0.749,0,1.49-0.157,2.222-0.471v0.939    c-0.373,0.161-0.725,0.276-1.057,0.347C309.388,319.52,308.987,319.555,308.517,319.555z M308.231,313.227    c-0.559,0-1.004,0.182-1.336,0.545c-0.333,0.364-0.528,0.868-0.587,1.512h3.637c0-0.665-0.148-1.174-0.444-1.527    S308.782,313.227,308.231,313.227z"/>
      <path class="st42"
            d="M317.607,318.494h-0.057c-0.487,0.707-1.214,1.061-2.184,1.061c-0.91,0-1.618-0.311-2.124-0.934    c-0.505-0.621-0.758-1.506-0.758-2.652c0-1.147,0.254-2.038,0.762-2.673s1.214-0.952,2.12-0.952c0.944,0,1.667,0.343,2.171,1.028    h0.083l-0.044-0.501l-0.025-0.489v-2.831h1.054v9.877h-0.857L317.607,318.494z M315.5,318.672c0.719,0,1.241-0.195,1.564-0.587    c0.324-0.392,0.486-1.022,0.486-1.895v-0.222c0-0.986-0.164-1.69-0.492-2.111c-0.328-0.421-0.852-0.631-1.571-0.631    c-0.618,0-1.091,0.239-1.419,0.72c-0.328,0.48-0.492,1.159-0.492,2.034c0,0.889,0.163,1.56,0.489,2.013    S314.869,318.672,315.5,318.672z"/>
      <path class="st42"
            d="M323.777,319.555c-1.028,0-1.84-0.313-2.434-0.939c-0.595-0.626-0.892-1.496-0.892-2.609    c0-1.121,0.276-2.012,0.829-2.672c0.552-0.66,1.293-0.99,2.225-0.99c0.872,0,1.562,0.287,2.069,0.86s0.762,1.329,0.762,2.269    v0.667h-4.792c0.021,0.816,0.228,1.437,0.619,1.86c0.392,0.423,0.943,0.635,1.654,0.635c0.749,0,1.49-0.157,2.222-0.471v0.939    c-0.373,0.161-0.725,0.276-1.057,0.347C324.647,319.52,324.247,319.555,323.777,319.555z M323.491,313.227    c-0.559,0-1.004,0.182-1.336,0.545c-0.333,0.364-0.528,0.868-0.587,1.512h3.637c0-0.665-0.148-1.174-0.444-1.527    S324.042,313.227,323.491,313.227z"/>
      <path class="st42"
            d="M331.305,312.344c0.309,0,0.586,0.025,0.832,0.076l-0.146,0.978c-0.288-0.063-0.542-0.095-0.762-0.095    c-0.563,0-1.044,0.229-1.444,0.686c-0.399,0.457-0.6,1.025-0.6,1.707v3.732h-1.054v-6.957h0.87l0.121,1.289h0.051    c0.258-0.453,0.569-0.803,0.933-1.048S330.869,312.344,331.305,312.344z"/>
      <path class="st42"
            d="M337.888,319.428h-5.046v-0.717l3.796-5.422h-3.561v-0.818h4.716v0.818l-3.745,5.32h3.84V319.428z"/>
      <path class="st42"
            d="M342.458,319.555c-1.028,0-1.84-0.313-2.434-0.939c-0.595-0.626-0.892-1.496-0.892-2.609    c0-1.121,0.276-2.012,0.829-2.672c0.552-0.66,1.293-0.99,2.225-0.99c0.872,0,1.562,0.287,2.069,0.86s0.762,1.329,0.762,2.269    v0.667h-4.792c0.021,0.816,0.228,1.437,0.619,1.86c0.392,0.423,0.943,0.635,1.654,0.635c0.749,0,1.49-0.157,2.222-0.471v0.939    c-0.373,0.161-0.725,0.276-1.057,0.347C343.329,319.52,342.928,319.555,342.458,319.555z M342.172,313.227    c-0.559,0-1.004,0.182-1.336,0.545c-0.333,0.364-0.528,0.868-0.587,1.512h3.637c0-0.665-0.148-1.174-0.444-1.527    S342.723,313.227,342.172,313.227z"/>
      <path class="st42"
            d="M346.724,310.586c0-0.242,0.059-0.418,0.178-0.53s0.267-0.169,0.444-0.169c0.169,0,0.315,0.058,0.438,0.172    s0.184,0.29,0.184,0.527c0,0.236-0.062,0.413-0.184,0.529s-0.269,0.175-0.438,0.175c-0.178,0-0.326-0.059-0.444-0.175    S346.724,310.822,346.724,310.586z M347.866,319.428h-1.054v-6.957h1.054V319.428z"/>
      <path class="st42"
            d="M352.348,318.686c0.186,0,0.366-0.015,0.54-0.042s0.311-0.056,0.413-0.085v0.806    c-0.114,0.055-0.282,0.101-0.505,0.137c-0.222,0.036-0.422,0.054-0.6,0.054c-1.346,0-2.019-0.709-2.019-2.127v-4.139h-0.997    v-0.508l0.997-0.438l0.444-1.485h0.609v1.612h2.019v0.818h-2.019v4.095c0,0.419,0.1,0.74,0.298,0.965S352,318.686,352.348,318.686    z"/>
	</g>
    <g>
		<path class="st42"
          d="M439.308,312.47v4.514c0,0.566,0.129,0.99,0.387,1.27c0.259,0.279,0.662,0.418,1.213,0.418    c0.728,0,1.26-0.198,1.597-0.596c0.336-0.398,0.504-1.048,0.504-1.949v-3.656h1.054v6.957h-0.869l-0.152-0.934h-0.058    c-0.216,0.344-0.515,0.605-0.897,0.787c-0.384,0.183-0.82,0.273-1.312,0.273c-0.846,0-1.479-0.201-1.9-0.604    c-0.422-0.401-0.632-1.045-0.632-1.93v-4.551H439.308z"/>
      <path class="st42"
            d="M451.057,319.427v-4.5c0-0.567-0.129-0.99-0.387-1.27c-0.259-0.279-0.662-0.42-1.213-0.42    c-0.728,0-1.261,0.197-1.6,0.591c-0.338,0.394-0.508,1.043-0.508,1.948v3.65h-1.054v-6.957h0.857l0.171,0.952h0.051    c0.216-0.343,0.519-0.608,0.908-0.797c0.389-0.188,0.823-0.282,1.301-0.282c0.838,0,1.469,0.202,1.892,0.606    c0.424,0.404,0.635,1.05,0.635,1.938v4.539H451.057z"/>
      <path class="st42"
            d="M456.522,318.685c0.186,0,0.366-0.015,0.539-0.042c0.174-0.027,0.312-0.056,0.413-0.085v0.806    c-0.114,0.055-0.282,0.101-0.505,0.137c-0.222,0.036-0.422,0.054-0.6,0.054c-1.346,0-2.019-0.709-2.019-2.127v-4.139h-0.997    v-0.508l0.997-0.438l0.444-1.485h0.609v1.612h2.019v0.818h-2.019v4.095c0,0.419,0.1,0.74,0.298,0.965    C455.902,318.572,456.175,318.685,456.522,318.685z"/>
      <path class="st42"
            d="M461.804,319.554c-1.028,0-1.84-0.313-2.435-0.939s-0.892-1.496-0.892-2.609    c0-1.121,0.275-2.012,0.828-2.672c0.552-0.66,1.294-0.99,2.225-0.99c0.872,0,1.562,0.287,2.069,0.86s0.762,1.329,0.762,2.269    v0.667h-4.792c0.021,0.816,0.228,1.437,0.618,1.86c0.392,0.423,0.943,0.635,1.654,0.635c0.749,0,1.489-0.157,2.222-0.471v0.939    c-0.373,0.161-0.725,0.276-1.058,0.347C462.674,319.519,462.273,319.554,461.804,319.554z M461.518,313.226    c-0.559,0-1.004,0.182-1.336,0.545c-0.332,0.364-0.528,0.868-0.587,1.512h3.637c0-0.665-0.147-1.174-0.444-1.527    C462.491,313.402,462.068,313.226,461.518,313.226z"/>
      <path class="st42"
            d="M469.332,312.343c0.309,0,0.586,0.025,0.831,0.076l-0.146,0.978c-0.288-0.063-0.542-0.095-0.762-0.095    c-0.563,0-1.044,0.229-1.444,0.686c-0.399,0.457-0.6,1.025-0.6,1.707v3.732h-1.054v-6.957h0.869l0.121,1.289h0.051    c0.258-0.453,0.569-0.803,0.933-1.048C468.496,312.466,468.896,312.343,469.332,312.343z"/>
      <path class="st42"
            d="M482.008,310.147v6.005c0,1.058-0.319,1.89-0.958,2.494c-0.64,0.605-1.518,0.908-2.635,0.908    s-1.981-0.305-2.593-0.914s-0.917-1.447-0.917-2.514v-5.979h1.079v6.056c0,0.774,0.211,1.369,0.635,1.783    c0.423,0.415,1.045,0.623,1.866,0.623c0.782,0,1.386-0.209,1.809-0.626c0.424-0.417,0.635-1.015,0.635-1.793v-6.043H482.008z"/>
      <path class="st42"
            d="M493.174,319.427v-4.525c0-0.555-0.119-0.971-0.355-1.248c-0.237-0.277-0.605-0.416-1.104-0.416    c-0.656,0-1.141,0.188-1.454,0.565c-0.312,0.377-0.47,0.956-0.47,1.739v3.885h-1.054v-4.525c0-0.555-0.118-0.971-0.355-1.248    c-0.236-0.277-0.607-0.416-1.11-0.416c-0.66,0-1.144,0.198-1.451,0.594c-0.307,0.396-0.46,1.045-0.46,1.945v3.65h-1.054v-6.957    h0.857l0.171,0.952h0.051c0.199-0.339,0.479-0.603,0.841-0.794c0.362-0.189,0.768-0.285,1.216-0.285    c1.088,0,1.799,0.394,2.133,1.181h0.051c0.208-0.364,0.508-0.651,0.901-0.863s0.843-0.317,1.346-0.317    c0.787,0,1.377,0.202,1.768,0.606c0.392,0.404,0.588,1.05,0.588,1.938v4.539H493.174z"/>
      <path class="st42"
            d="M500.886,317.528c0,0.648-0.241,1.147-0.724,1.498c-0.482,0.352-1.159,0.527-2.031,0.527    c-0.922,0-1.642-0.146-2.158-0.438v-0.979c0.335,0.17,0.693,0.303,1.076,0.4s0.752,0.146,1.107,0.146    c0.551,0,0.974-0.088,1.27-0.264c0.297-0.176,0.444-0.443,0.444-0.803c0-0.271-0.117-0.503-0.352-0.695    c-0.235-0.192-0.693-0.42-1.375-0.683c-0.647-0.241-1.107-0.452-1.38-0.632c-0.273-0.18-0.477-0.384-0.609-0.612    c-0.134-0.229-0.2-0.501-0.2-0.819c0-0.566,0.23-1.014,0.691-1.342c0.462-0.328,1.094-0.492,1.898-0.492    c0.749,0,1.48,0.152,2.196,0.457l-0.375,0.857c-0.698-0.288-1.331-0.432-1.897-0.432c-0.5,0-0.876,0.078-1.13,0.234    s-0.381,0.372-0.381,0.647c0,0.187,0.048,0.345,0.143,0.476c0.096,0.132,0.249,0.257,0.46,0.375    c0.212,0.118,0.618,0.29,1.219,0.514c0.825,0.301,1.383,0.604,1.673,0.908S500.886,317.068,500.886,317.528z"/>
      <path class="st42"
            d="M504.847,318.685c0.187,0,0.366-0.015,0.54-0.042c0.173-0.027,0.311-0.056,0.412-0.085v0.806    c-0.114,0.055-0.282,0.101-0.505,0.137c-0.222,0.036-0.422,0.054-0.6,0.054c-1.346,0-2.019-0.709-2.019-2.127v-4.139h-0.996    v-0.508l0.996-0.438l0.444-1.485h0.609v1.612h2.019v0.818h-2.019v4.095c0,0.419,0.1,0.74,0.299,0.965    C504.227,318.572,504.5,318.685,504.847,318.685z"/>
      <path class="st42"
            d="M511.468,319.427l-0.21-0.99h-0.051c-0.347,0.436-0.692,0.731-1.037,0.886    c-0.346,0.154-0.776,0.231-1.292,0.231c-0.69,0-1.23-0.178-1.622-0.533s-0.587-0.861-0.587-1.518c0-1.404,1.123-2.141,3.37-2.209    l1.181-0.037v-0.432c0-0.547-0.117-0.949-0.352-1.21c-0.235-0.26-0.611-0.39-1.127-0.39c-0.58,0-1.236,0.178-1.968,0.533    l-0.324-0.807c0.343-0.187,0.719-0.332,1.127-0.438c0.408-0.106,0.817-0.159,1.229-0.159c0.829,0,1.444,0.185,1.844,0.552    c0.4,0.369,0.6,0.959,0.6,1.771v4.748H511.468z M509.087,318.685c0.656,0,1.172-0.181,1.546-0.54    c0.375-0.359,0.562-0.863,0.562-1.511v-0.629l-1.054,0.045c-0.838,0.029-1.441,0.16-1.812,0.391    c-0.371,0.23-0.556,0.589-0.556,1.076c0,0.381,0.115,0.67,0.346,0.869S508.673,318.685,509.087,318.685z M507.843,310.585    c0-0.221,0.057-0.379,0.169-0.477c0.111-0.098,0.246-0.146,0.402-0.146c0.161,0,0.3,0.049,0.416,0.146s0.175,0.256,0.175,0.477    c0,0.211-0.059,0.369-0.175,0.473s-0.255,0.155-0.416,0.155c-0.156,0-0.291-0.052-0.402-0.155    C507.899,310.954,507.843,310.796,507.843,310.585z M510.262,310.585c0-0.221,0.056-0.379,0.168-0.477s0.246-0.146,0.403-0.146    c0.156,0,0.293,0.049,0.409,0.146s0.175,0.256,0.175,0.477c0,0.211-0.059,0.369-0.175,0.473s-0.253,0.155-0.409,0.155    c-0.157,0-0.291-0.052-0.403-0.155S510.262,310.796,510.262,310.585z"/>
      <path class="st42"
            d="M519.18,319.427v-4.5c0-0.567-0.129-0.99-0.387-1.27c-0.259-0.279-0.662-0.42-1.213-0.42    c-0.728,0-1.261,0.197-1.6,0.591c-0.338,0.394-0.508,1.043-0.508,1.948v3.65h-1.054v-6.957h0.857l0.171,0.952h0.051    c0.216-0.343,0.519-0.608,0.908-0.797c0.389-0.188,0.823-0.282,1.301-0.282c0.838,0,1.469,0.202,1.892,0.606    c0.424,0.404,0.635,1.05,0.635,1.938v4.539H519.18z"/>
      <path class="st42"
            d="M527.134,318.493h-0.058c-0.486,0.707-1.214,1.061-2.184,1.061c-0.909,0-1.617-0.311-2.123-0.934    c-0.506-0.621-0.759-1.506-0.759-2.652c0-1.147,0.254-2.038,0.762-2.673s1.215-0.952,2.12-0.952c0.944,0,1.668,0.343,2.171,1.028    h0.083l-0.045-0.501l-0.025-0.489v-2.831h1.054v9.877h-0.856L527.134,318.493z M525.026,318.671c0.719,0,1.241-0.195,1.564-0.587    c0.324-0.392,0.485-1.022,0.485-1.895v-0.222c0-0.986-0.164-1.69-0.491-2.111c-0.328-0.421-0.853-0.631-1.571-0.631    c-0.618,0-1.091,0.239-1.419,0.72s-0.492,1.159-0.492,2.034c0,0.889,0.163,1.56,0.489,2.013    C523.917,318.445,524.396,318.671,525.026,318.671z"/>
      <path class="st42"
            d="M533.304,319.554c-1.028,0-1.84-0.313-2.435-0.939s-0.892-1.496-0.892-2.609    c0-1.121,0.275-2.012,0.828-2.672c0.552-0.66,1.294-0.99,2.225-0.99c0.872,0,1.562,0.287,2.069,0.86s0.762,1.329,0.762,2.269    v0.667h-4.792c0.021,0.816,0.228,1.437,0.618,1.86c0.392,0.423,0.943,0.635,1.654,0.635c0.749,0,1.489-0.157,2.222-0.471v0.939    c-0.373,0.161-0.725,0.276-1.058,0.347C534.174,319.519,533.773,319.554,533.304,319.554z M533.018,313.226    c-0.559,0-1.004,0.182-1.336,0.545c-0.332,0.364-0.528,0.868-0.587,1.512h3.637c0-0.665-0.147-1.174-0.444-1.527    C533.991,313.402,533.568,313.226,533.018,313.226z"/>
      <path class="st42"
            d="M542.419,319.427v-4.5c0-0.567-0.129-0.99-0.388-1.27c-0.258-0.279-0.662-0.42-1.212-0.42    c-0.729,0-1.262,0.197-1.6,0.591c-0.339,0.394-0.508,1.043-0.508,1.948v3.65h-1.054v-6.957h0.856l0.172,0.952h0.051    c0.216-0.343,0.519-0.608,0.907-0.797c0.39-0.188,0.823-0.282,1.302-0.282c0.838,0,1.468,0.202,1.892,0.606    c0.423,0.404,0.635,1.05,0.635,1.938v4.539H542.419z"/>
	</g>
    <g>
		<path class="st42"
          d="M446.756,170.214h-1.771v6.139h-1.054v-6.139h-1.244v-0.476l1.244-0.381v-0.388    c0-1.709,0.747-2.564,2.24-2.564c0.368,0,0.8,0.074,1.295,0.223l-0.272,0.844c-0.406-0.131-0.754-0.196-1.041-0.196    c-0.398,0-0.692,0.132-0.883,0.396s-0.285,0.688-0.285,1.272v0.451h1.771V170.214z"/>
      <path class="st42"
            d="M450.965,176.48c-1.028,0-1.84-0.313-2.435-0.939s-0.892-1.496-0.892-2.609c0-1.121,0.275-2.012,0.828-2.672    c0.552-0.66,1.294-0.99,2.225-0.99c0.872,0,1.562,0.287,2.069,0.86s0.762,1.329,0.762,2.269v0.667h-4.792    c0.021,0.816,0.228,1.437,0.618,1.86c0.392,0.423,0.943,0.635,1.654,0.635c0.749,0,1.489-0.157,2.222-0.471v0.939    c-0.373,0.161-0.725,0.276-1.058,0.347C451.835,176.444,451.435,176.48,450.965,176.48z M450.679,170.152    c-0.559,0-1.004,0.182-1.336,0.545c-0.332,0.364-0.528,0.868-0.587,1.512h3.637c0-0.665-0.147-1.174-0.444-1.527    C451.652,170.327,451.229,170.152,450.679,170.152z"/>
      <path class="st42"
            d="M459.807,174.454c0,0.648-0.241,1.147-0.724,1.498c-0.482,0.352-1.159,0.527-2.031,0.527    c-0.922,0-1.642-0.146-2.158-0.438v-0.979c0.335,0.17,0.693,0.303,1.076,0.4s0.752,0.146,1.107,0.146    c0.551,0,0.974-0.088,1.27-0.264c0.297-0.176,0.444-0.443,0.444-0.803c0-0.271-0.117-0.503-0.352-0.695    c-0.235-0.192-0.693-0.42-1.375-0.683c-0.647-0.241-1.107-0.452-1.38-0.632c-0.273-0.18-0.477-0.384-0.609-0.612    c-0.134-0.229-0.2-0.501-0.2-0.819c0-0.566,0.23-1.014,0.691-1.342c0.462-0.328,1.094-0.492,1.898-0.492    c0.749,0,1.48,0.152,2.196,0.457l-0.375,0.857c-0.698-0.288-1.331-0.432-1.897-0.432c-0.5,0-0.876,0.078-1.13,0.234    s-0.381,0.372-0.381,0.647c0,0.187,0.048,0.345,0.143,0.476c0.096,0.132,0.249,0.257,0.46,0.375    c0.212,0.118,0.618,0.29,1.219,0.514c0.825,0.301,1.383,0.604,1.673,0.908S459.807,173.993,459.807,174.454z"/>
      <path class="st42"
            d="M463.768,175.61c0.187,0,0.366-0.015,0.54-0.042c0.173-0.027,0.311-0.056,0.412-0.085v0.806    c-0.114,0.055-0.282,0.101-0.505,0.137c-0.222,0.036-0.422,0.054-0.6,0.054c-1.346,0-2.019-0.709-2.019-2.127v-4.139h-0.996    v-0.508l0.996-0.438l0.444-1.485h0.609v1.612h2.019v0.818h-2.019v4.095c0,0.419,0.1,0.74,0.299,0.965    C463.147,175.498,463.421,175.61,463.768,175.61z"/>
      <path class="st42"
            d="M467.215,174.842l0.095,0.146c-0.109,0.424-0.269,0.916-0.476,1.477c-0.208,0.561-0.424,1.082-0.647,1.564    h-0.794c0.114-0.44,0.24-0.984,0.378-1.631c0.138-0.648,0.233-1.166,0.289-1.556H467.215z"/>
      <path class="st42"
            d="M475.612,176.48c-1.028,0-1.84-0.313-2.434-0.939c-0.595-0.626-0.893-1.496-0.893-2.609    c0-1.121,0.276-2.012,0.829-2.672c0.552-0.66,1.293-0.99,2.225-0.99c0.871,0,1.562,0.287,2.069,0.86s0.762,1.329,0.762,2.269    v0.667h-4.793c0.021,0.816,0.228,1.437,0.619,1.86c0.392,0.423,0.942,0.635,1.653,0.635c0.749,0,1.49-0.157,2.222-0.471v0.939    c-0.372,0.161-0.725,0.276-1.057,0.347C476.483,176.444,476.082,176.48,475.612,176.48z M475.327,170.152    c-0.559,0-1.004,0.182-1.336,0.545c-0.333,0.364-0.528,0.868-0.588,1.512h3.638c0-0.665-0.148-1.174-0.444-1.527    C476.3,170.327,475.877,170.152,475.327,170.152z"/>
      <path class="st42"
            d="M484.728,176.353v-4.5c0-0.567-0.129-0.99-0.387-1.27c-0.259-0.279-0.662-0.42-1.213-0.42    c-0.731,0-1.267,0.199-1.603,0.598c-0.337,0.397-0.505,1.049-0.505,1.955v3.637h-1.054v-9.877h1.054v2.99    c0,0.359-0.017,0.657-0.051,0.895h0.063c0.208-0.334,0.503-0.598,0.886-0.79s0.82-0.289,1.311-0.289    c0.851,0,1.488,0.202,1.914,0.606c0.425,0.404,0.638,1.046,0.638,1.926v4.539H484.728z"/>
      <path class="st42"
            d="M490.885,176.48c-1.028,0-1.84-0.313-2.434-0.939c-0.595-0.626-0.893-1.496-0.893-2.609    c0-1.121,0.276-2.012,0.829-2.672c0.552-0.66,1.293-0.99,2.225-0.99c0.871,0,1.562,0.287,2.069,0.86s0.762,1.329,0.762,2.269    v0.667h-4.793c0.021,0.816,0.228,1.437,0.619,1.86c0.392,0.423,0.942,0.635,1.653,0.635c0.749,0,1.49-0.157,2.222-0.471v0.939    c-0.372,0.161-0.725,0.276-1.057,0.347C491.756,176.444,491.354,176.48,490.885,176.48z M490.6,170.152    c-0.559,0-1.004,0.182-1.336,0.545c-0.333,0.364-0.528,0.868-0.588,1.512h3.638c0-0.665-0.148-1.174-0.444-1.527    C491.572,170.327,491.149,170.152,490.6,170.152z"/>
      <path class="st42"
            d="M498.413,169.269c0.31,0,0.586,0.025,0.832,0.076l-0.146,0.978c-0.287-0.063-0.541-0.095-0.762-0.095    c-0.562,0-1.044,0.229-1.444,0.686c-0.399,0.457-0.6,1.025-0.6,1.707v3.732h-1.054v-6.957h0.87l0.12,1.289h0.051    c0.259-0.453,0.569-0.803,0.934-1.048C497.577,169.392,497.978,169.269,498.413,169.269z"/>
      <path class="st42"
            d="M508.684,176.353v-4.5c0-0.567-0.129-0.99-0.387-1.27c-0.259-0.279-0.662-0.42-1.213-0.42    c-0.731,0-1.267,0.199-1.603,0.598c-0.337,0.397-0.505,1.049-0.505,1.955v3.637h-1.054v-9.877h1.054v2.99    c0,0.359-0.017,0.657-0.051,0.895h0.063c0.208-0.334,0.503-0.598,0.886-0.79s0.82-0.289,1.311-0.289    c0.851,0,1.488,0.202,1.914,0.606c0.425,0.404,0.638,1.046,0.638,1.926v4.539H508.684z"/>
      <path class="st42"
            d="M517.907,172.868c0,1.134-0.286,2.02-0.857,2.656s-1.36,0.955-2.367,0.955c-0.622,0-1.175-0.146-1.657-0.438    c-0.482-0.293-0.854-0.711-1.117-1.258c-0.262-0.545-0.394-1.185-0.394-1.916c0-1.135,0.284-2.018,0.851-2.65    c0.567-0.633,1.354-0.949,2.361-0.949c0.974,0,1.747,0.324,2.32,0.971C517.62,170.888,517.907,171.763,517.907,172.868z     M512.606,172.868c0,0.889,0.178,1.565,0.533,2.031c0.355,0.465,0.878,0.697,1.568,0.697c0.689,0,1.213-0.231,1.571-0.694    c0.357-0.464,0.536-1.142,0.536-2.034c0-0.885-0.179-1.557-0.536-2.016c-0.358-0.459-0.886-0.689-1.584-0.689    c-0.69,0-1.211,0.227-1.562,0.68C512.782,171.296,512.606,171.971,512.606,172.868z M512.918,167.511    c0-0.221,0.056-0.379,0.168-0.477s0.246-0.146,0.403-0.146c0.16,0,0.299,0.049,0.416,0.146c0.116,0.098,0.174,0.256,0.174,0.477    c0,0.211-0.058,0.369-0.174,0.473c-0.117,0.104-0.256,0.155-0.416,0.155c-0.157,0-0.291-0.052-0.403-0.155    S512.918,167.722,512.918,167.511z M515.336,167.511c0-0.221,0.057-0.379,0.169-0.477c0.111-0.098,0.246-0.146,0.402-0.146    c0.157,0,0.293,0.049,0.41,0.146c0.116,0.098,0.174,0.256,0.174,0.477c0,0.211-0.058,0.369-0.174,0.473    c-0.117,0.104-0.253,0.155-0.41,0.155c-0.156,0-0.291-0.052-0.402-0.155C515.393,167.88,515.336,167.722,515.336,167.511z"/>
      <path class="st42"
            d="M524.515,176.353v-4.5c0-0.567-0.129-0.99-0.387-1.27c-0.259-0.279-0.662-0.42-1.213-0.42    c-0.731,0-1.267,0.199-1.603,0.598c-0.337,0.397-0.505,1.049-0.505,1.955v3.637h-1.054v-9.877h1.054v2.99    c0,0.359-0.017,0.657-0.051,0.895h0.063c0.208-0.334,0.503-0.598,0.886-0.79s0.82-0.289,1.311-0.289    c0.851,0,1.488,0.202,1.914,0.606c0.425,0.404,0.638,1.046,0.638,1.926v4.539H524.515z"/>
      <path class="st42"
            d="M530.672,176.48c-1.028,0-1.84-0.313-2.434-0.939c-0.595-0.626-0.893-1.496-0.893-2.609    c0-1.121,0.276-2.012,0.829-2.672c0.552-0.66,1.293-0.99,2.225-0.99c0.871,0,1.562,0.287,2.069,0.86s0.762,1.329,0.762,2.269    v0.667h-4.793c0.021,0.816,0.228,1.437,0.619,1.86c0.392,0.423,0.942,0.635,1.653,0.635c0.749,0,1.49-0.157,2.222-0.471v0.939    c-0.372,0.161-0.725,0.276-1.057,0.347C531.543,176.444,531.142,176.48,530.672,176.48z M530.387,170.152    c-0.559,0-1.004,0.182-1.336,0.545c-0.333,0.364-0.528,0.868-0.588,1.512h3.638c0-0.665-0.148-1.174-0.444-1.527    C531.359,170.327,530.937,170.152,530.387,170.152z"/>
      <path class="st42"
            d="M538.2,169.269c0.31,0,0.586,0.025,0.832,0.076l-0.146,0.978c-0.287-0.063-0.541-0.095-0.762-0.095    c-0.562,0-1.044,0.229-1.444,0.686c-0.399,0.457-0.6,1.025-0.6,1.707v3.732h-1.054v-6.957h0.87l0.12,1.289h0.051    c0.259-0.453,0.569-0.803,0.934-1.048C537.364,169.392,537.765,169.269,538.2,169.269z"/>
	</g>
    <g>
		<path class="st42" d="M165.396,80.888h-1.936v-9.28h5.319v1.612h-3.383v2.393h3.148v1.606h-3.148V80.888z"/>
      <path class="st42" d="M172.378,80.888h-1.936v-9.877h1.936V80.888z"/>
      <path class="st42"
            d="M177.622,81.015c-1.143,0-2.036-0.315-2.679-0.945c-0.643-0.631-0.965-1.523-0.965-2.68    c0-1.188,0.297-2.108,0.892-2.758c0.595-0.649,1.417-0.975,2.466-0.975c1.003,0,1.784,0.286,2.342,0.857s0.838,1.36,0.838,2.367    v0.939h-4.577c0.021,0.551,0.184,0.98,0.489,1.289s0.732,0.463,1.282,0.463c0.427,0,0.832-0.044,1.212-0.133    s0.779-0.23,1.193-0.426v1.498c-0.338,0.17-0.7,0.296-1.085,0.378C178.646,80.974,178.176,81.015,177.622,81.015z M177.349,75.035    c-0.411,0-0.732,0.13-0.965,0.391c-0.233,0.26-0.366,0.629-0.4,1.107h2.717c-0.008-0.479-0.133-0.848-0.375-1.107    C178.085,75.165,177.759,75.035,177.349,75.035z"/>
      <path class="st42"
            d="M183.544,77.263l-2.285-3.472h2.196l1.377,2.26l1.39-2.26h2.196l-2.311,3.472l2.418,3.625h-2.203    l-1.492-2.432l-1.498,2.432h-2.196L183.544,77.263z"/>
      <path class="st42"
            d="M189.523,71.956c0-0.63,0.351-0.945,1.054-0.945s1.054,0.315,1.054,0.945c0,0.301-0.088,0.535-0.263,0.702    c-0.176,0.167-0.439,0.251-0.791,0.251C189.875,72.909,189.523,72.591,189.523,71.956z M191.542,80.888h-1.936v-7.097h1.936    V80.888z"/>
      <path class="st42"
            d="M197.521,73.657c0.838,0,1.494,0.327,1.968,0.981c0.474,0.653,0.711,1.55,0.711,2.688    c0,1.172-0.244,2.079-0.733,2.723c-0.488,0.644-1.154,0.965-1.996,0.965c-0.833,0-1.487-0.303-1.961-0.908h-0.133l-0.324,0.781    h-1.479v-9.877h1.936v2.298c0,0.292-0.025,0.76-0.076,1.403h0.076C195.962,74.009,196.633,73.657,197.521,73.657z M196.899,75.206    c-0.478,0-0.827,0.147-1.047,0.441s-0.334,0.78-0.343,1.457v0.209c0,0.762,0.113,1.309,0.339,1.639    c0.227,0.33,0.585,0.494,1.076,0.494c0.398,0,0.714-0.183,0.949-0.549c0.234-0.366,0.352-0.898,0.352-1.596    c0-0.699-0.119-1.223-0.355-1.571C197.634,75.381,197.31,75.206,196.899,75.206z"/>
      <path class="st42"
            d="M201.717,71.956c0-0.63,0.351-0.945,1.054-0.945s1.054,0.315,1.054,0.945c0,0.301-0.088,0.535-0.263,0.702    c-0.176,0.167-0.439,0.251-0.791,0.251C202.068,72.909,201.717,72.591,201.717,71.956z M203.736,80.888H201.8v-7.097h1.936V80.888    z"/>
      <path class="st42" d="M207.703,80.888h-1.936v-9.877h1.936V80.888z"/>
      <path class="st42"
            d="M212.724,79.472c0.338,0,0.745-0.073,1.219-0.222v1.44c-0.482,0.217-1.075,0.324-1.777,0.324    c-0.774,0-1.338-0.195-1.692-0.587c-0.353-0.392-0.53-0.979-0.53-1.762v-3.421h-0.927v-0.819l1.066-0.647l0.559-1.498h1.238v1.511    h1.987v1.454h-1.987v3.421c0,0.275,0.077,0.479,0.231,0.609C212.266,79.406,212.47,79.472,212.724,79.472z"/>
      <path class="st42"
            d="M219.884,80.888l-0.375-0.965h-0.051c-0.326,0.41-0.661,0.695-1.006,0.854    c-0.345,0.159-0.794,0.238-1.349,0.238c-0.681,0-1.218-0.194-1.609-0.584c-0.391-0.39-0.587-0.943-0.587-1.663    c0-0.753,0.264-1.309,0.79-1.666c0.527-0.357,1.322-0.556,2.384-0.594l1.231-0.038v-0.311c0-0.72-0.368-1.08-1.104-1.08    c-0.567,0-1.233,0.172-2,0.515l-0.641-1.308c0.817-0.428,1.722-0.641,2.717-0.641c0.952,0,1.682,0.207,2.19,0.621    c0.508,0.415,0.762,1.046,0.762,1.893v4.729H219.884z M216.171,71.97c0-0.275,0.08-0.487,0.238-0.635    c0.159-0.148,0.374-0.223,0.645-0.223c0.279,0,0.498,0.078,0.657,0.234c0.158,0.157,0.238,0.364,0.238,0.623    c0,0.254-0.081,0.458-0.241,0.612s-0.379,0.231-0.654,0.231c-0.271,0-0.485-0.074-0.645-0.223    C216.25,72.444,216.171,72.235,216.171,71.97z M219.313,77.6l-0.749,0.025c-0.563,0.017-0.982,0.118-1.257,0.305    s-0.413,0.47-0.413,0.851c0,0.546,0.313,0.818,0.939,0.818c0.449,0,0.807-0.129,1.076-0.387c0.269-0.258,0.403-0.601,0.403-1.028    V77.6z M218.729,71.97c0-0.297,0.086-0.514,0.257-0.651c0.172-0.138,0.384-0.206,0.638-0.206c0.275,0,0.494,0.076,0.657,0.229    c0.163,0.152,0.245,0.361,0.245,0.629c0,0.258-0.083,0.463-0.248,0.615s-0.383,0.229-0.654,0.229    c-0.254,0-0.466-0.068-0.638-0.206C218.815,72.47,218.729,72.257,218.729,71.97z"/>
      <path class="st42"
            d="M226.219,79.472c0.338,0,0.745-0.073,1.219-0.222v1.44c-0.482,0.217-1.075,0.324-1.777,0.324    c-0.774,0-1.338-0.195-1.692-0.587c-0.353-0.392-0.53-0.979-0.53-1.762v-3.421h-0.927v-0.819l1.066-0.647l0.559-1.498h1.238v1.511    h1.987v1.454h-1.987v3.421c0,0.275,0.077,0.479,0.231,0.609C225.761,79.406,225.965,79.472,226.219,79.472z"/>
	</g>
    <g>
		<path class="st42"
          d="M180.929,151.953h-6.906v-1.275l4.45-6.38h-4.329v-1.625h6.665v1.27l-4.443,6.386h4.564V151.953z"/>
      <path class="st42"
            d="M182.173,143.022c0-0.63,0.351-0.945,1.054-0.945s1.054,0.315,1.054,0.945c0,0.301-0.088,0.535-0.263,0.702    c-0.176,0.167-0.439,0.251-0.791,0.251C182.524,143.975,182.173,143.656,182.173,143.022z M184.191,151.953h-1.936v-7.097h1.936    V151.953z"/>
      <path class="st42"
            d="M192.773,151.953h-1.936v-4.145c0-0.513-0.091-0.896-0.273-1.152s-0.472-0.385-0.87-0.385    c-0.542,0-0.933,0.182-1.174,0.543c-0.241,0.362-0.362,0.962-0.362,1.8v3.339h-1.936v-7.097h1.479l0.26,0.907h0.108    c0.216-0.342,0.513-0.602,0.892-0.777c0.378-0.176,0.809-0.264,1.292-0.264c0.825,0,1.452,0.224,1.879,0.67    s0.641,1.091,0.641,1.934V151.953z"/>
      <path class="st42"
            d="M199.718,149.846c0,0.728-0.253,1.282-0.759,1.663c-0.505,0.381-1.262,0.571-2.269,0.571    c-0.516,0-0.957-0.035-1.32-0.104c-0.364-0.07-0.705-0.173-1.022-0.308v-1.6c0.36,0.169,0.765,0.311,1.216,0.425    c0.45,0.114,0.847,0.171,1.19,0.171c0.703,0,1.054-0.203,1.054-0.609c0-0.152-0.046-0.275-0.14-0.371    c-0.093-0.095-0.254-0.203-0.482-0.323c-0.229-0.121-0.533-0.262-0.914-0.423c-0.546-0.229-0.947-0.439-1.203-0.635    c-0.256-0.194-0.442-0.417-0.559-0.669c-0.117-0.252-0.175-0.562-0.175-0.931c0-0.63,0.244-1.118,0.733-1.463    c0.488-0.345,1.182-0.518,2.079-0.518c0.855,0,1.687,0.187,2.495,0.559l-0.584,1.396c-0.355-0.152-0.688-0.276-0.997-0.374    s-0.624-0.146-0.946-0.146c-0.571,0-0.857,0.154-0.857,0.463c0,0.174,0.092,0.324,0.276,0.451    c0.185,0.127,0.587,0.314,1.209,0.564c0.554,0.225,0.96,0.434,1.219,0.629c0.258,0.194,0.449,0.418,0.571,0.672    S199.718,149.494,199.718,149.846z"/>
      <path class="st42"
            d="M204.44,152.08c-1.143,0-2.036-0.315-2.679-0.945c-0.643-0.631-0.965-1.523-0.965-2.68    c0-1.188,0.297-2.108,0.892-2.758c0.595-0.649,1.417-0.975,2.466-0.975c1.003,0,1.784,0.286,2.342,0.857s0.838,1.36,0.838,2.367    v0.939h-4.577c0.021,0.551,0.184,0.98,0.489,1.289s0.732,0.463,1.282,0.463c0.427,0,0.832-0.044,1.212-0.133    s0.779-0.23,1.193-0.426v1.498c-0.338,0.17-0.7,0.296-1.085,0.378C205.464,152.039,204.995,152.08,204.44,152.08z     M204.167,146.101c-0.411,0-0.732,0.13-0.965,0.391c-0.233,0.26-0.366,0.629-0.4,1.107h2.717    c-0.008-0.479-0.133-0.848-0.375-1.107C204.904,146.231,204.578,146.101,204.167,146.101z"/>
      <path class="st42"
            d="M215.46,151.953h-1.936v-4.145c0-0.513-0.091-0.896-0.273-1.152s-0.472-0.385-0.87-0.385    c-0.542,0-0.933,0.182-1.174,0.543c-0.241,0.362-0.362,0.962-0.362,1.8v3.339h-1.936v-7.097h1.479l0.26,0.907h0.108    c0.216-0.342,0.513-0.602,0.892-0.777c0.378-0.176,0.809-0.264,1.292-0.264c0.825,0,1.452,0.224,1.879,0.67    s0.641,1.091,0.641,1.934V151.953z"/>
	</g>
    <g>
		<path class="st42" d="M170.039,223.02v-9.28h1.968v7.655h3.764v1.625H170.039z"/>
      <path class="st42"
            d="M181.738,223.02l-0.375-0.965h-0.051c-0.326,0.41-0.661,0.695-1.006,0.854    c-0.345,0.159-0.794,0.238-1.349,0.238c-0.681,0-1.218-0.194-1.609-0.584c-0.391-0.39-0.587-0.943-0.587-1.663    c0-0.753,0.264-1.309,0.79-1.666c0.527-0.357,1.322-0.556,2.384-0.594l1.231-0.038v-0.311c0-0.72-0.368-1.08-1.104-1.08    c-0.567,0-1.233,0.172-2,0.515l-0.641-1.308c0.817-0.428,1.722-0.641,2.717-0.641c0.952,0,1.682,0.207,2.19,0.621    c0.508,0.415,0.762,1.046,0.762,1.893v4.729H181.738z M181.167,219.732l-0.749,0.025c-0.563,0.017-0.982,0.118-1.257,0.305    s-0.413,0.47-0.413,0.851c0,0.546,0.313,0.818,0.939,0.818c0.449,0,0.807-0.129,1.076-0.387c0.269-0.258,0.403-0.601,0.403-1.028    V219.732z"/>
      <path class="st42"
            d="M190.11,223.02l-0.26-0.908h-0.102c-0.208,0.33-0.501,0.586-0.882,0.766s-0.814,0.27-1.301,0.27    c-0.833,0-1.462-0.224-1.885-0.67s-0.635-1.088-0.635-1.926v-4.628h1.936v4.146c0,0.512,0.091,0.896,0.273,1.151    s0.472,0.384,0.87,0.384c0.542,0,0.933-0.181,1.174-0.542c0.241-0.362,0.362-0.962,0.362-1.8v-3.339h1.936v7.097H190.11z"/>
      <path class="st42"
            d="M197.55,217.377h-1.676v5.643h-1.936v-5.643h-1.066v-0.934l1.066-0.521v-0.521    c0-0.809,0.199-1.398,0.597-1.771c0.398-0.372,1.035-0.559,1.911-0.559c0.668,0,1.263,0.1,1.784,0.299l-0.495,1.422    c-0.389-0.123-0.749-0.184-1.079-0.184c-0.275,0-0.474,0.081-0.597,0.244s-0.184,0.371-0.184,0.625v0.444h1.676V217.377z"/>
      <path class="st42"
            d="M203.599,223.02h-5.605v-1.143l3.288-4.475h-3.091v-1.479h5.294v1.257l-3.199,4.361h3.313V223.02z"/>
      <path class="st42"
            d="M208.214,223.147c-1.143,0-2.036-0.315-2.679-0.945c-0.643-0.631-0.965-1.523-0.965-2.68    c0-1.188,0.297-2.108,0.892-2.758c0.595-0.649,1.417-0.975,2.466-0.975c1.003,0,1.784,0.286,2.342,0.857s0.838,1.36,0.838,2.367    v0.939h-4.577c0.021,0.551,0.184,0.98,0.489,1.289s0.732,0.463,1.282,0.463c0.427,0,0.832-0.044,1.212-0.133    s0.779-0.23,1.193-0.426v1.498c-0.338,0.17-0.7,0.296-1.085,0.378C209.238,223.106,208.768,223.147,208.214,223.147z     M207.941,217.167c-0.411,0-0.732,0.13-0.965,0.391c-0.233,0.26-0.366,0.629-0.4,1.107h2.717    c-0.008-0.479-0.133-0.848-0.375-1.107C208.677,217.297,208.352,217.167,207.941,217.167z"/>
      <path class="st42"
            d="M212.6,214.088c0-0.63,0.351-0.945,1.054-0.945s1.054,0.315,1.054,0.945c0,0.301-0.088,0.535-0.263,0.702    c-0.176,0.167-0.439,0.251-0.791,0.251C212.951,215.041,212.6,214.723,212.6,214.088z M214.619,223.02h-1.936v-7.097h1.936V223.02    z"/>
      <path class="st42"
            d="M219.64,221.604c0.338,0,0.745-0.073,1.219-0.222v1.44c-0.482,0.217-1.075,0.324-1.777,0.324    c-0.774,0-1.338-0.195-1.692-0.587c-0.353-0.392-0.53-0.979-0.53-1.762v-3.421h-0.927v-0.819l1.066-0.647l0.559-1.498h1.238v1.511    h1.987v1.454h-1.987v3.421c0,0.275,0.077,0.479,0.231,0.609C219.182,221.538,219.386,221.604,219.64,221.604z"/>
	</g>
    <g>
		<path class="st42"
          d="M168.862,294.085h-2.234l-2.431-3.91l-0.832,0.596v3.314h-1.968v-9.281h1.968v4.248l0.774-1.092l2.514-3.156    h2.184l-3.237,4.107L168.862,294.085z"/>
      <path class="st42"
            d="M174.905,294.085l-0.26-0.908h-0.102c-0.208,0.33-0.501,0.586-0.882,0.766s-0.814,0.27-1.301,0.27    c-0.833,0-1.462-0.225-1.885-0.67c-0.423-0.447-0.635-1.088-0.635-1.926v-4.629h1.936v4.146c0,0.512,0.091,0.895,0.273,1.15    s0.472,0.385,0.87,0.385c0.542,0,0.933-0.182,1.174-0.543s0.362-0.961,0.362-1.799v-3.34h1.936v7.098H174.905z M170.931,285.167    c0-0.275,0.079-0.488,0.238-0.635c0.158-0.148,0.373-0.223,0.644-0.223c0.279,0,0.499,0.078,0.657,0.234    c0.159,0.156,0.238,0.363,0.238,0.623c0,0.254-0.081,0.457-0.241,0.611s-0.379,0.232-0.654,0.232    c-0.271,0-0.486-0.074-0.644-0.223C171.01,285.64,170.931,285.433,170.931,285.167z M173.489,285.167    c0-0.297,0.085-0.514,0.257-0.652c0.171-0.137,0.384-0.205,0.638-0.205c0.275,0,0.494,0.076,0.657,0.229    c0.163,0.152,0.244,0.361,0.244,0.629c0,0.258-0.083,0.463-0.248,0.615s-0.383,0.229-0.654,0.229    c-0.254,0-0.467-0.068-0.638-0.207C173.575,285.667,173.489,285.454,173.489,285.167z"/>
      <path class="st42"
            d="M184.972,294.085h-1.936v-4.145c0-0.514-0.091-0.896-0.273-1.152s-0.472-0.385-0.87-0.385    c-0.542,0-0.933,0.182-1.174,0.543s-0.362,0.961-0.362,1.799v3.34h-1.936v-7.098h1.479l0.26,0.908h0.108    c0.216-0.342,0.513-0.602,0.892-0.777c0.378-0.176,0.809-0.264,1.292-0.264c0.825,0,1.452,0.223,1.879,0.67    c0.427,0.445,0.641,1.09,0.641,1.934V294.085z"/>
      <path class="st42"
            d="M189.212,294.212c-0.833,0-1.488-0.324-1.965-0.971c-0.476-0.648-0.714-1.545-0.714-2.691    c0-1.164,0.242-2.072,0.727-2.721c0.485-0.65,1.152-0.975,2.003-0.975c0.893,0,1.574,0.348,2.044,1.041h0.063    c-0.097-0.529-0.146-1-0.146-1.416v-2.271h1.942v9.877h-1.485l-0.375-0.92h-0.083    C190.785,293.862,190.114,294.212,189.212,294.212z M189.892,292.669c0.495,0,0.858-0.145,1.088-0.432    c0.231-0.287,0.357-0.777,0.378-1.467v-0.209c0-0.762-0.117-1.307-0.353-1.637c-0.234-0.33-0.617-0.496-1.146-0.496    c-0.432,0-0.767,0.184-1.006,0.549c-0.239,0.367-0.359,0.898-0.359,1.598c0,0.697,0.121,1.221,0.362,1.57    S189.443,292.669,189.892,292.669z"/>
      <path class="st42"
            d="M195.109,285.153c0-0.631,0.351-0.945,1.054-0.945s1.054,0.314,1.054,0.945c0,0.301-0.088,0.535-0.263,0.701    c-0.176,0.168-0.439,0.252-0.791,0.252C195.46,286.107,195.109,285.788,195.109,285.153z M197.128,294.085h-1.936v-7.098h1.936    V294.085z"/>
      <path class="st42"
            d="M205.335,286.987v0.984l-1.111,0.285c0.203,0.318,0.305,0.674,0.305,1.066c0,0.762-0.266,1.355-0.797,1.781    c-0.531,0.426-1.268,0.639-2.212,0.639l-0.349-0.02l-0.286-0.031c-0.199,0.152-0.298,0.32-0.298,0.508    c0,0.279,0.355,0.418,1.066,0.418h1.206c0.779,0,1.372,0.168,1.781,0.502c0.408,0.334,0.612,0.824,0.612,1.473    c0,0.828-0.346,1.473-1.038,1.93c-0.691,0.457-1.685,0.686-2.98,0.686c-0.99,0-1.747-0.174-2.269-0.518    c-0.523-0.346-0.784-0.828-0.784-1.451c0-0.428,0.133-0.785,0.4-1.072s0.658-0.492,1.174-0.615    c-0.199-0.086-0.373-0.225-0.521-0.416c-0.148-0.193-0.222-0.396-0.222-0.613c0-0.27,0.078-0.496,0.235-0.676    s0.383-0.355,0.679-0.529c-0.373-0.162-0.667-0.42-0.885-0.775c-0.218-0.355-0.327-0.773-0.327-1.256    c0-0.775,0.252-1.373,0.755-1.797s1.223-0.635,2.158-0.635c0.199,0,0.435,0.018,0.708,0.055c0.273,0.035,0.448,0.062,0.524,0.078    H205.335z M199.857,295.087c0,0.268,0.128,0.477,0.384,0.629c0.256,0.152,0.615,0.229,1.076,0.229    c0.694,0,1.238-0.096,1.631-0.285c0.394-0.191,0.59-0.451,0.59-0.781c0-0.266-0.116-0.451-0.349-0.553s-0.592-0.152-1.079-0.152    h-1.003c-0.355,0-0.653,0.084-0.892,0.252C199.977,294.591,199.857,294.812,199.857,295.087z M200.562,289.312    c0,0.385,0.088,0.689,0.263,0.914c0.176,0.225,0.443,0.336,0.803,0.336c0.364,0,0.63-0.111,0.8-0.336s0.254-0.529,0.254-0.914    c0-0.855-0.351-1.283-1.054-1.283C200.917,288.028,200.562,288.456,200.562,289.312z"/>
      <path class="st42"
            d="M211.531,294.085l-0.26-0.908h-0.102c-0.208,0.33-0.501,0.586-0.882,0.766s-0.814,0.27-1.301,0.27    c-0.833,0-1.462-0.225-1.885-0.67c-0.423-0.447-0.635-1.088-0.635-1.926v-4.629h1.936v4.146c0,0.512,0.091,0.895,0.273,1.15    s0.472,0.385,0.87,0.385c0.542,0,0.933-0.182,1.174-0.543s0.362-0.961,0.362-1.799v-3.34h1.936v7.098H211.531z"/>
      <path class="st42"
            d="M221.598,294.085h-1.936v-4.145c0-0.514-0.091-0.896-0.273-1.152s-0.472-0.385-0.87-0.385    c-0.542,0-0.933,0.182-1.174,0.543s-0.362,0.961-0.362,1.799v3.34h-1.936v-7.098h1.479l0.26,0.908h0.108    c0.216-0.342,0.513-0.602,0.892-0.777c0.378-0.176,0.809-0.264,1.292-0.264c0.825,0,1.452,0.223,1.879,0.67    c0.427,0.445,0.641,1.09,0.641,1.934V294.085z"/>
      <path class="st42"
            d="M229.768,286.987v0.984l-1.111,0.285c0.203,0.318,0.305,0.674,0.305,1.066c0,0.762-0.266,1.355-0.797,1.781    c-0.531,0.426-1.268,0.639-2.212,0.639l-0.349-0.02l-0.286-0.031c-0.199,0.152-0.298,0.32-0.298,0.508    c0,0.279,0.355,0.418,1.066,0.418h1.206c0.779,0,1.372,0.168,1.781,0.502c0.408,0.334,0.612,0.824,0.612,1.473    c0,0.828-0.346,1.473-1.038,1.93c-0.691,0.457-1.685,0.686-2.98,0.686c-0.99,0-1.747-0.174-2.269-0.518    c-0.523-0.346-0.784-0.828-0.784-1.451c0-0.428,0.133-0.785,0.4-1.072s0.658-0.492,1.174-0.615    c-0.199-0.086-0.373-0.225-0.521-0.416c-0.148-0.193-0.222-0.396-0.222-0.613c0-0.27,0.078-0.496,0.235-0.676    s0.383-0.355,0.679-0.529c-0.373-0.162-0.667-0.42-0.885-0.775c-0.218-0.355-0.327-0.773-0.327-1.256    c0-0.775,0.252-1.373,0.755-1.797s1.223-0.635,2.158-0.635c0.199,0,0.435,0.018,0.708,0.055c0.273,0.035,0.448,0.062,0.524,0.078    H229.768z M224.29,295.087c0,0.268,0.128,0.477,0.384,0.629c0.256,0.152,0.615,0.229,1.076,0.229c0.694,0,1.238-0.096,1.631-0.285    c0.394-0.191,0.59-0.451,0.59-0.781c0-0.266-0.116-0.451-0.349-0.553s-0.592-0.152-1.079-0.152h-1.003    c-0.355,0-0.653,0.084-0.892,0.252C224.409,294.591,224.29,294.812,224.29,295.087z M224.994,289.312    c0,0.385,0.088,0.689,0.263,0.914c0.176,0.225,0.443,0.336,0.803,0.336c0.364,0,0.63-0.111,0.8-0.336s0.254-0.529,0.254-0.914    c0-0.855-0.351-1.283-1.054-1.283C225.35,288.028,224.994,288.456,224.994,289.312z"/>
	</g>
    <g>
		<path class="st42" d="M462.979,34.213h-2.233V23.505h6.138v1.86h-3.904v2.762h3.633v1.853h-3.633V34.213z"/>
      <path class="st42"
            d="M472.508,34.36c-1.318,0-2.349-0.363-3.091-1.092c-0.742-0.727-1.113-1.758-1.113-3.09    c0-1.372,0.343-2.434,1.029-3.183c0.686-0.75,1.634-1.124,2.845-1.124c1.157,0,2.059,0.329,2.703,0.988s0.967,1.57,0.967,2.732    v1.084h-5.281c0.024,0.635,0.213,1.13,0.564,1.486c0.352,0.356,0.845,0.535,1.479,0.535c0.493,0,0.959-0.052,1.398-0.154    s0.898-0.266,1.377-0.49v1.729c-0.391,0.195-0.808,0.34-1.252,0.436C473.689,34.312,473.147,34.36,472.508,34.36z M472.192,27.46    c-0.474,0-0.845,0.15-1.113,0.45c-0.269,0.301-0.422,0.727-0.461,1.278h3.135c-0.01-0.552-0.154-0.978-0.433-1.278    C473.042,27.61,472.666,27.46,472.192,27.46z"/>
      <path class="st42"
            d="M483.377,31.781c0,0.84-0.292,1.479-0.875,1.919c-0.584,0.439-1.457,0.659-2.619,0.659    c-0.596,0-1.104-0.04-1.523-0.121c-0.42-0.08-0.812-0.198-1.179-0.355v-1.846c0.415,0.196,0.883,0.359,1.402,0.491    c0.521,0.132,0.978,0.198,1.373,0.198c0.811,0,1.216-0.234,1.216-0.703c0-0.176-0.054-0.319-0.161-0.429    c-0.107-0.11-0.293-0.234-0.557-0.374c-0.264-0.139-0.615-0.301-1.055-0.486c-0.63-0.264-1.093-0.508-1.388-0.732    c-0.296-0.225-0.511-0.482-0.645-0.773c-0.135-0.29-0.201-0.648-0.201-1.072c0-0.728,0.282-1.291,0.846-1.688    c0.564-0.398,1.363-0.597,2.398-0.597c0.986,0,1.946,0.215,2.879,0.645l-0.674,1.611c-0.41-0.176-0.794-0.32-1.15-0.433    s-0.72-0.169-1.091-0.169c-0.659,0-0.989,0.179-0.989,0.535c0,0.2,0.106,0.373,0.319,0.52c0.212,0.146,0.677,0.364,1.395,0.652    c0.64,0.259,1.108,0.501,1.406,0.725c0.298,0.226,0.518,0.484,0.659,0.777S483.377,31.376,483.377,31.781z"/>
      <path class="st42"
            d="M488.569,32.58c0.391,0,0.859-0.086,1.406-0.257v1.663c-0.557,0.248-1.24,0.373-2.051,0.373    c-0.894,0-1.544-0.226-1.951-0.678c-0.408-0.451-0.612-1.129-0.612-2.032v-3.948h-1.069v-0.944l1.23-0.747l0.645-1.729h1.429    v1.743h2.292v1.677h-2.292v3.948c0,0.317,0.089,0.552,0.268,0.703C488.041,32.504,488.276,32.58,488.569,32.58z"/>
      <path class="st42"
            d="M498.758,26.025v1.136l-1.282,0.329c0.234,0.366,0.352,0.776,0.352,1.23c0,0.879-0.307,1.563-0.919,2.055    c-0.613,0.49-1.464,0.735-2.553,0.735l-0.402-0.021l-0.33-0.037c-0.229,0.176-0.344,0.372-0.344,0.586    c0,0.322,0.41,0.484,1.23,0.484h1.392c0.898,0,1.583,0.192,2.054,0.578c0.472,0.386,0.707,0.952,0.707,1.699    c0,0.957-0.399,1.699-1.197,2.227c-0.799,0.527-1.944,0.791-3.438,0.791c-1.143,0-2.016-0.199-2.619-0.597    c-0.603-0.398-0.904-0.956-0.904-1.674c0-0.493,0.154-0.906,0.462-1.237c0.308-0.332,0.759-0.569,1.354-0.711    c-0.229-0.098-0.43-0.258-0.601-0.479c-0.171-0.223-0.256-0.458-0.256-0.707c0-0.312,0.09-0.572,0.271-0.78    c0.181-0.207,0.442-0.411,0.784-0.611c-0.43-0.186-0.771-0.483-1.022-0.894c-0.251-0.41-0.377-0.894-0.377-1.45    c0-0.894,0.291-1.584,0.872-2.072s1.411-0.732,2.49-0.732c0.229,0,0.501,0.021,0.816,0.062c0.314,0.042,0.517,0.072,0.604,0.092    H498.758z M492.437,35.37c0,0.308,0.147,0.55,0.443,0.726c0.295,0.176,0.709,0.264,1.241,0.264c0.801,0,1.429-0.11,1.883-0.33    s0.681-0.52,0.681-0.9c0-0.309-0.134-0.521-0.402-0.638s-0.684-0.176-1.245-0.176h-1.157c-0.41,0-0.754,0.097-1.029,0.289    C492.574,34.798,492.437,35.053,492.437,35.37z M493.25,28.705c0,0.444,0.101,0.796,0.304,1.055    c0.202,0.259,0.512,0.389,0.927,0.389c0.42,0,0.728-0.13,0.923-0.389s0.293-0.61,0.293-1.055c0-0.986-0.405-1.479-1.216-1.479    C493.66,27.226,493.25,27.719,493.25,28.705z"/>
      <path class="st42"
            d="M503.812,34.36c-1.318,0-2.349-0.363-3.091-1.092c-0.742-0.727-1.113-1.758-1.113-3.09    c0-1.372,0.343-2.434,1.029-3.183c0.686-0.75,1.634-1.124,2.845-1.124c1.157,0,2.059,0.329,2.703,0.988s0.967,1.57,0.967,2.732    v1.084h-5.281c0.024,0.635,0.213,1.13,0.564,1.486c0.352,0.356,0.845,0.535,1.479,0.535c0.493,0,0.959-0.052,1.398-0.154    s0.898-0.266,1.377-0.49v1.729c-0.391,0.195-0.808,0.34-1.252,0.436C504.993,34.312,504.451,34.36,503.812,34.36z M503.496,27.46    c-0.474,0-0.845,0.15-1.113,0.45c-0.269,0.301-0.422,0.727-0.461,1.278h3.135c-0.01-0.552-0.154-0.978-0.433-1.278    C504.346,27.61,503.97,27.46,503.496,27.46z"/>
      <path class="st42" d="M511.201,34.213h-2.233V22.817h2.233V34.213z"/>
      <path class="st42"
            d="M516.138,34.36c-0.962,0-1.718-0.373-2.267-1.121c-0.55-0.746-0.824-1.781-0.824-3.105    c0-1.342,0.279-2.389,0.839-3.138c0.559-0.75,1.329-1.124,2.311-1.124c1.03,0,1.816,0.4,2.358,1.201h0.073    c-0.112-0.61-0.168-1.155-0.168-1.634v-2.622h2.241v11.396h-1.714l-0.433-1.062h-0.095    C517.952,33.957,517.178,34.36,516.138,34.36z M516.922,32.58c0.571,0,0.989-0.166,1.256-0.498    c0.266-0.332,0.411-0.896,0.436-1.692v-0.241c0-0.879-0.136-1.51-0.406-1.891c-0.271-0.381-0.712-0.57-1.322-0.57    c-0.498,0-0.885,0.211-1.161,0.633c-0.275,0.423-0.413,1.037-0.413,1.842c0,0.807,0.139,1.41,0.417,1.813    C516.006,32.378,516.404,32.58,516.922,32.58z"/>
	</g>
</g>
  <g id="Logo">
</g>
</svg>
