<svg xmlns="http://www.w3.org/2000/svg" xmlns:xlink="http://www.w3.org/1999/xlink" version="1.1" baseProfile="basic"
     x="0px" y="0px" width="750px" height="277.051px" viewBox="0 0 750 277.051" xml:space="preserve">
<style type="text/css">
	.st0 {
    fill: #FFFFFF;
  }

  .st1 {
    fill: none;
    stroke: #004B8C;
    stroke-linecap: round;
    stroke-linejoin: round;
    stroke-miterlimit: 10;
  }

  .st2 {
    fill: #D0E2F3;
  }

  .st3 {
    fill: none;
    stroke: #004B8C;
    stroke-miterlimit: 10;
  }

  .st4 {
    fill: #E6411A;
  }

  .st5 {
    fill: #003554;
  }

  .st6 {
    fill: #004B8C;
    stroke: #004B8C;
    stroke-linecap: round;
    stroke-linejoin: round;
    stroke-miterlimit: 10;
  }

  .st7 {
    fill: none;
    stroke: #D7D7D7;
    stroke-linecap: round;
    stroke-miterlimit: 10;
  }

  .st8 {
    fill: none;
    stroke: #D7D7D7;
    stroke-linecap: round;
    stroke-linejoin: round;
    stroke-miterlimit: 10;
  }

  .st9 {
    fill: #404040;
  }

  .st10 {
    fill: #FFFFFF;
    stroke: #004B8C;
    stroke-miterlimit: 10;
  }

  .st11 {
    fill: #3A8DFF;
    stroke: #004B8C;
    stroke-linecap: round;
    stroke-linejoin: round;
    stroke-miterlimit: 10;
  }

  .st12 {
    fill: #FFFFFF;
    stroke: #004B8C;
    stroke-linecap: round;
    stroke-linejoin: round;
    stroke-miterlimit: 10;
  }

  .st13 {
    fill: #004B8C;
  }

  .st14 {
    fill: #D0E2F3;
    stroke: #004B8C;
    stroke-linecap: round;
    stroke-linejoin: round;
    stroke-miterlimit: 10;
  }

  .st15 {
    fill: none;
    stroke: #004B8C;
    stroke-linecap: round;
    stroke-miterlimit: 10;
  }

  .st16 {
    fill: none;
    stroke: #D7D7D7;
    stroke-miterlimit: 10;
  }

  .st17 {
    fill: #929292;
  }

  .st18 {
    fill: none;
    stroke: #D7D7D7;
    stroke-width: 0.5;
    stroke-miterlimit: 10;
  }

  .st19 {
    fill: #D7D7D7;
  }

  .st20 {
    fill: none;
    stroke: #3A8DFF;
    stroke-width: 0.8394;
    stroke-linecap: round;
    stroke-linejoin: round;
    stroke-miterlimit: 10;
    stroke-dasharray: 2, 2;
  }

  .st21 {
    fill: #3A8DFF;
  }

  .st22 {
    fill: none;
    stroke: #3A8DFF;
    stroke-miterlimit: 10;
  }

  .st23 {
    fill: none;
  }

  .st24 {
    fill: #D8E8FF;
  }

  .st25 {
    fill: #A1C4E7;
  }

  .st26 {
    fill: #598AB4;
  }

  .st27 {
    fill: #F3F7FC;
  }

  .st28 {
    fill: none;
    stroke: #F3F7FC;
    stroke-width: 0;
    stroke-linecap: round;
    stroke-linejoin: round;
  }

  .st29 {
    fill: #3A8DFF;
    stroke: #004B8C;
    stroke-miterlimit: 10;
  }

  .st30 {
    fill: #7FB5FF;
  }

  .st31 {
    fill: #D8E8FF;
    stroke: #004B8C;
    stroke-miterlimit: 10;
  }

  .st32 {
    fill: #598AB4;
    stroke: #004B8C;
    stroke-miterlimit: 10;
  }

  .st33 {
    fill: #E8F0F9;
  }

  .st34 {
    fill: none;
    stroke: #3A8DFF;
    stroke-linecap: round;
    stroke-linejoin: round;
    stroke-miterlimit: 10;
  }

  .st35 {
    fill: none;
    stroke: #004B8C;
    stroke-width: 1.296;
    stroke-linecap: round;
    stroke-linejoin: round;
    stroke-miterlimit: 10;
  }
</style>
  <g id="Grafik">
</g>
  <g id="Grafik_fertig">
	<g>
		<g>
			<path class="st2"
            d="M474.284,195.142c-0.281-0.069-0.702,0.043-0.988,0.001c-0.1-0.015-0.616,0.42-0.749,1.133     c-0.3,1.609-0.317,2.724-0.194,4.356c0.081,1.082,0.87,1.533,1.509,1.655c0.049,0.009-0.009-0.185,0.026-0.221     c0.024-0.025,0.029-0.062,0.032-0.096c0.201-2.102,0.147-4.227-0.161-6.316"/>
      <path class="st2"
            d="M473.951,207.07c-0.308-0.368-0.958-0.185-1.216,0.22c-0.258,0.405-0.241,0.919-0.226,1.398     c0.04,1.232,0.016,2.466-0.071,3.696c-0.042,0.593-0.103,1.201-0.373,1.73c-0.369,0.724-1.092,1.215-1.857,1.491     s-1.582,0.367-2.386,0.486c-0.254,0.038-0.518,0.083-0.727,0.232c-0.209,0.15-0.342,0.437-0.235,0.671     c0.131,0.286,0.51,0.333,0.824,0.339c1.971,0.035,3.943,0.004,5.912-0.093c0.074-0.004,0.154-0.01,0.209-0.058     c0.064-0.055,0.076-0.148,0.084-0.232c0.302-3.133,0.373-6.288,0.212-9.431c-0.003-0.068-0.01-0.143-0.058-0.191     s-0.153-0.036-0.162,0.032"/>
      <path class="st2"
            d="M489.57,217.092c-2.26,0.07-4.52,0.15-6.78,0.22c-0.45,0.01-1.01-0.05-1.16-0.47c-0.1-0.3,0.1-0.64,0.38-0.8     c0.27-0.16,0.6-0.19,0.91-0.21c0.85-0.07,1.7-0.14,2.55-0.2c0.31-0.03,0.67-0.09,0.81-0.36c0.14-0.28-0.05-0.61-0.22-0.87     c-1.76-2.61-3.57-5.66-5.08-8.48c-0.19-0.36-0.19-0.78,0-1.14c0.275-0.561,1.364-1.446,1.665-2.074     c0.397-0.827,0.701-1.695,0.867-2.598c0.141-0.764,0.209-1.532,0.137-2.309c-0.04-0.476-0.441-2.539-1.74-3.905     c-1.319-1.386-3.543-2.073-4.49-2.415c-1.88-0.69-3.88-0.93-5.87-1.17l1.56-0.02c-0.01-0.14-0.03-0.29-0.05-0.43     c1.27-0.26,2.57-0.37,3.86-0.25c1.27,0.12,2.51,0.47,3.74,0.81c1.22,0.34,2.47,0.7,3.46,1.49c0.92,0.73,1.54,1.78,2.05,2.84     c0.32,0.64,0.61,1.31,0.65,2.03c0.027,0.435-0.044,0.869-0.117,1.296c-0.141,0.775-0.282,1.55-0.423,2.325     c-0.098,0.524-0.183,1.066-0.43,1.539c-0.71,1.38-2.51,1.85-3.45,3.09c-0.06,0.08-0.13,0.16-0.21,0.22     C484.649,209.202,487.109,213.142,489.57,217.092z"/>
      <path class="st2"
            d="M447.158,211.662c-2.087-0.645-3.558-2.602-4.205-4.689c-0.647-2.087-0.602-4.317-0.552-6.501     c0.078-3.371,0.155-6.742,0.233-10.112c0.001-0.061,0.003-0.124,0.033-0.177c0.069-0.126,0.245-0.133,0.389-0.123     c0.564,0.038,1.128,0.075,1.693,0.113c0.239,4.893,0.307,9.794,0.202,14.692c-0.026,1.238-0.061,2.498,0.268,3.691     s1.086,2.335,2.229,2.812"/>
      <path class="st2"
            d="M458.54,189.938c-0.136,2.249,0.306,3.921,0.17,6.17c-0.127,2.099-0.209,5.859-0.247,8.494     c-0.02,1.426-1.056,5.656-1.978,7.561c-0.759,1.569-3.211,2.459-3.542,2.621c-0.99,0.486-7.474,1.99-9.575,1.478     c-0.126,0.474,0.477,0.785,0.954,0.9c1.071,0.259,2.147,0.519,3.245,0.615c2.346,0.206,4.686-0.342,6.977-0.885     c0.369-0.087,0.748-0.18,1.055-0.402c0.364-0.263,0.583-0.677,0.889-1.006c0.202-0.217,0.441-0.396,0.673-0.58     c1.476-1.176,3.844-5.635,3.764-5.964c-0.211-0.871-0.216-1.777-0.22-2.673c-0.024-5.297-0.048-10.594-0.071-15.89     c-0.572,0.081-1.163,0.025-1.709-0.161"/>
      <path class="st2"
            d="M424.047,205.695c-0.233-0.033-0.46,0.189-0.624,0.497s-0.275,0.695-0.382,1.078     c-0.104,0.373-0.208,0.751-0.268,1.157c-0.075,0.509-0.077,1.044-0.079,1.572c-0.001,0.174-0.001,0.349,0.021,0.518     c0.062,0.485,0.301,0.84,0.559,0.994c0.258,0.154,0.535,0.141,0.805,0.127c0.037-1.848,0.031-3.7-0.019-5.547"/>
      <path class="st2"
            d="M424.047,195.557c-0.233-0.028-0.46,0.163-0.624,0.429c-0.164,0.266-0.275,0.6-0.382,0.931     c-0.104,0.322-0.208,0.649-0.268,0.999c-0.075,0.44-0.077,0.901-0.079,1.357c-0.001,0.15-0.001,0.301,0.021,0.447     c0.062,0.419,0.301,0.725,0.559,0.858c0.258,0.133,0.535,0.122,0.805,0.109c0.037-1.596,0.031-3.194-0.019-4.789"/>
      <path class="st2"
            d="M430.173,189.888c0.466,0.319,0.54,0.964,0.57,1.528c0.041,0.778,0.053,1.646-0.467,2.226     c-0.252,0.281-0.6,0.455-0.949,0.6c-1.337,0.554-2.791,0.757-4.232,0.896c-0.237,0.023-0.495,0.054-0.663,0.222     c-0.168,0.169-0.148,0.524,0.082,0.583c0.087,0.022,0.178-0.002,0.265-0.026c0.394-0.107,0.799-0.198,1.207-0.176     c0.454,0.024,0.887,0.186,1.333,0.275c1.458,0.29,2.959-0.214,4.444-0.134c0.36,0.019,0.764,0.06,1.036-0.176     c0.278-0.24,0.291-0.658,0.283-1.025c-0.025-1.151-0.054-2.304-0.17-3.45c-0.042-0.415-0.116-0.869-0.432-1.141     c-0.165-0.142-0.379-0.215-0.592-0.257c-0.457-0.09-0.939-0.047-1.373,0.121"/>
      <path class="st2"
            d="M429.628,200.176c0.466,0.319,0.54,0.964,0.57,1.528c0.041,0.778,0.053,1.646-0.467,2.226     c-0.252,0.281-0.6,0.455-0.949,0.6c-1.337,0.554-2.791,0.757-4.232,0.896c-0.237,0.023-0.495,0.054-0.663,0.222     c-0.168,0.169-0.148,0.524,0.082,0.583c0.087,0.022,0.178-0.002,0.265-0.026c0.394-0.107,0.799-0.198,1.207-0.176     c0.454,0.024,0.887,0.186,1.333,0.275c1.458,0.29,2.959-0.214,4.444-0.134c0.359,0.019,0.764,0.06,1.036-0.176     c0.278-0.24,0.291-0.658,0.283-1.025c-0.025-1.151-0.054-2.304-0.17-3.45c-0.042-0.415-0.116-0.869-0.432-1.141     c-0.165-0.142-0.379-0.215-0.592-0.257c-0.457-0.09-0.939-0.047-1.373,0.121"/>
      <path class="st2"
            d="M430.21,211.264c0.466,0.319,0.54,0.964,0.57,1.528c0.041,0.778,0.053,1.646-0.467,2.226     c-0.252,0.281-0.6,0.455-0.949,0.6c-1.337,0.554-10.64,0.475-12.081,0.614c-0.237,0.023-0.495,0.054-0.663,0.222     c-0.168,0.169-0.148,0.524,0.082,0.583c0.087,0.022,0.178-0.002,0.265-0.026c0.394-0.107,8.648,0.084,9.056,0.106     c0.454,0.024,0.887,0.186,1.333,0.275c1.458,0.29,2.959-0.214,4.444-0.134c0.36,0.019,0.764,0.06,1.036-0.176     c0.278-0.24,0.291-0.658,0.283-1.025c-0.025-1.151-0.054-2.304-0.17-3.45c-0.042-0.415-0.116-0.869-0.432-1.141     c-0.165-0.142-0.379-0.215-0.592-0.257c-0.457-0.09-0.939-0.047-1.373,0.121"/>
      <path class="st2"
            d="M327.292,215.226c0.685,0.834,1.933,1.226,2.974,0.943c0.16-0.044,0.695-0.283,0.848-0.406     c0.734-0.594,1.407-1.47,1.432-2.435c0.026-0.979-0.684-1.818-1.433-2.449c1.028-0.286,2.177,0.156,2.882,0.958     c0.705,0.802,0.999,1.907,0.968,2.974c-0.012,0.42-0.073,0.846-0.246,1.228c-0.337,0.744-1.076,1.252-1.863,1.468     c-0.788,0.216-1.624,0.174-2.432,0.057c-0.555-0.08-1.112-0.197-1.611-0.453c-0.647-0.331-1.173-0.895-1.458-1.564"/>
      <path class="st2"
            d="M291.07,212.022c-0.938-0.703-1.613-1.714-2.058-2.798c-0.445-1.084-0.673-2.244-0.84-3.404     c-0.39-2.71-0.45-5.533,0.433-8.124c0.25-0.733,0.591-1.466,1.185-1.962c0.594-0.496,1.493-0.695,2.156-0.295     c-0.529,0.203-0.938,0.646-1.205,1.146c-0.267,0.5-0.405,1.056-0.525,1.61c-0.799,3.69-0.861,7.538-0.184,11.253     c0.134,0.734,0.3,1.473,0.652,2.131c0.024,0.044,0.046,0.106,0.007,0.138s-0.081-0.07-0.033-0.054"/>
      <path class="st2"
            d="M290.679,189.626c1.483,0.576,2.919,1.312,4.135,2.337c2.443,2.061,3.835,5.197,4.174,8.376     c0.339,3.179-0.302,6.401-1.4,9.403c-0.477,1.304-1.052,2.596-1.951,3.654c-0.86,1.012-1.978,1.766-3.081,2.506     c-0.9,0.604-1.83,1.221-2.892,1.439c0.262,0.513,0.995,0.481,1.561,0.374c1.649-0.312,3.298-0.625,4.947-0.937     c0.669-0.127,1.386-0.279,1.852-0.775c0.227-0.242,0.373-0.545,0.543-0.83c0.613-1.032,1.552-1.858,2.054-2.948     c0.316-0.686,0.442-1.441,0.564-2.185c0.379-2.298,0.759-4.613,0.681-6.94c-0.061-1.823-0.402-3.623-0.742-5.415     c-0.152-0.8-0.306-1.606-0.608-2.363c-0.308-0.771-0.764-1.473-1.217-2.169c-0.807-1.239-1.699-2.551-3.074-3.094     c-0.67-0.265-1.401-0.322-2.119-0.376c-0.872-0.066-1.744-0.132-2.615-0.198"/>
      <path class="st2"
            d="M313.475,212.022c-0.938-0.703-1.613-1.714-2.058-2.798c-0.445-1.084-0.673-2.244-0.84-3.404     c-0.39-2.71-0.45-5.533,0.433-8.124c0.25-0.733,0.592-1.466,1.185-1.962s1.493-0.695,2.156-0.295     c-0.529,0.203-0.938,0.646-1.205,1.146c-0.267,0.5-0.405,1.056-0.525,1.61c-0.799,3.69-0.861,7.538-0.184,11.253     c0.134,0.734,0.3,1.473,0.652,2.131c0.024,0.044,0.046,0.106,0.007,0.138c-0.038,0.032-0.081-0.07-0.033-0.054"/>
      <path class="st2"
            d="M313.084,189.626c1.483,0.576,2.919,1.312,4.135,2.337c2.443,2.061,3.835,5.197,4.174,8.376     c0.339,3.179-0.302,6.401-1.4,9.403c-0.477,1.304-1.052,2.596-1.951,3.654c-0.86,1.012-1.978,1.766-3.081,2.506     c-0.9,0.604-1.83,1.221-2.892,1.439c0.262,0.513,0.995,0.481,1.561,0.374c1.649-0.312,3.298-0.625,4.947-0.937     c0.669-0.127,1.386-0.279,1.852-0.775c0.227-0.242,0.373-0.545,0.543-0.83c0.613-1.032,1.552-1.858,2.054-2.948     c0.316-0.686,0.442-1.441,0.564-2.185c0.379-2.298,0.759-4.613,0.682-6.94c-0.061-1.823-0.402-3.623-0.742-5.415     c-0.152-0.8-0.306-1.606-0.608-2.363c-0.308-0.771-0.764-1.473-1.217-2.169c-0.807-1.239-1.699-2.551-3.074-3.094     c-0.67-0.265-1.401-0.322-2.119-0.376c-0.872-0.066-1.744-0.132-2.615-0.198"/>
      <path class="st2"
            d="M346.564,212.022c-0.938-0.703-1.613-1.714-2.058-2.798c-0.445-1.084-0.673-2.244-0.84-3.404     c-0.39-2.71-0.45-5.533,0.433-8.124c0.25-0.733,0.591-1.466,1.185-1.962c0.594-0.496,1.493-0.695,2.156-0.295     c-0.529,0.203-0.938,0.646-1.205,1.146c-0.267,0.5-0.405,1.056-0.525,1.61c-0.799,3.69-0.861,7.538-0.184,11.253     c0.134,0.734,0.3,1.473,0.652,2.131c0.024,0.044,0.046,0.106,0.007,0.138s-0.081-0.07-0.033-0.054"/>
      <path class="st2"
            d="M346.173,189.626c1.483,0.576,2.919,1.312,4.135,2.337c2.443,2.061,3.835,5.197,4.174,8.376     c0.339,3.179-0.302,6.401-1.4,9.403c-0.477,1.304-1.052,2.596-1.951,3.654c-0.86,1.012-1.978,1.766-3.081,2.506     c-0.9,0.604-1.83,1.221-2.892,1.439c0.262,0.513,0.995,0.481,1.561,0.374c1.649-0.312,3.298-0.625,4.947-0.937     c0.669-0.127,1.386-0.279,1.852-0.775c0.227-0.242,0.373-0.545,0.543-0.83c0.613-1.032,1.552-1.858,2.054-2.948     c0.316-0.686,0.442-1.441,0.564-2.185c0.379-2.298,0.759-4.613,0.681-6.94c-0.061-1.823-0.402-3.623-0.742-5.415     c-0.152-0.8-0.306-1.606-0.608-2.363c-0.308-0.771-0.764-1.473-1.217-2.169c-0.807-1.239-1.699-2.551-3.074-3.094     c-0.67-0.265-1.401-0.322-2.119-0.376c-0.872-0.066-1.744-0.132-2.615-0.198"/>
      <path class="st2"
            d="M369.296,212.022c-0.938-0.703-1.613-1.714-2.058-2.798c-0.445-1.084-0.673-2.244-0.84-3.404     c-0.39-2.71-0.45-5.533,0.433-8.124c0.25-0.733,0.592-1.466,1.185-1.962s1.493-0.695,2.156-0.295     c-0.529,0.203-0.938,0.646-1.205,1.146c-0.267,0.5-0.405,1.056-0.525,1.61c-0.799,3.69-0.861,7.538-0.184,11.253     c0.134,0.734,0.3,1.473,0.652,2.131c0.024,0.044,0.046,0.106,0.007,0.138c-0.038,0.032-0.081-0.07-0.033-0.054"/>
      <path class="st2"
            d="M368.905,189.626c1.483,0.576,2.919,1.312,4.135,2.337c2.443,2.061,3.835,5.197,4.174,8.376     c0.339,3.179-0.302,6.401-1.4,9.403c-0.477,1.304-1.052,2.596-1.951,3.654c-0.86,1.012-1.978,1.766-3.081,2.506     c-0.9,0.604-1.83,1.221-2.892,1.439c0.262,0.513,0.995,0.481,1.561,0.374c1.649-0.312,3.298-0.625,4.947-0.937     c0.669-0.127,1.386-0.279,1.852-0.775c0.227-0.242,0.373-0.545,0.543-0.83c0.613-1.032,1.552-1.858,2.054-2.948     c0.316-0.686,0.442-1.441,0.564-2.185c0.379-2.298,0.759-4.613,0.682-6.94c-0.061-1.823-0.402-3.623-0.742-5.415     c-0.152-0.8-0.306-1.606-0.608-2.363c-0.308-0.771-0.764-1.473-1.217-2.169c-0.807-1.239-1.699-2.551-3.074-3.094     c-0.67-0.265-1.401-0.322-2.119-0.376c-0.872-0.066-1.744-0.132-2.615-0.198"/>
      <path class="st2"
            d="M391.34,212.022c-0.938-0.703-1.613-1.714-2.058-2.798c-0.445-1.084-0.673-2.244-0.84-3.404     c-0.39-2.71-0.45-5.533,0.433-8.124c0.25-0.733,0.591-1.466,1.185-1.962c0.594-0.496,1.493-0.695,2.156-0.295     c-0.529,0.203-0.938,0.646-1.205,1.146c-0.267,0.5-0.405,1.056-0.525,1.61c-0.799,3.69-0.861,7.538-0.184,11.253     c0.134,0.734,0.3,1.473,0.652,2.131c0.024,0.044,0.046,0.106,0.007,0.138s-0.081-0.07-0.033-0.054"/>
      <path class="st2"
            d="M390.949,189.626c1.483,0.576,2.919,1.312,4.135,2.337c2.443,2.061,3.835,5.197,4.174,8.376     c0.339,3.179-0.302,6.401-1.4,9.403c-0.477,1.304-1.052,2.596-1.951,3.654c-0.86,1.012-1.978,1.766-3.081,2.506     c-0.9,0.604-1.83,1.221-2.892,1.439c0.262,0.513,0.995,0.481,1.561,0.374c1.649-0.312,3.298-0.625,4.947-0.937     c0.669-0.127,1.386-0.279,1.852-0.775c0.227-0.242,0.373-0.545,0.543-0.83c0.613-1.032,1.552-1.858,2.054-2.948     c0.316-0.686,0.442-1.441,0.564-2.185c0.379-2.298,0.759-4.613,0.681-6.94c-0.061-1.823-0.402-3.623-0.742-5.415     c-0.152-0.8-0.306-1.606-0.608-2.363c-0.308-0.771-0.764-1.473-1.217-2.169c-0.807-1.239-1.699-2.551-3.074-3.094     c-0.67-0.265-1.401-0.322-2.119-0.376c-0.872-0.066-1.744-0.132-2.615-0.198"/>
      <path class="st2"
            d="M264.333,201.733c-0.181,0.166-0.455,0.206-0.692,0.139c-0.237-0.066-0.438-0.225-0.599-0.411     c-0.167-0.193-0.302-0.446-0.245-0.694c0.043-0.19,0.189-0.338,0.331-0.472c1.013-0.962,1.791-1.461,2.919-2.284     c0.343-0.251,1.186-0.616,1.533-0.696c0.348-0.08,1.016,0.05,1.307,0.256c0.158,0.112-0.149,0.213-0.222,0.392     c-0.025,0.06-0.069,0.109-0.113,0.157c-0.479,0.525-0.958,1.05-1.437,1.576c-0.74,0.812-1.517,1.65-2.538,2.054"/>
      <path class="st2"
            d="M274.119,190.111c0.305,2.096-0.16,4.228-0.071,6.344c0.06,1.409-0.067,13.709-0.392,16.516     c-0.044,0.377-0.092,0.766-0.286,1.092c-0.541,0.914-1.837,0.892-2.899,0.869c-0.305-0.007-1.469-0.084-1.685,0.132     c-0.315,0.315-0.008,1.292,0.001,2.076c2.34,0.12,4.679,0.24,7.019,0.359c0.569-8.597,0.629-16.971,0.229-25.578     c-0.019-0.401-0.052-1.341-0.278-1.673s-1.182-0.247-1.493,0.007"/>
      <g>
				<path class="st1"
              d="M276.035,217.261h-7.481v-14.44c0-1.753,0.037-3.358,0.112-4.813c-0.46,0.56-1.032,1.145-1.716,1.754      l-3.097,2.556l-3.824-4.702l9.365-7.63h6.642V217.261z"/>
        <path class="st1"
              d="M301.894,203.661c0,4.826-0.809,8.361-2.426,10.606c-1.617,2.246-4.092,3.368-7.425,3.368      c-3.259,0-5.715-1.172-7.369-3.517c-1.654-2.344-2.481-5.83-2.481-10.457c0-4.851,0.809-8.408,2.425-10.672      c1.617-2.264,4.092-3.396,7.425-3.396c3.247,0,5.7,1.179,7.36,3.536C301.063,195.486,301.894,198.996,301.894,203.661z       M289.524,203.661c0,3.084,0.193,5.205,0.579,6.362c0.385,1.157,1.032,1.735,1.94,1.735c0.92,0,1.57-0.597,1.95-1.791      c0.379-1.194,0.569-3.296,0.569-6.306c0-3.022-0.193-5.14-0.579-6.353c-0.386-1.213-1.033-1.819-1.94-1.819      s-1.555,0.585-1.94,1.754C289.717,198.412,289.524,200.551,289.524,203.661z"/>
        <path class="st1"
              d="M324.282,203.661c0,4.826-0.809,8.361-2.426,10.606c-1.617,2.246-4.092,3.368-7.425,3.368      c-3.259,0-5.715-1.172-7.369-3.517c-1.654-2.344-2.481-5.83-2.481-10.457c0-4.851,0.809-8.408,2.425-10.672      c1.617-2.264,4.092-3.396,7.425-3.396c3.247,0,5.7,1.179,7.36,3.536C323.451,195.486,324.282,198.996,324.282,203.661z       M311.912,203.661c0,3.084,0.193,5.205,0.579,6.362c0.385,1.157,1.032,1.735,1.94,1.735c0.92,0,1.57-0.597,1.95-1.791      c0.379-1.194,0.569-3.296,0.569-6.306c0-3.022-0.193-5.14-0.579-6.353c-0.386-1.213-1.033-1.819-1.94-1.819      s-1.555,0.585-1.94,1.754C312.105,198.412,311.912,200.551,311.912,203.661z"/>
        <path class="st1"
              d="M327.23,214.164c0-1.144,0.339-2.027,1.017-2.649s1.664-0.933,2.957-0.933c1.231,0,2.177,0.311,2.836,0.933      s0.989,1.505,0.989,2.649c0,1.12-0.339,1.994-1.017,2.622c-0.678,0.628-1.614,0.942-2.808,0.942      c-1.231,0-2.201-0.311-2.91-0.933C327.584,216.173,327.23,215.296,327.23,214.164z"/>
        <path class="st1"
              d="M357.715,203.661c0,4.826-0.809,8.361-2.426,10.606c-1.617,2.246-4.092,3.368-7.425,3.368      c-3.259,0-5.715-1.172-7.369-3.517c-1.654-2.344-2.481-5.83-2.481-10.457c0-4.851,0.809-8.408,2.425-10.672      c1.617-2.264,4.092-3.396,7.425-3.396c3.247,0,5.7,1.179,7.36,3.536C356.884,195.486,357.715,198.996,357.715,203.661z       M345.345,203.661c0,3.084,0.193,5.205,0.579,6.362c0.385,1.157,1.032,1.735,1.94,1.735c0.92,0,1.57-0.597,1.95-1.791      c0.379-1.194,0.569-3.296,0.569-6.306c0-3.022-0.193-5.14-0.579-6.353c-0.386-1.213-1.033-1.819-1.94-1.819      s-1.555,0.585-1.94,1.754C345.538,198.412,345.345,200.551,345.345,203.661z"/>
        <path class="st1"
              d="M380.103,203.661c0,4.826-0.809,8.361-2.426,10.606c-1.617,2.246-4.092,3.368-7.425,3.368      c-3.259,0-5.715-1.172-7.369-3.517c-1.654-2.344-2.481-5.83-2.481-10.457c0-4.851,0.809-8.408,2.425-10.672      c1.617-2.264,4.092-3.396,7.425-3.396c3.247,0,5.7,1.179,7.36,3.536C379.273,195.486,380.103,198.996,380.103,203.661z       M367.733,203.661c0,3.084,0.193,5.205,0.579,6.362c0.385,1.157,1.032,1.735,1.94,1.735c0.92,0,1.57-0.597,1.95-1.791      c0.379-1.194,0.569-3.296,0.569-6.306c0-3.022-0.193-5.14-0.579-6.353c-0.386-1.213-1.033-1.819-1.94-1.819      s-1.555,0.585-1.94,1.754C367.926,198.412,367.733,200.551,367.733,203.661z"/>
        <path class="st1"
              d="M402.491,203.661c0,4.826-0.809,8.361-2.426,10.606c-1.617,2.246-4.092,3.368-7.425,3.368      c-3.259,0-5.715-1.172-7.369-3.517c-1.654-2.344-2.481-5.83-2.481-10.457c0-4.851,0.809-8.408,2.425-10.672      c1.617-2.264,4.092-3.396,7.425-3.396c3.247,0,5.7,1.179,7.36,3.536C401.661,195.486,402.491,198.996,402.491,203.661z       M390.122,203.661c0,3.084,0.193,5.205,0.579,6.362c0.385,1.157,1.032,1.735,1.94,1.735c0.92,0,1.57-0.597,1.95-1.791      c0.379-1.194,0.569-3.296,0.569-6.306c0-3.022-0.193-5.14-0.579-6.353c-0.386-1.213-1.033-1.819-1.94-1.819      s-1.555,0.585-1.94,1.754C390.315,198.412,390.122,200.551,390.122,203.661z"/>
        <path class="st1"
              d="M432.902,217.261h-16.194v-27.276h16.194v5.914h-8.824v4.291h8.172v5.914h-8.172v5.149h8.824V217.261z"/>
        <path class="st1"
              d="M460.868,189.985v16.417c0,3.57-1.011,6.334-3.031,8.293c-2.021,1.959-4.935,2.938-8.741,2.938      c-3.719,0-6.576-0.951-8.572-2.854c-1.996-1.903-2.994-4.639-2.994-8.209v-16.585h7.406v16.007c0,1.928,0.36,3.327,1.082,4.198      s1.785,1.306,3.19,1.306c1.505,0,2.597-0.432,3.274-1.296c0.678-0.864,1.017-2.279,1.017-4.245v-15.97H460.868z"/>
        <path class="st1"
              d="M473.965,207.336v9.925h-7.369v-27.276h8.937c7.412,0,11.119,2.687,11.119,8.06      c0,3.159-1.543,5.604-4.627,7.332l7.947,11.884h-8.357l-5.784-9.925H473.965z M473.965,201.795h1.38      c2.575,0,3.862-1.138,3.862-3.414c0-1.878-1.263-2.817-3.787-2.817h-1.455V201.795z"/>
			</g>
		</g>
    <path class="st2"
          d="M418.009,100.457c1.315,17.264,2.15,34.565,2.502,51.876c0.088,4.348,0.147,8.696,0.198,13.044    c0.015,1.286-0.196,2.906-1.423,3.292c-0.88,0.277-1.979-0.244-2.691,0.343c-0.699,0.577-0.337,1.818,0.448,2.271    c0.785,0.453,1.761,0.351,2.657,0.215c0.896-0.137,1.853-0.287,2.677,0.09c0.054-8.491,0.109-16.982,0.163-25.473    c0.019-2.917,0.037-5.834,0.029-8.751c-0.034-11.781,0.478-27.423,0.002-39.195c-0.017-0.433-1.05-1.117-1.391-1.384    c-0.199-0.157-0.461-0.202-0.712-0.242c-1.147-0.185-2.295-0.37-3.442-0.554"/>
    <path class="st2"
          d="M398.491,68.783c-0.988-0.095-1.386,1.239-1.385,2.232c0.012,9.394,1.993,14.461,8.669,21.069    c3.971,3.93,11.252,7.964,16.524,6.929c0.227-4.529,0.453-4.175,0.68-8.705c0.035-0.703,0.067-1.43-0.186-2.087    c-0.766-1.992-3.422-2.188-5.425-2.924c-2.78-1.021-4.713-3.507-6.492-5.875c-1.467-1.952-2.933-3.903-4.4-5.855    c-1.041-1.385-2.112-2.799-3.567-3.741c-1.454-0.942-3.393-1.33-4.93-0.529"/>
    <path class="st2"
          d="M409.121,148.7c1.935,0.161,3.871,0.322,5.806,0.483c0.238,0.02,0.481,0.041,0.7,0.137    c0.948,0.418,0.817,1.791,1.268,2.724c0.589,1.217,2.234,1.688,2.712,2.953c0.535,1.417-0.69,2.93-0.568,4.44    c0.076,0.942,0.669,1.912,0.273,2.77c-0.366,0.793-1.407,1.055-1.87,1.795c-0.283,0.452-0.308,1.013-0.324,1.547    c-0.056,1.826-0.112,3.652-0.168,5.478c-0.722,0.297-1.444,0.595-2.166,0.892c-0.047-1.778-0.095-3.556-0.142-5.334    c-0.032-1.217-0.058-2.475,0.404-3.601c0.461-1.126,1.548-2.092,2.762-2.013c-0.782-1.1-1.097-2.521-0.854-3.848    c0.104-0.57,0.306-1.157,0.143-1.713c-0.128-0.437-0.461-0.777-0.749-1.13c-0.841-1.026-1.377-2.298-1.525-3.616    c-0.992,0.114-2.005,0.227-2.981,0.016c-0.976-0.212-1.925-0.811-2.288-1.741"/>
    <polyline class="st1" points="341.489,79.757 341.489,68.891 422.577,68.891 422.577,171.508 414.766,171.508   "/>
    <polyline class="st1" points="403.773,171.508 341.489,171.508 341.489,88.659   "/>
    <line class="st1" x1="396.001" y1="148.065" x2="366.201" y2="148.065"/>
    <line class="st1" x1="406.079" y1="77.326" x2="356.123" y2="77.326"/>
    <line class="st1" x1="395.835" y1="82.601" x2="366.367" y2="82.601"/>
    <line class="st1" x1="396.001" y1="153.031" x2="366.201" y2="153.031"/>
    <line class="st1" x1="396.001" y1="157.998" x2="366.201" y2="157.998"/>
    <g>
			<path class="st2"
            d="M432.925,60.824c0,5.912-2.165,10.333-3.989,13.005c-1.998,2.93-4.655,5.276-6.775,5.98     c-0.061,0.023-0.121,0.03-0.182,0.03c2.612-16.934,0-23.05,0-23.05c0.106,0,0.219,0.03,0.318,0.099     c1.711,1.135,6.813,3.361,10.053,3.361C432.667,60.248,432.925,60.506,432.925,60.824z"/>
      <circle class="st33" cx="422.577" cy="67.567" r="23.719"/>
      <path class="st2"
            d="M432.349,60.248c-3.24,0-8.342-2.225-10.053-3.361c-0.098-0.068-0.212-0.099-0.318-0.099     c0,0,2.612,6.116,0,23.05c0.061,0,0.121-0.008,0.182-0.03c2.12-0.704,4.777-3.051,6.775-5.98     c1.824-2.672,3.989-7.093,3.989-13.005C432.925,60.506,432.667,60.248,432.349,60.248z"/>
      <polyline class="st1" points="418.239,68.11 420.842,70.626 426.942,64.509    "/>
      <path class="st3"
            d="M421.975,79.842c-0.061,0-0.123-0.01-0.182-0.03c-2.12-0.707-4.78-3.056-6.778-5.986     c-1.82-2.67-3.991-7.094-3.991-13.005c0-0.318,0.258-0.576,0.576-0.576c3.244,0,8.343-2.22,10.055-3.361     c0.194-0.129,0.446-0.129,0.64,0c1.712,1.141,6.811,3.361,10.055,3.361c0.318,0,0.576,0.258,0.576,0.576     c0,5.911-2.171,10.334-3.991,13.005c-1.998,2.929-4.658,5.279-6.778,5.986c-0.059,0.02-0.121,0.03-0.182,0.03H421.975z"/>
		</g>
    <path class="st2"
          d="M403.775,180.268c1.002-0.273,1.762-1.067,2.641-1.619c0.522-0.328,1.269-0.873,1.866-1.025    c0.417-0.106,1.212-0.096,1.485,0.236c-0.541,0.256-1.464,0.92-1.794,1.42c-0.183,0.277-0.33,0.59-0.591,0.794    c-0.269,0.211-0.621,0.277-0.943,0.392c-0.428,0.152-0.822,0.401-1.143,0.721c-0.196,0.196-0.372,0.422-0.617,0.552    c-0.245,0.13-0.593,0.125-0.755-0.099c-0.078-0.108-0.1-0.246-0.115-0.378c-0.047-0.418-0.048-0.841-0.002-1.259"/>
    <path class="st2"
          d="M413.317,165.247c-0.161,3.855-0.191,7.716-0.092,11.573c0.013,0.495,0.027,0.993-0.042,1.484    c-0.047,0.333-0.177,0.712-0.496,0.819c-0.132,0.044-0.275,0.034-0.413,0.022c-0.408-0.034-0.817-0.067-1.225-0.101    c-0.055,0.186,0.035,0.389,0.169,0.528s0.309,0.232,0.472,0.337c0.931,0.598,1.57,1.665,2.629,1.984    c0.367-0.37,0.327-0.964,0.301-1.484c-0.065-1.275,0.103-2.549,0.193-3.822c0.276-3.892-0.17-7.804,0.029-11.7    c-0.515,0.049-1.025,0.157-1.515,0.322"/>
    <path class="st2"
          d="M403.842,166.701c0.907-0.02,1.813-0.04,2.72-0.059c0.167-0.004,0.339-0.007,0.496,0.051    c0.343,0.127,0.522,0.504,0.821,0.716c0.28,0.198,0.64,0.235,0.982,0.265c0.18,0.016,0.407,0.006,0.479-0.16    c0.054-0.123-0.014-0.263-0.08-0.38c-0.278-0.493-0.562-0.994-0.966-1.39c-0.404-0.396-0.953-0.682-1.518-0.642    c-0.51,0.036-0.994,0.33-1.502,0.271c-0.23-0.026-0.447-0.124-0.677-0.153c-0.23-0.028-0.5,0.039-0.602,0.246    c-0.052,0.105-0.052,0.228-0.051,0.345c0.002,0.173,0.004,0.346,0.006,0.519"/>
    <path class="st2"
          d="M413.054,165.181c-0.017-0.812,0.443-1.795,0.854-2.495c0.997-1.699,1.68-2.212,2.523-2.471    c-0.54-1.371-0.641-2.91-0.287-4.341c-0.944-0.4-1.716-1.143-2.271-2.004s-0.908-1.839-1.169-2.83    c0.494,0.032,0.989,0.064,1.483,0.097c0.09,0.006,0.182,0.012,0.262,0.053c0.191,0.097,0.241,0.341,0.288,0.551    c0.201,0.905,0.726,1.7,1.241,2.471c0.184,0.275,0.375,0.558,0.651,0.739c0.261,0.171,0.596,0.251,0.781,0.503    c0.289,0.394,0.052,0.935-0.085,1.404c-0.17,0.583-0.166,1.2-0.16,1.807c0.002,0.264,0.006,0.535,0.101,0.782    c0.106,0.275,0.321,0.509,0.365,0.8c0.059,0.389-0.2,0.747-0.445,1.055c-0.49,0.616-0.986,1.239-1.61,1.72    c-0.174,0.134-0.359,0.259-0.505,0.423c-0.344,0.39-0.418,0.944-0.438,1.464c-0.005,0.124-0.014,0.262-0.106,0.344    c-0.077,0.069-0.19,0.077-0.293,0.081c-0.33,0.014-0.66,0.028-0.99,0.042"/>
    <path class="st2"
          d="M390.397,92.876c-0.301,1.091-0.601,2.182-0.902,3.272c-0.08,0.289-0.165,0.588-0.358,0.817    c-0.298,0.352-0.799,0.468-1.259,0.436c-0.46-0.032-0.901-0.187-1.351-0.286c-1.023-0.226-2.084-0.164-3.129-0.101    c-1.076,0.065-2.236,0.162-3.056,0.862c2.309-0.475,4.68,0.226,6.933,0.921c0.486,0.15,0.979,0.303,1.407,0.576    c0.244,0.155,0.483,0.355,0.772,0.37c0.548,0.029,0.878-0.582,1.069-1.096c0.586-1.572,1.173-3.144,1.759-4.716    c0.039-0.105,0.078-0.224,0.031-0.325c-0.043-0.092-0.143-0.14-0.236-0.181c-0.483-0.214-0.965-0.428-1.448-0.642"/>
    <path class="st2"
          d="M378.435,99.013c-0.393,1.641,0.478,3.362,1.705,4.521c1.227,1.159,2.777,1.9,4.217,2.781    c1.421,0.869,3.951,1.853,5.129,3.031c1.595,1.595,1.996,3.641,1.996,5.402c0,4.915-3.203,5.86-2.757,6.506    c0.094,0.136,0.496-0.165,0.655-0.208c0.081-0.022,0.143-0.085,0.201-0.145c0.683-0.709,1.365-1.417,2.048-2.126    c0.335-0.348,0.673-0.699,0.938-1.104c0.743-1.134,0.842-2.567,0.79-3.921c-0.033-0.852-0.119-1.715-0.425-2.511    c-0.244-0.633-0.619-1.205-0.992-1.771c-0.443-0.673-0.888-1.35-1.443-1.935c-1.645-1.735-4.043-2.475-6.264-3.358    c-2.221-0.883-4.533-2.147-5.446-4.356"/>
    <path class="st2"
          d="M388.919,121c0.429,0.638,1.041,1.727,1.38,2.416c1.008,2.051,0.512,4.15-0.265,6.299    c-0.778,2.149-2.458,3.955-4.546,4.885c-1.79,0.798-3.801,0.956-5.759,0.885c-0.707-0.025-1.415-0.079-2.106-0.227    c-0.522-0.111-1.031-0.275-1.54-0.439c-1.933-0.623-3.867-1.246-5.8-1.868c-0.166,0.723-0.29,1.597,0.25,2.105    c0.16,0.151,0.363,0.248,0.561,0.342c0.901,0.429,1.806,0.86,2.761,1.149c0.755,0.229,1.535,0.367,2.312,0.504    c0.98,0.173,1.959,0.346,2.939,0.52c0.802,0.142,1.61,0.284,2.425,0.277c1.783-0.017,3.472-0.745,5.105-1.46    c0.967-0.423,1.945-0.854,2.774-1.506c1.666-1.31,2.558-3.377,3.073-5.433c0.271-1.079,0.454-2.223,0.158-3.295    c-0.18-0.649-0.527-1.238-0.895-1.802c-0.783-1.198-1.679-2.322-2.673-3.352"/>
    <g>
			<path class="st1"
            d="M369.655,113.516c0-1.232,0.414-2.435,1.242-3.609c0.827-1.174,1.992-2.213,3.494-3.118     c-2.714-1.964-4.071-4.331-4.071-7.103c0-2.637,1.068-4.716,3.205-6.236c2.137-1.52,4.976-2.281,8.518-2.281     c3.676,0,7.237,0.828,10.683,2.483l-2.829,6.381c-1.405-0.769-2.815-1.376-4.23-1.819c-1.415-0.443-2.652-0.664-3.71-0.664     c-2.079,0-3.118,0.713-3.118,2.137c0,0.828,0.437,1.588,1.314,2.281c0.876,0.693,2.112,1.367,3.71,2.021     c3.368,1.367,5.799,2.829,7.291,4.389c1.491,1.559,2.238,3.272,2.238,5.139c0,1.482-0.308,2.805-0.924,3.97     c-0.616,1.165-1.733,2.324-3.349,3.479c2.406,1.81,3.609,4.158,3.609,7.045c0,2.868-1.121,5.154-3.364,6.857     c-2.243,1.703-5.318,2.555-9.225,2.555c-3.927,0-7.315-0.828-10.163-2.483v-7.045c1.52,0.847,3.272,1.579,5.255,2.195     c1.983,0.616,3.638,0.924,4.966,0.924c2.675,0,4.013-0.924,4.013-2.772c0-0.808-0.298-1.506-0.895-2.093     c-0.597-0.587-1.935-1.342-4.013-2.267c-2.714-1.213-4.692-2.29-5.933-3.234c-1.242-0.943-2.171-1.983-2.786-3.119     C369.963,116.394,369.655,115.056,369.655,113.516z M378.057,112.621c0,0.982,0.423,1.858,1.27,2.627     c0.847,0.77,2.339,1.714,4.475,2.83c0.789-0.905,1.184-1.935,1.184-3.09c0-1.097-0.405-2.06-1.213-2.888     c-0.808-0.827-2.156-1.636-4.042-2.425C378.615,110.292,378.057,111.274,378.057,112.621z"/>
		</g>
    <g>
			<polyline class="st1" points="414.766,165.344 414.766,182.15 409.254,178.107 403.742,182.15 403.742,165.344    "/>
      <path class="st1"
            d="M417.916,160.829c-2.781,1.015-3.118,3.396-3.15,4.224c-0.009,0.182,0,0.291,0,0.291h-3.523l-1.989,1.743     l-1.989-1.743h-3.523c0,0,0.009-0.109,0-0.291c-0.032-0.828-0.369-3.204-3.154-4.224c2.08-2.968,0-5.512,0-5.512     c2.786-1.02,3.123-3.396,3.154-4.224c0.009-0.182,0-0.291,0-0.291h3.523l1.989-1.743l1.989,1.743h3.523c0,0-0.009,0.109,0,0.291     c0.032,0.828,0.369,3.209,3.15,4.224C417.916,155.317,415.84,157.861,417.916,160.829z"/>
		</g>
    <g>
			<path class="st9"
            d="M320.083,234.683c0-0.278,0.068-0.482,0.205-0.612c0.137-0.129,0.308-0.193,0.513-0.193     c0.195,0,0.364,0.065,0.505,0.197s0.212,0.335,0.212,0.608s-0.071,0.478-0.212,0.611c-0.142,0.135-0.31,0.201-0.505,0.201     c-0.205,0-0.376-0.066-0.513-0.201C320.152,235.161,320.083,234.957,320.083,234.683z M321.402,244.885h-1.216v-8.027h1.216     V244.885z"/>
      <path class="st9"
            d="M329.473,244.885v-5.192c0-0.654-0.149-1.143-0.447-1.465s-0.764-0.483-1.399-0.483     c-0.84,0-1.455,0.227-1.846,0.681s-0.586,1.204-0.586,2.249v4.211h-1.216v-8.027h0.989l0.198,1.099h0.059     c0.249-0.396,0.598-0.701,1.047-0.919c0.449-0.217,0.95-0.326,1.501-0.326c0.967,0,1.694,0.233,2.183,0.699     c0.488,0.467,0.732,1.213,0.732,2.238v5.236H329.473z"/>
      <path class="st9"
            d="M334.388,240.777c0.21-0.298,0.53-0.688,0.959-1.172l2.593-2.747h1.443l-3.252,3.421l3.479,4.606h-1.472     l-2.834-3.794l-0.916,0.791v3.003h-1.201v-11.396h1.201v6.043c0,0.269-0.02,0.684-0.059,1.245H334.388z"/>
      <path class="st9" d="M342.276,244.885h-1.216v-11.396h1.216V244.885z"/>
      <path class="st9"
            d="M344.678,244.109c0-0.327,0.074-0.575,0.224-0.743c0.148-0.169,0.362-0.253,0.641-0.253     c0.283,0,0.504,0.084,0.663,0.253c0.158,0.168,0.238,0.416,0.238,0.743c0,0.317-0.081,0.562-0.242,0.732     s-0.381,0.257-0.659,0.257c-0.249,0-0.456-0.077-0.619-0.231C344.76,244.713,344.678,244.461,344.678,244.109z"/>
      <path class="st9"
            d="M359.415,244.885h-7.361v-0.974l5.684-8.613h-5.508v-1.121h7.024v0.975l-5.684,8.605h5.845V244.885z"/>
      <path class="st9"
            d="M361.202,234.683c0-0.278,0.068-0.482,0.205-0.612c0.137-0.129,0.308-0.193,0.513-0.193     c0.195,0,0.364,0.065,0.505,0.197s0.212,0.335,0.212,0.608s-0.071,0.478-0.212,0.611c-0.142,0.135-0.31,0.201-0.505,0.201     c-0.205,0-0.376-0.066-0.513-0.201C361.27,235.161,361.202,234.957,361.202,234.683z M362.52,244.885h-1.216v-8.027h1.216     V244.885z"/>
      <path class="st9"
            d="M370.591,244.885v-5.192c0-0.654-0.149-1.143-0.447-1.465s-0.764-0.483-1.399-0.483     c-0.84,0-1.455,0.227-1.846,0.681s-0.586,1.204-0.586,2.249v4.211h-1.216v-8.027h0.989l0.198,1.099h0.059     c0.249-0.396,0.598-0.701,1.047-0.919c0.449-0.217,0.95-0.326,1.501-0.326c0.967,0,1.694,0.233,2.183,0.699     c0.488,0.467,0.732,1.213,0.732,2.238v5.236H370.591z"/>
      <path class="st9"
            d="M379.482,242.696c0,0.747-0.278,1.323-0.835,1.729s-1.338,0.607-2.344,0.607     c-1.064,0-1.894-0.168-2.49-0.505v-1.128c0.386,0.195,0.799,0.349,1.242,0.461c0.441,0.112,0.868,0.169,1.277,0.169     c0.635,0,1.123-0.102,1.465-0.305c0.342-0.202,0.513-0.511,0.513-0.926c0-0.312-0.135-0.58-0.406-0.803     c-0.271-0.222-0.8-0.484-1.586-0.787c-0.747-0.278-1.277-0.521-1.593-0.729c-0.314-0.207-0.549-0.443-0.703-0.707     c-0.153-0.264-0.23-0.578-0.23-0.944c0-0.654,0.266-1.171,0.798-1.55c0.532-0.378,1.262-0.567,2.19-0.567     c0.864,0,1.709,0.176,2.534,0.527l-0.433,0.989c-0.806-0.332-1.535-0.498-2.189-0.498c-0.576,0-1.011,0.09-1.304,0.271     s-0.439,0.43-0.439,0.747c0,0.215,0.055,0.398,0.165,0.55c0.109,0.151,0.287,0.295,0.531,0.432s0.712,0.335,1.406,0.594     c0.952,0.347,1.596,0.695,1.931,1.047C379.315,241.721,379.482,242.164,379.482,242.696z"/>
      <path class="st9"
            d="M384.852,245.032c-1.187,0-2.123-0.361-2.81-1.084c-0.686-0.723-1.028-1.726-1.028-3.01     c0-1.294,0.318-2.322,0.955-3.084c0.638-0.762,1.493-1.143,2.567-1.143c1.006,0,1.802,0.331,2.388,0.992     c0.586,0.662,0.879,1.535,0.879,2.619v0.769h-5.529c0.024,0.942,0.262,1.658,0.714,2.146c0.451,0.488,1.088,0.732,1.908,0.732     c0.864,0,1.718-0.181,2.563-0.542v1.084c-0.43,0.186-0.836,0.318-1.219,0.398C385.855,244.992,385.394,245.032,384.852,245.032z      M384.521,237.73c-0.645,0-1.158,0.21-1.542,0.63c-0.383,0.42-0.608,1.001-0.677,1.743h4.197c0-0.767-0.172-1.354-0.514-1.762     C385.645,237.934,385.156,237.73,384.521,237.73z"/>
      <path class="st9"
            d="M393.538,236.712c0.356,0,0.676,0.029,0.959,0.088l-0.168,1.128c-0.332-0.073-0.625-0.109-0.879-0.109     c-0.649,0-1.205,0.264-1.666,0.791c-0.462,0.527-0.692,1.184-0.692,1.97v4.307h-1.216v-8.027h1.004l0.139,1.487h0.059     c0.298-0.522,0.656-0.926,1.076-1.209S393.035,236.712,393.538,236.712z"/>
      <path class="st9"
            d="M398.592,244.029c0.215,0,0.422-0.016,0.622-0.048c0.2-0.031,0.359-0.064,0.477-0.099v0.93     c-0.132,0.063-0.326,0.116-0.582,0.157c-0.257,0.042-0.487,0.062-0.692,0.062c-1.553,0-2.329-0.817-2.329-2.453v-4.775h-1.15     v-0.586l1.15-0.506l0.513-1.714h0.703v1.86h2.329v0.945h-2.329v4.724c0,0.483,0.114,0.854,0.345,1.113     C397.876,243.899,398.191,244.029,398.592,244.029z"/>
      <path class="st9"
            d="M404.957,236.712c0.356,0,0.676,0.029,0.959,0.088l-0.168,1.128c-0.332-0.073-0.625-0.109-0.879-0.109     c-0.649,0-1.205,0.264-1.666,0.791c-0.462,0.527-0.692,1.184-0.692,1.97v4.307h-1.216v-8.027h1.004l0.139,1.487h0.059     c0.298-0.522,0.656-0.926,1.076-1.209S404.454,236.712,404.957,236.712z"/>
      <path class="st9"
            d="M412.354,244.885l-0.241-1.143h-0.059c-0.401,0.503-0.8,0.844-1.198,1.021     c-0.397,0.179-0.895,0.268-1.49,0.268c-0.796,0-1.42-0.205-1.871-0.615c-0.452-0.41-0.678-0.993-0.678-1.75     c0-1.621,1.296-2.471,3.89-2.549l1.361-0.044v-0.498c0-0.63-0.135-1.096-0.406-1.396c-0.271-0.301-0.704-0.45-1.3-0.45     c-0.669,0-1.426,0.205-2.271,0.615l-0.373-0.931c0.395-0.215,0.828-0.383,1.3-0.505c0.471-0.122,0.943-0.184,1.417-0.184     c0.957,0,1.666,0.213,2.128,0.638c0.461,0.425,0.692,1.105,0.692,2.043v5.479H412.354z M409.607,244.029     c0.757,0,1.352-0.208,1.784-0.623c0.432-0.415,0.647-0.996,0.647-1.743v-0.725l-1.215,0.051c-0.967,0.034-1.664,0.185-2.092,0.45     c-0.427,0.267-0.641,0.681-0.641,1.242c0,0.439,0.133,0.773,0.399,1.003C408.757,243.914,409.129,244.029,409.607,244.029z      M408.172,234.683c0-0.254,0.065-0.438,0.194-0.55c0.13-0.112,0.284-0.168,0.466-0.168c0.185,0,0.345,0.056,0.479,0.168     c0.134,0.112,0.201,0.296,0.201,0.55c0,0.244-0.067,0.426-0.201,0.545c-0.135,0.12-0.295,0.18-0.479,0.18     c-0.182,0-0.336-0.06-0.466-0.18C408.237,235.109,408.172,234.927,408.172,234.683z M410.963,234.683     c0-0.254,0.064-0.438,0.194-0.55c0.129-0.112,0.284-0.168,0.465-0.168s0.338,0.056,0.473,0.168     c0.134,0.112,0.201,0.296,0.201,0.55c0,0.244-0.067,0.426-0.201,0.545c-0.135,0.12-0.292,0.18-0.473,0.18s-0.336-0.06-0.465-0.18     C411.027,235.109,410.963,234.927,410.963,234.683z"/>
      <path class="st9"
            d="M422.33,236.858v0.77l-1.487,0.176c0.137,0.171,0.259,0.395,0.366,0.67c0.107,0.276,0.161,0.587,0.161,0.934     c0,0.786-0.269,1.414-0.806,1.883s-1.274,0.703-2.212,0.703c-0.239,0-0.464-0.02-0.674-0.059     c-0.518,0.273-0.776,0.617-0.776,1.032c0,0.22,0.09,0.383,0.271,0.487c0.18,0.105,0.49,0.157,0.93,0.157h1.421     c0.869,0,1.537,0.184,2.003,0.55c0.467,0.366,0.699,0.898,0.699,1.597c0,0.889-0.356,1.565-1.068,2.032     c-0.714,0.466-1.754,0.699-3.121,0.699c-1.05,0-1.858-0.195-2.428-0.586c-0.568-0.391-0.854-0.942-0.854-1.655     c0-0.488,0.156-0.91,0.469-1.267s0.752-0.599,1.318-0.726c-0.205-0.093-0.377-0.236-0.516-0.432     c-0.14-0.195-0.209-0.423-0.209-0.682c0-0.293,0.078-0.549,0.234-0.769s0.402-0.433,0.74-0.638     c-0.416-0.171-0.754-0.461-1.015-0.871c-0.262-0.41-0.392-0.879-0.392-1.406c0-0.879,0.264-1.557,0.791-2.033     c0.527-0.476,1.273-0.714,2.24-0.714c0.42,0,0.799,0.049,1.136,0.146H422.33z M415.928,246.233c0,0.435,0.184,0.765,0.55,0.989     s0.891,0.337,1.575,0.337c1.02,0,1.775-0.153,2.267-0.458c0.49-0.306,0.735-0.719,0.735-1.241c0-0.435-0.134-0.736-0.402-0.905     c-0.269-0.168-0.774-0.252-1.516-0.252h-1.458c-0.552,0-0.981,0.132-1.289,0.396S415.928,245.74,415.928,246.233z      M416.588,239.429c0,0.562,0.158,0.986,0.476,1.274s0.759,0.432,1.325,0.432c1.188,0,1.78-0.576,1.78-1.729     c0-1.206-0.601-1.809-1.802-1.809c-0.571,0-1.011,0.153-1.318,0.461S416.588,238.824,416.588,239.429z"/>
      <path class="st9"
            d="M427.368,245.032c-1.186,0-2.122-0.361-2.809-1.084c-0.686-0.723-1.029-1.726-1.029-3.01     c0-1.294,0.319-2.322,0.956-3.084c0.638-0.762,1.493-1.143,2.567-1.143c1.006,0,1.802,0.331,2.388,0.992     c0.586,0.662,0.879,1.535,0.879,2.619v0.769h-5.53c0.024,0.942,0.263,1.658,0.715,2.146c0.451,0.488,1.088,0.732,1.908,0.732     c0.863,0,1.718-0.181,2.562-0.542v1.084c-0.43,0.186-0.836,0.318-1.219,0.398C428.373,244.992,427.911,245.032,427.368,245.032z      M427.039,237.73c-0.645,0-1.158,0.21-1.542,0.63c-0.383,0.42-0.609,1.001-0.678,1.743h4.197c0-0.767-0.171-1.354-0.513-1.762     C428.162,237.934,427.674,237.73,427.039,237.73z"/>
		</g>
    <g>
			<path class="st9"
            d="M212.166,268.796h-5.823v-0.828l4.38-6.254h-4.109v-0.945h5.442v0.945l-4.321,6.137h4.431V268.796z"/>
      <path class="st9"
            d="M215.19,260.768v5.207c0,0.654,0.149,1.143,0.447,1.465s0.764,0.484,1.399,0.484     c0.84,0,1.454-0.23,1.842-0.689c0.389-0.459,0.583-1.208,0.583-2.248v-4.219h1.216v8.027h-1.003l-0.176-1.076h-0.066     c-0.249,0.395-0.595,0.697-1.037,0.908c-0.442,0.209-0.946,0.314-1.512,0.314c-0.977,0-1.708-0.232-2.194-0.695     c-0.486-0.465-0.729-1.207-0.729-2.227v-5.252H215.19z"/>
      <path class="st9"
            d="M231.099,268.796h-1.187v-7.632c0-0.635,0.02-1.235,0.059-1.802c-0.103,0.103-0.217,0.21-0.344,0.322     s-0.708,0.588-1.743,1.428l-0.645-0.834l2.834-2.19h1.025V268.796z"/>
      <path class="st9"
            d="M242.268,263.426c0,1.852-0.292,3.232-0.875,4.146c-0.583,0.912-1.476,1.369-2.677,1.369     c-1.152,0-2.029-0.467-2.629-1.402s-0.901-2.307-0.901-4.113c0-1.865,0.291-3.249,0.872-4.152s1.467-1.355,2.659-1.355     c1.162,0,2.044,0.472,2.647,1.414S242.268,261.639,242.268,263.426z M236.416,263.426c0,1.559,0.183,2.692,0.549,3.402     c0.366,0.711,0.95,1.066,1.75,1.066c0.811,0,1.397-0.36,1.762-1.081c0.363-0.72,0.545-1.849,0.545-3.388     c0-1.537-0.182-2.664-0.545-3.38c-0.364-0.715-0.951-1.073-1.762-1.073c-0.801,0-1.384,0.354-1.75,1.059     C236.599,260.738,236.416,261.87,236.416,263.426z"/>
      <path class="st9"
            d="M250.845,263.426c0,1.852-0.292,3.232-0.875,4.146c-0.583,0.912-1.476,1.369-2.677,1.369     c-1.152,0-2.029-0.467-2.629-1.402s-0.901-2.307-0.901-4.113c0-1.865,0.291-3.249,0.872-4.152s1.467-1.355,2.659-1.355     c1.162,0,2.044,0.472,2.647,1.414S250.845,261.639,250.845,263.426z M244.993,263.426c0,1.559,0.183,2.692,0.549,3.402     c0.366,0.711,0.95,1.066,1.75,1.066c0.811,0,1.397-0.36,1.762-1.081c0.363-0.72,0.545-1.849,0.545-3.388     c0-1.537-0.182-2.664-0.545-3.38c-0.364-0.715-0.951-1.073-1.762-1.073c-0.801,0-1.384,0.354-1.75,1.059     C245.176,260.738,244.993,261.87,244.993,263.426z"/>
      <path class="st9"
            d="M259.119,261.281c0,1.113-0.187,1.954-0.561,2.523c-0.373,0.569-0.921,0.853-1.644,0.853     c-0.684,0-1.215-0.29-1.593-0.871s-0.567-1.416-0.567-2.505c0-1.108,0.182-1.943,0.546-2.505     c0.363-0.562,0.902-0.842,1.615-0.842c0.708,0,1.252,0.29,1.633,0.871S259.119,260.212,259.119,261.281z M255.764,261.281     c0,0.83,0.09,1.452,0.271,1.868c0.181,0.414,0.474,0.622,0.879,0.622c0.801,0,1.201-0.83,1.201-2.49     c0-1.65-0.4-2.476-1.201-2.476c-0.405,0-0.698,0.205-0.879,0.615S255.764,260.451,255.764,261.281z M263.682,258.087     l-5.94,10.708h-1.077l5.94-10.708H263.682z M265.571,265.573c0,1.108-0.187,1.947-0.56,2.516     c-0.374,0.569-0.922,0.854-1.645,0.854c-0.693,0-1.227-0.291-1.601-0.871c-0.373-0.582-0.56-1.414-0.56-2.498     c0-1.108,0.182-1.943,0.545-2.505s0.902-0.843,1.615-0.843c0.693,0,1.234,0.287,1.622,0.861     C265.377,263.661,265.571,264.489,265.571,265.573z M262.209,265.573c0,0.835,0.09,1.459,0.271,1.871     c0.181,0.413,0.476,0.619,0.886,0.619s0.713-0.203,0.908-0.611s0.293-1.034,0.293-1.879c0-0.835-0.098-1.454-0.293-1.856     c-0.195-0.403-0.498-0.604-0.908-0.604s-0.706,0.201-0.886,0.604C262.3,264.119,262.209,264.738,262.209,265.573z"/>
      <path class="st9"
            d="M270.552,272.399c-0.464,0-0.84-0.061-1.128-0.184v-0.988c0.337,0.098,0.669,0.146,0.996,0.146     c0.381,0,0.66-0.104,0.838-0.312s0.268-0.523,0.268-0.948v-9.346h1.216v9.258C272.742,271.608,272.012,272.399,270.552,272.399z      M271.423,258.592c0-0.277,0.068-0.481,0.205-0.611c0.137-0.129,0.308-0.193,0.513-0.193c0.195,0,0.364,0.065,0.505,0.197     s0.212,0.334,0.212,0.607s-0.071,0.479-0.212,0.612s-0.31,0.201-0.505,0.201c-0.205,0-0.376-0.067-0.513-0.201     S271.423,258.866,271.423,258.592z"/>
      <path class="st9"
            d="M278.711,268.942c-1.187,0-2.123-0.361-2.809-1.084s-1.029-1.727-1.029-3.01     c0-1.295,0.319-2.322,0.956-3.084c0.638-0.762,1.493-1.143,2.567-1.143c1.006,0,1.802,0.331,2.388,0.992     c0.586,0.662,0.879,1.535,0.879,2.619v0.769h-5.53c0.024,0.942,0.262,1.657,0.714,2.146c0.451,0.488,1.087,0.732,1.908,0.732     c0.864,0,1.719-0.18,2.563-0.541v1.084c-0.43,0.186-0.836,0.318-1.219,0.398C279.715,268.902,279.253,268.942,278.711,268.942z      M278.381,261.639c-0.645,0-1.159,0.211-1.542,0.631s-0.609,1-0.677,1.742h4.197c0-0.766-0.171-1.354-0.513-1.761     S279.016,261.639,278.381,261.639z"/>
      <path class="st9"
            d="M295.549,268.796h-1.465l-3.904-5.193l-1.121,0.996v4.197h-1.245v-10.708h1.245v5.31l4.856-5.31h1.472     l-4.307,4.651L295.549,268.796z"/>
      <path class="st9"
            d="M297.981,260.768v5.207c0,0.654,0.149,1.143,0.447,1.465s0.764,0.484,1.399,0.484     c0.84,0,1.454-0.23,1.842-0.689c0.389-0.459,0.583-1.208,0.583-2.248v-4.219h1.216v8.027h-1.003l-0.176-1.076h-0.066     c-0.249,0.395-0.595,0.697-1.037,0.908c-0.442,0.209-0.946,0.314-1.512,0.314c-0.977,0-1.708-0.232-2.194-0.695     c-0.486-0.465-0.729-1.207-0.729-2.227v-5.252H297.981z"/>
      <path class="st9"
            d="M311.538,268.796v-5.193c0-0.654-0.149-1.143-0.447-1.465s-0.764-0.482-1.399-0.482     c-0.84,0-1.455,0.227-1.846,0.681s-0.586,1.204-0.586,2.249v4.211h-1.216v-8.027h0.989l0.198,1.099h0.059     c0.249-0.396,0.598-0.702,1.047-0.919s0.95-0.326,1.501-0.326c0.967,0,1.694,0.233,2.183,0.699     c0.488,0.467,0.732,1.213,0.732,2.238v5.236H311.538z"/>
      <path class="st9"
            d="M320.715,267.719h-0.066c-0.562,0.814-1.401,1.223-2.52,1.223c-1.05,0-1.867-0.359-2.45-1.076     c-0.584-0.719-0.875-1.738-0.875-3.062c0-1.322,0.293-2.351,0.879-3.083s1.401-1.099,2.446-1.099     c1.089,0,1.924,0.396,2.505,1.187h0.095l-0.051-0.579l-0.029-0.563v-3.267h1.216v11.396h-0.989L320.715,267.719z      M318.284,267.924c0.83,0,1.432-0.227,1.806-0.678c0.373-0.451,0.56-1.181,0.56-2.187v-0.257c0-1.137-0.189-1.949-0.568-2.435     s-0.982-0.729-1.812-0.729c-0.713,0-1.259,0.277-1.637,0.832c-0.379,0.555-0.568,1.336-0.568,2.348     c0,1.025,0.188,1.799,0.564,2.321S317.556,267.924,318.284,267.924z"/>
      <path class="st9"
            d="M327.834,268.942c-1.187,0-2.123-0.361-2.809-1.084s-1.029-1.727-1.029-3.01     c0-1.295,0.319-2.322,0.956-3.084c0.638-0.762,1.493-1.143,2.567-1.143c1.006,0,1.802,0.331,2.388,0.992     c0.586,0.662,0.879,1.535,0.879,2.619v0.769h-5.53c0.024,0.942,0.262,1.657,0.714,2.146c0.451,0.488,1.087,0.732,1.908,0.732     c0.864,0,1.719-0.18,2.563-0.541v1.084c-0.43,0.186-0.836,0.318-1.219,0.398C328.839,268.902,328.376,268.942,327.834,268.942z      M327.505,261.639c-0.645,0-1.159,0.211-1.542,0.631s-0.609,1-0.677,1.742h4.197c0-0.766-0.171-1.354-0.513-1.761     S328.14,261.639,327.505,261.639z"/>
      <path class="st9"
            d="M335.781,272.399c-0.464,0-0.84-0.061-1.128-0.184v-0.988c0.337,0.098,0.669,0.146,0.996,0.146     c0.381,0,0.66-0.104,0.838-0.312s0.268-0.523,0.268-0.948v-9.346h1.216v9.258C337.971,271.608,337.241,272.399,335.781,272.399z      M336.653,258.592c0-0.277,0.068-0.481,0.205-0.611c0.137-0.129,0.308-0.193,0.513-0.193c0.195,0,0.364,0.065,0.505,0.197     s0.212,0.334,0.212,0.607s-0.071,0.479-0.212,0.612s-0.31,0.201-0.505,0.201c-0.205,0-0.376-0.067-0.513-0.201     S336.653,258.866,336.653,258.592z"/>
      <path class="st9"
            d="M343.94,268.942c-1.187,0-2.123-0.361-2.809-1.084s-1.029-1.727-1.029-3.01c0-1.295,0.319-2.322,0.956-3.084     c0.638-0.762,1.493-1.143,2.567-1.143c1.006,0,1.802,0.331,2.388,0.992c0.586,0.662,0.879,1.535,0.879,2.619v0.769h-5.53     c0.024,0.942,0.262,1.657,0.714,2.146c0.451,0.488,1.087,0.732,1.908,0.732c0.864,0,1.719-0.18,2.563-0.541v1.084     c-0.43,0.186-0.836,0.318-1.219,0.398C344.945,268.902,344.482,268.942,343.94,268.942z M343.611,261.639     c-0.645,0-1.159,0.211-1.542,0.631s-0.609,1-0.677,1.742h4.197c0-0.766-0.171-1.354-0.513-1.761S344.246,261.639,343.611,261.639     z"/>
      <path class="st9"
            d="M353.044,258.087h3.025c1.421,0,2.449,0.212,3.083,0.638c0.635,0.424,0.952,1.096,0.952,2.014     c0,0.635-0.177,1.158-0.531,1.571c-0.354,0.413-0.871,0.68-1.549,0.802v0.073c1.626,0.278,2.439,1.133,2.439,2.563     c0,0.957-0.324,1.704-0.971,2.241s-1.551,0.806-2.713,0.806h-3.735V258.087z M354.29,262.672h2.051     c0.879,0,1.511-0.138,1.897-0.414c0.386-0.275,0.579-0.74,0.579-1.395c0-0.602-0.215-1.034-0.645-1.301     c-0.43-0.266-1.113-0.398-2.051-0.398h-1.831V262.672z M354.29,263.727v4.006h2.234c0.864,0,1.515-0.166,1.952-0.501     c0.437-0.335,0.655-0.858,0.655-1.571c0-0.664-0.224-1.152-0.67-1.465c-0.447-0.312-1.127-0.469-2.04-0.469H354.29z"/>
      <path class="st9"
            d="M367.517,268.796l-0.242-1.143h-0.059c-0.4,0.503-0.8,0.844-1.198,1.021s-0.895,0.268-1.49,0.268     c-0.796,0-1.42-0.205-1.871-0.615c-0.452-0.41-0.678-0.994-0.678-1.75c0-1.621,1.296-2.471,3.889-2.549l1.362-0.045v-0.498     c0-0.629-0.135-1.095-0.407-1.395c-0.271-0.301-0.704-0.451-1.3-0.451c-0.669,0-1.426,0.205-2.271,0.615l-0.374-0.93     c0.396-0.215,0.829-0.383,1.3-0.506c0.471-0.121,0.943-0.183,1.417-0.183c0.957,0,1.666,0.212,2.128,0.638     c0.461,0.424,0.692,1.105,0.692,2.043v5.479H367.517z M364.771,267.938c0.757,0,1.351-0.207,1.784-0.622     c0.432-0.415,0.648-0.996,0.648-1.743v-0.725l-1.216,0.051c-0.967,0.034-1.664,0.185-2.091,0.45     c-0.427,0.267-0.641,0.681-0.641,1.241c0,0.439,0.133,0.774,0.399,1.004C363.919,267.824,364.292,267.938,364.771,267.938z"/>
      <path class="st9"
            d="M376.416,268.796v-5.193c0-0.654-0.149-1.143-0.447-1.465c-0.298-0.322-0.764-0.482-1.399-0.482     c-0.84,0-1.455,0.227-1.846,0.681s-0.586,1.204-0.586,2.249v4.211h-1.216v-8.027h0.989l0.198,1.099h0.059     c0.249-0.396,0.598-0.702,1.047-0.919s0.95-0.326,1.501-0.326c0.967,0,1.694,0.233,2.183,0.699     c0.488,0.467,0.732,1.213,0.732,2.238v5.236H376.416z"/>
      <path class="st9"
            d="M381.33,264.686c0.21-0.297,0.53-0.688,0.96-1.172l2.593-2.746h1.442l-3.252,3.42l3.479,4.607h-1.473     l-2.834-3.794l-0.916,0.791v3.003h-1.201v-11.396h1.201v6.043c0,0.268-0.02,0.684-0.059,1.244H381.33z"/>
      <path class="st9"
            d="M398.47,260.768v0.77l-1.487,0.176c0.137,0.17,0.259,0.395,0.366,0.67s0.161,0.587,0.161,0.934     c0,0.786-0.269,1.414-0.806,1.883s-1.274,0.703-2.212,0.703c-0.239,0-0.464-0.02-0.674-0.059     c-0.518,0.273-0.776,0.617-0.776,1.032c0,0.22,0.09,0.382,0.271,0.487c0.18,0.105,0.49,0.157,0.93,0.157h1.421     c0.869,0,1.537,0.183,2.003,0.55c0.467,0.365,0.699,0.898,0.699,1.596c0,0.889-0.356,1.566-1.068,2.033     c-0.714,0.466-1.754,0.699-3.121,0.699c-1.05,0-1.858-0.195-2.428-0.586c-0.568-0.391-0.854-0.942-0.854-1.655     c0-0.488,0.156-0.911,0.469-1.267c0.312-0.357,0.752-0.599,1.318-0.726c-0.205-0.093-0.377-0.237-0.516-0.433     c-0.14-0.195-0.209-0.422-0.209-0.681c0-0.293,0.078-0.55,0.234-0.769c0.156-0.221,0.402-0.433,0.74-0.638     c-0.416-0.171-0.754-0.462-1.015-0.872c-0.262-0.41-0.392-0.879-0.392-1.406c0-0.879,0.264-1.556,0.791-2.032     c0.527-0.476,1.273-0.714,2.24-0.714c0.42,0,0.799,0.049,1.136,0.146H398.47z M392.067,270.143c0,0.435,0.184,0.764,0.55,0.988     s0.891,0.338,1.575,0.338c1.02,0,1.775-0.153,2.267-0.458c0.49-0.306,0.735-0.72,0.735-1.241c0-0.436-0.134-0.736-0.402-0.905     c-0.269-0.168-0.774-0.253-1.516-0.253h-1.458c-0.552,0-0.981,0.133-1.289,0.396S392.067,269.65,392.067,270.143z      M392.728,263.338c0,0.562,0.158,0.986,0.476,1.275c0.317,0.287,0.759,0.432,1.325,0.432c1.188,0,1.78-0.576,1.78-1.729     c0-1.206-0.601-1.809-1.802-1.809c-0.571,0-1.011,0.153-1.318,0.461S392.728,262.733,392.728,263.338z"/>
      <path class="st9"
            d="M403.508,268.942c-1.186,0-2.122-0.361-2.809-1.084c-0.686-0.723-1.029-1.727-1.029-3.01     c0-1.295,0.319-2.322,0.956-3.084c0.638-0.762,1.493-1.143,2.567-1.143c1.006,0,1.802,0.331,2.388,0.992     c0.586,0.662,0.879,1.535,0.879,2.619v0.769h-5.53c0.024,0.942,0.263,1.657,0.715,2.146c0.451,0.488,1.088,0.732,1.908,0.732     c0.863,0,1.718-0.18,2.562-0.541v1.084c-0.43,0.186-0.836,0.318-1.219,0.398C404.513,268.902,404.051,268.942,403.508,268.942z      M403.179,261.639c-0.645,0-1.158,0.211-1.542,0.631c-0.383,0.42-0.609,1-0.678,1.742h4.197c0-0.766-0.171-1.354-0.513-1.761     S403.813,261.639,403.179,261.639z"/>
      <path class="st9"
            d="M413.71,266.606c0,0.746-0.277,1.322-0.834,1.729c-0.557,0.404-1.339,0.607-2.344,0.607     c-1.065,0-1.896-0.168-2.49-0.506v-1.127c0.385,0.195,0.799,0.349,1.241,0.461c0.441,0.112,0.868,0.168,1.278,0.168     c0.634,0,1.122-0.101,1.465-0.304c0.341-0.202,0.512-0.511,0.512-0.927c0-0.312-0.135-0.579-0.406-0.802     c-0.271-0.222-0.8-0.484-1.586-0.787c-0.746-0.278-1.277-0.521-1.593-0.729c-0.314-0.208-0.549-0.443-0.703-0.707     c-0.153-0.264-0.23-0.579-0.23-0.944c0-0.654,0.266-1.171,0.798-1.55c0.532-0.378,1.263-0.567,2.19-0.567     c0.864,0,1.709,0.176,2.534,0.527l-0.432,0.988c-0.807-0.332-1.536-0.498-2.19-0.498c-0.576,0-1.011,0.091-1.304,0.271     s-0.439,0.43-0.439,0.747c0,0.215,0.055,0.397,0.165,0.55c0.109,0.15,0.286,0.295,0.53,0.432s0.713,0.334,1.406,0.594     c0.953,0.346,1.596,0.695,1.931,1.047C413.543,265.631,413.71,266.073,413.71,266.606z"/>
      <path class="st9"
            d="M419.079,268.942c-1.186,0-2.122-0.361-2.809-1.084c-0.686-0.723-1.029-1.727-1.029-3.01     c0-1.295,0.319-2.322,0.956-3.084c0.638-0.762,1.493-1.143,2.567-1.143c1.006,0,1.802,0.331,2.388,0.992     c0.586,0.662,0.879,1.535,0.879,2.619v0.769h-5.53c0.024,0.942,0.263,1.657,0.715,2.146c0.451,0.488,1.088,0.732,1.908,0.732     c0.863,0,1.718-0.18,2.562-0.541v1.084c-0.43,0.186-0.836,0.318-1.219,0.398C420.084,268.902,419.622,268.942,419.079,268.942z      M418.75,261.639c-0.645,0-1.158,0.211-1.542,0.631c-0.383,0.42-0.609,1-0.678,1.742h4.197c0-0.766-0.171-1.354-0.513-1.761     S419.385,261.639,418.75,261.639z"/>
      <path class="st9"
            d="M426.697,267.938c0.215,0,0.422-0.016,0.622-0.047s0.359-0.064,0.477-0.1v0.931     c-0.132,0.063-0.326,0.116-0.582,0.157c-0.257,0.041-0.487,0.062-0.692,0.062c-1.553,0-2.329-0.818-2.329-2.453v-4.775h-1.15     v-0.586l1.15-0.506l0.513-1.714h0.703v1.86h2.329v0.945h-2.329v4.724c0,0.483,0.114,0.854,0.345,1.113     C425.981,267.809,426.297,267.938,426.697,267.938z"/>
      <path class="st9"
            d="M434.534,268.796h-5.823v-0.828l4.38-6.254h-4.109v-0.945h5.442v0.945l-4.321,6.137h4.432V268.796z"/>
      <path class="st9" d="M437.632,268.796h-1.216v-11.396h1.216V268.796z"/>
      <path class="st9"
            d="M440.107,258.592c0-0.277,0.068-0.481,0.205-0.611c0.137-0.129,0.308-0.193,0.513-0.193     c0.195,0,0.363,0.065,0.506,0.197c0.141,0.132,0.212,0.334,0.212,0.607s-0.071,0.479-0.212,0.612     c-0.143,0.134-0.311,0.201-0.506,0.201c-0.205,0-0.376-0.067-0.513-0.201S440.107,258.866,440.107,258.592z M441.426,268.796     h-1.216v-8.027h1.216V268.796z"/>
      <path class="st9"
            d="M447.212,268.942c-1.162,0-2.062-0.357-2.699-1.073c-0.637-0.715-0.956-1.728-0.956-3.036     c0-1.342,0.324-2.38,0.971-3.112c0.647-0.732,1.568-1.099,2.766-1.099c0.385,0,0.771,0.041,1.156,0.125     c0.386,0.082,0.689,0.18,0.908,0.293l-0.373,1.032c-0.269-0.107-0.562-0.196-0.879-0.268c-0.317-0.07-0.599-0.106-0.842-0.106     c-1.632,0-2.447,1.041-2.447,3.121c0,0.986,0.199,1.742,0.598,2.27c0.397,0.527,0.987,0.791,1.769,0.791     c0.669,0,1.354-0.144,2.058-0.432v1.076C448.703,268.803,448.027,268.942,447.212,268.942z"/>
      <path class="st9"
            d="M456.639,268.796v-5.193c0-0.654-0.149-1.143-0.446-1.465c-0.299-0.322-0.765-0.482-1.399-0.482     c-0.845,0-1.461,0.229-1.85,0.688c-0.388,0.459-0.582,1.211-0.582,2.256v4.197h-1.216v-11.396h1.216v3.449     c0,0.416-0.02,0.76-0.059,1.033h0.073c0.239-0.386,0.58-0.689,1.021-0.912c0.442-0.222,0.946-0.333,1.513-0.333     c0.981,0,1.718,0.233,2.208,0.699c0.491,0.467,0.736,1.208,0.736,2.224v5.236H456.639z"/>
      <path class="st9"
            d="M469.186,268.796l-0.241-1.143h-0.059c-0.401,0.503-0.8,0.844-1.198,1.021     c-0.397,0.178-0.895,0.268-1.49,0.268c-0.796,0-1.42-0.205-1.871-0.615c-0.452-0.41-0.678-0.994-0.678-1.75     c0-1.621,1.296-2.471,3.89-2.549l1.361-0.045v-0.498c0-0.629-0.135-1.095-0.406-1.395c-0.271-0.301-0.704-0.451-1.3-0.451     c-0.669,0-1.426,0.205-2.271,0.615l-0.373-0.93c0.395-0.215,0.828-0.383,1.3-0.506c0.471-0.121,0.943-0.183,1.417-0.183     c0.957,0,1.666,0.212,2.128,0.638c0.461,0.424,0.692,1.105,0.692,2.043v5.479H469.186z M466.438,267.938     c0.757,0,1.352-0.207,1.784-0.622c0.432-0.415,0.647-0.996,0.647-1.743v-0.725l-1.215,0.051c-0.967,0.034-1.664,0.185-2.092,0.45     c-0.427,0.267-0.641,0.681-0.641,1.241c0,0.439,0.133,0.774,0.399,1.004C465.588,267.824,465.96,267.938,466.438,267.938z"/>
      <path class="st9"
            d="M476.326,260.636c1.055,0,1.874,0.36,2.457,1.08c0.584,0.721,0.876,1.739,0.876,3.058     s-0.295,2.344-0.883,3.073c-0.589,0.729-1.405,1.095-2.45,1.095c-0.522,0-1-0.097-1.432-0.289     c-0.433-0.193-0.795-0.49-1.088-0.891h-0.088l-0.257,1.033h-0.871v-11.396h1.216v2.769c0,0.62-0.02,1.177-0.059,1.67h0.059     C474.373,261.037,475.213,260.636,476.326,260.636z M476.15,261.655c-0.83,0-1.429,0.237-1.794,0.714     c-0.367,0.476-0.55,1.278-0.55,2.405c0,1.129,0.188,1.936,0.563,2.421c0.376,0.486,0.979,0.729,1.81,0.729     c0.747,0,1.304-0.272,1.67-0.817c0.366-0.544,0.55-1.327,0.55-2.347c0-1.045-0.184-1.824-0.55-2.337     S476.917,261.655,476.15,261.655z"/>
      <path class="st9"
            d="M488.353,260.768v0.77l-1.487,0.176c0.137,0.17,0.259,0.395,0.366,0.67s0.161,0.587,0.161,0.934     c0,0.786-0.269,1.414-0.806,1.883s-1.274,0.703-2.212,0.703c-0.239,0-0.464-0.02-0.674-0.059     c-0.518,0.273-0.776,0.617-0.776,1.032c0,0.22,0.09,0.382,0.271,0.487c0.18,0.105,0.49,0.157,0.93,0.157h1.421     c0.869,0,1.537,0.183,2.003,0.55c0.467,0.365,0.699,0.898,0.699,1.596c0,0.889-0.356,1.566-1.068,2.033     c-0.714,0.466-1.754,0.699-3.121,0.699c-1.05,0-1.858-0.195-2.428-0.586c-0.568-0.391-0.854-0.942-0.854-1.655     c0-0.488,0.156-0.911,0.469-1.267c0.312-0.357,0.752-0.599,1.318-0.726c-0.205-0.093-0.377-0.237-0.516-0.433     c-0.14-0.195-0.209-0.422-0.209-0.681c0-0.293,0.078-0.55,0.234-0.769c0.156-0.221,0.402-0.433,0.74-0.638     c-0.416-0.171-0.754-0.462-1.015-0.872c-0.262-0.41-0.392-0.879-0.392-1.406c0-0.879,0.264-1.556,0.791-2.032     c0.527-0.476,1.273-0.714,2.24-0.714c0.42,0,0.799,0.049,1.136,0.146H488.353z M481.95,270.143c0,0.435,0.184,0.764,0.55,0.988     s0.891,0.338,1.575,0.338c1.02,0,1.775-0.153,2.267-0.458c0.49-0.306,0.735-0.72,0.735-1.241c0-0.436-0.134-0.736-0.402-0.905     c-0.269-0.168-0.774-0.253-1.516-0.253h-1.458c-0.552,0-0.981,0.133-1.289,0.396S481.95,269.65,481.95,270.143z M482.61,263.338     c0,0.562,0.158,0.986,0.476,1.275c0.317,0.287,0.759,0.432,1.325,0.432c1.188,0,1.78-0.576,1.78-1.729     c0-1.206-0.601-1.809-1.802-1.809c-0.571,0-1.011,0.153-1.318,0.461S482.61,262.733,482.61,263.338z"/>
      <path class="st9"
            d="M493.391,268.942c-1.186,0-2.122-0.361-2.809-1.084c-0.686-0.723-1.029-1.727-1.029-3.01     c0-1.295,0.319-2.322,0.956-3.084c0.638-0.762,1.493-1.143,2.567-1.143c1.006,0,1.802,0.331,2.388,0.992     c0.586,0.662,0.879,1.535,0.879,2.619v0.769h-5.53c0.024,0.942,0.263,1.657,0.715,2.146c0.451,0.488,1.088,0.732,1.908,0.732     c0.863,0,1.718-0.18,2.562-0.541v1.084c-0.43,0.186-0.836,0.318-1.219,0.398C494.396,268.902,493.934,268.942,493.391,268.942z      M493.062,261.639c-0.645,0-1.158,0.211-1.542,0.631c-0.383,0.42-0.609,1-0.678,1.742h4.197c0-0.766-0.171-1.354-0.513-1.761     S493.696,261.639,493.062,261.639z"/>
      <path class="st9"
            d="M503.593,266.606c0,0.746-0.277,1.322-0.834,1.729c-0.557,0.404-1.339,0.607-2.344,0.607     c-1.065,0-1.896-0.168-2.49-0.506v-1.127c0.385,0.195,0.799,0.349,1.241,0.461c0.441,0.112,0.868,0.168,1.278,0.168     c0.634,0,1.122-0.101,1.465-0.304c0.341-0.202,0.512-0.511,0.512-0.927c0-0.312-0.135-0.579-0.406-0.802     c-0.271-0.222-0.8-0.484-1.586-0.787c-0.746-0.278-1.277-0.521-1.593-0.729c-0.314-0.208-0.549-0.443-0.703-0.707     c-0.153-0.264-0.23-0.579-0.23-0.944c0-0.654,0.266-1.171,0.798-1.55c0.532-0.378,1.263-0.567,2.19-0.567     c0.864,0,1.709,0.176,2.534,0.527l-0.432,0.988c-0.807-0.332-1.536-0.498-2.19-0.498c-0.576,0-1.011,0.091-1.304,0.271     s-0.439,0.43-0.439,0.747c0,0.215,0.055,0.397,0.165,0.55c0.109,0.15,0.286,0.295,0.53,0.432s0.713,0.334,1.406,0.594     c0.953,0.346,1.596,0.695,1.931,1.047C503.426,265.631,503.593,266.073,503.593,266.606z"/>
      <path class="st9"
            d="M505.469,258.592c0-0.277,0.068-0.481,0.205-0.611c0.137-0.129,0.308-0.193,0.513-0.193     c0.195,0,0.363,0.065,0.506,0.197c0.141,0.132,0.212,0.334,0.212,0.607s-0.071,0.479-0.212,0.612     c-0.143,0.134-0.311,0.201-0.506,0.201c-0.205,0-0.376-0.067-0.513-0.201S505.469,258.866,505.469,258.592z M506.787,268.796     h-1.216v-8.027h1.216V268.796z"/>
      <path class="st9"
            d="M512.573,268.942c-1.162,0-2.062-0.357-2.699-1.073c-0.637-0.715-0.956-1.728-0.956-3.036     c0-1.342,0.324-2.38,0.971-3.112c0.647-0.732,1.568-1.099,2.766-1.099c0.385,0,0.771,0.041,1.156,0.125     c0.386,0.082,0.689,0.18,0.908,0.293l-0.373,1.032c-0.269-0.107-0.562-0.196-0.879-0.268c-0.317-0.07-0.599-0.106-0.842-0.106     c-1.632,0-2.447,1.041-2.447,3.121c0,0.986,0.199,1.742,0.598,2.27c0.397,0.527,0.987,0.791,1.769,0.791     c0.669,0,1.354-0.144,2.058-0.432v1.076C514.064,268.803,513.389,268.942,512.573,268.942z"/>
      <path class="st9"
            d="M522,268.796v-5.193c0-0.654-0.149-1.143-0.446-1.465c-0.299-0.322-0.765-0.482-1.399-0.482     c-0.845,0-1.461,0.229-1.85,0.688c-0.388,0.459-0.582,1.211-0.582,2.256v4.197h-1.216v-11.396h1.216v3.449     c0,0.416-0.02,0.76-0.059,1.033h0.073c0.239-0.386,0.58-0.689,1.021-0.912c0.442-0.222,0.946-0.333,1.513-0.333     c0.981,0,1.718,0.233,2.208,0.699c0.491,0.467,0.736,1.208,0.736,2.224v5.236H522z"/>
      <path class="st9"
            d="M529.104,268.942c-1.186,0-2.122-0.361-2.809-1.084c-0.686-0.723-1.029-1.727-1.029-3.01     c0-1.295,0.319-2.322,0.956-3.084c0.638-0.762,1.493-1.143,2.567-1.143c1.006,0,1.802,0.331,2.388,0.992     c0.586,0.662,0.879,1.535,0.879,2.619v0.769h-5.53c0.024,0.942,0.263,1.657,0.715,2.146c0.451,0.488,1.088,0.732,1.908,0.732     c0.863,0,1.718-0.18,2.562-0.541v1.084c-0.43,0.186-0.836,0.318-1.219,0.398C530.109,268.902,529.647,268.942,529.104,268.942z      M528.775,261.639c-0.645,0-1.158,0.211-1.542,0.631c-0.383,0.42-0.609,1-0.678,1.742h4.197c0-0.766-0.171-1.354-0.513-1.761     S529.41,261.639,528.775,261.639z"/>
      <path class="st9"
            d="M537.792,260.622c0.356,0,0.676,0.029,0.959,0.088l-0.168,1.128c-0.332-0.073-0.625-0.11-0.879-0.11     c-0.649,0-1.205,0.264-1.666,0.791c-0.462,0.527-0.692,1.185-0.692,1.971v4.307h-1.216v-8.027h1.004l0.139,1.486h0.059     c0.298-0.521,0.656-0.925,1.076-1.208S537.289,260.622,537.792,260.622z"/>
      <path class="st9"
            d="M542.846,267.938c0.215,0,0.422-0.016,0.622-0.047s0.359-0.064,0.477-0.1v0.931     c-0.132,0.063-0.326,0.116-0.582,0.157c-0.257,0.041-0.487,0.062-0.692,0.062c-1.553,0-2.329-0.818-2.329-2.453v-4.775h-1.15     v-0.586l1.15-0.506l0.513-1.714h0.703v1.86h2.329v0.945h-2.329v4.724c0,0.483,0.114,0.854,0.345,1.113     C542.13,267.809,542.445,267.938,542.846,267.938z"/>
		</g>
    <line class="st7" x1="418.819" y1="176.398" x2="472.886" y2="176.398"/>
    <line class="st7" x1="338.395" y1="176.398" x2="398.857" y2="176.398"/>
    <line class="st7" x1="302.58" y1="176.398" x2="309.447" y2="176.398"/>
    <line class="st7" x1="274.114" y1="176.398" x2="283.901" y2="176.398"/>
    <g>
			<path class="st2"
            d="M310.199,53.315c-0.05,0.021,0.011,0.106,0.06,0.083c0.049-0.023,0.06-0.087,0.064-0.141     c0.041-0.638-0.016-1.281-0.167-1.902c-0.061-0.25-0.137-0.502-0.12-0.758c0.035-0.528,0.448-0.94,0.826-1.31     c1.36-1.334,2.597-2.793,3.69-4.353c0.512-0.731,1.007-1.527,1.066-2.417c0.007-0.103,0.004-0.217-0.066-0.293     c-0.059-0.065-0.152-0.086-0.239-0.103c-0.616-0.122-1.232-0.243-1.847-0.365c0.125,0.584-0.199,1.16-0.511,1.669     c-0.723,1.181-1.447,2.363-2.17,3.544c-0.158,0.258-0.343,0.537-0.636,0.611c-0.091,0.023-0.192,0.027-0.268,0.083     c-0.079,0.059-0.11,0.161-0.136,0.256c-0.173,0.625-0.345,1.249-0.518,1.874"/>
      <path class="st2"
            d="M350.232,88.339c-0.218,0.124-0.511-0.022-0.627-0.244s-0.1-0.488-0.065-0.736     c0.113-0.801,0.389-1.569,0.564-2.358c0.176-0.789,0.246-1.636-0.046-2.39c-0.039-0.102-0.082-0.227-0.013-0.312     c0.059-0.072,0.168-0.072,0.261-0.066c0.158,0.011,0.317,0.022,0.475,0.033c0.466,0.033,1.003,0.106,1.246,0.505     c0.15,0.246,0.143,0.553,0.121,0.841c-0.137,1.756-0.682,3.478-1.58,4.993"/>
      <path class="st2"
            d="M323.538,46.878c0,0.026,0,0.052,0,0.078c0,2.623,2.07,4.846,2.477,7.437     c0.557,3.547,0.287,7.168,0.483,10.753c0.134,2.456,0.488,4.899,1.056,7.292c0.267,1.124,0.595,2.266,1.293,3.186     c0.666,0.877,1.619,1.486,2.575,2.033c3.081,1.765,6.413,3.09,9.864,3.923c0.483,0.117,1.014,0.253,1.296,0.663     c0.3,0.436,0.209,1.02,0.105,1.538c-0.304,1.526-0.607,3.051-0.911,4.577c0.845,0.041,1.689,0.082,2.534,0.123     c0.726-2.289,1.159-4.671,1.283-7.07c-4.592-1.539-9.264-3.165-13.087-6.138c-0.708-0.55-1.39-1.153-1.886-1.9     c-0.599-0.902-0.896-1.967-1.14-3.021c-1.463-6.331-1.302-12.919-2.217-19.352c-0.187-1.319-0.427-2.653-1.023-3.844     c-0.596-1.191-1.599-2.238-2.881-2.6c0.03,0.643,0.06,1.285,0.089,1.928"/>
      <path class="st2"
            d="M305.498,48.81c0.155-0.315,0.344-0.614,0.562-0.89c0.153-0.194,0.327-0.382,0.551-0.488     c0.45-0.214,0.99-0.053,1.421,0.196c0.431,0.249,0.817,0.585,1.286,0.753c0.133-0.458,0.258-0.983,0-1.384     c-0.097-0.15-0.238-0.265-0.374-0.382c-0.746-0.644-1.368-1.432-1.821-2.308c-0.996,0.534-1.522,1.637-1.984,2.668     c-0.111,0.247-0.221,0.494-0.332,0.741"/>
      <path class="st2"
            d="M298.557,40.628c0.103,0.471,0.297,1.036,0.772,1.119c0.175,0.031,0.352-0.015,0.528-0.043     c0.969-0.154,1.947,0.254,2.754,0.813c0.806,0.559,1.497,1.27,2.293,1.844c0.267,0.192,0.565,0.375,0.893,0.378     s0.68-0.245,0.671-0.573c-0.007-0.27-0.234-0.474-0.44-0.648c-1.078-0.91-2.07-1.923-2.957-3.02     c-0.28-0.347-0.557-0.714-0.671-1.145c-0.076-0.286-0.097-0.625-0.338-0.797c-0.318-0.227-0.75,0.011-1.064,0.243     c-0.797,0.591-1.593,1.182-2.39,1.773"/>
      <path class="st2"
            d="M307.006,44.066c0.224,0.354,0.455,0.703,0.694,1.048c0.047,0.068,0.105,0.142,0.187,0.149     c0.068,0.006,0.13-0.036,0.185-0.077c0.772-0.57,1.483-1.222,2.119-1.941c0.171-0.193,0.34-0.394,0.562-0.525     c0.231-0.137,0.502-0.186,0.767-0.233c0.475-0.085,0.95-0.17,1.425-0.254c0.081-0.014,0.175-0.039,0.207-0.115     c0.021-0.051,0.006-0.109-0.01-0.162c-0.346-1.152-1.026-2.202-1.936-2.99c-0.066-0.057-0.141-0.116-0.228-0.112     c-0.12,0.005-0.2,0.123-0.258,0.229c-0.317,0.585-0.57,1.211-0.977,1.737c-0.192,0.248-0.416,0.472-0.597,0.728     c-0.281,0.398-0.452,0.867-0.743,1.257c-0.364,0.486-0.89,0.819-1.405,1.142"/>
      <path class="st2"
            d="M301.627,37.217c1.094,0.479,2.308,0.588,3.497,0.691c0.412,0.036,0.826,0.071,1.238,0.03     c1.46-0.145,3.018-0.669,4.303-1.377c0.03,0.034,0.041,0.084,0.03,0.127c-0.12-0.651-0.191-1.425-0.312-2.076     c-0.374,0.031-0.74,0.15-1.061,0.344c-0.238,0.144-0.451,0.329-0.693,0.466c-0.714,0.402-1.585,0.341-2.403,0.387     c-0.536,0.03-1.07,0.11-1.606,0.087c-0.941-0.041-1.843-0.399-2.661-0.867c-0.001,0.731-0.002,1.462-0.004,2.193"/>
      <g>
				<path class="st2"
              d="M299.42,17.315c0.405-0.174,0.81-0.348,1.225-0.498c0.741-0.267,2.51-0.64,3.277-0.818      c2.986-0.691,4.903-0.691,7.58-0.791c1.355-0.051,2.926-0.428,3.934,0.479c0.322-0.631-0.436-1.268-1.1-1.516      c-1.971-0.735-4.119-0.799-6.221-0.854c-0.987-0.026-1.991-0.05-2.943,0.213c-0.524,0.145-1.024,0.375-1.557,0.479      c-0.641,0.126-1.302,0.066-1.955,0.086c-0.653,0.019-1.338,0.134-1.845,0.545c-0.507,0.412-0.757,1.196-0.399,1.742"/>
        <path class="st2"
              d="M299.42,17.315c0.405-0.174,0.81-0.348,1.225-0.498c0.741-0.267,2.51-0.64,3.277-0.818      c2.986-0.691,4.903-0.691,7.58-0.791c1.355-0.051,2.926-0.428,3.934,0.479c0.322-0.631-0.436-1.268-1.1-1.516      c-1.971-0.735-4.119-0.799-6.221-0.854c-0.987-0.026-1.991-0.05-2.943,0.213c-0.524,0.145-1.024,0.375-1.557,0.479      c-0.641,0.126-1.302,0.066-1.955,0.086c-0.653,0.019-1.338,0.134-1.845,0.545c-0.507,0.412-0.757,1.196-0.399,1.742"/>
			</g>
      <g>
				<path class="st2"
              d="M291.996,59.104c-2.061,0.224-3.765,1.647-5.327,3.011c-1.763,1.54-3.522,3.085-5.277,4.635      c-0.321,0.283-0.655,0.588-0.785,0.995c-0.259,0.812,0.377,1.611,0.958,2.235c3.22,3.455,6.2,7.132,8.914,10.997      c0.184,0.262,0.371,0.537,0.417,0.853c0.075,0.517-0.241,1.002-0.542,1.429c-0.556,0.79-1.113,1.58-1.669,2.37      c-0.11,0.157-0.226,0.334-0.201,0.523c0.037,0.28,0.379,0.431,0.655,0.37c0.275-0.061,0.493-0.266,0.692-0.465      c1.138-1.134,2.207-2.337,3.198-3.601c0.126-0.161,0.254-0.328,0.308-0.525c0.141-0.515-0.251-1.008-0.611-1.402      c-3.12-3.41-5.936-7.098-8.404-11.005c-0.135-0.214-0.275-0.448-0.259-0.701c0.013-0.204,0.125-0.387,0.24-0.556      c0.561-0.827,1.294-1.363,1.944-2.083c0.967-1.071,1.697-2.342,2.632-3.421c1.051-1.212,2.058-2.424,3.194-3.565"/>
        <path class="st2"
              d="M291.996,59.104c-2.061,0.224-3.765,1.647-5.327,3.011c-1.763,1.54-3.522,3.085-5.277,4.635      c-0.321,0.283-0.655,0.588-0.785,0.995c-0.259,0.812,0.377,1.611,0.958,2.235c3.22,3.455,6.2,7.132,8.914,10.997      c0.184,0.262,0.371,0.537,0.417,0.853c0.075,0.517-0.241,1.002-0.542,1.429c-0.556,0.79-1.113,1.58-1.669,2.37      c-0.11,0.157-0.226,0.334-0.201,0.523c0.037,0.28,0.379,0.431,0.655,0.37c0.275-0.061,0.493-0.266,0.692-0.465      c1.138-1.134,2.207-2.337,3.198-3.601c0.126-0.161,0.254-0.328,0.308-0.525c0.141-0.515-0.251-1.008-0.611-1.402      c-3.12-3.41-5.936-7.098-8.404-11.005c-0.135-0.214-0.275-0.448-0.259-0.701c0.013-0.204,0.125-0.387,0.24-0.556      c0.561-0.827,1.294-1.363,1.944-2.083c0.967-1.071,1.697-2.342,2.632-3.421c1.051-1.212,2.058-2.424,3.194-3.565"/>
			</g>
      <g>
				<path class="st2"
              d="M292.961,57.793c0.766,1.91,0.952,3.999,1.012,6.056c0.136,4.706-0.35,9.405-0.836,14.087      c-0.775-5.115-1.55-10.23-2.325-15.344c-0.094-0.623-0.188-1.27-0.011-1.875c0.322-1.101,1.444-1.785,1.915-2.831"/>
        <path class="st2"
              d="M292.961,57.793c0.766,1.91,0.952,3.999,1.012,6.056c0.136,4.706-0.35,9.405-0.836,14.087      c-0.775-5.115-1.55-10.23-2.325-15.344c-0.094-0.623-0.188-1.27-0.011-1.875c0.322-1.101,1.444-1.785,1.915-2.831"/>
			</g>
      <path class="st2"
            d="M323.082,49.061c-0.876,6.368-0.466,12.847-1.105,19.243c-0.44,4.401-1.374,8.736-2.306,13.06     c-0.544,2.525-1.089,5.05-1.633,7.575c1.447,0.143,2.917,0.059,4.339-0.246c0.282-0.061,0.577-0.138,0.78-0.343     c0.287-0.29,0.306-0.742,0.309-1.15c0.041-8,0.082-16,0.123-24c0.023-4.472,0.045-8.956-0.451-13.4"/>
      <g>
				<path class="st2"
              d="M296.352,42.562c1.921,3.345,4.627,6.237,7.838,8.375c0.238,0.158,0.483,0.317,0.663,0.539      c0.333,0.41,0.396,0.971,0.431,1.498c0.287,4.277-0.33,8.556-0.547,12.837c-0.217,4.281-0.002,8.719,1.827,12.595      c0.393-3.681,0.562-7.387,0.508-11.088c-0.073-4.993-0.553-9.992-0.176-14.972c0.08-1.056,0.175-2.21-0.425-3.084      c-0.69-1.005-2.025-1.265-3.127-1.786c-1.705-0.807-2.971-2.368-3.732-4.094c-0.35-0.792-0.851-1.792-1.713-1.705      c-0.588,0.06-0.984,0.634-1.533,0.852"/>
        <path class="st2"
              d="M296.352,42.562c1.921,3.345,4.627,6.237,7.838,8.375c0.238,0.158,0.483,0.317,0.663,0.539      c0.333,0.41,0.396,0.971,0.431,1.498c0.287,4.277-0.33,8.556-0.547,12.837c-0.217,4.281-0.002,8.719,1.827,12.595      c0.393-3.681,0.562-7.387,0.508-11.088c-0.073-4.993-0.553-9.992-0.176-14.972c0.08-1.056,0.175-2.21-0.425-3.084      c-0.69-1.005-2.025-1.265-3.127-1.786c-1.705-0.807-2.971-2.368-3.732-4.094c-0.35-0.792-0.851-1.792-1.713-1.705      c-0.588,0.06-0.984,0.634-1.533,0.852"/>
			</g>
      <path class="st2"
            d="M306.43,92.327c0.222-0.545,0.685-0.987,1.239-1.184c0.42-0.149,0.874-0.16,1.319-0.169     c0.401-0.008,0.824-0.012,1.175,0.184c0.203,0.113,0.365,0.285,0.524,0.454c0.095,0.101,0.189,0.201,0.284,0.302     c0.059,0.063,0.138,0.132,0.221,0.107c0.086-0.025,0.113-0.131,0.125-0.219c0.055-0.397,0.089-0.796,0.102-1.196     c0.004-0.131,0.003-0.274-0.075-0.38c-0.1-0.136-0.287-0.165-0.455-0.182c-1.314-0.132-2.634-0.205-3.954-0.218     c-0.172-0.002-0.369,0.009-0.474,0.145c-0.073,0.094-0.08,0.222-0.082,0.342c-0.013,0.599-0.004,1.198,0.024,1.796"/>
      <path class="st2"
            d="M311.62,91.174c2.542,0.432,5.093-0.498,7.654-0.801c0.469-0.056,0.95-0.093,1.38-0.286     c0.43-0.193,0.808-0.584,0.834-1.055c-0.466-0.278-1.05-0.278-1.581-0.168s-1.038,0.319-1.567,0.438     c-0.654,0.146-1.33,0.151-2,0.154c-1.004,0.006-2.008,0.012-3.012,0.017c-0.429,0.002-0.875,0.009-1.257,0.204     c-0.382,0.195-0.672,0.64-0.545,1.049"/>
      <path class="st2"
            d="M294.627,88.963c-0.176,0.285-0.017,0.681,0.254,0.877c0.272,0.196,0.62,0.244,0.952,0.286     c3.365,0.423,6.748,0.846,10.137,0.716c0.001-0.427,0.003-0.855,0.004-1.282c-3.847,0.158-7.631-1.018-11.479-1.151"/>
      <g>
				<path class="st2"
              d="M312.173,171.917c-0.151,1.211,0.393,2.485,1.373,3.213c0.254,0.189,0.553,0.348,0.869,0.334      s0.638,0.574,0.646,0.257c0.004-0.149-0.212-1.009,0.309-1.772c0.455-0.666,1.238-1.056,1.976-1.382      c1.428-0.63,3.076-0.408,4.603-0.082c3.034,0.648,5.978,1.658,8.895,2.714c0.4,0.145,2.244,0.872,2.667,0.831      c0.424-0.042,0.266-0.912,0.32-1.334c0.032-0.255-0.914-0.512-1.067-0.718c-0.421-0.567-1.136-0.82-1.817-1.005      c-2.991-0.812-6.172-0.9-9.06-2.023c-0.991-0.386-1.958-0.896-3.017-0.999c-0.858-0.084-1.715,0.107-2.573,0.186      c-1.332,0.124-2.674-0.018-4.012-0.005c-0.084,0.001-0.175,0.004-0.243,0.053c-0.1,0.072-0.117,0.212-0.122,0.334      c-0.018,0.441,0.001,0.884,0.057,1.323"/>
        <path class="st2"
              d="M312.173,171.917c-0.151,1.211,0.393,2.485,1.373,3.213c0.254,0.189,0.553,0.348,0.869,0.334      s0.638,0.574,0.646,0.257c0.004-0.149-0.212-1.009,0.309-1.772c0.455-0.666,1.238-1.056,1.976-1.382      c1.428-0.63,3.076-0.408,4.603-0.082c3.034,0.648,5.978,1.658,8.895,2.714c0.4,0.145,2.244,0.872,2.667,0.831      c0.424-0.042,0.266-0.912,0.32-1.334c0.032-0.255-0.914-0.512-1.067-0.718c-0.421-0.567-1.136-0.82-1.817-1.005      c-2.991-0.812-6.172-0.9-9.06-2.023c-0.991-0.386-1.958-0.896-3.017-0.999c-0.858-0.084-1.715,0.107-2.573,0.186      c-1.332,0.124-2.674-0.018-4.012-0.005c-0.084,0.001-0.175,0.004-0.243,0.053c-0.1,0.072-0.117,0.212-0.122,0.334      c-0.018,0.441,0.001,0.884,0.057,1.323"/>
			</g>
      <path class="st2"
            d="M287.588,173.659c0.8-0.039,1.412-0.686,2.062-1.154c1.203-0.866,2.786-1.182,4.23-0.845     s2.722,1.324,3.415,2.634c0.145,0.275,0.272,0.571,0.505,0.777s0.614,0.288,0.849,0.086c0.243-0.209,0.214-0.588,0.156-0.903     c-0.239-1.285-0.625-2.542-1.149-3.74c-0.1-0.229-0.216-0.468-0.43-0.598c-0.171-0.104-0.379-0.12-0.578-0.134     c-2.354-0.167-4.708-0.333-7.062-0.5c-0.094-0.007-0.194-0.012-0.279,0.03c-0.096,0.048-0.153,0.147-0.205,0.24     c-0.404,0.728-0.807,1.456-1.211,2.184c-0.252,0.455-0.51,0.927-0.558,1.446"/>
      <path class="st2"
            d="M294.97,169.661c2.684-9.457,4.566-19.14,5.619-28.914c0.555-5.151,0.881-10.325,1.444-15.475     c0.633-5.793,1.569-11.568,3.164-17.173c0.364-1.28,0.934-2.73,2.208-3.116c-0.141,3.111-0.496,6.208-0.851,9.302     c-0.404,3.522-0.808,7.043-1.212,10.565c-1.678,14.622-3.359,29.262-6.16,43.711c-0.054,0.28-0.116,0.573-0.303,0.788     c-0.24,0.276-0.63,0.358-0.992,0.404c-1.139,0.146-2.304,0.093-3.425-0.156"/>
      <path class="st2"
            d="M321.63,92.059c-0.326,4.68,0.519,9.365,0.484,14.056c-0.019,2.56-0.299,5.113-0.315,7.674     c-0.022,3.521,0.319,7.024,0.26,10.547c-0.057,3.386,0.149,6.828,0.217,10.221c0.046,2.297,0.155,4.594,0.108,6.891     c-0.078,3.838,0.378,7.546-0.01,11.364c-0.34,3.343-0.432,6.711-0.274,10.068c0.087,1.854,0.251,3.71,0.159,5.564     c-0.007,0.14-0.019,0.29-0.103,0.401c-0.095,0.126-0.26,0.174-0.413,0.215c-0.935,0.248-1.869,0.496-2.804,0.744     c-0.484,0.129-1.024-0.155-1.166-0.636c-1.066-3.61-0.646-7.469-0.266-11.214c1.812-17.828,2.526-35.895-0.13-53.617     c-0.209-1.396-0.459-2.84-1.257-4.004c-1.768-2.577-5.405-2.835-8.53-2.838c-4.455-0.004-8.91-0.008-13.366-0.012     c0.187-1.866,0.143-3.473,0.198-5.347c1.691,0.939,3.726,0.838,5.658,0.931c1.954,0.094,3.912,0.095,5.866,0.003     c0.052,0.234,0.104,0.468,0.157,0.703c1.785-0.057,3.569-0.114,5.354-0.171c-0.038-0.27-0.013-0.549,0.071-0.808     c0.717,0.137,1.449,0.191,2.178,0.159L321.63,92.059z"/>
      <g>
				<path class="st2"
              d="M309.594,52.915c1.064,8.411,0.813,16.988-0.74,25.323c-0.192,1.029-0.312,2.304,0.54,2.913      c0.397-1.089,1.696-1.58,2.279-2.582c0.385-0.662,0.412-1.465,0.428-2.231c0.162-7.495,0.282-15.235-2.541-22.18"/>
        <path class="st2"
              d="M309.594,52.915c1.064,8.411,0.813,16.988-0.74,25.323c-0.192,1.029-0.312,2.304,0.54,2.913      c0.397-1.089,1.696-1.58,2.279-2.582c0.385-0.662,0.412-1.465,0.428-2.231c0.162-7.495,0.282-15.235-2.541-22.18"/>
			</g>
      <g>
				<path class="st1"
              d="M290.977,60.438c0.526,5.929,2.802,18.321,2.751,28.161c4.363,0.337,20.216,2.757,29.665-0.44      c0,0,0.601-24.823,0.035-44.101"/>
        <path class="st1" d="M310.736,38.394c-0.076-3.309-0.112-0.667-0.189-3.975"/>
        <path class="st1" d="M301.858,35.48c0,2.962,0-0.048,0,2.914"/>
        <g>
					<path class="st1"
                d="M319.449,170.285c3.792,0.729,7.016,1.584,10.809,2.313c1.556,0.299,3.43,0.902,3.714,2.46       c0.193,1.058-0.529,2.119-1.471,2.638s-2.057,0.604-3.133,0.623c-4.288,0.072-8.538-0.752-12.717-1.715       c-1.096-0.253-2.22-0.529-3.136-1.181c-0.916-0.652-1.415-1.677-1.376-2.882l-0.002-2.531"/>
          <g>
						<g>
							<path class="st34" d="M321.959,171.032c-0.875,0.518-1.548,1.368-1.851,2.339"/>
              <path class="st34"
                    d="M324.084,171.393c-0.373,0.11-0.651,0.418-0.88,0.732c-0.327,0.447-0.598,0.934-0.807,1.447"/>
              <path class="st34" d="M325.995,171.833c-0.578,0.582-1.02,1.298-1.282,2.075"/>
						</g>
            <g>
							<path class="st1" d="M321.959,171.032c-0.875,0.518-1.548,1.368-1.851,2.339"/>
              <path class="st1"
                    d="M324.084,171.393c-0.373,0.11-0.651,0.418-0.88,0.732c-0.327,0.447-0.598,0.934-0.807,1.447"/>
              <path class="st1" d="M325.995,171.833c-0.578,0.582-1.02,1.298-1.282,2.075"/>
						</g>
					</g>
				</g>
        <path class="st1"
              d="M321.919,88.599c0.241,14.277,0.572,80.512,0.572,80.512c-3.476,1.715-9.593,1.192-11.511,0.665      c-0.174-11.527-1.151-52.086-2.601-64.954l-0.643,0.095c-0.902,9.492-2.8,21.133-4.02,33.397      c-1.036,10.411-3.426,22.675-4.716,31.2c-1.918,0.527-6.823,0.174-11.126-0.308c0,0,3.361-39.846,3.519-42.416      c0.778-12.656,3.55-29.851,3.218-38.111"/>
        <path class="st1"
              d="M295.481,22.555c0.067,1.414,0.224,2.824,0.468,4.218c0.268,1.529,0.649,3.058,1.389,4.423      c1.526,2.816,4.618,4.713,7.819,4.798c3.201,0.085,6.39-1.645,8.063-4.376c0.709-1.157,1.152-2.455,1.514-3.762      c1.196-4.316,1.562-8.86,1.072-13.311"/>
        <circle class="st6" cx="303.406" cy="19.389" r="0.588"/>
        <circle class="st6" cx="311.966" cy="19.389" r="0.588"/>
        <path class="st1"
              d="M307.717,23.988c0.356,0.917,0.715,1.936,0.377,2.86c-0.08,0.218-0.202,0.428-0.388,0.568      c-0.24,0.18-0.554,0.22-0.853,0.243c-0.718,0.054-1.441,0.038-2.156-0.048"/>
        <path class="st1"
              d="M323.513,80.752c1.221,4.575,10.49,7.847,20.806,7.847c0,0,0.575-2.939,1.236-7.455      c0,0-14.371-4.347-15.449-8.366c-1.879-7.004-1.752-22.132-4.48-26.46c-3.099-4.918-8.153-2.69-14.892-6.015"/>
        <path class="st1" d="M300.86,29.914c0.315,0.535,0.755,0.996,1.276,1.334c0.46,0.299,1.091,0.492,1.535,0.171"/>
        <path class="st12"
              d="M292.848,82.471c0,0,3.964,0.735,3.755,2.907c-0.155,1.612-2.298,2.002-3.391,2.096      c-0.443,0.038-0.884,0.021-1.32-0.064c-0.593-0.115-1.473-0.371-2.243-0.929L292.848,82.471z"/>
        <path class="st1"
              d="M294.311,22.303c0,0,1.709-0.06,2.918,1.685c0,0,2.372-4.882,1.965-9.242c0,0,10.173-2.674,17.557,0.291      c0,0,1.046-6.337-1.046-9.767c0,0-0.638,0.465-0.754,1.511c0,0-1.802-4.883-8.429-3.314c-6.627,1.57-13.023,6.431-13.663,10.105      c0,0-0.17,2.763-0.946,3.511c0,0,1.266-0.144,1.496-1.41C293.408,15.674,294.813,20.705,294.311,22.303z"/>
        <path class="st1"
              d="M304.542,47.714c0,0,1.378,1.503,2.437,2.227c0,0-0.001,22.6-0.279,28.158l2.834,3.39l2.668-3.279      c0,0,0.222-13.727-1.111-20.062c-1.334-6.335-2.056-8.225-2.056-8.225l0.962-2.505l-0.872-2.503l-2.145-0.857l-2.437,1.238      V47.714z"/>
        <path class="st1"
              d="M301.858,40.67c-3.515,1.295-6.415,1.848-13.326,5.245c-4.282,2.105-12.057,14.755-13.756,19.056      c-1.482,3.753-0.278,6.805,1.717,9.706c2.028,2.949,7.082,7.966,12.735,12.308l4.142-5.151c0,0-6.558-8.609-9.574-12.804      c0,0,3.276-4.83,9.749-11.589"/>
        <path class="st1" d="M311.574,93.193c3.078-0.176,6.549-0.545,10.393-1.201"/>
        <path class="st1" d="M294.605,91.992c0,0,4.054,1.242,11.631,1.328"/>
        <path class="st1"
              d="M306.237,89.685v4.244c0,0,2.295,0.371,5.306-0.11l0.203-4.036      C311.745,89.784,308.575,89.958,306.237,89.685z"/>
        <path class="st1"
              d="M289.165,169.344c0,0-3.916,6.46-1.292,7.824c2.624,1.364,12.685,2.416,11.197-3.002      c-1.006-3.664-1.591-4.434-1.591-4.434"/>
        <path class="st12"
              d="M304.199,48.229c-4.892-2.214-5.561-7.559-5.561-7.559s1.961-1.967,3.22-2.276      c0,0,1.105,3.347,5.121,5.664L304.199,48.229z"/>
        <path class="st12"
              d="M306.98,44.058c0,0,2.775-1.493,3.756-5.664c0,0,2.5,2.419,2.99,4.222c0,0-1.854,4.016-3.373,5.098      C310.352,47.714,307.277,45.233,306.98,44.058z"/>
        <path class="st12" d="M291.098,171.031c0,0,1.916,1.076,4.135,0.269"/>
        <path class="st12" d="M291.098,172.761c0,0,1.916,1.076,4.135,0.269"/>
        <path class="st1"
              d="M344.477,87.757c0,0,5.314,1.213,6.178,0.637c0.864-0.576,1.8-4.789,1.656-5.617      c-0.144-0.828-3.405-0.72-3.405-0.72s0.865-4.71-0.084-4.699c-1.332,0.016-1.717,4.843-1.717,4.843l-1.726,0.118"/>
			</g>
		</g>
	</g>
</g>
</svg>
