<?xml version="1.0" encoding="UTF-8" standalone="no"?>
<svg version="1.1" x="0px" y="0px" width="750px" height="357.3333435px" viewBox="0 0 750 357.3333435" xml:space="preserve" id="svg2695" sodipodi:docname="edit.svg" inkscape:version="1.1 (ce6663b3b7, 2021-05-25)" xmlns:inkscape="http://www.inkscape.org/namespaces/inkscape" xmlns:sodipodi="http://sodipodi.sourceforge.net/DTD/sodipodi-0.dtd" xmlns="http://www.w3.org/2000/svg" xmlns:svg="http://www.w3.org/2000/svg">
   <defs id="defs2699" />
   <sodipodi:namedview id="namedview2697" pagecolor="#ffffff" bordercolor="#666666" borderopacity="1.0" inkscape:pageshadow="2" inkscape:pageopacity="0.0" inkscape:pagecheckerboard="0" showgrid="false" inkscape:zoom="1.8493333" inkscape:cx="337.95963" inkscape:cy="135.45422" inkscape:window-width="1920" inkscape:window-height="1000" inkscape:window-x="0" inkscape:window-y="0" inkscape:window-maximized="1" inkscape:current-layer="Grafik" />
   <style type="text/css" id="style1847">
	.st0{display:none;}
	.st1{display:inline;fill:#004B8C;}
	.st2{fill:#FFFFFF;}
	.st3{fill:none;stroke:#004B8C;stroke-linecap:round;stroke-linejoin:round;stroke-miterlimit:10;}
	.st4{fill:#D0E2F3;}
	.st5{fill:none;stroke:#004B8C;stroke-miterlimit:10;}
	.st6{fill:#004B8C;}
	.st7{fill:#E6411A;}
	.st8{fill:#003554;}
	.st9{fill:none;stroke:#FFFFFF;stroke-linecap:round;stroke-linejoin:round;stroke-miterlimit:10;}
	.st10{fill:#FFFFFF;stroke:#004B8C;stroke-linecap:round;stroke-linejoin:round;stroke-miterlimit:10;}
	.st11{fill:none;stroke:#3A8DFF;stroke-linecap:round;stroke-linejoin:round;stroke-miterlimit:10;}
	.st12{fill:#3A8DFF;stroke:#004B8C;stroke-linecap:round;stroke-linejoin:round;stroke-miterlimit:10;}
	.st13{opacity:0.2;fill:#156CC4;}
	.st14{fill:#D0E2F3;stroke:#004B8C;stroke-linecap:round;stroke-linejoin:round;stroke-miterlimit:10;}
	.st15{fill:none;stroke:#FFFFFF;stroke-linecap:round;stroke-miterlimit:10;}
	.st16{fill:#004B8C;stroke:#004B8C;stroke-linecap:round;stroke-linejoin:round;stroke-miterlimit:10;}
	.st17{fill:none;stroke:#FFFFFF;stroke-width:0.5;stroke-linecap:round;stroke-linejoin:round;stroke-miterlimit:10;}
	.st18{fill:none;stroke:#FFFFFF;stroke-width:1.75;stroke-linecap:round;stroke-linejoin:round;stroke-miterlimit:10;}
	.st19{fill:#FFFFFF;stroke:#004B8C;stroke-miterlimit:10;}
	.st20{fill:none;stroke:#004B8C;stroke-linecap:round;stroke-miterlimit:10;}
	.st21{fill:#E8F0F9;stroke:#004B8C;stroke-linecap:round;stroke-linejoin:round;stroke-miterlimit:10;}
	.st22{fill:none;stroke:#D0E2F3;stroke-linecap:round;stroke-miterlimit:10;}
	.st23{fill:#FCFCFC;}
</style>
   <g id="Layer_2" class="st0">
      <rect x="-0.0052288" y="-0.0027177" class="st1" width="750.0083618" height="357.340332" id="rect1849" />
   </g>
   <g id="Grafik">
      <g id="g1926" transform="translate(-6.6301474,-44.239542)">
         <path class="st2" d="m 441.06277,247.16231 v -79.469 c 0,-1.38379 -1.1217,-2.50561 -2.50543,-2.50561 H 318.66135 c -1.38373,0 -2.5055,1.12182 -2.5055,2.50561 v 79.469 h -12.90289 c 0,1.31738 0.42975,2.53149 1.14978,3.52099 l 0.0102,0.0315 h 0.0133 c 1.0921,1.48047 2.84332,2.44482 4.82422,2.44482 h 138.71777 c 3.31232,0 5.9975,-2.68506 5.9975,-5.99731 z" id="path1852" />
         <circle class="st3" cx="328.09741" cy="177.96178" r="1.3175046" id="circle1854" />
         <circle class="st3" cx="334.57385" cy="177.96178" r="1.3175046" id="circle1856" />
         <circle class="st3" cx="341.05026" cy="177.96178" r="1.3175046" id="circle1858" />
         <g id="g1874">
            <path class="st4" d="m 437.08578,206.38782 -96.99572,35.37542 97.26529,-0.0453 c 0,0 0.0166,1.73343 0.0166,0.0881 z" id="path1860" />
            <polyline class="st4" points="303.2529602,247.1622467 453.9657288,247.1622467 452.5035706,250.7146912      304.4130249,250.7146912 303.2529602,247.1622467    " id="polyline1862" />
            <g id="g1872">
               <path class="st5" d="M 438.55734,165.18771 H 318.66138 c -1.38376,0 -2.5055,1.12174 -2.5055,2.50548 v 79.46906 h 124.90693 v -79.46906 c 0,-1.38374 -1.12174,-2.50548 -2.50547,-2.50548 z" id="path1864" />
               <path class="st5" d="M 436.82367,170.63916 H 320.39502 c -0.30243,0 -0.54761,0.24518 -0.54761,0.54762 v 69.9764 c 0,0.30244 0.24518,0.54762 0.54761,0.54762 h 116.42865 c 0.30243,0 0.54764,-0.24518 0.54764,-0.54762 v -69.9764 c 0,-0.30244 -0.24521,-0.54762 -0.54764,-0.54762 z" id="path1866" />
               <circle class="st6" cx="378.60934" cy="167.90509" r="1.2708955" id="circle1868" />
               <path class="st5" d="m 447.96826,253.15973 h -138.7178 c -3.31232,0 -5.9975,-2.68517 -5.9975,-5.99748 v 0 h 150.71277 v 0 c 0,3.31231 -2.68518,5.99748 -5.99747,5.99748 z" id="path1870" />
            </g>
         </g>

         <line class="st3" x1="319.84741" y1="183.46635" x2="437.37131" y2="183.46635" id="line1924" />
      </g>
      <path class="st4" d="m 434.01835,208.41781 v -39.79089 h -17.91464 c -1.52155,0 -2.75501,1.2334 -2.75501,2.75512 v 37.03577 z" id="path1928" />
      <g id="g1932" transform="translate(-6.6301474,-44.239542)">
         <polyline class="st9" points="145.2363586,240.0146332 145.1628418,231.0787354 154.0989227,231.1235962   " id="polyline1930" />
      </g>
      <path class="st9" d="m 245.34125,212.97692 c 15.86347,-5.26678 30.01972,-14.27641 41.4307,-25.97596" id="path1934" />
      <path class="st9" d="m 138.80895,187.00096 c 12.02661,12.33076 27.10274,21.67352 44.013,26.79557" id="path1936" />
      <g id="g1940" transform="translate(-6.6301474,-44.239542)">
         <polyline class="st9" points="293.3285828,177.1438446 293.4020996,186.0797424 284.4660339,186.0348969   " id="polyline1938" />
      </g>
      <line class="st9" x1="527.63062" y1="169.19685" x2="464.6554" y2="169.19684" id="line1942" />
      <polyline class="st9" points="527.8901367,207.169754 534.2607422,213.4364014 527.9102783,219.7234497  " id="polyline1944" transform="translate(-6.6301474,-44.239542)" />


      <g id="g1958" transform="translate(-6.6301474,-44.239542)">
         <g id="g1956">
            <path class="st2" d="m 117.68342,198.35326 c -0.19293,-3.19312 -1.09174,-12.7566 -2.13873,-17.71216 -1.31794,-6.23804 -1.84748,-7.90405 -3.42926,-9.95532 -1.60254,-2.49512 -3.84369,-4.24537 -7.13349,-4.90699 0,0 -0.0393,-0.009 -0.0664,-0.0151 -3.31421,-1.05762 -6.969732,-1.46143 -10.640447,-3.16236 -0.28595,-0.27661 -0.374328,-0.2998 -0.39862,-0.18091 -0.01666,-0.008 -0.03333,-0.0142 -0.04999,-0.0225 l 0.04352,0.0659 c -0.02472,0.30567 -0.04352,-0.0659 -0.04352,-0.0659 -0.03064,-1.32666 -0.05457,-1.98217 -0.07733,-2.52319 0.003,-0.002 0.0056,-0.003 0.0086,-0.005 l -0.114624,-3.18677 -0.09106,0.0112 c 1.076843,-0.70922 2.013183,-1.6289 2.687439,-2.72924 0.68811,-1.12305 1.11853,-2.38404 1.470276,-3.65332 0.52124,-1.88086 0.870849,-3.80738 1.065124,-5.74952 0.03149,0.34717 0.08051,0.67139 0.179016,0.92823 0.106751,0.28125 1.649966,-1.35889 2.329346,-9.5503 0.15528,-1.87353 -1.06763,-3.60107 -2.329346,-5.01806 -0.999695,-1.12573 -1.306579,-1.66504 -2.665344,-2.5647 -1.589417,-1.05248 -3.090149,-1.64745 -4.934204,-2.14257 -1.844116,-0.49487 -3.814392,-0.65991 -5.658447,-0.16479 -1.630555,0.427 -3.076661,1.34887 -4.445252,2.36815 -0.0097,0 -0.0097,0.01 -0.01941,0.01 -1.368469,0.64063 -2.892273,2.61084 -3.891907,3.72705 -1.252075,1.417 -1.873291,3.34839 -1.950867,5.23145 -0.330017,8.33716 3.552247,10.79272 3.658997,10.51123 0.06543,-0.17065 0.109131,-0.38135 0.137573,-0.61987 0.07489,0.66382 0.169495,1.32519 0.284912,1.98291 0.260437,1.48462 0.630616,2.96972 1.348755,4.29492 1.031677,1.90356 2.807007,3.35791 4.835816,4.10351 l -0.447693,0.0547 v 2.15625 c 0,0.71021 0,1.13281 0,2.88355 0,0 0.01483,0.10962 0.08179,0.27514 -0.09235,0.0476 -0.185852,0.0911 -0.281494,0.12769 l 0.199707,-0.40283 c -3.412903,1.25683 -6.229004,1.79394 -12.939087,5.09277 -4.157959,2.04419 -10.554623,18.31006 -12.203732,22.48706 -2.617553,6.62988 -0.513061,10.17334 3.668946,15.0791 5.530452,6.48731 4.690609,5.32471 9.210872,9.6958 l 0.448059,-0.44433 c 0.158936,0.0955 0.902222,0.53149 1.793213,0.87426 -0.07477,0.075 -0.118591,0.18726 -0.128906,0.30054 -0.05292,0.5791 -0.04236,1.1626 0.0188,1.74097 0.02692,0.004 0.05396,0.008 0.08087,0.012 -0.115906,3.92237 -0.287415,7.41309 -0.514588,10.03394 0.701904,0.0542 2.327698,0.1604 1.805481,0.22119 l -0.546326,0.0166 c 0.009,0.22314 0.02326,0.45679 0.03449,0.68433 -0.16101,1.05883 -0.09241,2.14746 0.211121,3.17456 0.0015,0.0188 0.0031,0.0376 0.0046,0.0564 -0.03198,-0.001 -0.0639,-0.003 -0.09589,-0.004 l 0.104859,0.11353 c 0.615539,7.45947 1.973511,16.54126 2.266357,24.55617 0.09125,2.49853 -0.437744,28.16796 -0.437744,28.16796 0.3844,0.043 0.781494,0.0791 1.182984,0.11158 -0.1922,0.37011 -0.267579,0.92798 -0.23639,1.30249 -0.03168,0.72973 0.238526,1.4917 0.685974,2.08545 0.657227,0.87231 1.617127,1.45678 2.557801,2.01147 3.586548,2.11524 7.280639,4.12207 11.271362,5.30982 1.000977,0.29809 2.058167,0.54492 3.082398,0.34057 1.024169,-0.20434 2.003234,-0.97534 2.133911,-2.01147 0.192443,-1.52588 -1.366211,-2.63233 -2.718933,-3.3645 -0.551697,-0.29859 -1.115662,-0.61207 -1.677247,-0.92261 -0.308715,-0.26367 -0.631225,-0.51172 -0.979553,-0.71973 -0.525024,-0.31396 -1.087036,-0.56006 -1.636169,-0.82934 -1.556946,-0.76392 -3.018494,-1.72193 -4.340088,-2.84473 -0.08429,-0.0718 -0.170166,-0.14282 -0.26001,-0.20728 0.76886,-0.0815 1.537659,-0.16284 2.306519,-0.24438 0.0037,-0.0701 0.0059,-0.13989 0.0095,-0.20972 0.02075,-0.005 0.04675,-0.0102 0.06665,-0.0159 0.01569,-0.96753 0.03986,-1.96753 0.06964,-2.99438 0.170105,-3.66797 0.309387,-7.3374 0.403808,-11.0083 0.156433,-4.24121 0.292359,-8.71875 0.299378,-13.33448 0.01501,-9.87403 -0.584595,-20.3274 -0.674073,-29.59986 2.184754,-0.073 4.056702,-0.0479 2.883423,0.0981 -0.329834,1.31982 0.321839,4.0896 0.328675,4.11865 0.810119,14.47608 -0.382874,42.3008 -0.230286,52.42018 0.475586,0.13086 1.28595,0.23291 2.277588,0.30664 -4.88e-4,2.5e-4 -0.0011,2.5e-4 -0.0016,4.9e-4 -0.01825,0.0112 -0.03192,0.0342 -0.04913,0.0481 l -0.474121,-0.003 c -0.518616,0.96094 -0.226929,2.19825 0.430236,3.07032 0.657227,0.87207 1.617127,1.45678 2.557801,2.01147 3.586611,2.11499 7.280641,4.12183 11.271421,5.30982 1.00098,0.29785 2.05817,0.54467 3.08234,0.34057 1.02423,-0.20434 2.00323,-0.97534 2.13391,-2.01147 0.19251,-1.52588 -1.36621,-2.63233 -2.71887,-3.3645 -2.98767,-1.61744 -5.53198,-3.19532 -8.4328,-4.80494 -0.12866,-0.10766 -0.2605,-0.21215 -0.41449,-0.27685 -0.0414,-0.0176 -0.0853,-0.0208 -0.12781,-0.0325 0.80426,-0.12451 1.61816,-0.30103 2.4148,-0.3855 0,0 0.40924,-14.97803 0.70245,-30.19093 0,-2.5e-4 6e-5,-4.9e-4 6e-5,-9.8e-4 0.20898,-3.78857 0.41321,-7.54004 0.29108,-11.33228 -0.15607,-4.84594 0.2182,-10.96191 -0.0189,-15.85424 0.0793,-0.0239 0.16284,-0.0371 0.23339,-0.0825 0.14228,-0.0916 0.23127,-0.22364 0.29926,-0.37012 0.0666,-0.032 0.14014,-0.0525 0.19409,-0.10522 0.2312,-0.22583 0.24219,-0.58838 0.23444,-0.91163 -0.15955,-6.68042 -0.043,-21.37597 0.11816,-31.07006 0.0404,-0.87329 0.0738,-1.74683 0.12506,-2.61963 0.10254,-1.74707 0.21466,-3.55518 0.0858,-5.30567 1.28784,6.04175 2.93384,13.63819 3.03863,14.29395 0,0 -0.16217,18.50732 -0.47717,20.7102 0,0 0.3244,0.0706 0.83887,0.15699 h -9.2e-4 c -0.0773,2.24414 0.0966,5.35498 1.61286,5.69116 1.52398,0.33789 2.73156,-2.86157 3.40985,-5.24121 l -0.55127,-0.0493 c 0.48981,-0.0798 0.97961,-0.15942 1.46942,-0.23901 0.0188,-0.0745 0.0297,-0.15039 0.048,-0.22461 0.0769,-0.031 0.15839,-0.0584 0.2295,-0.094 0,0 0.0497,-0.59594 0.12915,-1.58569 0.6311,-3.15356 0.91626,-6.37427 1.05737,-9.59106 0.11572,-2.63697 0.14813,-5.2771 0.10333,-7.91626 0.07,-1.75562 0.0945,-3.19312 0.0441,-4.0271 z M 79.065315,141.21092 c -0.04016,0.54737 -0.05701,1.09595 -0.06952,1.64453 -0.04993,-0.78418 -0.06152,-1.4768 0.04205,-1.92651 0.02313,-0.0999 0.05261,-0.20483 0.08612,-0.31274 -0.0368,0.36328 -0.05866,0.59472 -0.05866,0.59472 z m -4.585449,66.74805 c -2.042053,-2.52149 -4.095276,-5.05982 -5.666687,-7.89893 -0.98114,-1.77246 -1.784851,-3.8164 -1.319153,-5.78808 0.03882,-0.16431 0.08942,-0.32495 0.14325,-0.48438 0.955749,-2.10498 2.885193,-6.02392 5.569214,-9.88403 0.431274,-0.57959 0.877014,-1.14819 1.356994,-1.69116 0.02338,-0.0264 0.04669,-0.0552 0.07025,-0.0828 l 0.02997,0.70191 0.662476,26.17285 c -0.282105,-0.34863 -0.564148,-0.69678 -0.846314,-1.04541 z m 0.850281,1.05029 c -5.5e-4,-7.3e-4 -10e-4,-0.001 -0.0016,-0.002 0.0076,-1.52246 0.0081,-1.00464 0.0016,0.002 z m 38.645993,12.96558 -0.29443,-0.0264 c 0.0991,-7.3e-4 0.19653,-0.005 0.29486,-0.008 0,0.0115 -4.3e-4,0.0227 -4.3e-4,0.0342 z" id="path1954" />
         </g>
      </g>
      <g id="g2118" transform="translate(-6.6301474,-44.239542)">
         <g id="g2116">
            <path class="st4" d="m 85.206886,159.87024 c 0,0 2.771012,3.34209 8.550858,0 l -0.114578,-3.1868 c 0,0 -2.829049,1.43771 -5.232338,1.53064 -2.40329,0.0929 -3.203942,-0.50006 -3.203942,-0.50006 z" id="path1960" />
            <path class="st4" d="m 92.895821,164.24052 c 4.06961,1.81458 14.382449,4.7354 16.829739,8.459 0.64962,0.98842 2.05064,2.65102 2.36643,3.79087 0.35143,1.26852 1.42381,4.05108 1.5147,5.58853 0.19278,3.26102 0.56393,5.75126 1.14677,8.96556 0.48446,2.67165 0.46803,5.12035 0.82535,7.81195 0.57541,4.33447 -0.3757,8.70343 -0.94965,13.0381 -0.44925,3.39287 -0.66829,6.81619 -0.65512,10.23863 0.69933,-0.11375 1.39866,-0.22752 2.09798,-0.34129 0.94939,-3.75125 1.2944,-7.62935 1.46401,-11.49515 0.45068,-10.27188 -0.31885,-20.59677 -2.28726,-30.68835 -0.2908,-1.49088 -0.60853,-2.98 -1.07828,-4.42449 -1.58275,-4.86691 -4.17124,-8.39579 -9.18853,-9.40507 0,0 -9.673244,-2.16954 -10.689655,-3.16156 -1.016403,-0.99204 0.357468,1.04289 -1.396484,1.62327" id="path1962" />
            <path class="st4" d="m 100.9466,226.78166 c 1.24417,-2.73141 1.56835,-5.778 1.87646,-8.76358 0.34224,-3.31622 0.68481,-6.63795 0.72481,-9.97156 0.057,-4.75109 -0.50095,-9.49818 -0.33954,-14.24688 0.14269,-4.19806 0.85073,-8.37654 2.09901,-12.38727 1.79951,3.04671 1.54591,6.83032 1.33863,10.36268 -0.18739,3.19324 -0.29122,6.39072 -0.39503,9.58776 -0.0721,2.22018 -0.14418,4.44035 -0.21627,6.66054 -0.18736,5.77011 -0.37446,11.55397 0.068,17.31013 0.0424,0.55214 0.0379,1.21838 -0.42768,1.51819 -0.23975,0.15439 -0.54188,0.16295 -0.827,0.16664 -1.33026,0.0172 -2.66053,0.0344 -3.9908,0.0517" id="path1964" />
            <path class="st10" d="m 110.13119,221.63031 c -0.0774,2.24432 0.0965,5.35513 1.61282,5.6913 1.52403,0.33787 2.73161,-2.86177 3.40985,-5.2413" id="path1966" />
            <path class="st4" d="m 75.10556,211.77879 c -1.083404,-0.9024 -2.134414,-1.8437 -3.150322,-2.82147 -0.585258,-0.56329 -1.16217,-1.14258 -1.627472,-1.80839 -0.468917,-0.67098 -0.816154,-1.41781 -1.160904,-2.16027 -1.067764,-2.29959 -2.135528,-4.59918 -3.203292,-6.89877 -0.353234,-0.76073 -0.71296,-1.54765 -0.740357,-2.38594 -0.01898,-0.58081 0.124085,-1.15576 0.316277,-1.70419 0.574356,-1.63898 1.580986,-3.08649 2.598854,-4.49364 1.340057,-1.85259 2.720589,-3.67549 4.100983,-5.49823 0.939903,-1.24108 1.893966,-2.49677 3.117309,-3.45964 0.101998,0.62842 -0.37149,1.18722 -0.793174,1.6642 -2.582627,2.92128 -4.3909,6.43008 -6.172066,9.89869 -0.357186,0.69559 -0.717606,1.39977 -0.897354,2.16076 -0.465721,1.97171 0.337974,4.01574 1.319114,5.78827 1.57145,2.83898 3.624688,5.37719 5.666733,7.89895 0.442398,0.54633 0.884796,1.09265 1.327202,1.63898 0.153153,0.18915 0.314735,0.40282 0.30146,0.64583 -0.01087,0.19911 -0.137848,0.37037 -0.259628,0.52827 -0.241058,0.31255 -0.482117,0.62509 -0.723175,0.93762" id="path1968" />
            <path class="st4" d="m 75.007126,217.56973 c 0.472641,0.0787 0.949333,0.1577 1.428085,0.13819 0.47876,-0.0195 0.965935,-0.14508 1.345024,-0.43814 0.176087,-0.13614 0.324417,-0.30452 0.465561,-0.47661 0.223107,-0.27204 0.433747,-0.56066 0.561173,-0.88858 0.127426,-0.32795 0.165436,-0.70188 0.04173,-1.03124 -0.214501,0.26567 -0.431565,0.53386 -0.700966,0.74365 -0.269402,0.20978 -0.599976,0.35894 -0.941285,0.34932 -0.199539,-0.006 -0.393257,-0.0645 -0.584137,-0.12292 -0.386383,-0.11824 -0.772766,-0.2365 -1.159149,-0.35474 -0.06479,-0.0198 -0.133476,-0.0398 -0.199272,-0.0236 -0.148209,0.0365 -0.193787,0.22176 -0.20768,0.37375 -0.05725,0.6266 -0.04765,1.25929 0.02859,1.88388" id="path1970" />
            <path class="st4" d="m 94.793587,284.41116 c 0.304542,-0.18612 0.691795,-0.13833 1.043701,-0.0787 1.682724,0.28534 3.393021,0.70099 5.075832,0.41617 0.42266,-0.0715 0.87154,-0.1843 1.26675,-0.0183 0.1898,0.0797 0.34823,0.21756 0.50512,0.35086 1.3216,1.12289 2.78315,2.0809 4.34006,2.84475 0.54912,0.26944 1.11116,0.51542 1.63617,0.82923 0.39442,0.23578 0.76637,0.50906 1.1092,0.81503 -0.42721,0.24457 -0.97751,0.13089 -1.40742,-0.10892 -0.42992,-0.2398 -0.78732,-0.59109 -1.204,-0.85321 -0.69397,-0.43655 -1.51872,-0.60687 -2.26979,-0.93563 -0.43994,-0.19257 -0.85403,-0.43934 -1.28834,-0.64429 -1.27535,-0.60181 -2.70057,-0.82984 -4.11046,-0.85932 -1.409889,-0.0295 -2.815796,0.13236 -4.218643,0.27616 -0.279175,0.0286 -0.570046,0.0551 -0.83294,-0.0431 -0.262893,-0.0982 -0.175781,-1.66651 0.35476,-1.99082 z" id="path1972" />
            <path class="st4" d="m 79.422958,284.41116 c 0.304535,-0.18612 0.691796,-0.13833 1.043694,-0.0787 1.682731,0.28534 3.393021,0.70099 5.075836,0.41617 0.422669,-0.0715 0.871536,-0.1843 1.266747,-0.0183 0.189811,0.0797 0.348228,0.21756 0.505127,0.35086 1.321594,1.12289 2.783142,2.0809 4.340057,2.84475 0.549126,0.26944 1.11116,0.51542 1.636177,0.82923 0.394409,0.23578 0.766365,0.50906 1.109184,0.81503 -0.4272,0.24457 -0.9775,0.13089 -1.407417,-0.10892 -0.429909,-0.2398 -0.787308,-0.59109 -1.203995,-0.85321 -0.693977,-0.43655 -1.518722,-0.60687 -2.26979,-0.93563 -0.439942,-0.19257 -0.854035,-0.43934 -1.288346,-0.64429 -1.275337,-0.60181 -2.700561,-0.82984 -4.11045,-0.85932 -1.409897,-0.0295 -2.815796,0.13236 -4.218644,0.27616 -0.279182,0.0286 -0.570053,0.0551 -0.832946,-0.0431 -0.262894,-0.0982 -0.175782,-1.66651 0.354766,-1.99082 z" id="path1974" />
            <path class="st4" d="m 76.054794,231.77472 c 2.203118,0.0911 4.406235,0.18213 6.60936,0.27318 0.510162,0.0211 1.041389,0.0478 1.488342,0.29469 0.58004,0.32037 0.910843,0.94966 1.174362,1.55765 2.037644,4.70111 1.953347,10.01079 1.83445,15.13313 -0.277885,11.97258 -0.555771,23.94518 -0.833656,35.91777 1.01107,-0.10718 2.022141,-0.21435 3.033211,-0.32153 0.531326,-10.1362 0.773567,-20.28754 0.726333,-30.43755 -0.01766,-3.79416 -0.07576,-7.58829 -0.197876,-11.38052 -0.15921,-4.94449 -0.427207,-9.88474 -0.695175,-14.82451 -4.350982,-0.61116 -8.782524,-0.64626 -13.142631,-0.10408 -0.331528,1.32693 -0.280068,2.74724 0.146614,4.04671" id="path1976" />
            <path class="st4" d="m 92.748512,231.68661 c 2.203118,0.0911 3.688034,0.27024 5.891152,0.36129 0.51017,0.0211 1.041389,0.0478 1.488346,0.29469 0.58004,0.32037 0.91085,0.94966 1.17437,1.55765 2.03763,4.70111 1.95333,10.01079 1.83445,15.13313 -0.27789,11.97258 -1.45395,23.78047 -1.73183,35.75307 1.01107,-0.10718 2.0508,-0.36688 3.06187,-0.47406 0.0976,-10.88745 0.15116,-20.19583 0.70253,-30.19184 0.20896,-3.78845 0.41317,-7.53993 0.29106,-11.33216 -0.15921,-4.94448 0.23759,-11.21943 -0.0304,-16.1592 -4.02612,0.30795 -8.650783,0.39377 -13.01089,0.93593 -0.331528,1.32693 0.329322,4.1215 0.329322,4.1215 z" id="path1978" />
            <path class="st3" d="m 75.210846,215.55016 c -0.113205,4.75187 -0.303551,9.00726 -0.569542,12.07556 4.236061,0.3274 25.656536,-0.43285 30.788776,-0.99654 0.26369,-0.029 0.54848,-0.0675 0.7382,-0.25291 0.23122,-0.226 0.24219,-0.58843 0.23447,-0.91166 -0.21855,-9.14973 0.0807,-33.34652 0.30345,-39.11524" id="path1980" />
            <path class="st3" d="m 74.641304,181.94711 c 0.510262,5.75688 0.735954,17.58554 0.687012,27.14051" id="path1982" />
            <path class="st3" d="m 85.206886,162.75359 c -3.41291,1.25695 -6.229034,1.79397 -12.939132,5.09277 -4.157952,2.04413 -10.554608,18.31021 -12.203705,22.48714 -2.617573,6.62991 -0.513092,10.17337 3.668953,15.07907 5.530426,6.48739 4.69059,5.3247 9.210869,9.69597 l 3.394866,-4.95301 c 0,0 -8.360603,-8.38833 -9.382927,-14.79664 0,0 3.894341,-9.75843 10.179101,-16.32091" id="path1984" />
            <path class="st3" d="m 93.826477,162.39787 c -0.07419,-3.21269 -0.109123,-2.50174 -0.183311,-5.71443 l -8.43628,1.03058 c 0,2.87605 0,2.16353 0,5.03957 0,0 0.23433,2.14857 4.683709,2.14857 4.449378,0 3.935882,-2.50429 3.935882,-2.50429 z" id="path1986" />
            <path class="st3" d="m 85.843002,284.78644 c 3.297585,1.78506 6.806824,3.82626 10.104409,5.61133 1.352691,0.73223 2.911384,1.8385 2.718902,3.36456 -0.130684,1.03616 -1.109711,1.8071 -2.133911,2.01135 -1.024208,0.20423 -2.08139,-0.0426 -3.082359,-0.34048 -3.990753,-1.18787 -7.684822,-3.19471 -11.271393,-5.30982 -0.940674,-0.55475 -1.900581,-1.13931 -2.5578,-2.01147 -0.657219,-0.87219 -0.948876,-2.10926 -0.430275,-3.07031" id="path1988" />
            <path class="st3" d="m 101.69764,284.50711 c 3.29758,1.78503 6.03193,3.52008 9.32951,5.30512 1.35269,0.73223 2.9114,1.8385 2.71891,3.36459 -0.13069,1.03616 -1.10971,1.8071 -2.13392,2.01132 -1.0242,0.20425 -2.08138,-0.0425 -3.08235,-0.34048 -3.99076,-1.18787 -7.68483,-3.19471 -11.27139,-5.30979 -0.940682,-0.55475 -1.900582,-1.13934 -2.5578,-2.0115 -0.657219,-0.87216 -0.948884,-2.10923 -0.430275,-3.07032" id="path1990" />
            <g id="g2008">
               <g id="g1998">
                  <path class="st11" d="m 103.80309,285.93271 c -0.96186,0.2232 -1.83373,0.8136 -2.39809,1.62384" id="path1992" />
                  <path class="st11" d="m 105.66435,286.88937 c -0.37726,-0.008 -0.72469,0.19669 -1.02879,0.42014 -0.43331,0.31836 -0.82753,0.68988 -1.171,1.10361" id="path1994" />
                  <path class="st11" d="m 107.3054,287.85529 c -0.70534,0.3695 -1.32428,0.90274 -1.79406,1.54568" id="path1996" />
               </g>
               <g id="g2006">
                  <path class="st3" d="m 103.80309,285.93271 c -0.96186,0.2232 -1.83373,0.8136 -2.39809,1.62384" id="path2000" />
                  <path class="st3" d="m 105.66435,286.88937 c -0.37726,-0.008 -0.72469,0.19669 -1.02879,0.42014 -0.43331,0.31836 -0.82753,0.68988 -1.171,1.10361" id="path2002" />
                  <path class="st3" d="m 107.3054,287.85529 c -0.70534,0.3695 -1.32428,0.90274 -1.79406,1.54568" id="path2004" />
               </g>
            </g>
            <g id="g2026">
               <g id="g2016">
                  <path class="st11" d="m 89.382339,286.89398 c -0.96186,0.22324 -1.833732,0.8136 -2.398086,1.62384" id="path2010" />
                  <path class="st11" d="m 91.243607,287.85065 c -0.377274,-0.008 -0.724701,0.19671 -1.028794,0.42013 -0.433319,0.31836 -0.827537,0.68991 -1.171005,1.10361" id="path2012" />
                  <path class="st11" d="m 92.884659,288.81656 c -0.705353,0.36951 -1.32428,0.90277 -1.794068,1.54568" id="path2014" />
               </g>
               <g id="g2024">
                  <path class="st3" d="m 89.382339,286.89398 c -0.96186,0.22324 -1.833732,0.8136 -2.398086,1.62384" id="path2018" />
                  <path class="st3" d="m 91.243607,287.85065 c -0.377274,-0.008 -0.724701,0.19671 -1.028794,0.42013 -0.433319,0.31836 -0.827537,0.68991 -1.171005,1.10361" id="path2020" />
                  <path class="st3" d="m 92.884659,288.81656 c -0.705353,0.36951 -1.32428,0.90277 -1.794068,1.54568" id="path2022" />
               </g>
            </g>
            <path class="st3" d="m 89.535454,227.44933 c 0.08893,9.27682 0.689392,19.73742 0.674392,29.61766 -0.01542,10.15869 -0.649238,19.712 -0.772811,27.33706 -1.862229,0.51212 -7.270638,0.67581 -11.448761,0.20835 0,0 0.529014,-25.66968 0.437744,-28.16803 -0.347878,-9.52225 -2.203614,-20.56 -2.525528,-28.58077" id="path2028" />
            <path class="st3" d="m 92.41919,227.56511 c 1.407287,12.49428 -0.07039,45.34703 0.09841,56.53889 1.862229,0.51212 8.82012,0.58994 11.94927,0.20838 0,0 1.19748,-43.82053 0.96321,-57.6832" id="path2030" />
            <path class="st10" d="m 97.506371,132.7429 c -0.585495,-1.04669 -1.851342,-1.51498 -3.003869,-1.84671 -1.484665,-0.42735 -3.029571,-0.60516 -4.570594,-0.71507 -1.69056,-0.12057 -3.411988,-0.1589 -5.056641,0.25052 -1.644646,0.40944 -3.222816,1.31506 -4.13697,2.74225 -0.651795,1.01758 -0.928582,2.22707 -1.121682,3.41998 -0.2779,1.71678 -0.551307,4.61695 -0.551307,4.61695 -0.197022,2.68634 -0.06076,5.39695 0.40467,8.05 0.260437,1.48454 0.630616,2.96965 1.348755,4.29477 1.481537,2.73373 4.483818,4.57593 7.592095,4.65849 3.108276,0.0826 6.204132,-1.59764 7.828704,-4.24887 0.688095,-1.12294 1.118508,-2.38393 1.470238,-3.65308 1.161293,-4.19029 1.516678,-8.60237 1.041039,-12.92451 0,0 -0.114037,-2.62392 -1.244438,-4.64472 z" id="path2032" />
            <circle class="st12" cx="84.663643" cy="142.09128" r="0.57097918" id="circle2034" />
            <circle class="st12" cx="93.54554" cy="142.09128" r="0.57097918" id="circle2036" />
            <path class="st3" d="m 90.895523,146.55617 c 0.345925,0.89073 0.694512,1.87951 0.366234,2.77691 -0.07755,0.21198 -0.196182,0.41591 -0.376953,0.55108 -0.233116,0.17428 -0.53785,0.21388 -0.828087,0.23582 -0.696999,0.0527 -1.399147,0.0369 -2.093086,-0.047" id="path2038" />
            <path class="st3" d="m 105.36321,179.92735 c 0.80564,4.07913 4.25391,19.87711 4.40721,20.83597 0,0 -0.16219,18.50722 -0.4772,20.7101 0,0 4.91419,1.07324 7.05628,0 0,0 1.58482,-18.96819 1.33393,-23.12007 -0.19295,-3.19309 -1.09177,-12.75653 -2.13873,-17.71211 -1.45541,-6.88895 -1.94472,-8.20017 -3.95709,-10.61419 -4.67171,-5.60414 -11.21831,-4.40074 -17.761133,-7.62918" id="path2040" />
            <path class="st3" d="m 84.237869,152.30974 c 0.305573,0.51977 0.733399,0.96716 1.239022,1.29564 0.446228,0.28988 1.058906,0.47732 1.490356,0.16588" id="path2042" />
            <path class="st12" d="m 87.673805,142.74258 c 1.13675,0.59012 2.408554,0.43587 3.37497,0.002" id="path2044" />
            <path class="st12" d="m 81.490166,142.49086 c -0.04549,-0.02 -0.667687,-2.04387 -1.912087,-2.58743" id="path2046" />
            <path class="st12" d="m 95.389313,142.49086 c 0,0 1.337196,-2.91609 3.566261,-3.13101" id="path2048" />
            <path class="st10" d="m 101.2833,135.94029 c -0.67941,8.19162 -2.222646,9.83184 -2.329397,9.55039 -0.54351,-1.41706 0.135895,-4.50347 -0.203781,-5.98841 -0.339729,-1.45585 -2.075912,-3.47572 -3.580284,-3.62127 0.08732,-0.0194 -0.315788,0.0102 -0.296356,0.02 -1.747017,0.43676 -3.519097,0.34021 -5.062332,-0.60128 -0.582322,0.43677 -1.116181,0.96086 -1.737298,1.35883 -1.543235,0.98994 -5.272865,0.62114 -5.253494,0.62114 l -0.06528,-2e-5 c -1.89962,-0.24554 -3.377563,2.18378 -3.717239,3.64936 -0.339737,1.47528 0.553177,5.55169 0.0097,6.96868 -0.10675,0.2815 -3.989028,-2.17407 -3.659011,-10.51124 0.07761,-1.88291 0.698784,-3.81433 1.950859,-5.23139 0.999656,-1.11618 2.523453,-3.08641 3.891937,-3.72702 0.0097,0 0.0097,-0.01 0.01942,-0.01 1.368538,-1.01915 2.814682,-1.94115 4.445229,-2.3682 1.844048,-0.495 3.814339,-0.33002 5.658447,0.16498 1.844048,0.495 3.344788,1.09009 4.934204,2.14246 1.358757,0.89966 1.665657,1.43895 2.665314,2.56479 1.261732,1.41705 2.484662,3.14464 2.329392,5.01788 z" id="path2050" />
            <path class="st10" d="m 73.357872,214.64328 c 0,0 3.904717,2.43031 5.134087,0.70561 1.229377,-1.72468 -2.390114,-4.85126 -2.390114,-4.85126 z" id="path2052" />
            <g id="g2110">
               <circle class="st13" cx="80.855461" cy="148.35329" r="0.5" id="circle2054" />
               <circle class="st13" cx="81.77478" cy="149.96654" r="0.5" id="circle2056" />
               <circle class="st13" cx="84.575859" cy="150.81064" r="0.5" id="circle2058" />
               <circle class="st13" cx="86.682869" cy="151.57979" r="0.5" id="circle2060" />
               <circle class="st13" cx="81.490166" cy="152.06583" r="0.5" id="circle2062" />
               <circle class="st13" cx="83.556015" cy="149.24164" r="0.5" id="circle2064" />
               <circle class="st13" cx="82.694092" cy="151.57979" r="0.5" id="circle2066" />
               <circle class="st13" cx="83.364243" cy="153.3559" r="0.5" id="circle2068" />
               <circle class="st13" cx="83.954071" cy="155.39337" r="0.5" id="circle2070" />
               <circle class="st13" cx="86.165947" cy="155.75908" r="0.5" id="circle2072" />
               <circle class="st13" cx="88.622192" cy="151.71701" r="0.5" id="circle2074" />
               <circle class="st13" cx="88.301125" cy="153.29408" r="0.5" id="circle2076" />
               <circle class="st13" cx="91.102211" cy="154.13817" r="0.5" id="circle2078" />
               <circle class="st13" cx="88.01651" cy="155.39337" r="0.5" id="circle2080" />
               <circle class="st13" cx="90.082359" cy="152.56917" r="0.5" id="circle2082" />
               <circle class="st13" cx="94.380455" cy="151.17882" r="0.5" id="circle2084" />
               <circle class="st13" cx="89.220444" cy="154.90733" r="0.5" id="circle2086" />
               <circle class="st13" cx="91.976509" cy="153.44188" r="0.5" id="circle2088" />
               <circle class="st13" cx="91.771881" cy="151.9985" r="0.5" id="circle2090" />
               <circle class="st13" cx="94.292305" cy="154.01056" r="0.5" id="circle2092" />
               <circle class="st13" cx="87.723801" cy="156.68344" r="0.5" id="circle2094" />
               <circle class="st13" cx="95.897064" cy="151.17882" r="0.5" id="circle2096" />
               <circle class="st13" cx="96.55201" cy="148.91107" r="0.5" id="circle2098" />
               <circle class="st13" cx="93.757744" cy="152.71698" r="0.5" id="circle2100" />
               <circle class="st13" cx="95.210037" cy="152.56917" r="0.5" id="circle2102" />
               <circle class="st13" cx="92.895821" cy="155.05513" r="0.5" id="circle2104" />
               <circle class="st13" cx="89.890594" cy="156.68344" r="0.5" id="circle2106" />
               <circle class="st13" cx="91.393234" cy="156.19072" r="0.5" id="circle2108" />
            </g>
            <path class="st14" d="m 85.242706,140.52934 c -0.768387,-0.023 -1.558479,0.0569 -2.248855,0.39505 -0.690369,0.33812 -1.268906,0.96846 -1.395562,1.72669 -0.08066,0.48283 0.02481,0.98481 0.236847,1.42602 0.452072,0.94071 1.408738,1.61969 2.445923,1.736 1.037178,0.1163 2.120468,-0.33396 2.769654,-1.15116 0.623695,-0.78512 0.837036,-1.93576 0.371749,-2.82396 -0.665939,-1.27125 -2.179756,-1.30864 -2.179756,-1.30864 z" id="path2112" />
            <path class="st14" d="m 93.709511,140.47543 c -1.449112,0.0868 -2.575073,0.96382 -2.660736,2.26921 -0.08566,1.30539 0.917717,2.55648 2.183258,2.88781 0.924385,0.24202 1.970695,0.025 2.683143,-0.61174 0.712441,-0.63678 1.017991,-1.68139 0.770195,-2.60424 -0.643066,-2.39497 -2.97586,-1.94104 -2.97586,-1.94104 z" id="path2114" />
         </g>
      </g>
      <line class="st15" x1="13.176387" y1="244.69551" x2="32.601254" y2="244.69551" id="line2120" />
      <line class="st15" x1="45.074001" y1="244.69551" x2="56.998867" y2="244.69551" id="line2122" />
      <line class="st15" x1="108.08708" y1="244.69551" x2="127.01196" y2="244.69551" id="line2124" />
      <g id="g2128" transform="translate(-6.6301474,-44.239542)">
         <path class="st2" d="m 83.974426,297.64847 c -1.1651,-0.44043 -2.217956,-0.89087 -3.237243,-1.3667 0.855468,-0.20435 2.646667,-0.78296 1.932251,-1.94068 -0.778504,-1.26147 -1.914246,1.03101 -2.255921,1.79175 -0.03509,-0.0168 -0.06952,-0.0347 -0.104553,-0.0515 -0.01398,-0.86426 -0.156616,-3.34888 -1.357727,-2.51074 -0.836121,0.58325 -0.249512,1.42773 0.393127,2.03711 -1.483703,-0.74927 -2.959289,-1.57837 -4.66101,-2.55176 -0.618897,-0.41016 -1.190369,-0.78882 -1.648377,-1.09155 -0.08771,-0.10425 -0.174377,-0.20948 -0.248535,-0.32471 -0.37085,-0.57666 -0.521362,-1.2561 -0.625244,-1.9397 -0.17572,-2.72583 -0.545899,-8.39477 -1.028687,-15.3977 -9.76e-4,-0.0276 -0.0013,-0.0554 -0.0023,-0.083 -0.07629,-2.05493 -0.218811,-4.10645 -0.361328,-6.15772 -0.161438,-2.32348 -0.322876,-4.64697 -0.484314,-6.97046 -0.230774,-3.32104 -0.46814,-6.64427 -0.838684,-9.95164 -0.139649,-1.7998 -0.280823,-3.58813 -0.422791,-5.34473 0,0 -0.03723,-0.0554 0.431214,-0.0742 l 3.848999,0.0637 c 0.0082,-0.10254 0.0092,-0.21094 0.0166,-0.31446 0.04193,-0.0203 0.09088,-0.0264 0.127625,-0.0569 0.252319,-0.20874 0.262817,-0.58496 0.251282,-0.91236 -0.08453,-2.39087 -0.240906,-4.7788 -0.458069,-7.16137 -0.17981,-2.35108 -0.474488,-4.75074 -0.856873,-7.15259 -0.605224,-4.10108 -1.398498,-8.17456 -2.394714,-12.19849 -1.947022,-7.8645 -4.649353,-15.65771 -5.113831,-23.71997 -0.02509,-0.72632 -0.02399,-1.4143 0.01379,-2.0376 0,0 0.840698,-0.16137 1.40332,-1.06347 1.322632,8.13135 7.590454,22.12988 9.748352,25.12939 1.062439,2.3667 2.694581,5.74243 4.547242,5.40674 1.889221,-0.34228 -0.375183,-5.85425 -0.573975,-7.03979 0,0 -0.0065,-0.0229 -0.01685,-0.0588 0.02112,-0.53809 -0.185424,-1.07007 -0.379699,-1.58081 -0.179383,-0.47168 -0.329529,-0.9524 -0.476258,-1.43457 -0.131958,-0.46753 -0.275329,-0.97754 -0.426574,-1.51685 -0.358765,-1.3811 -0.676026,-2.77588 -1.088684,-4.1416 -0.114808,-0.38013 -0.245606,-0.75513 -0.373231,-1.1311 -1.059875,-3.87452 -2.121826,-7.89185 -2.565917,-9.9939 -1.422608,-6.73389 -2.199708,-18.48462 -4.788453,-22.59229 -0.443405,-0.70361 -0.387725,-0.74586 0.130707,-0.15338 1.220963,1.39539 1.003296,-6.1188 -0.755836,-6.97691 -0.135193,-0.18628 -0.830635,-4.42116 -0.813973,-4.41872 -0.780823,-0.95532 -0.930481,-1.14093 -0.697693,-2.50006 0.226624,-1.323 -0.930412,-0.34527 -0.872116,-1.68609 0.116287,-2.67449 -0.52327,-1.2791 -0.870727,-3.19989 0,0 0.233459,-0.36206 0.289001,-2.15284 0.09369,-0.76074 0.182068,-1.52221 0.266663,-2.2832 0.06171,-0.55517 0.05347,-1.11475 -0.0089,-1.66943 0.0647,-1.27149 0.05621,-2.60498 -0.196839,-4.09986 -0.297607,-1.75781 -0.914673,-3.19067 -1.601318,-4.32837 -0.593201,-1.34594 -1.411926,-2.49487 -2.652954,-3.82666 0.291565,-0.4812 0.437622,-0.95361 0.385986,-1.40625 -0.450195,-3.94799 -8.654907,-7.22266 -16.293396,-3.11035 -11.115234,5.98389 -6.402588,14.5271 -7.382446,19.8252 -0.730286,3.94848 -5.671875,4.41479 -6.843565,8.46484 -0.987366,3.41284 0.405637,4.55054 0.808286,9.12207 0.437317,4.96533 -7.62103,3.57959 -6.109861,13.65723 0.178162,1.18848 0.31604,2.49438 0.31604,2.49438 -0.413757,0.70874 -0.793762,1.38697 -1.136963,2.02417 -0.632568,0.88233 -1.130615,1.86084 -1.420166,2.90723 l -0.166504,0.37402 c 0.01087,-0.005 0.02234,-0.006 0.03326,-0.0102 -1.27124,3.45898 -0.144287,6.29297 1.709168,8.98706 1.925232,2.79858 9.192503,8.97876 14.557798,13.09937 0.715454,0.51953 1.52826,0.76049 2.09076,0.87304 -0.206177,0.76563 -0.408142,1.56177 -0.605347,2.38648 -0.04907,0.17236 -0.09815,0.34472 -0.147217,0.51709 l 0.01117,0.0583 c -2.880921,12.34814 -4.750611,30.00317 -4.750611,30.00317 0,0 5.257996,0.1936 3.890076,0.31128 l 0.165466,0.24683 c -0.0057,0.26367 -0.01056,0.52319 -0.01581,0.78442 -0.211731,0.82593 -0.319824,1.71484 -0.04114,2.427 -0.01507,1.16943 -0.02289,2.30713 -0.02038,3.39868 0.0056,2.44385 1.595459,40.33422 1.595459,40.33422 l -1.097779,3.31469 c 0,0 0.05139,0.13282 0.153992,0.33301 l -0.316467,-0.01 c 0,0 -2.662415,4.77978 -0.713379,6.02807 0.03607,0.0232 0.07886,0.0452 0.119324,0.0676 0.103393,0.10083 0.214355,0.19385 0.340454,0.26636 0.204773,0.11792 0.427063,0.19531 0.656738,0.25146 1.089905,0.26636 2.211182,0.37036 3.330383,0.44898 0.872193,0.0615 1.835999,0.15185 2.661377,-0.21143 0.487122,-0.21436 0.888794,-0.5708 1.26062,-0.95728 0.739685,-0.51586 1.095398,-1.2666 0.746582,-2.31713 -0.598449,-1.80274 -1.062256,-3.35352 -1.062256,-3.35352 l -0.123657,-0.004 c 0.0473,-0.0698 0.07635,-0.11645 0.07635,-0.11645 -0.03626,-0.16333 -0.07282,-0.34009 -0.109131,-0.52026 -0.03992,-0.4419 -0.116882,-0.88892 -0.180847,-1.31543 -0.331787,-2.21241 -0.143738,-4.46558 0.03699,-6.69556 1.066407,-13.16089 1.840455,-26.34522 2.344788,-39.53978 0.05133,-0.92236 0.102783,-1.84766 0.153687,-2.76221 h -0.04059 c 1.22e-4,-0.004 3.66e-4,-0.008 4.88e-4,-0.012 -1.084899,-0.11255 7.315308,0.012 7.315308,0.012 0.0073,0.0457 0.01495,0.0886 0.02222,0.13428 l -0.116394,0.064 c 0.119812,0.1875 0.186279,0.39722 0.229065,0.61622 0.006,0.0374 0.01233,0.0737 0.01837,0.11084 0.08752,0.55664 0.04614,1.16455 0.273621,1.65209 0.208862,1.22925 0.420837,2.43555 0.638428,3.58521 2.879638,15.21727 7.879455,35.24242 8.239318,39.15379 0,0 -0.09228,0.62549 -0.08356,1.39063 l -0.07092,-0.008 -0.407714,2.36719 c -0.231385,1.11963 0.06891,2.15893 0.820068,2.91723 0.75116,0.75855 1.757691,1.19873 2.74176,1.61255 0.858826,0.36109 2.096314,0.76489 3.502686,1.14307 0.0387,0.0596 0.08447,0.11523 0.138061,0.15478 0.35199,0.2605 0.797608,0.35157 1.22815,0.4314 2.640808,0.49072 5.312256,0.81641 7.99353,0.97485 0.556885,0.033 1.121887,0.0579 1.666931,-0.0608 0.410157,-0.0893 0.798096,-0.25781 1.182984,-0.42529 0.31903,-0.13892 0.677734,-0.32397 0.751587,-0.66382 0.01593,-0.0732 0.0088,-0.1477 -0.0012,-0.22143 0.822205,-1.21094 -1.693848,-2.34766 -3.090088,-2.87549 z M 38.162659,193.48784 c 0.181213,0.0627 0.362976,0.10693 0.544616,0.15234 0.0091,0.0227 0.0221,0.0693 0.0221,0.0693 l 1.344631,0.0579 c 0,0 0.832249,0.3884 1.300999,0.2673 0.418518,1.53711 0.782776,4.70655 0.782776,4.70655 l 0.02948,-0.33106 c 0.05322,0.0132 1.19104,6.75 1.286255,9.76953 -0.04694,-0.0117 -0.08844,-0.0215 -0.126038,-0.03 -0.67157,-0.65088 -1.321838,-1.32299 -1.97168,-1.9956 -1.252685,-1.38599 -3.005981,-3.344 -4.770324,-5.37427 -1.561951,-1.91455 -3.061035,-3.88061 -4.451538,-5.92309 -0.312071,-0.45826 -0.625792,-0.9336 -0.747252,-1.47486 -0.115906,-0.51587 -0.04248,-1.04101 0.143494,-1.53735 0.235412,-0.32056 0.496458,-0.67334 0.805784,-1.08325 l -0.100281,-0.1272 c 0.01868,-0.0234 0.03583,-0.0483 0.05481,-0.0713 -0.103272,-0.0774 3.756164,2.19897 5.852173,2.92505 z" id="path2126" />
      </g>
      <g id="g2190" transform="translate(-18.395498,50.882396)">
         <path class="st2" d="m 642.22559,106.66506 h -5.96875 V 95.957054 h 5.96875 v 1.105957 h -4.72461 v 3.449709 h 4.43945 v 1.09863 h -4.43945 v 3.94043 h 4.72461 z" id="path2130" />
         <path class="st2" d="m 645.55762,98.637718 v 5.207522 c 0,0.65429 0.14843,1.14258 0.44726,1.46484 0.29688,0.32227 0.76367,0.4834 1.39844,0.4834 0.83984,0 1.4541,-0.22949 1.8418,-0.68848 0.38867,-0.45898 0.58203,-1.20849 0.58203,-2.24853 v -4.218752 h 1.2168 v 8.027342 h -1.00391 l -0.17578,-1.07666 h -0.0664 c -0.24805,0.39551 -0.59375,0.69824 -1.03613,0.9082 -0.44141,0.20997 -0.94629,0.31495 -1.5127,0.31495 -0.97656,0 -1.70703,-0.23194 -2.19336,-0.6958 -0.48535,-0.46387 -0.72851,-1.20606 -0.72851,-2.22657 v -5.251462 h 1.23047 z" id="path2132" />
         <path class="st2" d="m 657.28418,98.491234 c 0.35644,0 0.67578,0.0293 0.95898,0.08789 l -0.16796,1.12793 c -0.33204,-0.07324 -0.625,-0.109863 -0.87891,-0.109863 -0.64942,0 -1.20508,0.263672 -1.66602,0.791019 -0.46191,0.52734 -0.69238,1.18408 -0.69238,1.97021 v 4.30664 h -1.21582 v -8.027342 h 1.00391 l 0.13867,1.486812 h 0.0586 c 0.29785,-0.522457 0.65625,-0.925289 1.07617,-1.208492 0.41993,-0.283203 0.88184,-0.424804 1.38477,-0.424804 z" id="path2134" />
         <path class="st2" d="m 666.67383,102.64407 c 0,1.30859 -0.3291,2.33056 -0.98926,3.06494 -0.6582,0.73535 -1.56934,1.10254 -2.73145,1.10254 -0.71777,0 -1.35449,-0.16846 -1.91113,-0.50537 -0.55664,-0.33692 -0.9873,-0.82032 -1.28906,-1.4502 -0.30371,-0.62988 -0.45508,-1.36719 -0.45508,-2.21191 0,-1.3086 0.32715,-2.32764 0.98242,-3.05811 0.65332,-0.729492 1.56153,-1.094726 2.72461,-1.094726 1.12207,0 2.01465,0.373535 2.67676,1.120605 0.66113,0.747071 0.99219,1.757811 0.99219,3.032231 z m -6.11621,0 c 0,1.02539 0.20508,1.80664 0.61523,2.34375 0.41016,0.53711 1.01367,0.80566 1.80957,0.80566 0.7959,0 1.40039,-0.26709 1.8125,-0.80225 0.41309,-0.53418 0.61914,-1.31689 0.61914,-2.34716 0,-1.02051 -0.20605,-1.79541 -0.61914,-2.32569 -0.41211,-0.529295 -1.02148,-0.794431 -1.82715,-0.794431 -0.79589,0 -1.39648,0.26123 -1.80175,0.783691 -0.40528,0.52246 -0.6084,1.30127 -0.6084,2.33643 z" id="path2136" />
         <path class="st2" d="m 672.54102,106.81155 c -0.52247,0 -1,-0.0967 -1.43165,-0.28907 -0.43261,-0.19287 -0.79492,-0.48974 -1.08789,-0.89013 h -0.0879 c 0.0586,0.46875 0.0879,0.91308 0.0879,1.333 v 3.30323 h -1.21582 V 98.637718 h 0.98829 l 0.16894,1.098633 h 0.0586 c 0.3125,-0.439453 0.67579,-0.756836 1.09082,-0.952148 0.41504,-0.195313 0.89161,-0.292969 1.42872,-0.292969 1.06445,0 1.88574,0.363769 2.46484,1.091308 0.57812,0.727538 0.86816,1.748048 0.86816,3.061528 0,1.31836 -0.29492,2.34277 -0.88281,3.07275 -0.58887,0.72998 -1.40527,1.09473 -2.45019,1.09473 z m -0.17579,-7.287601 c -0.82031,0 -1.41308,0.227051 -1.78027,0.681151 -0.36523,0.4541 -0.55371,1.17676 -0.56348,2.16797 v 0.271 c 0,1.12793 0.1875,1.93505 0.56348,2.42041 0.37598,0.48632 0.97949,0.729 1.80957,0.729 0.69336,0 1.23633,-0.28076 1.62988,-0.84229 0.39258,-0.56152 0.58985,-1.33544 0.58985,-2.32177 0,-1.00098 -0.19727,-1.76905 -0.58985,-2.30323 -0.39355,-0.535152 -0.94629,-0.802241 -1.65918,-0.802241 z" id="path2138" />
         <path class="st2" d="m 682.93359,106.66506 -0.24121,-1.14258 h -0.0586 c -0.40137,0.50293 -0.79981,0.84375 -1.19824,1.02149 -0.39746,0.17822 -0.89453,0.26758 -1.49024,0.26758 -0.7959,0 -1.41992,-0.20508 -1.87109,-0.61524 -0.45215,-0.41015 -0.67774,-0.99365 -0.67774,-1.75049 0,-1.62109 1.2959,-2.4707 3.88965,-2.54882 l 1.36133,-0.044 v -0.498 c 0,-0.62988 -0.13476,-1.09521 -0.40625,-1.395016 -0.27051,-0.300781 -0.7041,-0.450684 -1.2998,-0.450684 -0.66895,0 -1.42579,0.205078 -2.27051,0.61523 l -0.37305,-0.930171 c 0.39453,-0.214844 0.82813,-0.383301 1.29981,-0.505371 0.4707,-0.122071 0.94336,-0.183106 1.41699,-0.183106 0.95703,0 1.66601,0.212403 2.12793,0.637207 0.46094,0.424805 0.69238,1.105961 0.69238,2.043461 v 5.47851 h -0.90137 z m -2.74707,-0.85693 c 0.75684,0 1.35157,-0.20752 1.78418,-0.62256 0.43164,-0.41504 0.64746,-0.99609 0.64746,-1.74316 v -0.7251 l -1.21484,0.0513 c -0.9668,0.0342 -1.66406,0.18457 -2.0918,0.45019 -0.42675,0.2666 -0.64062,0.68018 -0.64062,1.2417 0,0.43946 0.13281,0.77393 0.39941,1.00342 0.26563,0.22949 0.6377,0.34424 1.11621,0.34424 z" id="path2140" />
         <path class="st2" d="m 692.89355,106.66506 -1.47168,-4.70947 c -0.0928,-0.28809 -0.2666,-0.94238 -0.5205,-1.962891 h -0.0586 c -0.19531,0.854491 -0.36523,1.513671 -0.51172,1.977541 l -1.5166,4.69482 h -1.40625 l -2.19043,-8.027342 h 1.27539 c 0.51661,2.016602 0.91114,3.552242 1.18262,4.606932 0.27051,1.05469 0.42578,1.76514 0.46484,2.13135 h 0.0586 c 0.0537,-0.27832 0.14062,-0.63818 0.25976,-1.08008 0.12012,-0.44189 0.22364,-0.79248 0.31153,-1.05127 l 1.47265,-4.606932 h 1.31836 l 1.43555,4.606932 c 0.27246,0.83985 0.45801,1.54541 0.55664,2.1167 h 0.0586 c 0.0186,-0.17578 0.0713,-0.44678 0.15723,-0.81299 0.085,-0.36621 0.59375,-2.33642 1.52637,-5.910642 h 1.25976 l -2.21875,8.027342 h -1.44336 z" id="path2142" />
         <path class="st2" d="m 701.39746,106.81155 c -1.18555,0 -2.12207,-0.36133 -2.80859,-1.08399 -0.68555,-0.72265 -1.0293,-1.72607 -1.0293,-3.01025 0,-1.29395 0.31934,-2.32178 0.95605,-3.083498 0.6377,-0.761719 1.49317,-1.142578 2.56739,-1.142578 1.00586,0 1.80176,0.331054 2.38769,0.992187 0.58594,0.662109 0.87891,1.534669 0.87891,2.618649 v 0.76905 h -5.53027 c 0.0244,0.94238 0.26269,1.65771 0.71484,2.14599 0.45117,0.48828 1.08789,0.73242 1.9082,0.73242 0.86328,0 1.71778,-0.18066 2.5625,-0.54199 v 1.08399 c -0.42968,0.18554 -0.83593,0.31884 -1.21875,0.39892 -0.38379,0.0811 -0.8457,0.1211 -1.38867,0.1211 z m -0.3291,-7.30225 c -0.64453,0 -1.1582,0.209961 -1.54199,0.62988 -0.38282,0.41992 -0.60938,1.00098 -0.67774,1.74317 h 4.19727 c 0,-0.7666 -0.1709,-1.35352 -0.5127,-1.76123 -0.34179,-0.407718 -0.83008,-0.61182 -1.46484,-0.61182 z" id="path2144" />
         <path class="st2" d="m 706.32031,96.462425 c 0,-0.27832 0.0684,-0.481933 0.20508,-0.611816 0.13672,-0.128906 0.30762,-0.193848 0.5127,-0.193848 0.19531,0 0.36328,0.06592 0.50586,0.197754 0.14062,0.131836 0.21191,0.334473 0.21191,0.60791 0,0.273438 -0.0713,0.477539 -0.21191,0.611817 -0.14258,0.134277 -0.31055,0.201171 -0.50586,0.201171 -0.20508,0 -0.37598,-0.06689 -0.5127,-0.201171 -0.13672,-0.134278 -0.20508,-0.338379 -0.20508,-0.611817 z m 1.31836,10.202635 h -1.21582 v -8.027342 h 1.21582 z" id="path2146" />
         <path class="st2" d="m 712.80957,105.80813 c 0.21484,0 0.42188,-0.0156 0.62207,-0.0474 0.2002,-0.0317 0.35938,-0.0649 0.47656,-0.0991 v 0.93018 c -0.13183,0.0635 -0.32617,0.11572 -0.58203,0.15723 -0.25683,0.0415 -0.4873,0.0625 -0.69238,0.0625 -1.55274,0 -2.3291,-0.81787 -2.3291,-2.45362 v -4.775387 h -1.15039 v -0.585938 l 1.15039,-0.505371 0.51269,-1.713867 h 0.70313 v 1.860351 h 2.3291 v 0.944825 h -2.3291 v 4.724117 c 0,0.4834 0.11426,0.8545 0.34472,1.11328 0.22852,0.25879 0.54395,0.38819 0.94434,0.38819 z" id="path2148" />
         <path class="st2" d="m 718.90332,106.81155 c -1.18555,0 -2.12207,-0.36133 -2.80859,-1.08399 -0.68555,-0.72265 -1.0293,-1.72607 -1.0293,-3.01025 0,-1.29395 0.31934,-2.32178 0.95605,-3.083498 0.6377,-0.761719 1.49317,-1.142578 2.56739,-1.142578 1.00586,0 1.80175,0.331054 2.38769,0.992187 0.58594,0.662109 0.87891,1.534669 0.87891,2.618649 v 0.76905 h -5.53027 c 0.0244,0.94238 0.26269,1.65771 0.71484,2.14599 0.45117,0.48828 1.08789,0.73242 1.9082,0.73242 0.86328,0 1.71778,-0.18066 2.5625,-0.54199 v 1.08399 c -0.42969,0.18554 -0.83594,0.31884 -1.21875,0.39892 -0.38379,0.0811 -0.8457,0.1211 -1.38867,0.1211 z m -0.3291,-7.30225 c -0.64453,0 -1.1582,0.209961 -1.54199,0.62988 -0.38282,0.41992 -0.60938,1.00098 -0.67774,1.74317 h 4.19727 c 0,-0.7666 -0.1709,-1.35352 -0.5127,-1.76123 -0.34179,-0.407718 -0.83008,-0.61182 -1.46484,-0.61182 z" id="path2150" />
         <path class="st2" d="m 637.50098,124.66506 h -1.24414 v -10.70801 h 5.96875 v 1.10596 h -4.72461 v 3.91846 h 4.43945 v 1.10596 h -4.43945 z" id="path2152" />
         <path class="st2" d="m 647.20605,124.81155 c -1.18554,0 -2.12207,-0.36133 -2.80859,-1.08399 -0.68555,-0.72265 -1.0293,-1.72607 -1.0293,-3.01025 0,-1.29395 0.31934,-2.32178 0.95606,-3.0835 0.63769,-0.76172 1.49316,-1.14258 2.56738,-1.14258 1.00586,0 1.80176,0.33106 2.3877,0.99219 0.58593,0.66211 0.8789,1.53467 0.8789,2.61865 v 0.76905 h -5.53027 c 0.0244,0.94238 0.26269,1.65771 0.71484,2.14599 0.45118,0.48828 1.08789,0.73242 1.90821,0.73242 0.86328,0 1.71777,-0.18066 2.5625,-0.54199 v 1.08399 c -0.42969,0.18554 -0.83594,0.31884 -1.21875,0.39892 -0.38379,0.0811 -0.84571,0.1211 -1.38868,0.1211 z m -0.3291,-7.30225 c -0.64453,0 -1.1582,0.20996 -1.54199,0.62988 -0.38281,0.41992 -0.60937,1.00098 -0.67773,1.74317 h 4.19726 c 0,-0.7666 -0.1709,-1.35352 -0.51269,-1.76123 -0.3418,-0.40772 -0.83008,-0.61182 -1.46485,-0.61182 z" id="path2154" />
         <path class="st2" d="m 657.40918,122.47512 c 0,0.74707 -0.27734,1.32324 -0.83398,1.72852 -0.55665,0.40527 -1.33887,0.60791 -2.34375,0.60791 -1.06543,0 -1.89551,-0.16846 -2.49024,-0.50537 v -1.12793 c 0.38477,0.19531 0.79883,0.34912 1.24121,0.46142 0.44141,0.11231 0.86817,0.16846 1.27832,0.16846 0.63379,0 1.12207,-0.10108 1.46485,-0.3042 0.34082,-0.20215 0.51171,-0.51123 0.51171,-0.92627 0,-0.3125 -0.13476,-0.57959 -0.40625,-0.80225 -0.2705,-0.22168 -0.7998,-0.48437 -1.58593,-0.78711 -0.7461,-0.27832 -1.27735,-0.52099 -1.59278,-0.72851 -0.31445,-0.20752 -0.54882,-0.44336 -0.70312,-0.70703 -0.15332,-0.26367 -0.23047,-0.57862 -0.23047,-0.94483 0,-0.65429 0.26563,-1.17041 0.79785,-1.54931 0.53223,-0.37793 1.2627,-0.56739 2.19043,-0.56739 0.86426,0 1.70899,0.17579 2.53418,0.52735 l -0.43164,0.98877 c -0.80664,-0.33203 -1.53613,-0.49805 -2.19043,-0.49805 -0.57617,0 -1.01074,0.0903 -1.30371,0.271 -0.29297,0.18066 -0.43945,0.42968 -0.43945,0.74707 0,0.21484 0.0547,0.39795 0.16504,0.54931 0.10937,0.15137 0.28613,0.29541 0.53027,0.43213 0.24414,0.13672 0.71289,0.33447 1.40625,0.59326 0.95312,0.34668 1.5957,0.6958 1.93066,1.04737 0.33399,0.35156 0.50098,0.79345 0.50098,1.32568 z" id="path2156" />
         <path class="st2" d="m 661.98047,123.80813 c 0.21484,0 0.42187,-0.0156 0.62207,-0.0474 0.20019,-0.0317 0.35937,-0.0649 0.47656,-0.0991 v 0.93018 c -0.13183,0.0635 -0.32617,0.11572 -0.58203,0.15723 -0.25684,0.0415 -0.4873,0.0625 -0.69238,0.0625 -1.55274,0 -2.3291,-0.81787 -2.3291,-2.45362 v -4.77539 h -1.15039 v -0.58593 l 1.15039,-0.50538 0.51269,-1.71386 h 0.70313 v 1.86035 h 2.3291 v 0.94482 h -2.3291 v 4.72412 c 0,0.4834 0.11425,0.8545 0.34472,1.11328 0.22852,0.25879 0.54395,0.38819 0.94434,0.38819 z" id="path2158" />
         <path class="st2" d="m 664.00879,121.20071 v -1.11328 h 3.5957 v 1.11328 z" id="path2160" />
         <path class="st2" d="m 674.54785,116.63772 v 5.20752 c 0,0.65429 0.14844,1.14258 0.44727,1.46484 0.29687,0.32227 0.76367,0.4834 1.39843,0.4834 0.83985,0 1.45411,-0.22949 1.8418,-0.68848 0.38867,-0.45898 0.58203,-1.20849 0.58203,-2.24853 v -4.21875 h 1.2168 v 8.02734 h -1.00391 l -0.17578,-1.07666 h -0.0664 c -0.24805,0.39551 -0.59375,0.69824 -1.03614,0.9082 -0.4414,0.20997 -0.94629,0.31495 -1.51269,0.31495 -0.97656,0 -1.70703,-0.23194 -2.19336,-0.6958 -0.48535,-0.46387 -0.72852,-1.20606 -0.72852,-2.22657 v -5.25146 z" id="path2162" />
         <path class="st2" d="m 688.10547,124.66506 v -5.19287 c 0,-0.6543 -0.14942,-1.14258 -0.44629,-1.46484 -0.29883,-0.32227 -0.76465,-0.4834 -1.39941,-0.4834 -0.83985,0 -1.45508,0.22705 -1.84571,0.68115 -0.39062,0.4541 -0.58593,1.20361 -0.58593,2.24854 v 4.21142 h -1.21583 v -8.02734 h 0.98829 l 0.19824,1.09863 h 0.0586 c 0.24903,-0.39551 0.59766,-0.70166 1.04785,-0.91894 0.44825,-0.21729 0.94922,-0.32618 1.50098,-0.32618 0.9668,0 1.69434,0.2334 2.18262,0.69922 0.48828,0.4668 0.73242,1.2124 0.73242,2.2378 v 5.23681 h -1.21582 z" id="path2164" />
         <path class="st2" d="m 697.2832,123.5884 h -0.0654 c -0.5625,0.81543 -1.40234,1.22315 -2.51953,1.22315 -1.05078,0 -1.86719,-0.35889 -2.45019,-1.07666 -0.58399,-0.71778 -0.87598,-1.73829 -0.87598,-3.06153 0,-1.32324 0.29297,-2.35107 0.87891,-3.08349 0.58593,-0.73243 1.40136,-1.09864 2.44726,-1.09864 1.08789,0 1.92285,0.39551 2.50391,1.18653 h 0.0957 l -0.0508,-0.57862 -0.0293,-0.56396 v -3.2666 h 1.21485 v 11.39648 h -0.98828 z m -2.43164,0.20508 c 0.83008,0 1.43164,-0.22559 1.80567,-0.67725 0.37304,-0.45166 0.56054,-1.18066 0.56054,-2.18652 v -0.25635 c 0,-1.13769 -0.18945,-1.94922 -0.56836,-2.43506 -0.37793,-0.48584 -0.98242,-0.729 -1.8125,-0.729 -0.71289,0 -1.25879,0.27734 -1.63671,0.83154 -0.37891,0.5542 -0.56836,1.33643 -0.56836,2.34717 0,1.02539 0.18847,1.79932 0.56445,2.32178 0.37598,0.52246 0.92773,0.78369 1.65527,0.78369 z" id="path2166" />
         <path class="st2" d="m 639.55176,142.66507 h -1.24414 v -9.60205 h -3.3916 v -1.10596 h 8.02734 v 1.10596 h -3.3916 z" id="path2168" />
         <path class="st2" d="m 649.30859,142.66507 -0.24121,-1.14258 h -0.0586 c -0.40137,0.50293 -0.79981,0.84375 -1.19824,1.02149 -0.39746,0.17822 -0.89453,0.26757 -1.49024,0.26757 -0.7959,0 -1.41992,-0.20507 -1.87109,-0.61523 -0.45215,-0.41016 -0.67774,-0.99365 -0.67774,-1.75049 0,-1.62109 1.2959,-2.4707 3.88965,-2.54883 l 1.36133,-0.0439 v -0.49805 c 0,-0.62988 -0.13476,-1.09521 -0.40625,-1.39502 -0.27051,-0.30078 -0.7041,-0.45068 -1.2998,-0.45068 -0.66895,0 -1.42579,0.20508 -2.27051,0.61523 l -0.37305,-0.93017 c 0.39453,-0.21485 0.82813,-0.3833 1.29981,-0.50537 0.4707,-0.12207 0.94336,-0.18311 1.41699,-0.18311 0.95703,0 1.66601,0.2124 2.12793,0.63721 0.46094,0.4248 0.69238,1.10595 0.69238,2.04345 v 5.47852 h -0.90137 z m -2.74707,-0.85693 c 0.75684,0 1.35157,-0.20752 1.78418,-0.62256 0.43164,-0.41504 0.64746,-0.9961 0.64746,-1.74317 v -0.72509 l -1.21484,0.0513 c -0.9668,0.0342 -1.66406,0.18457 -2.0918,0.45019 -0.42675,0.2666 -0.64062,0.68018 -0.64062,1.2417 0,0.43945 0.13281,0.77393 0.39941,1.00342 0.26563,0.22949 0.6377,0.34424 1.11621,0.34424 z" id="path2170" />
         <path class="st2" d="m 659.28418,134.63773 v 0.76904 l -1.48731,0.17578 c 0.13672,0.1709 0.25879,0.39453 0.36622,0.67041 0.10742,0.27588 0.16113,0.58691 0.16113,0.93359 0,0.78614 -0.26856,1.41358 -0.80567,1.88233 -0.5371,0.46875 -1.27441,0.70312 -2.21191,0.70312 -0.23926,0 -0.46387,-0.0195 -0.67383,-0.0586 -0.51758,0.27344 -0.77636,0.61768 -0.77636,1.03271 0,0.21973 0.0898,0.38233 0.27148,0.48731 0.17969,0.10498 0.49023,0.15723 0.92969,0.15723 h 1.4209 c 0.86914,0 1.5371,0.1831 2.00293,0.54931 0.46679,0.36621 0.69921,0.89844 0.69921,1.59668 0,0.88867 -0.35644,1.56592 -1.06836,2.03272 -0.71386,0.46582 -1.7539,0.69922 -3.12109,0.69922 -1.0498,0 -1.8584,-0.19532 -2.42773,-0.58594 -0.56836,-0.39063 -0.85352,-0.94239 -0.85352,-1.65528 0,-0.48828 0.15625,-0.91064 0.46875,-1.26709 0.3125,-0.35644 0.75195,-0.59814 1.31836,-0.72509 -0.20508,-0.0928 -0.37695,-0.23682 -0.51562,-0.43213 -0.13965,-0.19531 -0.20899,-0.42237 -0.20899,-0.68115 0,-0.29297 0.0781,-0.54932 0.23438,-0.76905 0.15625,-0.21972 0.40234,-0.43213 0.74023,-0.6372 -0.41602,-0.1709 -0.75391,-0.46143 -1.01465,-0.87159 -0.26172,-0.41015 -0.3916,-0.8789 -0.3916,-1.40625 0,-0.8789 0.26367,-1.55615 0.79102,-2.03271 0.52734,-0.47559 1.27343,-0.71387 2.24023,-0.71387 0.41992,0 0.79883,0.0488 1.13574,0.14649 h 2.77637 z m -6.40234,9.375 c 0,0.43457 0.18359,0.76416 0.5498,0.98877 0.36621,0.2246 0.89063,0.33691 1.5752,0.33691 1.01953,0 1.77539,-0.15283 2.2666,-0.45752 0.49023,-0.30566 0.73535,-0.71924 0.73535,-1.2417 0,-0.43457 -0.13379,-0.73584 -0.40234,-0.90478 -0.26856,-0.16797 -0.77442,-0.25245 -1.51563,-0.25245 h -1.45801 c -0.55176,0 -0.98144,0.13184 -1.28906,0.39551 -0.30762,0.26367 -0.46191,0.64209 -0.46191,1.13526 z m 0.66015,-6.8042 c 0,0.56152 0.15821,0.98632 0.47559,1.27441 0.31738,0.28809 0.75879,0.43213 1.32519,0.43213 1.1875,0 1.78028,-0.57617 1.78028,-1.72852 0,-1.20605 -0.60059,-1.80908 -1.80176,-1.80908 -0.57129,0 -1.01074,0.15381 -1.31836,0.46143 -0.30762,0.30762 -0.46094,0.76416 -0.46094,1.36963 z" id="path2172" />
         <path class="st2" d="m 664.32227,142.81155 c -1.18555,0 -2.12207,-0.36132 -2.8086,-1.08398 -0.68555,-0.72266 -1.0293,-1.72607 -1.0293,-3.01025 0,-1.29395 0.31934,-2.32178 0.95606,-3.0835 0.63769,-0.76172 1.49316,-1.14258 2.56738,-1.14258 1.00586,0 1.80176,0.33106 2.3877,0.99219 0.58594,0.66211 0.8789,1.53467 0.8789,2.61865 v 0.76904 h -5.53027 c 0.0244,0.94239 0.2627,1.65772 0.71484,2.146 0.45118,0.48828 1.08789,0.73242 1.90821,0.73242 0.86328,0 1.71777,-0.18066 2.5625,-0.54199 v 1.08398 c -0.42969,0.18555 -0.83594,0.31885 -1.21875,0.39893 -0.38379,0.0811 -0.84571,0.12109 -1.38867,0.12109 z m -0.32911,-7.30224 c -0.64453,0 -1.1582,0.20996 -1.54199,0.62988 -0.38281,0.41992 -0.60937,1.00098 -0.67773,1.74316 h 4.19726 c 0,-0.7666 -0.1709,-1.35351 -0.51269,-1.76123 -0.3418,-0.40771 -0.83008,-0.61181 -1.46485,-0.61181 z" id="path2174" />
         <path class="st2" d="m 674.52441,140.47513 c 0,0.74707 -0.27734,1.32324 -0.83398,1.72851 -0.55664,0.40528 -1.33887,0.60791 -2.34375,0.60791 -1.06543,0 -1.89551,-0.16845 -2.49023,-0.50537 v -1.12793 c 0.38476,0.19532 0.79882,0.34912 1.24121,0.46143 0.4414,0.1123 0.86816,0.16846 1.27832,0.16846 0.63379,0 1.12207,-0.10108 1.46484,-0.3042 0.34082,-0.20215 0.51172,-0.51123 0.51172,-0.92627 0,-0.3125 -0.13477,-0.57959 -0.40625,-0.80225 -0.27051,-0.22168 -0.79981,-0.48437 -1.58594,-0.78711 -0.74609,-0.27832 -1.27734,-0.52099 -1.59277,-0.72851 -0.31445,-0.20752 -0.54883,-0.44336 -0.70313,-0.70703 -0.15332,-0.26368 -0.23047,-0.57862 -0.23047,-0.94483 0,-0.6543 0.26563,-1.17041 0.79786,-1.54932 0.53222,-0.37793 1.26269,-0.56738 2.19043,-0.56738 0.86425,0 1.70898,0.17578 2.53418,0.52735 l -0.43165,0.98876 c -0.80664,-0.33203 -1.53613,-0.49804 -2.19042,-0.49804 -0.57618,0 -1.01075,0.0903 -1.30372,0.27099 -0.29296,0.18067 -0.43945,0.42969 -0.43945,0.74707 0,0.21485 0.0547,0.39795 0.16504,0.54932 0.10938,0.15137 0.28613,0.29541 0.53027,0.43213 0.24414,0.13672 0.71289,0.33447 1.40625,0.59326 0.95313,0.34668 1.59571,0.6958 1.93067,1.04736 0.33398,0.35157 0.50097,0.79346 0.50097,1.32569 z" id="path2176" />
         <path class="st2" d="m 683.07324,134.63773 v 0.76904 l -1.4873,0.17578 c 0.13672,0.1709 0.25879,0.39453 0.36621,0.67041 0.10742,0.27588 0.16113,0.58691 0.16113,0.93359 0,0.78614 -0.26855,1.41358 -0.80566,1.88233 -0.53711,0.46875 -1.27442,0.70312 -2.21192,0.70312 -0.23925,0 -0.46386,-0.0195 -0.67383,-0.0586 -0.51757,0.27344 -0.77636,0.61768 -0.77636,1.03271 0,0.21973 0.0898,0.38233 0.27148,0.48731 0.17969,0.10498 0.49024,0.15723 0.92969,0.15723 h 1.4209 c 0.86914,0 1.53711,0.1831 2.00293,0.54931 0.46679,0.36621 0.69922,0.89844 0.69922,1.59668 0,0.88867 -0.35645,1.56592 -1.06836,2.03272 -0.71387,0.46582 -1.75391,0.69922 -3.1211,0.69922 -1.0498,0 -1.8584,-0.19532 -2.42773,-0.58594 -0.56836,-0.39063 -0.85352,-0.94239 -0.85352,-1.65528 0,-0.48828 0.15625,-0.91064 0.46875,-1.26709 0.3125,-0.35644 0.75196,-0.59814 1.31836,-0.72509 -0.20508,-0.0928 -0.37695,-0.23682 -0.51562,-0.43213 -0.13965,-0.19531 -0.20899,-0.42237 -0.20899,-0.68115 0,-0.29297 0.0781,-0.54932 0.23438,-0.76905 0.15625,-0.21972 0.40234,-0.43213 0.74023,-0.6372 -0.41601,-0.1709 -0.7539,-0.46143 -1.01465,-0.87159 -0.26171,-0.41015 -0.3916,-0.8789 -0.3916,-1.40625 0,-0.8789 0.26367,-1.55615 0.79102,-2.03271 0.52734,-0.47559 1.27344,-0.71387 2.24023,-0.71387 0.41992,0 0.79883,0.0488 1.13574,0.14649 h 2.77637 z m -6.40234,9.375 c 0,0.43457 0.18359,0.76416 0.5498,0.98877 0.36621,0.2246 0.89063,0.33691 1.5752,0.33691 1.01953,0 1.77539,-0.15283 2.2666,-0.45752 0.49023,-0.30566 0.73535,-0.71924 0.73535,-1.2417 0,-0.43457 -0.13379,-0.73584 -0.40234,-0.90478 -0.26856,-0.16797 -0.77442,-0.25245 -1.51563,-0.25245 h -1.45801 c -0.55175,0 -0.98144,0.13184 -1.28906,0.39551 -0.30761,0.26367 -0.46191,0.64209 -0.46191,1.13526 z m 0.66015,-6.8042 c 0,0.56152 0.15821,0.98632 0.47559,1.27441 0.31738,0.28809 0.75879,0.43213 1.3252,0.43213 1.1875,0 1.78027,-0.57617 1.78027,-1.72852 0,-1.20605 -0.60059,-1.80908 -1.80176,-1.80908 -0.57129,0 -1.01074,0.15381 -1.31836,0.46143 -0.30762,0.30762 -0.46094,0.76416 -0.46094,1.36963 z" id="path2178" />
         <path class="st2" d="m 688.11133,142.81155 c -1.18555,0 -2.12207,-0.36132 -2.8086,-1.08398 -0.68554,-0.72266 -1.02929,-1.72607 -1.02929,-3.01025 0,-1.29395 0.31933,-2.32178 0.95605,-3.0835 0.6377,-0.76172 1.49317,-1.14258 2.56738,-1.14258 1.00586,0 1.80176,0.33106 2.3877,0.99219 0.58594,0.66211 0.87891,1.53467 0.87891,2.61865 v 0.76904 h -5.53028 c 0.0244,0.94239 0.2627,1.65772 0.71485,2.146 0.45117,0.48828 1.08789,0.73242 1.9082,0.73242 0.86328,0 1.71777,-0.18066 2.5625,-0.54199 v 1.08398 c -0.42969,0.18555 -0.83594,0.31885 -1.21875,0.39893 -0.38379,0.0811 -0.8457,0.12109 -1.38867,0.12109 z m -0.3291,-7.30224 c -0.64453,0 -1.15821,0.20996 -1.542,0.62988 -0.38281,0.41992 -0.60937,1.00098 -0.67773,1.74316 h 4.19727 c 0,-0.7666 -0.1709,-1.35351 -0.5127,-1.76123 -0.3418,-0.40771 -0.83008,-0.61181 -1.46484,-0.61181 z" id="path2180" />
         <path class="st2" d="m 694.35156,142.66507 h -1.21582 v -11.39648 h 1.21582 z" id="path2182" />
         <path class="st2" d="m 702.39355,141.58841 h -0.0654 c -0.5625,0.81543 -1.40234,1.22314 -2.51953,1.22314 -1.05078,0 -1.86718,-0.35888 -2.45019,-1.07666 -0.58399,-0.71777 -0.87598,-1.73828 -0.87598,-3.06152 0,-1.32324 0.29297,-2.35107 0.87891,-3.0835 0.58594,-0.73242 1.40137,-1.09863 2.44726,-1.09863 1.08789,0 1.92286,0.39551 2.50391,1.18652 h 0.0957 l -0.0508,-0.57861 -0.0293,-0.56396 v -3.2666 h 1.21485 v 11.39648 h -0.98828 z m -2.43164,0.20508 c 0.83008,0 1.43164,-0.22559 1.80567,-0.67725 0.37305,-0.45166 0.56055,-1.18066 0.56055,-2.18652 v -0.25635 c 0,-1.13769 -0.18946,-1.94922 -0.56836,-2.43506 -0.37793,-0.48584 -0.98243,-0.729 -1.8125,-0.729 -0.71289,0 -1.25879,0.27734 -1.63672,0.83154 -0.37891,0.5542 -0.56836,1.33643 -0.56836,2.34717 0,1.02539 0.18847,1.79932 0.56445,2.32178 0.37598,0.52246 0.92773,0.78369 1.65527,0.78369 z" id="path2184" />
         <path class="st2" d="m 709.5127,142.81155 c -1.18555,0 -2.12208,-0.36132 -2.8086,-1.08398 -0.68555,-0.72266 -1.0293,-1.72607 -1.0293,-3.01025 0,-1.29395 0.31934,-2.32178 0.95606,-3.0835 0.63769,-0.76172 1.49316,-1.14258 2.56738,-1.14258 1.00586,0 1.80176,0.33106 2.3877,0.99219 0.58593,0.66211 0.8789,1.53467 0.8789,2.61865 v 0.76904 h -5.53027 c 0.0244,0.94239 0.2627,1.65772 0.71484,2.146 0.45118,0.48828 1.08789,0.73242 1.90821,0.73242 0.86328,0 1.71777,-0.18066 2.5625,-0.54199 v 1.08398 c -0.42969,0.18555 -0.83594,0.31885 -1.21875,0.39893 -0.38379,0.0811 -0.84571,0.12109 -1.38867,0.12109 z m -0.32911,-7.30224 c -0.64453,0 -1.1582,0.20996 -1.54199,0.62988 -0.38281,0.41992 -0.60937,1.00098 -0.67773,1.74316 h 4.19726 c 0,-0.7666 -0.1709,-1.35351 -0.51269,-1.76123 -0.3418,-0.40771 -0.83008,-0.61181 -1.46485,-0.61181 z" id="path2186" />
         <path class="st2" d="m 718.2002,134.49124 c 0.35644,0 0.67578,0.0293 0.95898,0.0879 l -0.16797,1.12793 c -0.33203,-0.0732 -0.625,-0.10986 -0.87891,-0.10986 -0.64941,0 -1.20507,0.26367 -1.66601,0.79101 -0.46192,0.52735 -0.69238,1.18409 -0.69238,1.97022 v 4.30664 h -1.21582 v -8.02734 h 1.0039 l 0.13867,1.48681 h 0.0586 c 0.29785,-0.52246 0.65625,-0.92529 1.07617,-1.20849 0.41992,-0.28321 0.88184,-0.42481 1.38477,-0.42481 z" id="path2188" />
      </g>
      <g id="g2272" transform="translate(-6.6301474,-44.239542)">
         <path class="st4" d="m 64.600243,167.57455 c 3.33155,2.0568 4.767662,6.1216 5.650352,9.93612 0.509628,2.20234 0.9151,4.43037 1.159767,6.67764 0.440132,4.04249 0.358933,8.13365 0.920205,12.16112 0.943054,6.76686 3.663673,13.13897 6.35762,19.41771 0.576202,0.2196 1.203521,-0.34652 1.302475,-0.95516 0.09896,-0.60863 -0.153946,-1.2119 -0.373154,-1.78825 -0.873474,-2.29653 -1.280998,-4.74105 -1.991577,-7.09307 -0.684166,-2.2646 -1.648308,-4.44001 -2.26796,-6.72311 -0.637504,-2.34885 -0.901993,-4.7796 -1.2294,-7.1913 -0.526139,-3.87555 -1.219521,-7.72617 -1.912674,-11.57535 -0.379845,-2.10933 -0.766915,-4.24258 -1.640328,-6.19981 -1.037887,-2.32578 -2.759285,-4.34158 -4.893867,-5.73084" id="path2192" />
         <path class="st4" d="m 43.737778,207.34961 c 3.001278,1.23564 6.220485,1.9398 9.463554,2.07004 1.474308,0.0592 2.954636,0.001 4.422737,0.1486 1.366989,0.13738 2.70921,0.45165 4.064476,0.67697 0.832726,0.13846 1.68895,0.24897 2.44072,0.63295 1.277145,0.65233 2.045006,1.97525 2.742485,3.22831 -0.371086,-1.79563 -0.59848,-3.62091 -0.679306,-5.45269 -0.02862,-0.6486 -0.08202,-1.38809 -0.594292,-1.78694 -0.415909,-0.32381 -1.008377,-0.30455 -1.513496,-0.15393 -0.50512,0.15062 -0.972935,0.41428 -1.484631,0.54077 -1.009659,0.24961 -2.077358,-0.0571 -3.109539,0.0706 -0.642116,0.0795 -1.252739,0.32502 -1.890617,0.43335 -0.721512,0.12255 -1.462296,0.0671 -2.188416,0.1585 -0.503772,0.0634 -0.996765,0.19693 -1.50069,0.25908 -1.929169,0.23787 -3.808769,-0.57526 -5.655564,-1.1816 -1.514717,-0.4973 -3.068885,-0.86308 -4.620777,-1.22822 -0.2071,0.51382 -0.13525,1.13066 0.18441,1.58311" id="path2194" />
         <path class="st4" d="m 41.944054,215.30026 c 1.314827,0.27725 2.711788,0.15161 3.956039,-0.35582 0.539562,-0.22004 1.071499,-0.52942 1.38345,-1.02159 0.240406,-0.37929 0.329647,-0.83801 0.335174,-1.28703 0.0083,-0.6759 -0.165699,-1.3532 -0.498817,-1.94136 -0.327027,0.80125 -0.784966,1.6635 -1.609444,1.92653 -0.481686,0.15367 -1.003006,0.0698 -1.501377,-0.0155 -0.326584,-0.0559 -0.653168,-0.11171 -0.979752,-0.16757 -0.103054,-0.0176 -0.218822,-0.0326 -0.303596,0.0286 -0.07128,0.0514 -0.0997,0.14244 -0.123772,0.22699 -0.23056,0.80989 -0.461124,1.61979 -0.691688,2.4297" id="path2196" />
         <path class="st4" d="m 49.600422,174.92574 c 0.494041,0.62483 1.117668,1.14674 1.819786,1.52294 0.306809,0.1644 0.665165,0.30376 0.995934,0.19536 0.207012,-0.0678 0.371547,-0.22372 0.525302,-0.37805 0.593247,-0.59543 1.139157,-1.23802 1.630883,-1.91971 0.108291,-0.15013 0.242958,-0.3181 0.42807,-0.31851 0.114754,-2.6e-4 0.21767,0.0664 0.311733,0.13217 0.625816,0.43733 1.203766,0.9431 1.720226,1.5054 0.291607,0.31749 0.640637,0.68493 1.06839,0.63146 0.210373,-0.0263 0.392586,-0.15413 0.56078,-0.28319 1.231178,-0.94475 2.239002,-2.17863 2.918915,-3.57364 0.382118,-0.78401 0.672813,-1.61209 1.160312,-2.34118 0.456192,-0.6823 0.685303,-1.17765 0.09409,-1.88746 -0.206314,-0.24771 -0.445492,-0.46991 -0.619869,-0.74105 -0.277012,-0.43073 -0.385048,-0.97547 -0.757504,-1.32695 -0.273594,-0.25818 -0.649322,-0.37165 -1.010456,-0.47698 -0.313106,-0.0913 -0.626213,-0.18263 -0.939319,-0.27396 -0.160939,0.49894 0.234405,0.98572 0.562652,1.39449 0.423729,0.52766 0.777832,1.10696 1.130657,1.68446 0.323895,0.53014 0.34607,0.85886 0.0575,1.37923 -0.299,0.53917 -0.568004,1.08795 -0.898441,1.61041 -0.644707,1.01938 -1.399323,1.96938 -2.248425,2.8261 -0.698997,-0.84372 -1.488689,-1.61226 -2.35107,-2.2881 -0.19067,-0.14943 -0.39587,-0.29911 -0.635494,-0.33466 -0.503716,-0.0747 -0.935948,0.37805 -1.141957,0.84375 -0.206012,0.4657 -0.2938,0.9935 -0.607242,1.39484 -0.637009,0.81563 -1.865643,0.75928 -2.891903,0.62575 -0.249889,-0.0325 -0.5177,-0.0732 -0.700737,-0.24642" id="path2198" />
         <path class="st4" d="m 42.187225,198.4102 c 0.873459,0.21498 1.809876,-0.11394 2.522972,-0.66223 0.713097,-0.54831 1.242493,-1.29573 1.754689,-2.03519 1.347583,-1.94551 2.671112,-3.95295 3.38546,-6.20921 0.93394,-2.94984 0.772747,-6.15524 1.047466,-9.17506 0.178554,-1.96271 0.131523,-3.92952 -0.05611,-5.89138 -0.01843,-0.19275 -0.01,-0.40606 -0.09628,-0.58656 -0.08929,-0.18678 -0.266487,-0.31261 -0.429637,-0.44003 -1.116635,-0.87219 -1.838246,-2.14202 -2.531258,-3.37787 0.0063,3.17811 -0.586445,6.32344 -0.880619,9.48791 -0.239891,2.58054 -0.281174,5.17649 -0.221748,7.76746 0.02224,0.96977 0.05152,1.97766 -0.340889,2.86478 -0.43121,0.97483 -1.31667,1.67157 -2.233609,2.21516 -0.916935,0.54361 -1.904487,0.9803 -2.738166,1.64458 0.42197,1.54413 0.686527,3.13122 0.788246,4.72873" id="path2200" />
         <path class="st4" d="m 24.271833,189.27052 c 1.030306,-0.46942 2.268643,0.25536 2.841128,1.23217 0.572487,0.97679 0.689554,2.14315 0.967861,3.24063 0.789595,3.11364 2.89226,5.00142 4.937332,7.4785 2.349606,2.84594 4.831482,5.82277 7.803795,8.01033 0.192848,0.14193 0.308933,0.88723 0.547966,0.87317 0.225033,-0.0132 0.414726,-0.1648 0.587658,-0.30939 0.550598,-0.4604 1.101196,-0.92081 1.651791,-1.3812 -4.273995,-4.10658 -8.119938,-8.6584 -11.455437,-13.55795 -0.312082,-0.45842 -0.625782,-0.93367 -0.747292,-1.47475 -0.224043,-0.99771 0.250962,-2.03221 0.903824,-2.81921 -2.148462,-1.61023 -3.871063,-3.78349 -4.948282,-6.24284 -1.400906,1.18899 -2.433773,2.80571 -2.923845,4.57661" id="path2202" />
         <path class="st4" d="m 77.278503,297.20258 c 0.680199,-0.0273 1.367638,0.19314 1.905167,0.61084 0.283508,0.2203 0.540176,0.5289 0.540733,0.88794 5.88e-4,0.37948 -0.29496,0.70877 -0.640716,0.86514 -0.345765,0.15637 -0.735688,0.17486 -1.11483,0.19085 -1.211251,0.0512 -2.422501,0.1023 -3.633744,0.15345 -0.0832,0.004 -0.172874,0.009 -0.237129,0.0624 -0.1595,0.13143 -0.02169,0.39294 0.14447,0.51586 0.352036,0.26044 0.797654,0.35157 1.22818,0.43152 2.640824,0.49051 5.312233,0.81629 7.993538,0.97473 0.556877,0.0329 1.121872,0.0581 1.666939,-0.0607 0.410133,-0.0893 0.798073,-0.25784 1.182945,-0.42535 0.319039,-0.13885 0.677758,-0.32391 0.751618,-0.66391 0.0387,-0.1781 -0.01297,-0.36407 -0.08856,-0.52991 -0.344826,-0.75653 -1.13411,-1.19073 -1.872406,-1.57303 -1.066071,-0.552 -2.132141,-1.104 -3.198212,-1.656 -0.366806,-0.18994 -0.757927,-0.38519 -1.169876,-0.35492 -0.874817,0.0642 -1.679718,1.11044 -2.440659,0.6741" id="path2204" />
         <path class="st4" d="m 40.499626,300.12387 c 0.323666,0.45343 0.903061,0.67215 1.460102,0.67893 0.557038,0.007 1.099304,-0.17115 1.616707,-0.37763 1.672562,-0.66748 3.232536,-1.67432 4.390087,-3.05383 0.101609,-0.1211 0.211464,-0.25229 0.365341,-0.28848 0.317601,-0.0746 0.556454,0.28006 0.67994,0.58206 0.400402,0.97918 0.691459,2.00305 0.86602,3.04641 0.02882,0.17231 0.05432,0.35029 0.01363,0.52018 -0.05325,0.22226 -0.212067,0.40173 -0.365456,0.57119 -0.483486,0.53415 -0.9874,1.08332 -1.646827,1.37354 -0.825413,0.36325 -1.789189,0.27298 -2.6614,0.21167 -1.119206,-0.0787 -2.240475,-0.18283 -3.330368,-0.44919 -0.229668,-0.0561 -0.451988,-0.13342 -0.656746,-0.25137 -0.760559,-0.43802 -1.131447,-1.45154 -0.833252,-2.27704" id="path2206" />
         <path class="st4" d="m 41.37075,245.95836 c -0.390216,1.25578 -0.699596,2.8358 0.284024,3.7086 0.463421,0.4112 1.104732,0.54097 1.71363,0.65537 1.134335,0.2131 2.268669,0.42622 3.403004,0.63934 1.825314,3.75578 1.25314,8.16583 1.001106,12.33408 -0.616016,10.18792 0.935376,20.49505 -1.795467,30.51638 -0.444534,1.63129 -0.04144,3.49582 1.279022,4.55182 0.0069,0.005 0.01392,0.0108 0.02115,0.0159 0.297836,0.21097 0.717201,-0.017 0.940944,-0.30536 0.735718,-0.94821 0.446606,-2.29519 0.268612,-3.48208 -0.331783,-2.21244 -0.143699,-4.46573 0.03699,-6.69559 1.141208,-14.08356 1.960968,-28.19315 2.458416,-42.31409 -3.294514,-0.34138 -6.621319,-0.37043 -9.921296,-0.0867" id="path2208" />
         <path class="st4" d="m 58.203297,245.79314 c 0.499389,0.78137 0.104492,1.93512 0.690212,2.65405 0.224109,0.27507 0.56049,0.43634 0.901634,0.53387 1.050816,0.30043 2.168121,0.0672 3.256867,-0.0282 1.088737,-0.0955 2.307159,-0.002 3.07344,0.77776 0.653404,0.66449 0.811592,1.65654 0.937378,2.57994 0.900337,6.60943 1.802025,13.23501 1.970322,19.90338 0.139259,5.51806 -8.47e-4,11.03863 1.293037,16.40466 0.269371,1.11716 0.477104,2.71854 1.069901,3.703 0.822181,1.36542 1.994407,2.00342 3.221023,3.02115 0.71006,0.58914 1.438515,1.18909 2.30452,1.50742 0.866005,0.3183 1.911202,0.30621 2.635063,-0.2659 -1.802147,-1.10459 -3.560234,-2.28107 -5.268699,-3.52567 -0.559975,-0.40793 -1.126931,-0.83612 -1.501595,-1.41888 -0.461395,-0.71768 -0.584671,-1.59436 -0.696968,-2.44013 -0.244102,-1.83844 -0.488312,-3.67791 -0.633812,-5.52676 -0.247398,-3.14374 -0.208504,-6.30234 -0.325478,-9.45364 -0.07626,-2.05472 -0.218795,-4.10633 -0.361305,-6.1575 -0.161438,-2.32349 -0.322868,-4.64701 -0.484299,-6.97049 -0.324935,-4.67682 -0.650581,-9.36017 -1.365333,-13.99346 -0.04493,-0.29127 -0.10363,-0.60589 -0.321579,-0.80429 -0.191239,-0.17407 -0.464165,-0.21959 -0.721466,-0.24557 -3.152611,-0.31838 -6.596234,1.10984 -9.370175,-0.42168" id="path2210" />
         <path class="st4" d="m 66.322891,245.98973 c 0.162285,-0.88208 0.206101,-1.78113 0.246941,-2.67708 0.51606,-11.32185 1.522873,-21.20451 -1.155876,-32.21699 -0.549408,-2.25864 -1.251999,-18.87331 -0.602394,-18.48854 0.15348,8.6558 3.097122,16.97754 5.177574,25.38099 2.148323,8.67763 3.39373,17.57849 3.709625,26.51252 0.01157,0.32724 0.0011,0.70362 -0.251244,0.91235 -0.180328,0.1492 -0.432647,0.16528 -0.666519,0.17462 -2.252373,0.09 -4.504745,0.17998 -6.75711,0.26996" id="path2212" />
         <path class="st4" d="m 49.947197,163.97702 c 0.997547,0.48021 2.076737,0.79027 3.177048,0.9128 0.595455,0.0663 1.196712,0.078 1.794697,0.041 1.051372,-0.0652 2.086971,-0.28029 3.118293,-0.49479 0.104729,-0.0218 0.218724,-0.0492 0.283387,-0.13441 0.0759,-0.10004 0.05552,-0.24062 0.02884,-0.36331 -0.09636,-0.44303 -0.228138,-0.87836 -0.393662,-1.30046 -2.197399,0.88617 -4.743366,0.87019 -6.929474,-0.0435 -0.392475,-0.16404 -0.93161,-0.31813 -1.171459,0.0332" id="path2214" />
         <path class="st4" d="m 55.516155,171.94177 c 1.109703,-0.47444 1.829922,-1.63981 2.97031,-2.03483 0.07404,-0.0256 0.151833,-0.048 0.229714,-0.0394 0.09687,0.0107 0.181534,0.0678 0.261371,0.12366 0.472206,0.33058 0.930138,0.68155 1.372082,1.05162 0.209145,-0.28293 0.406342,-0.57466 0.590897,-0.87421 0.06595,-0.10704 0.131634,-0.21872 0.150013,-0.34309 0.02336,-0.1581 -0.03231,-0.31619 -0.09047,-0.46504 -0.475861,-1.2177 -1.183392,-2.34439 -2.073525,-3.30193 -0.04816,-0.0518 -0.100864,-0.10553 -0.169628,-0.12211 -0.170551,-0.0411 -0.294838,0.15466 -0.36129,0.31703 -0.407284,0.99522 -0.882423,2.00635 -1.701237,2.70341 -0.323646,0.27552 -0.6991,0.50023 -0.954094,0.84029 -0.231597,0.30884 -0.366176,0.71307 -0.69857,0.90938 -0.07415,0.0438 -0.162441,0.0823 -0.193786,0.16253 -0.02658,0.068 -0.0026,0.14458 0.02541,0.21203 0.0904,0.21763 0.223618,0.41738 0.389809,0.58447" id="path2216" />
         <path class="st4" d="m 47.309338,168.938 c 0.59177,-0.30713 1.311588,-0.28881 1.946552,-0.0855 0.634964,0.20332 1.200848,0.57565 1.744511,0.96159 0.668754,0.47473 1.317661,0.97673 1.966342,1.47855 0.316975,0.24521 0.63395,0.49043 0.950924,0.73564 0.214051,-0.34923 0.428097,-0.69846 0.642144,-1.04768 -0.391114,-0.37896 -0.849987,-0.67962 -1.272656,-1.02301 -1.426292,-1.15882 -2.401543,-2.76764 -3.348087,-4.34284 -0.923519,0.69945 -2.069664,1.07881 -2.936016,1.84793 -0.05116,0.0454 -0.103375,0.0955 -0.122338,0.16124 -0.01905,0.0661 -0.0013,0.13651 0.0165,0.20293 0.131477,0.49148 0.262955,0.98297 0.394436,1.47446" id="path2218" />
         <path class="st4" d="m 63.555386,166.96466 c -1.079445,-1.22038 -0.555447,-1.1123 -0.303383,-2.58394 0.226593,-1.32292 0.560184,-2.62134 1.024959,-3.88049 1.380112,-3.73901 1.858513,-7.7096 2.297417,-11.65788 0.0679,-0.61086 0.06134,-1.2275 -0.02097,-1.83657 -0.922074,-6.82267 -1.419213,-8.90713 -4.597992,-12.26068 -0.319466,0.62374 -0.765019,1.18257 -1.301937,1.63294 1.450138,1.50146 2.954815,3.09732 3.481899,5.11708 0.219788,0.84221 0.257004,1.71974 0.293091,2.5894 0.117401,2.82962 0.233856,5.67897 -0.176552,8.48111 -0.291729,1.99187 -0.849606,3.94458 -1.65414,5.78995 -0.513592,1.17802 -1.200661,2.38552 -2.358323,2.94351 -0.354469,0.17083 -0.751361,0.28004 -1.037262,0.5504 -0.289978,0.27423 -0.422855,0.67862 -0.468868,1.07507 -0.202148,1.74165 -0.502014,1.83864 0.779488,3.03529 0.307232,0.2869 2.175064,0.39708 2.562217,0.56083 0.722989,0.30577 1.76891,-0.0517 1.991776,0.70101" id="path2220" />
         <path class="st4" d="m 40.071941,194.38443 c -0.513221,0.20709 -1.113182,-0.17126 -1.342582,-0.67491 -0.229405,-0.50363 -0.184975,-1.08446 -0.124287,-1.63455 0.375347,-3.40224 3.484138,-5.67412 4.177738,-9.02597 1.555214,-7.51567 0.191612,-16.20775 1.162792,-23.82096 0.278843,-2.18591 0.879258,-4.29045 1.204663,-6.44763 0.238346,-1.58008 0.583305,-3.14572 1.14801,-4.64056 0.865364,-2.29074 2.024983,-4.58414 3.746906,-6.37976 2.021733,-2.10828 4.707074,-3.42925 7.333329,-4.70792 0.983367,-0.47878 1.966732,-0.95757 2.950099,-1.43634 0.357125,-0.17387 0.773869,-0.34993 1.136216,-0.18723 -0.0305,0.76601 -0.560833,1.43711 -1.198658,1.86239 -0.637822,0.42527 -1.382248,0.65391 -2.099266,0.92514 -4.27686,1.61781 -7.860695,4.98809 -9.737286,9.15797 -0.285843,0.63516 -0.393829,1.33514 -0.380905,2.03152 0.246055,13.25567 -0.356388,26.52698 -1.801911,39.70588 -0.105198,0.9591 -0.228954,1.95796 -0.761024,2.76286 -0.830353,1.25613 -2.420033,1.72353 -3.877907,2.1003 -0.715927,0.18502 -1.431854,0.37005 -2.147781,0.55506" id="path2222" />
         <path class="st3" d="m 41.562855,193.78696 c 0.856479,5.0628 1.961792,10.91243 1.937874,15.58233 -3.759179,11.52408 -6.32993,35.81551 -6.32993,35.81551 l 36.132469,0.59956 c 0.959671,-11.99029 -3.223205,-27.962 -6.339744,-37.67663 0,0 -2.407929,-10.3748 -2.074455,-15.87712 0,0 3.645813,-0.66353 0.833686,-7.33644 -2.559559,-6.07357 -1.750744,-8.67034 -1.750744,-8.67034" id="path2224" />
         <path class="st3" d="m 58.540119,165.20657 c -0.07251,-3.14035 -0.106666,-0.0326 -0.179176,-3.173" id="path2226" />
         <path class="st3" d="m 50.114605,161.72935 c 0,2.81128 0,0 0,3.47722" id="path2228" />
         <path class="st3" d="m 74.683235,293.05594 c 3.376984,1.93155 5.862625,3.29663 9.291191,4.59253 1.406418,0.53158 3.953255,1.68115 3.075516,2.90188 -1.893097,2.63285 -12.696404,0.21851 -16.448235,-1.35913 -0.984024,-0.41378 -1.990593,-0.85394 -2.741745,-1.61242 -0.751152,-0.75846 -1.051452,-1.79776 -0.820053,-2.91742 l 0.407685,-2.36707" id="path2230" />
         <path class="st3" d="m 51.022286,245.59479 c -0.327599,5.88643 -0.670563,11.99374 -0.94339,17.55737 -0.486355,9.91806 -1.274929,21.29993 -1.981427,29.45178 0,0 0.351349,2.34836 0.67928,3.82404 0,0 -1.260983,2.14587 -3.627415,2.1665 -2.523197,0.022 -3.502609,-2.59253 -3.502609,-2.59253 l 1.097782,-3.31466 c 0,0 -1.589909,-37.89043 -1.595497,-40.33417 -0.0048,-2.11238 0.02773,-4.39172 0.08031,-6.75653" id="path2232" />
         <path class="st3" d="m 48.321655,160.3586 c 1.567437,1.54724 3.718788,2.51255 5.924759,2.57115 3.038288,0.0807 6.064434,-1.56168 7.652432,-4.1532 0.672603,-1.09766 1.093326,-2.33025 1.437137,-3.57083 1.135147,-4.09593 1.482521,-8.40868 1.017594,-12.63352 0,0 -0.250458,-3.30879 -3.561486,-6.16867" id="path2234" />
         <circle class="st16" cx="52.583595" cy="147.16997" r="0.55812317" id="circle2236" />
         <circle class="st16" cx="60.70739" cy="147.16997" r="0.55812317" id="circle2238" />
         <path class="st3" d="m 57.328369,150.56215 c 0.338139,0.8707 0.678875,1.8372 0.35799,2.7144 -0.0758,0.20721 -0.191761,0.40654 -0.368469,0.53865 -0.227863,0.17038 -0.52573,0.20908 -0.809433,0.23053" id="path2240" />
         <path class="st3" d="m 51.501373,157.15836 c 0.298691,0.50807 0.716885,0.94537 1.211121,1.26646 0.43618,0.28336 1.035065,0.46658 1.456806,0.16214" id="path2242" />
         <path class="st3" d="m 41.484211,296.32535 c 0,0 -2.662388,4.77966 -0.71336,6.02804 1.949028,1.24836 10.418206,1.47184 9.115505,-2.45163 -0.598495,-1.80252 -1.062267,-3.35336 -1.062267,-3.35336" id="path2244" />
         <path class="st3" d="m 47.801212,166.68101 c 0.650521,-0.56463 1.600415,-1.29954 2.313393,-1.47444 0,0 1.04871,3.17668 4.860737,5.37593 l -2.639096,3.95865 c -2.690818,-1.21795 -4.035545,-3.43387 -4.690647,-5.08188" id="path2246" />
         <path class="st3" d="m 54.975342,170.5825 c 0,0 2.633323,-1.41729 3.564777,-5.37593 0,0 2.373078,2.29604 2.837471,4.00751 0,0 -1.759395,3.81203 -3.201126,4.83835 0,0 -2.918644,-2.35468 -3.201122,-3.46993 z" id="path2248" />
         <path class="st3" d="m 46.62125,187.74664 c -0.23724,4.23467 -4.450985,7.1295 -8.458618,5.74115 -4.915161,-1.70273 -10.45117,-5.13434 -11.483202,-12.01689 -1.51115,-10.07774 6.547205,-8.69211 6.109869,-13.65732 -0.40266,-4.57153 -1.795685,-5.70923 -0.80829,-9.12213 1.171709,-4.04997 6.113279,-4.51643 6.843557,-8.46495 0.979862,-5.29797 -3.732788,-13.8412 7.382469,-19.82519 7.638462,-4.11225 15.843205,-0.83754 16.293396,3.11038 0.227566,1.99562 -3.227333,4.36694 -7.307011,6.26108 0,0 -6.81567,3.56117 -6.93114,10.83578 v 7.84648 z" id="path2250" />
         <path class="st3" d="m 61.767887,135.41527 c 0,0 3.713482,2.41629 4.600842,7.65777 0.887352,5.24147 -1.198838,8.52889 0.895927,13.93117 3.054688,7.87787 3.980164,18.23506 3.980164,18.23506" id="path2252" />
         <path class="st3" d="m 58.297443,245.59486 c 0.341538,2.14347 0.697674,4.21956 1.065365,6.16262 2.879608,15.21716 7.879433,35.24231 8.239281,39.15356 0,0 -0.500389,3.36841 0.931488,4.03916 1.431877,0.67074 9.163269,2.82501 11.941589,1.99224 0,0 -6.662811,-4.46884 -8.201133,-5.48013 0,0 -1.57721,-24.95761 -3.250962,-45.66753" id="path2254" />
         <path class="st10" d="m 76.040749,216.29645 c 1.062469,2.36677 2.694603,5.74246 4.547248,5.40675 1.889245,-0.34231 -0.375198,-5.85425 -0.573997,-7.03981" id="path2256" />
         <path class="st3" d="m 58.624687,164.9438 c 5.242813,1.77324 8.700005,3.18566 11.273689,7.26953 2.588738,4.10776 3.365807,15.85863 4.788445,22.59246 1.023384,4.84402 5.327179,19.8576 5.327179,19.8576 -2.010239,2.47868 -3.973244,1.63306 -3.973244,1.63306 -2.15924,-3.00153 -8.433822,-17.01584 -9.751098,-25.14487" id="path2258" />
         <path class="st10" d="m 43.152931,208.10773 c 0,0 3.762112,0.69801 3.563801,2.7588 -0.14727,1.53041 -1.663769,1.55072 -2.7631,1.53238 -0.421993,-0.007 -0.838913,-0.0897 -1.253196,-0.17029 -0.563233,-0.10957 -1.398293,-0.3518 -2.128357,-0.882 z" id="path2260" />
         <path class="st3" d="m 26.995476,183.96521 c -1.203936,2.06174 -2.146483,3.89464 -2.610714,5.07048 -1.406359,3.56209 -0.264179,6.45902 1.629484,9.21173 1.925238,2.7986 9.192537,8.97876 14.557833,13.0992 l 2.580852,-3.23889 c 0,0 -8.595138,-9.3481 -11.833912,-13.74616 -0.481764,-0.6542 -0.480041,-1.54326 -0.0018,-2.20004 0.278932,-0.38306 0.627378,-0.85518 1.038738,-1.40036" id="path2262" />
         <path class="st3" d="m 43.31992,205.30545 c 0,0 8.764911,5.17265 22.97446,0.61217" id="path2264" />
         <g id="g2270">
            <path class="st3" d="m 45.027924,298.10696 c 0,0 3.460006,-0.55902 2.485481,-2.1383 -0.974529,-1.57929 -2.485481,2.1383 -2.485481,2.1383 z" id="path2266" />
            <path class="st3" d="m 45.027924,298.10696 c 0,0 -2.952847,-1.88809 -1.430932,-2.94998 1.521916,-1.06189 1.430932,2.94998 1.430932,2.94998 z" id="path2268" />
         </g>
      </g>
      <g id="g2312" transform="translate(-9.6275589,49.44785)">
         <g id="g2292">
            <g id="g2282">
               <g id="g2280">
                  <ellipse class="st2" cx="584.60388" cy="120.5004" rx="24.277195" ry="24.153055" id="ellipse2274" />
                  <path class="st4" d="m 597.25232,107.90034 c 8.59491,8.68047 8.59491,20.98861 2.02496,31.00786 4.75238,-3.18606 7.93048,-8.48535 8.84168,-14.11425 0.91119,-5.62891 0.0691,-11.56529 -2.79267,-16.50494 -3.30059,-5.69712 -9.25671,-10.173333 -15.67895,-11.727525 -6.4223,-1.554191 -15.57507,0.974098 -20.48023,5.120005 7.77008,-2.850313 18.87006,-3.088099 28.08521,6.21885 z" id="path2276" />
                  <ellipse class="st5" cx="584.60388" cy="120.5004" rx="24.277195" ry="24.153055" id="ellipse2278" />
               </g>
            </g>
            <g id="g2290">
               <line class="st3" x1="577.26215" y1="132.90616" x2="592.09344" y2="107.84637" id="line2284" />
               <ellipse class="st3" cx="576.08795" cy="114.7506" rx="4.7541475" ry="6.9042268" id="ellipse2286" />
               <ellipse class="st3" cx="593.11981" cy="125.75321" rx="4.7541475" ry="6.9042268" id="ellipse2288" />
            </g>
         </g>
         <g id="g2298">
            <path class="st17" d="m 563.39282,101.20438 c -4.30304,4.74297 -7.03979,10.91207 -7.41156,17.72976" id="path2294" />
            <path class="st17" d="m 583.16217,91.827927 c -6.80823,0.356681 -12.97833,3.05748 -17.72656,7.340522" id="path2296" />
         </g>
         <path class="st18" d="m 603.85016,99.090546 c -4.76172,-4.308701 -10.96259,-7.021698 -17.80444,-7.36274" id="path2300" />
         <path class="st18" d="m 613.26459,118.88878 c -0.35047,-6.82646 -3.07923,-13.00557 -7.37628,-17.75762" id="path2302" />
         <path class="st18" d="m 605.88947,139.62253 c 4.30963,-4.7627 7.0343,-10.96276 7.37683,-17.80486" id="path2304" />
         <path class="st18" d="m 586.04572,149.02307 c 6.84265,-0.3401 13.04052,-3.05685 17.80224,-7.36305" id="path2306" />
         <path class="st18" d="m 565.35974,141.66002 c 4.7619,4.3065 10.95978,7.02295 17.80243,7.36305" id="path2308" />
         <path class="st18" d="m 555.94141,121.81767 c 0.34253,6.8421 3.06726,13.04248 7.37689,17.80516" id="path2310" />
      </g>
      <g id="g2328" transform="translate(-6.6301474,-44.239542)">
         <path class="st19" d="m 427.38522,214.62801 h 26.41361 c 1.52154,0 2.755,1.23346 2.755,2.755 v 50.82579 c 0,1.52155 -1.23346,2.75501 -2.755,2.75501 h -26.41361 c -1.52154,0 -2.755,-1.23346 -2.755,-2.75501 v -50.82579 c 0,-1.52154 1.23346,-2.755 2.755,-2.755 z" id="path2314" />
         <polygon class="st4" points="456.30008,261.78906 456.561,250.22495 426.2999,261.89828 " id="polygon2316" />
         <path class="st5" d="m 427.38522,214.62801 h 26.41361 c 1.52154,0 2.755,1.23346 2.755,2.755 v 50.82579 c 0,1.52155 -1.23346,2.75501 -2.755,2.75501 h -26.41361 c -1.52154,0 -2.755,-1.23346 -2.755,-2.75501 v -50.82579 c 0,-1.52154 1.23346,-2.755 2.755,-2.755 z" id="path2318" />
         <circle class="st5" cx="440.59201" cy="266.28006" r="1.9672719" id="circle2320" />
         <circle class="st6" cx="433.2327" cy="218.02571" r="1.2440029" id="circle2322" />
         <line class="st3" x1="443.8364" y1="218.02571" x2="437.34763" y2="218.02571" id="line2324" />
         <line class="st5" x1="456.55383" y1="262.07333" x2="424.63022" y2="262.07333" id="line2326" />
      </g>


      <path class="st9" d="m 188.50422,113.27232 c -19.32913,4.60475 -36.54945,14.64462 -49.97153,28.40613" id="path2396" />
      <path class="st9" d="m 286.4957,141.67845 c -12.67645,-12.99703 -28.74087,-22.67443 -46.77,-27.5887" id="path2398" />
      <g id="g2404" transform="translate(-6.6301474,-44.239542)">

         <rect x="197.26569" y="141.34038" transform="rotate(-11.983946,219.75887,152.16789)" class="st10" width="44.986359" height="21.654961" id="rect2400" />
         <path class="st21" d="m 210.57935,143.04762 0.7702,3.62857 c -2.78069,1.57439 -4.36833,4.81594 -3.66292,8.13925 0.70541,3.32331 3.47299,5.64049 6.65346,5.94954 l 0.73564,3.46566 26.194,-5.56005 -4.4964,-21.18301 z" id="path2402" />
      </g>
      <g id="g2414" transform="translate(-6.6301474,-44.239542)">
         <g id="g2412">
            <path class="st3" d="m 228.73108,145.71281 c -0.66632,-2.99778 -10.35535,-2.87977 -8.68955,4.6147 l 0.6457,2.90497 c 1.6658,7.49448 10.49253,3.49697 9.82621,0.49918" id="path2406" />
            <line class="st3" x1="225.17497" y1="148.44629" x2="216.84288" y2="150.29826" id="line2408" />
            <line class="st3" x1="226.17445" y1="152.94298" x2="217.84236" y2="154.79495" id="line2410" />
         </g>
      </g>
      <g id="g2420" transform="translate(-6.6301474,-44.239542)">

         <rect x="193.72763" y="251.42224" transform="rotate(-11.983946,216.2208,262.24976)" class="st10" width="44.986359" height="21.654961" id="rect2416" />
         <path class="st21" d="m 207.04128,253.12949 0.77021,3.62857 c -2.78068,1.57437 -4.36834,4.81591 -3.66292,8.13925 0.70542,3.3233 3.473,5.6405 6.65346,5.94952 l 0.73563,3.46567 26.194,-5.56006 -4.49638,-21.183 z" id="path2418" />
      </g>
      <g id="g2426" transform="translate(-6.6301474,-44.239542)">

         <rect x="198.12248" y="247.02737" transform="rotate(-11.983946,220.61567,257.8549)" class="st10" width="44.986359" height="21.654961" id="rect2422" />
         <path class="st21" d="m 211.43614,248.73462 0.77022,3.62858 c -2.7807,1.57438 -4.36835,4.81594 -3.66293,8.13924 0.70543,3.3233 3.47299,5.6405 6.65345,5.94956 l 0.73565,3.46563 26.194,-5.56003 -4.49639,-21.18301 z" id="path2424" />
      </g>
      <g id="g2432" transform="translate(-6.6301474,-44.239542)">

         <rect x="202.51735" y="242.63252" transform="rotate(-11.983946,225.01051,253.46005)" class="st10" width="44.986359" height="21.654961" id="rect2428" />
         <path class="st21" d="m 215.83099,244.33977 0.77022,3.62857 c -2.78068,1.57438 -4.36835,4.81593 -3.66292,8.13923 0.70542,3.32334 3.473,5.64051 6.65346,5.94956 l 0.73563,3.46564 26.194,-5.56003 -4.49639,-21.18302 z" id="path2430" />
      </g>
      <g id="g2442" transform="translate(-6.6301474,-44.239542)">
         <g id="g2440">
            <path class="st3" d="m 233.98274,247.00496 c -0.66632,-2.99779 -10.35534,-2.87979 -8.68954,4.6147 l 0.64569,2.90495 c 1.6658,7.49449 10.49252,3.497 9.8262,0.49919" id="path2434" />
            <line class="st3" x1="230.42664" y1="249.73843" x2="222.09454" y2="251.59041" id="line2436" />
            <line class="st3" x1="231.42612" y1="254.23512" x2="223.09402" y2="256.0871" id="line2438" />
         </g>
      </g>
   </g>
</svg>