<svg width="22" height="22"
     xmlns="http://www.w3.org/2000/svg">
  <g
    fill="none" fill-rule="evenodd">
    <rect fill="#404040" width="22" height="22" rx="11"></rect>
    <path
      d="M16.394 4.776l.707.707L5.73 16.856l-.651-.766 1.772-1.785c-1.132-.512-1.75-1.14-1.852-1.883-.012-.542 0-1.254 0-2.565C5 8.547 7.002 7 11 7c1.131 0 2.071.112 2.82.336l2.574-2.56zm-.732 3.291c.988.53 1.482 1.127 1.482 1.79v2.565c-.447 2.529-5.953 2.888-8.244 2.4.445-.45.634-.635.877-.885.693.063 4.18.367 6.367-1.186v-.847c-1.407.83-3.233 1.207-5.48 1.133zM6 11.904v.854c.605.404 1.163.654 1.672.75.17-.176.441-.45.7-.701-.765-.143-1.555-.444-2.372-.903z"
      fill="#FFF"></path>
  </g>
</svg>
