<svg xmlns="http://www.w3.org/2000/svg" width="225" height="200"><g transform="translate(-3)" fill="none" fill-rule="evenodd"><circle fill="#E8F0F9" cx="121" cy="100" r="100"/><g transform="rotate(7 -1054.758 126.675)" stroke="#004B8C" stroke-width="2"><path d="M59.505.388a1.458 1.458 0 0 0-.747-.366 1.452 1.452 0 0 0-.835.102L.91 24.118a1.52 1.52 0 0 0-.674.572 1.366 1.366 0 0 0-.234.864c.02.312.122.595.308.85.185.253.424.43.717.527l16.963 5.654v16.904c0 .332.093.625.279.88.185.253.424.439.717.556l.264.058c.078.02.166.03.264.03.214 0 .424-.05.63-.147.205-.097.376-.234.512-.41l8.291-10.224 13.506 13.33c.137.136.298.244.483.322.186.078.376.117.572.117.058 0 .117-.005.176-.015.058-.01.127-.024.205-.044.254-.058.473-.18.659-.366.185-.185.317-.405.395-.659l15-51.006a1.465 1.465 0 0 0 0-.82 1.486 1.486 0 0 0-.44-.703z" fill="#FFF" fill-rule="nonzero"/><path d="M17.991211 32.5850186L52.6923829 7.51910063 28.9482422 40.231503"/></g><g transform="translate(131 8.033)" stroke="#004B8C" stroke-width="2"><path d="M87.5 23.73H7.52c-2.368 0-4.916 2.344-5.957 4.2C.52 29.785 0 31.624 0 33.447v41.02c0 2.083.732 3.857 2.197 5.322 1.465 1.465 3.24 2.197 5.323 2.197H87.5c2.083 0 3.857-.732 5.322-2.197 1.465-1.465 2.198-3.239 2.198-5.322v-41.02c0-1.823-.521-3.662-1.563-5.517-1.042-1.856-3.457-4.2-5.957-4.2z" fill="#FFF" fill-rule="nonzero"/><path d="M2.563 26.93c24.87 16.933 38.715 26.15 41.534 27.651 2.299 1.225 4.542 1.263 6.86 0 3.001-1.635 16.835-10.852 41.5-27.651"/></g><path d="M73.406 133.112c8.806-6.495 44.66-30.487 36.447-50.195-9.436-22.643-41.885-11.546-38.294 10.076 3.329 20.044 40.591 46.57 70.617 36.339 20.017-6.822 31.7-18.399 35.05-34.731" stroke="#004B8C" stroke-width="2" stroke-dasharray="9"/></g></svg>