<svg xmlns="http://www.w3.org/2000/svg" width="39" height="31">
  <g fill="none" fill-rule="evenodd">
    <path d="M1 25l36-8v10a2 2 0 0 1-2 2H3a2 2 0 0 1-2-2v-2z" fill-opacity=".2" fill="#156CC4"/>
    <path
      d="M36.992 30.008H1.016a.982.982 0 0 1-.723-.293.982.982 0 0 1-.293-.723v-20c0-.26.098-.488.293-.683a.982.982 0 0 1 .723-.293h35.976c.287 0 .528.097.723.293a.937.937 0 0 1 .293.683v20a.982.982 0 0 1-.293.723.982.982 0 0 1-.723.293zm-35-1.992h34.024V10.008H1.992v18.008zM35 5.984H3.008a.982.982 0 0 1-.723-.293.937.937 0 0 1-.293-.683c0-.287.098-.528.293-.723a.982.982 0 0 1 .723-.293H35c.286 0 .527.098.723.293a.982.982 0 0 1 .293.723c0 .26-.098.488-.293.683a.982.982 0 0 1-.723.293zM33.008 2H5a.982.982 0 0 1-.723-.293.982.982 0 0 1-.293-.723c0-.26.098-.488.293-.683A.982.982 0 0 1 5 .008h28.008c.26 0 .488.097.683.293a.937.937 0 0 1 .293.683.982.982 0 0 1-.293.723.937.937 0 0 1-.683.293zm-9.492 20.117c.234.156.384.365.449.625a.985.985 0 0 1-.098.742c-.416.756-1.054 1.361-1.914 1.817a5.677 5.677 0 0 1-2.695.683 5.31 5.31 0 0 1-1.934-.37 5.513 5.513 0 0 1-1.699-1.036 5.391 5.391 0 0 1-.977-1.21A4.698 4.698 0 0 1 14.102 22h-1.094a.982.982 0 0 1-.723-.293.982.982 0 0 1-.293-.723c0-.26.098-.488.293-.683a.982.982 0 0 1 .723-.293h.976v-1.992h-.976a.982.982 0 0 1-.723-.293.982.982 0 0 1-.293-.723c0-.286.098-.527.293-.723a.982.982 0 0 1 .723-.293h1.094a4.45 4.45 0 0 1 .546-1.347c.26-.43.586-.827.977-1.192a5.16 5.16 0 0 1 1.7-1.074A5.31 5.31 0 0 1 19.257 12c.937 0 1.836.234 2.695.703.86.469 1.498 1.068 1.914 1.797.13.234.163.488.098.762a.898.898 0 0 1-.45.605c-.26.13-.52.163-.78.098a.89.89 0 0 1-.587-.45c-.26-.442-.664-.807-1.21-1.093a3.58 3.58 0 0 0-1.68-.43c-.677 0-1.296.195-1.856.586-.56.39-.957.86-1.191 1.406h2.773c.287 0 .528.098.723.293A.982.982 0 0 1 20 17a.982.982 0 0 1-.293.723.982.982 0 0 1-.723.293h-2.968v1.992h2.968c.287 0 .528.097.723.293a.937.937 0 0 1 .293.683.982.982 0 0 1-.293.723.982.982 0 0 1-.723.293h-2.773c.234.573.631 1.048 1.191 1.426.56.377 1.179.566 1.856.566a3.58 3.58 0 0 0 1.68-.43c.546-.286.95-.638 1.21-1.054a.961.961 0 0 1 .586-.469c.26-.078.521-.052.782.078z"
      fill="#004B8C" fill-rule="nonzero"/>
  </g>
</svg>
