<svg xmlns="http://www.w3.org/2000/svg" width="40" height="36">
  <g fill="none" fill-rule="evenodd">
    <path
      d="M19 32.963h15.65l.36-10.967 4.5-4.99-4.5-4.964-1.026-6.136-4.874-3.91c-3.528 2.277-6.177 6.28-7.947 12.012-1.77 5.73-2.49 12.049-2.163 18.955z"
      fill-opacity=".2" fill="#156CC4"/>
    <path
      d="M9.004 36H6.992a.959.959 0 0 1-.703-.293.959.959 0 0 1-.293-.703c0-.274.098-.508.293-.703a.959.959 0 0 1 .703-.293h2.012c.273 0 .508.097.703.293.195.195.293.43.293.703a.959.959 0 0 1-.293.703.959.959 0 0 1-.703.293zm24.004 0h-2.012a.959.959 0 0 1-.703-.293.959.959 0 0 1-.293-.703c0-.274.098-.508.293-.703a.959.959 0 0 1 .703-.293h2.012c.273 0 .508.097.703.293.195.195.293.43.293.703a.959.959 0 0 1-.293.703.959.959 0 0 1-.703.293zm2.969-23.906a5.007 5.007 0 0 1 1.601.625 4.939 4.939 0 0 1 2.12 2.559c.201.546.302 1.12.302 1.718a4.9 4.9 0 0 1-.303 1.729 4.97 4.97 0 0 1-.84 1.455c-.358.43-.78.794-1.27 1.093-.487.3-1.018.508-1.59.625V31a2.9 2.9 0 0 1-.88 2.129 2.877 2.877 0 0 1-2.11.879H6.993c-.82 0-1.523-.293-2.11-.88A2.9 2.9 0 0 1 4.005 31v-9.102a4.897 4.897 0 0 1-1.592-.625 5.131 5.131 0 0 1-1.27-1.093 4.97 4.97 0 0 1-.84-1.455A4.9 4.9 0 0 1 0 16.996c0-.599.1-1.172.303-1.719a4.939 4.939 0 0 1 2.119-2.558 5.007 5.007 0 0 1 1.601-.625c.026-1.25.144-2.393.352-3.428.208-1.035.501-1.97.879-2.803A8.849 8.849 0 0 1 6.65 3.666a8.843 8.843 0 0 1 1.944-1.65c.69-.417 1.435-.756 2.236-1.016.8-.26 1.67-.465 2.607-.615.938-.15 1.954-.25 3.047-.303A74.142 74.142 0 0 1 20 .004c1.25 0 2.422.026 3.516.078 1.093.052 2.109.153 3.047.303.937.15 1.806.355 2.607.615.8.26 1.546.599 2.236 1.016a8.843 8.843 0 0 1 1.944 1.65 8.849 8.849 0 0 1 1.396 2.197c.378.834.67 1.768.879 2.803.208 1.035.326 2.178.352 3.428zM9.648 3.734a6.036 6.036 0 0 0-1.533 1.309 7.388 7.388 0 0 0-1.103 1.816c-.3.69-.53 1.472-.694 2.344a19.905 19.905 0 0 0-.302 2.91 4.915 4.915 0 0 1 2.841 1.71c.358.435.638.924.84 1.464.202.54.303 1.11.303 1.71v3.007h20v-3.008c0-.599.1-1.169.303-1.709.202-.54.482-1.029.84-1.465a4.915 4.915 0 0 1 2.842-1.709 19.905 19.905 0 0 0-.303-2.91 10.908 10.908 0 0 0-.694-2.344 7.388 7.388 0 0 0-1.103-1.816 6.036 6.036 0 0 0-1.533-1.309 8.689 8.689 0 0 0-1.944-.888 14.433 14.433 0 0 0-2.353-.528c-.86-.123-1.79-.208-2.793-.254A72.144 72.144 0 0 0 20 1.996c-1.172 0-2.26.023-3.262.068-1.002.046-1.933.13-2.793.254-.86.124-1.644.3-2.353.528a8.689 8.689 0 0 0-1.944.888zM10 25.004c0 .273.098.508.293.703.195.195.43.293.703.293h18.008a.959.959 0 0 0 .703-.293.959.959 0 0 0 .293-.703v-3.008H10v3.008zm25-5a2.9 2.9 0 0 0 2.129-.879 2.9 2.9 0 0 0 .879-2.129c0-.82-.293-1.523-.88-2.11A2.9 2.9 0 0 0 35 14.009a2.9 2.9 0 0 0-2.129.879 2.877 2.877 0 0 0-.879 2.11v8.007c0 .82-.293 1.523-.879 2.11a2.877 2.877 0 0 1-2.11.878H10.997c-.82 0-1.523-.293-2.11-.879a2.877 2.877 0 0 1-.878-2.11v-8.007c0-.82-.293-1.523-.88-2.11A2.9 2.9 0 0 0 5 14.009a2.9 2.9 0 0 0-2.129.879 2.877 2.877 0 0 0-.879 2.11 2.9 2.9 0 0 0 .88 2.128A2.9 2.9 0 0 0 5 20.004c.273 0 .508.098.703.293.195.195.293.43.293.703v10c0 .273.098.508.293.703.195.195.43.293.703.293h26.016a.959.959 0 0 0 .703-.293.959.959 0 0 0 .293-.703V21c0-.273.098-.508.293-.703a.959.959 0 0 1 .703-.293z"
      fill="#004B8C" fill-rule="nonzero"/>
  </g>
</svg>
