<svg xmlns="http://www.w3.org/2000/svg" width="41" height="37">
  <g fill="none" fill-rule="evenodd">
    <path
      d="M5.388 24.847c.43 2.38 2.421 4.039 5.972 4.975v5.505h4.115l1.443-3.466h3.052c1.034 0 2.414-.26 4.141-.778l1.047 4.244h3.434c.284-1.58.985-3.414 2.103-5.505.759-1.42 8.693-11.598 2.597-18.822 2.763 10.991-12.757 22.824-27.904 13.847z"
      fill-opacity=".2" fill="#156CC4"/>
    <path
      d="M3.672 26.14c-.339 0-.716-.123-1.133-.37-.417-.248-.755-.762-1.016-1.543L.47 20.828c-.183-.547-.26-1.061-.235-1.543a2.56 2.56 0 0 1 .391-1.27c.182-.26.469-.52.86-.78.39-.261.95-.417 1.68-.47.468-.051.813-.169 1.034-.35.222-.183.45-.704.684-1.563.416-1.51.794-2.644 1.133-3.399.338-.755 1.185-1.51 2.539-2.265l.625-6.211c.026-.183.09-.345.195-.489a.782.782 0 0 1 .39-.293.797.797 0 0 1 .938.157l4.024 4.101c.729-.286 1.289-.534 1.68-.742.39-.208.976-.378 1.757-.508a2.786 2.786 0 0 1-.176-.586 3.385 3.385 0 0 1-.058-.625c0-1.041.364-1.927 1.093-2.656.73-.73 1.615-1.094 2.657-1.094 1.015 0 1.888.365 2.617 1.094.729.73 1.094 1.615 1.094 2.656 0 .209-.013.41-.04.606a2.769 2.769 0 0 1-.156.605c1.667.26 3.093.612 4.278 1.055 1.185.443 2.324 1.146 3.418 2.11 1.12.963 1.907 1.985 2.363 3.066.456 1.08.8 2.363 1.035 3.847a2.887 2.887 0 0 1 1.133-.234c.781 0 1.445.273 1.992.82.547.547.82 1.211.82 1.992 0 .365-.071.717-.214 1.055a2.804 2.804 0 0 1-.606.898.854.854 0 0 1-.332.215c-.117.04-.228.059-.332.059a.995.995 0 0 1-.352-.059.899.899 0 0 1-.312-.215.882.882 0 0 1-.273-.644c0-.247.09-.462.273-.645.078-.104.143-.214.195-.332a.82.82 0 0 0 .078-.332.904.904 0 0 0-.273-.664.904.904 0 0 0-.664-.273.86.86 0 0 0-.625.273.904.904 0 0 0-.274.664 13.89 13.89 0 0 1-.742 4.493 13.446 13.446 0 0 1-2.187 4.023c-.573.73-1.23 2.005-1.973 3.828a38.305 38.305 0 0 0-1.738 5.274l-.215.507c-.143.339-.462.508-.957.508h-3.828a.995.995 0 0 1-.352-.058.899.899 0 0 1-.312-.215.96.96 0 0 1-.274-.664c.026-.521.013-1.048-.039-1.582s-.104-1.035-.156-1.504a.642.642 0 0 0-.02-.157.642.642 0 0 1-.02-.156c-1.431.365-2.564.586-3.398.664-.833.078-1.81.026-2.93-.156l-.37 1.27c-.248.846-.41 1.386-.489 1.62-.078.261-.22.482-.43.665a1.04 1.04 0 0 1-.702.273h-4.22a.86.86 0 0 1-.624-.273.904.904 0 0 1-.274-.664c0-.235.007-.443.02-.625l.02-.274c.078-.65.156-1.315.234-1.992.078-.677.143-1.315.195-1.914-1.458-.365-2.526-.833-3.203-1.406s-1.615-1.64-2.812-3.203H3.672zm24.492 8.516a31.96 31.96 0 0 1 1.7-5.293c.741-1.784 1.49-3.157 2.245-4.12a11.988 11.988 0 0 0 2.54-7.383c0-1.98-.274-3.633-.82-4.962-.574-1.328-1.342-2.408-2.306-3.242a9.654 9.654 0 0 0-3.359-1.875 20.845 20.845 0 0 0-4.18-.86 4.095 4.095 0 0 1-1.054.567c-.39.144-.808.215-1.25.215-.443 0-.86-.065-1.25-.195a3.226 3.226 0 0 1-1.055-.586c-.964.13-1.732.312-2.305.547-.573.234-1.289.534-2.148.898a.843.843 0 0 1-.508.078.808.808 0 0 1-.469-.234L10.86 4.93l-.507 4.922c0 .156-.046.299-.137.43a.974.974 0 0 1-.371.312c-.782.416-1.387.872-1.817 1.367-.43.495-.879 1.628-1.347 3.398-.26.99-.619 1.758-1.075 2.305-.455.547-1.217.872-2.285.977-.286 0-.527.039-.722.117-.196.078-.332.182-.41.312-.079.104-.111.26-.098.47.013.207.058.455.137.741l1.093 3.36c.052.13.111.267.176.41.065.143.124.215.176.215h1.523c.157 0 .3.032.43.097s.234.163.313.293c1.171 1.589 2.057 2.63 2.656 3.125.599.495 1.718.938 3.36 1.328.207.052.377.17.507.352.13.182.195.39.195.625-.052.651-.117 1.38-.195 2.187-.078.808-.17 1.602-.274 2.383h2.696l.937-3.32a.914.914 0 0 1 .43-.527.909.909 0 0 1 .664-.098c1.25.26 2.357.338 3.32.234.964-.104 2.318-.39 4.063-.86a.675.675 0 0 1 .39-.038c.13.026.26.078.391.156a.867.867 0 0 1 .254.313c.065.13.11.26.137.39 0 .209.013.423.039.645l.078.683a30.73 30.73 0 0 1 .234 2.422h2.344zM9.804 14.11c.261 0 .482.092.665.274a.904.904 0 0 1 .273.664c0 .26-.091.482-.273.664a.904.904 0 0 1-.664.273.904.904 0 0 1-.664-.273.904.904 0 0 1-.274-.664c0-.26.091-.482.274-.664a.904.904 0 0 1 .664-.274zm15.04-5.312c.26.026.468.143.625.351a.972.972 0 0 1 .195.704c-.052.26-.176.468-.371.625a.794.794 0 0 1-.684.156 16.446 16.446 0 0 0-2.675-.098c-.925.04-1.856.163-2.793.371h-.196a.913.913 0 0 1-.898-.742.87.87 0 0 1 .137-.684.89.89 0 0 1 .566-.41 16.431 16.431 0 0 1 3.086-.41 17.53 17.53 0 0 1 3.008.137zm-3.164-6.68c-.521 0-.964.182-1.328.547a1.808 1.808 0 0 0-.547 1.328c0 .521.182.964.547 1.328.364.365.807.547 1.328.547.52 0 .963-.182 1.328-.547.364-.364.547-.807.547-1.328 0-.52-.183-.963-.547-1.328a1.808 1.808 0 0 0-1.328-.547z"
      fill="#004B8C" fill-rule="nonzero"/>
  </g>
</svg>
