<svg xmlns="http://www.w3.org/2000/svg" width="39" height="41">
  <g fill="none" fill-rule="evenodd">
    <path fill-opacity=".2" fill="#156CC4"
          d="M15.2141113 8.38598633L36.4382324 27.7026367 27.0046387 27.7026367 30.8146973 37.829834 28.5236816 38.876709z"/>
    <path
      d="M6.992 39H3.008a2.9 2.9 0 0 1-2.13-.879A2.9 2.9 0 0 1 0 35.992v-3.984a2.9 2.9 0 0 1 .879-2.13A2.9 2.9 0 0 1 3.008 29h3.984a2.9 2.9 0 0 1 2.13.879A2.9 2.9 0 0 1 10 32.008v3.984a2.9 2.9 0 0 1-.879 2.13A2.9 2.9 0 0 1 6.992 39zm-3.984-8.008a.982.982 0 0 0-.723.293.982.982 0 0 0-.293.723v3.984c0 .287.098.528.293.723a.982.982 0 0 0 .723.293h3.984a.982.982 0 0 0 .723-.293.982.982 0 0 0 .293-.723v-3.984a.982.982 0 0 0-.293-.723.982.982 0 0 0-.723-.293H3.008zm3.984-5.976H3.008a2.9 2.9 0 0 1-2.13-.88A2.9 2.9 0 0 1 0 22.009v-4.024c0-.807.293-1.504.879-2.09a2.9 2.9 0 0 1 2.129-.878h3.984a2.9 2.9 0 0 1 2.13.879c.585.585.878 1.282.878 2.09v4.023a2.9 2.9 0 0 1-.879 2.129 2.9 2.9 0 0 1-2.129.879zm-3.984-8.008a.982.982 0 0 0-.723.293.937.937 0 0 0-.293.683v4.024c0 .26.098.488.293.683a.982.982 0 0 0 .723.293h3.984a.982.982 0 0 0 .723-.293.937.937 0 0 0 .293-.683v-4.024a.937.937 0 0 0-.293-.683.982.982 0 0 0-.723-.293H3.008zm33.984 5.976a.937.937 0 0 1-.683-.293.937.937 0 0 1-.293-.683v-4.024a.937.937 0 0 0-.293-.683.982.982 0 0 0-.723-.293h-3.984a.982.982 0 0 1-.723-.293.982.982 0 0 1-.293-.723c0-.26.098-.488.293-.683a.982.982 0 0 1 .723-.293H35a2.9 2.9 0 0 1 2.129.879c.586.585.879 1.282.879 2.09v4.023c0 .26-.098.488-.293.683a.982.982 0 0 1-.723.293zm-30-11.992H3.008a2.9 2.9 0 0 1-2.13-.879A2.9 2.9 0 0 1 0 7.984V4a2.9 2.9 0 0 1 .879-2.129A2.9 2.9 0 0 1 3.008.992h3.984a2.9 2.9 0 0 1 2.13.88A2.9 2.9 0 0 1 10 4v3.984a2.9 2.9 0 0 1-.879 2.13 2.9 2.9 0 0 1-2.129.878zM3.008 2.984a.982.982 0 0 0-.723.293.982.982 0 0 0-.293.723v3.984c0 .287.098.528.293.723A.982.982 0 0 0 3.008 9h3.984a.982.982 0 0 0 .723-.293.982.982 0 0 0 .293-.723V4a.982.982 0 0 0-.293-.723.982.982 0 0 0-.723-.293H3.008zm20 6.016a.982.982 0 0 1-.723-.293.982.982 0 0 1-.293-.723V4a.982.982 0 0 0-.293-.723.937.937 0 0 0-.683-.293h-4.024a.937.937 0 0 0-.683.293.982.982 0 0 0-.293.723.982.982 0 0 1-.293.723.982.982 0 0 1-.723.293.982.982 0 0 1-.723-.293.982.982 0 0 1-.293-.723 2.9 2.9 0 0 1 .88-2.129 2.9 2.9 0 0 1 2.128-.879h4.024c.807 0 1.504.293 2.09.88A2.9 2.9 0 0 1 23.983 4v3.984a.982.982 0 0 1-.293.723.937.937 0 0 1-.683.293zM35 10.992h-3.984a2.9 2.9 0 0 1-2.13-.879 2.9 2.9 0 0 1-.878-2.129V4a2.9 2.9 0 0 1 .879-2.129 2.9 2.9 0 0 1 2.129-.879H35a2.9 2.9 0 0 1 2.129.88A2.9 2.9 0 0 1 38.008 4v3.984a2.9 2.9 0 0 1-.88 2.13 2.9 2.9 0 0 1-2.128.878zm-3.984-8.008a.982.982 0 0 0-.723.293A.982.982 0 0 0 30 4v3.984c0 .287.098.528.293.723a.982.982 0 0 0 .723.293H35a.982.982 0 0 0 .723-.293.982.982 0 0 0 .293-.723V4a.982.982 0 0 0-.293-.723.982.982 0 0 0-.723-.293h-3.984zm-5 38.008a1.06 1.06 0 0 1-.567-.156.9.9 0 0 1-.37-.469l-3.4-8.476-5.937 6.757c-.13.157-.3.26-.508.313a.897.897 0 0 1-.586-.04.869.869 0 0 1-.468-.35.99.99 0 0 1-.196-.587v-30c0-.182.059-.358.176-.527a1.058 1.058 0 0 1 1.016-.45.824.824 0 0 1 .488.235l21.992 20c.157.156.26.332.313.528a.974.974 0 0 1-.04.605 1.034 1.034 0 0 1-.937.625h-8.515l3.437 8.633a.967.967 0 0 1 0 .762.949.949 0 0 1-.547.527l-5 1.992a.905.905 0 0 1-.352.078zM21.992 29h.195c.157.026.3.098.43.215.13.117.235.254.313.41l3.633 9.063 3.125-1.25-3.633-9.063a1.23 1.23 0 0 1-.059-.488.801.801 0 0 1 .176-.45 1.22 1.22 0 0 1 .371-.312.925.925 0 0 1 .45-.117h7.421L16.016 10.25v25.078l5.234-5.976c.104-.105.221-.19.352-.254a.867.867 0 0 1 .39-.098z"
      fill="#004B8C" fill-rule="nonzero"/>
  </g>
</svg>
