<svg xmlns="http://www.w3.org/2000/svg" width="40" height="43">
  <g fill="none" fill-rule="evenodd">
    <path
      d="M19.035 39.51C22 26.685 22 14.157 19.035 2.04c3.804 1.858 12.277 5.285 18.13 6.2.124 3.255.124 5.656-1.457 10.828-3.472 11.356-11.553 18.323-16.673 20.443z"
      fill-opacity=".2" fill="#156CC4"/>
    <path
      d="M19.16 40.992h-.332a.347.347 0 0 1-.156-.039c-.912-.312-1.875-.794-2.89-1.445a22.19 22.19 0 0 1-3.067-2.305 35.247 35.247 0 0 1-3.027-3.047 43.688 43.688 0 0 1-2.774-3.593c-.781-1.146-1.588-2.487-2.422-4.024-.807-1.536-1.543-3.249-2.207-5.137-.664-1.888-1.217-3.951-1.66-6.191C.208 12.97 0 10.563 0 7.984c0-.26.098-.488.293-.683a.982.982 0 0 1 .723-.293c1.406 0 2.955-.209 4.648-.625a55.481 55.481 0 0 0 5.059-1.563 45.617 45.617 0 0 0 4.55-1.914c1.38-.65 2.435-1.237 3.165-1.758.182-.104.37-.156.566-.156.195 0 .384.052.566.156.73.521 1.784 1.107 3.164 1.758 1.38.677 2.891 1.315 4.532 1.914 1.64.6 3.32 1.12 5.039 1.563 1.718.416 3.28.625 4.687.625.287 0 .528.097.723.293a.937.937 0 0 1 .293.683c0 2.579-.222 4.987-.664 7.227-.417 2.24-.957 4.303-1.621 6.191s-1.413 3.6-2.246 5.137c-.808 1.537-1.602 2.878-2.383 4.023a38.956 38.956 0 0 1-2.813 3.594 37.067 37.067 0 0 1-3.008 3.047 21.313 21.313 0 0 1-3.046 2.305c-1.016.65-1.993 1.133-2.93 1.445-.026.026-.072.04-.137.04zM2.031 8.961c.052 2.318.287 4.492.703 6.523a40.39 40.39 0 0 0 1.563 5.586 35.678 35.678 0 0 0 2.07 4.688 43.9 43.9 0 0 0 2.227 3.672 32.907 32.907 0 0 0 2.734 3.515 29.63 29.63 0 0 0 2.774 2.793 24.424 24.424 0 0 0 2.617 2.012c.833.52 1.588.911 2.265 1.172.677-.26 1.446-.651 2.305-1.172a24.424 24.424 0 0 0 2.617-2.012 29.63 29.63 0 0 0 2.774-2.793 32.907 32.907 0 0 0 2.734-3.515 43.9 43.9 0 0 0 2.227-3.672 35.678 35.678 0 0 0 2.07-4.688 40.39 40.39 0 0 0 1.562-5.586c.417-2.03.651-4.205.704-6.523a24.483 24.483 0 0 1-4.961-.86 63.088 63.088 0 0 1-4.493-1.406 54.855 54.855 0 0 1-4.12-1.718c-1.342-.625-2.481-1.224-3.419-1.797-.911.573-2.037 1.172-3.379 1.797a54.855 54.855 0 0 1-4.12 1.718c-1.303.47-2.8.938-4.493 1.407a24.483 24.483 0 0 1-4.96.859zm14.961 17.031a.904.904 0 0 1-.37-.078 1.708 1.708 0 0 1-.333-.195l-3.984-4.024a.87.87 0 0 1-.313-.683c0-.274.104-.515.313-.723a.927.927 0 0 1 .683-.273c.274 0 .515.09.723.273l3.281 3.281 9.297-9.297c.208-.182.45-.273.723-.273.273 0 .501.091.683.273a.992.992 0 0 1 0 1.446l-10 10a.917.917 0 0 1-.312.195c-.13.052-.26.078-.39.078z"
      fill="#004B8C" fill-rule="nonzero"/>
  </g>
</svg>
