<svg xmlns="http://www.w3.org/2000/svg" width="40" height="41">
  <g fill="none" fill-rule="evenodd">
    <path
      d="M37 30a2 2 0 0 1 2 2v6a2 2 0 0 1-2 2h-4c1.333-1.376 2-3.043 2-5 0-1.957-.667-3.624-2-5h4zM24.503 4.914c2.495.51 5.03 5.413 4.146 10.049-.884 4.636-6.287 7.545-11.198 6.962C12.54 21.34 10 15.81 10 13.797c2.232 2.596 7.451 4.316 11.062 1.793 3.611-2.523 4.706-7.046 3.441-10.676z"
      fill-opacity=".2" fill="#156CC4"/>
    <path
      d="M18.984 22.984c-1.51 0-2.93-.286-4.257-.859a11.296 11.296 0 0 1-3.497-2.344 10.785 10.785 0 0 1-2.363-3.515 10.634 10.634 0 0 1-.86-4.258c0-1.51.287-2.943.86-4.297a10.897 10.897 0 0 1 2.363-3.477 11.883 11.883 0 0 1 3.497-2.382 10.634 10.634 0 0 1 4.257-.86c1.537 0 2.97.287 4.297.86a11.883 11.883 0 0 1 3.496 2.382c1.003.99 1.79 2.149 2.364 3.477.573 1.354.859 2.786.859 4.297 0 1.51-.286 2.93-.86 4.258a10.785 10.785 0 0 1-2.363 3.515 11.296 11.296 0 0 1-3.496 2.344c-1.328.573-2.76.86-4.297.86zm0-20a8.338 8.338 0 0 0-3.476.743 9.24 9.24 0 0 0-2.871 1.914 8.843 8.843 0 0 0-1.934 2.851A8.83 8.83 0 0 0 10 12.008c0 1.224.234 2.383.703 3.476a9.071 9.071 0 0 0 1.934 2.871 9.071 9.071 0 0 0 2.87 1.934 8.733 8.733 0 0 0 3.477.703 8.83 8.83 0 0 0 3.516-.703 9.071 9.071 0 0 0 2.871-1.934 9.071 9.071 0 0 0 1.934-2.87 8.733 8.733 0 0 0 .703-3.477 8.83 8.83 0 0 0-.703-3.516 8.843 8.843 0 0 0-1.934-2.851A9.24 9.24 0 0 0 22.5 3.727a8.43 8.43 0 0 0-3.516-.743zm4.024 38.008h-20a2.9 2.9 0 0 1-2.13-.879A2.9 2.9 0 0 1 0 37.984c0-.052.104-.761.313-2.129.208-1.367.924-2.858 2.148-4.472a13.083 13.083 0 0 1 2.5-2.52 15.247 15.247 0 0 1 3.242-1.894c1.458-.651 3.093-1.14 4.902-1.465 1.81-.326 3.77-.488 5.88-.488 1.12 0 2.193.039 3.222.117a24.19 24.19 0 0 1 2.91.39.974.974 0 0 1 .664.43.955.955 0 0 1 .157.742.974.974 0 0 1-.43.664.955.955 0 0 1-.742.157 22.943 22.943 0 0 0-2.774-.391 37.24 37.24 0 0 0-3.008-.117c-1.744 0-3.372.117-4.882.351-1.537.235-2.93.586-4.18 1.055a14.644 14.644 0 0 0-3.36 1.758c-.99.703-1.822 1.51-2.5 2.422-1.015 1.354-1.614 2.59-1.796 3.71l-.274 1.68c0 .287.098.528.293.723a.982.982 0 0 0 .723.293h20c.26 0 .488.098.683.293a.982.982 0 0 1 .293.723c0 .26-.097.488-.293.683a.937.937 0 0 1-.683.293zm15-11.836a3.002 3.002 0 0 1 1.426 1.094c.377.52.566 1.107.566 1.758v5.976a2.9 2.9 0 0 1-.879 2.13 2.9 2.9 0 0 1-2.129.878h-8.008c-.807 0-1.504-.293-2.09-.879a2.9 2.9 0 0 1-.878-2.129v-5.976c0-.651.182-1.237.547-1.758.364-.52.846-.885 1.445-1.094v-1.172c0-1.38.488-2.558 1.465-3.535.976-.976 2.155-1.465 3.535-1.465 1.38 0 2.558.489 3.535 1.465.977.977 1.465 2.155 1.465 3.535v1.172zm-5-4.14a2.9 2.9 0 0 0-2.13.879c-.585.585-.878 1.282-.878 2.09V29h6.016v-1.016c0-.807-.293-1.504-.88-2.09a2.9 2.9 0 0 0-2.128-.878zm5 6.992a.982.982 0 0 0-.293-.723.982.982 0 0 0-.723-.293h-8.008a.937.937 0 0 0-.683.293.982.982 0 0 0-.293.723v5.976c0 .287.097.528.293.723a.937.937 0 0 0 .683.293h8.008a.982.982 0 0 0 .723-.293.982.982 0 0 0 .293-.723v-5.976z"
      fill="#004B8C" fill-rule="nonzero"/>
  </g>
</svg>
