<svg
  width="80"
  height="80"
  viewBox="0 0 80 80"
  xmlns="http://www.w3.org/2000/svg"
  alt="user lock"
>
  <g fill="none" fill-rule="evenodd">
    <circle
      stroke="#D7D7D7"
      fill="#FFF"
      cx="40"
      cy="40"
      r="39.5"
    ></circle>
    <path
      d="M57 50a2 2 0 012 2v6a2 2 0 01-2 2h-4c1.333-1.376 2-3.043 2-5 0-1.957-.667-3.624-2-5h4zM45.622 24.914c2.495.51 3.297 4.544 2.413 9.18-.884 4.636-5.023 7.691-9.935 7.107-4.91-.583-7.66-5.093-7.66-7.107 2.231 2.596 7.546 4.105 11.157 1.582 3.61-2.523 5.29-7.132 4.025-10.762z"
      fill-opacity=".2"
      fill="#156CC4"
    ></path>
    <path
      d="M38.984 41.992c-1.51 0-2.93-.286-4.257-.86a11.296 11.296 0 01-3.497-2.343 10.785 10.785 0 01-2.363-3.516 10.634 10.634 0 01-.86-4.257c0-1.51.287-2.943.86-4.297a10.897 10.897 0 012.363-3.477 11.883 11.883 0 013.497-2.383A10.634 10.634 0 0138.984 20c1.537 0 2.97.286 4.297.86a11.883 11.883 0 013.496 2.382c1.003.99 1.79 2.149 2.364 3.477.573 1.354.859 2.786.859 4.297 0 1.51-.286 2.93-.86 4.257a10.785 10.785 0 01-2.363 3.516 11.296 11.296 0 01-3.496 2.344c-1.328.573-2.76.86-4.297.86zm0-20a8.338 8.338 0 00-3.476.742 9.24 9.24 0 00-2.871 1.914 8.843 8.843 0 00-1.934 2.852A8.83 8.83 0 0030 31.016c0 1.224.234 2.382.703 3.476a9.071 9.071 0 001.934 2.871 9.071 9.071 0 002.87 1.934 8.733 8.733 0 003.477.703 8.83 8.83 0 003.516-.703 9.071 9.071 0 002.871-1.934 9.071 9.071 0 001.934-2.87 8.733 8.733 0 00.703-3.477 8.83 8.83 0 00-.703-3.516 8.843 8.843 0 00-1.934-2.852 9.24 9.24 0 00-2.871-1.914 8.43 8.43 0 00-3.516-.742zM43.008 60h-20a2.9 2.9 0 01-2.13-.879A2.9 2.9 0 0120 56.992c0-.052.104-.762.313-2.129.208-1.367.924-2.858 2.148-4.472a13.083 13.083 0 012.5-2.52 15.247 15.247 0 013.242-1.894c1.458-.651 3.093-1.14 4.902-1.465 1.81-.326 3.77-.489 5.88-.489 1.12 0 2.193.04 3.222.118a24.19 24.19 0 012.91.39.974.974 0 01.664.43.955.955 0 01.157.742.974.974 0 01-.43.664.955.955 0 01-.742.156 22.943 22.943 0 00-2.774-.39 37.24 37.24 0 00-3.008-.117c-1.744 0-3.372.117-4.882.351-1.537.235-2.93.586-4.18 1.055a14.644 14.644 0 00-3.36 1.758c-.99.703-1.822 1.51-2.5 2.422-1.015 1.354-1.614 2.59-1.796 3.71l-.274 1.68c0 .287.098.528.293.723a.982.982 0 00.723.293h20c.26 0 .488.097.683.293a.982.982 0 01.293.722c0 .26-.097.489-.293.684a.937.937 0 01-.683.293zm15-11.836a3.002 3.002 0 011.426 1.094c.377.52.566 1.107.566 1.758v5.976a2.9 2.9 0 01-.879 2.13 2.9 2.9 0 01-2.129.878h-8.008c-.807 0-1.504-.293-2.09-.879a2.9 2.9 0 01-.878-2.129v-5.976c0-.651.182-1.237.547-1.758.364-.521.846-.886 1.445-1.094v-1.172c0-1.38.488-2.558 1.465-3.535.976-.977 2.155-1.465 3.535-1.465 1.38 0 2.558.488 3.535 1.465.977.977 1.465 2.155 1.465 3.535v1.172zm-5-4.14a2.9 2.9 0 00-2.13.878c-.585.586-.878 1.283-.878 2.09v1.016h6.016v-1.016c0-.807-.293-1.504-.88-2.09a2.9 2.9 0 00-2.128-.879zm5 6.992a.982.982 0 00-.293-.723.982.982 0 00-.723-.293h-8.008a.937.937 0 00-.683.293.982.982 0 00-.293.723v5.976c0 .287.097.528.293.723a.937.937 0 00.683.293h8.008a.982.982 0 00.723-.293.982.982 0 00.293-.723v-5.976z"
      fill="#004B8C"
      fill-rule="nonzero"
    ></path>
  </g>
</svg>
