<?xml version="1.0" encoding="UTF-8"?>
<svg width="516px" height="338px" viewBox="0 0 516 338" version="1.1" xmlns="http://www.w3.org/2000/svg" xmlns:xlink="http://www.w3.org/1999/xlink">
    <g id="Page-1" stroke="none" stroke-width="1" fill="none" fill-rule="evenodd">
        <g id="KYC">
            <g id="Group">
                <rect id="Rectangle" fill="#C1C9F4" transform="translate(98.653100, 123.816300) rotate(-180.000000) translate(-98.653100, -123.816300) " x="45.8531" y="120.6663" width="105.6" height="6.3"></rect>
                <rect id="Rectangle" fill="#C1C9F4" x="24.6" y="230.7" width="50.7" height="6.3"></rect>
                <rect id="Rectangle" fill="#C1C9F4" x="448.8" y="104.4" width="50.7" height="6.3"></rect>
                <rect id="Rectangle" fill="#DCE2F9" x="405.5" y="217.1" width="70.7" height="6.3"></rect>
                <rect id="Rectangle" fill="#DCE2F9" x="389.5" y="244.9" width="126.1" height="6.3"></rect>
                <rect id="Rectangle" fill="#DCE2F9" transform="translate(72.898000, 205.174200) rotate(-180.000000) translate(-72.898000, -205.174200) " x="30.348" y="202.0242" width="85.1" height="6.3"></rect>
                <rect id="Rectangle" fill="#DCE2F9" transform="translate(83.722200, 188.497500) rotate(-180.000000) translate(-83.722200, -188.497500) " x="52.3722" y="185.3475" width="62.7" height="6.3"></rect>
                <rect id="Rectangle" fill="#DCE2F9" transform="translate(50.902100, 155.244300) rotate(-180.000000) translate(-50.902100, -155.244300) " x="0.9521" y="152.0943" width="99.9" height="6.3"></rect>
                <path d="M97.8,298.3 C92.5,298.3 88.1,292.9 88.1,286.4 L88.1,53.5 C88.1,46.9 92.4,41.6 97.8,41.6 L426.3,41.6 C431.6,41.6 436,47 436,53.5 L436,286.4 C436,293 431.7,298.3 426.3,298.3 L97.8,298.3 Z" id="Path" fill="#FFFFFF"></path>
                <rect id="Rectangle" fill="#C1C9F4" x="245.3" y="139" width="24.7" height="15.3"></rect>
                <g transform="translate(97.000000, 83.000000)">
                    <g transform="translate(36.000000, 42.000000)" fill="#EDEEEF" id="Path">
                        <path d="M58.2,65 C55.6,61.6 53.1,56.7 51.3,51.3 C45.5,57 39.1,60.4 35,60.5 C31.5,60.5 25.1,57.1 19.1,51.4 C18.3,55.9 16.8,60.5 14.3,64 C12.7,66.3 10.8,68 8.6,69.1 C7.7,69.6 6.7,70 5.7,70.2 C9.2,72.5 22.3,79.1 36.2,79.1 C52.6,79.1 62.7,72.5 66.1,69.9 C64.6,69.7 63.5,69.4 62.5,68.9 C60.8,68.1 59.5,66.8 58.2,65 Z"></path>
                        <path d="M8,28.9 L8.1,29.3 C9.4,36.9 13.5,43.6 18.3,48.7 C18.5,48.9 18.7,49.1 18.9,49.3 C19.1,49.5 19.3,49.7 19.5,49.9 C25.3,55.7 31.7,59.2 35.1,59.2 L35.1,59.9 L35.1,59.2 C39,59.2 45.3,55.7 50.9,50 C51.1,49.8 51.2,49.6 51.4,49.5 C51.6,49.3 51.8,49.1 51.9,48.9 C56.7,43.7 60.7,36.9 62,29.1 L62.1,28.8 L62.4,28.6 C64.9,27.2 68.7,23.6 68.7,19.4 C68.7,16.7 68.5,14.1 67.6,12.2 C67,11 66,10 64.6,9.4 L62.1,19.3 L61.8,20.7 L61.6,19.1 L59,0.8 C55.1,3.1 50.9,4.6 46.7,5.5 C38.5,7.3 30.2,7 23.3,5.9 C18.1,5.1 13.8,4 10.7,3 L8.5,19.3 L8.2,21.3 L7.6,19.5 L4.1,9.8 C3.4,10.2 2.8,10.7 2.4,11.4 C1,13.4 0.9,16.3 0.9,19.5 C0.9,24 4.9,27.7 7.7,29 L8,28.9 Z"></path>
                    </g>
                    <path d="M130.9,145.8 C130.9,150.3 127.2,154 122.7,154 L15.9,154 C11.4,154 7.7,150.3 7.7,145.8 L7.7,8.8 C7.7,4.3 11.4,0.6 15.9,0.6 L122.6,0.6 C127.1,0.6 130.8,4.3 130.8,8.8 L130.8,145.8 L130.9,145.8 Z" id="Path" fill="#E8EEFE"></path>
                    <path d="M95.2,107.2 C92.6,103.7 90,98.7 88.3,93.2 C93.4,87.8 97.8,80.7 99.3,72.5 C102.6,70.6 106,66.6 106,62.2 C106,58.7 105.7,55.2 103.9,52.9 C103.2,52 102.2,51.3 100.9,50.9 L100.7,51.6 L100.5,52.3 C102,52.9 102.9,53.8 103.5,55.1 C104.4,57 104.6,59.6 104.6,62.3 C104.6,66.6 100.8,70.2 98.3,71.5 L98,71.7 L98,72 C96.7,79.8 92.6,86.6 87.9,91.8 C87.7,92 87.5,92.2 87.4,92.4 C87.2,92.6 87.1,92.8 86.9,92.9 C81.3,98.6 75,102.1 71.1,102.1 L71.1,102.8 L71.1,102.1 C67.7,102.1 61.3,98.6 55.5,92.8 C55.3,92.6 55.1,92.4 54.9,92.2 C54.7,92 54.5,91.8 54.3,91.6 C49.5,86.5 45.4,79.8 44.1,72.2 L44,71.8 L43.7,71.7 C40.9,70.5 36.9,66.7 36.9,62.2 C36.9,59.1 37.1,56.1 38.4,54.1 C38.8,53.5 39.4,52.9 40.1,52.5 L39.9,51.8 L39.7,51.1 C39.1,51.4 38.6,51.8 38.2,52.2 C35.9,54.5 35.6,58.3 35.6,62.1 C35.6,66.7 39.3,70.9 42.9,72.7 C44.4,80.7 49,87.8 54.1,93.1 C53.3,97.7 51.9,102.4 49.3,106.1 C47,109.4 43.9,111.4 40.3,112 L39.6,112.2 L39.6,112.4 L39.6,112.8 C39.7,114.3 55.6,123.3 72.1,123.3 C92.6,123.3 103.7,113.2 104.1,112.7 L105,111.9 L105.3,111.6 L103.7,111.5 C98.8,111.5 97.2,109.8 95.2,107.2 Z M71,103.5 C75,103.5 81.5,100 87.3,94.3 C89.1,99.7 91.6,104.6 94.2,108 C95.6,109.8 96.8,111.1 98.5,111.9 C99.5,112.4 100.7,112.7 102.1,112.9 C98.7,115.5 88.6,122.1 72.2,122.1 C58.3,122.1 45.2,115.5 41.7,113.2 C42.7,112.9 43.7,112.6 44.6,112.1 C46.8,111 48.7,109.3 50.3,107 C52.8,103.5 54.3,98.9 55.1,94.4 C61,100 67.5,103.5 71,103.5 Z" id="Shape" fill="#B0BCED" fill-rule="nonzero"></path>
                    <path d="M103.6,31.2 C109.4,26.3 109.3,21 109.3,21 C105.2,28.4 96.6,21 86,19.8 C81.5,18.4 76.3,17.8 70.5,17.8 C51.8,17.8 35,27.4 38,51.2 C38.1,51.6 38.1,52 38.2,52.4 C38.6,52 39.1,51.6 39.7,51.3 L39.9,52 L40.1,52.7 L43.6,62.4 L44.2,64.2 L44.5,62.2 L46.7,45.9 C49.7,46.8 54.1,48 59.3,48.8 C66.2,49.9 74.5,50.2 82.7,48.4 C86.9,47.5 91,46 95,43.7 L97.6,62 L97.8,63.6 L98.1,62.2 L100.6,52.3 L100.8,51.6 L101,50.9 C102.3,51.4 103.3,52.1 104,52.9 C104.1,52.3 104.1,51.8 104.2,51.2 C104.7,45.8 104.4,41.2 103.4,37.2 C104.5,36.1 105.5,35 106.5,33.8 C106.3,33.8 105.5,32.7 103.6,31.2 Z" id="Path" fill="#C1C9F4"></path>
                    <path d="M105.1,112 L104.2,112.8 C103.7,113.2 92.7,123.4 72.2,123.4 C55.7,123.4 39.8,114.4 39.7,112.9 L39.7,112.5 C13.2,115.8 0.6,129.9 0.6,151.3 L0.6,154 L140.9,154 L140.9,151.3 C140.9,129.7 133.7,113.7 105.1,112 Z" id="Path" fill="#AEBAED"></path>
                </g>
                <rect id="Rectangle" fill="#EDEEEF" x="246" y="207.8" width="174.4" height="7.2"></rect>
                <rect id="Rectangle" fill="#EDEEEF" x="246" y="188.5" width="174.4" height="7.2"></rect>
                <rect id="Rectangle" fill="#EDEEEF" x="246" y="225.3" width="174.1" height="7.2"></rect>
                <rect id="Rectangle" fill="#C1C9F4" x="246" y="85.8" width="172.6" height="15.3"></rect>
                <g transform="translate(253.000000, 90.000000)" fill="#000000">
                    <path d="M5.9,3.8 C5.9,4.9 5.6,5.7 5,6.2 C4.4,6.8 3.6,7 2.5,7 L0.7,7 L0.7,0.6 L2.7,0.6 C3.7,0.6 4.5,0.9 5.1,1.4 C5.7,1.9 5.9,2.8 5.9,3.8 Z M4.8,3.8 C4.8,2.3 4.1,1.5 2.6,1.5 L1.7,1.5 L1.7,6.2 L2.4,6.2 C4,6.2 4.8,5.4 4.8,3.8 Z" id="Shape" fill-rule="nonzero"></path>
                    <path d="M13,3.8 C13,4.8 12.7,5.7 12.2,6.2 C11.7,6.8 10.9,7.1 10,7.1 C9,7.1 8.3,6.8 7.8,6.2 C7.3,5.6 7,4.8 7,3.7 C7,2.6 7.3,1.8 7.8,1.3 C8.3,0.7 9.1,0.4 10,0.4 C11,0.4 11.7,0.7 12.2,1.3 C12.7,1.9 13,2.8 13,3.8 Z M8.1,3.8 C8.1,4.6 8.3,5.2 8.6,5.6 C8.9,6 9.4,6.2 10,6.2 C10.6,6.2 11.1,6 11.4,5.6 C11.7,5.2 11.9,4.6 11.9,3.8 C11.9,3 11.7,2.4 11.4,2 C11.1,1.6 10.6,1.4 10,1.4 C9.4,1.4 8.9,1.6 8.6,2 C8.3,2.5 8.1,3.1 8.1,3.8 Z" id="Shape" fill-rule="nonzero"></path>
                    <path d="M15.4,4.5 L15.4,7.1 L14.3,7.1 L14.3,0.7 L16.1,0.7 C16.9,0.7 17.5,0.9 17.9,1.2 C18.3,1.5 18.5,2 18.5,2.6 C18.5,3.4 18.1,4 17.3,4.3 L19.1,7.1 L18,7.1 L16.5,4.5 L15.4,4.5 Z M15.4,3.6 L16.1,3.6 C16.6,3.6 16.9,3.5 17.2,3.3 C17.5,3.1 17.5,2.8 17.5,2.5 C17.5,2.1 17.4,1.9 17.1,1.7 C16.8,1.5 16.5,1.5 16,1.5 L15.3,1.5 L15.3,3.6 L15.4,3.6 Z" id="Shape" fill-rule="nonzero"></path>
                    <polygon id="Path" points="20.1 7.1 20.1 0.7 21.2 0.7 21.2 7.1"></polygon>
                    <path d="M26.9,7.1 L26.3,5.3 L23.8,5.3 L23.2,7.1 L22,7.1 L24.4,0.6 L25.5,0.6 L27.9,7.1 L26.9,7.1 Z M25.9,4.4 L25.3,2.7 C25.3,2.6 25.2,2.4 25.1,2.1 C25,1.8 25,1.7 24.9,1.5 C24.8,1.9 24.7,2.3 24.6,2.7 L24,4.4 L25.9,4.4 Z" id="Shape" fill-rule="nonzero"></path>
                    <path d="M34.2,7.1 L32.9,7.1 L29.7,2 L29.7,2.3 C29.7,2.8 29.8,3.3 29.8,3.8 L29.8,7.1 L28.8,7.1 L28.8,0.7 L30.1,0.7 L33.3,5.8 C33.3,5.7 33.3,5.5 33.3,5.1 C33.3,4.7 33.3,4.3 33.3,4.1 L33.3,0.7 L34.3,0.7 L34.3,7.1 L34.2,7.1 Z" id="Path"></path>
                </g>
                <rect id="Rectangle" fill="#C1C9F4" x="246" y="107.7" width="172.6" height="15.3"></rect>
                <g transform="translate(252.000000, 112.000000)" fill="#000000">
                    <path d="M0.9,8.8 C0.6,8.8 0.4,8.8 0.2,8.7 L0.2,7.8 C0.4,7.9 0.7,7.9 0.8,7.9 C1.4,7.9 1.7,7.5 1.7,6.8 L1.7,0.6 L2.8,0.6 L2.8,6.8 C2.8,7.5 2.6,8 2.3,8.3 C1.9,8.6 1.5,8.8 0.9,8.8 Z" id="Path"></path>
                    <path d="M10.1,3.8 C10.1,4.8 9.8,5.7 9.3,6.2 C8.8,6.8 8,7.1 7.1,7.1 C6.1,7.1 5.4,6.8 4.9,6.2 C4.4,5.6 4.1,4.8 4.1,3.7 C4.1,2.6 4.4,1.8 4.9,1.3 C5.4,0.7 6.2,0.4 7.1,0.4 C8.1,0.4 8.8,0.7 9.3,1.3 C9.8,1.9 10.1,2.8 10.1,3.8 Z M5.2,3.8 C5.2,4.6 5.4,5.2 5.7,5.6 C6,6 6.5,6.2 7.1,6.2 C7.7,6.2 8.2,6 8.5,5.6 C8.8,5.2 9,4.6 9,3.8 C9,3 8.8,2.4 8.5,2 C8.2,1.6 7.7,1.4 7.1,1.4 C6.5,1.4 6,1.6 5.7,2 C5.3,2.4 5.2,3 5.2,3.8 Z" id="Shape" fill-rule="nonzero"></path>
                    <polygon id="Path" points="16.5 7 15.4 7 15.4 4.1 12.4 4.1 12.4 7 11.3 7 11.3 0.6 12.4 0.6 12.4 3.2 15.4 3.2 15.4 0.6 16.5 0.6"></polygon>
                    <path d="M23.6,7 L22.3,7 L19.1,1.9 L19.1,2.2 C19.1,2.7 19.2,3.2 19.2,3.7 L19.2,7 L18.2,7 L18.2,0.6 L19.5,0.6 L22.7,5.7 C22.7,5.6 22.7,5.4 22.7,5 C22.7,4.6 22.7,4.2 22.7,4 L22.7,0.6 L23.7,0.6 L23.7,7 L23.6,7 Z" id="Path"></path>
                </g>
                <path d="M256.5,149.6 L254.6,144.2 C254.6,145 254.7,145.7 254.7,146.4 L254.7,149.5 L253.7,149.5 L253.7,143.1 L255.2,143.1 L257,148.2 L258.8,143.1 L260.3,143.1 L260.3,149.5 L259.3,149.5 L259.3,146.3 C259.3,146 259.3,145.6 259.3,145.1 C259.3,144.6 259.3,144.3 259.3,144.2 L257.4,149.6 L256.5,149.6 Z" id="Path" fill="#000000"></path>
                <rect id="Rectangle" fill="#C1C9F4" x="245.3" y="159.5" width="67.1" height="15.3"></rect>
                <g transform="translate(253.000000, 163.000000)" fill="#000000">
                    <path d="M3.4,1.6 C2.8,1.6 2.3,1.8 2,2.2 C1.7,2.6 1.5,3.2 1.5,4 C1.5,4.8 1.7,5.4 2,5.8 C2.3,6.2 2.8,6.4 3.4,6.4 C3.7,6.4 3.9,6.4 4.2,6.3 C4.5,6.2 4.7,6.2 5,6.1 L5,7 C4.5,7.2 3.9,7.3 3.3,7.3 C2.4,7.3 1.6,7 1.1,6.4 C0.6,5.8 0.3,5 0.3,4 C0.3,3.3 0.4,2.7 0.7,2.2 C0.9,1.7 1.3,1.3 1.8,1 C2.3,0.7 2.8,0.6 3.4,0.6 C4.1,0.6 4.7,0.7 5.2,1 L4.8,1.9 C4.6,1.8 4.4,1.7 4.1,1.6 C3.9,1.6 3.7,1.6 3.4,1.6 Z" id="Path"></path>
                    <path d="M10.4,7.2 L9.8,5.4 L7.3,5.4 L6.7,7.2 L5.6,7.2 L8,0.7 L9.1,0.7 L11.5,7.2 L10.4,7.2 Z M9.5,4.5 L8.9,2.8 C8.9,2.7 8.8,2.5 8.7,2.2 C8.6,1.9 8.6,1.8 8.5,1.6 C8.4,2 8.3,2.4 8.2,2.8 L7.6,4.5 L9.5,4.5 Z" id="Shape" fill-rule="nonzero"></path>
                    <polygon id="Path" points="12.3 7.2 12.3 0.8 13.4 0.8 13.4 6.3 16.1 6.3 16.1 7.2"></polygon>
                    <polygon id="Path" points="17.2 7.2 17.2 0.8 18.3 0.8 18.3 7.2"></polygon>
                    <polygon id="Path" points="21 7.2 20 7.2 20 0.8 23.6 0.8 23.6 1.7 21 1.7 21 3.7 23.4 3.7 23.4 4.6 21 4.6"></polygon>
                    <path d="M30.5,3.9 C30.5,4.9 30.2,5.8 29.7,6.3 C29.2,6.9 28.4,7.2 27.5,7.2 C26.5,7.2 25.8,6.9 25.3,6.3 C24.8,5.7 24.5,4.9 24.5,3.8 C24.5,2.7 24.8,1.9 25.3,1.4 C25.8,0.8 26.6,0.5 27.5,0.5 C28.5,0.5 29.2,0.8 29.7,1.4 C30.2,2 30.5,2.9 30.5,3.9 Z M25.6,3.9 C25.6,4.7 25.8,5.3 26.1,5.7 C26.4,6.1 26.9,6.3 27.5,6.3 C28.1,6.3 28.6,6.1 28.9,5.7 C29.2,5.3 29.4,4.7 29.4,3.9 C29.4,3.1 29.2,2.5 28.9,2.1 C28.6,1.7 28.1,1.5 27.5,1.5 C26.9,1.5 26.4,1.7 26.1,2.1 C25.7,2.6 25.6,3.2 25.6,3.9 Z" id="Shape" fill-rule="nonzero"></path>
                    <path d="M32.9,4.6 L32.9,7.2 L31.8,7.2 L31.8,0.8 L33.6,0.8 C34.4,0.8 35,1 35.4,1.3 C35.8,1.6 36,2.1 36,2.7 C36,3.5 35.6,4.1 34.8,4.4 L36.6,7.2 L35.4,7.2 L33.9,4.6 L32.9,4.6 Z M32.9,3.7 L33.6,3.7 C34.1,3.7 34.4,3.6 34.7,3.4 C35,3.2 35,2.9 35,2.6 C35,2.2 34.9,2 34.6,1.8 C34.3,1.6 34,1.6 33.5,1.6 L32.8,1.6 L32.8,3.7 L32.9,3.7 Z" id="Shape" fill-rule="nonzero"></path>
                    <path d="M43,7.2 L41.7,7.2 L38.5,2.1 L38.5,2.4 C38.5,2.9 38.6,3.4 38.6,3.9 L38.6,7.2 L37.6,7.2 L37.6,0.8 L38.9,0.8 L42.1,5.9 C42.1,5.8 42.1,5.6 42.1,5.2 C42.1,4.8 42.1,4.4 42.1,4.2 L42.1,0.8 L43.1,0.8 L43.1,7.2 L43,7.2 Z" id="Path"></path>
                    <polygon id="Path" points="44.6 7.2 44.6 0.8 45.7 0.8 45.7 7.2"></polygon>
                    <path d="M51.4,7.2 L50.8,5.4 L48.3,5.4 L47.7,7.2 L46.6,7.2 L49,0.7 L50.1,0.7 L52.5,7.2 L51.4,7.2 Z M50.5,4.5 L49.9,2.8 C49.9,2.7 49.8,2.5 49.7,2.2 C49.6,1.9 49.6,1.8 49.5,1.6 C49.4,2 49.3,2.4 49.2,2.8 L48.6,4.5 L50.5,4.5 Z" id="Shape" fill-rule="nonzero"></path>
                </g>
                <rect id="Rectangle" fill="#C1C9F4" x="335.7" y="139" width="112.5" height="15.3"></rect>
                <g transform="translate(343.000000, 143.000000)" fill="#000000">
                    <path d="M4.4,4.1 C4.4,5.2 4.2,6 3.9,6.6 C3.5,7.1 3,7.4 2.3,7.4 C1.6,7.4 1,7.1 0.7,6.6 C0.4,6.1 0.1,5.2 0.1,4.1 C0.1,3 0.3,2.1 0.6,1.6 C1,1.1 1.5,0.8 2.2,0.8 C2.9,0.8 3.5,1.1 3.8,1.6 C4.1,2.1 4.4,3 4.4,4.1 Z M1.1,4.1 C1.1,5 1.2,5.6 1.4,6 C1.6,6.4 1.9,6.6 2.3,6.6 C2.7,6.6 3,6.4 3.2,6 C3.4,5.6 3.5,5 3.5,4.1 C3.5,3.2 3.4,2.6 3.2,2.2 C3,1.8 2.7,1.6 2.3,1.6 C1.9,1.6 1.6,1.8 1.4,2.2 C1.2,2.6 1.1,3.2 1.1,4.1 Z" id="Shape" fill-rule="nonzero"></path>
                    <polygon id="Path" points="5.9 7.3 8.4 1.8 5.1 1.8 5.1 0.9 9.5 0.9 9.5 1.6 7 7.3"></polygon>
                    <polygon id="Path" points="13.3 0.9 10.9 7.3 9.9 7.3 12.3 0.9"></polygon>
                    <path d="M16.8,7.3 L15.8,7.3 L15.8,3.2 C15.8,2.7 15.8,2.3 15.8,2 C15.7,2.1 15.7,2.1 15.6,2.2 C15.5,2.3 15.2,2.6 14.6,3 L14.1,2.3 L16,0.8 L16.9,0.8 L16.9,7.3 L16.8,7.3 Z" id="Path"></path>
                    <path d="M22,7.3 L21,7.3 L21,3.2 C21,2.7 21,2.3 21,2 C20.9,2.1 20.9,2.1 20.8,2.2 C20.7,2.3 20.4,2.6 19.8,3 L19.3,2.3 L21.2,0.8 L22.1,0.8 L22.1,7.3 L22,7.3 Z" id="Path"></path>
                    <polygon id="Path" points="27.1 0.9 24.7 7.3 23.7 7.3 26.1 0.9"></polygon>
                    <path d="M30.6,7.3 L29.6,7.3 L29.6,3.2 C29.6,2.7 29.6,2.3 29.6,2 C29.5,2.1 29.5,2.1 29.4,2.2 C29.3,2.3 29,2.6 28.4,3 L27.9,2.3 L29.8,0.8 L30.7,0.8 L30.7,7.3 L30.6,7.3 Z" id="Path"></path>
                    <path d="M37.1,3.6 C37.1,4.9 36.8,5.8 36.3,6.4 C35.8,7 35,7.3 34,7.3 C33.6,7.3 33.3,7.3 33.2,7.2 L33.2,6.3 C33.5,6.4 33.7,6.4 34,6.4 C34.7,6.4 35.2,6.2 35.6,5.8 C36,5.4 36.1,4.8 36.2,4 L36,4 C35.8,4.3 35.6,4.5 35.4,4.6 C35.2,4.7 34.9,4.8 34.5,4.8 C33.9,4.8 33.5,4.6 33.2,4.3 C32.9,3.9 32.7,3.5 32.7,2.8 C32.7,2.1 32.9,1.6 33.3,1.2 C33.7,0.8 34.2,0.6 34.8,0.6 C35.3,0.6 35.7,0.7 36,0.9 C36.3,1.1 36.6,1.4 36.8,1.9 C37,2.4 37.1,3.1 37.1,3.6 Z M34.8,1.7 C34.4,1.7 34.2,1.8 34,2 C33.8,2.2 33.7,2.6 33.7,3 C33.7,3.4 33.8,3.7 34,3.9 C34.2,4.1 34.4,4.2 34.8,4.2 C35.1,4.2 35.4,4.1 35.7,3.9 C35.9,3.7 36.1,3.4 36.1,3.2 C36.1,2.9 36,2.7 35.9,2.5 C35.8,2.3 35.7,2.1 35.5,2 C35.3,1.7 35.1,1.7 34.8,1.7 Z" id="Shape" fill-rule="nonzero"></path>
                    <path d="M40,0.8 C40.6,0.8 41.1,0.9 41.4,1.2 C41.8,1.5 41.9,1.9 41.9,2.3 C41.9,3 41.5,3.5 40.7,3.9 C41.2,4.2 41.6,4.4 41.8,4.7 C42,5 42.1,5.3 42.1,5.6 C42.1,6.1 41.9,6.6 41.5,6.9 C41.1,7.2 40.6,7.4 39.9,7.4 C39.2,7.4 38.7,7.3 38.3,7 C37.9,6.7 37.7,6.3 37.7,5.7 C37.7,5.3 37.8,5 38,4.7 C38.2,4.4 38.5,4.2 39,3.9 C38.6,3.7 38.3,3.4 38.2,3.2 C38.1,3 37.9,2.6 37.9,2.3 C37.9,1.8 38.1,1.5 38.4,1.2 C39,1 39.5,0.8 40,0.8 Z M38.9,5.7 C38.9,6 39,6.2 39.2,6.4 C39.4,6.6 39.7,6.7 40.1,6.7 C40.5,6.7 40.8,6.6 41,6.4 C41.2,6.2 41.3,6 41.3,5.7 C41.3,5.5 41.2,5.2 41,5 C40.8,4.8 40.5,4.6 40.1,4.5 L40,4.4 C39.6,4.6 39.3,4.8 39.2,5 C38.9,5.2 38.9,5.4 38.9,5.7 Z M40,1.6 C39.7,1.6 39.5,1.7 39.3,1.8 C39.1,1.9 39,2.1 39,2.4 C39,2.6 39,2.7 39.1,2.8 C39.2,2.9 39.3,3 39.4,3.1 C39.5,3.2 39.7,3.3 40,3.5 C40.4,3.3 40.6,3.2 40.7,3 C40.8,2.8 40.9,2.6 40.9,2.4 C40.9,2.2 40.8,2 40.6,1.8 C40.6,1.7 40.3,1.6 40,1.6 Z" id="Shape" fill-rule="nonzero"></path>
                    <path d="M47.1,2.4 C47.1,2.8 47,3.1 46.7,3.4 C46.5,3.7 46.1,3.9 45.7,3.9 C46.2,4 46.6,4.1 46.9,4.4 C47.2,4.7 47.3,5 47.3,5.4 C47.3,6 47.1,6.5 46.6,6.8 C46.1,7.1 45.5,7.3 44.7,7.3 C44,7.3 43.4,7.2 42.9,7 L42.9,6.1 C43.2,6.2 43.5,6.3 43.8,6.4 C44.1,6.5 44.4,6.5 44.7,6.5 C45.2,6.5 45.6,6.4 45.8,6.2 C46,6 46.2,5.7 46.2,5.3 C46.2,5 46.1,4.7 45.8,4.5 C45.5,4.3 45.1,4.3 44.5,4.3 L44,4.3 L44,3.5 L44.6,3.5 C45.6,3.5 46.1,3.1 46.1,2.4 C46.1,2.1 46,1.9 45.8,1.8 C45.6,1.7 45.4,1.6 45,1.6 C44.8,1.6 44.5,1.6 44.3,1.7 C44.1,1.8 43.8,1.9 43.5,2.1 L43,1.4 C43.6,1 44.3,0.7 45.1,0.7 C45.7,0.7 46.3,0.8 46.6,1.1 C46.9,1.4 47.1,1.9 47.1,2.4 Z" id="Path"></path>
                </g>
                <rect id="Rectangle" fill="#C1C9F4" x="102.8" y="271.7" width="319.5" height="15.3"></rect>
                <rect id="Rectangle" fill="#C1C9F4" x="102.8" y="248.7" width="319.5" height="15.3"></rect>
                <g transform="translate(109.000000, 275.000000)" fill="#000000">
                    <polygon id="Path" points="5.9 8.7 0.3 8.7 0.3 7.8 4.2 2 0.4 2 0.4 0.9 5.7 0.9 5.7 1.8 1.8 7.6 5.8 7.6 5.8 8.7"></polygon>
                    <path d="M11.8,5.6 L11.8,8.7 L10.5,8.7 L10.5,0.9 L12.7,0.9 C13.7,0.9 14.4,1.1 14.9,1.5 C15.4,1.9 15.6,2.4 15.6,3.2 C15.6,4.2 15.1,4.9 14.1,5.3 L16.3,8.7 L14.9,8.7 L13,5.6 L11.8,5.6 Z M11.8,4.5 L12.7,4.5 C13.3,4.5 13.7,4.4 14,4.2 C14.3,4 14.4,3.7 14.4,3.2 C14.4,2.8 14.3,2.4 14,2.3 C13.7,2.1 13.3,2 12.7,2 L11.9,2 L11.9,4.5 L11.8,4.5 Z" id="Shape" fill-rule="nonzero"></path>
                    <path d="M26.9,0.9 L26.9,5.9 C26.9,6.5 26.8,7 26.5,7.4 C26.3,7.8 25.9,8.2 25.4,8.4 C24.9,8.6 24.4,8.7 23.7,8.7 C22.7,8.7 22,8.4 21.5,7.9 C21,7.4 20.7,6.7 20.7,5.8 L20.7,0.8 L22,0.8 L22,5.7 C22,6.3 22.1,6.8 22.4,7.1 C22.7,7.4 23.2,7.6 23.8,7.6 C25,7.6 25.6,7 25.6,5.7 L25.6,0.8 L26.9,0.8 L26.9,0.9 Z" id="Path"></path>
                    <polygon id="Path" points="32.4 8.7 35.5 2 31.5 2 31.5 0.9 36.9 0.9 36.9 1.8 33.8 8.7 32.4 8.7"></polygon>
                    <path d="M44.8,4.4 L47.7,4.4 L47.7,8.3 C47.2,8.5 46.8,8.6 46.4,8.6 C46,8.7 45.5,8.7 45,8.7 C43.8,8.7 42.9,8.4 42.3,7.7 C41.7,7 41.3,6 41.3,4.8 C41.3,3.6 41.7,2.6 42.4,1.9 C43.1,1.2 44.1,0.8 45.4,0.8 C46.2,0.8 47,1 47.7,1.3 L47.3,2.4 C46.7,2.1 46,2 45.4,2 C44.6,2 43.9,2.3 43.4,2.8 C42.9,3.3 42.7,4 42.7,4.9 C42.7,5.8 42.9,6.6 43.4,7.1 C43.9,7.6 44.5,7.8 45.3,7.8 C45.7,7.8 46.1,7.7 46.6,7.6 L46.6,5.6 L45,5.6 L45,4.4 L44.8,4.4 Z" id="Path"></path>
                    <path d="M58.8,0.9 L58.8,5.9 C58.8,6.5 58.7,7 58.4,7.4 C58.2,7.8 57.8,8.2 57.3,8.4 C56.8,8.6 56.3,8.7 55.6,8.7 C54.6,8.7 53.9,8.4 53.4,7.9 C52.9,7.4 52.6,6.7 52.6,5.8 L52.6,0.8 L53.9,0.8 L53.9,5.7 C53.9,6.3 54,6.8 54.3,7.1 C54.6,7.4 55.1,7.6 55.7,7.6 C56.9,7.6 57.5,7 57.5,5.7 L57.5,0.8 L58.8,0.8 L58.8,0.9 Z" id="Path"></path>
                    <path d="M68.8,4.2 C68.8,5.7 68.5,6.9 67.9,7.6 C67.3,8.4 66.4,8.7 65.1,8.7 C64.6,8.7 64.3,8.7 64.1,8.6 L64.1,7.6 C64.4,7.7 64.7,7.7 65.1,7.7 C65.9,7.7 66.6,7.5 67,7 C67.4,6.5 67.6,5.8 67.7,4.9 L67.6,4.9 C67.4,5.2 67.1,5.4 66.8,5.6 C66.5,5.7 66.2,5.8 65.8,5.8 C65.1,5.8 64.6,5.6 64.2,5.2 C63.8,4.8 63.6,4.2 63.6,3.4 C63.6,2.6 63.8,1.9 64.3,1.5 C64.8,1.1 65.4,0.8 66.2,0.8 C66.8,0.8 67.2,0.9 67.6,1.2 C68,1.5 68.3,1.9 68.6,2.4 C68.9,2.9 68.8,3.5 68.8,4.2 Z M66.1,1.8 C65.7,1.8 65.3,1.9 65.1,2.2 C64.9,2.5 64.8,2.9 64.8,3.4 C64.8,3.8 64.9,4.2 65.1,4.4 C65.3,4.6 65.6,4.8 66.1,4.8 C66.5,4.8 66.9,4.7 67.2,4.4 C67.5,4.1 67.6,3.9 67.6,3.5 C67.6,3.2 67.5,2.9 67.4,2.6 C67.3,2.3 67.1,2.1 66.9,1.9 C66.7,1.7 66.3,1.8 66.1,1.8 Z" id="Shape" fill-rule="nonzero"></path>
                    <path d="M80.4,4.8 C80.4,6.1 80.1,7 79.5,7.7 C78.9,8.4 78,8.8 76.8,8.8 C75.6,8.8 74.7,8.5 74.1,7.8 C73.5,7.1 73.2,6.1 73.2,4.8 C73.2,3.5 73.5,2.5 74.1,1.8 C74.7,1.1 75.6,0.8 76.8,0.8 C78,0.8 78.8,1.1 79.5,1.8 C80.1,2.5 80.4,3.5 80.4,4.8 Z M74.5,4.8 C74.5,5.8 74.7,6.5 75.1,7 C75.5,7.5 76.1,7.7 76.8,7.7 C77.6,7.7 78.1,7.5 78.5,7 C78.9,6.5 79.1,5.8 79.1,4.8 C79.1,3.8 78.9,3.1 78.5,2.6 C78.1,2.1 77.6,1.9 76.8,1.9 C76,1.9 75.5,2.1 75.1,2.6 C74.7,3.1 74.5,3.8 74.5,4.8 Z" id="Shape" fill-rule="nonzero"></path>
                    <path d="M90.5,3.2 C90.5,4 90.2,4.6 89.7,5.1 C89.2,5.5 88.4,5.7 87.4,5.7 L86.6,5.7 L86.6,8.6 L85.3,8.6 L85.3,0.8 L87.5,0.8 C88.5,0.8 89.2,1 89.7,1.4 C90.2,1.9 90.5,2.5 90.5,3.2 Z M86.6,4.7 L87.3,4.7 C88,4.7 88.4,4.6 88.7,4.4 C89,4.2 89.2,3.8 89.2,3.3 C89.2,2.9 89.1,2.5 88.8,2.3 C88.5,2.1 88.1,2 87.5,2 L86.6,2 L86.6,4.7 Z" id="Shape" fill-rule="nonzero"></path>
                    <path d="M98.7,8.7 L96.4,2.2 C96.5,3.2 96.5,4.1 96.5,4.9 L96.5,8.7 L95.3,8.7 L95.3,0.9 L97.1,0.9 L99.3,7.1 L101.5,0.9 L103.3,0.9 L103.3,8.7 L102.1,8.7 L102.1,4.9 C102.1,4.5 102.1,4 102.1,3.4 C102.1,2.8 102.1,2.4 102.2,2.3 L99.9,8.8 L98.7,8.8 L98.7,8.7 Z" id="Path"></path>
                    <path d="M113.3,4.8 C113.3,6.1 113.1,7.1 112.6,7.8 C112.1,8.5 111.5,8.8 110.6,8.8 C109.7,8.8 109.1,8.5 108.6,7.8 C108.2,7.1 107.9,6.1 107.9,4.8 C107.9,3.4 108.1,2.4 108.6,1.8 C109.1,1.2 109.7,0.8 110.6,0.8 C111.5,0.8 112.1,1.1 112.6,1.8 C113.1,2.5 113.3,3.5 113.3,4.8 Z M109.3,4.8 C109.3,5.9 109.4,6.6 109.6,7.1 C109.8,7.6 110.2,7.8 110.6,7.8 C111.1,7.8 111.4,7.6 111.6,7.1 C111.8,6.6 111.9,5.9 111.9,4.8 C111.9,3.8 111.8,3 111.6,2.5 C111.4,2 111,1.8 110.6,1.8 C110.1,1.8 109.8,2 109.6,2.5 C109.4,3 109.3,3.7 109.3,4.8 Z" id="Shape" fill-rule="nonzero"></path>
                    <path d="M122.5,2.7 C122.5,3.2 122.4,3.6 122.1,3.9 C121.8,4.2 121.4,4.4 120.9,4.6 C121.5,4.7 122,4.9 122.3,5.2 C122.6,5.5 122.8,5.9 122.8,6.4 C122.8,7.1 122.5,7.7 122,8.1 C121.5,8.5 120.7,8.7 119.7,8.7 C118.8,8.7 118.1,8.6 117.5,8.3 L117.5,7.2 C117.8,7.4 118.2,7.5 118.5,7.6 C118.8,7.7 119.2,7.7 119.6,7.7 C120.2,7.7 120.7,7.6 120.9,7.4 C121.2,7.2 121.3,6.8 121.3,6.4 C121.3,6 121.1,5.7 120.8,5.5 C120.5,5.3 120,5.2 119.3,5.2 L118.6,5.2 L118.6,4.2 L119.3,4.2 C120.5,4.2 121.2,3.8 121.2,2.9 C121.2,2.6 121.1,2.3 120.9,2.1 C120.7,1.9 120.4,1.8 119.9,1.8 C119.6,1.8 119.3,1.8 119.1,1.9 C118.9,2 118.5,2.1 118.1,2.4 L117.5,1.5 C118.2,1 119,0.7 120,0.7 C120.8,0.7 121.4,0.9 121.8,1.2 C122.3,1.6 122.5,2.1 122.5,2.7 Z" id="Path"></path>
                    <path d="M132,6.6 C132,7.3 131.8,7.8 131.3,8.2 C130.8,8.6 130.1,8.8 129.2,8.8 C128.3,8.8 127.6,8.7 127,8.4 L127,7.2 C127.4,7.4 127.7,7.5 128.1,7.6 C128.5,7.7 128.9,7.7 129.2,7.7 C129.7,7.7 130.1,7.6 130.3,7.4 C130.5,7.2 130.7,7 130.7,6.6 C130.7,6.3 130.6,6.1 130.4,5.9 C130.2,5.7 129.7,5.5 129,5.2 C128.3,4.9 127.8,4.6 127.5,4.2 C127.2,3.8 127.1,3.4 127.1,2.9 C127.1,2.3 127.3,1.7 127.8,1.4 C128.3,1.1 128.9,0.8 129.7,0.8 C130.4,0.8 131.2,1 131.9,1.3 L131.5,2.3 C130.8,2 130.2,1.9 129.7,1.9 C129.3,1.9 129,2 128.8,2.2 C128.6,2.4 128.5,2.6 128.5,2.9 C128.5,3.1 128.5,3.3 128.6,3.4 C128.7,3.5 128.8,3.7 129,3.8 C129.2,3.9 129.5,4.1 130.1,4.3 C130.7,4.5 131.1,4.8 131.4,5 C131.7,5.2 131.9,5.4 132,5.7 C131.9,5.9 132,6.2 132,6.6 Z" id="Path"></path>
                    <path d="M135.8,10.8 C135.5,10.8 135.2,10.8 134.9,10.7 L134.9,9.6 C135.2,9.7 135.5,9.7 135.7,9.7 C136.4,9.7 136.7,9.3 136.7,8.4 L136.7,0.9 L138,0.9 L138,8.4 C138,9.2 137.8,9.8 137.4,10.2 C137.1,10.6 136.5,10.8 135.8,10.8 Z" id="Path"></path>
                    <path d="M150.2,4.8 C150.2,6.1 149.9,7 149.3,7.7 C148.7,8.4 147.8,8.8 146.6,8.8 C145.4,8.8 144.5,8.5 143.9,7.8 C143.3,7.1 143,6.1 143,4.8 C143,3.5 143.3,2.5 143.9,1.8 C144.5,1.1 145.4,0.8 146.6,0.8 C147.8,0.8 148.6,1.1 149.3,1.8 C149.9,2.5 150.2,3.5 150.2,4.8 Z M144.2,4.8 C144.2,5.8 144.4,6.5 144.8,7 C145.2,7.5 145.8,7.7 146.5,7.7 C147.3,7.7 147.8,7.5 148.2,7 C148.6,6.5 148.8,5.8 148.8,4.8 C148.8,3.8 148.6,3.1 148.2,2.6 C147.8,2.1 147.3,1.9 146.5,1.9 C145.7,1.9 145.2,2.1 144.8,2.6 C144.4,3.1 144.2,3.8 144.2,4.8 Z" id="Shape" fill-rule="nonzero"></path>
                    <polygon id="Path" points="161.2 8.7 159.9 8.7 159.9 5.2 156.3 5.2 156.3 8.7 155 8.7 155 0.9 156.3 0.9 156.3 4.1 159.9 4.1 159.9 0.9 161.2 0.9"></polygon>
                    <path d="M173,8.7 L171.4,8.7 L167.6,2.5 L167.6,2.8 C167.6,3.5 167.7,4.1 167.7,4.6 L167.7,8.6 L166.5,8.6 L166.5,0.8 L168,0.8 L171.8,7 C171.8,6.9 171.8,6.6 171.8,6.1 C171.8,5.6 171.8,5.2 171.8,4.9 L171.8,0.8 L173,0.8 L173,8.7 Z" id="Path"></path>
                    <polygon id="Path" points="183 7.5 177.8 5.2 177.8 4.6 183 2 183 3 179.1 4.8 183 6.4"></polygon>
                    <polygon id="Path" points="192.4 7.5 187.2 5.2 187.2 4.6 192.4 2 192.4 3 188.5 4.8 192.4 6.4"></polygon>
                    <path d="M203.2,8.7 L201.7,8.7 L199.3,5.2 L198.6,5.8 L198.6,8.7 L197.3,8.7 L197.3,0.9 L198.6,0.9 L198.6,4.6 C198.9,4.2 199.3,3.8 199.6,3.4 L201.7,0.9 L203.1,0.9 C201.7,2.5 200.8,3.6 200.2,4.3 L203.2,8.7 Z" id="Path"></path>
                    <path d="M212.3,8.7 L211.5,6.5 L208.5,6.5 L207.7,8.7 L206.4,8.7 L209.3,0.9 L210.7,0.9 L213.6,8.7 L212.3,8.7 Z M211.2,5.4 L210.5,3.3 C210.4,3.2 210.4,2.9 210.3,2.6 C210.2,2.3 210.1,2.1 210.1,1.9 C210,2.3 209.9,2.8 209.7,3.3 L209,5.3 L211.2,5.3 L211.2,5.4 Z" id="Shape" fill-rule="nonzero"></path>
                    <path d="M219.2,5.6 L219.2,8.7 L217.9,8.7 L217.9,0.9 L220.1,0.9 C221.1,0.9 221.8,1.1 222.3,1.5 C222.8,1.9 223,2.4 223,3.2 C223,4.2 222.5,4.9 221.5,5.3 L223.7,8.7 L222.3,8.7 L220.4,5.6 L219.2,5.6 Z M219.2,4.5 L220.1,4.5 C220.7,4.5 221.1,4.4 221.4,4.2 C221.7,4 221.8,3.7 221.8,3.2 C221.8,2.8 221.7,2.4 221.4,2.3 C221.1,2.1 220.7,2 220.1,2 L219.3,2 L219.3,4.5 L219.2,4.5 Z" id="Shape" fill-rule="nonzero"></path>
                    <polygon id="Path" points="228.1 8.7 228.1 0.9 229.4 0.9 229.4 7.6 232.7 7.6 232.7 8.7"></polygon>
                    <path d="M236.7,5.4 C236.7,2.4 237.9,0.8 240.4,0.8 C240.8,0.8 241.1,0.8 241.4,0.9 L241.4,1.9 C241.1,1.8 240.8,1.8 240.5,1.8 C239.7,1.8 239,2 238.6,2.5 C238.2,2.9 238,3.7 237.9,4.6 L238,4.6 C238.2,4.3 238.4,4.1 238.7,3.9 C239,3.7 239.4,3.7 239.8,3.7 C240.5,3.7 241.1,3.9 241.4,4.3 C241.8,4.7 242,5.3 242,6.1 C242,6.9 241.8,7.6 241.3,8 C240.8,8.5 240.2,8.7 239.4,8.7 C238.8,8.7 238.4,8.6 238,8.3 C237.6,8 237.3,7.6 237.1,7.1 C236.8,6.7 236.7,6.1 236.7,5.4 Z M239.4,7.7 C239.8,7.7 240.2,7.6 240.4,7.3 C240.6,7 240.7,6.6 240.7,6.1 C240.7,5.7 240.6,5.3 240.4,5 C240.2,4.7 239.9,4.6 239.4,4.6 C239.1,4.6 238.9,4.7 238.7,4.8 C238.5,4.9 238.3,5.1 238.2,5.3 C238.1,5.5 238,5.7 238,5.9 C238,6.4 238.1,6.8 238.4,7.2 C238.7,7.6 239,7.7 239.4,7.7 Z" id="Shape" fill-rule="nonzero"></path>
                    <polygon id="Path" points="247.1 8.7 250.2 2 246.2 2 246.2 0.9 251.6 0.9 251.6 1.8 248.5 8.7 247.1 8.7"></polygon>
                    <path d="M258.3,0.8 C259,0.8 259.6,1 260,1.3 C260.4,1.6 260.6,2.1 260.6,2.7 C260.6,3.5 260.1,4.1 259.2,4.6 C259.8,4.9 260.2,5.2 260.5,5.6 C260.8,5.9 260.9,6.3 260.9,6.7 C260.9,7.3 260.7,7.9 260.2,8.2 C259.7,8.5 259.1,8.8 258.3,8.8 C257.5,8.8 256.8,8.6 256.3,8.3 C255.8,7.9 255.6,7.4 255.6,6.8 C255.6,6.4 255.7,6 256,5.6 C256.2,5.3 256.6,4.9 257.2,4.7 C256.7,4.4 256.4,4.1 256.2,3.8 C256,3.5 255.9,3.1 255.9,2.7 C255.9,2.1 256.1,1.7 256.6,1.4 C257.1,1.1 257.6,0.8 258.3,0.8 Z M256.8,6.6 C256.8,7 256.9,7.3 257.2,7.5 C257.5,7.7 257.8,7.8 258.3,7.8 C258.8,7.8 259.1,7.7 259.4,7.5 C259.7,7.3 259.8,7 259.8,6.6 C259.8,6.3 259.7,6.1 259.4,5.8 C259.2,5.6 258.8,5.3 258.3,5.1 L258.1,5 C257.6,5.2 257.3,5.4 257.1,5.7 C256.9,6 256.8,6.3 256.8,6.6 Z M258.3,1.8 C257.9,1.8 257.7,1.9 257.4,2.1 C257.2,2.3 257.1,2.5 257.1,2.8 C257.1,3 257.1,3.1 257.2,3.3 C257.3,3.4 257.4,3.6 257.5,3.7 C257.6,3.8 257.9,4 258.3,4.1 C258.7,3.9 259,3.7 259.2,3.5 C259.4,3.3 259.5,3.1 259.5,2.8 C259.5,2.5 259.4,2.3 259.2,2.1 C258.9,1.8 258.6,1.8 258.3,1.8 Z" id="Shape" fill-rule="nonzero"></path>
                    <path d="M270.4,4.2 C270.4,5.7 270.1,6.9 269.5,7.6 C268.9,8.4 268,8.7 266.7,8.7 C266.2,8.7 265.9,8.7 265.7,8.6 L265.7,7.6 C266,7.7 266.3,7.7 266.7,7.7 C267.5,7.7 268.2,7.5 268.6,7 C269,6.5 269.2,5.8 269.3,4.9 L269.2,4.9 C269,5.2 268.7,5.4 268.4,5.6 C268.1,5.7 267.8,5.8 267.4,5.8 C266.7,5.8 266.2,5.6 265.8,5.2 C265.4,4.8 265.2,4.2 265.2,3.4 C265.2,2.6 265.4,1.9 265.9,1.5 C266.4,1.1 267,0.8 267.8,0.8 C268.4,0.8 268.8,0.9 269.2,1.2 C269.6,1.5 269.9,1.9 270.2,2.4 C270.5,2.9 270.4,3.5 270.4,4.2 Z M267.7,1.8 C267.3,1.8 266.9,1.9 266.7,2.2 C266.5,2.5 266.4,2.9 266.4,3.4 C266.4,3.8 266.5,4.2 266.7,4.4 C266.9,4.6 267.2,4.8 267.7,4.8 C268.1,4.8 268.5,4.7 268.8,4.4 C269.1,4.1 269.2,3.9 269.2,3.5 C269.2,3.2 269.1,2.9 269,2.6 C268.9,2.3 268.7,2.1 268.5,1.9 C268.3,1.7 267.9,1.8 267.7,1.8 Z" id="Shape" fill-rule="nonzero"></path>
                    <path d="M280.1,7 L279.1,7 L279.1,8.7 L277.9,8.7 L277.9,7 L274.4,7 L274.4,6 L277.9,0.9 L279.1,0.9 L279.1,6 L280.1,6 L280.1,7 Z M277.9,5.9 L277.9,4 C277.9,3.3 277.9,2.7 278,2.3 C277.9,2.5 277.7,2.8 277.5,3.1 L275.6,5.9 L277.9,5.9 Z" id="Shape" fill-rule="nonzero"></path>
                    <path d="M289,2.7 C289,3.2 288.9,3.6 288.6,3.9 C288.3,4.2 287.9,4.4 287.4,4.6 C288,4.7 288.5,4.9 288.8,5.2 C289.1,5.5 289.3,5.9 289.3,6.4 C289.3,7.1 289,7.7 288.5,8.1 C288,8.5 287.2,8.7 286.2,8.7 C285.3,8.7 284.6,8.6 284,8.3 L284,7.2 C284.3,7.4 284.7,7.5 285,7.6 C285.3,7.7 285.7,7.7 286.1,7.7 C286.7,7.7 287.2,7.6 287.4,7.4 C287.7,7.2 287.8,6.8 287.8,6.4 C287.8,6 287.6,5.7 287.3,5.5 C287,5.3 286.5,5.2 285.8,5.2 L285.1,5.2 L285.1,4.2 L285.8,4.2 C287,4.2 287.7,3.8 287.7,2.9 C287.7,2.6 287.6,2.3 287.4,2.1 C287.2,1.9 286.9,1.8 286.4,1.8 C286.1,1.8 285.8,1.8 285.6,1.9 C285.4,2 285,2.1 284.6,2.4 L284,1.5 C284.7,1 285.5,0.7 286.5,0.7 C287.3,0.7 287.9,0.9 288.3,1.2 C288.8,1.6 289,2.1 289,2.7 Z" id="Path"></path>
                    <polygon id="Path" points="295.3 8.7 294 8.7 294 0.9 298.4 0.9 298.4 2 295.3 2 295.3 4.4 298.2 4.4 298.2 5.5 295.3 5.5 295.3 8.7"></polygon>
                    <path d="M302.6,5.4 C302.6,2.4 303.8,0.8 306.3,0.8 C306.7,0.8 307,0.8 307.3,0.9 L307.3,1.9 C307,1.8 306.7,1.8 306.4,1.8 C305.6,1.8 304.9,2 304.5,2.5 C304.1,2.9 303.9,3.7 303.8,4.6 L303.9,4.6 C304.1,4.3 304.3,4.1 304.6,3.9 C304.9,3.7 305.3,3.7 305.7,3.7 C306.4,3.7 307,3.9 307.3,4.3 C307.7,4.7 307.9,5.3 307.9,6.1 C307.9,6.9 307.7,7.6 307.2,8 C306.7,8.5 306.1,8.7 305.3,8.7 C304.7,8.7 304.3,8.6 303.9,8.3 C303.5,8 303.2,7.6 303,7.1 C302.7,6.7 302.6,6.1 302.6,5.4 Z M305.3,7.7 C305.7,7.7 306.1,7.6 306.3,7.3 C306.5,7 306.6,6.6 306.6,6.1 C306.6,5.7 306.5,5.3 306.3,5 C306.1,4.7 305.8,4.6 305.3,4.6 C305,4.6 304.8,4.7 304.6,4.8 C304.4,4.9 304.2,5.1 304.1,5.3 C304,5.5 303.9,5.7 303.9,5.9 C303.9,6.4 304,6.8 304.3,7.2 C304.5,7.6 304.9,7.7 305.3,7.7 Z" id="Shape" fill-rule="nonzero"></path>
                </g>
                <g transform="translate(110.000000, 252.000000)" fill="#000000">
                    <polygon id="Path" points="0.1 8.8 0.1 1 1.4 1 1.4 8.8"></polygon>
                    <path d="M13.1,4.8 C13.1,6.1 12.7,7.1 12,7.8 C11.3,8.5 10.2,8.8 8.9,8.8 L6.7,8.8 L6.7,1 L9.1,1 C10.3,1 11.3,1.3 12,2 C12.7,2.6 13.1,3.6 13.1,4.8 Z M11.7,4.8 C11.7,2.9 10.8,2 9.1,2 L8,2 L8,7.7 L8.9,7.7 C10.8,7.7 11.7,6.7 11.7,4.8 Z" id="Shape" fill-rule="nonzero"></path>
                    <polygon id="Path" points="19.3 8.8 18 8.8 18 1 22.4 1 22.4 2.1 19.3 2.1 19.3 4.5 22.3 4.5 22.3 5.6 19.3 5.6"></polygon>
                    <path d="M28.4,5.6 L28.4,8.7 L27.1,8.7 L27.1,0.9 L29.3,0.9 C30.3,0.9 31.1,1.1 31.5,1.5 C31.9,1.9 32.2,2.4 32.2,3.2 C32.2,4.2 31.7,4.9 30.7,5.3 L32.9,8.8 L31.4,8.8 L29.5,5.7 L28.4,5.7 L28.4,5.6 Z M28.4,4.6 L29.3,4.6 C29.9,4.6 30.3,4.5 30.6,4.3 C30.9,4.1 31,3.8 31,3.3 C31,2.9 30.9,2.5 30.6,2.3 C30.3,2.1 29.9,2 29.3,2 L28.5,2 L28.5,4.6 L28.4,4.6 Z" id="Shape" fill-rule="nonzero"></path>
                    <path d="M42.3,8.8 L41.5,6.6 L38.5,6.6 L37.7,8.8 L36.4,8.8 L39.3,0.9 L40.7,0.9 L43.6,8.8 L42.3,8.8 Z M41.2,5.5 L40.5,3.4 C40.4,3.3 40.4,3 40.3,2.7 C40.2,2.4 40.1,2.2 40.1,2 C40,2.4 39.9,2.9 39.7,3.4 L39,5.4 L41.2,5.4 L41.2,5.5 Z" id="Shape" fill-rule="nonzero"></path>
                    <path d="M54.4,4.8 C54.4,6.1 54,7.1 53.3,7.8 C52.6,8.5 51.5,8.8 50.2,8.8 L48,8.8 L48,1 L50.4,1 C51.6,1 52.6,1.3 53.3,2 C54,2.6 54.4,3.6 54.4,4.8 Z M53,4.8 C53,2.9 52.1,2 50.4,2 L49.3,2 L49.3,7.7 L50.2,7.7 C52.1,7.7 53,6.7 53,4.8 Z" id="Shape" fill-rule="nonzero"></path>
                    <path d="M66.3,4.8 C66.3,6.1 66,7.1 65.3,7.8 C64.7,8.5 63.8,8.9 62.6,8.9 C61.4,8.9 60.5,8.5 59.9,7.8 C59.3,7.1 58.9,6.1 58.9,4.8 C58.9,3.5 59.2,2.5 59.9,1.8 C60.5,1.1 61.4,0.8 62.6,0.8 C63.8,0.8 64.7,1.2 65.3,1.9 C65.9,2.6 66.3,3.6 66.3,4.8 Z M60.3,4.8 C60.3,5.8 60.5,6.5 60.9,7 C61.3,7.5 61.9,7.7 62.6,7.7 C63.4,7.7 63.9,7.5 64.3,7 C64.7,6.5 64.9,5.8 64.9,4.8 C64.9,3.8 64.7,3.1 64.3,2.6 C63.9,2.1 63.3,1.9 62.6,1.9 C61.8,1.9 61.3,2.1 60.9,2.6 C60.5,3.2 60.3,3.9 60.3,4.8 Z" id="Shape" fill-rule="nonzero"></path>
                    <path d="M72.5,5.6 L72.5,8.7 L71.2,8.7 L71.2,0.9 L73.4,0.9 C74.4,0.9 75.2,1.1 75.6,1.5 C76,1.9 76.3,2.4 76.3,3.2 C76.3,4.2 75.8,4.9 74.8,5.3 L77,8.8 L75.5,8.8 L73.6,5.7 L72.5,5.7 L72.5,5.6 Z M72.5,4.6 L73.4,4.6 C74,4.6 74.4,4.5 74.7,4.3 C75,4.1 75.1,3.8 75.1,3.3 C75.1,2.9 75,2.5 74.7,2.3 C74.4,2.1 74,2 73.4,2 L72.6,2 L72.6,4.6 L72.5,4.6 Z" id="Shape" fill-rule="nonzero"></path>
                    <polygon id="Path" points="81.6 8.8 81.6 1 82.9 1 82.9 8.8"></polygon>
                    <path d="M93.1,8.8 L92.3,6.6 L89.3,6.6 L88.5,8.8 L87.2,8.8 L90.1,0.9 L91.5,0.9 L94.4,8.8 L93.1,8.8 Z M91.9,5.5 L91.2,3.4 C91.1,3.3 91.1,3 91,2.7 C90.9,2.4 90.8,2.2 90.8,2 C90.7,2.4 90.6,2.9 90.4,3.4 L89.7,5.4 L91.9,5.4 L91.9,5.5 Z" id="Shape" fill-rule="nonzero"></path>
                    <path d="M105.3,8.8 L103.7,8.8 L99.9,2.6 L99.9,2.9 C99.9,3.6 100,4.2 100,4.7 L100,8.8 L98.8,8.8 L98.8,1 L100.4,1 L104.2,7.2 C104.2,7.1 104.2,6.8 104.2,6.3 C104.2,5.8 104.2,5.4 104.2,5.1 L104.2,1 L105.4,1 L105.4,8.8 L105.3,8.8 Z" id="Path"></path>
                    <polygon id="Path" points="115.3 7.6 110.1 5.3 110.1 4.7 115.3 2.1 115.3 3.1 111.4 4.9 115.3 6.5"></polygon>
                    <polygon id="Path" points="124.9 7.6 119.7 5.3 119.7 4.7 124.9 2.1 124.9 3.1 121 4.9 124.9 6.5"></polygon>
                    <polygon id="Path" points="134.4 7.6 129.2 5.3 129.2 4.7 134.4 2.1 134.4 3.1 130.5 4.9 134.4 6.5"></polygon>
                    <polygon id="Path" points="144 7.6 138.8 5.3 138.8 4.7 144 2.1 144 3.1 140.1 4.9 144 6.5"></polygon>
                    <polygon id="Path" points="153.5 7.6 148.3 5.3 148.3 4.7 153.5 2.1 153.5 3.1 149.6 4.9 153.5 6.5"></polygon>
                    <polygon id="Path" points="163.1 7.6 157.9 5.3 157.9 4.7 163.1 2.1 163.1 3.1 159.2 4.9 163.1 6.5"></polygon>
                    <polygon id="Path" points="172.6 7.6 167.4 5.3 167.4 4.7 172.6 2.1 172.6 3.1 168.7 4.9 172.6 6.5"></polygon>
                    <polygon id="Path" points="182.2 7.6 177 5.3 177 4.7 182.2 2.1 182.2 3.1 178.3 4.9 182.2 6.5"></polygon>
                    <polygon id="Path" points="191.7 7.6 186.5 5.3 186.5 4.7 191.7 2.1 191.7 3.1 187.8 4.9 191.7 6.5"></polygon>
                    <polygon id="Path" points="201.3 7.6 196.1 5.3 196.1 4.7 201.3 2.1 201.3 3.1 197.4 4.9 201.3 6.5"></polygon>
                    <polygon id="Path" points="210.8 7.6 205.6 5.3 205.6 4.7 210.8 2.1 210.8 3.1 206.9 4.9 210.8 6.5"></polygon>
                    <polygon id="Path" points="220.4 7.6 215.2 5.3 215.2 4.7 220.4 2.1 220.4 3.1 216.5 4.9 220.4 6.5"></polygon>
                    <polygon id="Path" points="229.9 7.6 224.7 5.3 224.7 4.7 229.9 2.1 229.9 3.1 226 4.9 229.9 6.5"></polygon>
                    <polygon id="Path" points="239.5 7.6 234.3 5.3 234.3 4.7 239.5 2.1 239.5 3.1 235.6 4.9 239.5 6.5"></polygon>
                    <polygon id="Path" points="249 7.6 243.8 5.3 243.8 4.7 249 2.1 249 3.1 245.1 4.9 249 6.5"></polygon>
                    <path d="M256,3.9 C256.8,3.9 257.4,4.1 257.9,4.5 C258.4,4.9 258.6,5.5 258.6,6.2 C258.6,7 258.3,7.7 257.8,8.2 C257.3,8.7 256.5,8.9 255.6,8.9 C254.7,8.9 254,8.8 253.5,8.5 L253.5,7.4 C253.8,7.6 254.1,7.7 254.5,7.8 C254.9,7.9 255.2,7.9 255.5,7.9 C256.1,7.9 256.5,7.8 256.8,7.5 C257.1,7.2 257.2,6.9 257.2,6.4 C257.2,5.5 256.6,5 255.4,5 C255.2,5 255,5 254.8,5.1 C254.6,5.1 254.3,5.2 254.2,5.2 L253.6,4.9 L253.9,1.1 L258,1.1 L258,2.2 L255,2.2 L254.8,4.1 C254.9,4.1 255.1,4.1 255.3,4 C255.5,3.9 255.7,3.9 256,3.9 Z" id="Path"></path>
                    <path d="M262.9,5.4 C262.9,2.3 264.1,0.8 266.6,0.8 C267,0.8 267.3,0.8 267.6,0.9 L267.6,1.9 C267.3,1.8 267,1.8 266.7,1.8 C265.9,1.8 265.2,2 264.8,2.5 C264.4,2.9 264.2,3.7 264.1,4.7 L264.2,4.7 C264.4,4.4 264.6,4.2 264.9,4 C265.2,3.8 265.6,3.8 266,3.8 C266.7,3.8 267.3,4 267.7,4.5 C268.1,4.9 268.3,5.5 268.3,6.3 C268.3,7.1 268.1,7.8 267.6,8.2 C267.1,8.7 266.5,8.9 265.7,8.9 C265.1,8.9 264.7,8.8 264.2,8.5 C263.7,8.2 263.5,7.8 263.2,7.3 C262.9,6.8 262.9,6.2 262.9,5.4 Z M265.6,7.8 C266,7.8 266.4,7.7 266.6,7.4 C266.8,7.1 267,6.7 267,6.2 C267,5.8 266.9,5.4 266.7,5.1 C266.5,4.8 266.2,4.7 265.7,4.7 C265.4,4.7 265.2,4.8 264.9,4.9 C264.7,5 264.5,5.2 264.4,5.4 C264.3,5.6 264.2,5.8 264.2,6 C264.2,6.5 264.3,6.9 264.6,7.3 C264.8,7.7 265.2,7.8 265.6,7.8 Z" id="Shape" fill-rule="nonzero"></path>
                    <polygon id="Path" points="273.3 8.8 276.4 2.1 272.3 2.1 272.3 1 277.7 1 277.7 1.9 274.6 8.8 273.3 8.8"></polygon>
                    <path d="M284.6,0.8 C285.3,0.8 285.9,1 286.4,1.3 C286.9,1.6 287,2.1 287,2.7 C287,3.5 286.5,4.1 285.6,4.6 C286.2,4.9 286.7,5.2 286.9,5.6 C287.2,5.9 287.3,6.3 287.3,6.7 C287.3,7.3 287.1,7.9 286.6,8.3 C286.1,8.7 285.5,8.9 284.7,8.9 C283.9,8.9 283.2,8.7 282.7,8.4 C282.2,8 282,7.5 282,6.9 C282,6.5 282.1,6.1 282.4,5.7 C282.6,5.4 283,5 283.6,4.8 C283.1,4.5 282.8,4.2 282.6,3.9 C282.4,3.6 282.3,3.2 282.3,2.8 C282.3,2.2 282.5,1.8 283,1.4 C283.5,1 283.9,0.8 284.6,0.8 Z M283.1,6.7 C283.1,7.1 283.2,7.4 283.5,7.6 C283.8,7.8 284.1,7.9 284.6,7.9 C285.1,7.9 285.4,7.8 285.7,7.6 C286,7.4 286.1,7.1 286.1,6.7 C286.1,6.4 286,6.1 285.7,5.9 C285.5,5.7 285.1,5.4 284.6,5.2 L284.4,5.1 C283.9,5.3 283.6,5.5 283.4,5.8 C283.2,6.1 283.1,6.4 283.1,6.7 Z M284.6,1.8 C284.2,1.8 284,1.9 283.7,2.1 C283.4,2.3 283.4,2.5 283.4,2.8 C283.4,3 283.4,3.2 283.5,3.3 C283.6,3.4 283.7,3.6 283.8,3.7 C284,3.8 284.2,4 284.6,4.1 C285,3.9 285.3,3.7 285.5,3.5 C285.7,3.3 285.8,3 285.8,2.8 C285.8,2.5 285.7,2.3 285.5,2.1 C285.2,1.9 285,1.8 284.6,1.8 Z" id="Shape" fill-rule="nonzero"></path>
                    <path d="M296.8,4.3 C296.8,5.8 296.5,7 295.9,7.8 C295.3,8.6 294.3,8.9 293.1,8.9 C292.6,8.9 292.3,8.9 292.1,8.8 L292.1,7.7 C292.4,7.8 292.7,7.8 293.1,7.8 C293.9,7.8 294.6,7.6 295,7.1 C295.4,6.6 295.6,5.9 295.7,4.9 L295.6,4.9 C295.4,5.2 295.1,5.5 294.8,5.6 C294.5,5.7 294.2,5.8 293.8,5.8 C293.1,5.8 292.6,5.6 292.2,5.2 C291.8,4.8 291.6,4.2 291.6,3.4 C291.6,2.6 291.8,1.9 292.3,1.4 C292.8,0.9 293.4,0.7 294.2,0.7 C294.8,0.7 295.2,0.8 295.7,1.1 C296.1,1.4 296.4,1.8 296.7,2.3 C296.7,2.9 296.8,3.6 296.8,4.3 Z M294.1,1.9 C293.7,1.9 293.3,2 293.1,2.3 C292.9,2.6 292.8,3 292.8,3.5 C292.8,3.9 292.9,4.3 293.1,4.6 C293.3,4.9 293.6,5 294.1,5 C294.5,5 294.9,4.9 295.2,4.6 C295.5,4.3 295.6,4.1 295.6,3.7 C295.6,3.4 295.5,3.1 295.4,2.8 C295.3,2.5 295.1,2.3 294.9,2.1 C294.6,2 294.4,1.9 294.1,1.9 Z" id="Shape" fill-rule="nonzero"></path>
                    <path d="M306.4,4.9 C306.4,6.3 306.2,7.3 305.7,7.9 C305.3,8.6 304.6,8.9 303.7,8.9 C302.8,8.9 302.2,8.6 301.7,7.9 C301.3,7.2 301,6.2 301,4.9 C301,3.5 301.2,2.5 301.7,1.8 C302.1,1.1 302.8,0.8 303.7,0.8 C304.6,0.8 305.2,1.1 305.7,1.8 C306.1,2.5 306.4,3.5 306.4,4.9 Z M302.3,4.9 C302.3,6 302.4,6.7 302.6,7.2 C302.8,7.7 303.2,7.9 303.7,7.9 C304.2,7.9 304.5,7.7 304.8,7.2 C305,6.7 305.1,6 305.1,4.9 C305.1,3.9 305,3.1 304.8,2.6 C304.6,2.1 304.2,1.9 303.7,1.9 C303.2,1.9 302.9,2.1 302.6,2.6 C302.4,3 302.3,3.8 302.3,4.9 Z" id="Shape" fill-rule="nonzero"></path>
                </g>
                <polygon id="Path" fill="#0062ff" points="474.7 28.4 467.4 28.4 467.4 8.1 445.9 8.1 445.9 0.9 474.7 0.9"></polygon>
                <polygon id="Path" fill="#0062ff" points="75.8 337.9 44.7 337.9 44.7 308.2 52 308.2 52 330.6 75.8 330.6"></polygon>
                <polygon id="Path" fill="#0062ff" points="474.7 310.4 467.4 310.4 467.4 330.6 445.9 330.6 445.9 337.9 474.7 337.9"></polygon>
                <polygon id="Path" fill="#0062ff" points="75.8 0.9 44.7 0.9 44.7 30.6 52 30.6 52 8.1 75.8 8.1"></polygon>
                <path d="M436.2,71.8 L87.5,71.8 L87.5,52.4 C87.5,46.1 92.6,41 98.9,41 L424.9,41 C431.2,41 436.3,46.1 436.3,52.4 L436.3,71.8 L436.2,71.8 Z" id="Path" fill="#D4DCF4"></path>
                <g transform="translate(115.000000, 49.000000)" fill="#A5B5E5">
                    <polygon id="Path" points="0.4 17.1 0.4 0.7 3.9 0.7 3.9 17.1"></polygon>
                    <path d="M24,8.7 C24,11.4 23.2,13.5 21.7,14.9 C20.2,16.3 17.9,17.1 15,17.1 L10.4,17.1 L10.4,0.7 L15.6,0.7 C18.3,0.7 20.4,1.4 21.8,2.8 C23.2,4.2 24,6.2 24,8.7 Z M20.3,8.8 C20.3,5.3 18.7,3.5 15.6,3.5 L13.7,3.5 L13.7,14.2 L15.2,14.2 C18.7,14.2 20.3,12.4 20.3,8.8 Z" id="Shape" fill-rule="nonzero"></path>
                    <polygon id="Path" points="39.1 17.1 29.6 17.1 29.6 0.7 39.1 0.7 39.1 3.6 33.1 3.6 33.1 7.2 38.7 7.2 38.7 10.1 33.1 10.1 33.1 14.3 39.1 14.3"></polygon>
                    <path d="M59.4,17.1 L55,17.1 L47.9,4.7 L47.8,4.7 C47.9,6.9 48,8.5 48,9.4 L48,17.1 L44.9,17.1 L44.9,0.7 L49.3,0.7 L56.4,13 L56.5,13 C56.4,10.9 56.3,9.4 56.3,8.5 L56.3,0.7 L59.4,0.7 L59.4,17.1 Z" id="Path"></path>
                    <polygon id="Path" points="72.2 17.1 68.7 17.1 68.7 3.6 64.2 3.6 64.2 0.7 76.6 0.7 76.6 3.6 72.1 3.6 72.1 17.1"></polygon>
                    <polygon id="Path" points="81.5 17.1 81.5 0.7 85 0.7 85 17.1"></polygon>
                    <polygon id="Path" points="94.8 17.1 91.4 17.1 91.4 0.7 100.8 0.7 100.8 3.6 94.8 3.6 94.8 7.8 100.4 7.8 100.4 10.6 94.8 10.6"></polygon>
                    <polygon id="Path" points="106.3 17.1 106.3 0.7 109.8 0.7 109.8 17.1"></polygon>
                    <path d="M123.2,3.3 C121.9,3.3 120.9,3.8 120.2,4.8 C119.5,5.8 119.1,7.2 119.1,8.9 C119.1,12.6 120.5,14.4 123.2,14.4 C124.4,14.4 125.7,14.1 127.4,13.5 L127.4,16.4 C126.1,17 124.5,17.2 122.9,17.2 C120.5,17.2 118.7,16.5 117.4,15 C116.1,13.6 115.5,11.5 115.5,8.8 C115.5,7.1 115.8,5.6 116.4,4.3 C117,3 117.9,2 119.1,1.3 C120.3,0.6 121.6,0.3 123.2,0.3 C124.8,0.3 126.4,0.7 128,1.5 L126.9,4.3 C126.3,4 125.7,3.8 125,3.5 C124.3,3.2 123.8,3.3 123.2,3.3 Z" id="Path"></path>
                    <path d="M143.2,17.1 L142,13.2 L136,13.2 L134.8,17.1 L131,17.1 L136.8,0.6 L141.1,0.6 L146.9,17.1 L143.2,17.1 Z M141.2,10.2 C140.1,6.7 139.5,4.7 139.3,4.2 C139.1,3.7 139.1,3.4 139,3.1 C138.8,4.1 138,6.4 136.9,10.2 L141.2,10.2 Z" id="Shape" fill-rule="nonzero"></path>
                    <polygon id="Path" points="157.7 17.1 154.2 17.1 154.2 3.6 149.7 3.6 149.7 0.7 162.1 0.7 162.1 3.6 157.6 3.6 157.6 17.1"></polygon>
                    <polygon id="Path" points="167 17.1 167 0.7 170.5 0.7 170.5 17.1"></polygon>
                    <path d="M191.8,8.8 C191.8,11.5 191.1,13.6 189.8,15.1 C188.5,16.6 186.5,17.3 184,17.3 C181.5,17.3 179.6,16.6 178.2,15.1 C176.8,13.6 176.2,11.5 176.2,8.8 C176.2,6.1 176.9,4 178.2,2.5 C179.6,1.1 181.5,0.3 184,0.3 C186.5,0.3 188.5,1 189.8,2.5 C191.1,4 191.8,6.1 191.8,8.8 Z M179.8,8.8 C179.8,10.6 180.1,12 180.8,12.9 C181.5,13.8 182.5,14.3 183.9,14.3 C186.7,14.3 188.1,12.5 188.1,8.8 C188.1,5.1 186.7,3.3 184,3.3 C182.6,3.3 181.6,3.8 180.9,4.7 C180.1,5.6 179.8,7 179.8,8.8 Z" id="Shape" fill-rule="nonzero"></path>
                    <path d="M212,17.1 L207.6,17.1 L200.5,4.7 L200.4,4.7 C200.5,6.9 200.6,8.5 200.6,9.4 L200.6,17.1 L197.5,17.1 L197.5,0.7 L201.9,0.7 L209,13 L209.1,13 C209,10.9 208.9,9.4 208.9,8.5 L208.9,0.7 L212,0.7 L212,17.1 Z" id="Path"></path>
                    <path d="M233.7,3.3 C232.4,3.3 231.4,3.8 230.7,4.8 C230,5.8 229.6,7.2 229.6,8.9 C229.6,12.6 231,14.4 233.7,14.4 C234.9,14.4 236.2,14.1 237.9,13.5 L237.9,16.4 C236.6,17 235,17.2 233.4,17.2 C231,17.2 229.2,16.5 227.9,15 C226.6,13.6 226,11.5 226,8.8 C226,7.1 226.3,5.6 226.9,4.3 C227.5,3 228.4,2 229.6,1.3 C230.8,0.6 232.1,0.3 233.7,0.3 C235.3,0.3 236.9,0.7 238.5,1.5 L237.4,4.3 C236.8,4 236.2,3.8 235.5,3.5 C234.8,3.2 234.3,3.3 233.7,3.3 Z" id="Path"></path>
                    <path d="M253.8,17.1 L252.6,13.2 L246.6,13.2 L245.4,17.1 L241.6,17.1 L247.4,0.6 L251.7,0.6 L257.5,17.1 L253.8,17.1 Z M251.7,10.2 C250.6,6.7 250,4.7 249.8,4.2 C249.6,3.7 249.6,3.4 249.5,3.1 C249.3,4.1 248.5,6.4 247.4,10.2 L251.7,10.2 Z" id="Shape" fill-rule="nonzero"></path>
                    <path d="M265.4,10.8 L265.4,17.1 L261.9,17.1 L261.9,0.7 L266.7,0.7 C268.9,0.7 270.6,1.1 271.7,1.9 C272.8,2.7 273.3,3.9 273.3,5.6 C273.3,6.6 273,7.4 272.5,8.2 C272,9 271.2,9.5 270.2,10 C272.7,13.7 274.3,16.1 275,17.2 L271.1,17.2 L267.2,10.9 L265.4,10.9 L265.4,10.8 Z M265.4,7.9 L266.5,7.9 C267.6,7.9 268.4,7.7 268.9,7.3 C269.4,6.9 269.7,6.4 269.7,5.6 C269.7,4.8 269.4,4.3 268.9,3.9 C268.4,3.5 267.5,3.4 266.4,3.4 L265.3,3.4 L265.3,7.9 L265.4,7.9 Z" id="Shape" fill-rule="nonzero"></path>
                    <path d="M293,8.7 C293,11.4 292.2,13.5 290.7,14.9 C289.2,16.3 286.9,17.1 284,17.1 L279.4,17.1 L279.4,0.7 L284.6,0.7 C287.3,0.7 289.4,1.4 290.8,2.8 C292.2,4.2 293,6.2 293,8.7 Z M289.4,8.8 C289.4,5.3 287.8,3.5 284.7,3.5 L282.8,3.5 L282.8,14.2 L284.3,14.2 C287.7,14.2 289.4,12.4 289.4,8.8 Z" id="Shape" fill-rule="nonzero"></path>
                </g>
            </g>
        </g>
    </g>
</svg>