<svg xmlns="http://www.w3.org/2000/svg" xmlns:xlink="http://www.w3.org/1999/xlink" version="1.1" id="Layer_1" x="0px" y="0px" width="549.9px" height="549.9px" viewBox="0 0 549.9 549.9" style="enable-background:new 0 0 549.9 549.9;" xml:space="preserve">
    <style type="text/css">
        .st0{fill:#FFFFFF;}
        .st1{fill:#C8EAFA;}
        .st2{fill:#015484;}
        .st3{fill:#F1982C;}
        .st4{fill:#5A6D76;}
        .st5{fill:#EFC087;}
        .st6{fill:#F1687B;}
        .st7{fill:#045484;}
        .st8{fill:#084361;}
        .st9{fill:#CF3E56;}
        .st10{fill:#5B4247;}
        .st11{fill:#6A4C4C;}
        .st12{fill:#E6B078;}
        .st13{fill:#D29B6E;}
        .st14{fill:#65BE6B;}
    </style>
    <title>svg</title>
    <circle class="st0" cx="275" cy="275" r="275" />
    <path class="st1" d="M183.5,70.6H350c15.1,0,27.4,12.3,27.4,27.4v354c0,15.1-12.3,27.4-27.4,27.4H183.5c-15.1,0-27.4-12.3-27.4-27.4  V98C156.1,82.9,168.4,70.6,183.5,70.6z" />
    <path class="st2" d="M156.1,413.7h221.2l0,0V452c0,15.1-12.3,27.4-27.4,27.4c0,0,0,0,0,0H183.5c-15.1,0-27.4-12.3-27.4-27.4  L156.1,413.7L156.1,413.7z" />
    <ellipse class="st1" cx="268.9" cy="449.7" rx="13.3" ry="13.3" />
    <path class="st1" d="M345.4,452.9c0,0.3-1.1,0.6-2.5,0.6h-21.4c-1.4,0-2.5-0.3-2.5-0.6v-5c0-0.3,1.1-0.6,2.5-0.6h21.4  c1.4,0,2.5,0.3,2.5,0.6V452.9z" />
    <path class="st1" d="M218.7,452.9c0,0.3-1.1,0.6-2.5,0.6h-21.4c-1.4,0-2.5-0.3-2.5-0.6v-5c0-0.3,1.1-0.6,2.5-0.6h21.4  c1.4,0,2.5,0.3,2.5,0.6V452.9z" />
    <circle class="st3" cx="186.4" cy="91.2" r="6.2" />
    <circle class="st4" cx="205.7" cy="91.2" r="6.2" />
    <path class="st4" d="M293.3,97.1h-59.2c-3.3,0-6-2.7-6-6s2.7-6,6-6h59.2c3.3,0,6,2.7,6,6S296.6,97.1,293.3,97.1z" />
    <path class="st0" d="M181.7,169.7c-2.7,0-4.8-2.2-4.8-4.8v-18.5c0-2.7,2.2-4.8,4.8-4.8c0,0,0,0,0,0h18.5c2.7-0.1,4.9,1.9,5,4.6  c0.1,2.7-1.9,4.9-4.6,5c-0.1,0-0.3,0-0.4,0h-13.7v13.7C186.5,167.5,184.4,169.7,181.7,169.7z" />
    <path class="st0" d="M354.9,351.4c2.7,0,4.8,2.2,4.8,4.8v18.5c0,2.7-2.2,4.8-4.8,4.8h-18.5c-2.7,0-4.8-2.1-4.8-4.8  c0-2.7,2.1-4.8,4.8-4.8c0,0,0,0,0,0H350v-13.7C350,353.6,352.2,351.4,354.9,351.4C354.8,351.4,354.8,351.4,354.9,351.4z" />
    <path class="st0" d="M350,164.9v-13.7h-13.7c-2.7,0.1-4.9-1.9-5-4.6c-0.1-2.7,1.9-4.9,4.6-5c0.1,0,0.3,0,0.4,0h18.5  c2.7,0,4.8,2.1,4.8,4.8c0,0,0,0,0,0v18.5c-0.1,2.7-2.4,4.7-5,4.6C352.1,169.4,350.2,167.4,350,164.9L350,164.9z" />
    <path class="st0" d="M186.5,356.2v13.7h13.7c2.7,0,4.8,2.1,4.8,4.8s-2.1,4.8-4.8,4.8c0,0,0,0,0,0h-18.5c-2.7,0-4.8-2.2-4.8-4.8  v-18.5c0.1-2.7,2.4-4.7,5-4.6C184.4,351.7,186.4,353.7,186.5,356.2z" />
    <path class="st5" d="M155.7,248.5h-51.6c-9.1,0-16.4,7.4-16.5,16.5v5c0,9.1,7.4,16.4,16.5,16.5h51.6V248.5z" />
    <path class="st5" d="M113.7,270v-5c0-9.1,7.4-16.4,16.4-16.4h-26c-9.1,0-16.4,7.4-16.4,16.4v5c0,9.1,7.4,16.4,16.5,16.5h26  C121.1,286.4,113.7,279.1,113.7,270z" />
    <path class="st5" d="M155.7,286.4h-34.6c-9.1,0-16.4,7.4-16.5,16.5v5c0,9.1,7.4,16.4,16.5,16.5h34.6V286.4z" />
    <path class="st5" d="M130.4,307.9v-5c0-9.1,7.4-16.4,16.5-16.4h-25.7c-9.1,0-16.4,7.4-16.5,16.4v5c0,9.1,7.4,16.4,16.5,16.5h25.7  C137.8,324.3,130.4,317,130.4,307.9z" />
    <path class="st5" d="M136.9,362.2c-9.1,0-16.4-7.4-16.5-16.5v-5c0-9.1,7.4-16.4,16.5-16.5h17.8c9.1,0,16.4,7.4,16.4,16.5v5  c0,9.1-7.4,16.4-16.4,16.5H136.9z" />
    <path class="st5" d="M139.7,345.8v-5c0-8.9,7-16.1,15.9-16.4c-0.3,0-0.6,0-0.8,0h-17.8c-9.1,0-16.4,7.4-16.5,16.5v5  c0,9.1,7.4,16.4,16.5,16.5h17.8c0.3,0,0.6,0,0.8,0C146.7,361.9,139.7,354.7,139.7,345.8z" />
    <path class="st5" d="M136.9,400.1c-9.1,0-16.4-7.4-16.5-16.5v-5c0-9.1,7.4-16.4,16.5-16.5h17.8c9.1,0,16.4,7.4,16.4,16.5v5  c0,9.1-7.4,16.4-16.4,16.5H136.9z" />
    <path class="st5" d="M141.1,383.7v-5c0-8.5,6.5-15.6,15-16.4c-0.5,0-0.9-0.1-1.4-0.1h-17.8c-9.1,0-16.4,7.4-16.5,16.5v5  c0,9.1,7.4,16.4,16.5,16.5h17.8c0.5,0,1,0,1.4-0.1C147.7,399.3,141.2,392.2,141.1,383.7z" />
    <path class="st5" d="M460.5,409.4l-31.8-31.8c-0.7-0.7-1-1.7-0.8-2.7c3.3-14.6,1.4-29.9-5.3-43.3c-4-8.1-16.3-21.4-16.3-21.4  l-30.6-54.4c-0.7-1.3-2.1-2.2-3.6-2.1c-0.5,0-1,0.1-1.5,0.3c-5,2-14,6.7-17.7,15.8c-3.5,8.5-1.6,18.9,5.7,30.8l19.4,31.8v92.2  c0.6,0.1,1.2,0.4,1.7,0.8l32.3,32.3c2.3,2.3,6,2.3,8.3,0l40.1-40C462.8,415.4,462.8,411.7,460.5,409.4  C460.5,409.4,460.5,409.4,460.5,409.4L460.5,409.4z" />
    <path class="st5" d="M460.5,409.4l-13.1-13.1l-27,26.9c-2.3,2.3-6,2.3-8.3,0l-32.4-32.3c-0.5-0.5-1.1-0.7-1.7-0.8v34.5  c0.6,0.1,1.2,0.4,1.7,0.8l32.4,32.3c2.3,2.3,6,2.3,8.3,0l40.1-40C462.8,415.5,462.8,411.7,460.5,409.4  C460.5,409.4,460.5,409.4,460.5,409.4z" />
    <path class="st6" d="M318.8,305.2l-29.1-10.6l-20.9,7l-20.8-7l-29.1,10.6c-5.5,2-9.1,7.2-9.1,13.1v21.5c0,1.9,1.6,3.5,3.5,3.5l0,0  h111.2c1.9,0,3.5-1.5,3.5-3.4c0,0,0,0,0-0.1v-21.5C328,312.4,324.3,307.2,318.8,305.2z" />
    <polygon class="st7" points="265.2,308.5 261.9,343.3 275.8,343.3 272.5,308.5 " />
    <path class="st8" d="M272.5,313.3h-7.3c-1.3,0-2.4-1.1-2.4-2.4v-9.3h12.2v9.3C274.9,312.2,273.9,313.3,272.5,313.3  C272.5,313.3,272.5,313.3,272.5,313.3z" />
    <path class="st9" d="M324.2,308.8c2.4,2.6,3.7,6,3.7,9.5v21.5c0,1.9-1.6,3.5-3.5,3.5c0,0,0,0,0,0h-17.4v-11.6c0-3.7,1.5-7.2,4.1-9.8  L324.2,308.8z" />
    <path class="st10" d="M307.1,222.9v-29.1c0-3.8-3.1-7-7-7h-41.7c-15.4,0-27.8,12.5-27.8,27.8v8.3c0,3.7,0.6,7.5,1.8,11l1.2,3.5  c0.4,1.1,0.5,2.2,0.5,3.3v1.8h69.5v-1.8c0-1.1,0.2-2.2,0.5-3.3l1.2-3.5C306.5,230.3,307.1,226.6,307.1,222.9z" />
    <path class="st11" d="M248,201c0,7.8,6.3,14.1,14.1,14.1h2l1,27.4h38.6v-1.8c0-1.1,0.2-2.2,0.5-3.3l1.2-3.5c1.2-3.5,1.8-7.3,1.8-11  v-29.1c0-3.8-3.1-7-7-7h-38c-7.8,0-14.1,6.3-14.1,14.1C248,200.9,248,201,248,201z" />
    <rect x="248" y="270.3" class="st12" width="41.7" height="31.3" />
    <path class="st13" d="M248,282c12.9,7.5,28.8,7.5,41.7,0v-11.7H248V282z" />
    <path class="st9" d="M268.9,301.6l-11.1,11.1c-1.4,1.4-3.6,1.4-4.9,0c-0.1-0.1-0.2-0.2-0.3-0.4L241,297.1l3-6.3  c0.8-1.7,2.9-2.5,4.6-1.7c0.1,0.1,0.2,0.1,0.4,0.2L268.9,301.6z" />
    <path class="st9" d="M268.9,301.6l11.1,11.1c1.4,1.4,3.6,1.4,4.9,0c0.1-0.1,0.2-0.2,0.3-0.4l11.5-15.1l-3-6.3  c-0.8-1.7-2.9-2.5-4.6-1.7c-0.1,0.1-0.2,0.1-0.4,0.2L268.9,301.6z" />
    <path class="st5" d="M268.9,280.7L268.9,280.7c-19.2,0-34.7-15.5-34.8-34.7v-4.1c0-1.8,0.7-3.6,2-4.9l2.9-2.9c1.3-1.3,2-3.1,2-4.9  v-8.3c0-1.6,1.1-3,2.6-3.4c8.2-1.9,33.8-6.5,51.2,6.3c1.1,0.9,1.8,2.2,1.8,3.6v1.9c0,1.8,0.7,3.6,2,4.9l2.9,2.9c1.3,1.3,2,3.1,2,4.9  v4.1C303.4,265.1,288,280.6,268.9,280.7z" />
    <path class="st12" d="M294.9,223.7c-12.3-9-28.5-9.4-40-8.2c-3.8,0.4-7.5,1-11.3,1.9c-1.6,0.4-2.7,1.8-2.6,3.4v8.3  c0,1.8-0.7,3.6-2,4.9l-2.9,2.9c-1.3,1.3-2,3.1-2,4.9v4.1c0,17.6,13.1,32.4,30.6,34.5c-6.2-6.5-9.7-15.1-9.7-24.1V231  c0-3.5,2.6-6.5,6.1-6.9c8.4-1.1,23.6-1.7,35.6,5.1v-1.9C296.7,225.9,296.1,224.6,294.9,223.7z" />
    <path class="st9" d="M213.5,308.8c-2.4,2.6-3.7,6-3.7,9.5v21.5c0,1.9,1.6,3.5,3.5,3.5l0,0h17.4v-11.6c0-3.7-1.5-7.2-4.1-9.8  L213.5,308.8z" />
    <path class="st14" d="M467.3,386l-3.5-3c-5.8-5-14.6-4.4-19.7,1.3l-58.7,65.1L367.7,434c-5.8-5-14.6-4.5-19.7,1.2l-3.1,3.4  c-5.2,5.8-4.8,14.7,1,20c0,0,0,0,0,0l32.5,29.7c5.7,5.3,14.6,5.1,20-0.6c0.1-0.1,0.3-0.3,0.4-0.5l70-81.4  C473.9,400,473.2,391.1,467.3,386C467.3,386,467.3,386,467.3,386z" />
</svg>